<svg width="71" height="32" viewBox="0 0 71 32" fill="none" xmlns="http://www.w3.org/2000/svg">
<g clip-path="url(#clip0_4138_167)">
<path d="M67.5552 16.4648C67.5552 22.6148 53.2952 27.5948 35.7052 27.5948C18.1152 27.5948 3.86523 22.5948 3.86523 16.4648C3.86523 10.3348 18.1252 5.38477 35.7052 5.38477C53.2852 5.38477 67.5552 10.3848 67.5552 16.5048" fill="#4C4C4C"/>
<path d="M29.8658 32.2846H25.6859C25.517 32.2999 25.3468 32.2799 25.1862 32.2258C25.0255 32.1717 24.8779 32.0848 24.7527 31.9704C24.6276 31.8561 24.5276 31.717 24.4592 31.5619C24.3908 31.4068 24.3555 31.2391 24.3555 31.0696C24.3555 30.9001 24.3908 30.7324 24.4592 30.5773C24.5276 30.4222 24.6276 30.2831 24.7527 30.1688C24.8779 30.0545 25.0255 29.9675 25.1862 29.9134C25.3468 29.8593 25.517 29.8393 25.6859 29.8546H29.8658C30.0347 29.8393 30.2048 29.8593 30.3655 29.9134C30.5261 29.9675 30.6737 30.0545 30.7989 30.1688C30.9241 30.2831 31.024 30.4222 31.0924 30.5773C31.1608 30.7324 31.1962 30.9001 31.1962 31.0696C31.1962 31.2391 31.1608 31.4068 31.0924 31.5619C31.024 31.717 30.9241 31.8561 30.7989 31.9704C30.6737 32.0848 30.5261 32.1717 30.3655 32.2258C30.2048 32.2799 30.0347 32.2999 29.8658 32.2846Z" fill="#4C4C4C"/>
<path d="M37.8055 32.285H33.6155C33.3123 32.2574 33.0303 32.1175 32.825 31.8927C32.6197 31.6679 32.5059 31.3744 32.5059 31.07C32.5059 30.7655 32.6197 30.4721 32.825 30.2472C33.0303 30.0224 33.3123 29.8825 33.6155 29.855H37.8055C38.1088 29.8825 38.3907 30.0224 38.596 30.2472C38.8013 30.4721 38.9152 30.7655 38.9152 31.07C38.9152 31.3744 38.8013 31.6679 38.596 31.8927C38.3907 32.1175 38.1088 32.2574 37.8055 32.285Z" fill="#4C4C4C"/>
<path d="M45.7352 32.285H41.5452C41.242 32.2574 40.96 32.1175 40.7547 31.8927C40.5494 31.6679 40.4355 31.3744 40.4355 31.07C40.4355 30.7655 40.5494 30.4721 40.7547 30.2472C40.96 30.0224 41.242 29.8825 41.5452 29.855H45.7352C46.0384 29.8825 46.3204 30.0224 46.5257 30.2472C46.731 30.4721 46.8448 30.7655 46.8448 31.07C46.8448 31.3744 46.731 31.6679 46.5257 31.8927C46.3204 32.1175 46.0384 32.2574 45.7352 32.285Z" fill="#4C4C4C"/>
<path d="M4.73508 25.4848L0.835055 23.9548C0.68561 23.8984 0.548932 23.8127 0.433017 23.7029C0.317101 23.593 0.224271 23.461 0.160006 23.3148C0.0957412 23.1686 0.0613181 23.011 0.058749 22.8513C0.0561799 22.6916 0.0855242 22.533 0.145053 22.3848C0.263331 22.0863 0.494471 21.8465 0.788363 21.7174C1.08226 21.5882 1.41522 21.5801 1.71506 21.6948L5.61508 23.2248C5.91478 23.3415 6.15585 23.5724 6.28525 23.8669C6.41465 24.1613 6.42178 24.4951 6.30509 24.7948C6.18839 25.0945 5.95737 25.3355 5.66294 25.4649C5.3685 25.5943 5.03477 25.6015 4.73508 25.4848Z" fill="#4C4C4C"/>
<path d="M12.1256 28.3849L8.22568 26.8649C8.07623 26.8085 7.93956 26.7229 7.82364 26.613C7.70773 26.5031 7.6149 26.3712 7.55063 26.225C7.48637 26.0787 7.45194 25.9212 7.44937 25.7614C7.4468 25.6017 7.47615 25.4431 7.53568 25.2949C7.65396 24.9965 7.8851 24.7567 8.17899 24.6275C8.47288 24.4984 8.80585 24.4902 9.10568 24.6049L13.0056 26.1249C13.3053 26.2416 13.5464 26.4726 13.6758 26.767C13.8052 27.0614 13.8123 27.3952 13.6957 27.6949C13.579 27.9946 13.348 28.2357 13.0536 28.3651C12.7591 28.4945 12.4253 28.5016 12.1256 28.3849Z" fill="#4C4C4C"/>
<path d="M19.5143 31.2553L15.6144 29.7253C15.4649 29.6689 15.3282 29.5832 15.2123 29.4734C15.0963 29.3635 15.0036 29.2315 14.9393 29.0853C14.875 28.9391 14.8406 28.7815 14.838 28.6218C14.8355 28.4621 14.8648 28.3035 14.9243 28.1553C15.0426 27.8568 15.2738 27.617 15.5677 27.4879C15.8616 27.3587 16.1945 27.3506 16.4944 27.4653L20.3943 28.9953C20.694 29.112 20.9351 29.3429 21.0645 29.6374C21.1939 29.9318 21.201 30.2656 21.0843 30.5653C20.9676 30.865 20.7367 31.106 20.4422 31.2354C20.1478 31.3648 19.814 31.372 19.5143 31.2553Z" fill="#4C4C4C"/>
<path d="M66.4046 25.4849L70.3046 23.9549C70.6043 23.8383 70.8453 23.6073 70.9747 23.3128C71.1041 23.0184 71.1113 22.6846 70.9946 22.3849C70.8779 22.0853 70.6469 21.8442 70.3525 21.7148C70.058 21.5854 69.7243 21.5783 69.4246 21.6949L65.5246 23.2249C65.3762 23.2827 65.2406 23.3692 65.1256 23.4793C65.0107 23.5895 64.9185 23.7213 64.8544 23.867C64.7903 24.0128 64.7556 24.1698 64.7522 24.329C64.7488 24.4882 64.7768 24.6466 64.8346 24.7949C64.8923 24.9433 64.9788 25.0789 65.089 25.1939C65.1991 25.3089 65.3309 25.401 65.4767 25.4651C65.6224 25.5292 65.7794 25.5639 65.9386 25.5673C66.0978 25.5707 66.2562 25.5427 66.4046 25.4849Z" fill="#4C4C4C"/>
<path d="M59.0159 28.3851L62.9159 26.8651C63.2156 26.7484 63.4567 26.5174 63.5861 26.223C63.7155 25.9286 63.7226 25.5948 63.6059 25.2951C63.4892 24.9954 63.2583 24.7543 62.9638 24.6249C62.6694 24.4955 62.3356 24.4884 62.0359 24.6051L58.1359 26.1251C57.9875 26.1829 57.852 26.2693 57.737 26.3795C57.622 26.4897 57.5298 26.6214 57.4657 26.7672C57.4017 26.913 57.367 27.07 57.3636 27.2292C57.3602 27.3884 57.3881 27.5467 57.4459 27.6951C57.5037 27.8435 57.5901 27.9791 57.7003 28.094C57.8105 28.209 57.9422 28.3012 58.088 28.3653C58.2338 28.4293 58.3908 28.4641 58.55 28.4675C58.7092 28.4709 58.8675 28.4429 59.0159 28.3851Z" fill="#4C4C4C"/>
<path d="M51.6252 31.255L55.5253 29.725C55.825 29.6083 56.066 29.3773 56.1954 29.0829C56.3248 28.7884 56.332 28.4547 56.2153 28.155C56.0986 27.8553 55.8676 27.6142 55.5732 27.4848C55.2788 27.3554 54.945 27.3483 54.6453 27.465L50.7453 28.995C50.4456 29.1117 50.2045 29.3426 50.0751 29.6371C49.9457 29.9315 49.9386 30.2653 50.0553 30.565C50.172 30.8647 50.403 31.1057 50.6974 31.2351C50.9918 31.3645 51.3256 31.3717 51.6252 31.255Z" fill="#4C4C4C"/>
<path d="M29.8658 0.0049998H25.6859C25.517 -0.0103316 25.3468 0.00968917 25.1862 0.0637805C25.0255 0.117872 24.8779 0.204847 24.7527 0.319163C24.6276 0.433479 24.5276 0.572626 24.4592 0.727729C24.3908 0.882831 24.3555 1.05049 24.3555 1.22C24.3555 1.38951 24.3908 1.55717 24.4592 1.71227C24.5276 1.86737 24.6276 2.00652 24.7527 2.12084C24.8779 2.23515 25.0255 2.32213 25.1862 2.37622C25.3468 2.43031 25.517 2.45033 25.6859 2.435H29.8658C30.0347 2.45033 30.2048 2.43031 30.3655 2.37622C30.5261 2.32213 30.6737 2.23515 30.7989 2.12084C30.9241 2.00652 31.024 1.86737 31.0924 1.71227C31.1608 1.55717 31.1962 1.38951 31.1962 1.22C31.1962 1.05049 31.1608 0.882831 31.0924 0.727729C31.024 0.572626 30.9241 0.433479 30.7989 0.319163C30.6737 0.204847 30.5261 0.117872 30.3655 0.0637805C30.2048 0.00968917 30.0347 -0.0103316 29.8658 0.0049998Z" fill="#4C4C4C"/>
<path d="M37.8055 0.00488281H33.6155C33.3123 0.0324193 33.0303 0.172336 32.825 0.397148C32.6197 0.621961 32.5059 0.915421 32.5059 1.21988C32.5059 1.52435 32.6197 1.81781 32.825 2.04262C33.0303 2.26743 33.3123 2.40735 33.6155 2.43488H37.8055C38.1088 2.40735 38.3907 2.26743 38.596 2.04262C38.8013 1.81781 38.9152 1.52435 38.9152 1.21988C38.9152 0.915421 38.8013 0.621961 38.596 0.397148C38.3907 0.172336 38.1088 0.0324193 37.8055 0.00488281Z" fill="#4C4C4C"/>
<path d="M45.7352 0.00488281H41.5452C41.242 0.0324193 40.96 0.172336 40.7547 0.397148C40.5494 0.621961 40.4355 0.915421 40.4355 1.21988C40.4355 1.52435 40.5494 1.81781 40.7547 2.04262C40.96 2.26743 41.242 2.40735 41.5452 2.43488H45.7352C46.0384 2.40735 46.3204 2.26743 46.5257 2.04262C46.731 1.81781 46.8448 1.52435 46.8448 1.21988C46.8448 0.915421 46.731 0.621961 46.5257 0.397148C46.3204 0.172336 46.0384 0.0324193 45.7352 0.00488281Z" fill="#4C4C4C"/>
<path d="M4.73503 6.8051L0.835002 8.3851C0.678334 8.43617 0.533777 8.51869 0.410136 8.62762C0.286495 8.73655 0.18641 8.86958 0.116008 9.01856C0.0456063 9.16755 0.00636549 9.32934 0.000712537 9.49402C-0.00494041 9.65871 0.0230901 9.82281 0.08311 9.97627C0.14313 10.1297 0.233831 10.2693 0.349712 10.3865C0.465592 10.5036 0.604202 10.5959 0.756999 10.6575C0.909796 10.7192 1.07359 10.7491 1.23832 10.7452C1.40306 10.7413 1.56527 10.7039 1.71501 10.6351L5.61503 9.1151C5.91473 8.99841 6.1558 8.76744 6.2852 8.473C6.4146 8.17857 6.42173 7.8448 6.30503 7.5451C6.18834 7.24541 5.95731 7.00434 5.66288 6.87494C5.36845 6.74554 5.03472 6.73841 4.73503 6.8551" fill="#4C4C4C"/>
<path d="M12.1256 3.92493L8.22568 5.44493C8.07623 5.50131 7.93956 5.58695 7.82364 5.69684C7.70773 5.80673 7.6149 5.93865 7.55063 6.08488C7.48637 6.23111 7.45194 6.38869 7.44937 6.5484C7.4468 6.7081 7.47615 6.86671 7.53568 7.01493C7.65396 7.31337 7.8851 7.55316 8.17899 7.68233C8.47288 7.81149 8.80585 7.81961 9.10568 7.70493L13.0056 6.18493C13.154 6.12715 13.2896 6.0407 13.4046 5.93053C13.5196 5.82036 13.6117 5.68862 13.6758 5.54283C13.7399 5.39705 13.7746 5.24006 13.778 5.08086C13.7815 4.92165 13.7534 4.76332 13.6957 4.61493C13.6379 4.46653 13.5514 4.33098 13.4413 4.21599C13.3311 4.101 13.1993 4.00884 13.0536 3.94477C12.9078 3.8807 12.7508 3.84597 12.5916 3.84256C12.4324 3.83916 12.274 3.86715 12.1256 3.92493Z" fill="#4C4C4C"/>
<path d="M19.5143 1.03479L15.6144 2.56479C15.4577 2.61585 15.3131 2.69838 15.1894 2.80731C15.0658 2.91624 14.9657 3.04927 14.8953 3.19825C14.8249 3.34723 14.7857 3.50903 14.78 3.67371C14.7744 3.83839 14.8024 4.0025 14.8624 4.15596C14.9224 4.30942 15.0132 4.449 15.1291 4.56615C15.245 4.6833 15.3836 4.77554 15.5364 4.83723C15.6892 4.89892 15.8529 4.92875 16.0177 4.92489C16.1824 4.92103 16.3446 4.88357 16.4944 4.81479L20.3943 3.29479C20.694 3.17809 20.9351 2.94712 21.0645 2.65269C21.1939 2.35826 21.201 2.02448 21.0843 1.72479C20.9676 1.4251 20.7367 1.18403 20.4422 1.05463C20.1478 0.925231 19.814 0.918096 19.5143 1.03479Z" fill="#4C4C4C"/>
<path d="M66.4051 6.8053L70.3051 8.3853C70.4797 8.4206 70.6444 8.49402 70.7873 8.60032C70.9303 8.70662 71.048 8.84318 71.1321 9.00024C71.2161 9.1573 71.2645 9.33099 71.2737 9.50891C71.2829 9.68682 71.2527 9.86457 71.1852 10.0295C71.1178 10.1943 71.0147 10.3423 70.8835 10.4628C70.7522 10.5832 70.596 10.6732 70.4259 10.7263C70.2559 10.7794 70.0762 10.7943 69.8998 10.7699C69.7233 10.7456 69.5544 10.6825 69.4051 10.5853L65.505 9.0653C65.3566 9.00752 65.2211 8.92107 65.1061 8.8109C64.9911 8.70073 64.899 8.56899 64.8349 8.4232C64.7709 8.27741 64.7361 8.12043 64.7327 7.96122C64.7293 7.80201 64.7573 7.64369 64.815 7.4953C64.8728 7.34691 64.9593 7.21134 65.0694 7.09636C65.1796 6.98137 65.3114 6.88921 65.4572 6.82514C65.603 6.76107 65.76 6.72634 65.9192 6.72293C66.0784 6.71953 66.2366 6.74751 66.385 6.8053" fill="#4C4C4C"/>
<path d="M59.0159 3.92493L62.9159 5.44493C63.0643 5.50271 63.1999 5.58915 63.3149 5.69932C63.4298 5.8095 63.522 5.94124 63.5861 6.08702C63.6502 6.23281 63.6849 6.38979 63.6883 6.549C63.6917 6.70821 63.6637 6.86654 63.6059 7.01493C63.5481 7.16332 63.4617 7.29888 63.3515 7.41387C63.2414 7.52885 63.1096 7.62102 62.9638 7.68509C62.8181 7.74916 62.6611 7.78389 62.5019 7.78729C62.3427 7.7907 62.1843 7.76271 62.0359 7.70493L58.1359 6.18493C57.9875 6.12715 57.852 6.0407 57.737 5.93053C57.622 5.82036 57.5298 5.68862 57.4657 5.54283C57.4017 5.39705 57.367 5.24006 57.3636 5.08086C57.3602 4.92165 57.3881 4.76332 57.4459 4.61493C57.5037 4.46653 57.5901 4.33098 57.7003 4.21599C57.8105 4.101 57.9422 4.00884 58.088 3.94477C58.2338 3.8807 58.3908 3.84597 58.55 3.84256C58.7092 3.83916 58.8675 3.86715 59.0159 3.92493Z" fill="#4C4C4C"/>
<path d="M51.6253 1.03479L55.5253 2.56479C55.682 2.61586 55.8266 2.69838 55.9502 2.80731C56.0739 2.91624 56.174 3.04927 56.2444 3.19825C56.3148 3.34724 56.3539 3.50903 56.3596 3.67371C56.3652 3.83839 56.3372 4.0025 56.2772 4.15596C56.2172 4.30942 56.1265 4.449 56.0106 4.56615C55.8947 4.6833 55.7561 4.77555 55.6033 4.83723C55.4505 4.89892 55.2867 4.92875 55.122 4.92489C54.9572 4.92103 54.795 4.88357 54.6453 4.81479L50.7453 3.29479C50.5969 3.23701 50.4613 3.15056 50.3463 3.04039C50.2314 2.93022 50.1392 2.79848 50.0752 2.65269C50.0111 2.50691 49.9763 2.34992 49.9729 2.19071C49.9695 2.0315 49.9975 1.87318 50.0553 1.72479C50.1131 1.5764 50.1996 1.44084 50.3097 1.32585C50.4199 1.21086 50.5516 1.11871 50.6974 1.05463C50.8432 0.99056 51.0002 0.95583 51.1594 0.952426C51.3186 0.949021 51.4769 0.977011 51.6253 1.03479Z" fill="#4C4C4C"/>
</g>
<defs>
<clipPath id="clip0_4138_167">
<rect width="71" height="32" fill="white"/>
</clipPath>
</defs>
</svg>
