<svg width="126" height="44" viewBox="0 0 126 44" fill="none" xmlns="http://www.w3.org/2000/svg">
<path d="M123.695 43.4866C124.523 43.4866 125.195 42.815 125.195 41.9866V28.4866C125.195 27.6581 124.523 26.9866 123.695 26.9866C122.866 26.9866 122.195 27.6581 122.195 28.4866V40.4866H110.195C109.366 40.4866 108.695 41.1581 108.695 41.9866C108.695 42.815 109.366 43.4866 110.195 43.4866H123.695ZM2.78234 43.0472L28.4133 17.4161L26.292 15.2948L0.661017 40.9259L2.78234 43.0472ZM97.0028 17.4161L122.634 43.0472L124.755 40.9259L99.1241 15.2948L97.0028 17.4161ZM28.4133 17.4161C47.3537 -1.52435 78.0623 -1.52439 97.0028 17.4161L99.1241 15.2948C79.012 -4.81728 46.404 -4.81725 26.292 15.2948L28.4133 17.4161Z" fill="black"/>
</svg>
