<svg width="73" height="73" viewBox="0 0 73 73" fill="none" xmlns="http://www.w3.org/2000/svg">
<g clip-path="url(#clip0)">
<path d="M36.8223 0.60498H21.2223C20.5596 0.60498 20.0223 1.14229 20.0223 1.80498V10.205H2.02227C1.35957 10.205 0.822266 10.7423 0.822266 11.405V71.405C0.822266 72.0677 1.35957 72.605 2.02227 72.605H36.8223C37.485 72.605 38.0223 72.0677 38.0223 71.405V1.80498C38.0223 1.14229 37.485 0.60498 36.8223 0.60498ZM35.6223 63.005H22.4223V60.605H35.6223V63.005ZM3.22227 18.605H20.0223V54.605H3.22227V18.605ZM35.6223 13.805H22.4223V10.205H35.6223V13.805ZM3.22227 57.005H20.0223V60.605H3.22227V57.005ZM22.4223 58.205V16.205H35.6223V58.205H22.4223ZM35.6223 3.00498V7.80498H22.4223V3.00498H35.6223ZM20.0223 12.605V16.205H3.22227V12.605H20.0223ZM3.22227 63.005H20.0223V70.205H3.22227V63.005ZM22.4223 70.205V65.405H35.6223V70.205H22.4223Z" fill="black"/>
<path d="M72.7832 66.3026L58.3832 11.1026C58.3029 10.7932 58.1025 10.529 57.826 10.3678C57.55 10.2073 57.2213 10.1633 56.9125 10.246L38.9125 15.046C38.275 15.2159 37.8941 15.8686 38.0605 16.5073L52.4605 71.7073C52.5408 72.0167 52.7418 72.2809 53.0183 72.4415C53.2943 72.6014 53.623 72.6448 53.9312 72.5616L71.9312 67.7616C72.5676 67.5917 72.9478 66.9401 72.7832 66.3026ZM42.5963 24.3864L58.2777 20.2057L58.842 22.3655L43.1617 26.5526L42.5963 24.3864ZM59.4478 24.694L66.4076 51.3911L50.732 55.5735L43.7722 28.8747L59.4478 24.694ZM67.0187 53.7143L68.2474 58.4235L52.566 62.6042L51.342 57.8967L67.0187 53.7143ZM56.3652 12.8751L57.6719 17.8848L41.9904 22.0643L40.6849 17.0569L56.3652 12.8751ZM54.4785 69.9348L53.1719 64.9251L68.8533 60.7432L70.1588 65.7506L54.4785 69.9348Z" fill="black"/>
<path d="M16.423 22.205H6.82305C6.16035 22.205 5.62305 22.7423 5.62305 23.405V33.005C5.62305 33.6677 6.16035 34.205 6.82305 34.205H16.423C17.0857 34.205 17.623 33.6677 17.623 33.005V23.405C17.623 22.7423 17.0857 22.205 16.423 22.205ZM15.223 31.805H8.02305V24.605H15.223V31.805Z" fill="black"/>
</g>
<defs>
<clipPath id="clip0">
<rect width="72" height="72" fill="white" transform="translate(0.822266 0.60498)"/>
</clipPath>
</defs>
</svg>
