<svg width="74" height="74" viewBox="0 0 74 74" fill="none" xmlns="http://www.w3.org/2000/svg">
<g clip-path="url(#clip0)">
<path d="M58.8045 21.2742L55.3316 18.1704C53.9065 16.8964 52.061 16.1924 50.1485 16.1924H43.9807V26.9346H43.9822L43.9824 26.9355L43.9807 26.9346H40.6189V44.0014H47.2941H68.2955V21.2742H58.8045Z" fill="#EB9C8D"/>
<path d="M56.285 44.0013C56.3021 43.8105 56.3137 43.6188 56.3137 43.4256C56.3137 42.0635 55.895 40.7574 55.1025 39.648L43.5698 26.4937L42.6315 26.9346H43.9809H43.9825L43.9826 26.9354L43.9809 26.9346H40.6191V44.0013H47.2944H56.285Z" fill="#D78878"/>
<path d="M45.9275 44.2907C47.079 45.9296 46.6971 48.1954 45.0639 49.3654C44.4184 49.8272 43.6745 50.0495 42.9377 50.0495C41.7991 50.0495 40.6761 49.5179 39.9622 48.5218L39.5603 47.9603C40.7331 49.602 40.3541 51.8836 38.7138 53.0578C38.0697 53.5195 37.3258 53.7419 36.589 53.7419C35.4489 53.7419 34.326 53.2103 33.612 52.2127L33.3854 51.8964C34.5611 53.5381 34.1835 55.8225 32.5418 56.9982C31.8976 57.4599 31.1537 57.6822 30.417 57.6822C29.2769 57.6822 28.1539 57.1506 27.44 56.1531L19.0064 44.2252C18.9066 44.0841 18.7456 44.0014 18.5746 44.0014L5.15601 44.0242V20.9907H15.2812L16.3828 19.8535C17.8748 18.3144 19.927 17.4451 22.0717 17.4451H33.7745L42.6313 26.9347L52.7793 41.2995C53.2411 41.9436 53.4634 42.6875 53.4634 43.4257C53.4634 44.5643 52.9318 45.6873 51.9343 46.4013C50.2926 47.5755 48.0096 47.1979 46.8339 45.5562L45.9275 44.2907Z" fill="#FED2A4"/>
<path d="M72.1819 20.0282V45.233C72.1819 45.8451 71.6857 46.3413 71.0736 46.3413H62.4515C61.6841 46.3413 61.062 45.7193 61.062 44.9519V20.3094C61.062 19.542 61.6841 18.9199 62.4515 18.9199H71.0736C71.6857 18.9199 72.1819 19.4161 72.1819 20.0282Z" fill="#FDB97E"/>
<path d="M29.7433 53.6338C30.4573 54.6314 31.5803 55.1629 32.7203 55.1629C33.1349 55.1629 33.551 55.0898 33.951 54.946C33.7435 55.7455 33.2657 56.4797 32.5418 56.9982C31.8976 57.4599 31.1537 57.6822 30.417 57.6822C29.2769 57.6822 28.1539 57.1506 27.44 56.1531L19.0064 44.2252C18.9066 44.0841 18.7456 44.0014 18.5746 44.0014L5.15601 44.0242V20.9907H15.2812L15.4308 20.8362V38.889C15.4308 40.3256 16.5967 41.4894 18.0333 41.487L20.077 41.4889C20.7823 41.4894 21.4432 41.833 21.849 42.4099L29.7433 53.6338Z" fill="#FFBD86"/>
<path d="M12.5808 20.3094V44.9519C12.5808 45.7193 11.9587 46.3413 11.1913 46.3413H2.11213C1.67377 46.3413 1.31836 45.9859 1.31836 45.5475V19.7137C1.31836 19.2753 1.67377 18.9199 2.11213 18.9199H11.1913C11.9587 18.9199 12.5808 19.542 12.5808 20.3094Z" fill="#ADE194"/>
<path d="M11.1913 41.2149H2.11213C1.67377 41.2149 1.31836 40.8595 1.31836 40.4211V45.5477C1.31836 45.9861 1.67377 46.3415 2.11213 46.3415H11.1913C11.9587 46.3415 12.5808 45.7194 12.5808 44.952V39.8254C12.5808 40.5928 11.9587 41.2149 11.1913 41.2149Z" fill="#97DA7B"/>
<path d="M42.6314 26.9347L33.7745 17.4451H30.0242L22.9639 25.7006C22.0219 26.8004 21.5032 28.2039 21.5032 29.6523C21.5032 31.2755 22.1352 32.8014 23.2828 33.9492C24.4306 35.097 25.9568 35.7291 27.5804 35.7291C28.959 35.7291 30.3106 35.2533 31.3847 34.3901L37.1212 29.7848H44.6449L42.6314 26.9347Z" fill="#FFBD86"/>
<path d="M43.9807 16.1924H36.4949C35.4489 16.1924 34.4557 16.6498 33.7745 17.445L25.1285 27.5545C24.6098 28.1602 24.3533 28.9069 24.3533 29.6523C24.3533 30.4802 24.6711 31.3068 25.2981 31.9338C26.4624 33.0981 28.3164 33.1993 29.6004 32.1675L35.7667 27.2172C35.9946 27.0344 36.2779 26.9346 36.57 26.9346H43.9806V16.1924H43.9807Z" fill="#EB9C8D"/>
<path d="M1.31881 19.989H11.1916C11.3685 19.989 11.5123 20.1329 11.5123 20.3098V36.1061C11.5123 36.6964 11.9908 37.1749 12.5811 37.1749C13.1713 37.1749 13.6499 36.6964 13.6499 36.1061V22.0599H15.2809C15.5702 22.0599 15.8471 21.9426 16.0484 21.735L17.1502 20.5982C18.4336 19.2739 20.2273 18.5143 22.0715 18.5143H31.4541L24.3156 26.8593C22.8669 28.5529 22.9666 31.1137 24.5423 32.6896C25.378 33.5253 26.4766 33.9501 27.5803 33.9499C28.5277 33.9499 29.4791 33.6367 30.27 33.0015L36.4941 28.0035H42.0784L47.773 36.065C47.9813 36.3599 48.3114 36.5172 48.647 36.5172C48.86 36.5172 49.0754 36.4537 49.2626 36.3213C49.7447 35.9807 49.8595 35.3137 49.519 34.8316L44.5707 27.8265C44.8601 27.6353 45.0512 27.3074 45.0512 26.9346C45.0512 26.3443 44.5728 25.8657 43.9824 25.8657H36.1181C35.8747 25.8657 35.6387 25.9488 35.4489 26.1012L28.9316 31.3348C28.0713 32.0255 26.8343 31.9582 26.0539 31.178C25.2621 30.3862 25.2121 29.0997 25.9401 28.2488L34.5872 18.1402C35.0648 17.5818 35.7603 17.2614 36.4952 17.2614H45.7699C46.3603 17.2614 46.8387 16.7829 46.8387 16.1926C46.8387 15.6023 46.3603 15.1238 45.7699 15.1238H36.4952C35.3084 15.1238 34.1774 15.5751 33.3208 16.3766H22.0715C19.6522 16.3766 17.2989 17.373 15.6152 19.1103L14.8284 19.9222H13.6164C13.4296 18.7506 12.4151 17.8514 11.1916 17.8514H1.31881C0.728542 17.8514 0.25 18.3299 0.25 18.9202C0.25 19.5105 0.728542 19.989 1.31881 19.989Z" fill="black"/>
<path d="M72.1812 45.2722H62.4509C62.274 45.2722 62.1301 45.1283 62.1301 44.9516V20.31C62.1301 20.1331 62.274 19.9892 62.4509 19.9892H72.1812C72.7716 19.9892 73.25 19.5106 73.25 18.9204C73.25 18.3301 72.7716 17.8516 72.1812 17.8516H62.4509C61.1303 17.8516 60.0528 18.8988 59.9978 20.2061H59.2132L56.0442 17.3741C54.4769 15.9734 52.4542 15.1758 50.3491 15.1282C49.7521 15.1145 49.2698 15.5824 49.2564 16.1727C49.243 16.7628 49.7107 17.252 50.3007 17.2653C51.8976 17.3013 53.4316 17.9061 54.6199 18.968L58.0931 22.0718C58.2889 22.2469 58.5425 22.3437 58.8052 22.3437H59.9925V42.9327H54.5064C54.423 42.1278 54.1338 41.3553 53.6523 40.6828L52.1471 38.5521C51.8065 38.0702 51.1399 37.9553 50.6575 38.2957C50.1754 38.6363 50.0607 39.3033 50.4011 39.7854L51.9103 41.9216C52.3126 42.4835 52.4719 43.1685 52.359 43.8504C52.2463 44.5323 51.8747 45.1294 51.3126 45.5317C50.7506 45.934 50.0655 46.0931 49.3838 45.9806C48.702 45.8678 48.1048 45.4961 47.7024 44.9342L44.7545 40.8171C44.4109 40.337 43.743 40.2267 43.2633 40.5703C42.7834 40.914 42.6728 41.5817 43.0166 42.0615L45.0391 44.8863C45.8697 46.0465 45.6016 47.6659 44.4416 48.4965C43.88 48.8989 43.1952 49.0584 42.5129 48.9454C41.831 48.8325 41.2339 48.4608 40.8314 47.8989L38.809 45.0741C38.4654 44.594 37.7974 44.4839 37.3177 44.8273C36.8378 45.171 36.7273 45.8386 37.0711 46.3185L38.6894 48.5788C39.5196 49.7389 39.2514 51.358 38.0916 52.1886C36.9316 53.0192 35.3121 52.7512 34.4814 51.591L32.8634 49.3311C32.5196 48.851 31.852 48.7404 31.3722 49.0843C30.8922 49.4279 30.7816 50.0956 31.1254 50.5755L32.5165 52.5188C32.9188 53.0807 33.0783 53.7657 32.9654 54.4476C32.8526 55.1295 32.4809 55.7266 31.919 56.1289C30.759 56.9594 29.1395 56.6915 28.3125 55.5367L19.8786 43.6079C19.5798 43.1851 19.0923 42.9327 18.5745 42.9327H13.65V40.6611C13.65 40.0708 13.1715 39.5923 12.5812 39.5923C11.9909 39.5923 11.5124 40.0708 11.5124 40.6611V44.9514C11.5124 45.1283 11.3685 45.2721 11.1918 45.2721H1.31881C0.728542 45.2721 0.25 45.7506 0.25 46.3409C0.25 46.9312 0.728542 47.4097 1.31881 47.4097H11.1916C12.507 47.4097 13.5813 46.3704 13.6439 45.0702H18.2946L26.5707 56.7758C27.4921 58.0627 28.9451 58.7485 30.4189 58.7485C31.371 58.7485 32.3318 58.4622 33.1632 57.8669C34.1894 57.1322 34.868 56.0418 35.0742 54.7966C35.0868 54.7208 35.0973 54.6448 35.1062 54.569C35.5851 54.7268 36.0869 54.8083 36.5914 54.8083C37.5433 54.8083 38.5043 54.522 39.3357 53.9267C40.4089 53.1583 41.0627 52.02 41.2504 50.8087C41.5427 50.9195 41.8481 51.0023 42.1636 51.0545C42.4247 51.0977 42.6857 51.119 42.9451 51.119C43.9231 51.119 44.8747 50.8154 45.6857 50.2346C46.6267 49.5609 47.245 48.6028 47.5099 47.5603C47.9775 47.8197 48.4912 47.9995 49.0343 48.0895C49.2954 48.1326 49.5565 48.154 49.816 48.154C50.7939 48.154 51.7455 47.8503 52.5566 47.2696C53.3352 46.7121 53.9132 45.9494 54.237 45.0702H59.9979C60.0605 46.3704 61.1347 47.4097 62.4503 47.4097H72.1806C72.771 47.4097 73.2494 46.9312 73.2494 46.3409C73.2494 45.7506 72.7716 45.2722 72.1812 45.2722Z" fill="black"/>
<path d="M36.75 9.52455C37.3404 9.52455 37.8188 9.04601 37.8188 8.45574V4.74313C37.8188 4.15286 37.3404 3.67432 36.75 3.67432C36.1597 3.67432 35.6812 4.15286 35.6812 4.74313V8.4556C35.6812 9.04601 36.1597 9.52455 36.75 9.52455Z" fill="black"/>
<path d="M47.3851 11.7102C47.524 11.7706 47.6686 11.7993 47.8112 11.7993C48.2236 11.7993 48.6165 11.5591 48.7916 11.157L50.2738 7.75331C50.5095 7.21207 50.2619 6.58233 49.7206 6.34662C49.1798 6.1112 48.5496 6.35859 48.3141 6.89983L46.8318 10.3035C46.5961 10.8446 46.8438 11.4743 47.3851 11.7102Z" fill="black"/>
<path d="M24.7086 11.1569C24.8837 11.5592 25.2766 11.7991 25.689 11.7991C25.8315 11.7991 25.9763 11.7705 26.1153 11.7099C26.6565 11.4742 26.9042 10.8445 26.6684 10.3032L25.186 6.89957C24.9504 6.35847 24.3207 6.11079 23.7793 6.3465C23.238 6.58221 22.9904 7.21195 23.2262 7.75319L24.7086 11.1569Z" fill="black"/>
<path d="M36.75 64.4756C36.1597 64.4756 35.6812 64.9541 35.6812 65.5444V69.2569C35.6812 69.8471 36.1597 70.3257 36.75 70.3257C37.3404 70.3257 37.8188 69.8471 37.8188 69.2569V65.5444C37.8188 64.9541 37.3404 64.4756 36.75 64.4756Z" fill="black"/>
<path d="M48.7916 62.8433C48.5562 62.3022 47.9262 62.0544 47.3851 62.2901C46.8438 62.5258 46.5961 63.1555 46.8318 63.6968L48.3141 67.1004C48.4892 67.5027 48.882 67.7427 49.2945 67.7427C49.4369 67.7427 49.5818 67.7141 49.7206 67.6537C50.2619 67.4179 50.5095 66.7882 50.2738 66.247L48.7916 62.8433Z" fill="black"/>
<path d="M26.115 62.2902C25.5736 62.0543 24.944 62.302 24.7083 62.8433L23.2259 66.2469C22.9902 66.788 23.2377 67.4179 23.779 67.6536C23.9179 67.7142 24.0627 67.7428 24.2052 67.7428C24.6176 67.7428 25.0105 67.5027 25.1857 67.1005L26.6681 63.6969C26.9039 63.1556 26.6562 62.5259 26.115 62.2902Z" fill="black"/>
</g>
<defs>
<clipPath id="clip0">
<rect width="73" height="73" fill="white" transform="translate(0.25 0.5)"/>
</clipPath>
</defs>
</svg>
