<svg width="74" height="74" viewBox="0 0 74 74" fill="none" xmlns="http://www.w3.org/2000/svg">
<g clip-path="url(#clip0)">
<path d="M47.9765 68.3217V72.3316H25.2935V68.3217C25.2935 63.1334 29.5014 58.9255 34.6896 58.9255H38.579C43.7686 58.9255 47.9765 63.1334 47.9765 68.3217Z" fill="#BED8FB"/>
<path d="M39.6812 58.9905C35.0094 59.5333 31.3858 63.5044 31.3858 68.3215V72.3314H25.2935V68.3215C25.2935 63.132 29.5014 58.9241 34.6896 58.9241H38.579C38.9514 58.9241 39.3197 58.9462 39.6812 58.9905Z" fill="#9DC6FB"/>
<path d="M34.0012 63.9433V65.7672C34.0012 67.2213 35.1806 68.4006 36.6346 68.4006C37.3609 68.4006 38.0201 68.1062 38.4961 67.6285C38.9738 67.1526 39.2682 66.4933 39.2682 65.767V62.4482" fill="#E28086"/>
<path d="M36.7144 55.9863H31.4482V62.3282C31.4482 63.7824 32.6271 64.9613 34.0814 64.9613C35.5355 64.9613 36.7145 63.7825 36.7145 62.3282V55.9863H36.7144Z" fill="#D3EFFB"/>
<path d="M41.9807 55.9863H36.7146V62.3282C36.7146 63.7824 37.8934 64.9613 39.3477 64.9613C40.8019 64.9613 41.9809 63.7825 41.9809 62.3282V55.9863H41.9807Z" fill="#D3EFFB"/>
<path d="M46.0178 23.4863C44.3394 23.4863 42.8738 24.3943 42.0828 25.7452C40.2313 22.8507 36.9912 20.9302 33.3003 20.9302C27.545 20.9302 22.8794 25.5958 22.8794 31.3511V43.4433H41.4602V45.9994H50.5755V28.044C50.5755 25.5269 48.5349 23.4863 46.0178 23.4863Z" fill="#6C6570"/>
<path d="M37.8561 21.9774C36.8096 22.4874 35.8606 23.1688 35.0461 23.9834C33.1599 25.8695 31.9936 28.474 31.9936 31.3521V43.4436H22.8792V31.3521C22.8792 28.4741 24.0454 25.8695 25.9316 23.9834C27.8163 22.0972 30.4222 20.9309 33.3003 20.9309C34.9338 20.9308 36.48 21.3077 37.8561 21.9774Z" fill="#545058"/>
<path d="M49.0344 48.7904H24.2355C22.2442 48.7904 20.6299 47.1762 20.6299 45.1848C20.6299 43.1934 22.2442 41.5791 24.2355 41.5791H49.0344C51.0258 41.5791 52.6401 43.1934 52.6401 45.1848C52.6401 47.176 51.0258 48.7904 49.0344 48.7904Z" fill="#EAAC9D"/>
<path d="M47.0741 36.9598V49.9346C47.0741 55.6904 42.4704 60.4614 36.7148 60.5043C30.9132 60.5476 26.1963 55.8573 26.1963 50.0656V36.9597C26.1963 36.931 26.1964 36.9023 26.1966 36.8737C26.223 33.5975 29.7682 31.5865 32.6338 33.1745C33.8195 33.8315 35.1837 34.2056 36.6353 34.2056C39.8836 34.2056 42.6953 32.3322 44.0449 29.6062C45.9168 31.4924 47.0741 34.0906 47.0741 36.9598Z" fill="#FFDDCE"/>
<path d="M39.7036 60.0383C38.7585 60.3346 37.7557 60.4961 36.715 60.5046C30.9134 60.548 26.196 55.8574 26.196 50.0656V36.8741C26.2213 33.7016 29.5469 31.7158 32.36 33.0345V50.0657C32.36 54.7535 35.4497 58.7182 39.7036 60.0383Z" fill="#FFCBBE"/>
<path d="M39.1662 70.9317V72.3315H34.104V70.9317C34.104 69.5346 35.2366 68.4006 36.6351 68.4006C37.3343 68.4006 37.9657 68.6845 38.424 69.1428C38.8838 69.601 39.1662 70.2325 39.1662 70.9317Z" fill="#E28086"/>
<path d="M38.5989 2.62446L39.5908 4.63438C39.8504 5.16064 40.3524 5.52535 40.9332 5.60961L43.1513 5.93198C44.6135 6.14442 45.1975 7.94162 44.1393 8.97303L42.5343 10.5375C42.1141 10.9472 41.9224 11.5373 42.0216 12.1156L42.4004 14.3247C42.6502 15.7811 41.1215 16.8918 39.8136 16.2042L37.8297 15.1612C37.3103 14.8882 36.6898 14.8882 36.1703 15.1612L34.1864 16.2042C32.8783 16.8918 31.3498 15.7811 31.5996 14.3247L31.9784 12.1156C32.0776 11.5373 31.8859 10.9472 31.4657 10.5375L29.8607 8.97303C28.8025 7.94162 29.3865 6.14442 30.8487 5.93198L33.0668 5.60961C33.6476 5.52521 34.1496 5.16049 34.4092 4.63438L35.4011 2.62446C36.0553 1.29934 37.9449 1.29934 38.5989 2.62446Z" fill="#FFE07D"/>
<path d="M38.0191 1.94419C37.783 2.10702 37.5808 2.33329 37.4377 2.62401L36.4465 4.63379C36.1864 5.15947 35.6847 5.52447 35.1034 5.6086L32.8859 5.93096C31.4236 6.14412 30.8389 7.94074 31.8979 8.97244L33.5022 10.5364C33.923 10.9461 34.1143 11.5364 34.0148 12.1146L33.6367 14.3244C33.5076 15.0719 33.8487 15.7288 34.3886 16.0971L34.1876 16.203C32.8804 16.8915 31.3516 15.78 31.6008 14.3244L31.9801 12.1146C32.0796 11.5364 31.8871 10.9463 31.4675 10.5364L29.8621 8.97244C28.8041 7.94074 29.3877 6.14398 30.85 5.93096L33.0685 5.6086C33.6488 5.52447 34.1515 5.15947 34.4106 4.63379L35.4029 2.62401C35.9132 1.58803 37.1787 1.36176 38.0191 1.94419Z" fill="#FFD064"/>
<path d="M10.8479 8.59784L11.8398 10.6078C12.0994 11.134 12.6015 11.4987 13.1822 11.583L15.4003 11.9054C16.8625 12.1178 17.4465 13.915 16.3883 14.9464L14.7833 16.5109C14.3632 16.9206 14.1714 17.5107 14.2706 18.089L14.6494 20.2981C14.8992 21.7545 13.3705 22.8652 12.0627 22.1776L10.0787 21.1346C9.55927 20.8616 8.93877 20.8616 8.41936 21.1346L6.43538 22.1776C5.12737 22.8652 3.59879 21.7545 3.84859 20.2981L4.22742 18.089C4.32665 17.5107 4.13488 16.9206 3.71471 16.5109L2.1097 14.9464C1.05149 13.915 1.63549 12.1178 3.09777 11.9054L5.31586 11.583C5.89658 11.4986 6.3986 11.1339 6.65823 10.6078L7.65015 8.59784C8.30444 7.27272 10.1939 7.27272 10.8479 8.59784Z" fill="#FFE07D"/>
<path d="M10.2676 7.91744C10.0315 8.08026 9.82935 8.30653 9.6862 8.59725L8.695 10.607C8.43493 11.1327 7.9332 11.4977 7.35191 11.5818L5.13439 11.9042C3.67211 12.1174 3.0874 13.914 4.14647 14.9457L5.75076 16.5096C6.17151 16.9194 6.36284 17.5097 6.26333 18.0878L5.88521 20.2976C5.75618 21.0452 6.09722 21.702 6.63717 22.0703L6.43613 22.1762C5.12897 22.8648 3.60011 21.7532 3.84934 20.2976L4.22859 18.0878C4.32811 17.5097 4.13563 16.9195 3.71602 16.5096L2.11059 14.9457C1.05266 13.914 1.63624 12.1172 3.09852 11.9042L5.31703 11.5818C5.89733 11.4977 6.40006 11.1327 6.65912 10.607L7.65147 8.59725C8.16161 7.56113 9.42728 7.33486 10.2676 7.91744Z" fill="#FFD064"/>
<path d="M66.3498 8.59784L67.3418 10.6078C67.6014 11.134 68.1034 11.4987 68.6841 11.583L70.9022 11.9054C72.3645 12.1178 72.9485 13.915 71.8903 14.9464L70.2853 16.5109C69.8651 16.9206 69.6733 17.5107 69.7726 18.089L70.1514 20.2981C70.4012 21.7545 68.8725 22.8652 67.5646 22.1776L65.5806 21.1346C65.0612 20.8616 64.4407 20.8616 63.9213 21.1346L61.9373 22.1776C60.6293 22.8652 59.1007 21.7545 59.3505 20.2981L59.7294 18.089C59.8286 17.5107 59.6368 16.9206 59.2167 16.5109L57.6117 14.9464C56.5534 13.915 57.1374 12.1178 58.5997 11.9054L60.8178 11.583C61.3985 11.4986 61.9005 11.1339 62.1602 10.6078L63.1521 8.59784C63.8062 7.27272 65.6958 7.27272 66.3498 8.59784Z" fill="#FFE07D"/>
<path d="M65.7696 7.91744C65.5335 8.08026 65.3313 8.30653 65.1882 8.59725L64.1969 10.607C63.9369 11.1327 63.4352 11.4977 62.8539 11.5818L60.6363 11.9042C59.1741 12.1174 58.5893 13.914 59.6484 14.9457L61.2527 16.5096C61.6735 16.9194 61.8648 17.5097 61.7653 18.0878L61.3872 20.2976C61.2581 21.0452 61.5992 21.702 62.1391 22.0703L61.9381 22.1763C60.6309 22.8648 59.1021 21.7532 59.3513 20.2976L59.7305 18.0878C59.8301 17.5097 59.6376 16.9195 59.218 16.5096L57.6125 14.9457C56.5546 13.914 57.1382 12.1172 58.6005 11.9042L60.819 11.5818C61.3993 11.4977 61.902 11.1327 62.1611 10.607L63.1534 8.59725C63.6636 7.56113 64.9291 7.33486 65.7696 7.91744Z" fill="#FFD064"/>
<path d="M51.6451 41.3092V28.0442C51.6451 24.9418 49.1204 22.4178 46.017 22.4178C44.5516 22.4178 43.1562 22.9971 42.1207 23.9893C39.9496 21.3811 36.7464 19.8611 33.2995 19.8611C30.2303 19.8611 27.3448 21.0563 25.1746 23.2265C23.0044 25.3967 21.8092 28.2821 21.8092 31.3514V41.1868C21.4928 41.3793 21.1971 41.6106 20.9287 41.8791C20.0461 42.7616 19.5601 43.936 19.5601 45.1859C19.5601 47.7627 21.6574 49.8591 24.2355 49.8591H25.1263V50.0657C25.1263 51.5337 25.3993 52.9635 25.9378 54.3152C26.1564 54.8637 26.7782 55.1315 27.327 54.9129C27.8756 54.6944 28.1432 54.0724 27.9247 53.5238C27.4868 52.4248 27.2649 51.2614 27.2649 50.0656V36.9598L27.2651 36.9265C27.2658 36.9119 27.2662 36.8973 27.2664 36.8827C27.2752 35.7429 27.8698 34.7187 28.8567 34.1425C29.8687 33.5518 31.0865 33.5395 32.1147 34.1097C33.49 34.8717 35.0531 35.2746 36.6351 35.2746C39.6805 35.2746 42.4586 33.8301 44.1958 31.4213C45.3706 33.0184 46.0053 34.9414 46.0053 36.9598V49.9344C46.0053 55.1346 41.8341 59.3963 36.7071 59.4343C34.1885 59.4536 31.8289 58.4908 30.0446 56.7251C29.6249 56.3098 28.9478 56.3132 28.5325 56.7331C28.117 57.1528 28.1206 57.8299 28.5404 58.2453C28.8771 58.5783 29.2324 58.8851 29.6007 59.1709C26.3179 60.9869 24.2251 64.4477 24.2251 68.3229V72.3697C24.2251 72.9603 24.7038 73.439 25.2944 73.439H47.9766C48.5672 73.439 49.046 72.9603 49.046 72.3697V68.3229C49.046 64.4334 46.9408 60.9648 43.6398 59.1533C46.3749 57.0202 48.144 53.6764 48.144 49.9343V49.8588H49.0345C50.2844 49.8588 51.4588 49.3728 52.3414 48.4902C53.2239 47.6077 53.71 46.434 53.71 45.1856C53.7098 43.574 52.8898 42.15 51.6451 41.3092ZM37.6691 69.9001C37.945 70.1751 38.0969 70.5416 38.0969 70.9318V71.3008H35.1733V70.9318C35.1733 70.1288 35.8243 69.4754 36.6262 69.4705C36.6289 69.4705 36.6317 69.4707 36.6344 69.4707C36.6376 69.4707 36.6407 69.4704 36.6438 69.4704C37.0301 69.4728 37.3935 69.6245 37.6691 69.9001ZM32.5169 60.8145C33.5131 61.1958 34.5635 61.4376 35.6452 61.5291V62.328C35.6452 62.7459 35.4827 63.1378 35.185 63.4345C34.891 63.7296 34.4989 63.892 34.081 63.892C33.2186 63.892 32.5168 63.1904 32.5168 62.328V60.8145H32.5169ZM37.7384 66.8745C37.4466 67.1673 37.058 67.3292 36.6437 67.3316C36.6409 67.3316 36.638 67.3314 36.635 67.3314C36.632 67.3314 36.6289 67.3317 36.6259 67.3317C35.8103 67.3273 35.1416 66.6954 35.0768 65.8952C35.6849 65.7266 36.2416 65.4044 36.6975 64.947C36.7036 64.941 36.7091 64.9346 36.7151 64.9284C37.124 65.3425 37.6296 65.6603 38.1948 65.8461C38.1758 66.2343 38.0174 66.5965 37.7384 66.8745ZM39.3481 63.8922C38.4857 63.8922 37.784 63.1906 37.784 62.3281V61.5137C38.8789 61.4031 39.9284 61.1347 40.9123 60.7334V62.3281C40.9123 62.746 40.7498 63.1379 40.4521 63.4346C40.1581 63.7296 39.766 63.8922 39.3481 63.8922ZM26.3634 68.3232C26.3634 65.3439 27.9178 62.6729 30.3783 61.1923V62.328C30.3783 63.9692 31.452 65.3637 32.9337 65.8479C32.9552 66.8564 33.3814 67.7664 34.0566 68.4223C33.4249 69.0713 33.0345 69.9566 33.0345 70.9317V71.3007H26.3633V68.3232H26.3634ZM46.9071 68.3232V71.3007H40.2357V70.9317C40.2357 69.9852 39.8724 69.0958 39.2141 68.4219C39.2262 68.41 39.2389 68.3988 39.2509 68.3867C39.9208 67.719 40.3021 66.8394 40.3343 65.8977C40.9461 65.7299 41.5065 65.4065 41.9646 64.9467C42.6652 64.2483 43.0511 63.3183 43.0511 62.3278V61.2908C45.4193 62.7898 46.9071 65.4072 46.9071 68.3232ZM24.2355 47.7205C22.8368 47.7205 21.6987 46.5834 21.6987 45.1859C21.6987 44.5072 21.9623 43.8699 22.4408 43.3914C22.9195 42.9127 23.5568 42.6493 24.2353 42.6493H25.1261V47.7205H24.2355ZM44.8038 28.8526C44.5607 28.6075 44.2143 28.495 43.8737 28.5503C43.5331 28.6057 43.2399 28.8219 43.0866 29.1312C41.863 31.6015 39.391 33.1361 36.6351 33.1361C35.4148 33.1361 34.2102 32.8259 33.1516 32.2394C31.4572 31.2998 29.4485 31.3209 27.7787 32.2957C26.1389 33.2528 25.149 34.9535 25.1279 36.8479C25.1266 36.8853 25.1263 36.9226 25.1263 36.96V40.5105H24.2355C24.1391 40.5105 24.0433 40.5143 23.9479 40.5201V31.3516C23.9479 28.8536 24.9205 26.5052 26.6868 24.7388C28.453 22.9724 30.8016 21.9997 33.2995 21.9997C36.5045 21.9997 39.4515 23.6156 41.1824 26.322C41.383 26.6357 41.7312 26.8227 42.1046 26.815C42.4768 26.8076 42.8185 26.6071 43.0064 26.2856C43.6301 25.219 44.7837 24.5563 46.017 24.5563C47.9411 24.5563 49.5065 26.121 49.5065 28.044V40.5341C49.3512 40.5184 49.1938 40.5103 49.0344 40.5103H48.1439V36.9598C48.1439 33.9023 46.9578 31.0229 44.8038 28.8526ZM50.829 46.9782C50.3504 47.4568 49.7131 47.7203 49.0345 47.7203H48.144V42.6491H49.0345C50.4332 42.6491 51.5713 43.787 51.5713 45.1859C51.5711 45.8631 51.3075 46.4997 50.829 46.9782Z" fill="black"/>
<path d="M31.9936 47.4109C31.576 47.8285 31.576 48.5055 31.9936 48.9231C33.2333 50.1628 34.8815 50.8456 36.6348 50.8456C38.388 50.8456 40.0363 50.1628 41.276 48.9231C41.6936 48.5055 41.6936 47.8285 41.276 47.4109C40.8584 46.9933 40.1813 46.9933 39.7639 47.4109C38.9281 48.2467 37.8168 48.707 36.6348 48.707C35.4529 48.707 34.3417 48.2467 33.506 47.4109C33.0883 46.9933 32.4112 46.9932 31.9936 47.4109Z" fill="black"/>
<path d="M34.9805 42.8738V40.7649C34.9805 40.1743 34.5017 39.6956 33.9111 39.6956C33.3206 39.6956 32.8418 40.1743 32.8418 40.7649V42.8738C32.8418 43.4643 33.3206 43.9431 33.9111 43.9431C34.5017 43.9431 34.9805 43.4643 34.9805 42.8738Z" fill="black"/>
<path d="M40.428 42.8738V40.7649C40.428 40.1743 39.9492 39.6956 39.3586 39.6956C38.7681 39.6956 38.2893 40.1743 38.2893 40.7649V42.8738C38.2893 43.4643 38.7681 43.9431 39.3586 43.9431C39.9492 43.9431 40.428 43.4643 40.428 42.8738Z" fill="black"/>
<path d="M30.7195 11.3037C30.8878 11.4677 30.9645 11.7038 30.9247 11.9352L30.5457 14.1443C30.361 15.2222 30.7957 16.2911 31.6804 16.934C32.1803 17.2973 32.7653 17.4818 33.3541 17.4818C33.8074 17.4818 34.263 17.3724 34.6841 17.1512L36.668 16.1082C36.8759 15.9988 37.1241 15.9988 37.332 16.1082L39.316 17.1512C40.2841 17.6602 41.435 17.5769 42.3197 16.9342C43.2045 16.2913 43.6393 15.2224 43.4543 14.1445L43.0754 11.9355C43.0357 11.704 43.1124 11.4679 43.2807 11.3039L44.8855 9.73938C45.6687 8.97602 45.9453 7.85578 45.6073 6.81567C45.2694 5.77556 44.3871 5.03173 43.3048 4.87447L41.0867 4.55224C40.8543 4.51845 40.6534 4.3726 40.5494 4.16187L39.5575 2.15194C39.0739 1.171 38.094 0.561768 37.0002 0.561768C35.9067 0.561768 34.9266 1.171 34.4425 2.15166L33.4506 4.16144C33.3467 4.37217 33.1458 4.51803 32.9132 4.55182L30.6952 4.87404C29.6129 5.03131 28.7306 5.77514 28.3927 6.81524C28.0548 7.85535 28.3314 8.97573 29.1144 9.73895L30.7195 11.3037ZM30.4268 7.47638C30.468 7.34948 30.6066 7.04836 31.0028 6.99076L33.2209 6.66853C34.15 6.53351 34.9528 5.95022 35.3684 5.10816L36.3604 3.09823C36.5376 2.73922 36.8668 2.70044 37.0002 2.70044C37.1337 2.70044 37.4629 2.73922 37.6401 3.09823L38.6322 5.1083C39.0478 5.95022 39.8505 6.53351 40.7797 6.66853L42.9978 6.99076C43.394 7.04836 43.5326 7.34963 43.5738 7.47638C43.615 7.60313 43.6799 7.92835 43.3932 8.20781L41.7883 9.77231C41.1159 10.4276 40.8092 11.3713 40.9679 12.2969L41.3469 14.5061C41.4146 14.9006 41.1709 15.1256 41.063 15.204C40.9551 15.2824 40.6658 15.4446 40.3115 15.2583L38.3275 14.2153C37.4964 13.7785 36.5042 13.7783 35.673 14.2153L33.689 15.2583C33.3347 15.4445 33.0454 15.2824 32.9375 15.204C32.8297 15.1256 32.586 14.9007 32.6536 14.5061L33.0326 12.2968C33.1913 11.3715 32.8846 10.4276 32.2123 9.77231L30.6073 8.20781C30.3207 7.92835 30.3856 7.60313 30.4268 7.47638Z" fill="black"/>
<path d="M15.5541 10.8465L13.336 10.5243C13.1036 10.4905 12.9027 10.3446 12.7988 10.134L11.8069 8.12411C11.3228 7.14317 10.3427 6.53394 9.24916 6.53394C8.15558 6.53394 7.1755 7.14317 6.69145 8.12397L5.69953 10.1337C5.59559 10.3445 5.3947 10.4903 5.16215 10.5241L2.94407 10.8464C1.8619 11.0038 0.979625 11.7476 0.641715 12.7877C0.303805 13.8278 0.580264 14.9482 1.36345 15.7115L2.96845 17.2761C3.13669 17.44 3.21325 17.6761 3.17362 17.9077L2.79479 20.1168C2.61001 21.1947 3.04473 22.2636 3.92942 22.9065C4.4293 23.2698 5.0143 23.4543 5.60315 23.4543C6.0564 23.4543 6.51208 23.3449 6.93312 23.1236L8.91709 22.0807C9.12497 21.9713 9.3732 21.9714 9.58108 22.0807L11.5651 23.1236C12.5332 23.6326 13.6841 23.5494 14.5687 22.9066C15.4536 22.2637 15.8883 21.1948 15.7034 20.1169L15.3244 17.9078C15.2848 17.6763 15.3615 17.4402 15.5296 17.2763L17.1347 15.7118C17.9178 14.9485 18.1944 13.8281 17.8565 12.788C17.5187 11.7476 16.6364 11.0038 15.5541 10.8465ZM15.6421 14.18L14.0369 15.7445C13.3647 16.3999 13.058 17.3436 13.2167 18.2691L13.5957 20.4782C13.6634 20.8727 13.4197 21.0977 13.3118 21.1761C13.204 21.2546 12.9147 21.4168 12.5602 21.2305L10.5763 20.1875C9.74504 19.7505 8.75284 19.7505 7.92175 20.1875L5.93778 21.2305C5.58362 21.4167 5.29418 21.2544 5.18625 21.1761C5.07846 21.0977 4.8348 20.8729 4.90238 20.4782L5.28121 18.2691C5.4399 17.3436 5.13321 16.3999 4.46096 15.7445L2.85624 14.18C2.56951 13.9005 2.63453 13.5753 2.67559 13.4485C2.7168 13.3217 2.85553 13.0205 3.25175 12.9629L5.4697 12.6407C6.39888 12.5057 7.20159 11.9224 7.61735 11.0805L8.60927 9.07054C8.78649 8.71153 9.1157 8.67275 9.24916 8.67275C9.38261 8.67275 9.71182 8.71153 9.88905 9.07054L10.881 11.0805C11.2966 11.9225 12.0993 12.5057 13.0285 12.6407L15.2466 12.9629C15.6428 13.0205 15.7814 13.3217 15.8226 13.4485C15.8638 13.5754 15.9287 13.9005 15.6421 14.18Z" fill="black"/>
<path d="M72.637 15.7114C73.42 14.9473 73.6963 13.8266 73.3581 12.7865C73.0201 11.7471 72.1378 11.0037 71.0495 10.8457L70.9469 10.8315C70.3621 10.7499 69.8218 11.1584 69.7404 11.7433C69.6591 12.3283 70.0673 12.8684 70.6523 12.9498L70.7485 12.9632C71.1446 13.0208 71.2832 13.3215 71.3244 13.4481C71.3657 13.575 71.4308 13.9005 71.144 14.1802L69.5379 15.745C68.8658 16.401 68.5597 17.345 68.7189 18.2689L69.0969 20.4786C69.1649 20.873 68.9214 21.098 68.8135 21.1764C68.7055 21.2549 68.4164 21.4175 68.0624 21.2314L66.0768 20.1866C65.2459 19.7517 64.2542 19.752 63.4237 20.1876L61.4392 21.2313C61.0856 21.4172 60.7966 21.2552 60.6887 21.1768C60.5806 21.0982 60.3366 20.8731 60.4042 20.4782L60.7839 18.2678C60.9413 17.3412 60.634 16.3976 59.9626 15.7443L58.3578 14.1808C58.0709 13.9009 58.1359 13.5755 58.1773 13.4486C58.2185 13.3219 58.3571 13.0206 58.7529 12.9632L60.9711 12.6409C61.901 12.5061 62.7043 11.9228 63.1199 11.0801L64.1104 9.07064C64.2877 8.71163 64.6172 8.67285 64.7507 8.67285C64.8841 8.67285 65.2136 8.71163 65.391 9.0705L66.151 10.6089C66.4124 11.1383 67.0539 11.3556 67.5833 11.0941C68.1128 10.8326 68.33 10.1913 68.0683 9.66177L67.3084 8.12321C66.8241 7.14299 65.844 6.53418 64.7506 6.53418C63.6573 6.53418 62.6772 7.14313 62.1926 8.12421L61.2018 10.1343C61.0978 10.3447 60.897 10.4906 60.664 10.5244L58.4453 10.8466C57.3636 11.0039 56.4816 11.7474 56.1434 12.7872C55.8052 13.8272 56.0814 14.9476 56.8649 15.7119L58.4709 17.2766C58.6387 17.4398 58.7151 17.6762 58.6759 17.9075L58.2965 20.1166C58.1118 21.1949 58.5468 22.2643 59.432 22.9071C60.3164 23.5495 61.4667 23.6329 62.4347 23.1241L64.4185 22.0809C64.6267 21.9715 64.876 21.9718 65.0833 22.0803L67.067 23.1243C67.4879 23.3456 67.9433 23.4548 68.3964 23.4548C68.9857 23.4548 69.5711 23.2699 70.0714 22.9061C70.9561 22.2628 71.3904 21.1936 71.2049 20.1169L70.8269 17.9071C70.787 17.6758 70.8637 17.4397 71.0313 17.2763L72.637 15.7114Z" fill="black"/>
</g>
<defs>
<clipPath id="clip0">
<rect width="73" height="73" fill="white" transform="translate(0.5 0.5)"/>
</clipPath>
</defs>
</svg>
