<svg width="74" height="74" viewBox="0 0 74 74" fill="none" xmlns="http://www.w3.org/2000/svg">
<g clip-path="url(#clip0)">
<path d="M34.339 38.8593C35.4835 39.6864 36.8908 40.174 38.4124 40.174H51.4289V46.4855L59.6799 40.174H63.2394C67.0766 40.174 70.1873 37.0729 70.1873 33.2475V8.49617C70.1873 4.67067 67.0766 1.56958 63.2394 1.56958H38.4124C34.5752 1.56958 31.4646 4.67067 31.4646 8.49617V38.8593H34.339Z" fill="#F7F3F1"/>
<path d="M63.2395 1.56958H57.2886C61.1258 1.56958 64.2365 4.67082 64.2365 8.49617V33.2475C64.2365 37.0729 61.1258 40.174 57.2886 40.174H53.7291L51.429 41.9334V46.4855L59.68 40.174H63.2395C67.0767 40.174 70.1874 37.0729 70.1874 33.2475V8.49617C70.1875 4.67082 67.0769 1.56958 63.2395 1.56958Z" fill="#EBE1DC"/>
<path d="M45.4723 30.0212L46.1885 30.6009C47.3238 31.52 48.7404 32.0215 50.201 32.0215H60.3672C61.3309 32.0215 62.1069 31.2175 62.061 30.2437C62.018 29.3316 62.063 21.0254 62.063 20.089C62.063 19.1525 61.3038 18.3932 60.3672 18.3932L53.4735 18.3724L54.3176 16.3734C55.1946 14.2963 55.0528 11.9289 53.9341 9.97129C53.6178 9.41772 52.9061 9.23605 52.3631 9.57016C52.0294 9.7755 51.8261 10.1393 51.8261 10.5311C51.8261 12.3237 51.1716 14.0546 49.9856 15.3987L45.5898 20.3727H43.9873V30.0211H45.4723V30.0212Z" fill="#FFD36C"/>
<path d="M44.7859 31.5508H40.1444C39.8377 31.5508 39.5889 31.3021 39.5889 30.9952V19.1632C39.5889 18.8564 39.8376 18.6077 40.1444 18.6077H44.7859C45.0928 18.6077 45.3414 18.8564 45.3414 19.1632V30.9952C45.3413 31.302 45.0926 31.5508 44.7859 31.5508Z" fill="#8EE6F3"/>
<path d="M34.3489 51.2633V26.2826C34.3489 23.2659 31.8959 20.8203 28.8698 20.8203H9.29157C6.26563 20.8203 3.8125 23.2659 3.8125 26.2826V45.801C3.8125 48.8177 6.26548 51.2633 9.29157 51.2633H20.0471V56.287L26.5537 51.2633H34.3489Z" fill="#4ED5EA"/>
<path d="M28.87 20.8203H21.1113C24.1373 20.8203 26.5904 23.2659 26.5904 26.2826V51.2633H34.3491V26.2826C34.3489 23.2659 31.8959 20.8203 28.87 20.8203Z" fill="#62A6FD"/>
<path d="M44.9477 47.2722H31.054C28.9066 47.2722 27.1658 49.0076 27.1658 51.1485V64.9997C27.1658 67.1405 28.9066 68.8759 31.054 68.8759H38.6866V72.4412L43.3041 68.8761H44.9477C47.0951 68.8761 48.8359 67.1406 48.8359 64.9998V51.1486C48.8358 49.0078 47.0949 47.2722 44.9477 47.2722Z" fill="#FA9084"/>
<path d="M44.9476 47.2722H38.9585C41.1059 47.2722 42.8467 49.0076 42.8467 51.1485V64.9998C42.8467 67.1406 41.1059 68.8761 38.9585 68.8761H38.6865V72.4412L43.304 68.8761H44.9476C47.095 68.8761 48.8358 67.1406 48.8358 64.9998V51.1485C48.8357 49.0078 47.095 47.2722 44.9476 47.2722Z" fill="#FF6CB5"/>
<path d="M38.0006 62.7804C41.3439 61.008 43.0761 59.4999 43.0761 57.1636C43.0761 53.941 39.1284 53.1353 38.0006 55.5523C36.7115 53.0549 32.925 53.9411 32.925 57.1636C32.925 59.4999 34.6572 61.0079 38.0006 62.7804Z" fill="#F7F3F1"/>
<path d="M63.2395 0.5H60.1009C58.7213 0.5 58.7213 2.63898 60.1009 2.63898H63.2395C66.4808 2.63898 69.1179 5.26651 69.1179 8.49608V33.2472C69.1179 36.4769 66.481 39.1045 63.2395 39.1045H59.6799C59.445 39.1045 59.2167 39.1818 59.03 39.3245L52.4981 44.3209V40.174C52.4981 39.5833 52.0194 39.1045 51.4287 39.1045H38.4122C37.3463 39.1045 36.3219 38.8231 35.4184 38.2882V26.2826C35.4184 24.0338 34.273 22.047 32.5338 20.8715V8.49608C32.5338 5.26651 35.1708 2.63898 38.4122 2.63898H53.3988C54.7783 2.63898 54.7783 0.5 53.3988 0.5H38.4122C33.9914 0.5 30.3948 4.08707 30.3948 8.49608V19.9315C29.9051 19.8146 29.3949 19.7508 28.8698 19.7508H9.29158C5.68084 19.7508 2.74316 22.6809 2.74316 26.2826V28.592C2.74316 29.9715 4.88215 29.9715 4.88215 28.592V26.2826C4.88215 23.8604 6.86013 21.8898 9.29158 21.8898H28.87C31.3014 21.8898 33.2795 23.8604 33.2795 26.2826V38.714C33.2667 38.8084 33.2673 38.9035 33.2795 38.9972V45.8009C33.2795 45.9354 33.2714 46.0693 33.2593 46.2025H31.0537C28.6234 46.2025 26.5974 47.9566 26.1773 50.262C26.08 50.2986 25.9866 50.3498 25.9001 50.4165L21.1166 54.11V51.2632C21.1166 50.6725 20.6379 50.1937 20.0471 50.1937H9.29158C6.86013 50.1937 4.88215 48.2231 4.88215 45.8009V35.0089C4.88215 33.6294 2.74316 33.6294 2.74316 35.0089V45.8011C2.74316 49.4027 5.68084 52.3328 9.29158 52.3328H18.9777V56.287C18.9777 57.1449 20.0194 57.6596 20.7009 57.1337L26.0961 52.9679V64.9997C26.0961 67.7269 28.3202 69.9454 31.0539 69.9454H37.617V72.4411C37.617 73.2987 38.6587 73.8139 39.34 73.2877L43.6687 69.9454H44.9475C47.6812 69.9454 49.9053 67.7267 49.9053 64.9997V63.1008C49.9053 61.7213 47.7663 61.7213 47.7663 63.1008V64.9997C47.7663 66.5475 46.5019 67.8065 44.9475 67.8065H43.3038C43.0672 67.8065 42.8374 67.8849 42.6503 68.0293L39.7558 70.264V68.8758C39.7558 68.2852 39.2771 67.8063 38.6863 67.8063H31.0537C29.4995 67.8063 28.235 66.5472 28.235 64.9995V51.1484C28.235 49.6006 29.4994 48.3416 31.0537 48.3416H44.9475C46.5017 48.3416 47.7663 49.6007 47.7663 51.1484V56.3987C47.7663 57.7782 49.9053 57.7782 49.9053 56.3987V51.1485C49.9053 48.4213 47.6812 46.2028 44.9475 46.2028H35.4063C35.4144 46.0691 35.4185 40.6674 35.4185 40.6674C36.3615 41.0465 37.3726 41.2436 38.4124 41.2436H50.3593V46.4855C50.3593 47.3413 51.3966 47.8565 52.0786 47.335L60.0422 41.2436H63.2397C67.6604 41.2436 71.257 37.6565 71.257 33.2474V8.49608C71.2569 4.08707 67.6602 0.5 63.2395 0.5V0.5Z" fill="black"/>
<path d="M53.4983 8.40152C52.1403 8.05487 50.7565 9.12778 50.7565 10.531C50.7565 12.064 50.1978 13.5415 49.1841 14.6904L46.2374 18.0248C46.0466 17.732 45.7169 17.5383 45.3415 17.5383H39.589C38.9982 17.5383 38.5195 18.0171 38.5195 18.6077V31.5507C38.5195 32.1414 38.9982 32.6202 39.589 32.6202H45.3415C45.7737 32.6202 46.145 32.3634 46.3137 31.9946C47.4783 32.7062 48.8279 33.0909 50.2009 33.0909H60.3671C61.9206 33.0909 63.2021 31.7429 63.1292 30.1935C63.0969 29.5073 63.1322 20.2935 63.1322 20.0889C63.1322 18.5642 61.8918 17.3236 60.3702 17.3236L55.0837 17.3078L55.3025 16.7895C56.3029 14.4205 56.1382 11.6735 54.8625 9.44078C54.5647 8.91916 54.0801 8.55025 53.4983 8.40152C54.0801 8.55025 52.9162 8.25294 53.4983 8.40152C54.0801 8.55025 52.1404 8.05487 53.4983 8.40152ZM44.272 30.4812H40.6585V19.6772H44.272V30.4812ZM60.3671 19.4625C60.7125 19.4625 60.9934 19.7434 60.9934 20.0888C60.9934 20.2923 60.9912 20.8445 60.9884 21.5933C60.9726 25.7276 60.962 29.643 60.9925 30.2939C61.0037 30.5287 60.8894 30.6853 60.8204 30.7577C60.7009 30.8829 60.5399 30.9518 60.3671 30.9518H50.2009C48.9891 30.9518 47.8031 30.5318 46.8611 29.7694L46.411 29.4049V21.0584L50.7874 16.1061C52.1468 14.5655 52.8955 12.5855 52.8955 10.5308C52.8955 10.4703 52.9781 10.4547 53.0054 10.5017C53.9526 12.1591 54.0746 14.1984 53.3321 15.9571L52.4881 17.9562C52.3488 18.286 52.3838 18.6635 52.5811 18.9621C52.7786 19.2607 53.1122 19.4407 53.47 19.4418L60.3671 19.4625Z" fill="black"/>
<path d="M11.901 37.6468C11.3102 37.6468 10.8315 38.1256 10.8315 38.7163C10.8315 39.3069 11.3102 39.7857 11.901 39.7857H15.0536L14.4647 43.3477C14.3683 43.9304 14.7627 44.4809 15.3454 44.5773C15.4045 44.5872 15.4632 44.5919 15.521 44.5919C16.035 44.5919 16.4883 44.2204 16.575 43.6967L17.2215 39.7859H19.8016L19.2126 43.3479C19.1162 43.9305 19.5107 44.4811 20.0933 44.5775C20.1525 44.5873 20.2111 44.592 20.269 44.592C20.7829 44.592 21.2363 44.2206 21.323 43.6968L21.9695 39.786H26.2607C26.8515 39.786 27.3302 39.3072 27.3302 38.7165C27.3302 38.1259 26.8515 37.6471 26.2607 37.6471H22.3231L22.7545 35.0381H26.2607C26.8515 35.0381 27.3302 34.5592 27.3302 33.9686C27.3302 33.3779 26.8515 32.8991 26.2607 32.8991H23.1082L23.6971 29.3371C23.7935 28.7545 23.3991 28.2039 22.8164 28.1075C22.233 28.0108 21.6832 28.4055 21.5868 28.9882L20.9402 32.8989H18.3602L18.9491 29.337C19.0455 28.7543 18.6511 28.2037 18.0684 28.1073C17.4843 28.0107 16.9353 28.4054 16.8388 28.988L16.1923 32.8988H11.901C11.3102 32.8988 10.8315 33.3776 10.8315 33.9683C10.8315 34.5589 11.3102 35.0378 11.901 35.0378H15.8386L15.4073 37.6468H11.901ZM18.0067 35.0378H20.5867L20.1554 37.6468H17.5753L18.0067 35.0378Z" fill="black"/>
<path d="M37.9879 53.8599C37.1243 53.1489 35.9754 52.8684 34.8229 53.1487C33.346 53.5073 31.8557 54.8879 31.8557 57.1637C31.8557 58.5801 32.3726 59.8096 33.436 60.9224C34.3046 61.8315 35.558 62.6959 37.4999 63.7255C37.6566 63.8086 37.8288 63.8501 38.0009 63.8501C38.173 63.8501 38.3451 63.8086 38.5018 63.7255C41.8897 61.9295 44.1459 60.1263 44.1459 57.1637C44.1459 54.8755 42.6027 53.509 41.0732 53.1698C39.9241 52.9148 38.8101 53.1854 37.9879 53.8599ZM42.0068 57.1637C42.0068 58.7616 40.9468 59.9433 38.0007 61.5651C35.0546 59.9432 33.9946 58.7615 33.9946 57.1637C33.9946 55.9747 34.683 55.3837 35.3274 55.2272C35.4462 55.1984 35.5734 55.1821 35.7042 55.1821C36.1889 55.1821 36.7218 55.406 37.0503 56.043C37.2375 56.4055 37.616 56.6302 38.022 56.6218C38.4297 56.6137 38.7974 56.3744 38.9698 56.0048C39.3159 55.263 40.0437 55.1325 40.6096 55.2581C41.2852 55.4077 42.0068 55.9871 42.0068 57.1637Z" fill="black"/>
</g>
<defs>
<clipPath id="clip0">
<rect width="73" height="73" fill="white" transform="translate(0.5 0.5)"/>
</clipPath>
</defs>
</svg>
