<svg width="74" height="74" viewBox="0 0 74 74" fill="none" xmlns="http://www.w3.org/2000/svg">
<path d="M2.53125 13.601L10.2305 49.8272H19.6406V9.9624L2.53125 13.601Z" fill="#E6E9ED"/>
<path d="M19.6404 37.9534V49.8273H14.8954L12.6826 39.4248L19.6404 37.9534Z" fill="#B4DD7F"/>
<path d="M19.6405 24.2203V33.2882L11.7359 34.9649L11.4964 33.8471C10.5839 29.5356 13.3328 25.2924 17.6444 24.3799C18.3173 24.2317 18.9903 24.186 19.6405 24.2203Z" fill="#FCD770"/>
<path d="M19.6405 16.4525V23.3761C19.0816 23.8551 18.42 24.2201 17.6444 24.3798C15.1807 24.9045 12.7625 23.3305 12.2378 20.8667C11.7132 18.403 13.2872 15.9734 15.751 15.4487C17.1882 15.1522 18.6025 15.5742 19.6405 16.4525Z" fill="#FCD770"/>
<path d="M70.9688 13.601L63.5547 48.4585L63.3608 49.3368C61.8894 44.569 58.3877 40.6794 53.8594 38.7062V9.9624L70.9688 13.601Z" fill="#E6E9ED"/>
<path d="M19.6406 3.06152V52.1084L53.8594 52.3936V3.06152H19.6406Z" fill="#FFEAA7"/>
<path d="M49.2969 37.4286V37.44C48.5555 37.3373 47.7913 37.2803 47.0156 37.2803C40.9247 37.2803 35.5752 40.4626 32.5411 45.2646H24.2031V30.4365H49.2969V37.4286Z" fill="#B4DD7F"/>
<path d="M40.1719 24.7334V25.874H24.2031V24.7334C24.2031 22.5206 25.0928 20.5359 26.5414 19.0873C27.99 17.6387 29.9747 16.749 32.1875 16.749C36.6017 16.749 40.1719 20.3192 40.1719 24.7334Z" fill="#FCD770"/>
<path d="M32.1875 16.749C34.7073 16.749 36.75 14.7063 36.75 12.1865C36.75 9.66672 34.7073 7.62402 32.1875 7.62402C29.6677 7.62402 27.625 9.66672 27.625 12.1865C27.625 14.7063 29.6677 16.749 32.1875 16.749Z" fill="#FCD770"/>
<path d="M23.0625 56.6709V58.9521H7.09375C4.57297 58.9521 2.53125 56.9104 2.53125 54.3896C2.53125 53.135 3.04453 51.9943 3.86578 51.1617C4.69844 50.3404 5.83906 49.8271 7.09375 49.8271H10.2305H14.8956H19.6406H23.0625V52.1084V56.6709Z" fill="#CF9E76"/>
<path d="M23.0625 52.1084H30.0659C29.9633 52.8498 29.9062 53.614 29.9062 54.3896C29.9062 55.1653 29.9633 55.9295 30.0659 56.6709H23.0625V52.1084Z" fill="#AAB2BD"/>
<path d="M63.3608 49.3367C63.8627 50.9336 64.125 52.6331 64.125 54.3896C64.125 63.834 56.46 71.499 47.0156 71.499C38.3469 71.499 31.1723 65.0431 30.0659 56.6709C29.9633 55.9295 29.9062 55.1653 29.9062 54.3896C29.9062 53.614 29.9633 52.8498 30.0659 52.1084C30.3853 49.6104 31.2636 47.295 32.5411 45.2646C35.5752 40.4626 40.9247 37.2803 47.0156 37.2803C47.7913 37.2803 48.5555 37.3373 49.2969 37.44C50.9052 37.6453 52.4336 38.0787 53.8594 38.7061C58.3877 40.6793 61.8894 44.5689 63.3608 49.3367Z" fill="#E6E9ED"/>
<path d="M47.0156 66.9365C53.9451 66.9365 59.5625 61.3191 59.5625 54.3896C59.5625 47.4602 53.9451 41.8428 47.0156 41.8428C40.0862 41.8428 34.4688 47.4602 34.4688 54.3896C34.4688 61.3191 40.0862 66.9365 47.0156 66.9365Z" fill="#69D6F4"/>
<path d="M47.0156 40.7021C39.4681 40.7021 33.3281 46.8421 33.3281 54.3896C33.3281 61.9372 39.4681 68.0771 47.0156 68.0771C54.5631 68.0771 60.7031 61.9372 60.7031 54.3896C60.7031 46.8421 54.5631 40.7021 47.0156 40.7021ZM47.0156 65.7959C40.7262 65.7959 35.6094 60.6791 35.6094 54.3896C35.6094 48.1002 40.7262 42.9834 47.0156 42.9834C53.305 42.9834 58.4219 48.1002 58.4219 54.3896C58.4219 60.6791 53.305 65.7959 47.0156 65.7959Z" fill="black"/>
<path d="M47.0156 61.2334V63.5147C47.911 63.5147 48.7973 63.3846 49.6493 63.1291L48.9923 60.9448C48.3536 61.1364 47.6886 61.2334 47.0156 61.2334Z" fill="black"/>
<path d="M47.0156 45.2646V47.5459C50.79 47.5459 53.8594 50.6153 53.8594 54.3896C53.8594 56.6926 52.7119 58.8267 50.79 60.1008L52.0492 62.0022C54.611 60.3049 56.1406 57.4591 56.1406 54.3896C56.1406 49.3584 52.0469 45.2646 47.0156 45.2646Z" fill="black"/>
<path d="M41.3125 24.7334C41.3125 21.0469 39.1111 17.8714 35.9573 16.4331C37.1333 15.3871 37.8906 13.8804 37.8906 12.1865C37.8906 9.04182 35.3322 6.4834 32.1875 6.4834C29.0428 6.4834 26.4844 9.04182 26.4844 12.1865C26.4844 13.8804 27.2417 15.3871 28.4177 16.4331C25.2639 17.8714 23.0625 21.0469 23.0625 24.7334V27.0146H41.3125V24.7334ZM28.7656 12.1865C28.7656 10.2999 30.3009 8.76465 32.1875 8.76465C34.0741 8.76465 35.6094 10.2999 35.6094 12.1865C35.6094 14.0731 34.0741 15.6084 32.1875 15.6084C30.3009 15.6084 28.7656 14.0731 28.7656 12.1865ZM25.3438 24.7334C25.3438 20.9591 28.4132 17.8896 32.1875 17.8896C35.9618 17.8896 39.0312 20.9591 39.0312 24.7334H25.3438Z" fill="black"/>
<path d="M43.5938 6.4834H50.4375V8.76465H43.5938V6.4834Z" fill="black"/>
<path d="M43.5938 11.0459H50.4375V13.3271H43.5938V11.0459Z" fill="black"/>
<path d="M43.5938 15.6084H50.4375V17.8896H43.5938V15.6084Z" fill="black"/>
<path d="M43.5938 20.1709H50.4375V22.4521H43.5938V20.1709Z" fill="black"/>
<path d="M43.5938 24.7334H50.4375V27.0146H43.5938V24.7334Z" fill="black"/>
<path d="M59.7446 17.0515L60.2192 14.8202L66.9132 16.2438L66.4387 18.4752L59.7446 17.0515Z" fill="black"/>
<path d="M58.7954 21.5154L59.27 19.284L65.964 20.7077L65.4894 22.9391L58.7954 21.5154Z" fill="black"/>
<path d="M57.845 25.9773L58.3195 23.746L65.0124 25.1694L64.5379 27.4007L57.845 25.9773Z" fill="black"/>
<path d="M56.8975 30.4409L57.372 28.2096L64.0661 29.6333L63.5915 31.8646L56.8975 30.4409Z" fill="black"/>
<path d="M55.9414 34.8992L56.416 32.6678L63.11 34.0915L62.6354 36.3228L55.9414 34.8992Z" fill="black"/>
<path d="M72.3226 12.7192L54.9999 9.03726V1.9209H18.4999V9.03726L1.17725 12.7192L8.82285 48.6865H7.09367C3.94896 48.6865 1.39054 51.2449 1.39054 54.3896C1.39054 57.5344 3.94896 60.0928 7.09367 60.0928H24.203V57.8115H29.0986C30.7057 66.243 38.1232 72.6396 47.0155 72.6396C57.0781 72.6396 65.2655 64.4522 65.2655 54.3896C65.2655 52.6251 65.0009 50.9244 64.5321 49.3093L72.3226 12.7192ZM69.6147 14.4758L63.0003 45.6C61.1855 42.3139 58.3819 39.6585 54.9999 38.0046V11.3698L69.6147 14.4758ZM52.7187 4.20215V37.0647C51.9773 36.8195 51.2165 36.621 50.4374 36.4727V29.2959H23.0624V46.4053H30.6305C29.9313 47.8345 29.4054 49.3606 29.0986 50.9678H24.203V48.6865H20.7812V4.20215H52.7187ZM31.9388 44.124H25.3437V31.5771H48.1562V36.1978C47.7775 36.1739 47.4011 36.1396 47.0155 36.1396C40.7569 36.1396 35.2272 39.3083 31.9388 44.124ZM15.8206 48.6865L14.0389 40.3041L18.4999 39.3562V48.6865H15.8206ZM13.5701 28.4598C14.5659 26.9268 16.0989 25.8729 17.8874 25.4931C18.0859 25.4509 18.2935 25.428 18.4999 25.4052V32.3596L12.6166 33.6109C12.2356 31.8224 12.5755 29.9928 13.5701 28.4598ZM14.8374 22.7852C14.0709 22.2868 13.5439 21.5214 13.3546 20.626C13.1641 19.7318 13.3329 18.8181 13.8313 18.0516C14.3298 17.2851 15.0952 16.7581 15.9894 16.5677C16.8563 16.384 17.7448 16.5699 18.4999 17.049V22.7784C18.1554 23.0019 17.7973 23.181 17.4129 23.262C16.5175 23.4513 15.6039 23.2825 14.8374 22.7852ZM3.88509 14.4758L18.4999 11.3698V14.5191C17.5475 14.1952 16.5232 14.121 15.5149 14.3366C14.0252 14.6537 12.7477 15.5308 11.9185 16.8083C11.0893 18.0858 10.8064 19.6109 11.1235 21.0994C11.4394 22.5902 12.3189 23.8677 13.5964 24.6969C13.6899 24.7574 13.7891 24.8018 13.8849 24.8566C13.0204 25.4976 12.2618 26.2869 11.6584 27.2165C10.3308 29.2605 9.87793 31.6992 10.3855 34.0831L10.8577 36.3164L18.4999 34.6911V37.0236L11.3322 38.5475L13.4869 48.6865H11.1554L3.88509 14.4758ZM21.9218 57.8115H7.09367C5.20707 57.8115 3.67179 56.2762 3.67179 54.3896C3.67179 52.5031 5.20707 50.9678 7.09367 50.9678H21.9218V57.8115ZM24.203 55.5303V53.249H28.8237C28.7998 53.6277 28.7655 54.0041 28.7655 54.3896C28.7655 54.7752 28.7998 55.1516 28.8237 55.5303H24.203ZM47.0155 70.3584C38.2099 70.3584 31.0468 63.1953 31.0468 54.3896C31.0468 45.584 38.2099 38.4209 47.0155 38.4209C55.8212 38.4209 62.9843 45.584 62.9843 54.3896C62.9843 63.1953 55.8212 70.3584 47.0155 70.3584Z" fill="black"/>
</svg>
