<svg width="70" height="70" viewBox="0 0 70 70" fill="none" xmlns="http://www.w3.org/2000/svg">
<g clip-path="url(#clip0)">
<path d="M63.7499 45.8323C62.14 45.8323 60.7137 45.0041 59.8973 43.7395C59.4262 43.0146 59.1499 42.1521 59.1499 41.2323C59.1499 38.6909 61.2084 36.6323 63.7499 36.6323C66.2914 36.6323 68.3499 38.6909 68.3499 41.2323C68.3499 43.7738 66.2914 45.8323 63.7499 45.8323Z" fill="#AAD3E2"/>
<path d="M63.7271 24.5687C61.5422 26.3515 58.7475 27.4324 55.7001 27.4324C54.1823 27.4324 52.733 27.1679 51.3988 26.685V26.6732C50.0304 26.1903 48.7771 25.466 47.6731 24.5687C47.9606 21.0271 50.9389 18.2324 54.5501 18.2324H56.8501C60.4612 18.2324 63.4396 21.0271 63.7271 24.5687Z" fill="#ED8C4A"/>
<path d="M60.3001 13.6325C60.3001 16.1728 58.2404 18.2325 55.7001 18.2325C53.1598 18.2325 51.1001 16.1728 51.1001 13.6325C51.1001 11.0921 53.1598 9.03247 55.7001 9.03247C58.2404 9.03247 60.3001 11.0921 60.3001 13.6325Z" fill="#ED8C4A"/>
<path d="M55.7001 2.13232C62.6921 2.13232 68.3501 7.79024 68.3501 14.7823C68.3501 18.727 66.556 22.2461 63.727 24.5686C63.4395 21.027 60.4612 18.2323 56.85 18.2323H55.7001C58.2415 18.2323 60.3001 16.1738 60.3001 13.6323C60.3001 11.0909 58.2415 9.03233 55.7001 9.03233C53.1586 9.03233 51.1 11.0909 51.1 13.6323C51.1 16.1738 53.1586 18.2323 55.7001 18.2323H54.55C50.9389 18.2323 47.9606 21.027 47.6731 24.5686C46.1092 23.281 44.8553 21.6251 44.0507 19.7271C43.4066 18.2093 43.05 16.5416 43.05 14.7823C43.05 13.2415 43.3263 11.7692 43.8323 10.4125C45.6033 5.57109 50.2488 2.13232 55.7001 2.13232Z" fill="#F3F3FB"/>
<path d="M40.75 68.8323C37.6908 68.8323 34.8848 67.7514 32.7 65.9461C32.9987 62.4152 35.9776 59.6323 39.5769 59.6323H41.8769C45.4881 59.6323 48.4664 62.427 48.7539 65.9685L48.7657 65.9803C46.5803 67.7626 43.7973 68.8323 40.75 68.8323Z" fill="#FFCA55"/>
<path d="M39.5771 59.6325C35.9777 59.6325 32.9988 62.4154 32.7001 65.9462C30.6073 64.2212 29.0889 61.8404 28.4449 59.1148C28.2152 58.172 28.1001 57.1943 28.1001 56.1825C28.1001 52.468 29.6988 49.1331 32.2402 46.8213C34.4824 44.7746 37.4725 43.5325 40.7501 43.5325C42.2679 43.5325 43.7172 43.7969 45.0514 44.2799V44.2917C47.6613 45.2232 49.8698 47.0055 51.3533 49.2937C52.6527 51.272 53.4001 53.641 53.4001 56.1825C53.4001 60.1272 51.5948 63.6575 48.7658 65.9805L48.7541 65.9687C48.4666 62.4272 45.4882 59.6325 41.8771 59.6325H40.7271C43.2685 59.6325 45.3271 57.5739 45.3271 55.0325C45.3271 52.491 43.2685 50.4325 40.7271 50.4325C38.1856 50.4325 36.1271 52.491 36.1271 55.0325C36.1271 57.5739 38.1856 59.6325 40.7271 59.6325H39.5771Z" fill="#F3F3FB"/>
<path d="M45.3269 55.0324C45.3269 57.5727 43.2673 59.6324 40.7269 59.6324C38.1866 59.6324 36.127 57.5727 36.127 55.0324C36.127 52.492 38.1866 50.4324 40.7269 50.4324C43.2673 50.4324 45.3269 52.492 45.3269 55.0324Z" fill="#FFCA55"/>
<path d="M33.85 2.13232C36.3915 2.13232 38.45 4.19087 38.45 6.73232C38.45 7.29609 38.3467 7.82505 38.1625 8.31919C37.5184 10.079 35.8282 11.3323 33.85 11.3323C31.3085 11.3323 29.25 9.27378 29.25 6.73232C29.25 4.19087 31.3085 2.13232 33.85 2.13232Z" fill="#AAD3E2"/>
<path d="M17.75 43.5325C15.519 43.5325 13.4262 42.9575 11.6091 41.9457C10.9302 41.5773 10.298 41.1404 9.69995 40.6463C9.99868 37.1154 12.9776 34.3325 16.5769 34.3325H18.8769C22.4881 34.3325 25.4664 37.1272 25.7539 40.6688L25.7657 40.6805C23.5802 42.4628 20.7973 43.5325 17.75 43.5325Z" fill="#64C1E2"/>
<path d="M22.327 29.7323C22.327 32.2727 20.2673 34.3323 17.727 34.3323C15.1866 34.3323 13.127 32.2727 13.127 29.7323C13.127 27.192 15.1866 25.1323 17.727 25.1323C20.2673 25.1323 22.327 27.192 22.327 29.7323Z" fill="#64C1E2"/>
<path d="M16.6 66.5325C14.0585 66.5325 12 64.474 12 61.9325C12 59.3911 14.0585 57.3325 16.6 57.3325C18.7737 57.3325 20.5907 58.8391 21.0737 60.8628C21.154 61.2082 21.2 61.5647 21.2 61.9325C21.2 64.474 19.1415 66.5325 16.6 66.5325Z" fill="#AAD3E2"/>
<path d="M16.5771 34.3324C12.9777 34.3324 9.99883 37.1153 9.7001 40.6462C6.89417 38.3232 5.1001 34.8153 5.1001 30.8824C5.1001 25.8338 8.04416 21.487 12.3106 19.4515C13.9553 18.6693 15.8067 18.2324 17.7501 18.2324C22.9824 18.2324 27.4678 21.4062 29.3995 25.9376C30.0435 27.4554 30.4001 29.1232 30.4001 30.8824C30.4001 34.5969 28.8014 37.9318 26.26 40.2436C26.0988 40.3929 25.9382 40.5311 25.7658 40.6804L25.7541 40.6687C25.4666 37.1271 22.4882 34.3324 18.8771 34.3324H17.7271C20.2685 34.3324 22.3271 32.2739 22.3271 29.7324C22.3271 27.191 20.2685 25.1324 17.7271 25.1324C15.1856 25.1324 13.1271 27.191 13.1271 29.7324C13.1271 32.2739 15.1856 34.3324 17.7271 34.3324H16.5771Z" fill="#F3F3FB"/>
<path d="M6.2499 46.9824C7.05513 46.9824 7.82554 47.1896 8.48084 47.5687C9.89531 48.3509 10.8499 49.8574 10.8499 51.5824C10.8499 54.1239 8.79136 56.1824 6.2499 56.1824C3.70845 56.1824 1.6499 54.1239 1.6499 51.5824C1.6499 49.041 3.70845 46.9824 6.2499 46.9824Z" fill="#AAD3E2"/>
<path d="M6.2499 2.13232C8.79136 2.13232 10.8499 4.19087 10.8499 6.73232C10.8499 8.56065 9.7802 10.1481 8.22815 10.8724C7.63013 11.1712 6.95125 11.3323 6.2499 11.3323C3.70845 11.3323 1.6499 9.27378 1.6499 6.73232C1.6499 4.19087 3.70845 2.13232 6.2499 2.13232Z" fill="#AAD3E2"/>
<path d="M55.7 28.5824C63.3098 28.5824 69.5 22.3922 69.5 14.7824C69.5 7.17266 63.3098 0.982422 55.7 0.982422C50.174 0.982422 45.4095 4.25442 43.2078 8.95662L39.5124 7.59268C39.5562 7.30967 39.6 7.02666 39.6 6.73242C39.6 3.56206 37.0204 0.982422 33.85 0.982422C30.6796 0.982422 28.1 3.56206 28.1 6.73242C28.1 9.90278 30.6796 12.4824 33.85 12.4824C35.9097 12.4824 37.706 11.3841 38.7212 9.75229L42.4104 11.114C42.0864 12.2848 41.9 13.5106 41.9 14.7824C41.9 16.289 42.1504 17.7355 42.5991 19.0938L29.9513 24.4541C27.6356 20.0759 23.039 17.0824 17.75 17.0824C16.0362 17.0824 14.4011 17.4115 12.8855 17.9842L9.70449 11.2993C11.0903 10.2481 12 8.60117 12 6.73242C12 3.56206 9.42036 0.982422 6.25 0.982422C3.07964 0.982422 0.5 3.56206 0.5 6.73242C0.5 9.90278 3.07964 12.4824 6.25 12.4824C6.72842 12.4824 7.18718 12.4066 7.63247 12.2949L10.8096 18.9731C6.71438 21.3697 3.95 25.804 3.95 30.8824C3.95 35.6526 6.38364 39.8629 10.0729 42.342L7.96938 46.1233C7.4219 45.9509 6.85251 45.8324 6.25 45.8324C3.07964 45.8324 0.5 48.4121 0.5 51.5824C0.5 54.7528 3.07964 57.3324 6.25 57.3324C9.42036 57.3324 12 54.7528 12 51.5824C12 49.8411 11.2054 48.2969 9.97964 47.2424L12.0876 43.4532C13.8171 44.236 15.7308 44.6824 17.75 44.6824C20.9058 44.6824 23.8083 43.606 26.1358 41.8164L30.6622 46.796C28.3667 49.2616 26.95 52.5555 26.95 56.1824C26.95 56.886 27.0202 57.5716 27.1213 58.2466L21.7958 59.5106C20.8794 57.5509 18.9022 56.1824 16.6 56.1824C13.4296 56.1824 10.85 58.7621 10.85 61.9324C10.85 65.1028 13.4296 67.6824 16.6 67.6824C19.7704 67.6824 22.35 65.1028 22.35 61.9324C22.35 61.869 22.3326 61.8094 22.3315 61.746L27.6469 60.4859C29.4594 65.9928 34.6434 69.9824 40.75 69.9824C48.3598 69.9824 54.55 63.7922 54.55 56.1824C54.55 53.8229 53.9531 51.601 52.9042 49.6575L59.6593 45.2653C60.7037 46.3232 62.1502 46.9824 63.75 46.9824C66.9204 46.9824 69.5 44.4028 69.5 41.2324C69.5 38.0621 66.9204 35.4824 63.75 35.4824C60.5796 35.4824 58 38.0621 58 41.2324C58 41.9753 58.1527 42.6812 58.4105 43.3336L51.6396 47.7354C50.2847 45.9936 48.5254 44.587 46.5 43.6531L52.113 28.0928C53.2585 28.4016 54.4579 28.5824 55.7 28.5824ZM33.85 10.1824C31.9481 10.1824 30.4 8.6343 30.4 6.73242C30.4 4.83054 31.9481 3.28242 33.85 3.28242C35.7519 3.28242 37.3 4.83054 37.3 6.73242C37.3 8.6343 35.7519 10.1824 33.85 10.1824ZM2.8 6.73242C2.8 4.83054 4.34812 3.28242 6.25 3.28242C8.15188 3.28242 9.7 4.83054 9.7 6.73242C9.7 8.6343 8.15188 10.1824 6.25 10.1824C4.34812 10.1824 2.8 8.6343 2.8 6.73242ZM6.25 55.0324C4.34812 55.0324 2.8 53.4843 2.8 51.5824C2.8 49.6805 4.34812 48.1324 6.25 48.1324C8.15188 48.1324 9.7 49.6805 9.7 51.5824C9.7 53.4843 8.15188 55.0324 6.25 55.0324ZM16.6 65.3824C14.6981 65.3824 13.15 63.8343 13.15 61.9324C13.15 60.0305 14.6981 58.4824 16.6 58.4824C18.5019 58.4824 20.05 60.0305 20.05 61.9324C20.05 63.8343 18.5019 65.3824 16.6 65.3824ZM63.75 37.7824C65.6519 37.7824 67.2 39.3305 67.2 41.2324C67.2 43.1343 65.6519 44.6824 63.75 44.6824C61.8481 44.6824 60.3 43.1343 60.3 41.2324C60.3 39.3305 61.8481 37.7824 63.75 37.7824ZM48.9275 24.056C49.4407 21.396 51.7856 19.3824 54.55 19.3824H56.85C59.6144 19.3824 61.9593 21.396 62.4725 24.056C60.5701 25.4486 58.2336 26.2824 55.7 26.2824C53.1664 26.2824 50.8299 25.4486 48.9275 24.056ZM55.7 17.0824C53.7981 17.0824 52.25 15.5343 52.25 13.6324C52.25 11.7305 53.7981 10.1824 55.7 10.1824C57.6019 10.1824 59.15 11.7305 59.15 13.6324C59.15 15.5343 57.6019 17.0824 55.7 17.0824ZM55.7 3.28242C62.0413 3.28242 67.2 8.44114 67.2 14.7824C67.2 17.6574 66.1314 20.2842 64.38 22.3023C63.5742 20.1803 61.8942 18.4868 59.8008 17.6507C60.8188 16.613 61.45 15.1963 61.45 13.6324C61.45 10.4621 58.8704 7.88242 55.7 7.88242C52.5296 7.88242 49.95 10.4621 49.95 13.6324C49.95 15.1963 50.5812 16.613 51.5992 17.6507C49.5058 18.4868 47.8258 20.1803 47.02 22.3023C45.2686 20.2842 44.2 17.6574 44.2 14.7824C44.2 8.44114 49.3587 3.28242 55.7 3.28242ZM6.25 30.8824C6.25 24.5411 11.4087 19.3824 17.75 19.3824C24.0913 19.3824 29.25 24.5411 29.25 30.8824C29.25 33.7664 28.1747 36.4 26.4143 38.4209C25.6113 36.291 23.9279 34.589 21.8289 33.7507C22.8458 32.713 23.477 31.2963 23.477 29.7324C23.477 26.5621 20.8973 23.9824 17.727 23.9824C14.5566 23.9824 11.977 26.5621 11.977 29.7324C11.977 31.2963 12.6081 32.713 13.6262 33.7507C11.539 34.5829 9.86116 36.2702 9.05256 38.3838C7.31128 36.3679 6.25 33.7496 6.25 30.8824ZM14.277 29.7324C14.277 27.8305 15.8251 26.2824 17.727 26.2824C19.6289 26.2824 21.177 27.8305 21.177 29.7324C21.177 31.6343 19.6289 33.1824 17.727 33.1824C15.8251 33.1824 14.277 31.6343 14.277 29.7324ZM10.9584 40.1408C11.4767 37.4882 13.8182 35.4824 16.577 35.4824H18.877C21.6464 35.4824 23.9958 37.5028 24.5018 40.1711C22.6032 41.5553 20.274 42.3824 17.75 42.3824C15.2074 42.3824 12.8636 41.5429 10.9584 40.1408ZM33.9584 65.4408C34.4767 62.7882 36.8182 60.7824 39.577 60.7824H41.877C44.6464 60.7824 46.9958 62.8028 47.5018 65.4711C45.6032 66.8553 43.274 67.6824 40.75 67.6824C38.2074 67.6824 35.8636 66.8429 33.9584 65.4408ZM40.727 58.4824C38.8251 58.4824 37.277 56.9343 37.277 55.0324C37.277 53.1305 38.8251 51.5824 40.727 51.5824C42.6289 51.5824 44.177 53.1305 44.177 55.0324C44.177 56.9343 42.6289 58.4824 40.727 58.4824ZM52.25 56.1824C52.25 59.0664 51.1747 61.7 49.4143 63.7209C48.6113 61.591 46.9279 59.889 44.8289 59.0507C45.8458 58.013 46.477 56.5963 46.477 55.0324C46.477 51.8621 43.8973 49.2824 40.727 49.2824C37.5566 49.2824 34.977 51.8621 34.977 55.0324C34.977 56.5963 35.6081 58.013 36.6262 59.0507C34.539 59.8829 32.8612 61.5702 32.0526 63.6838C30.3113 61.6679 29.25 59.0496 29.25 56.1824C29.25 49.8411 34.4087 44.6824 40.75 44.6824C47.0913 44.6824 52.25 49.8411 52.25 56.1824ZM44.337 42.8721C43.1915 42.5632 41.9921 42.3824 40.75 42.3824C37.5942 42.3824 34.6917 43.4589 32.3642 45.2484L27.8378 40.2688C30.1333 37.8032 31.55 34.5093 31.55 30.8824C31.55 29.3759 31.2996 27.9294 30.8509 26.571L43.4987 21.2107C44.9154 23.8892 47.189 26.0387 49.9511 27.3117L44.337 42.8721Z" fill="#0D2C33"/>
</g>
<defs>
<clipPath id="clip0">
<rect width="69" height="69" fill="white" transform="translate(0.5 0.982422)"/>
</clipPath>
</defs>
</svg>
