<svg width="74" height="74" viewBox="0 0 74 74" fill="none" xmlns="http://www.w3.org/2000/svg">
<g clip-path="url(#clip0)">
<path d="M26.2334 33.6306V36.3708C26.2334 37.9023 27.3886 39.1944 28.9289 39.3858L41.3559 40.9298L41.2904 33.6306H26.2334Z" fill="#C7E0E5"/>
<path d="M48.3855 33.6306H39.4106V44.377C39.4106 45.3169 39.7132 46.2325 40.2745 46.9919C40.8359 47.7513 41.1384 48.6669 41.1384 49.6068V52.8282H46.6576V49.6068C46.6576 48.6669 46.9601 47.7513 47.5214 46.9919C48.0828 46.2325 48.3853 45.3169 48.3853 44.377V33.6306H48.3855Z" fill="#DAEAEF"/>
<path d="M42.6381 21.4879L36.5363 22.586C35.3202 22.8049 34.1546 22.0099 33.9327 20.8102C33.7109 19.6105 34.5168 18.4607 35.7329 18.2418L41.8347 17.1437C43.0508 16.9248 44.2164 17.7198 44.4383 18.9195C44.6601 20.1191 43.8542 21.269 42.6381 21.4879Z" fill="#C7E0E5"/>
<path d="M26.2334 32.9338V36.3711C26.2334 37.9025 27.3886 39.1947 28.9289 39.3861L41.3559 40.93L41.2904 32.9338H26.2334Z" fill="#C7E0E5"/>
<path d="M48.3855 33.6309H39.4106V44.3773C39.4106 45.3171 39.7132 46.2328 40.2745 46.9921C40.8359 47.7515 41.1384 48.6672 41.1384 49.607V52.8284H46.6576V49.607C46.6576 48.6672 46.9601 47.7515 47.5214 46.9921C48.0828 46.2328 48.3853 45.3171 48.3853 44.3773V33.6309H48.3855Z" fill="#DAEAEF"/>
<path d="M17.1008 44.3462H12.7111C11.5528 44.3462 10.6138 43.4198 10.6138 42.2772C10.6138 41.1346 11.5528 40.2083 12.7111 40.2083H17.1008C18.259 40.2083 19.1981 41.1346 19.1981 42.2772C19.1981 43.4198 18.259 44.3462 17.1008 44.3462Z" fill="#C7E0E5"/>
<path d="M28.4877 9.33522L10.1528 4.61475L7.38269 15.0853C7.04073 16.3779 7.19321 17.7496 7.81123 18.9383L11.7642 26.5423L16.2193 27.6893L23.4349 22.9607C24.563 22.2214 25.3755 21.0983 25.7175 19.8056L28.4877 9.33522Z" fill="#DCF5FF"/>
<path d="M19.1524 6.93164L15.2815 21.3922C14.9395 22.6848 14.1269 23.808 12.9989 24.5473L11.3047 25.6576L11.7646 26.5421L16.2198 27.6892L23.4353 22.9606C24.5634 22.2213 25.376 21.0982 25.7179 19.8054L28.488 9.33494L19.1524 6.93164Z" fill="#C7EEFB"/>
<path d="M27.9161 11.1038L9.7754 6.43333C8.4366 6.08858 7.63445 4.73851 7.98393 3.4178C8.33341 2.0971 9.70197 1.3058 11.0408 1.65055L29.1815 6.32098C30.5203 6.66573 31.3224 8.01581 30.9729 9.33651C30.6234 10.6572 29.2549 11.4484 27.9161 11.1038Z" fill="#C7EEFB"/>
<path d="M29.1816 6.32086L22.399 4.57471L21.7808 6.91142C21.4243 8.25907 20.0306 9.06734 18.6643 8.72173L27.9162 11.1036C29.255 11.4484 30.6235 10.6571 30.973 9.33639C31.3224 8.01569 30.5204 6.66562 29.1816 6.32086Z" fill="#97E4F9"/>
<path d="M1.74951 28.9227V32.8662C1.74951 33.1019 1.93249 33.2983 2.17068 33.3181L10.6175 34.0213V27.7676L2.17068 28.4708C1.93263 28.4906 1.74951 28.6871 1.74951 28.9227Z" fill="#DAEAEF"/>
<path d="M10.5115 26.6008L7.08496 27.4133C6.74357 27.4943 6.50293 27.7956 6.50293 28.1419V33.647C6.50293 33.9934 6.74357 34.2946 7.08496 34.3755L10.5115 35.1881C11.233 35.3592 11.9724 35.4456 12.7144 35.4456H67.1605C69.3402 35.4456 71.1072 32.3869 71.1072 30.2366C71.1072 28.0864 69.3402 26.3433 67.1605 26.3433H12.7144C11.9724 26.3431 11.233 26.4297 10.5115 26.6008Z" fill="#EFF3F5"/>
<path d="M67.2732 25.3267H55.76C55.2083 25.3267 54.761 25.7679 54.761 26.3122V35.4768C54.761 36.021 55.2083 36.4623 55.76 36.4623H67.2732C70.022 36.4623 72.2504 32.9485 72.2504 30.2368C72.2506 27.5249 70.0222 25.3267 67.2732 25.3267Z" fill="#DAEAEF"/>
<path d="M67.273 25.3267H62.5693V33.2574C62.5693 35.0274 61.1148 36.4623 59.3206 36.4623H67.273C70.0218 36.4623 72.2502 32.9485 72.2502 30.2368C72.2503 27.5249 70.0219 25.3267 67.273 25.3267Z" fill="#C7E0E5"/>
<path d="M47.0279 50.0024H40.7684C40.0185 50.0024 39.4106 50.6021 39.4106 51.3418V53.1459C39.4106 53.8856 40.0185 54.4852 40.7684 54.4852H47.0279C47.7777 54.4852 48.3856 53.8856 48.3856 53.1459V51.3418C48.3856 50.602 47.7777 50.0024 47.0279 50.0024Z" fill="#C7E0E5"/>
<path d="M67.2732 24.2572H55.7598C54.9954 24.2572 54.3277 24.6667 53.9653 25.2738H50.857C50.2583 25.2738 49.7731 25.7524 49.7731 26.3431C49.7731 26.9338 50.2583 27.4124 50.857 27.4124H53.6768V34.3761H12.7147C12.0585 34.3761 11.4025 34.2994 10.7651 34.1482L7.58713 33.3946V28.3939L10.7651 27.6404C11.4029 27.4891 12.0588 27.4124 12.7147 27.4124H45.7899C46.3887 27.4124 46.8739 26.9338 46.8739 26.3431C46.8739 25.7524 46.3887 25.2738 45.7899 25.2738H41.2878L40.8483 22.897L42.8327 22.5398C44.6387 22.2149 45.8344 20.5098 45.5046 18.7276C45.1755 16.9458 43.4476 15.7672 41.6403 16.0917L35.5383 17.1899C33.7362 17.5142 32.5376 19.2243 32.8665 21.0021C33.1952 22.7801 34.9209 23.9637 36.731 23.638L38.7157 23.2808L39.0842 25.2738H21.8642L24.0348 23.8513C25.3866 22.9656 26.3567 21.6246 26.7666 20.0755L28.8389 12.242C30.2975 12.1263 31.6202 11.1234 32.0217 9.60627C32.5225 7.71298 31.3748 5.78033 29.455 5.28616L11.3144 0.615868C9.3955 0.121692 7.43609 1.25362 6.93515 3.14748C6.54015 4.64056 7.17709 6.16344 8.40677 6.98027L6.3339 14.8151C5.92401 16.3639 6.10626 18.0016 6.8467 19.4263L10.0603 25.608L6.83152 26.3735C6.37943 26.4808 6.00263 26.7453 5.75173 27.0993L2.07977 27.405C1.28672 27.4709 0.665527 28.1376 0.665527 28.9226V32.8659C0.665527 33.6638 1.27328 34.3162 2.07948 34.3835L5.75173 34.6893C6.00263 35.0434 6.37957 35.308 6.83181 35.4151L10.2584 36.2276C11.0615 36.4181 11.8879 36.5148 12.7147 36.5148H13.8221V39.1388H12.7112C10.9569 39.1388 9.52977 40.5466 9.52977 42.2772C9.52977 44.0077 10.9569 45.4155 12.7112 45.4155H17.1009C18.8552 45.4155 20.2823 44.0077 20.2823 42.2772C20.2823 40.5466 18.8552 39.1388 17.1009 39.1388H15.99V36.5148H25.1527C25.2236 38.5173 26.7644 40.1948 28.7933 40.4468L38.3266 41.6312V44.3771C38.3266 45.5512 38.6973 46.6733 39.3987 47.6222C39.716 48.0515 39.9218 48.5388 40.0079 49.0541C39.0331 49.3703 38.3266 50.2755 38.3266 51.3417V53.1456C38.3266 54.4738 39.4219 55.5542 40.7682 55.5542H42.8139V67.4612C42.8139 70.7908 45.56 73.4998 48.9352 73.4998C52.3105 73.4998 55.0565 70.7908 55.0565 67.4612V51.6754C55.0565 49.3358 56.986 47.4324 59.3577 47.4324C61.7293 47.4324 63.6588 49.3358 63.6588 51.6754V72.4011C63.6588 72.9918 64.1439 73.4704 64.7427 73.4704C65.3415 73.4704 65.8267 72.9918 65.8267 72.4011V51.6754C65.8267 48.1565 62.9247 45.2937 59.3577 45.2937C55.7906 45.2937 52.8886 48.1565 52.8886 51.6754V67.4613C52.8886 69.6118 51.1152 71.3613 48.9352 71.3613C46.7552 71.3613 44.9818 69.6118 44.9818 67.4613V55.5544H47.0277C48.374 55.5544 49.4692 54.4739 49.4692 53.1458V51.3419C49.4692 50.2757 48.7628 49.3705 47.7879 49.0542C47.8741 48.5389 48.08 48.0516 48.3973 47.6223C49.0987 46.6736 49.4694 45.5515 49.4694 44.3772V36.5149H53.9653C54.3277 37.1221 54.9954 37.5316 55.7598 37.5316H67.2732C70.6307 37.5316 73.3344 33.5409 73.3344 30.2366C73.3344 26.9395 70.6153 24.2572 67.2732 24.2572ZM36.3419 21.5342C35.7113 21.6471 35.1131 21.2349 34.9991 20.6184C34.8849 20.0006 35.3013 19.4065 35.9274 19.2937L42.0292 18.1956C42.6565 18.0834 43.2573 18.4916 43.3719 19.1114C43.4865 19.7313 43.0703 20.3233 42.4436 20.4361L36.3419 21.5342ZM8.43148 15.355L10.4533 7.71284L11.8742 8.07869C12.4535 8.22826 13.0455 7.8855 13.1967 7.31405C13.3479 6.74259 13.0008 6.15859 12.4216 6.00946L10.0491 5.39865C9.29072 5.20332 8.83487 4.43582 9.03273 3.68771C9.23002 2.94203 10.0022 2.48892 10.767 2.68525L28.9077 7.35554C29.6675 7.55101 30.1224 8.31623 29.924 9.06619C29.7263 9.81415 28.9522 10.265 28.1901 10.0691C28.1898 10.0691 28.1895 10.0689 28.1892 10.0689L17.3245 7.27184C16.7455 7.12285 16.1531 7.46489 16.002 8.03649C15.8508 8.60794 16.1979 9.19194 16.7771 9.34108L26.6905 11.8934L24.6688 19.5357C24.3938 20.5755 23.7425 21.4755 22.8352 22.07L17.9461 25.2739H12.7147C12.5855 25.2739 12.4564 25.277 12.3273 25.2819L8.7759 18.4505C8.27871 17.4941 8.15644 16.3948 8.43148 15.355ZM2.8335 29.4885L5.41916 29.2732V32.5153L2.8335 32.3V29.4885ZM18.1144 42.2772C18.1144 42.8284 17.6598 43.2768 17.1009 43.2768H12.7112C12.1524 43.2768 11.6977 42.8284 11.6977 42.2772C11.6977 41.726 12.1523 41.2774 12.7112 41.2774H17.1009C17.6597 41.2774 18.1144 41.726 18.1144 42.2772ZM29.0642 38.3249C28.1169 38.2073 27.3928 37.4414 27.324 36.5149H38.3265V39.4757L29.0642 38.3249ZM47.3014 53.1456C47.3014 53.2945 47.1786 53.4157 47.0277 53.4157H40.7682C40.6173 53.4157 40.4944 53.2945 40.4944 53.1456V51.3417C40.4944 51.1927 40.6173 51.0716 40.7682 51.0716H47.0277C47.1786 51.0716 47.3014 51.1927 47.3014 51.3417V53.1456ZM47.3014 44.3771C47.3014 45.0953 47.0747 45.7818 46.6457 46.3619C46.0799 47.1273 45.7297 48.0056 45.6152 48.9329H42.1807C42.0662 48.0056 41.716 47.1274 41.1503 46.3621C40.7214 45.7818 40.4946 45.0953 40.4946 44.3771V36.5148H47.3014V44.3771ZM67.2732 35.3928H55.8448V26.3958H67.2732C69.4199 26.3958 71.1664 28.1188 71.1664 30.2365C71.1664 32.4879 69.2786 35.3928 67.2732 35.3928Z" fill="black"/>
</g>
<defs>
<clipPath id="clip0">
<rect width="74" height="73" fill="white" transform="translate(0 0.5)"/>
</clipPath>
</defs>
</svg>
