<svg width="74" height="74" viewBox="0 0 74 74" fill="none" xmlns="http://www.w3.org/2000/svg">
<g clip-path="url(#clip0)">
<path d="M67.167 69.2417L6.85647 69.2868C6.06895 69.2874 5.43013 68.6491 5.42957 67.8622L5.40674 36.6587C5.40618 35.8712 6.04388 35.2324 6.83141 35.2318L67.142 35.1873C67.9295 35.1867 68.5683 35.8244 68.5688 36.6119L68.5917 67.8154C68.5922 68.6023 67.9545 69.2411 67.167 69.2417Z" fill="#FD6069"/>
<path d="M67.167 69.2417L37.0111 69.2645L36.9861 35.2095L67.1419 35.1873C67.9289 35.1867 68.5677 35.8244 68.5682 36.6119L68.5916 67.8154C68.5922 68.6023 67.9545 69.2411 67.167 69.2417Z" fill="#FC3E4B"/>
<path d="M37 43.4656C27.4902 36.4425 16.1134 36.1339 10.0527 36.5996V60.8829C10.0527 61.6955 10.7294 62.3444 11.5403 62.3076C17.85 62.0197 28.2209 62.781 37 69.2644C45.7791 62.781 56.15 62.0197 62.4597 62.3076C63.2706 62.3444 63.9473 61.6955 63.9473 60.8829V36.5996C57.8866 36.1339 46.5098 36.4425 37 43.4656Z" fill="#9CC6DB"/>
<path d="M37 43.4656C27.4902 36.4425 16.1134 36.1339 10.0527 36.5996V60.8829C10.0527 61.6955 10.7294 62.3444 11.5403 62.3076C17.85 62.0197 28.2209 62.781 37 69.2644V43.4656Z" fill="#BDDFF4"/>
<path d="M10.0527 32.9136V55.8581C10.0527 56.6701 10.7294 57.319 11.5403 57.2822C17.85 56.9943 28.2209 57.7556 37 64.239V38.4402C28.1579 31.91 17.7007 31.1848 11.405 31.49C10.647 31.5262 10.0527 32.155 10.0527 32.9136Z" fill="#E3F4FF"/>
<path d="M63.9473 32.9136V55.8581C63.9473 56.6701 63.2711 57.319 62.4597 57.2822C56.15 56.9943 45.7791 57.7556 37 64.239V38.4402C45.8426 31.91 56.2993 31.1848 62.5956 31.49C63.353 31.5262 63.9473 32.155 63.9473 32.9136Z" fill="#BDDFF4"/>
<path d="M49.8439 51.8877C49.8439 53.9678 45.5649 55.7089 39.8389 56.1483H39.8378C38.925 56.2179 37.9754 56.2552 37.0001 56.2552C36.0249 56.2552 35.0753 56.2179 34.1631 56.1483H34.1614C28.4354 55.7089 24.157 53.9678 24.157 51.8877C24.157 50.6045 25.7821 49.451 28.3703 48.6529C30.6499 47.9484 33.6769 47.5195 37.0001 47.5195C40.324 47.5195 43.3504 47.9484 45.6306 48.6529C48.2181 49.451 49.8439 50.6045 49.8439 51.8877Z" fill="#618BAA"/>
<path d="M72.4307 13.9707L55.729 35.5841L45.6304 48.6528L39.8388 56.1482H39.8371C38.9248 56.2178 37.9752 56.2551 37 56.2551C36.0248 56.2551 35.0752 56.2178 34.1629 56.1482H34.1612L28.3696 48.6528L18.271 35.5841L1.56934 13.9707H72.4307Z" fill="#A6FFEE"/>
<path d="M50.0303 42.9582L45.6304 48.653L39.8376 56.1483C38.9248 56.218 37.9752 56.2553 37 56.2553C36.0248 56.2553 35.0752 56.218 34.1629 56.1483L28.3701 48.653L23.9697 42.9582C21.6461 39.9501 23.7887 35.5842 27.5915 35.5842H46.409C50.2113 35.5842 52.3544 39.9501 50.0303 42.9582Z" fill="#FC3E4B"/>
<path d="M37 38.4825C35.3002 38.4825 33.9224 37.1046 33.9224 35.4043V29.6003H40.0783V35.4043C40.0783 37.1046 38.7004 38.4825 37 38.4825Z" fill="#FD6069"/>
<path d="M50.3555 19.5666C50.3555 21.1288 49.089 22.3953 47.5268 22.3953C45.964 22.3953 44.6975 21.1288 44.6975 19.5666C44.6975 18.0038 45.964 16.7373 47.5268 16.7373C49.089 16.7373 50.3555 18.0038 50.3555 19.5666Z" fill="#FECBAA"/>
<path d="M29.3025 19.5666C29.3025 21.1288 28.036 22.3953 26.4738 22.3953C24.911 22.3953 23.6445 21.1288 23.6445 19.5666C23.6445 18.0038 24.911 16.7373 26.4738 16.7373C28.036 16.7373 29.3025 18.0038 29.3025 19.5666Z" fill="#FECBAA"/>
<path d="M27.7725 14.5188L28.5745 24.6357C28.9226 29.0306 32.5912 32.4196 36.9999 32.4196C41.4087 32.4196 45.0773 29.0306 45.4254 24.6357L46.2274 14.5188H27.7725Z" fill="#FEDFC5"/>
<path d="M47.7785 17.2457H26.2214C25.3904 17.2457 24.717 16.5718 24.717 15.7408C24.717 9.64672 29.6571 4.70605 35.7512 4.70605H38.2486C44.3427 4.70605 49.2828 9.64672 49.2828 15.7408C49.2834 16.5718 48.6095 17.2457 47.7785 17.2457Z" fill="#BDDFF4"/>
<path d="M49.2834 15.7408C49.2834 16.1557 49.1152 16.5322 48.8429 16.8045C48.5705 17.0769 48.1951 17.2451 47.7791 17.2451H44.8963C45.3124 17.2451 45.6872 17.0769 45.9596 16.8045C46.2319 16.5322 46.4001 16.1557 46.4001 15.7408C46.4001 9.64721 41.46 4.70654 35.3665 4.70654H38.2492C44.3427 4.70654 49.2834 9.64721 49.2834 15.7408Z" fill="#9CC6DB"/>
<path d="M73.0846 13.1248C72.6173 12.7639 71.9457 12.8497 71.5848 13.3176L51.8917 38.8006C51.7954 38.4169 51.6572 38.0381 51.4773 37.6711C50.5211 35.724 48.5796 34.5144 46.4097 34.5144H41.1477V32.5378C41.9836 32.1329 42.7645 31.6054 43.4612 30.9616C45.2256 29.3314 46.3022 27.1148 46.4921 24.7205L46.6007 23.3504C46.9026 23.4244 47.2134 23.4645 47.5269 23.4645C49.6767 23.4645 51.4255 21.7157 51.4255 19.5665C51.4255 18.4687 50.9521 17.43 50.1652 16.701C50.2855 16.4041 50.3529 16.0806 50.3529 15.7408C50.3529 9.06694 44.9232 3.63672 38.2488 3.63672H35.752C29.0775 3.63672 23.6479 9.06694 23.6479 15.7408C23.6479 16.0783 23.7147 16.3997 23.8333 16.6954C23.0403 17.4217 22.5752 18.4515 22.5752 19.5665C22.5752 21.7157 24.324 23.4645 26.4738 23.4645C26.7879 23.4645 27.0982 23.4244 27.4 23.3504L27.5086 24.7205C27.6985 27.1148 28.7751 29.3314 30.5395 30.9616C31.2363 31.6054 32.0165 32.1329 32.8531 32.5378V34.5144H27.5911C25.4218 34.5144 23.4797 35.724 22.5234 37.6717C22.3435 38.0381 22.2054 38.4169 22.109 38.8012L2.41599 13.317C2.05454 12.8497 1.38286 12.7639 0.915582 13.1248C0.448305 13.4863 0.361978 14.1574 0.723436 14.6247L12.8933 30.3729C12.3781 30.3818 11.864 30.3974 11.3533 30.4219C10.0244 30.486 8.9835 31.5809 8.9835 32.9142V34.1607L6.8309 34.1624C5.45469 34.1635 4.33634 35.2835 4.33746 36.6597L4.36029 67.8626C4.36141 69.2377 5.48031 70.356 6.85597 70.356H6.85764L67.1676 70.3115C68.5438 70.3104 69.6622 69.1904 69.6611 67.8141L69.6566 61.8415C69.6561 61.2511 69.1776 60.7732 68.5873 60.7732H68.5867C67.9958 60.7732 67.5174 61.2522 67.5179 61.8431L67.5224 67.8158C67.5224 68.0124 67.3631 68.1723 67.1665 68.1728L40.5857 68.1923C48.168 63.7963 56.4731 63.104 62.4113 63.3758C63.0986 63.4076 63.7485 63.1625 64.2453 62.688C64.7354 62.2196 65.0167 61.5619 65.0167 60.8835V47.2996C65.0167 46.7087 64.5383 46.2303 63.9474 46.2303C63.357 46.2303 62.878 46.7087 62.878 47.2996V55.8582C62.878 55.9919 62.809 56.0776 62.7677 56.1172C62.7271 56.1562 62.638 56.2202 62.5088 56.2141C55.895 55.9133 46.4726 56.7543 38.07 62.2001V57.3096C44.6169 57.1269 50.9126 55.2728 50.9126 51.8877C50.9126 51.851 50.9115 51.8142 50.9098 51.7763C53.386 51.2383 55.988 50.9158 58.6603 50.8212C59.2506 50.8006 59.7123 50.3049 59.6912 49.7145C59.67 49.1242 59.1732 48.6624 58.5845 48.6842C55.6171 48.7889 52.7288 49.1637 49.9897 49.7919C49.5091 49.2901 48.7995 48.7866 47.7742 48.3177C51.1593 47.2773 54.8168 46.6808 58.6603 46.5444C59.2506 46.5238 59.7123 46.0281 59.6912 45.4383C59.6706 44.8607 59.1966 44.4068 58.6235 44.4068C58.6107 44.4068 58.5979 44.4068 58.5851 44.4074C55.3453 44.5221 52.2276 44.9498 49.2774 45.6817L51.2312 43.1537C53.6071 42.6575 56.105 42.3584 58.6603 42.2676C59.2506 42.247 59.7118 41.7513 59.6912 41.1609C59.67 40.5706 59.1732 40.1094 58.5845 40.1306C56.7488 40.1952 54.9404 40.3651 53.1794 40.6324L55.0062 38.2682C56.2041 38.1295 57.4305 38.0348 58.6603 37.9908C59.2506 37.9702 59.7118 37.4745 59.6912 36.8847C59.67 36.2943 59.1727 35.836 58.5845 35.8538C57.9869 35.875 57.3899 35.9095 56.7956 35.9524L59.4556 32.5105C60.4815 32.4943 61.5185 32.5088 62.5433 32.5584C62.731 32.5673 62.878 32.7238 62.878 32.9142V42.3773C62.878 42.9682 63.3564 43.4466 63.9474 43.4466C64.5383 43.4466 65.0167 42.9682 65.0167 42.3773V36.2581L67.1426 36.2565H67.1431C67.2712 36.2565 67.3559 36.3222 67.3949 36.3606C67.4338 36.3996 67.499 36.4843 67.499 36.6129L67.514 56.9208C67.5146 57.5112 67.993 57.9896 68.5834 57.9896H68.5845C69.1749 57.9891 69.6533 57.5101 69.6527 56.9192L69.6377 36.6113C69.6377 35.9446 69.3776 35.318 68.9058 34.8474C68.4347 34.3768 67.8087 34.1178 67.1431 34.1178C67.1426 34.1178 67.1414 34.1178 67.1409 34.1178L65.0167 34.1195V32.9142C65.0167 31.5809 63.9758 30.4865 62.6469 30.4219C62.1356 30.3974 61.6216 30.3818 61.1075 30.3729L73.2768 14.6253C73.6382 14.158 73.5519 13.4863 73.0846 13.1248ZM47.5269 21.3259C47.2613 21.3259 47.0067 21.268 46.7745 21.1571L46.9995 18.315H47.7787C48.0683 18.315 48.3462 18.2643 48.6068 18.1758C49.0329 18.5049 49.2869 19.0112 49.2869 19.5665C49.2863 20.5367 48.4971 21.3259 47.5269 21.3259ZM35.752 5.77539H38.2488C43.7436 5.77539 48.2142 10.246 48.2142 15.7408C48.2142 15.9809 48.0187 16.1764 47.7787 16.1764H43.1471V12.5529C43.1471 11.9625 42.6687 11.4835 42.0778 11.4835C41.4874 11.4835 41.0084 11.9625 41.0084 12.5529V16.1764H40.1608V13.933C40.1608 13.3421 39.6818 12.8636 39.0914 12.8636C38.5005 12.8636 38.0221 13.3421 38.0221 13.933V16.1764H26.2221C25.982 16.1764 25.7866 15.9809 25.7866 15.7408C25.7866 10.246 30.2572 5.77539 35.752 5.77539ZM26.4738 21.3259C25.5031 21.3259 24.7139 20.5367 24.7139 19.5665C24.7139 19.0129 24.9684 18.5055 25.3945 18.1758C25.6546 18.2649 25.9319 18.315 26.2215 18.315H27.0007L27.2263 21.1571C26.9935 21.268 26.7395 21.3259 26.4738 21.3259ZM29.6406 24.5511L29.146 18.315H44.8541L44.3596 24.5511C44.0577 28.364 40.8246 31.3503 37.0001 31.3503C33.1755 31.3503 29.9425 28.364 29.6406 24.5511ZM37.0001 33.489C37.6818 33.489 38.354 33.4144 39.009 33.2735V35.4049C39.009 36.5121 38.1079 37.4133 37.0001 37.4133C35.8923 37.4133 34.9912 36.5121 34.9912 35.4049V33.2735C35.6462 33.4144 36.3184 33.489 37.0001 33.489ZM24.8158 42.3038C23.9793 41.2216 23.84 39.8421 24.4426 38.614C25.0458 37.386 26.2226 36.653 27.5905 36.653H33.0452C33.4702 37.9964 34.5618 39.0457 35.9308 39.4116V55.1692C35.5136 55.1575 35.1076 55.1397 34.7133 55.1152C34.7044 55.103 34.696 55.0896 34.6865 55.0773L24.8164 42.3049C24.8164 42.3044 24.8164 42.3044 24.8158 42.3038ZM31.7687 54.7989C27.5025 54.1216 25.2268 52.7153 25.2268 51.8872C25.2268 51.4076 26.0957 50.5989 27.9898 49.9089L31.7687 54.7989ZM11.1222 32.9142C11.1222 32.7232 11.2692 32.5667 11.4563 32.5578C12.4806 32.5088 13.5176 32.4938 14.5446 32.5105L17.2046 35.9524C16.6103 35.9095 16.0133 35.875 15.4157 35.8532C14.8253 35.8365 14.3302 36.2938 14.309 36.8842C14.2884 37.4745 14.7496 37.9696 15.3399 37.9908C16.5697 38.0342 17.7961 38.1289 18.994 38.2682L20.8208 40.6318C19.0598 40.3651 17.2514 40.1952 15.4157 40.13C14.8225 40.1094 14.3302 40.5706 14.309 41.1609C14.2884 41.7513 14.7496 42.2464 15.3399 42.2676C17.8935 42.3578 20.3925 42.6558 22.7679 43.152L24.7239 45.6828C21.7743 44.9504 18.6565 44.5216 15.4157 44.4068C14.8225 44.389 14.3302 44.8474 14.309 45.4372C14.2884 46.0275 14.7496 46.5232 15.3399 46.5438C19.1856 46.6803 22.842 47.2773 26.2271 48.3183C25.2023 48.7878 24.4939 49.2918 24.0143 49.7919C21.2736 49.1631 18.3842 48.7883 15.4157 48.6836C14.8225 48.6619 14.3302 49.1242 14.309 49.714C14.2878 50.3043 14.7496 50.7994 15.3399 50.8206C18.0121 50.9153 20.6142 51.2378 23.0898 51.7758C23.0887 51.8136 23.0876 51.8504 23.0876 51.8872C23.0876 55.2723 29.3833 57.1264 35.9308 57.309V62.2035C32.5707 60.0314 28.769 58.4212 24.5991 57.4121C24.0249 57.2739 23.4474 57.6259 23.3081 58.2001C23.1695 58.7738 23.522 59.3519 24.0962 59.4906C28.5212 60.5616 32.4989 62.3438 35.9302 64.7877V67.2271C27.527 61.7807 18.104 60.937 11.4914 61.2388C11.3611 61.245 11.2731 61.1804 11.2324 61.1414C11.1912 61.1018 11.1222 61.0161 11.1222 60.8829V58.3266C11.2753 58.3477 11.4313 58.3572 11.5889 58.35C14.1876 58.2319 16.7819 58.3255 19.297 58.629C19.341 58.634 19.3839 58.6368 19.4268 58.6368C19.9598 58.6368 20.4215 58.238 20.4872 57.6955C20.5579 57.1091 20.1397 56.5761 19.5532 56.5054C16.9205 56.1879 14.2082 56.0893 11.4914 56.2135C11.3605 56.2208 11.2725 56.155 11.2324 56.1166C11.1912 56.0771 11.1222 55.9907 11.1222 55.8576V32.9142ZM6.85597 68.2174C6.65936 68.2174 6.49952 68.0575 6.49896 67.8609L6.47613 36.658C6.47613 36.5294 6.54129 36.4447 6.58028 36.4057C6.61926 36.3668 6.70336 36.301 6.83202 36.301L8.9835 36.2994V60.8829C8.9835 61.5613 9.26476 62.2191 9.75542 62.688C10.2517 63.1625 10.8999 63.407 11.5894 63.3753C17.5276 63.1035 25.8383 63.7969 33.4239 68.1973L6.85597 68.2174ZM62.4113 58.3505C62.5695 58.3578 62.7249 58.3488 62.878 58.3271V60.8829C62.878 61.0166 62.809 61.1024 62.7677 61.1419C62.7271 61.1804 62.6374 61.2455 62.5088 61.2388C55.8939 60.9375 46.4726 61.7813 38.0694 67.2277V64.7888C46.2783 58.9387 55.8093 58.0498 62.4113 58.3505ZM38.0694 39.4116C39.4384 39.0457 40.53 37.9964 40.955 36.653H46.4097C47.7776 36.653 48.9544 37.386 49.5576 38.614C50.1602 39.8421 50.0209 41.2216 49.1844 42.3038C49.1844 42.3044 49.1838 42.3044 49.1838 42.3049L39.3136 55.0773C39.3042 55.0896 39.2958 55.103 39.2869 55.1158C38.8926 55.1397 38.4866 55.1581 38.0694 55.1692V39.4116ZM48.7734 51.8872C48.7734 52.7153 46.4977 54.1216 42.232 54.7989L46.0104 49.9094C47.9012 50.5973 48.7734 51.3932 48.7734 51.8872Z" fill="black"/>
<path d="M42.0776 44.5933H44.6975C45.2884 44.5933 45.7668 44.1148 45.7668 43.5239C45.7668 42.9336 45.2884 42.4546 44.6975 42.4546H42.0776C41.4873 42.4546 41.0083 42.9336 41.0083 43.5239C41.0083 44.1148 41.4873 44.5933 42.0776 44.5933Z" fill="black"/>
<path d="M33.9411 20.852C33.935 20.2616 33.4443 19.7865 32.8606 19.7938H32.8472C32.2569 19.7999 31.7896 20.2839 31.7957 20.8743C31.8018 21.4613 32.2858 21.9324 32.8717 21.9324H32.8829C33.4732 21.9263 33.9472 21.4423 33.9411 20.852Z" fill="black"/>
<path d="M41.1415 21.9324H41.1526C41.743 21.9262 42.217 21.4423 42.2108 20.8519C42.2047 20.2654 41.7269 19.7937 41.1421 19.7937C41.1382 19.7937 41.1343 19.7937 41.1304 19.7937H41.117C40.5266 19.7998 40.0594 20.2838 40.0655 20.8742C40.0716 21.4612 40.5556 21.9324 41.1415 21.9324Z" fill="black"/>
<path d="M40.9386 24.916C41.0316 24.3329 40.6345 23.7849 40.0513 23.6918C39.4666 23.5994 38.9196 23.9959 38.8266 24.5791C38.6824 25.4824 37.9143 26.1379 36.9998 26.1379C36.0853 26.1379 35.3173 25.4824 35.1731 24.5791C35.08 23.9959 34.5326 23.5994 33.9483 23.6918C33.3652 23.7849 32.9681 24.3329 33.0611 24.916C33.3719 26.8631 35.0282 28.2766 36.9998 28.2766C38.9709 28.2766 40.6278 26.8631 40.9386 24.916Z" fill="black"/>
<path d="M58.2346 18.8541C58.2446 18.8541 58.2541 18.8547 58.2641 18.8547C58.8411 18.8547 59.3167 18.3946 59.3323 17.8137L59.334 17.7569C59.3496 17.1666 58.884 16.6753 58.2936 16.6597C57.701 16.6458 57.212 17.1092 57.1959 17.6995L57.1947 17.7564C57.1786 18.3467 57.6442 18.8379 58.2346 18.8541Z" fill="black"/>
<path d="M58.307 20.2789C57.7127 20.2639 57.2243 20.7261 57.207 21.316L57.2048 21.3728C57.1881 21.9631 57.652 22.456 58.2424 22.4733C58.253 22.4733 58.2641 22.4738 58.2747 22.4738C58.8506 22.4738 59.3256 22.0155 59.3429 21.4357L59.3446 21.3789C59.3618 20.7885 58.8973 20.2962 58.307 20.2789Z" fill="black"/>
<path d="M58.9814 19.5288C58.9642 20.1191 59.4287 20.612 60.019 20.6293L60.0758 20.631C60.0864 20.6315 60.097 20.6315 60.1076 20.6315C60.684 20.6315 61.1591 20.1732 61.1764 19.5939C61.1936 19.0036 60.7291 18.5107 60.1388 18.4934L60.082 18.4917C59.4877 18.4734 58.9992 18.9384 58.9814 19.5288Z" fill="black"/>
<path d="M56.4001 20.6398L56.4569 20.6415C56.4675 20.642 56.4786 20.642 56.4892 20.642C57.0651 20.642 57.5401 20.1837 57.5574 19.6039C57.5747 19.0135 57.1102 18.5212 56.5198 18.5039L56.4636 18.5022C55.8676 18.4889 55.3803 18.9495 55.363 19.5393C55.3452 20.1296 55.8097 20.6225 56.4001 20.6398Z" fill="black"/>
<path d="M21.3933 24.605C21.3832 24.6045 21.3732 24.6045 21.3638 24.6045C20.7868 24.6045 20.3111 25.0645 20.2955 25.6449L20.2939 25.7017C20.2777 26.292 20.7433 26.7838 21.3337 26.7994C21.3437 26.7994 21.3537 26.8 21.3632 26.8C21.9402 26.8 22.4158 26.3399 22.4314 25.759L22.4331 25.7028C22.4492 25.1124 21.9831 24.6206 21.3933 24.605Z" fill="black"/>
<path d="M21.3442 30.4187C21.3542 30.4192 21.3642 30.4192 21.3737 30.4192C21.9507 30.4192 22.4263 29.9592 22.4419 29.3789L22.4436 29.3221C22.4597 28.7317 21.9941 28.2399 21.4032 28.2243C20.8117 28.2076 20.3216 28.6743 20.306 29.2641L20.3044 29.3209C20.2882 29.9113 20.7538 30.4031 21.3442 30.4187Z" fill="black"/>
<path d="M23.1749 28.5763C23.1855 28.5769 23.1966 28.5769 23.2072 28.5769C23.7831 28.5769 24.2581 28.1185 24.2754 27.5393C24.2927 26.9489 23.8282 26.456 23.2378 26.4387L23.1816 26.4371C22.5856 26.4232 22.0983 26.8843 22.081 27.4741C22.0638 28.0645 22.5283 28.5574 23.1186 28.5746L23.1749 28.5763Z" fill="black"/>
<path d="M18.4622 27.4853C18.4443 28.0751 18.9094 28.568 19.4992 28.5853L19.556 28.5869C19.5666 28.5875 19.5772 28.5875 19.5883 28.5875C20.1642 28.5875 20.6393 28.1291 20.6565 27.5499C20.6738 26.9595 20.2093 26.4666 19.6189 26.4494L19.5627 26.4477C18.9662 26.431 18.4794 26.8944 18.4622 27.4853Z" fill="black"/>
<path d="M20.4721 7.02744C20.4821 7.02744 20.4916 7.028 20.5016 7.028C21.0786 7.028 21.5543 6.56796 21.5698 5.98763L21.5715 5.93082C21.5877 5.34045 21.1221 4.84867 20.5317 4.83308C20.5217 4.83252 20.5117 4.83252 20.5022 4.83252C19.9252 4.83252 19.4496 5.29256 19.434 5.87289L19.4323 5.9297C19.4161 6.52007 19.8817 7.01185 20.4721 7.02744Z" fill="black"/>
<path d="M20.4799 10.6465C20.4911 10.6471 20.5016 10.6471 20.5122 10.6471C21.0881 10.6471 21.5632 10.1887 21.5804 9.60894L21.5821 9.55269C21.5994 8.96233 21.1349 8.46943 20.5451 8.45217C19.9536 8.43936 19.4618 8.89939 19.4445 9.48976L19.4429 9.54601C19.4251 10.1364 19.8901 10.6293 20.4799 10.6465Z" fill="black"/>
<path d="M21.2194 7.70468C21.2033 8.29504 21.6689 8.78683 22.2592 8.80242L22.316 8.80409C22.3255 8.80465 22.3355 8.80465 22.3455 8.80465C22.9225 8.80465 23.3982 8.34461 23.4138 7.76427C23.4299 7.17336 22.9638 6.68213 22.3734 6.66653L22.3171 6.66486C22.3071 6.66431 22.2976 6.66431 22.2876 6.66431C21.7106 6.66431 21.235 7.12434 21.2194 7.70468Z" fill="black"/>
<path d="M18.6403 8.81296L18.6971 8.81463C18.7072 8.81519 18.7166 8.81519 18.7266 8.81519C19.3036 8.81519 19.7793 8.35515 19.7949 7.77481C19.811 7.18445 19.3454 6.69267 18.7551 6.67707L18.6982 6.6754C18.1034 6.66037 17.6161 7.12486 17.6005 7.71522C17.5844 8.30558 18.05 8.79737 18.6403 8.81296Z" fill="black"/>
</g>
<defs>
<clipPath id="clip0">
<rect width="73" height="73" fill="white" transform="translate(0.5 0.5)"/>
</clipPath>
</defs>
</svg>
