<svg width="71" height="32" viewBox="0 0 71 32" fill="none" xmlns="http://www.w3.org/2000/svg">
<g clip-path="url(#clip0_4138_192)">
<path d="M67.4966 13.08C67.4966 19.23 53.2366 24.21 35.6466 24.21C18.0566 24.21 3.80664 19.21 3.80664 13.08C3.80664 6.95 18.0666 2 35.6466 2C53.2266 2 67.4966 7 67.4966 13.12" fill="#4C4C4C"/>
<path d="M29.8073 28.8998H25.6272C25.4584 28.9152 25.2882 28.8952 25.1276 28.8411C24.9669 28.787 24.8193 28.7 24.6942 28.5857C24.569 28.4714 24.469 28.3322 24.4006 28.1771C24.3322 28.022 24.2969 27.8544 24.2969 27.6848C24.2969 27.5153 24.3322 27.3477 24.4006 27.1926C24.469 27.0375 24.569 26.8983 24.6942 26.784C24.8193 26.6697 24.9669 26.5827 25.1276 26.5286C25.2882 26.4745 25.4584 26.4545 25.6272 26.4698H29.8073C29.9761 26.4545 30.1462 26.4745 30.3069 26.5286C30.4675 26.5827 30.6151 26.6697 30.7403 26.784C30.8655 26.8983 30.9654 27.0375 31.0338 27.1926C31.1022 27.3477 31.1376 27.5153 31.1376 27.6848C31.1376 27.8544 31.1022 28.022 31.0338 28.1771C30.9654 28.3322 30.8655 28.4714 30.7403 28.5857C30.6151 28.7 30.4675 28.787 30.3069 28.8411C30.1462 28.8952 29.9761 28.9152 29.8073 28.8998Z" fill="#4C4C4C"/>
<path d="M37.7469 28.8997H33.5569C33.2537 28.8722 32.9717 28.7323 32.7664 28.5075C32.5611 28.2826 32.4473 27.9892 32.4473 27.6847C32.4473 27.3803 32.5611 27.0868 32.7664 26.862C32.9717 26.6372 33.2537 26.4973 33.5569 26.4697H37.7469C38.0502 26.4973 38.3321 26.6372 38.5374 26.862C38.7427 27.0868 38.8566 27.3803 38.8566 27.6847C38.8566 27.9892 38.7427 28.2826 38.5374 28.5075C38.3321 28.7323 38.0502 28.8722 37.7469 28.8997Z" fill="#4C4C4C"/>
<path d="M45.6766 28.8997H41.4866C41.1834 28.8722 40.9014 28.7323 40.6961 28.5075C40.4908 28.2826 40.377 27.9892 40.377 27.6847C40.377 27.3803 40.4908 27.0868 40.6961 26.862C40.9014 26.6372 41.1834 26.4973 41.4866 26.4697H45.6766C45.9799 26.4973 46.2618 26.6372 46.4671 26.862C46.6724 27.0868 46.7863 27.3803 46.7863 27.6847C46.7863 27.9892 46.6724 28.2826 46.4671 28.5075C46.2618 28.7323 45.9799 28.8722 45.6766 28.8997Z" fill="#4C4C4C"/>
<path d="M4.67649 22.1L0.776461 20.57C0.627016 20.5136 0.490338 20.428 0.374423 20.3181C0.258508 20.2082 0.165678 20.0763 0.101413 19.93C0.0371474 19.7838 0.00272434 19.6262 0.000155228 19.4665C-0.00241389 19.3068 0.0269305 19.1482 0.0864589 19C0.204737 18.7016 0.435877 18.4618 0.729769 18.3326C1.02366 18.2034 1.35663 18.1953 1.65647 18.31L5.55649 19.84C5.85619 19.9567 6.0972 20.1877 6.2266 20.4821C6.356 20.7765 6.36319 21.1103 6.24649 21.41C6.1298 21.7097 5.89877 21.9507 5.60434 22.0801C5.30991 22.2095 4.97618 22.2167 4.67649 22.1Z" fill="#4C4C4C"/>
<path d="M12.067 25.0001L8.16709 23.4802C8.01764 23.4238 7.88096 23.3381 7.76505 23.2282C7.64913 23.1183 7.5563 22.9864 7.49204 22.8402C7.42777 22.694 7.39335 22.5364 7.39078 22.3767C7.38821 22.217 7.41756 22.0584 7.47708 21.9102C7.59536 21.6117 7.8265 21.3719 8.12039 21.2428C8.41429 21.1136 8.74725 21.1055 9.04709 21.2201L12.9471 22.7401C13.2467 22.8568 13.4878 23.0878 13.6172 23.3822C13.7466 23.6767 13.7538 24.0105 13.6371 24.3101C13.5204 24.6098 13.2894 24.8509 12.995 24.9803C12.7005 25.1097 12.3667 25.1168 12.067 25.0001Z" fill="#4C4C4C"/>
<path d="M19.4577 27.87L15.5577 26.34C15.4083 26.2836 15.2715 26.198 15.1556 26.0881C15.0397 25.9782 14.9469 25.8463 14.8827 25.7001C14.8184 25.5538 14.784 25.3962 14.7814 25.2365C14.7788 25.0768 14.8082 24.9182 14.8677 24.77C14.986 24.4716 15.2171 24.2318 15.511 24.1026C15.8049 23.9735 16.1379 23.9653 16.4377 24.08L20.3377 25.61C20.6374 25.7267 20.8784 25.9577 21.0078 26.2521C21.1372 26.5465 21.1444 26.8803 21.0277 27.18C20.911 27.4797 20.68 27.7208 20.3856 27.8502C20.0912 27.9796 19.7574 27.9867 19.4577 27.87Z" fill="#4C4C4C"/>
<path d="M66.3479 22.1002L70.248 20.5702C70.5477 20.4535 70.7887 20.2225 70.9181 19.9281C71.0475 19.6337 71.0547 19.2999 70.938 19.0002C70.8213 18.7005 70.5902 18.4594 70.2958 18.33C70.0014 18.2006 69.6676 18.1935 69.368 18.3102L65.4679 19.8402C65.3195 19.898 65.184 19.9844 65.069 20.0946C64.954 20.2048 64.8618 20.3365 64.7978 20.4823C64.7337 20.6281 64.699 20.785 64.6956 20.9443C64.6922 21.1035 64.7201 21.2618 64.7779 21.4102C64.8357 21.5586 64.9221 21.6941 65.0323 21.8091C65.1425 21.9241 65.2742 22.0163 65.42 22.0803C65.5658 22.1444 65.7228 22.1791 65.882 22.1825C66.0412 22.186 66.1995 22.158 66.3479 22.1002Z" fill="#4C4C4C"/>
<path d="M58.9573 24.9998L62.8573 23.4799C63.157 23.3632 63.3981 23.1322 63.5275 22.8378C63.6569 22.5433 63.664 22.2095 63.5473 21.9099C63.4306 21.6102 63.1997 21.3691 62.9052 21.2397C62.6108 21.1103 62.277 21.1032 61.9773 21.2198L58.0773 22.7398C57.9289 22.7976 57.7934 22.8841 57.6784 22.9942C57.5634 23.1044 57.4712 23.2362 57.4071 23.3819C57.3431 23.5277 57.3084 23.6847 57.305 23.8439C57.3016 24.0031 57.3295 24.1615 57.3873 24.3098C57.4451 24.4582 57.5315 24.5938 57.6417 24.7088C57.7519 24.8238 57.8836 24.9159 58.0294 24.98C58.1752 25.0441 58.3322 25.0788 58.4914 25.0822C58.6506 25.0856 58.8089 25.0576 58.9573 24.9998Z" fill="#4C4C4C"/>
<path d="M51.5667 27.8697L55.4667 26.3397C55.7664 26.223 56.0074 25.992 56.1368 25.6976C56.2662 25.4032 56.2734 25.0694 56.1567 24.7697C56.04 24.47 55.809 24.229 55.5146 24.0996C55.2202 23.9702 54.8864 23.963 54.5867 24.0797L50.6867 25.6097C50.387 25.7264 50.1459 25.9574 50.0165 26.2518C49.8871 26.5462 49.88 26.88 49.9967 27.1797C50.1134 27.4794 50.3444 27.7205 50.6388 27.8499C50.9332 27.9793 51.267 27.9864 51.5667 27.8697Z" fill="#4C4C4C"/>
</g>
<defs>
<clipPath id="clip0_4138_192">
<rect width="71" height="32" fill="white"/>
</clipPath>
</defs>
</svg>
