<svg xmlns="http://www.w3.org/2000/svg" viewBox="0 0 51 45"><defs><style>.cls-1{fill:#fff;}</style></defs><g id="Слой_2" data-name="Слой 2"><g id="Слой_1-2" data-name="Слой 1"><path class="cls-1" d="M45.23,13.11a3.82,3.82,0,0,0,1-2.58v-.8a4.39,4.39,0,0,0-4.63-4.09A4.38,4.38,0,0,0,37,9.73v.8a3.82,3.82,0,0,0,1,2.58,8.26,8.26,0,0,0-2.24.89v-.64c0-2.65-2.44-4.81-5.45-4.81h-.64a4.42,4.42,0,0,0,1.23-3V4.8C31,2.15,28.51,0,25.51,0s-5.44,2.15-5.44,4.8v.71a4.43,4.43,0,0,0,1.24,3h-.64c-3,0-5.46,2.16-5.46,4.81V14A8,8,0,0,0,13,13.11a3.82,3.82,0,0,0,1-2.58v-.8A4.38,4.38,0,0,0,9.36,5.64,4.39,4.39,0,0,0,4.73,9.73v.8a3.82,3.82,0,0,0,1,2.58A7.13,7.13,0,0,0,0,19.79V27a3,3,0,0,0,3.14,2.77H4V44.12A.94.94,0,0,0,5,45h8.77a.94.94,0,0,0,1-.88V29.76h.86A3,3,0,0,0,18.73,27a5.51,5.51,0,0,0,1,.24V44.12a.94.94,0,0,0,1,.88h9.56a.94.94,0,0,0,1-.88V35.6a1,1,0,0,0-2,0v7.64H26.51V28.42a1,1,0,0,0-2,0V43.24H21.73V24.57H29.3V28.8a1,1,0,0,0,2,0V27.24a6.09,6.09,0,0,0,1-.23,3,3,0,0,0,3.14,2.75h.86V44.12a.94.94,0,0,0,1,.88H46a.94.94,0,0,0,1-.88V29.76h.84A3,3,0,0,0,51,27v-7.2A7.13,7.13,0,0,0,45.23,13.11ZM6.72,9.73A2.5,2.5,0,0,1,9.36,7.4,2.5,2.5,0,0,1,12,9.73v.8a2.5,2.5,0,0,1-2.64,2.33,2.51,2.51,0,0,1-2.64-2.33Zm6,33.51H10.36V29.71a.94.94,0,0,0-1-.88.94.94,0,0,0-1,.88v.92a.59.59,0,0,0,0,.13V43.24H6v-17h6.77Zm4-16.25a1.09,1.09,0,0,1-1.15,1h-.85V23.32a.94.94,0,0,0-1-.88,1,1,0,0,0-1,.88v1.2H6v-4a1,1,0,0,0-1-.88.94.94,0,0,0-1,.88V28H3.14A1.1,1.1,0,0,1,2,27v-7.2c0-2.85,2.64-5.18,5.87-5.18h3a6.25,6.25,0,0,1,4.35,1.7h0v6.2a4.49,4.49,0,0,0,1.52,3.32V27ZM25.51,1.76A3.27,3.27,0,0,1,29,4.8v.71a3.27,3.27,0,0,1-3.45,3,3.26,3.26,0,0,1-3.44-3V4.8h0A3.26,3.26,0,0,1,25.51,1.76Zm8.31,20.75a3.14,3.14,0,0,1-2.53,2.94V13.36a.94.94,0,0,0-1-.87.93.93,0,0,0-1,.87v9.45H21.73V13.36a.94.94,0,0,0-1-.87.93.93,0,0,0-1,.87V25.45a3.15,3.15,0,0,1-2.53-2.94V13.36a3.27,3.27,0,0,1,3.45-3h3.82v2.4a1,1,0,0,0,2,0v-2.4h3.88a3.28,3.28,0,0,1,3.46,3ZM39,9.73a2.66,2.66,0,0,1,5.28,0v.8a2.66,2.66,0,0,1-5.28,0Zm6,33.51H42.65V30.76a.59.59,0,0,0,0-.13v-.92a1,1,0,0,0-2,0V43.24H38.26v-17H45ZM47.86,28H47V20.52a.93.93,0,0,0-1-.87.94.94,0,0,0-1,.87v4H38.26v-1.2a1,1,0,0,0-2,0V28h-.85a1.09,1.09,0,0,1-1.14-1V25.86a4.54,4.54,0,0,0,1.54-3.35V16.29a6.24,6.24,0,0,1,4.32-1.68h3c3.23,0,5.87,2.33,5.87,5.18V27h0A1.1,1.1,0,0,1,47.86,28Z"/><path class="cls-1" d="M31,31.52a1.09,1.09,0,0,0-1.41,0,.83.83,0,0,0-.29.62.81.81,0,0,0,.29.62,1.09,1.09,0,0,0,1.41,0,.85.85,0,0,0,.29-.62A.86.86,0,0,0,31,31.52Z"/><path class="cls-1" d="M26.18,15.38a1,1,0,0,0-.7-.26,1.07,1.07,0,0,0-.71.26.81.81,0,0,0,0,1.24,1.13,1.13,0,0,0,.71.26,1.08,1.08,0,0,0,.7-.26.79.79,0,0,0,0-1.24Z"/></g></g></svg>