<svg xmlns="http://www.w3.org/2000/svg" viewBox="0 0 45 45.02"><defs><style>.cls-1,.cls-2,.cls-3,.cls-4,.cls-5,.cls-6,.cls-7{fill:#fff;fill-rule:evenodd;}.cls-1{opacity:0.2;}.cls-2{opacity:0.7;}.cls-3{opacity:0.4;}.cls-4{opacity:0.8;}.cls-5{opacity:0.5;}.cls-6{opacity:0.6;}</style></defs><g id="Слой_2" data-name="Слой 2"><g id="Слой_1-2" data-name="Слой 1"><path class="cls-1" d="M34.53,15.9a5.43,5.43,0,1,0-5.42-5.43,5.42,5.42,0,0,0,5.42,5.43"/><path class="cls-2" d="M10.47,40a5.42,5.42,0,1,0-5.42-5.42A5.42,5.42,0,0,0,10.47,40"/><path class="cls-3" d="M39.58,27.93a5.42,5.42,0,1,0-5.42-5.42,5.42,5.42,0,0,0,5.42,5.42"/><path class="cls-4" d="M5.42,27.93A5.42,5.42,0,1,0,0,22.51a5.42,5.42,0,0,0,5.42,5.42"/><path class="cls-5" d="M34.53,40a5.42,5.42,0,1,0-5.42-5.42A5.42,5.42,0,0,0,34.53,40"/><path class="cls-4" d="M10.47,15.9a5.43,5.43,0,1,0-5.42-5.43,5.43,5.43,0,0,0,5.42,5.43"/><path class="cls-6" d="M22.5,45a5.42,5.42,0,1,0-5.42-5.42A5.42,5.42,0,0,0,22.5,45"/><path class="cls-7" d="M22.5,10.84a5.42,5.42,0,1,0-5.42-5.42,5.42,5.42,0,0,0,5.42,5.42"/></g></g></svg>