<svg xmlns="http://www.w3.org/2000/svg" viewBox="0 0 56.47 45"><defs><style>.cls-1{fill:#fff;}</style></defs><g id="Слой_2" data-name="Слой 2"><g id="Слой_1-2" data-name="Слой 1"><path class="cls-1" d="M55.59,32.67H.88a.88.88,0,0,0-.88.88v3.52A.89.89,0,0,0,.88,38H55.59a.88.88,0,0,0,.88-.89V33.55A.87.87,0,0,0,55.59,32.67Zm-.88,3.52H1.76V34.43h53Z"/><path class="cls-1" d="M40.59,39.71H15.88a.89.89,0,0,0-.88.88v3.53a.89.89,0,0,0,.88.88H40.59a.87.87,0,0,0,.88-.88V40.59A.88.88,0,0,0,40.59,39.71Zm-.88,3.53H16.76V41.48h23Z"/><path class="cls-1" d="M12.35,1H5.29a.89.89,0,0,0-.88.89v31.7a.88.88,0,0,0,.88.88h7.06a.88.88,0,0,0,.89-.88V1.85A.89.89,0,0,0,12.35,1Zm-.88,31.71H6.18V2.73h5.29Z"/><path class="cls-1" d="M19.41,1H12.35a.89.89,0,0,0-.88.89v31.7a.88.88,0,0,0,.88.88h7.06a.87.87,0,0,0,.88-.88V1.85A.88.88,0,0,0,19.41,1Zm-.88,31.71H13.24V2.73h5.29Z"/><path class="cls-1" d="M50.11,29.57,37.38.53A.88.88,0,0,0,36.22.07L29.75,2.9a.9.9,0,0,0-.47.49.87.87,0,0,0,0,.67L42,33.11a.88.88,0,0,0,.81.52.84.84,0,0,0,.35-.07l6.47-2.82a.94.94,0,0,0,.47-.49A.89.89,0,0,0,50.11,29.57Zm-6.82,2-12-27.43L36.12,2l12,27.43Z"/><path class="cls-1" d="M30,1H19.41a.88.88,0,0,0-.88.89v31.7a.87.87,0,0,0,.88.88H30a.87.87,0,0,0,.88-.88V1.85A.88.88,0,0,0,30,1Zm-.88,31.71H20.29V2.73h8.83Z"/><path class="cls-1" d="M9.71,8H7.94a.88.88,0,0,0,0,1.76H9.71A.88.88,0,1,0,9.71,8Z"/><path class="cls-1" d="M9.71,15.93H7.94a.89.89,0,0,0,0,1.77H9.71a.89.89,0,0,0,0-1.77Z"/><path class="cls-1" d="M9.71,21.22H7.94a.88.88,0,1,0,0,1.76H9.71a.88.88,0,0,0,0-1.76Z"/><path class="cls-1" d="M26.47,13.29H22.94a.89.89,0,0,0,0,1.77h3.53a.89.89,0,0,0,0-1.77Z"/><path class="cls-1" d="M26.47,16.82H22.94a.88.88,0,1,0,0,1.76h3.53a.88.88,0,0,0,0-1.76Z"/><path class="cls-1" d="M26.47,24.74H22.94a.89.89,0,0,0,0,1.77h3.53a.89.89,0,0,0,0-1.77Z"/><path class="cls-1" d="M16.76,10.65H15a.89.89,0,0,0,0,1.77h1.76a.89.89,0,1,0,0-1.77Z"/><path class="cls-1" d="M39.63,14.7,36.1,6.77a.89.89,0,0,0-1.16-.45.88.88,0,0,0-.45,1.17L38,15.41a.88.88,0,0,0,.8.53.9.9,0,0,0,.36-.08A.87.87,0,0,0,39.63,14.7Z"/></g></g></svg>