<svg xmlns="http://www.w3.org/2000/svg" viewBox="0 0 49.09 45"><defs><style>.cls-1{fill:#fff;}</style></defs><g id="Слой_2" data-name="Слой 2"><g id="Слой_1-2" data-name="Слой 1"><path class="cls-1" d="M45.09,42.12h0V13.06H36.8V42.12H34.15V25.4H25.87V42.12H23.22V20.7H14.93V42.12H12.28V31.74H4V42.12H0V45H49.09V42.12Zm-35.68,0H6.88v-7.5H9.41Zm10.93,0H17.81V23.58h2.53Zm10.94,0H28.75V28.28h2.53Zm10.93,0H39.68V15.94h2.53V42.12Z"/><path class="cls-1" d="M41,0a4.76,4.76,0,0,0-4.76,4.76,4.7,4.7,0,0,0,.67,2.44l-4.92,5.55A4.75,4.75,0,0,0,26.41,14l-2.6-1.12a3.59,3.59,0,0,0,0-.47,4.77,4.77,0,1,0-9,2.23L10.3,19.2a4.76,4.76,0,1,0,2.6,4.24,4.81,4.81,0,0,0-.55-2.23l4.57-4.57a4.62,4.62,0,0,0,2.16.52,4.76,4.76,0,0,0,3.59-1.64l2.6,1.11c0,.16,0,.32,0,.47a4.76,4.76,0,1,0,9.52,0,4.83,4.83,0,0,0-.67-2.44L39,9.11A4.81,4.81,0,0,0,41,9.52,4.76,4.76,0,0,0,41,0ZM8.14,25.32A1.89,1.89,0,1,1,10,23.44,1.88,1.88,0,0,1,8.14,25.32Zm10.94-11A1.89,1.89,0,1,1,21,12.4,1.89,1.89,0,0,1,19.08,14.29ZM30,19A1.89,1.89,0,1,1,31.9,17.1,1.89,1.89,0,0,1,30,19ZM41,6.65a1.89,1.89,0,1,1,1.88-1.89A1.89,1.89,0,0,1,41,6.65Z"/></g></g></svg>