<svg xmlns="http://www.w3.org/2000/svg" viewBox="0 0 45 45"><defs><style>.cls-1{fill:#fff;}</style></defs><g id="Слой_2" data-name="Слой 2"><g id="Слой_1-2" data-name="Слой 1"><path class="cls-1" d="M44.43,6.29a.39.39,0,0,0-.1-.08l-.47-.31.72-.72a.7.7,0,0,0,.19-.47.68.68,0,0,0-.19-.47L40.76.42a.66.66,0,0,0-.94,0l-.72.72L38.79.67a.39.39,0,0,0-.08-.1A1.93,1.93,0,0,0,37.34,0,1.9,1.9,0,0,0,36,.57a1.93,1.93,0,0,0,0,2.74.39.39,0,0,0,.1.08l.7.46-.44.39-.47-.67-.07-.08a1.93,1.93,0,0,0-1.37-.57,1.9,1.9,0,0,0-1.37.57,1.93,1.93,0,0,0,0,2.74l.09.07.47.32-.23.2a1.28,1.28,0,0,0-.44.9,1,1,0,0,0,.27.72h0L26.66,15a11.12,11.12,0,0,0-2.84-1.38.65.65,0,0,0-.82.43.66.66,0,0,0,.42.83A9.63,9.63,0,0,1,25.7,16l-8.29,8.29a.66.66,0,0,0,0,.93l2.39,2.39a.66.66,0,0,0,.93,0l8.35-8.34a8.28,8.28,0,0,1,1.51,4.36,5.59,5.59,0,0,1-.84,3.14.35.35,0,0,0-.05.08,7.16,7.16,0,0,1-1.36,1.53,8.88,8.88,0,0,1-1.48,1.12l-.12.07h0l-.18.11A5,5,0,0,0,22,30.91c-1.51,1.5-1.76,4-.68,6.31a8.52,8.52,0,0,1-1.68,3.36.66.66,0,1,0,1,.84,9.87,9.87,0,0,0,2-4.12.61.61,0,0,0-.05-.44c-.95-1.91-.83-3.88.32-5A3.78,3.78,0,0,1,26.52,31a.68.68,0,0,0,.42-.05l7.89,7.89a.66.66,0,0,0,.47.19.62.62,0,0,0,.46-.19l1.5-1.49a.68.68,0,0,0,.19-.47.37.37,0,0,0,0-.11l.05-.19a5.15,5.15,0,0,0-1.66-4.82L31.1,27a6.94,6.94,0,0,0,.81-3.45A9.7,9.7,0,0,0,30,18.29l4.51-4.5a.66.66,0,0,0-.93-.93L32.14,11.4l2-2,1.45,1.46,0,0a.65.65,0,0,0,0,.93.63.63,0,0,0,.46.19.66.66,0,0,0,.47-.19l0,0h0a1,1,0,0,0,.68.28h0a1.25,1.25,0,0,0,.9-.45l.2-.22.32.47.07.09a1.93,1.93,0,0,0,1.37.57A1.9,1.9,0,0,0,41.51,12a1.93,1.93,0,0,0,0-2.74.27.27,0,0,0-.08-.07l-.68-.48.39-.45.47.72.08.1a1.93,1.93,0,0,0,1.37.57A1.9,1.9,0,0,0,44.43,9,1.93,1.93,0,0,0,44.43,6.29ZM35.3,37.44l-7.2-7.2.62-.49,7.14,7.13Zm-.4-4.75a4.61,4.61,0,0,1,1.4,2.77l-6.59-6.59a7.29,7.29,0,0,0,.65-.72ZM20.27,26.18l-1.46-1.45,4.8-4.8,1.45,1.46ZM26,20.45,24.54,19l1.6-1.6,1.46,1.45Zm2.54-2.53-1.46-1.45,1.61-1.6,1.45,1.45Zm4.14-4.13-1.61,1.6-1.45-1.46,1.6-1.6ZM36.9,1.5a.59.59,0,0,1,.44-.18.62.62,0,0,1,.39.14l.42.64-.65.65-.64-.42A.62.62,0,0,1,36.9,1.5Zm-3,3.76a.63.63,0,0,1,0-.84.6.6,0,0,1,.44-.18.59.59,0,0,1,.4.15l.51.72-.7.61Zm3.34,5.38L34.36,7.72,38,4.57,40.41,7h0Zm3.3.38a.62.62,0,0,1-.84,0l-.47-.69.61-.7.73.52A.62.62,0,0,1,40.58,11Zm1-4.7L38.67,3.44l1.62-1.62,2.89,2.89ZM43.5,8.1a.6.6,0,0,1-.44.18.62.62,0,0,1-.39-.14l-.42-.64.66-.65.63.41A.63.63,0,0,1,43.5,8.1Z"/><path class="cls-1" d="M20.82,13.23A6.91,6.91,0,0,0,18,14L10.67,6.6a.66.66,0,0,0-.93.94l1.73,1.73-.68.68-.35-.35A.68.68,0,0,0,10,9.41a.66.66,0,0,0-.46.19L8,11.09A.67.67,0,0,0,8,12l6,6a.64.64,0,0,0-.06.43A3.79,3.79,0,0,1,13.16,22c-1.15,1.14-3.12,1.27-5,.32a.62.62,0,0,0-.46-.05A9.67,9.67,0,0,0,.53,28.82,12.1,12.1,0,0,0,2.76,40l-.73.9a1.46,1.46,0,0,0,.13,2,1.46,1.46,0,0,0,2,.13l.9-.73A12.54,12.54,0,0,0,11.65,45c.36,0,.72,0,1.08,0a10.67,10.67,0,0,0,5.7-1.6.65.65,0,0,0,.2-.91.64.64,0,0,0-.9-.2,9.57,9.57,0,0,1-6,1.35,11.18,11.18,0,0,1-5.69-2.27L10.6,37.7a.64.64,0,0,0,.05-1L8.27,34.34a.65.65,0,0,0-1,0L3.62,38.91a10.72,10.72,0,0,1-1.83-9.68,8.33,8.33,0,0,1,6-5.6c2.35,1.09,4.81.84,6.32-.67a5,5,0,0,0,1.24-4.48,1.57,1.57,0,0,0,.12-.21h0v0a7.9,7.9,0,0,1,1.33-1.72,5.74,5.74,0,0,1,4.08-2,.65.65,0,0,0,.63-.69A.66.66,0,0,0,20.82,13.23ZM3.06,41.69l4.79-5.9L9.2,37.14,3.3,41.93a.18.18,0,0,1-.24-.24ZM12.41,10.2,14,11.74l-.68.69-1.55-1.55Zm-2.35.8h0Zm4.7,5.9L9.41,11.56,10,11l5.28,5.28C15,16.53,14.88,16.73,14.76,16.9Zm1.38-1.6L14.2,13.37l.68-.7,2,2A7.16,7.16,0,0,0,16.14,15.3Z"/><path class="cls-1" d="M14.3,25h0a1.75,1.75,0,0,0-1.25-.17,4.12,4.12,0,0,0-2.37,1.84,2.52,2.52,0,0,1-2,1.3,1.2,1.2,0,0,1-.89-.41.66.66,0,0,0-1.14.67,2.49,2.49,0,0,0,2,1.06h.13a3.71,3.71,0,0,0,3-1.85c.92-1.28,1.63-1.41,1.88-1.3a.69.69,0,0,0,.38.12.67.67,0,0,0,.66-.66A.65.65,0,0,0,14.3,25Z"/><path class="cls-1" d="M20,30.69h0a.66.66,0,0,0-1.25.3.72.72,0,0,0,.12.39v0a0,0,0,0,0,0,0h0c.11.26,0,.95-1.31,1.86a3.64,3.64,0,0,0-1.84,3.12,2.49,2.49,0,0,0,1.05,2,.69.69,0,0,0,.34.09.68.68,0,0,0,.57-.33.67.67,0,0,0-.24-.9,1.27,1.27,0,0,1-.41-.89,2.49,2.49,0,0,1,1.3-2C21.05,32.38,20.07,30.76,20,30.69Z"/><path class="cls-1" d="M18.9,31.36v0h0A0,0,0,0,1,18.9,31.36Z"/><path class="cls-1" d="M17.06,31.27l-3.34-3.34a.66.66,0,1,0-.93.93l3.34,3.34a.67.67,0,0,0,.47.2.63.63,0,0,0,.46-.2A.65.65,0,0,0,17.06,31.27Z"/></g></g></svg>