<svg xmlns="http://www.w3.org/2000/svg" viewBox="0 0 35.62 45"><defs><style>.cls-1{fill:#fff;}</style></defs><g id="Слой_2" data-name="Слой 2"><g id="Слой_1-2" data-name="Слой 1"><path class="cls-1" d="M33.09,2.53a8.62,8.62,0,0,0-11.2-.86L21.22,1,19.35,2.86l.67.67a8.64,8.64,0,0,0-1.66,5.21L3.28,25.32,5.86,27.9l-4.05,4a6.19,6.19,0,0,0,0,8.75,6.2,6.2,0,0,0,8.75,0l6.92-6.93a3.55,3.55,0,1,1,5,5l-4.37,4.36L20,45l4.36-4.36a6.2,6.2,0,0,0,0-8.75,6.18,6.18,0,0,0-8.74,0L8.69,38.82a3.54,3.54,0,1,1-5-5l4-4.05,2.58,2.58L26.88,17.26H27a8.68,8.68,0,0,0,5.1-1.66l.66.67,1.87-1.87L34,13.73A8.63,8.63,0,0,0,33.09,2.53ZM10.39,28.69,6.93,25.23,19,11.94a8.67,8.67,0,0,0,4.66,4.66ZM27,14.62a6,6,0,0,1-5.07-9.19l8.27,8.27A6,6,0,0,1,27,14.62Zm5.06-2.79L23.79,3.57A6,6,0,0,1,33,8.63,5.89,5.89,0,0,1,32.05,11.83Z"/></g></g></svg>