<svg xmlns="http://www.w3.org/2000/svg" viewBox="0 0 45 45"><defs><style>.cls-1{fill:#fff;}</style></defs><g id="Слой_2" data-name="Слой 2"><g id="Слой_1-2" data-name="Слой 1"><rect class="cls-1" x="12.25" y="41.27" width="2.81" height="2.4" transform="translate(-13.7 7.23) rotate(-19.99)"/><rect class="cls-1" x="30.15" y="41.06" width="2.4" height="2.81" transform="translate(-19.28 57.41) rotate(-70.01)"/><path class="cls-1" d="M0,0V45H2.81V29.53H7.45L11,39.18l2.64-1L9.84,27.88V20.53A30.27,30.27,0,0,0,22.5,5.9,30.27,30.27,0,0,0,35.16,20.53v7.35L31.4,38.21l2.64,1,3.51-9.65h4.64V45H45V0ZM2.81,2.81H14.62A21.84,21.84,0,0,1,2.81,14.62ZM7,26.72H2.81V23.56A30.88,30.88,0,0,0,7,22ZM2.81,20.64v-3A24.74,24.74,0,0,0,17.66,2.81h3A27.59,27.59,0,0,1,2.81,20.64Zm39.38,6.08H38V22a30.88,30.88,0,0,0,4.22,1.56Zm0-6.08A27.59,27.59,0,0,1,24.36,2.81h2.77A24.75,24.75,0,0,0,42.19,17.74Zm0-5.94a21.87,21.87,0,0,1-12-11.89h12Z"/></g></g></svg>