<svg xmlns="http://www.w3.org/2000/svg" viewBox="0 0 53.58 45"><defs><style>.cls-1{fill:#fff;}</style></defs><g id="Слой_2" data-name="Слой 2"><g id="Слой_1-2" data-name="Слой 1"><path class="cls-1" d="M19.33,17.48a3.2,3.2,0,1,0,3.2,3.2A3.2,3.2,0,0,0,19.33,17.48Zm0,4.83A1.63,1.63,0,1,1,21,20.68,1.63,1.63,0,0,1,19.33,22.31Z"/><path class="cls-1" d="M27.67,17.48a3.2,3.2,0,1,0,3.2,3.2A3.21,3.21,0,0,0,27.67,17.48Zm0,4.83a1.63,1.63,0,1,1,1.64-1.63A1.63,1.63,0,0,1,27.67,22.31Z"/><path class="cls-1" d="M36,17.48a3.2,3.2,0,1,0,3.2,3.2A3.2,3.2,0,0,0,36,17.48Zm0,4.83a1.63,1.63,0,1,1,1.63-1.63A1.63,1.63,0,0,1,36,22.31Z"/><path class="cls-1" d="M19.33,25.29a3.2,3.2,0,1,0,3.2,3.2A3.2,3.2,0,0,0,19.33,25.29Zm0,4.83A1.63,1.63,0,1,1,21,28.49,1.63,1.63,0,0,1,19.33,30.12Z"/><path class="cls-1" d="M36,25.29a3.2,3.2,0,1,0,3.2,3.2A3.2,3.2,0,0,0,36,25.29Zm0,4.83a1.63,1.63,0,1,1,1.63-1.63A1.63,1.63,0,0,1,36,30.12Z"/><path class="cls-1" d="M27.67,25.29a3.2,3.2,0,1,0,3.2,3.2A3.21,3.21,0,0,0,27.67,25.29Zm0,4.83a1.63,1.63,0,1,1,1.64-1.63A1.63,1.63,0,0,1,27.67,30.12Z"/><path class="cls-1" d="M27.67,33.1a3.2,3.2,0,1,0,3.2,3.2A3.21,3.21,0,0,0,27.67,33.1Zm0,4.83a1.63,1.63,0,1,1,1.64-1.63A1.63,1.63,0,0,1,27.67,37.93Z"/><path class="cls-1" d="M19.33,33.1a3.2,3.2,0,1,0,3.2,3.2A3.2,3.2,0,0,0,19.33,33.1Zm0,4.83A1.63,1.63,0,1,1,21,36.3,1.63,1.63,0,0,1,19.33,37.93Z"/><path class="cls-1" d="M12.09,20.68l1.16-1.15a.79.79,0,0,0,0-1.11.78.78,0,0,0-1.11,0L11,19.57,9.83,18.42a.78.78,0,0,0-1.11,1.11l1.15,1.15L8.72,21.84a.79.79,0,0,0,.55,1.34A.82.82,0,0,0,9.83,23L11,21.79,12.13,23a.82.82,0,0,0,.56.23.79.79,0,0,0,.55-1.34Z"/><path class="cls-1" d="M12.09,28.49l1.16-1.15a.79.79,0,0,0,0-1.11.78.78,0,0,0-1.11,0L11,27.38,9.83,26.23a.78.78,0,0,0-1.11,1.11l1.15,1.15L8.72,29.65A.79.79,0,0,0,9.27,31a.82.82,0,0,0,.56-.23L11,29.6l1.15,1.16a.82.82,0,0,0,.56.23.79.79,0,0,0,.55-1.34Z"/><path class="cls-1" d="M13.24,37.45,12.09,36.3l1.15-1.15A.78.78,0,0,0,12.13,34L11,35.19,9.83,34a.78.78,0,0,0-1.11,1.11L9.87,36.3,8.72,37.45a.78.78,0,0,0,0,1.11.74.74,0,0,0,.55.23.78.78,0,0,0,.56-.23L11,37.41l1.15,1.15a.78.78,0,0,0,.56.23.74.74,0,0,0,.55-.23A.78.78,0,0,0,13.24,37.45Z"/><path class="cls-1" d="M53.53,39.79,51.39,28.53a.78.78,0,1,0-1.54.29L52,40.08a1.09,1.09,0,0,1-1.14,1.23H39.24l7.53-7.53a.79.79,0,0,0,.23-.56V13.83l2.15,11.33a.79.79,0,0,0,1.55-.3L47,5.39a2.19,2.19,0,0,0-2.19-2.08H37.94V.78a.79.79,0,0,0-1.57,0V3.31H31.11V.78a.79.79,0,0,0-1.57,0V3.31H24.29V.78A.79.79,0,0,0,23.5,0a.78.78,0,0,0-.78.78V3.31H17.46V.78a.79.79,0,0,0-1.57,0V3.31H10.63V.78A.78.78,0,0,0,9.85,0a.79.79,0,0,0-.79.78V3.31H2.19A2.19,2.19,0,0,0,0,5.49V42.81A2.19,2.19,0,0,0,2.19,45H21.67a.79.79,0,0,0,0-1.57H2.19a.62.62,0,0,1-.62-.62V13.5H45.43V32.44H36.62a2.19,2.19,0,0,0-2.18,2.18v8.81H25.33a.79.79,0,0,0,0,1.57h9.89a.8.8,0,0,0,.56-.23l1.89-1.89H50.85A2.65,2.65,0,0,0,53.53,39.79Zm-52-27.86V5.49a.61.61,0,0,1,.62-.61H9.06V8.4a.79.79,0,0,0,.79.79.78.78,0,0,0,.78-.79V4.88h5.26V8.4a.79.79,0,1,0,1.57,0V4.88h5.26V8.4a.78.78,0,0,0,.78.79.79.79,0,0,0,.79-.79V4.88h5.25V8.4a.79.79,0,1,0,1.57,0V4.88h5.26V8.4a.79.79,0,1,0,1.57,0V4.88h6.87a.61.61,0,0,1,.62.61v6.44ZM36,42.32v-7.7a.61.61,0,0,1,.61-.61h7.7Z"/></g></g></svg>