<svg xmlns="http://www.w3.org/2000/svg" viewBox="0 0 45 45"><defs><style>.cls-1{fill:#fff;}</style></defs><g id="Слой_2" data-name="Слой 2"><g id="Слой_1-2" data-name="Слой 1"><path class="cls-1" d="M22.83,25.53a.71.71,0,0,0-.77.66,37,37,0,0,1-4.12,15.18l0,.08s-.71,1.74-2,1.74a2.38,2.38,0,0,1-2-.84l-.13-.15s-2.16-1.92-1.43-6c.86-4.72-1.81-9-4.82-12.84C5.73,21,7,18,11.32,14.31c1.48-1.26,1.58-3.94.31-8.21a44.09,44.09,0,0,0-1.7-4.67h9.18a77.73,77.73,0,0,1,2.77,14.23.71.71,0,1,0,1.42-.14,78.16,78.16,0,0,0-3-15A.71.71,0,0,0,19.64,0H8.83a.75.75,0,0,0-.61.33.73.73,0,0,0,0,.69,44.35,44.35,0,0,1,2.09,5.5c1,3.51,1.08,5.88.13,6.7-5,4.24-6.33,7.94-4,11,2.81,3.62,5.31,7.54,4.55,11.72-.82,4.5,1.39,6.87,1.82,7.28a3.86,3.86,0,0,0,3.1,1.4c2.13,0,3.15-2.23,3.31-2.6a38.52,38.52,0,0,0,4.27-15.73A.71.71,0,0,0,22.83,25.53Z"/><path class="cls-1" d="M22.16,16.22,13,7.63l7.83-1.21A.71.71,0,1,0,20.61,5L11.32,6.44a.71.71,0,0,0-.38,1.22l10.24,9.6a.7.7,0,0,0,1,0A.72.72,0,0,0,22.16,16.22Z"/><path class="cls-1" d="M21.23,18.4a.72.72,0,0,0-.91-.45l-4.66,1.56a.71.71,0,0,0-.46.9.72.72,0,0,0,.68.49.62.62,0,0,0,.23,0l4.67-1.56A.72.72,0,0,0,21.23,18.4Z"/><path class="cls-1" d="M21.48,35.32c-3.06-2.63-3.68-6.52-4.33-10.64-.24-1.52-.49-3.09-.88-4.6a12.76,12.76,0,0,0-4.88-7,.71.71,0,0,0-.93.05l-.06.07c-5,4.24-6.33,7.94-4,11,2.81,3.62,5.31,7.55,4.55,11.72-.82,4.5,1.39,6.87,1.83,7.28a3.82,3.82,0,0,0,3.09,1.4c2.13,0,3.15-2.23,3.31-2.6a33.29,33.29,0,0,0,2.48-5.94A.72.72,0,0,0,21.48,35.32Zm-3.54,6,0,.08s-.72,1.74-2,1.74a2.38,2.38,0,0,1-2-.84l-.13-.15s-2.16-1.92-1.43-6c.86-4.72-1.81-9-4.82-12.84C5.78,21,6.89,18.17,11,14.6a11.08,11.08,0,0,1,3.91,5.83c.36,1.44.61,3,.85,4.47C16.38,29,17,33.13,20.2,36.09A31.3,31.3,0,0,1,17.94,41.37Z"/><path class="cls-1" d="M37.52,14.89A77.22,77.22,0,0,0,34.6.49.72.72,0,0,0,33.92,0H23.11a.73.73,0,0,0-.6.33.71.71,0,0,0,0,.69,45.23,45.23,0,0,1,2.08,5.5c1,3.51,1.09,5.88.13,6.7-5,4.24-6.33,7.94-3.95,11,2.81,3.62,5.3,7.54,4.55,11.72-.82,4.5,1.39,6.87,1.82,7.28a3.86,3.86,0,0,0,3.1,1.4c2.12,0,3.15-2.23,3.3-2.6C38.28,33.26,38.33,22.44,37.52,14.89ZM32.23,41.37l0,.08s-.71,1.74-2,1.74a2.38,2.38,0,0,1-2-.84.87.87,0,0,0-.13-.15s-2.16-1.92-1.42-6c.86-4.72-1.81-9-4.82-12.84C20,21,21.24,18,25.61,14.31c1.48-1.26,1.58-3.94.31-8.21a44.62,44.62,0,0,0-1.71-4.67h9.18C34.45,4.94,40.39,26.47,32.23,41.37Z"/><path class="cls-1" d="M37.63,17.34,27.27,7.63l7.84-1.21a.71.71,0,0,0,.6-.81.72.72,0,0,0-.82-.6L25.61,6.44a.7.7,0,0,0-.38,1.22l10.55,9.9-5.84,2a.71.71,0,0,0,.23,1.39.57.57,0,0,0,.22,0l7-2.32a.7.7,0,0,0,.47-.53A.72.72,0,0,0,37.63,17.34Z"/><path class="cls-1" d="M35.77,35.32c-3.06-2.63-3.68-6.52-4.34-10.64-.24-1.52-.49-3.09-.87-4.6a12.76,12.76,0,0,0-4.88-7,.73.73,0,0,0-.94.05l-.06.07c-5,4.24-6.33,7.94-3.95,11,2.81,3.62,5.3,7.55,4.55,11.72-.82,4.5,1.39,6.87,1.82,7.28a3.86,3.86,0,0,0,3.1,1.4c2.12,0,3.15-2.23,3.3-2.6A32.57,32.57,0,0,0,36,36.08.72.72,0,0,0,35.77,35.32Zm-3.54,6,0,.08s-.71,1.74-2,1.74a2.38,2.38,0,0,1-2-.84.87.87,0,0,0-.13-.15s-2.16-1.92-1.42-6c.86-4.72-1.81-9-4.82-12.84-1.8-2.32-.68-5.18,3.41-8.75a11.06,11.06,0,0,1,3.9,5.83c.37,1.44.61,3,.85,4.47.64,4.05,1.31,8.23,4.46,11.19A31.28,31.28,0,0,1,32.23,41.37Z"/><path class="cls-1" d="M36.43,43.57H8.57a.72.72,0,0,0,0,1.43H36.43a.72.72,0,0,0,0-1.43Z"/><path class="cls-1" d="M5.71,43.57h-5A.72.72,0,0,0,.71,45h5a.72.72,0,1,0,0-1.43Z"/><path class="cls-1" d="M44.29,43.57h-5a.72.72,0,1,0,0,1.43h5a.72.72,0,0,0,0-1.43Z"/></g></g></svg>