<svg xmlns="http://www.w3.org/2000/svg" viewBox="0 0 45 45"><defs><style>.cls-1{fill:#fff;}</style></defs><g id="Слой_2" data-name="Слой 2"><g id="Слой_1-2" data-name="Слой 1"><path class="cls-1" d="M38.41,6.59A22.5,22.5,0,0,0,0,22.5a23.07,23.07,0,0,0,.52,4.84.67.67,0,0,0,.82.5h0a.68.68,0,0,0,.49-.8,20.91,20.91,0,0,1-.49-4.54c0-.43,0-.85,0-1.27l3.78-2.89L12.54,20l3.4,10.45L12.26,37l-5,.21A21.27,21.27,0,0,1,2.7,30a.66.66,0,0,0-.84-.4.67.67,0,0,0-.41.86,22.5,22.5,0,1,0,37-23.87Zm5,12.87-2.72-2.08L41.9,14A20.8,20.8,0,0,1,43.45,19.46ZM22.5,1.34a21.7,21.7,0,0,1,2.8.18l-2.8,2-2.79-2A21.43,21.43,0,0,1,22.5,1.34ZM1.56,19.41a21.51,21.51,0,0,1,1.5-5.31l1.16,3.28Zm4-2.36L3.89,12.41a21.33,21.33,0,0,1,14-10.57l4,2.88v7.51L12.9,18.72Zm8.32,2.64L22.5,13.4l3.35,2.43a.67.67,0,1,0,.79-1.08l-3.47-2.52V4.72l4-2.88a21,21,0,0,1,10.33,5.7,21.17,21.17,0,0,1,3.62,4.8l-1.65,4.71-7.34,1.66-2.94-2.13a.67.67,0,0,0-.79,1.08l2.8,2L27.85,29.86H17.15ZM8.66,38.51l3.54-.15,1.22,3.26A21.22,21.22,0,0,1,8.66,38.51ZM22.5,43.66a21,21,0,0,1-7.39-1.33l-1.72-4.61,3.67-6.52H27.89l3.66,6.52-1.74,4.65A21.1,21.1,0,0,1,22.5,43.66Zm9-2,1.23-3.3,3.6.15A21,21,0,0,1,31.51,41.66Zm6.18-4.43-5-.21L29,30.53,32.46,20l7.32-1.65,3.85,2.94c0,.4,0,.81,0,1.22A21,21,0,0,1,37.69,37.23Z"/></g></g></svg>