<svg xmlns="http://www.w3.org/2000/svg" viewBox="0 0 45 45"><defs><style>.cls-1{fill:#fff;}</style></defs><g id="Слой_2" data-name="Слой 2"><g id="Слой_1-2" data-name="Слой 1"><path class="cls-1" d="M4.39,29H40.61a.87.87,0,0,0,.87-.88V11.43a.87.87,0,0,0-.87-.88H4.39a.87.87,0,0,0-.87.88V28.12A.87.87,0,0,0,4.39,29Zm20.67-1.75-3.73-3.74,3.94-3.94L33,27.25ZM5.27,12.3H39.73v15h-4.3L25.89,17.7a.88.88,0,0,0-1.24,0l-4.57,4.57L14.42,16.6a.89.89,0,0,0-1.15-.08l-8,6Zm0,12.44,8.45-6.35,8.86,8.86H5.27Z"/><path class="cls-1" d="M35.07,19.86a3,3,0,1,0-3-3A3,3,0,0,0,35.07,19.86Zm0-4.22a1.24,1.24,0,1,1-1.23,1.24A1.24,1.24,0,0,1,35.07,15.64Z"/><path class="cls-1" d="M44.12,7H28.65V4.39a.87.87,0,0,0-.88-.87H25.14V.88A.88.88,0,0,0,24.26,0H20.74a.88.88,0,0,0-.88.88V3.52H17.23a.87.87,0,0,0-.88.87V7H.88A.87.87,0,0,0,0,7.91V31.64a.87.87,0,0,0,.88.88H8.44V35L5.78,43.24H4.39a.88.88,0,0,0,0,1.76H18.81a.88.88,0,1,0,0-1.76h-6.7L14.44,36h5.42v2.63a.88.88,0,0,0,.88.88h3.52a.88.88,0,0,0,.88-.88V36h5.42l2.33,7.2h-6.7a.88.88,0,0,0,0,1.76H40.61a.88.88,0,0,0,0-1.76H39.22L36.56,35v-2.5h7.56a.87.87,0,0,0,.88-.88V7.91A.87.87,0,0,0,44.12,7ZM21.62,1.76h1.76V3.52H21.62ZM18.11,5.27h8.78V7H18.11Zm-7.85,38H7.62L10,36h2.63Zm13.12-5.45H21.62V36h1.76ZM10.2,34.28V32.52H34.8v1.76Zm27.18,9H34.74L32.41,36H35Zm5.86-12.48H1.76v-22H43.24Z"/><path class="cls-1" d="M.88,43.24a.88.88,0,1,0,.88.88A.89.89,0,0,0,.88,43.24Z"/><path class="cls-1" d="M44.12,43.24a.88.88,0,0,0,0,1.76.88.88,0,0,0,0-1.76Z"/></g></g></svg>