<svg width="71" height="32" viewBox="0 0 71 32" fill="none" xmlns="http://www.w3.org/2000/svg">
<g clip-path="url(#clip0_4138_108)">
<path d="M56.6004 11.3549H14.9504C13.9426 11.3549 12.976 10.9545 12.2634 10.2419C11.5508 9.52925 11.1504 8.5627 11.1504 7.55488C11.1504 6.54706 11.5508 5.58051 12.2634 4.86787C12.976 4.15524 13.9426 3.75488 14.9504 3.75488H56.6004C57.6082 3.75488 58.5748 4.15524 59.2874 4.86787C60 5.58051 60.4004 6.54706 60.4004 7.55488C60.4004 8.5627 60 9.52925 59.2874 10.2419C58.5748 10.9545 57.6082 11.3549 56.6004 11.3549Z" fill="#4C4C4C"/>
<path d="M26.2096 2.43488H22.0296C21.7264 2.40735 21.4444 2.26743 21.2391 2.04262C21.0338 1.81781 20.9199 1.52435 20.9199 1.21988C20.9199 0.915421 21.0338 0.621961 21.2391 0.397148C21.4444 0.172336 21.7264 0.0324193 22.0296 0.00488281H26.2196C26.5228 0.0324193 26.8048 0.172336 27.0101 0.397148C27.2154 0.621961 27.3292 0.915421 27.3292 1.21988C27.3292 1.52435 27.2154 1.81781 27.0101 2.04262C26.8048 2.26743 26.5228 2.40735 26.2196 2.43488" fill="#4C4C4C"/>
<path d="M34.1395 2.43488H29.9495C29.6463 2.40735 29.3643 2.26743 29.159 2.04262C28.9537 1.81781 28.8398 1.52435 28.8398 1.21988C28.8398 0.915421 28.9537 0.621961 29.159 0.397148C29.3643 0.172336 29.6463 0.0324193 29.9495 0.00488281H34.1395C34.4427 0.0324193 34.7247 0.172336 34.93 0.397148C35.1353 0.621961 35.2492 0.915421 35.2492 1.21988C35.2492 1.52435 35.1353 1.81781 34.93 2.04262C34.7247 2.26743 34.4427 2.40735 34.1395 2.43488Z" fill="#4C4C4C"/>
<path d="M42.0299 2.435H37.8499C37.6811 2.45033 37.5109 2.43031 37.3502 2.37622C37.1896 2.32213 37.042 2.23515 36.9168 2.12084C36.7916 2.00652 36.6917 1.86737 36.6233 1.71227C36.5549 1.55717 36.5195 1.38952 36.5195 1.22C36.5195 1.05049 36.5549 0.882828 36.6233 0.727725C36.6917 0.572623 36.7916 0.433476 36.9168 0.31916C37.042 0.204843 37.1896 0.117868 37.3502 0.0637771C37.5109 0.00968583 37.6811 -0.0103312 37.8499 0.00500027H42.0299C42.3331 0.0325367 42.6151 0.172453 42.8204 0.397266C43.0257 0.622078 43.1395 0.915538 43.1395 1.22C43.1395 1.52446 43.0257 1.81792 42.8204 2.04274C42.6151 2.26755 42.3331 2.40746 42.0299 2.435Z" fill="#4C4C4C"/>
<path d="M50.0301 2.43488H45.8401C45.5369 2.40735 45.2549 2.26743 45.0496 2.04262C44.8443 1.81781 44.7305 1.52435 44.7305 1.21988C44.7305 0.915421 44.8443 0.621961 45.0496 0.397148C45.2549 0.172336 45.5369 0.0324193 45.8401 0.00488281H50.0301C50.3333 0.0324193 50.6153 0.172336 50.8206 0.397148C51.0259 0.621961 51.1398 0.915421 51.1398 1.21988C51.1398 1.52435 51.0259 1.81781 50.8206 2.04262C50.6153 2.26743 50.3333 2.40735 50.0301 2.43488Z" fill="#4C4C4C"/>
<path d="M7.51033 25.685H3.33034C3.16152 25.7003 2.99136 25.6803 2.8307 25.6262C2.67005 25.5721 2.52243 25.4852 2.39726 25.3708C2.27209 25.2565 2.17211 25.1174 2.10371 24.9623C2.03531 24.8072 2 24.6395 2 24.47C2 24.3005 2.03531 24.1328 2.10371 23.9777C2.17211 23.8226 2.27209 23.6835 2.39726 23.5692C2.52243 23.4548 2.67005 23.3679 2.8307 23.3138C2.99136 23.2597 3.16152 23.2397 3.33034 23.255H7.51033C7.81354 23.2825 8.09551 23.4225 8.30083 23.6473C8.50615 23.8721 8.62 24.1655 8.62 24.47C8.62 24.7745 8.50615 25.0679 8.30083 25.2927C8.09551 25.5175 7.81354 25.6575 7.51033 25.685Z" fill="#4C4C4C"/>
<path d="M15.45 25.6849H11.26C10.9568 25.6573 10.6749 25.5174 10.4695 25.2926C10.2642 25.0678 10.1504 24.7743 10.1504 24.4699C10.1504 24.1654 10.2642 23.872 10.4695 23.6471C10.6749 23.4223 10.9568 23.2824 11.26 23.2549H15.45C15.7533 23.2824 16.0352 23.4223 16.2405 23.6471C16.4459 23.872 16.5597 24.1654 16.5597 24.4699C16.5597 24.7743 16.4459 25.0678 16.2405 25.2926C16.0352 25.5174 15.7533 25.6573 15.45 25.6849Z" fill="#4C4C4C"/>
<path d="M23.3797 25.6849H19.1897C18.8865 25.6573 18.6046 25.5174 18.3992 25.2926C18.1939 25.0678 18.0801 24.7743 18.0801 24.4699C18.0801 24.1654 18.1939 23.872 18.3992 23.6471C18.6046 23.4223 18.8865 23.2824 19.1897 23.2549H23.3797C23.683 23.2824 23.9649 23.4223 24.1702 23.6471C24.3756 23.872 24.4894 24.1654 24.4894 24.4699C24.4894 24.7743 24.3756 25.0678 24.1702 25.2926C23.9649 25.5174 23.683 25.6573 23.3797 25.6849Z" fill="#4C4C4C"/>
<path d="M31.3092 25.685H27.1292C26.9604 25.7003 26.7902 25.6803 26.6295 25.6262C26.4689 25.5721 26.3213 25.4852 26.1961 25.3708C26.0709 25.2565 25.971 25.1174 25.9026 24.9623C25.8342 24.8072 25.7988 24.6395 25.7988 24.47C25.7988 24.3005 25.8342 24.1328 25.9026 23.9777C25.971 23.8226 26.0709 23.6835 26.1961 23.5692C26.3213 23.4548 26.4689 23.3679 26.6295 23.3138C26.7902 23.2597 26.9604 23.2397 27.1292 23.255H31.3092C31.6124 23.2825 31.8943 23.4225 32.0997 23.6473C32.305 23.8721 32.4188 24.1655 32.4188 24.47C32.4188 24.7745 32.305 25.0679 32.0997 25.2927C31.8943 25.5175 31.6124 25.6575 31.3092 25.685Z" fill="#4C4C4C"/>
<path d="M44.4207 25.6849H40.2307C39.9275 25.6573 39.6456 25.5174 39.4402 25.2926C39.2349 25.0678 39.1211 24.7743 39.1211 24.4699C39.1211 24.1654 39.2349 23.872 39.4402 23.6471C39.6456 23.4223 39.9275 23.2824 40.2307 23.2549H44.4207C44.724 23.2824 45.0059 23.4223 45.2112 23.6471C45.4166 23.872 45.5304 24.1654 45.5304 24.4699C45.5304 24.7743 45.4166 25.0678 45.2112 25.2926C45.0059 25.5174 44.724 25.6573 44.4207 25.6849Z" fill="#4C4C4C"/>
<path d="M52.3502 25.685H48.1702C47.867 25.6575 47.585 25.5175 47.3797 25.2927C47.1744 25.0679 47.0605 24.7745 47.0605 24.47C47.0605 24.1655 47.1744 23.8721 47.3797 23.6473C47.585 23.4225 47.867 23.2825 48.1702 23.255H52.3502C52.519 23.2397 52.6892 23.2597 52.8499 23.3138C53.0105 23.3679 53.1581 23.4548 53.2833 23.5692C53.4085 23.6835 53.5084 23.8226 53.5768 23.9777C53.6452 24.1328 53.6806 24.3005 53.6806 24.47C53.6806 24.6395 53.6452 24.8072 53.5768 24.9623C53.5084 25.1174 53.4085 25.2565 53.2833 25.3708C53.1581 25.4852 53.0105 25.5721 52.8499 25.6262C52.6892 25.6803 52.519 25.7003 52.3502 25.685Z" fill="#4C4C4C"/>
<path d="M60.2899 25.6849H56.0999C55.7967 25.6573 55.5147 25.5174 55.3094 25.2926C55.1041 25.0678 54.9902 24.7743 54.9902 24.4699C54.9902 24.1654 55.1041 23.872 55.3094 23.6471C55.5147 23.4223 55.7967 23.2824 56.0999 23.2549H60.2899C60.5931 23.2824 60.8751 23.4223 61.0804 23.6471C61.2857 23.872 61.3996 24.1654 61.3996 24.4699C61.3996 24.7743 61.2857 25.0678 61.0804 25.2926C60.8751 25.5174 60.5931 25.6573 60.2899 25.6849Z" fill="#4C4C4C"/>
<path d="M68.2196 25.6849H64.0296C63.7264 25.6573 63.4444 25.5174 63.2391 25.2926C63.0338 25.0678 62.9199 24.7743 62.9199 24.4699C62.9199 24.1654 63.0338 23.872 63.2391 23.6471C63.4444 23.4223 63.7264 23.2824 64.0296 23.2549H68.2196C68.5228 23.2824 68.8048 23.4223 69.0101 23.6471C69.2154 23.872 69.3292 24.1654 69.3292 24.4699C69.3292 24.7743 69.2154 25.0678 69.0101 25.2926C68.8048 25.5174 68.5228 25.6573 68.2196 25.6849Z" fill="#4C4C4C"/>
<path d="M14.9294 22.2046H3.83937C3.38227 22.2046 2.94375 22.0237 2.6196 21.7014C2.29545 21.3791 2.11202 20.9417 2.10938 20.4846V20.4046C2.11202 19.9475 2.29545 19.51 2.6196 19.1877C2.94375 18.8655 3.38227 18.6846 3.83937 18.6846H14.9294C15.3865 18.6846 15.825 18.8655 16.1491 19.1877C16.4733 19.51 16.6567 19.9475 16.6594 20.4046V20.4846C16.6567 20.9417 16.4733 21.3791 16.1491 21.7014C15.825 22.0237 15.3865 22.2046 14.9294 22.2046Z" fill="#4C4C4C"/>
<path d="M30.7993 22.2046H19.6993C19.2527 22.1891 18.8294 22.0014 18.5181 21.6807C18.2068 21.3601 18.0316 20.9315 18.0293 20.4846V20.4046C18.0319 19.9492 18.214 19.5132 18.536 19.1912C18.858 18.8693 19.2939 18.6872 19.7493 18.6846H30.8493C31.3055 18.6846 31.743 18.8658 32.0655 19.1883C32.3881 19.5109 32.5693 19.9484 32.5693 20.4046V20.4846C32.5693 20.9407 32.3881 21.3782 32.0655 21.7008C31.743 22.0234 31.3055 22.2046 30.8493 22.2046" fill="#4C4C4C"/>
<path d="M51.8393 22.2046H40.7493C40.2939 22.2019 39.858 22.0199 39.536 21.6979C39.214 21.3759 39.0319 20.9399 39.0293 20.4846V20.4046C39.0319 19.9475 39.2154 19.51 39.5395 19.1877C39.8637 18.8655 40.3022 18.6846 40.7593 18.6846H51.8493C52.3064 18.6846 52.7449 18.8655 53.0691 19.1877C53.3932 19.51 53.5767 19.9475 53.5793 20.4046V20.4846C53.5767 20.9417 53.3932 21.3791 53.0691 21.7014C52.7449 22.0237 52.3064 22.2046 51.8493 22.2046" fill="#4C4C4C"/>
<path d="M67.7106 22.2046H56.6106C56.1545 22.2046 55.717 22.0234 55.3944 21.7008C55.0718 21.3782 54.8906 20.9407 54.8906 20.4846V20.4046C54.8906 19.9484 55.0718 19.5109 55.3944 19.1883C55.717 18.8658 56.1545 18.6846 56.6106 18.6846H67.7106C68.1668 18.6846 68.6043 18.8658 68.9268 19.1883C69.2494 19.5109 69.4306 19.9484 69.4306 20.4046V20.4846C69.4306 20.9407 69.2494 21.3782 68.9268 21.7008C68.6043 22.0234 68.1668 22.2046 67.7106 22.2046Z" fill="#4C4C4C"/>
<path d="M14.9294 31.6848H3.83937C3.38227 31.6848 2.94375 31.5039 2.6196 31.1816C2.29545 30.8593 2.11202 30.4219 2.10938 29.9648V29.8848C2.112 29.4268 2.2951 28.9883 2.61897 28.6644C2.94284 28.3405 3.38136 28.1574 3.83937 28.1548H14.9294C15.3874 28.1574 15.8259 28.3405 16.1498 28.6644C16.4736 28.9883 16.6568 29.4268 16.6594 29.8848V29.9648C16.6567 30.4219 16.4733 30.8593 16.1491 31.1816C15.825 31.5039 15.3865 31.6848 14.9294 31.6848Z" fill="#4C4C4C"/>
<path d="M30.7993 31.6848H19.6993C19.2527 31.6693 18.8294 31.4816 18.5181 31.1609C18.2068 30.8403 18.0316 30.4117 18.0293 29.9648V29.8848C18.0293 29.4277 18.2102 28.9892 18.5325 28.665C18.8547 28.3409 19.2922 28.1574 19.7493 28.1548H30.8493C31.3064 28.1574 31.7439 28.3409 32.0661 28.665C32.3884 28.9892 32.5693 29.4277 32.5693 29.8848V29.9648C32.5667 30.4201 32.3846 30.8561 32.0626 31.1781C31.7406 31.5001 31.3047 31.6822 30.8493 31.6848" fill="#4C4C4C"/>
<path d="M51.8393 31.6848H40.7493C40.2939 31.6822 39.858 31.5001 39.536 31.1781C39.214 30.8561 39.0319 30.4201 39.0293 29.9648V29.8848C39.0319 29.4268 39.215 28.9883 39.5389 28.6644C39.8628 28.3405 40.3013 28.1574 40.7593 28.1548H51.8493C52.3073 28.1574 52.7458 28.3405 53.0697 28.6644C53.3936 28.9883 53.5767 29.4268 53.5793 29.8848V29.9648C53.5767 30.4219 53.3932 30.8593 53.0691 31.1816C52.7449 31.5039 52.3064 31.6848 51.8493 31.6848" fill="#4C4C4C"/>
<path d="M67.7106 31.6848H56.6106C56.1553 31.6822 55.7193 31.5001 55.3973 31.1781C55.0753 30.8561 54.8932 30.4201 54.8906 29.9648V29.8848C54.8906 29.4277 55.0715 28.9892 55.3938 28.665C55.7161 28.3409 56.1535 28.1574 56.6106 28.1548H67.7106C68.1677 28.1574 68.6052 28.3409 68.9275 28.665C69.2497 28.9892 69.4306 29.4277 69.4306 29.8848V29.9648C69.428 30.4201 69.2459 30.8561 68.924 31.1781C68.602 31.5001 68.166 31.6822 67.7106 31.6848Z" fill="#4C4C4C"/>
</g>
<defs>
<clipPath id="clip0_4138_108">
<rect width="71" height="32" fill="white"/>
</clipPath>
</defs>
</svg>
