<svg width="71" height="32" viewBox="0 0 71 32" fill="none" xmlns="http://www.w3.org/2000/svg">
<path d="M10.9855 20.5112C9.7643 20.5112 8.59308 20.0261 7.72953 19.1625C6.86599 18.299 6.38086 17.1278 6.38086 15.9065V4.52148H15.5096V15.9411C15.5096 17.1623 15.0245 18.3335 14.1609 19.1971C13.2974 20.0606 12.1262 20.5457 10.9049 20.5457" fill="#4C4C4C"/>
<path d="M11.7467 18.543H10.4805V27.0386H11.7467V18.543Z" fill="#4C4C4C"/>
<path d="M11.1115 27.0385H6.66797L8.88971 25.7147L11.1115 24.4023L13.3332 25.7147L15.555 27.0385H11.1115Z" fill="#4C4C4C"/>
<path d="M23.6125 20.5002C22.3913 20.5002 21.22 20.0151 20.3565 19.1515C19.4929 18.288 19.0078 17.1167 19.0078 15.8955V4.52197H28.1366V15.9416C28.1366 17.1628 27.6514 18.334 26.7879 19.1976C25.9244 20.0611 24.7531 20.5462 23.5319 20.5462" fill="#4C4C4C"/>
<path d="M24.3737 18.543H23.1074V27.0386H24.3737V18.543Z" fill="#4C4C4C"/>
<path d="M23.7385 27.0388H19.2949L21.5167 25.715L23.7385 24.3911L25.9487 25.715L28.1705 27.0388H23.7385Z" fill="#4C4C4C"/>
<path d="M36.2297 20.5112C35.0084 20.5112 33.8372 20.0261 32.9737 19.1625C32.1101 18.299 31.625 17.1278 31.625 15.9065V4.52148H40.7538V15.9411C40.7538 17.1623 40.2686 18.3335 39.4051 19.1971C38.5415 20.0606 37.3703 20.5457 36.1491 20.5457" fill="#4C4C4C"/>
<path d="M36.9909 18.543H35.7246V27.0386H36.9909V18.543Z" fill="#4C4C4C"/>
<path d="M36.3557 27.0385H31.9121L34.1339 25.7147L36.3557 24.4023L38.5774 25.7147L40.7992 27.0385H36.3557Z" fill="#4C4C4C"/>
<path d="M48.8566 20.5002C47.6354 20.5002 46.4642 20.0151 45.6006 19.1515C44.7371 18.288 44.252 17.1167 44.252 15.8955V4.52197H53.3807V15.9416C53.3807 17.1628 52.8956 18.334 52.032 19.1976C51.1685 20.0611 49.9973 20.5462 48.776 20.5462" fill="#4C4C4C"/>
<path d="M49.5729 18.543H48.3066V27.0386H49.5729V18.543Z" fill="#4C4C4C"/>
<path d="M48.9376 27.0388H44.4941L46.7159 25.715L48.9376 24.3911L51.1479 25.715L53.3696 27.0388H48.9376Z" fill="#4C4C4C"/>
<path d="M61.4387 20.5112C60.2174 20.5112 59.0462 20.0261 58.1827 19.1625C57.3191 18.299 56.834 17.1278 56.834 15.9065V4.52148H65.9627V15.9411C65.9627 17.1623 65.4776 18.3335 64.6141 19.1971C63.7505 20.0606 62.5793 20.5457 61.3581 20.5457" fill="#4C4C4C"/>
<path d="M62.1862 18.543H60.9199V27.0386H62.1862V18.543Z" fill="#4C4C4C"/>
<path d="M61.5646 27.0385H57.1211L59.3428 25.7147L61.5646 24.4023L63.7749 25.7147L65.9966 27.0385H61.5646Z" fill="#4C4C4C"/>
</svg>
