<svg width="135" height="32" viewBox="0 0 135 32" fill="none" xmlns="http://www.w3.org/2000/svg">
<g clip-path="url(#clip0)">
<path d="M134.451 31.4267H0V23.8394H134.451V31.4267Z" fill="#FFB800"/>
<path d="M0.0625 13.2979V-0.000976562H5.89579C7.32605 -0.000976562 8.46988 0.379593 9.28971 1.11996C10.1287 1.86086 10.5476 2.81154 10.5476 4.00796C10.5476 5.2044 10.1287 6.17419 9.28971 6.91455C8.46988 7.65545 7.32605 8.03546 5.89579 8.03546H2.80786V13.2979H0.0625ZM2.80786 5.6986H5.70597C7.02112 5.6986 7.80222 5.11042 7.80222 4.04608C7.80222 2.98229 7.02112 2.39356 5.70597 2.39356H2.80786V5.6986Z" fill="#FFB800"/>
<path d="M12.9518 5.01506C13.9435 4.04641 15.2013 3.57129 16.7456 3.57129C18.2898 3.57129 19.5482 4.04641 20.5393 5.01506C21.531 5.98372 22.0263 7.16221 22.0263 8.54833C22.0263 9.97357 21.531 11.1514 20.5393 12.1206C19.5482 13.0703 18.2898 13.5454 16.7456 13.5454C15.2013 13.5454 13.9435 13.0703 12.9518 12.1206C11.9607 11.1514 11.4648 9.97357 11.4648 8.54833C11.4648 7.1432 11.9607 5.9647 12.9518 5.01506ZM16.7456 11.2091C17.5081 11.2091 18.1376 10.9617 18.6329 10.4491C19.1287 9.93549 19.377 9.30823 19.377 8.54833C19.377 7.78843 19.1287 7.16221 18.6329 6.66758C18.1376 6.15497 17.5081 5.90815 16.7456 5.90815C15.983 5.90815 15.3541 6.15497 14.8588 6.66758C14.363 7.16221 14.1153 7.78843 14.1153 8.54833C14.1153 9.30823 14.363 9.93549 14.8588 10.4491C15.3541 10.9617 15.983 11.2091 16.7456 11.2091Z" fill="#FFB800"/>
<path d="M25.3923 12.1778C24.3821 11.2466 23.8672 10.0306 23.8672 8.53037C23.8672 7.02846 24.3821 5.83203 25.3923 4.93947C26.4222 4.02735 27.6418 3.57129 29.0715 3.57129C30.1204 3.57129 31.0543 3.77997 31.8933 4.19853V6.47837C31.0734 6.09841 30.2541 5.90815 29.4724 5.90815C28.6335 5.90815 27.9277 6.15497 27.3565 6.64962C26.8034 7.12361 26.5176 7.76994 26.5176 8.54833C26.5176 9.3273 26.8034 9.9735 27.3751 10.4671C27.9473 10.9618 28.6526 11.2091 29.4724 11.2091C30.4445 11.2091 31.3025 10.9993 32.0454 10.5622V12.8426C31.1498 13.3177 30.1586 13.5454 29.0339 13.5454C27.6227 13.5454 26.4025 13.0893 25.3923 12.1778Z" fill="#FFB800"/>
<path d="M34.8164 13.2952V3.81567H37.4663L40.2308 7.34896L43.0138 3.81567H45.6637V13.2952H43.1283V7.44411L40.7648 10.3882H39.6968L37.3518 7.44411V13.2952H34.8164Z" fill="#FFB800"/>
<path d="M49.5383 5.01506C50.5294 4.04641 51.7873 3.57129 53.3315 3.57129C54.8758 3.57129 56.1341 4.04641 57.1253 5.01506C58.1169 5.98372 58.6122 7.16221 58.6122 8.54833C58.6122 9.97357 58.1169 11.1514 57.1253 12.1206C56.1341 13.0703 54.8758 13.5454 53.3315 13.5454C51.7873 13.5454 50.5294 13.0703 49.5383 12.1206C48.5466 11.1514 48.0508 9.97357 48.0508 8.54833C48.0508 7.1432 48.5466 5.9647 49.5383 5.01506ZM53.3315 11.2091C54.0941 11.2091 54.7236 10.9617 55.2188 10.4491C55.7147 9.93549 55.9629 9.30823 55.9629 8.54833C55.9629 7.78843 55.7147 7.16221 55.2188 6.66758C54.7236 6.15497 54.0941 5.90815 53.3315 5.90815C52.569 5.90815 51.94 6.15497 51.4442 6.66758C50.9484 7.16221 50.7012 7.78843 50.7012 8.54833C50.7012 9.30823 50.9484 9.93549 51.4442 10.4491C51.94 10.9617 52.569 11.2091 53.3315 11.2091Z" fill="#FFB800"/>
<path d="M64.5983 6.0568L64.5606 7.38703C64.5034 8.69759 64.4456 9.57172 64.1221 10.7116C63.6645 12.3076 62.7497 13.3148 60.8618 13.3714C60.4041 13.3714 60.0616 13.3148 59.8516 13.2001V11.0154C60.0043 11.0725 60.1947 11.0916 60.4041 11.0916C61.0337 11.0916 61.434 10.7311 61.644 9.87552C61.8726 8.98292 61.9293 8.18442 61.9489 6.60806L62.0057 3.81567H70.223V13.2952H67.5348V6.0568H64.5983Z" fill="#FFB800"/>
<path d="M74.1901 5.01506C75.1816 4.04641 76.4392 3.57129 77.9832 3.57129C79.5278 3.57129 80.7854 4.04641 81.7776 5.01506C82.7685 5.98372 83.2646 7.16221 83.2646 8.54833C83.2646 9.97357 82.7685 11.1514 81.7776 12.1206C80.7854 13.0703 79.5278 13.5454 77.9832 13.5454C76.4392 13.5454 75.1816 13.0703 74.1901 12.1206C73.1986 11.1514 72.7031 9.97357 72.7031 8.54833C72.7031 7.1432 73.1986 5.9647 74.1901 5.01506ZM77.9832 11.2091C78.746 11.2091 79.3758 10.9617 79.8706 10.4491C80.3667 9.93549 80.6137 9.30823 80.6137 8.54833C80.6137 7.78843 80.3667 7.16221 79.8706 6.66758C79.3758 6.15497 78.746 5.90815 77.9832 5.90815C77.221 5.90815 76.5913 6.15497 76.0965 6.66758C75.6004 7.16221 75.352 7.78843 75.352 8.54833C75.352 9.30823 75.6004 9.93549 76.0965 10.4491C76.5913 10.9617 77.221 11.2091 77.9832 11.2091Z" fill="#FFB800"/>
<path d="M84.5508 15.7077V11.0541H85.771C86.4958 9.93266 86.8772 8.14746 86.9146 5.65782L86.9533 3.81567H94.9595V11.0541H96.5225V15.7077H93.987V13.2952H87.1243V15.7077H84.5508ZM92.3284 11.0541V6.0568H89.3544C89.3544 8.03271 89.0687 9.70435 88.5156 11.0541H92.3284Z" fill="#FFB800"/>
<path d="M99.7554 12.1778C98.7449 11.2656 98.2305 10.0497 98.2305 8.54833C98.2305 7.1432 98.6879 5.9647 99.6027 5.01506C100.518 4.04641 101.719 3.57129 103.187 3.57129C104.578 3.57129 105.665 4.06594 106.484 5.0346C107.305 6.00326 107.724 7.18062 107.724 8.58686V9.28968H100.899C101.185 10.5818 102.405 11.2657 104.083 11.2657C105.15 11.2657 106.161 10.9797 107.133 10.4296V12.5767C106.275 13.222 105.074 13.5454 103.511 13.5454C102.024 13.5454 100.765 13.0893 99.7554 12.1778ZM105.074 7.57964C105.017 6.53487 104.273 5.67978 103.072 5.67978C101.852 5.67978 101.032 6.45933 100.899 7.57964H105.074Z" fill="#FFB800"/>
<path d="M108.711 13.2952L112.809 8.24156L109.13 3.81567H112.162L115.059 7.38697V3.81567H117.709V7.38697L120.587 3.81567H123.619L119.94 8.24156L124.058 13.2952H120.854L117.709 9.24878V13.2952H115.059V9.24878L111.894 13.2952H108.711Z" fill="#FFB800"/>
<path d="M126.098 13.2952V3.81567H128.786V6.58906H131.074C133.456 6.58906 135.001 7.89962 135.001 9.9326C135.001 10.9018 134.677 11.6998 134.01 12.3451C133.342 12.9724 132.409 13.2952 131.207 13.2952H126.098ZM128.786 11.2247H130.655C131.703 11.2247 132.313 10.7502 132.313 9.91307C132.313 9.07866 131.703 8.58396 130.655 8.58396H128.786V11.2247Z" fill="#FFB800"/>
</g>
<defs>
<clipPath id="clip0">
<rect width="135" height="32" fill="white" transform="translate(0 -0.000976562)"/>
</clipPath>
</defs>
</svg>
