<svg width="33" height="32" viewBox="0 0 33 32" fill="none" xmlns="http://www.w3.org/2000/svg">
<path fill-rule="evenodd" clip-rule="evenodd" d="M16.5938 0C7.75719 0 0.59375 7.16344 0.59375 16C0.59375 24.8366 7.75719 32 16.5938 32C25.4303 32 32.5938 24.8366 32.5938 16C32.5938 7.16344 25.4303 0 16.5938 0ZM13.0759 7.51824C13.9862 7.47682 14.277 7.46668 16.5946 7.46668H16.5919C18.9101 7.46668 19.1999 7.47682 20.1101 7.51824C21.0186 7.55984 21.639 7.70366 22.1831 7.91469C22.7448 8.13247 23.2195 8.42403 23.6942 8.8987C24.1689 9.37301 24.4604 9.84911 24.6791 10.4104C24.8889 10.9529 25.0329 11.573 25.0755 12.4815C25.1164 13.3917 25.1271 13.6826 25.1271 16.0001C25.1271 18.3176 25.1164 18.6078 25.0755 19.518C25.0329 20.4261 24.8889 21.0464 24.6791 21.5891C24.4604 22.1502 24.1689 22.6263 23.6942 23.1006C23.22 23.5753 22.7447 23.8676 22.1836 24.0855C21.6406 24.2965 21.0198 24.4404 20.1114 24.482C19.2012 24.5234 18.9112 24.5335 16.5935 24.5335C14.2761 24.5335 13.9855 24.5234 13.0752 24.482C12.167 24.4404 11.5467 24.2965 11.0037 24.0855C10.4428 23.8676 9.96675 23.5753 9.49261 23.1006C9.01812 22.6263 8.72656 22.1502 8.50842 21.589C8.29758 21.0464 8.15375 20.4263 8.11197 19.5178C8.07073 18.6076 8.06042 18.3176 8.06042 16.0001C8.06042 13.6826 8.07108 13.3915 8.1118 12.4813C8.15269 11.5732 8.29669 10.9529 8.50824 10.4102C8.72691 9.84911 9.01847 9.37301 9.49314 8.8987C9.96746 8.4242 10.4436 8.13265 11.0048 7.91469C11.5474 7.70366 12.1675 7.55984 13.0759 7.51824Z" fill="#0A1124"/>
<path fill-rule="evenodd" clip-rule="evenodd" d="M15.829 9.00457C15.9777 9.00434 16.1376 9.00441 16.3101 9.00449L16.5946 9.00457C18.873 9.00457 19.143 9.01275 20.0428 9.05364C20.8748 9.09169 21.3263 9.23071 21.6271 9.34751C22.0254 9.50218 22.3093 9.68707 22.6078 9.98574C22.9064 10.2844 23.0913 10.5689 23.2464 10.9671C23.3632 11.2675 23.5024 11.7191 23.5402 12.5511C23.5811 13.4507 23.59 13.7209 23.59 15.9982C23.59 18.2756 23.5811 18.5458 23.5402 19.4454C23.5022 20.2774 23.3632 20.729 23.2464 21.0294C23.0917 21.4276 22.9064 21.7112 22.6078 22.0097C22.3091 22.3084 22.0255 22.4932 21.6271 22.6479C21.3267 22.7653 20.8748 22.9039 20.0428 22.942C19.1432 22.9829 18.873 22.9917 16.5946 22.9917C14.3159 22.9917 14.0459 22.9829 13.1463 22.942C12.3143 22.9036 11.8628 22.7645 11.5618 22.6477C11.1636 22.4931 10.8791 22.3082 10.5804 22.0095C10.2818 21.7108 10.0969 21.4271 9.94186 21.0287C9.82506 20.7283 9.68586 20.2767 9.64799 19.4447C9.6071 18.5451 9.59892 18.2749 9.59892 15.9961C9.59892 13.7173 9.6071 13.4485 9.64799 12.549C9.68603 11.717 9.82506 11.2654 9.94186 10.9646C10.0965 10.5664 10.2818 10.2819 10.5804 9.98325C10.8791 9.68458 11.1636 9.49969 11.5618 9.34467C11.8626 9.22733 12.3143 9.08866 13.1463 9.05044C13.9335 9.01489 14.2386 9.00422 15.829 9.00244V9.00457ZM21.1496 10.4215C20.5843 10.4215 20.1256 10.8796 20.1256 11.4452C20.1256 12.0105 20.5843 12.4692 21.1496 12.4692C21.715 12.4692 22.1736 12.0105 22.1736 11.4452C22.1736 10.8798 21.715 10.4212 21.1496 10.4212V10.4215ZM12.2123 16.0002C12.2123 13.5801 14.1743 11.618 16.5944 11.6179C19.0145 11.6179 20.9761 13.5801 20.9761 16.0002C20.9761 18.4203 19.0147 20.3816 16.5945 20.3816C14.1744 20.3816 12.2123 18.4203 12.2123 16.0002Z" fill="#0A1124"/>
<path d="M16.5945 13.1555C18.1654 13.1555 19.439 14.429 19.439 16C19.439 17.5709 18.1654 18.8445 16.5945 18.8445C15.0235 18.8445 13.7501 17.5709 13.7501 16C13.7501 14.429 15.0235 13.1555 16.5945 13.1555Z" fill="#0A1124"/>
</svg>
