<svg width="73" height="73" viewBox="0 0 73 73" fill="none" xmlns="http://www.w3.org/2000/svg">
<g clip-path="url(#clip0)">
<path d="M49.8835 16.5481V20.0943C49.8835 20.7437 50.2712 21.3238 50.871 21.5723C51.4795 21.8243 52.162 21.6781 52.6146 21.2255L57.0671 16.7729H68.3088C70.5955 16.7729 72.4557 14.9126 72.4557 12.626V4.75187C72.4557 2.46531 70.5955 0.60498 68.3088 0.60498H51.2309C48.9442 0.60498 47.084 2.46531 47.084 4.75187V12.6259C47.0838 14.4041 48.2349 15.9802 49.8835 16.5481ZM49.1924 4.75187C49.1924 3.62786 50.1069 2.71337 51.2309 2.71337H68.3089C69.433 2.71337 70.3474 3.62786 70.3474 4.75187V12.6259C70.3474 13.7499 69.433 14.6644 68.3089 14.6644H56.8173C56.4157 14.6644 56.038 14.8208 55.7531 15.105L51.9921 18.8661V16.0899C51.9921 15.383 51.4937 14.7648 50.8069 14.6199C49.8715 14.4227 49.1925 13.584 49.1925 12.626V4.75187H49.1924Z" fill="black"/>
<path d="M70.0072 62.4825H68.0022V29.3229C68.0022 27.1376 66.2244 25.3598 64.0391 25.3598H44.3145C43.7322 25.3598 43.2602 25.8317 43.2602 26.414C43.2602 26.9964 43.7322 27.4683 44.3145 27.4683H64.039C65.0616 27.4683 65.8937 28.3002 65.8937 29.323V62.4827H62.3796V33.9677C62.3796 32.3217 61.0404 30.9825 59.3944 30.9825H37.8588C38.1682 30.1777 38.3818 29.3247 38.4797 28.4355C39.5996 28.1887 40.4401 27.1883 40.4401 25.9951C40.4401 25.0308 40.4401 17.7494 40.4401 16.8816C40.4401 14.7984 38.7543 13.1015 36.6752 13.0838C36.6078 11.0482 34.9309 9.41318 32.8793 9.41318H23.4242C19.361 9.41318 16.0553 12.7188 16.0553 16.7821V25.9951C16.0553 27.1883 16.8959 28.1887 18.0159 28.4355C18.1138 29.3248 18.3274 30.1777 18.6368 30.9825H14.2501C12.6041 30.9825 11.265 32.3217 11.265 33.9677V42.5794C9.88373 43.0979 8.68378 43.9571 7.75087 45.0419V29.3229C7.75087 28.3002 8.58281 27.4682 9.60558 27.4682H12.2344C12.8167 27.4682 13.2887 26.9962 13.2887 26.4139C13.2887 25.8316 12.8167 25.3596 12.2344 25.3596H9.60558C7.42027 25.3596 5.64248 27.1374 5.64248 29.3227V50.6837V62.4824H3.63731C2.09367 62.4824 0.837891 63.7383 0.837891 65.2818C0.837891 69.32 4.12289 72.605 8.1608 72.605H65.4838C69.5217 72.605 72.8067 69.32 72.8067 65.2821C72.8067 63.7384 71.5508 62.4825 70.0072 62.4825ZM59.3944 33.0909C59.8779 33.0909 60.2712 33.4842 60.2712 33.9677V62.4827H50.8571V58.62C50.8571 58.0376 50.3851 57.5657 49.8028 57.5657C49.2205 57.5657 48.7485 58.0376 48.7485 58.62V62.4827H43.6872V59.1373C43.6872 58.555 43.2152 58.0831 42.6329 58.0831C42.0506 58.0831 41.5786 58.555 41.5786 59.1373V62.4827H33.0033L30.7304 49.666L31.6026 48.1032C31.7709 48.14 31.9417 48.1607 32.113 48.1607C32.715 48.1607 33.3166 47.9336 33.786 47.4826L37.6996 43.6715C37.98 43.3986 38.1752 43.0664 38.2866 42.7115L44.0465 44.4024C46.8151 45.2152 48.7487 47.7982 48.7487 50.6835V53.6915C48.7487 54.2738 49.2206 54.7458 49.803 54.7458C50.3853 54.7458 50.8572 54.2738 50.8572 53.6915V50.6835C50.8572 46.8688 48.3008 43.454 44.6405 42.3792L37.6833 40.3368C37.4918 40.1538 37.27 40.0035 37.0265 39.8951L35.5865 39.2535C35.1622 39.0644 34.7077 38.9875 34.2615 39.0163V35.6459C35.2313 34.9456 36.0754 34.0811 36.7523 33.0911H59.3944V33.0909ZM20.3746 41.808L21.7871 41.1738C22.0191 41.0697 22.2897 41.0995 22.4934 41.2518L26.6543 44.3607L24.6105 46.0678C24.4947 46.165 24.3261 46.1593 24.2168 46.0558L20.3125 42.1456V42.1455C20.2074 42.0406 20.2458 41.8658 20.3746 41.808ZM32.1528 36.8206V40.04L28.3426 42.9905L24.3429 40.0019V36.8207C26.8123 37.838 29.6137 37.8667 32.1528 36.8206ZM36.1682 41.8211C36.2979 41.8784 36.3367 42.0556 36.2287 42.1609L32.3203 45.9668C32.2096 46.0733 32.0385 46.0782 31.9219 45.9785C31.9218 45.9785 31.9218 45.9785 31.9218 45.9785L30.0235 44.3553L34.0143 41.2652C34.2183 41.1068 34.492 41.0741 34.7281 41.1792L36.1682 41.8211ZM27.4785 48.4261L26.6925 47.0762L28.3458 45.6951L29.8258 46.9606L29.008 48.4261H27.4785ZM27.7562 50.5345H28.7431L30.862 62.4825H25.6384L27.7562 50.5345ZM46.2143 64.591C45.7887 65.6995 44.7158 66.4896 43.4595 66.4896H30.1849C28.9286 66.4896 27.8558 65.6995 27.4301 64.591H46.2143ZM18.1639 16.7821C18.1639 13.8814 20.5237 11.5216 23.4244 11.5216H32.8794C33.8111 11.5216 34.5689 12.2794 34.5689 13.211C34.5689 14.3033 35.4577 15.192 36.5499 15.192H36.6423C37.5739 15.192 38.3318 15.9498 38.3318 16.8815V21.8187H37.4901C37.0187 21.8187 36.6353 21.4352 36.6353 20.9638V19.919C36.6353 17.8249 34.591 16.3474 32.6023 17.0044C29.7952 17.9321 26.7036 17.9324 23.8966 17.0051C23.8934 17.004 23.889 17.0026 23.8848 17.0013C21.9014 16.3523 19.8605 17.8248 19.8605 19.9187V20.964C19.8605 21.4353 19.477 21.8188 19.0055 21.8188H18.1639V16.7821ZM18.1639 25.9951V23.9272H19.0055C20.6396 23.9272 21.969 22.5979 21.969 20.9638V19.9186C21.969 19.2624 22.6104 18.8 23.2316 19.0059C23.2347 19.007 23.2388 19.0083 23.2427 19.0094C26.4744 20.0752 30.0333 20.0742 33.2639 19.0063C33.8849 18.8006 34.5267 19.262 34.5267 19.919V20.9638C34.5267 22.5979 35.856 23.9272 37.4901 23.9272H38.3318V25.9951C38.3318 26.2104 38.1567 26.3853 37.9417 26.3853C37.1378 26.3853 36.468 27.0161 36.417 27.8216C36.146 32.1192 32.5578 35.4858 28.248 35.4858C23.9381 35.4858 20.3499 32.1192 20.0788 27.8217C20.0281 27.0162 19.3585 26.3853 18.5543 26.3853C18.339 26.3853 18.1639 26.2103 18.1639 25.9951ZM14.2501 33.0909H19.7437C20.4205 34.0809 21.2647 34.9455 22.2343 35.6458V39.0097C21.7916 38.9842 21.3419 39.0626 20.9234 39.2504L19.5109 39.8845C19.2692 39.9931 19.049 40.143 18.8586 40.3252L13.3733 41.9352V33.9678C13.3735 33.4842 13.7667 33.0909 14.2501 33.0909ZM7.75087 50.6838C7.75087 47.7982 9.68461 45.2153 12.4535 44.4025L12.6251 44.3522C12.629 44.351 12.6328 44.3499 12.6368 44.3488L18.2515 42.7008C18.3609 43.0429 18.55 43.3646 18.8205 43.6355V43.6354L22.7321 47.5529C22.7356 47.5564 22.7391 47.56 22.7426 47.5633C23.2094 48.0177 23.8139 48.2475 24.4204 48.2475C24.5827 48.2475 24.7448 48.2289 24.9047 48.196L25.767 49.6769L23.4972 62.4827H14.9171V59.1373C14.9171 58.555 14.4452 58.0831 13.8629 58.0831C13.2805 58.0831 12.8086 58.555 12.8086 59.1373V62.4827H7.75087V50.6838ZM65.4838 70.4966H8.1608C5.28558 70.4966 2.94628 68.1574 2.94628 65.2821C2.94628 64.901 3.25622 64.591 3.63731 64.591H25.2349C25.7213 66.8775 27.7556 68.598 30.1849 68.598H43.4595C45.8888 68.598 47.9231 66.8775 48.4095 64.591H70.0071C70.3882 64.591 70.6981 64.901 70.6981 65.2821C70.6983 68.1573 68.359 70.4966 65.4838 70.4966Z" fill="black"/>
</g>
<defs>
<clipPath id="clip0">
<rect width="72" height="72" fill="white" transform="translate(0.822266 0.60498)"/>
</clipPath>
</defs>
</svg>
