<svg width="201" height="50" viewBox="0 0 201 50" fill="none" xmlns="http://www.w3.org/2000/svg">
<path d="M37.6483 30.1187H28.226L26.8274 33.1232H20.8481V32.2343L31.6038 8.9126H34.232L45.0232 32.2343V33.1232H39.0468L37.6483 30.1187ZM32.9075 18.6105L30.2082 24.892H35.672L32.9075 18.6105Z" fill="#333333"/>
<path d="M67.3553 20.6936C69.3019 21.6832 70.2234 23.4581 70.2234 25.5766C70.1908 29.7426 67.6634 33.1233 62.7804 33.1233H51.5803V9.23573H61.7908C62.7638 9.22078 63.7302 9.39974 64.6334 9.76217C65.5365 10.1246 66.3585 10.6633 67.0513 11.3467C67.7442 12.0301 68.294 12.8447 68.6687 13.7429C69.0434 14.641 69.2355 15.6048 69.2338 16.578C69.2338 18.0121 68.5168 19.7514 67.3553 20.7084V20.6936ZM57.4856 14.6995V18.5514H61.3374C63.7612 18.5514 63.7612 14.6995 61.3019 14.6995H57.4856ZM57.4856 23.6447V27.707H62.3686C64.8278 27.707 64.7952 23.6447 62.336 23.6447H57.4856Z" fill="#333333"/>
<path d="M77.5881 33.1234V9.23584H88.1067C99.5439 9.26843 99.5439 27.0138 88.1067 27.0138H83.7008V33.1264L77.5881 33.1234ZM88.0771 14.6848C86.643 14.6492 85.1141 14.6848 83.7067 14.6848V21.5145H88.0771C91.4223 21.5145 91.6327 14.7174 88.0771 14.6848Z" fill="#333333"/>
<path d="M106.259 33.1559H104.073V9.22089H110.322V20.9336L122.411 9.11719H124.63V33.1233H118.313V21.378L106.259 33.1559Z" fill="#333333"/>
<path d="M136.24 35.8196H131.203V27.8196H133.627L141.822 8.90088H144.45L152.919 27.8196H155.413V35.8196H150.379V33.1914H136.24V35.8196ZM139.796 27.7633H146.557L143.108 19.1232L139.796 27.7633Z" fill="#333333"/>
<path d="M177.798 30.1187H168.376L166.974 33.1232H160.998V32.2343L171.753 8.9126H174.382L185.173 32.2343V33.1232H179.196L177.798 30.1187ZM173.057 18.6105L170.358 24.892H175.822L173.057 18.6105Z" fill="#333333"/>
<path d="M114.654 45.2839H111.138L110.39 46.8774H109.05V46.7126L112.61 39.1297H113.204L116.742 46.7126V46.8774H115.413L114.654 45.2839ZM112.907 41.1298L111.555 44.2069H114.248L112.907 41.1298ZM119.008 46.8774H117.722V39.1846H120.909C121.737 39.1846 122.396 39.4484 122.887 39.9759C123.378 40.4961 123.623 41.1371 123.623 41.8991C123.623 42.6464 123.374 43.2801 122.876 43.8003C122.385 44.3132 121.729 44.5696 120.909 44.5696H119.008V46.8774ZM118.986 43.4486H120.909C121.341 43.4486 121.696 43.2985 121.975 42.9981C122.253 42.6904 122.392 42.313 122.392 41.8661C122.392 41.4119 122.253 41.0382 121.975 40.7452C121.704 40.4448 121.348 40.2946 120.909 40.2946H118.986V43.4486ZM126.375 40.3166H124.144V39.1846H129.858V40.3166H127.627V46.8774H126.375V40.3166ZM130.305 43.7344V42.7013H134.008V43.7344H130.305ZM136.952 39.1846V42.5915C137.714 42.5915 138.216 42.5292 138.457 42.4046C138.663 42.2947 138.827 42.0933 138.952 41.8002C139.076 41.4998 139.205 41.0932 139.337 40.5803C139.49 40.0235 139.754 39.6206 140.128 39.3715C140.501 39.115 141.055 39.0564 141.787 39.1956V40.0748C141.392 40.0455 141.106 40.0895 140.93 40.2067C140.762 40.3166 140.622 40.5657 140.512 40.954C140.234 41.9724 139.901 42.6574 139.512 43.0091L142.04 46.6906V46.8774H140.589L138.391 43.5146C138.172 43.5952 137.692 43.6355 136.952 43.6355V46.8774H135.666V39.1846H136.952ZM146.003 41.2617L143.596 46.8774H142.365V46.7016L145.728 39.1407H146.277L149.651 46.7016V46.8774H148.409L146.014 41.2617H146.003ZM155.394 45.2839H151.877L151.13 46.8774H149.789V46.7126L153.349 39.1297H153.943L157.482 46.7126V46.8774H156.152L155.394 45.2839ZM153.646 41.1298L152.294 44.2069H154.987L153.646 41.1298ZM157.774 43.042C157.774 41.8405 158.152 40.8844 158.906 40.1737C159.668 39.4557 160.595 39.0967 161.687 39.0967C162.207 39.0967 162.698 39.1883 163.159 39.3715C163.628 39.5546 164.046 39.844 164.412 40.2397C164.778 40.6353 165.028 41.1115 165.159 41.6683H163.929C163.555 40.7452 162.804 40.2763 161.676 40.2616C160.892 40.2616 160.258 40.5217 159.774 41.0419C159.298 41.5548 159.06 42.2215 159.06 43.042C159.06 43.8186 159.302 44.4707 159.785 44.9982C160.276 45.5257 160.906 45.7895 161.676 45.7895C162.218 45.7895 162.69 45.6576 163.093 45.3938C163.504 45.1301 163.793 44.7491 163.962 44.2509H165.203C165.02 45.1374 164.595 45.8114 163.929 46.273C163.269 46.7272 162.518 46.9544 161.676 46.9544C160.584 46.9544 159.661 46.6027 158.906 45.8994C158.152 45.1887 157.774 44.2362 157.774 43.042ZM168.005 40.3166H165.774V39.1846H171.488V40.3166H169.257V46.8774H168.005V40.3166ZM177.331 39.1846V40.3056H173.935V42.3387H177.144V43.4706H173.935V45.7125H177.397V46.8774H172.649V39.1846H177.331ZM180.277 46.8774H178.992V39.1846H182.179C183.007 39.1846 183.666 39.4484 184.157 39.9759C184.648 40.4961 184.893 41.1371 184.893 41.8991C184.893 42.6464 184.644 43.2801 184.146 43.8003C183.655 44.3132 182.999 44.5696 182.179 44.5696H180.277V46.8774ZM180.255 43.4486H182.179C182.611 43.4486 182.966 43.2985 183.245 42.9981C183.523 42.6904 183.662 42.313 183.662 41.8661C183.662 41.4119 183.523 41.0382 183.245 40.7452C182.974 40.4448 182.618 40.2946 182.179 40.2946H180.255V43.4486Z" fill="#FF9015"/>
<path d="M200.991 9.21786C200.992 11.0422 200.451 12.8257 199.438 14.3427C198.424 15.8597 196.984 17.042 195.298 17.74C193.613 18.438 191.758 18.6204 189.969 18.264C188.18 17.9075 186.537 17.0284 185.247 15.7378C183.958 14.4471 183.08 12.8031 182.726 11.0135C182.371 9.22401 182.555 7.36948 183.255 5.68463C183.954 3.99978 185.138 2.56034 186.656 1.54844C188.174 0.536536 189.958 -0.00233719 191.782 7.61981e-06C192.993 7.61981e-06 194.191 0.238433 195.31 0.701674C196.428 1.16491 197.444 1.8439 198.3 2.69985C199.156 3.55581 199.835 4.57198 200.298 5.69034C200.762 6.8087 201 8.00735 201 9.21786" fill="#F29400"/>
<path d="M-0.000488281 14.661V9.19727H18.4352V14.661H12.2574V33.1056H6.2129V14.661H-0.000488281Z" fill="#333333"/>
</svg>
