<?xml version="1.0" encoding="utf-8"?>
<!-- Generator: Adobe Illustrator 25.4.1, SVG Export Plug-In . SVG Version: 6.00 Build 0)  -->
<svg version="1.1" id="Слой_1" xmlns="http://www.w3.org/2000/svg" xmlns:xlink="http://www.w3.org/1999/xlink" x="0px" y="0px"
	 viewBox="0 0 885 348" style="enable-background:new 0 0 885 348;" xml:space="preserve">
<style type="text/css">
	.st0{fill:#020001;}
	.st1{fill:#EA6300;}
	.st2{fill:#181815;}
</style>
<polygon class="st0" points="91.7,88.8 70.3,88.8 70.3,147 55,147 55,88.8 33.7,88.8 33.7,75.3 91.7,75.3 "/>
<polygon class="st0" points="848.6,88.8 827.2,88.8 827.2,147 811.9,147 811.9,88.8 790.6,88.8 790.6,75.3 848.6,75.3 "/>
<path class="st0" d="M145.6,131.7h-31.1l-5.9,15.4H92.7l29.8-71.7h15.3l29.9,71.7h-16.3L145.6,131.7z M140.7,119.1l-10.6-27.5
	l-10.6,27.5H140.7z"/>
<path class="st0" d="M239.9,116c2.2,2.9,3.2,6.6,3.2,10.9c0,6.4-2.2,11.3-6.7,14.9c-4.5,3.5-10.9,5.3-19.3,5.3h-33V75.3h31.2
	c7.8,0,13.8,1.6,18.2,4.8s6.5,7.8,6.5,13.7c0,3.5-0.8,6.7-2.5,9.4c-1.7,2.7-4,4.8-7,6.4C234.6,110.9,237.8,113,239.9,116 M199.6,105
	H214c3.4,0,5.9-0.7,7.6-2.2s2.6-3.6,2.6-6.5c0-2.8-0.9-5-2.6-6.5c-1.8-1.5-4.3-2.2-7.6-2.2h-14.4L199.6,105L199.6,105z M227.5,125.5
	c0-5.9-3.6-8.9-10.9-8.9h-17v18.1h17C223.9,134.7,227.5,131.7,227.5,125.5"/>
<path class="st0" d="M305.1,78.5c4.4,2.1,7.7,5.1,10.1,9s3.5,8.5,3.5,13.8c0,5.3-1.2,9.9-3.5,13.8c-2.4,3.9-5.7,6.9-10.1,9
	c-4.4,2.1-9.5,3.1-15.5,3.1h-13.5V147h-15.5V75.3h29C295.6,75.3,300.8,76.4,305.1,78.5 M299.4,110.5c2.4-2.1,3.6-5.2,3.6-9.2
	c0-4-1.2-7.1-3.6-9.3c-2.4-2.1-6-3.2-10.6-3.2h-12.6v24.9h12.6C293.5,113.7,297,112.7,299.4,110.5"/>
<path class="st0" d="M765,78.5c4.4,2.1,7.7,5.1,10.1,9c2.4,3.9,3.5,8.5,3.5,13.8c0,5.3-1.2,9.9-3.5,13.8s-5.7,6.9-10.1,9
	c-4.4,2.1-9.5,3.1-15.5,3.1H736V147h-15.5V75.3h29C755.4,75.3,760.6,76.4,765,78.5 M759.3,110.5c2.4-2.1,3.6-5.2,3.6-9.2
	c0-4-1.2-7.1-3.6-9.3c-2.4-2.1-6-3.2-10.6-3.2H736v24.9h12.6C753.3,113.7,756.8,112.7,759.3,110.5"/>
<polygon class="st0" points="336.4,75.3 351.8,75.3 351.8,122 383.8,75.3 398.3,75.3 398.3,147 383,147 383,100.4 351,147 
	336.4,147 "/>
<path class="st0" d="M487.8,147.1l-72.9-0.1c9.8-23.9,19.5-47.8,29.2-71.7h15.4L487.8,147.1z M435.7,133.5H466l-14.7-40.8
	L435.7,133.5z"/>
<path class="st0" d="M552.7,131.7h-31.1l-5.9,15.4h-15.9l29.8-71.7h15.3l29.9,71.7h-16.3L552.7,131.7z M547.8,119.1l-10.6-27.5
	l-10.6,27.5H547.8z"/>
<path class="st0" d="M686.4,131.7h-31.1l-5.9,15.4h-15.9l29.8-71.7h15.3l29.9,71.7h-16.3L686.4,131.7z M681.5,119.1l-10.6-27.5
	l-10.6,27.5H681.5z"/>
<path class="st1" d="M629.8,79.8c0,14.1-11.5,25.6-25.6,25.6c-14.1,0-25.6-11.5-25.6-25.6c0-14.1,11.5-25.6,25.6-25.6
	S629.8,65.6,629.8,79.8"/>
<path class="st2" d="M59.4,272.5h-6.1v-21.5c0-0.6,0.1-1.1,0.3-1.6l-0.1-0.1c-0.5,0.2-1,0.2-1.7,0.2H41.5c-0.7,0-1.2,0-1.7-0.2
	l-0.1,0.1c0.2,0.5,0.3,1,0.3,1.6v21.5h-6.1v-28.6h25.5L59.4,272.5L59.4,272.5z"/>
<path class="st2" d="M97.2,258.2c0,8.9-5.8,15.2-13.9,15.2c-4.8,0-8.5-2.3-10.5-6.5l-0.2,0.1c0.4,1.4,0.6,3.6,0.6,6v11.9H67v-41h5.9
	c0,2.5-0.1,4.5-0.4,5.5l0.2,0.1c2.1-4.2,5.8-6.5,10.5-6.5C91.4,243,97.2,249.3,97.2,258.2 M72.8,258.2c0,5.6,3.8,9.5,9.3,9.5
	c5.4,0,8.6-3.6,8.6-9.5s-3.2-9.5-8.6-9.5C76.7,248.6,72.8,252.5,72.8,258.2"/>
<path class="st2" d="M132.5,258.2c0,8.7-6.6,15.2-15.7,15.2s-15.7-6.5-15.7-15.2c0-8.7,6.6-15.2,15.7-15.2
	C125.9,243,132.5,249.5,132.5,258.2 M107.6,258.2c0,5.6,3.7,9.3,9.2,9.3c5.5,0,9.2-3.7,9.2-9.3c0-5.6-3.7-9.3-9.2-9.3
	C111.4,248.9,107.6,252.6,107.6,258.2"/>
<path class="st2" d="M164.8,258.2v1.2h-18.4c-2.1,0-3.1-0.1-3.8-0.5l-0.1,0.1l0.2,0.8c0.6,5.1,3.8,7.9,8.9,7.9
	c3.4,0,5.8-1.2,8.7-4.2l3.7,4c-3.4,4-7.4,6-12.5,6c-8.9,0-14.9-6-14.9-15c0-9.3,5.8-15.4,14.6-15.4
	C159.6,243,164.8,248.7,164.8,258.2 M142.8,255.3l0.1,0.1c0.7-0.4,2-0.6,3.5-0.6h7.2c3,0,4,0.1,4.6,0.6l0.1-0.1
	c-0.4-4.3-3.1-6.8-7.5-6.8C146.5,248.5,143.4,251,142.8,255.3"/>
<path class="st2" d="M186.6,269l-1.4-5.1c-0.7-2.9-1.7-3.9-4-3.9h-2.7c-0.7,0-1.6-0.1-1.9-0.1l-0.1,0.1c0.2,0.8,0.3,1.4,0.3,2.6v10
	h-6.1v-28.6h6.1v8.9c0,1-0.1,1.7-0.3,2.5l0.1,0.1c0.4-0.1,1.2-0.1,1.9-0.1h2.7c2.4,0,3-0.6,4.1-3.5l2.1-5.1c0.8-2,2.5-2.9,5.6-2.9h3
	v5.5h-1.3c-1.8,0-2.5,0.4-3.2,2.2l-1,2.6c-0.8,2.4-2.7,3.5-6.1,3.5v0.2c3.6,0.1,5.3,1.1,6.1,3.7l1.2,4c0.5,1.5,0.9,1.8,2.9,1.8h1.5
	v5.5h-3.6C189.2,272.7,187.3,271.5,186.6,269"/>
<path class="st2" d="M226,243.9v5.6h-9c-0.7,0-1.2,0-1.7-0.2l-0.1,0.1c0.2,0.5,0.3,1,0.3,1.6v21.5h-6.1v-21.5c0-0.6,0.1-1.1,0.3-1.6
	l-0.1-0.1c-0.5,0.2-1,0.2-1.7,0.2h-9v-5.6H226z"/>
<path class="st2" d="M278.4,258.2c0,8.7-6.6,15.2-15.7,15.2s-15.7-6.5-15.7-15.2c0-8.7,6.6-15.2,15.7-15.2
	C271.8,243,278.4,249.5,278.4,258.2 M253.5,258.2c0,5.6,3.7,9.3,9.2,9.3c5.5,0,9.2-3.7,9.2-9.3c0-5.6-3.7-9.3-9.2-9.3
	C257.2,248.9,253.5,252.6,253.5,258.2"/>
<path class="st2" d="M307.6,243.9v5.6h-9c-0.7,0-1.2,0-1.7-0.2l-0.1,0.1c0.2,0.5,0.3,1,0.3,1.6v21.5h-6.1v-21.5
	c0-0.6,0.1-1.1,0.3-1.6l-0.1-0.1c-0.5,0.2-1,0.2-1.7,0.2h-9v-5.6H307.6z"/>
<path class="st2" d="M368,235.5c10.8,0,19.5,7.9,19.5,18.7c0,10.7-8.9,18.8-18.9,18.8c-4.7,0-9.3-1.3-12.7-5.2h-0.4v27.2h-7.2v-37.7
	C348.3,244,355.9,235.5,368,235.5 M367.9,266.6c7.1,0,12-5.6,12-12.5c0-6.8-4.8-12.4-12-12.4c-7.3,0-12.2,5.5-12.2,12.3
	C355.7,261,360.7,266.6,367.9,266.6"/>
<path class="st2" d="M394.2,254.2c0-10.8,9-18.7,19.6-18.7c10.6,0,19.6,7.9,19.6,18.7c0,10.8-9,18.7-19.6,18.7
	C403.2,272.9,394.2,265,394.2,254.2 M413.8,266.6c7.2,0,12-5.5,12-12.4c0-6.9-4.9-12.4-12-12.4c-7.2,0-12,5.5-12,12.4
	C401.7,261.1,406.6,266.6,413.8,266.6"/>
<path class="st2" d="M459.9,272.9c-11.3,0-19.8-7.9-19.8-18.7c0-10.8,8.4-18.7,19.6-18.7c8.6,0,16.7,4.7,18.7,13.5H471
	c-1.8-4.8-6.1-7.2-11.1-7.2c-7.6,0-12.2,5.6-12.2,12.5c0,7,4.8,12.3,12.3,12.3c4.9,0,9.4-2.2,11.1-7.4h7.4
	C475.9,268.6,468.2,272.9,459.9,272.9"/>
<polygon class="st2" points="505.2,267.7 493.4,243.1 493.2,243.1 493.2,272.1 486.2,272.1 486.2,236.3 497.3,236.3 509,260.8 
	509.2,260.8 520.8,236.3 531.9,236.3 531.9,272.1 525,272.1 525,243.1 524.7,243.1 513,267.7 "/>
<path class="st2" d="M539.6,254.2c0-10.8,9-18.7,19.6-18.7s19.6,7.9,19.6,18.7c0,10.8-9,18.7-19.6,18.7
	C548.6,272.9,539.6,265,539.6,254.2 M559.2,266.6c7.2,0,12-5.5,12-12.4c0-6.9-4.9-12.4-12-12.4c-7.2,0-12,5.5-12,12.4
	C547.1,261.1,552,266.6,559.2,266.6"/>
<path class="st2" d="M582.5,272.5V265h0.2c1.4,0,3.1-0.6,4.1-1.8c1.3-1.5,2-4.1,2.7-8l1-5.7c1.2-6.6,3.5-13.3,13.5-13.3h14v36h-7.2
	v-29.4h-5.6c-5.6,0-6.8,1.5-8.1,9.2l-0.9,5.4c-0.8,4.9-2,9.2-4.6,11.9c-2,2-4.7,3.2-8.3,3.2L582.5,272.5L582.5,272.5z"/>
<path class="st2" d="M625.9,254.2c0-10.8,9-18.7,19.6-18.7s19.6,7.9,19.6,18.7c0,10.8-9,18.7-19.6,18.7
	C634.9,272.9,625.9,265,625.9,254.2 M645.5,266.6c7.2,0,12-5.5,12-12.4c0-6.9-4.9-12.4-12-12.4c-7.2,0-12,5.5-12,12.4
	C633.5,261.1,638.3,266.6,645.5,266.6"/>
<path class="st2" d="M673.4,280.9h-6.9v-15.4h4.7c2-2.3,3.1-5.7,4.1-9.9l1.5-6.7c1.5-6.4,4.2-12.8,13.1-12.8h13.9v29.4h5.2v15.4
	h-6.9v-8.7h-28.7L673.4,280.9L673.4,280.9z M696.8,265.6v-23h-6.7c-4.4,0-5.8,3.5-6.7,7.2l-1.6,6.9c-0.9,3.9-2.2,7-3.5,8.4v0.5
	L696.8,265.6L696.8,265.6z"/>
<path class="st2" d="M734.1,272.9c-11.4,0-19.7-7.9-19.7-18.7c0-10.8,8.4-18.7,19.5-18.7c8.6,0,19,5.6,19,19.3v1.5h-31.3
	c0.8,6,5.4,10.4,12.5,10.4c4.2,0,9.2-1.5,10.6-5.2h7.4C749.8,269.3,741.4,272.9,734.1,272.9 M721.7,223.2h7.4v7.4h-7.4V223.2z
	 M745.3,250.8c-1.1-5.4-5.3-9.1-11.6-9.1c-6.2,0-10.6,3.9-11.9,9.1H745.3z M737.8,223.2h7.4v7.4h-7.4V223.2z"/>
<polygon class="st2" points="786.6,236.3 786.6,250.5 792.6,250.5 801.1,236.3 809,236.3 798.5,253.4 809.8,272.1 801.8,272.1 
	792.7,257 786.6,257 786.6,272.1 779.9,272.1 779.9,257 773.8,257 764.7,272.1 756.7,272.1 768,253.4 757.5,236.3 765.4,236.3 
	773.9,250.5 779.9,250.5 779.9,236.3 "/>
<path class="st2" d="M814.9,256l-0.1-19.7h7.2l0,10.2h0.2c3-3.7,6.9-5.5,11.5-5.5c8.8,0,15.9,6.6,15.9,15.7
	c0,9.3-7.3,16.2-17.3,16.2C822.3,272.9,814.9,265.8,814.9,256 M832.2,266.6c5.7,0,9.8-4,9.8-9.6s-4.2-9.7-9.8-9.7
	c-5.6,0-9.8,4.1-9.8,9.7S826.6,266.6,832.2,266.6"/>
</svg>
