<svg width="305" height="77" viewBox="0 0 305 77" fill="none" xmlns="http://www.w3.org/2000/svg">
<path d="M57.128 46.2472H42.8305L40.7084 50.8062H31.6353V49.4574L47.956 14.0688H51.9441L68.3187 49.4574V50.8062H59.2502L57.128 46.2472ZM49.9343 28.7845L45.8384 38.3161H54.1291L49.9343 28.7845Z" fill="#333333"/>
<path d="M102.206 31.9457C105.16 33.4474 106.558 36.1405 106.558 39.3552C106.508 45.6767 102.673 50.8067 95.2638 50.8067H78.2686V14.5594H93.7621C95.2387 14.5367 96.7049 14.8083 98.0755 15.3582C99.446 15.9082 100.693 16.7256 101.745 17.7626C102.796 18.7997 103.63 20.0357 104.199 21.3986C104.767 22.7615 105.059 24.2239 105.056 25.7007C105.056 27.8768 103.968 30.516 102.206 31.9682V31.9457ZM87.2293 22.8502V28.6951H93.0742C96.752 28.6951 96.752 22.8502 93.0202 22.8502H87.2293ZM87.2293 36.4238V42.5879H94.6388C98.3706 42.5879 98.3211 36.4238 94.5894 36.4238H87.2293Z" fill="#333333"/>
<path d="M117.733 50.8069V14.5596H133.694C151.049 14.609 151.049 41.536 133.694 41.536H127.009V50.8114L117.733 50.8069ZM133.649 22.8278C131.473 22.7739 129.153 22.8278 127.018 22.8278V33.1913H133.649C138.725 33.1913 139.045 22.8773 133.649 22.8278Z" fill="#333333"/>
<path d="M161.239 50.856H157.921V14.5368H167.403V32.3097L185.747 14.3794H189.115V50.8065H179.529V32.9841L161.239 50.856Z" fill="#333333"/>
<path d="M206.732 54.8981H199.089V42.7587H202.766L215.203 14.0513H219.191L232.04 42.7587H235.826V54.8981H228.187V50.91H206.732V54.8981ZM212.127 42.6732H222.387L217.154 29.5627L212.127 42.6732Z" fill="#333333"/>
<path d="M269.793 46.2472H255.495L253.369 50.8062H244.3V49.4574L260.621 14.0688H264.609L280.983 49.4574V50.8062H271.915L269.793 46.2472ZM262.599 28.7845L258.503 38.3161H266.794L262.599 28.7845Z" fill="#333333"/>
<path d="M171.072 65.9446H167.556L166.808 67.5381H165.468V67.3732L169.028 59.7903H169.622L173.16 67.3732V67.5381H171.831L171.072 65.9446ZM169.325 61.7905L167.973 64.8676H170.666L169.325 61.7905ZM175.426 67.5381H174.14V59.8453H177.327C178.155 59.8453 178.814 60.109 179.305 60.6365C179.796 61.1567 180.041 61.7978 180.041 62.5597C180.041 63.307 179.792 63.9408 179.294 64.461C178.803 64.9738 178.147 65.2302 177.327 65.2302H175.426V67.5381ZM175.404 64.1093H177.327C177.759 64.1093 178.114 63.9591 178.393 63.6587C178.671 63.351 178.81 62.9737 178.81 62.5268C178.81 62.0725 178.671 61.6989 178.393 61.4058C178.122 61.1054 177.766 60.9552 177.327 60.9552H175.404V64.1093ZM182.792 60.9772H180.562V59.8453H186.276V60.9772H184.045V67.5381H182.792V60.9772ZM186.723 64.395V63.362H190.426V64.395H186.723ZM193.37 59.8453V63.2521C194.132 63.2521 194.634 63.1898 194.875 63.0653C195.08 62.9554 195.245 62.7539 195.37 62.4608C195.494 62.1605 195.623 61.7538 195.754 61.241C195.908 60.6842 196.172 60.2812 196.546 60.0321C196.919 59.7757 197.473 59.7171 198.205 59.8563V60.7355C197.81 60.7061 197.524 60.7501 197.348 60.8673C197.179 60.9772 197.04 61.2263 196.93 61.6146C196.652 62.633 196.319 63.318 195.93 63.6697L198.458 67.3513V67.5381H197.007L194.809 64.1752C194.59 64.2558 194.11 64.2961 193.37 64.2961V67.5381H192.084V59.8453H193.37ZM202.421 61.9223L200.014 67.5381H198.783V67.3623L202.146 59.8013H202.695L206.069 67.3623V67.5381H204.827L202.432 61.9223H202.421ZM211.812 65.9446H208.295L207.547 67.5381H206.207V67.3732L209.767 59.7903H210.361L213.9 67.3732V67.5381H212.57L211.812 65.9446ZM210.064 61.7905L208.712 64.8676H211.405L210.064 61.7905ZM214.192 63.7027C214.192 62.5011 214.57 61.545 215.324 60.8344C216.086 60.1164 217.013 59.7574 218.105 59.7574C218.625 59.7574 219.116 59.8489 219.577 60.0321C220.046 60.2153 220.464 60.5047 220.83 60.9003C221.196 61.2959 221.446 61.7721 221.577 62.329H220.347C219.973 61.4058 219.222 60.9369 218.094 60.9223C217.31 60.9223 216.676 61.1824 216.192 61.7025C215.716 62.2154 215.478 62.8821 215.478 63.7027C215.478 64.4793 215.72 65.1313 216.203 65.6588C216.694 66.1864 217.324 66.4501 218.094 66.4501C218.636 66.4501 219.108 66.3182 219.511 66.0545C219.922 65.7907 220.211 65.4097 220.38 64.9115H221.621C221.438 65.798 221.013 66.4721 220.347 66.9337C219.687 67.3879 218.936 67.615 218.094 67.615C217.002 67.615 216.079 67.2633 215.324 66.56C214.57 65.8493 214.192 64.8969 214.192 63.7027ZM224.422 60.9772H222.192V59.8453H227.906V60.9772H225.675V67.5381H224.422V60.9772ZM233.749 59.8453V60.9662H230.353V62.9993H233.562V64.1313H230.353V66.3732H233.814V67.5381H229.067V59.8453H233.749ZM236.695 67.5381H235.41V59.8453H238.597C239.425 59.8453 240.084 60.109 240.575 60.6365C241.066 61.1567 241.311 61.7978 241.311 62.5597C241.311 63.307 241.062 63.9408 240.564 64.461C240.073 64.9738 239.417 65.2302 238.597 65.2302H236.695V67.5381ZM236.673 64.1093H238.597C239.029 64.1093 239.384 63.9591 239.663 63.6587C239.941 63.351 240.08 62.9737 240.08 62.5268C240.08 62.0725 239.941 61.6989 239.663 61.4058C239.392 61.1054 239.036 60.9552 238.597 60.9552H236.673V64.1093Z" fill="#FF9015"/>
<path d="M304.987 14.5322C304.987 17.3005 304.167 20.0068 302.629 22.3087C301.092 24.6106 298.906 26.4047 296.348 27.4638C293.79 28.523 290.976 28.7997 288.261 28.2588C285.546 27.718 283.053 26.384 281.096 24.4256C279.14 22.4672 277.808 19.9724 277.27 17.257C276.732 14.5415 277.011 11.7275 278.073 9.17085C279.134 6.61424 280.931 4.43001 283.234 2.89454C285.537 1.35907 288.244 0.541375 291.013 0.544933C292.85 0.544933 294.668 0.906723 296.365 1.60965C298.062 2.31257 299.604 3.34287 300.903 4.64171C302.202 5.94055 303.232 7.48249 303.935 9.1795C304.638 10.8765 305 12.6954 305 14.5322" fill="#F29400"/>
<path d="M-0.000488281 22.7917V14.501H27.9741V22.7917H18.5997V50.7798H9.42777V22.7917H-0.000488281Z" fill="#333333"/>
</svg>
