<?xml version="1.0" encoding="utf-8"?>
<!-- Generator: Adobe Illustrator 25.4.1, SVG Export Plug-In . SVG Version: 6.00 Build 0)  -->
<svg version="1.1" id="Слой_1" xmlns="http://www.w3.org/2000/svg" xmlns:xlink="http://www.w3.org/1999/xlink" x="0px" y="0px"
	 viewBox="0 0 817 241" style="enable-background:new 0 0 817 241;" xml:space="preserve">
<style type="text/css">
	.st0{fill:#020001;}
	.st1{fill:#EA6300;}
	.st2{fill:#181815;}
</style>
<polygon class="st0" points="58.7,34.8 37.3,34.8 37.3,93 22,93 22,34.8 0.7,34.8 0.7,21.3 58.7,21.3 "/>
<polygon class="st0" points="815.6,34.8 794.2,34.8 794.2,93 778.9,93 778.9,34.8 757.6,34.8 757.6,21.3 815.6,21.3 "/>
<path class="st0" d="M112.6,77.7H81.5L75.6,93H59.7l29.8-71.7h15.3L134.8,93h-16.3L112.6,77.7z M107.7,65.1L97.1,37.6L86.5,65.1
	H107.7z"/>
<path class="st0" d="M206.9,62c2.2,2.9,3.2,6.6,3.2,10.9c0,6.4-2.2,11.3-6.7,14.9c-4.5,3.5-10.9,5.3-19.3,5.3h-33V21.3h31.2
	c7.8,0,13.8,1.6,18.2,4.8s6.5,7.8,6.5,13.7c0,3.5-0.8,6.7-2.5,9.4c-1.7,2.7-4,4.8-7,6.4C201.6,56.9,204.8,59,206.9,62 M166.6,51H181
	c3.4,0,5.9-0.7,7.6-2.2s2.6-3.6,2.6-6.5c0-2.8-0.9-5-2.6-6.5c-1.8-1.5-4.3-2.2-7.6-2.2h-14.4L166.6,51L166.6,51z M194.5,71.5
	c0-5.9-3.6-8.9-10.9-8.9h-17v18.1h17C190.9,80.7,194.5,77.7,194.5,71.5"/>
<path class="st0" d="M272.1,24.5c4.4,2.1,7.7,5.1,10.1,9s3.5,8.5,3.5,13.8c0,5.3-1.2,9.9-3.5,13.8c-2.4,3.9-5.7,6.9-10.1,9
	c-4.4,2.1-9.5,3.1-15.5,3.1h-13.5V93h-15.5V21.3h29C262.6,21.3,267.8,22.4,272.1,24.5 M266.4,56.5c2.4-2.1,3.6-5.2,3.6-9.2
	c0-4-1.2-7.1-3.6-9.3c-2.4-2.1-6-3.2-10.6-3.2h-12.6v24.9h12.6C260.5,59.7,264,58.7,266.4,56.5"/>
<path class="st0" d="M732,24.5c4.4,2.1,7.7,5.1,10.1,9c2.4,3.9,3.5,8.5,3.5,13.8c0,5.3-1.2,9.9-3.5,13.8s-5.7,6.9-10.1,9
	c-4.4,2.1-9.5,3.1-15.5,3.1H703V93h-15.5V21.3h29C722.4,21.3,727.6,22.4,732,24.5 M726.3,56.5c2.4-2.1,3.6-5.2,3.6-9.2
	c0-4-1.2-7.1-3.6-9.3c-2.4-2.1-6-3.2-10.6-3.2H703v24.9h12.6C720.3,59.7,723.8,58.7,726.3,56.5"/>
<polygon class="st0" points="303.4,21.3 318.8,21.3 318.8,68 350.8,21.3 365.3,21.3 365.3,93 350,93 350,46.4 318,93 303.4,93 "/>
<path class="st0" d="M454.8,93.1l-72.9-0.1c9.8-23.9,19.5-47.8,29.2-71.7h15.4L454.8,93.1z M402.7,79.5H433l-14.7-40.8L402.7,79.5z"
	/>
<path class="st0" d="M519.7,77.7h-31.1L482.7,93h-15.9l29.8-71.7h15.3L541.9,93h-16.3L519.7,77.7z M514.8,65.1l-10.6-27.5
	l-10.6,27.5H514.8z"/>
<path class="st0" d="M653.4,77.7h-31.1L616.4,93h-15.9l29.8-71.7h15.3L675.6,93h-16.3L653.4,77.7z M648.5,65.1l-10.6-27.5
	l-10.6,27.5H648.5z"/>
<path class="st1" d="M596.8,25.8c0,14.1-11.5,25.6-25.6,25.6c-14.1,0-25.6-11.5-25.6-25.6c0-14.1,11.5-25.6,25.6-25.6
	S596.8,11.6,596.8,25.8"/>
<path class="st2" d="M26.4,218.5h-6.1v-21.5c0-0.6,0.1-1.1,0.3-1.6l-0.1-0.1c-0.5,0.2-1,0.2-1.7,0.2H8.5c-0.7,0-1.2,0-1.7-0.2
	l-0.1,0.1c0.2,0.5,0.3,1,0.3,1.6v21.5H0.9v-28.6h25.5L26.4,218.5L26.4,218.5z"/>
<path class="st2" d="M64.2,204.2c0,8.9-5.8,15.2-13.9,15.2c-4.8,0-8.5-2.3-10.5-6.5l-0.2,0.1c0.4,1.4,0.6,3.6,0.6,6v11.9H34v-41h5.9
	c0,2.5-0.1,4.5-0.4,5.5l0.2,0.1c2.1-4.2,5.8-6.5,10.5-6.5C58.4,189,64.2,195.3,64.2,204.2 M39.8,204.2c0,5.6,3.8,9.5,9.3,9.5
	c5.4,0,8.6-3.6,8.6-9.5s-3.2-9.5-8.6-9.5C43.7,194.6,39.8,198.5,39.8,204.2"/>
<path class="st2" d="M99.5,204.2c0,8.7-6.6,15.2-15.7,15.2s-15.7-6.5-15.7-15.2c0-8.7,6.6-15.2,15.7-15.2
	C92.9,189,99.5,195.5,99.5,204.2 M74.6,204.2c0,5.6,3.7,9.3,9.2,9.3c5.5,0,9.2-3.7,9.2-9.3c0-5.6-3.7-9.3-9.2-9.3
	C78.4,194.9,74.6,198.6,74.6,204.2"/>
<path class="st2" d="M131.8,204.2v1.2h-18.4c-2.1,0-3.1-0.1-3.8-0.5l-0.1,0.1l0.2,0.8c0.6,5.1,3.8,7.9,8.9,7.9
	c3.4,0,5.8-1.2,8.7-4.2l3.7,4c-3.4,4-7.4,6-12.5,6c-8.9,0-14.9-6-14.9-15c0-9.3,5.8-15.4,14.6-15.4
	C126.6,189,131.8,194.7,131.8,204.2 M109.8,201.3l0.1,0.1c0.7-0.4,2-0.6,3.5-0.6h7.2c3,0,4,0.1,4.6,0.6l0.1-0.1
	c-0.4-4.3-3.1-6.8-7.5-6.8C113.5,194.5,110.4,197,109.8,201.3"/>
<path class="st2" d="M153.6,215l-1.4-5.1c-0.7-2.9-1.7-3.9-4-3.9h-2.7c-0.7,0-1.6-0.1-1.9-0.1l-0.1,0.1c0.2,0.8,0.3,1.4,0.3,2.6v10
	h-6.1v-28.6h6.1v8.9c0,1-0.1,1.7-0.3,2.5l0.1,0.1c0.4-0.1,1.2-0.1,1.9-0.1h2.7c2.4,0,3-0.6,4.1-3.5l2.1-5.1c0.8-2,2.5-2.9,5.6-2.9h3
	v5.5h-1.3c-1.8,0-2.5,0.4-3.2,2.2l-1,2.6c-0.8,2.4-2.7,3.5-6.1,3.5v0.2c3.6,0.1,5.3,1.1,6.1,3.7l1.2,4c0.5,1.5,0.9,1.8,2.9,1.8h1.5
	v5.5h-3.6C156.2,218.7,154.3,217.5,153.6,215"/>
<path class="st2" d="M193,189.9v5.6h-9c-0.7,0-1.2,0-1.7-0.2l-0.1,0.1c0.2,0.5,0.3,1,0.3,1.6v21.5h-6.1v-21.5c0-0.6,0.1-1.1,0.3-1.6
	l-0.1-0.1c-0.5,0.2-1,0.2-1.7,0.2h-9v-5.6H193z"/>
<path class="st2" d="M245.4,204.2c0,8.7-6.6,15.2-15.7,15.2s-15.7-6.5-15.7-15.2c0-8.7,6.6-15.2,15.7-15.2
	C238.8,189,245.4,195.5,245.4,204.2 M220.5,204.2c0,5.6,3.7,9.3,9.2,9.3c5.5,0,9.2-3.7,9.2-9.3c0-5.6-3.7-9.3-9.2-9.3
	C224.2,194.9,220.5,198.6,220.5,204.2"/>
<path class="st2" d="M274.6,189.9v5.6h-9c-0.7,0-1.2,0-1.7-0.2l-0.1,0.1c0.2,0.5,0.3,1,0.3,1.6v21.5h-6.1v-21.5
	c0-0.6,0.1-1.1,0.3-1.6l-0.1-0.1c-0.5,0.2-1,0.2-1.7,0.2h-9v-5.6H274.6z"/>
<path class="st2" d="M335,181.5c10.8,0,19.5,7.9,19.5,18.7c0,10.7-8.9,18.8-18.9,18.8c-4.7,0-9.3-1.3-12.7-5.2h-0.4v27.2h-7.2v-37.7
	C315.3,190,322.9,181.5,335,181.5 M334.9,212.6c7.1,0,12-5.6,12-12.5c0-6.8-4.8-12.4-12-12.4c-7.3,0-12.2,5.5-12.2,12.3
	C322.7,207,327.7,212.6,334.9,212.6"/>
<path class="st2" d="M361.2,200.2c0-10.8,9-18.7,19.6-18.7c10.6,0,19.6,7.9,19.6,18.7c0,10.8-9,18.7-19.6,18.7
	C370.2,218.9,361.2,211,361.2,200.2 M380.8,212.6c7.2,0,12-5.5,12-12.4c0-6.9-4.9-12.4-12-12.4c-7.2,0-12,5.5-12,12.4
	C368.7,207.1,373.6,212.6,380.8,212.6"/>
<path class="st2" d="M426.9,218.9c-11.3,0-19.8-7.9-19.8-18.7c0-10.8,8.4-18.7,19.6-18.7c8.6,0,16.7,4.7,18.7,13.5H438
	c-1.8-4.8-6.1-7.2-11.1-7.2c-7.6,0-12.2,5.6-12.2,12.5c0,7,4.8,12.3,12.3,12.3c4.9,0,9.4-2.2,11.1-7.4h7.4
	C442.9,214.6,435.2,218.9,426.9,218.9"/>
<polygon class="st2" points="472.2,213.7 460.4,189.1 460.2,189.1 460.2,218.1 453.2,218.1 453.2,182.3 464.3,182.3 476,206.8 
	476.2,206.8 487.8,182.3 498.9,182.3 498.9,218.1 492,218.1 492,189.1 491.7,189.1 480,213.7 "/>
<path class="st2" d="M506.6,200.2c0-10.8,9-18.7,19.6-18.7s19.6,7.9,19.6,18.7c0,10.8-9,18.7-19.6,18.7
	C515.6,218.9,506.6,211,506.6,200.2 M526.2,212.6c7.2,0,12-5.5,12-12.4c0-6.9-4.9-12.4-12-12.4c-7.2,0-12,5.5-12,12.4
	C514.1,207.1,519,212.6,526.2,212.6"/>
<path class="st2" d="M549.5,218.5V211h0.2c1.4,0,3.1-0.6,4.1-1.8c1.3-1.5,2-4.1,2.7-8l1-5.7c1.2-6.6,3.5-13.3,13.5-13.3h14v36h-7.2
	v-29.4h-5.6c-5.6,0-6.8,1.5-8.1,9.2l-0.9,5.4c-0.8,4.9-2,9.2-4.6,11.9c-2,2-4.7,3.2-8.3,3.2L549.5,218.5L549.5,218.5z"/>
<path class="st2" d="M592.9,200.2c0-10.8,9-18.7,19.6-18.7s19.6,7.9,19.6,18.7c0,10.8-9,18.7-19.6,18.7
	C601.9,218.9,592.9,211,592.9,200.2 M612.5,212.6c7.2,0,12-5.5,12-12.4c0-6.9-4.9-12.4-12-12.4c-7.2,0-12,5.5-12,12.4
	C600.5,207.1,605.3,212.6,612.5,212.6"/>
<path class="st2" d="M640.4,226.9h-6.9v-15.4h4.7c2-2.3,3.1-5.7,4.1-9.9l1.5-6.7c1.5-6.4,4.2-12.8,13.1-12.8h13.9v29.4h5.2v15.4
	h-6.9v-8.7h-28.7L640.4,226.9L640.4,226.9z M663.8,211.6v-23h-6.7c-4.4,0-5.8,3.5-6.7,7.2l-1.6,6.9c-0.9,3.9-2.2,7-3.5,8.4v0.5
	L663.8,211.6L663.8,211.6z"/>
<path class="st2" d="M701.1,218.9c-11.4,0-19.7-7.9-19.7-18.7c0-10.8,8.4-18.7,19.5-18.7c8.6,0,19,5.6,19,19.3v1.5h-31.3
	c0.8,6,5.4,10.4,12.5,10.4c4.2,0,9.2-1.5,10.6-5.2h7.4C716.8,215.3,708.4,218.9,701.1,218.9 M688.7,169.2h7.4v7.4h-7.4V169.2z
	 M712.3,196.8c-1.1-5.4-5.3-9.1-11.6-9.1c-6.2,0-10.6,3.9-11.9,9.1H712.3z M704.8,169.2h7.4v7.4h-7.4V169.2z"/>
<polygon class="st2" points="753.6,182.3 753.6,196.5 759.6,196.5 768.1,182.3 776,182.3 765.5,199.4 776.8,218.1 768.8,218.1 
	759.7,203 753.6,203 753.6,218.1 746.9,218.1 746.9,203 740.8,203 731.7,218.1 723.7,218.1 735,199.4 724.5,182.3 732.4,182.3 
	740.9,196.5 746.9,196.5 746.9,182.3 "/>
<path class="st2" d="M781.9,202l-0.1-19.7h7.2l0,10.2h0.2c3-3.7,6.9-5.5,11.5-5.5c8.8,0,15.9,6.6,15.9,15.7
	c0,9.3-7.3,16.2-17.3,16.2C789.3,218.9,781.9,211.8,781.9,202 M799.2,212.6c5.7,0,9.8-4,9.8-9.6s-4.2-9.7-9.8-9.7
	c-5.6,0-9.8,4.1-9.8,9.7S793.6,212.6,799.2,212.6"/>
</svg>
