<svg width="49" height="49" viewBox="0 0 49 49" fill="none" xmlns="http://www.w3.org/2000/svg">
<g clip-path="url(#clip0)">
<path d="M48.918 13.7608C48.6673 6.94462 46.929 2.75764 43.7514 1.31591C42.2368 0.628678 41.1087 0.990611 40.429 1.41495C38.9391 2.34522 37.8553 4.61304 37.2076 8.15561C36.7437 10.6924 36.6748 12.9474 36.6722 13.0421C36.672 13.049 36.6719 13.056 36.6719 13.0629V16.1227C36.6719 16.5242 36.9973 16.8495 37.3986 16.8495C37.8 16.8495 38.1254 16.5242 38.1254 16.1227V13.0743C38.1307 12.9134 38.2094 10.7492 38.6406 8.39981C39.1958 5.37372 40.1046 3.33091 41.1992 2.64775C41.7648 2.29483 42.385 2.29221 43.1509 2.6397C46.4283 4.12668 47.3057 9.5265 47.4647 13.7946C47.6431 18.5826 46.9657 23.0576 46.9588 23.1023C46.8978 23.499 47.1699 23.8701 47.5666 23.9311C47.6041 23.9369 47.6413 23.9397 47.678 23.9397C48.0305 23.9397 48.3402 23.6828 48.3954 23.3235C48.4243 23.1362 49.0991 18.6845 48.918 13.7608Z" fill="#E6E6FF"/>
<path d="M12.6905 8.15603C12.0428 4.61346 10.9589 2.34564 9.46913 1.41537C8.78935 0.990837 7.66131 0.629389 6.14671 1.31633C2.96898 2.75806 1.23073 6.94504 0.980042 13.7612C0.79893 18.685 1.47386 23.1367 1.50264 23.3239C1.55797 23.6831 1.86748 23.9401 2.22001 23.9401C2.25683 23.9401 2.29405 23.9374 2.33155 23.9315C2.72827 23.8704 3.00027 23.4993 2.93923 23.1025C2.93235 23.0581 2.25654 18.6015 2.43262 13.8145C2.58989 9.53835 3.46609 4.12865 6.74722 2.64003C7.51324 2.29253 8.13332 2.29505 8.69894 2.64807C9.79356 3.33133 10.7022 5.37414 11.2576 8.40013C11.6887 10.7495 11.7674 12.9137 11.7727 13.0746V15.7354C11.7727 16.1369 12.0981 16.4622 12.4995 16.4622C12.9008 16.4622 13.2262 16.1369 13.2262 15.7354V13.0632C13.2262 13.0563 13.2262 13.0493 13.226 13.0425C13.2232 12.9478 13.1543 10.6928 12.6905 8.15603Z" fill="#E6E6FF"/>
<path d="M44.0765 15.6568L27.1841 8.3483C25.7564 7.73054 24.136 7.73025 22.708 8.34743L5.79591 15.6568C2.52321 17.1744 0.91394 20.245 1.41958 23.2133L2.7676 31.128C3.27963 34.1343 4.99491 36.8038 7.51923 38.5228L20.1842 47.1478C23.0561 49.1036 26.8359 49.1026 29.7066 47.1453L42.3533 38.5228C44.8776 36.8037 46.5929 34.1343 47.1049 31.128L48.453 23.2133C48.9585 20.2451 47.7602 17.385 44.0765 15.6568Z" fill="#366EF7"/>
<path d="M44.0763 15.6568L27.1839 8.34825C26.4698 8.03933 25.7076 7.88486 24.9453 7.88477V48.6139C26.6082 48.6136 28.2709 48.124 29.7064 47.1453L42.3531 38.5228C44.8774 36.8036 46.5927 34.1342 47.1047 31.1279L48.4527 23.2133C48.9583 20.245 47.76 17.3849 44.0763 15.6568Z" fill="#5785F7"/>
<path d="M44.0764 15.6568L27.184 8.34825C26.4699 8.03933 25.7076 7.88486 24.9454 7.88477V8.63751L41.1693 15.6568C44.853 17.3849 46.0513 20.2449 45.5457 23.2133L44.1977 31.1279C43.6857 34.1343 41.9704 36.8037 39.4461 38.5228L26.7993 47.1453C26.2141 47.5442 25.5907 47.8605 24.9453 48.097V48.6139C26.6082 48.6136 28.2709 48.124 29.7064 47.1453L42.3532 38.5228C44.8775 36.8036 46.5928 34.1342 47.1048 31.1279L48.4528 23.2133C48.9584 20.245 47.7601 17.3849 44.0764 15.6568Z" fill="#4D7EF7"/>
<path d="M35.2634 21.4797C34.9816 21.4797 34.6953 21.4231 34.4205 21.3035L26.6052 17.9007C25.5508 17.4417 24.3415 17.4417 23.2872 17.9007L15.4718 21.3035C14.4036 21.7689 13.1594 21.2814 12.6933 20.2155C12.2271 19.1496 12.7153 17.9084 13.7836 17.4432L21.599 14.0405C23.7261 13.114 26.1662 13.1142 28.2935 14.0405L36.1087 17.4432C37.1772 17.9085 37.6653 19.1496 37.1991 20.2155C36.8526 21.0073 36.0772 21.4796 35.2634 21.4797Z" fill="#F5F5FF"/>
</g>
<defs>
<clipPath id="clip0">
<rect width="48" height="48" fill="white" transform="translate(0.949219 0.772461)"/>
</clipPath>
</defs>
</svg>
