<svg width="34" height="34" viewBox="0 0 34 34" fill="none" xmlns="http://www.w3.org/2000/svg">
<g clip-path="url(#clip0_3782_689)">
<path d="M33.1469 8.7245C32.9029 8.54 32.5864 8.48043 32.2919 8.56376L18.4899 12.47C18.0695 12.589 17.7793 12.9727 17.7793 13.4096V26.6304C17.2042 26.2969 16.5374 26.1049 15.8262 26.1049C13.6723 26.1049 11.9199 27.8572 11.9199 30.0111C11.9199 32.165 13.6723 33.9174 15.8262 33.9174C17.9801 33.9174 19.7324 32.165 19.7324 30.0111C19.7324 29.9097 19.7324 18.0544 19.7324 18.0544L31.5813 14.7009V22.7242C31.0062 22.3907 30.3394 22.1987 29.6282 22.1987C27.4743 22.1987 25.7219 23.951 25.7219 26.1049C25.7219 28.2588 27.4743 30.0111 29.6282 30.0111C31.7821 30.0111 33.5344 28.2588 33.5344 26.1049C33.5344 26.0183 33.5344 9.50341 33.5344 9.50341C33.5345 9.19742 33.391 8.90907 33.1469 8.7245ZM15.8262 31.9643C14.7493 31.9643 13.8731 31.0881 13.8731 30.0111C13.8731 28.9342 14.7493 28.058 15.8262 28.058C16.9032 28.058 17.7793 28.9342 17.7793 30.0111C17.7793 31.0881 16.9032 31.9643 15.8262 31.9643ZM29.6282 28.058C28.5513 28.058 27.6751 27.1819 27.6751 26.1049C27.6751 25.028 28.5513 24.1518 29.6282 24.1518C30.7052 24.1518 31.5814 25.028 31.5814 26.1049C31.5814 27.1819 30.7052 28.058 29.6282 28.058ZM31.5814 12.6712L19.7325 16.0246V14.1482L31.5814 10.7947V12.6712Z" fill="#00BAC3"/>
<path d="M13.8277 7.51628C11.661 5.92801 10.0737 4.35497 8.97515 2.70712L7.84957 1.01892C7.61084 0.660846 7.16585 0.501276 6.75407 0.62595C6.34222 0.750689 6.06052 1.13031 6.06052 1.56065V16.8647C5.48546 16.5312 4.81866 16.3392 4.1074 16.3392C1.95351 16.3392 0.201172 18.0915 0.201172 20.2454C0.201172 22.3993 1.95351 24.1517 4.1074 24.1517C6.2613 24.1517 8.01364 22.3993 8.01364 20.2454V4.71121C9.18075 6.21505 10.7147 7.65612 12.6729 9.09159C13.4244 9.64237 13.873 10.5264 13.873 11.4565C13.873 13.0719 12.5587 14.3862 10.9433 14.3862C10.404 14.3862 9.96675 14.8234 9.96675 15.3627C9.96675 15.902 10.404 16.3393 10.9433 16.3393C13.6357 16.3392 15.8261 14.1488 15.8261 11.4564C15.8261 9.9065 15.079 8.43353 13.8277 7.51628ZM4.1074 22.1986C3.03046 22.1986 2.15429 21.3224 2.15429 20.2454C2.15429 19.1685 3.03046 18.2923 4.1074 18.2923C5.18435 18.2923 6.06052 19.1685 6.06052 20.2454C6.06052 21.3224 5.18435 22.1986 4.1074 22.1986Z" fill="#00BAC3"/>
</g>
<defs>
<clipPath id="clip0_3782_689">
<rect width="33.3333" height="33.3333" fill="white" transform="translate(0.201172 0.583984)"/>
</clipPath>
</defs>
</svg>
