<svg width="33" height="32" viewBox="0 0 33 32" fill="none" xmlns="http://www.w3.org/2000/svg">
<path fill-rule="evenodd" clip-rule="evenodd" d="M0.59375 16C0.59375 7.16344 7.75719 0 16.5938 0C25.4303 0 32.5938 7.16344 32.5938 16C32.5938 24.8366 25.4303 32 16.5938 32C7.75719 32 0.59375 24.8366 0.59375 16ZM16.5829 16.2569C18.9423 16.2569 20.8602 14.4053 20.8602 12.1291C20.8602 9.85207 18.9423 8 16.5829 8C14.224 8 12.3056 9.85207 12.3056 12.1291C12.3056 14.4053 14.224 16.2569 16.5829 16.2569ZM20.8081 18.634C20.0347 19.1029 19.195 19.4354 18.3244 19.6269L20.7155 21.9352C21.2053 22.4071 21.2053 23.1734 20.7155 23.6457C20.2262 24.1181 19.4331 24.1181 18.9442 23.6457L16.5933 21.3774L14.2444 23.6457C13.9995 23.8817 13.6786 23.9998 13.3576 23.9998C13.0372 23.9998 12.7168 23.8817 12.4719 23.6457C11.9826 23.1734 11.9826 22.4076 12.4714 21.9352L14.8627 19.6269C13.9921 19.4354 13.1524 19.1024 12.379 18.634C11.7937 18.2778 11.6179 17.5315 11.9867 16.966C12.3544 16.3998 13.1278 16.2293 13.7141 16.5855C15.4652 17.6488 17.7209 17.6491 19.473 16.5855C20.0593 16.2293 20.8325 16.3998 21.201 16.966C21.5698 17.531 21.3934 18.2778 20.8081 18.634Z" fill="#0A1124"/>
<path d="M16.5829 10.4197C17.5595 10.4197 18.3539 11.1862 18.3539 12.129C18.3539 13.0709 17.5595 13.838 16.5829 13.838C15.607 13.838 14.8119 13.0709 14.8119 12.129C14.8119 11.1862 15.607 10.4197 16.5829 10.4197Z" fill="#0A1124"/>
</svg>
