<svg width="72" height="73" viewBox="0 0 72 73" fill="none" xmlns="http://www.w3.org/2000/svg">
<g clip-path="url(#clip0)">
<path fill-rule="evenodd" clip-rule="evenodd" d="M22.312 14.0775C25.9657 12.477 30.7556 11.5067 35.9996 11.5067C41.2437 11.5067 46.0335 12.477 49.6872 14.0775L47.6881 7.69365C46.0295 2.39771 41.9991 2.16357 35.9996 2.16357C30.0001 2.16357 25.9697 2.39771 24.3113 7.69351L22.312 14.0775Z" fill="#CBE558"/>
<path fill-rule="evenodd" clip-rule="evenodd" d="M35.9998 11.5066C30.7558 11.5066 25.966 12.4769 22.3123 14.0773C17.9789 15.9755 15.2437 18.7599 15.2437 21.863C15.2437 23.8901 16.4359 25.8725 18.6721 27.5645C18.6816 25.8676 20.0704 24.4823 21.7667 24.4823H22.3607C22.3607 18.7662 30.2287 17.1319 35.9997 17.1319C41.7706 17.1319 49.6387 18.7663 49.6387 24.4823H50.2327C51.9289 24.4823 53.3177 25.8676 53.3273 27.5645C55.5635 25.8725 56.7557 23.8901 56.7557 21.863C56.7557 18.7599 54.0203 15.9755 49.6871 14.0773C46.0335 12.4769 41.2438 11.5066 35.9998 11.5066Z" fill="#E0EF9B"/>
<path fill-rule="evenodd" clip-rule="evenodd" d="M35.9999 17.1318C30.229 17.1318 22.3608 18.7663 22.3608 24.4823C26.3069 24.4823 32.873 22.9697 35.9999 17.5537C39.1269 22.9697 45.6929 24.4823 49.639 24.4823C49.639 18.7663 41.7709 17.1318 35.9999 17.1318Z" fill="#FF5D7D"/>
<path fill-rule="evenodd" clip-rule="evenodd" d="M36 17.5537C32.8731 22.9697 26.307 24.4823 22.361 24.4823H21.767C20.0707 24.4823 18.6819 25.8676 18.6724 27.5645V27.5821C18.6724 28.4341 19.0201 29.2087 19.5805 29.7704C20.1415 30.3327 20.9155 30.6818 21.767 30.6818H22.361C22.3611 38.1833 31.0403 44.3208 36 44.3208C40.9597 44.3208 49.6391 38.1833 49.6391 30.6818H50.2331C51.0846 30.6818 51.8586 30.3327 52.4196 29.7704C52.9799 29.2086 53.3277 28.434 53.3277 27.5821C53.3277 27.5762 53.3277 27.5703 53.3277 27.5645C53.3181 25.8676 51.9293 24.4823 50.2331 24.4823H49.6391C45.693 24.4823 39.127 22.9697 36 17.5537Z" fill="#FFDCD5"/>
<path fill-rule="evenodd" clip-rule="evenodd" d="M30.3749 42.9317V42.519C26.2921 40.1611 22.3608 35.7305 22.3608 30.6819H21.7668C20.9153 30.6819 20.1413 30.3329 19.5804 29.7705C17.7012 31.7241 16.984 34.0444 18.2496 36.9975C19.5152 39.9506 19.1097 42.381 16.8574 44.6334C14.3941 47.0968 13.3351 51.6629 19.1252 54.4763L30.375 50.6903V42.9317H30.3749Z" fill="#FF5D7D"/>
<path fill-rule="evenodd" clip-rule="evenodd" d="M41.625 42.9316V50.6902L52.8749 54.4761C58.6649 51.6628 57.6059 47.0967 55.1426 44.6332C52.8902 42.3808 52.4846 39.9504 53.7502 36.9973C55.0159 34.0441 54.2987 31.7238 52.4195 29.7703C51.8586 30.3326 51.0846 30.6817 50.2331 30.6817H49.6391C49.6391 35.7302 45.7078 40.1609 41.625 42.5188V42.9316Z" fill="#FF5D7D"/>
<path d="M23.0161 12.7026C24.7636 12.7026 26.1802 11.286 26.1802 9.53857C26.1802 7.79111 24.7636 6.37451 23.0161 6.37451C21.2686 6.37451 19.8521 7.79111 19.8521 9.53857C19.8521 11.286 21.2686 12.7026 23.0161 12.7026Z" fill="#FFC144"/>
<path fill-rule="evenodd" clip-rule="evenodd" d="M28.2938 41.1204C27.5288 42.4951 28.5413 44.731 28.5413 46.081C28.5413 47.431 27.3661 49.7455 28.3122 51.3844C29.2585 53.0233 30.5912 54.3571 35.9997 54.3571C41.4083 54.3571 42.7412 53.0234 43.6874 51.3844C44.6337 49.7456 43.4584 47.431 43.4584 46.081C43.4584 44.731 44.4709 42.4951 43.7059 41.1204C41.1261 43.1155 38.1977 44.3208 35.9997 44.3208C33.8019 44.3208 30.8735 43.1155 28.2938 41.1204Z" fill="#FFC144"/>
<path fill-rule="evenodd" clip-rule="evenodd" d="M28.3121 51.3843L19.125 54.476C13.9527 56.2167 10.6875 59.8199 10.6875 65.7261V71.3511H61.3119V65.7261C61.3119 59.8201 58.0467 56.2167 52.8746 54.476L43.6873 51.3843C42.741 53.0231 41.4083 54.3569 35.9996 54.3569C30.5911 54.3569 29.2584 53.0231 28.3121 51.3843Z" fill="#FFC144"/>
<path d="M36.0003 12.9128C37.8661 12.8385 37.8647 10.174 36.0003 10.1003H35.9993C34.1336 10.175 34.136 12.8394 36.0003 12.9128Z" fill="black"/>
<path d="M55.888 54.2243C57.6112 52.792 58.2415 51.2374 58.4417 50.0455C58.811 47.8463 57.9494 45.4513 56.137 43.6388C54.3202 41.8219 53.9929 40.0014 55.0428 37.5513C56.2757 34.6752 55.9936 32.0373 54.2075 29.6954C54.4377 29.2633 54.5996 28.7894 54.6788 28.2882C61.1892 22.8106 57.8524 16.2138 50.841 13.0548L49.0304 7.27316C48.128 4.39176 46.4683 2.5434 43.9563 1.62216C41.771 0.821027 39.1713 0.757324 35.9999 0.757324C31.3975 0.757324 26.6531 0.757324 24.0988 4.77398C23.5027 4.01995 22.247 4.13442 21.7937 4.97606C20.8833 4.41792 19.6479 5.13173 19.6763 6.19865C19.1875 6.19583 18.7112 6.44826 18.4495 6.90191C18.1877 7.35542 18.2072 7.89416 18.4539 8.31617C17.5134 8.83353 17.5138 10.2443 18.4539 10.7612C18.2071 11.1832 18.1877 11.7222 18.4498 12.1757C18.7118 12.629 19.1877 12.8814 19.6763 12.8787C19.6748 13.1655 19.7611 13.448 19.9243 13.6854C19.4397 13.9531 18.978 14.2342 18.5408 14.528C12.8845 18.2042 12.1733 24.1018 17.321 28.2882C17.4002 28.7893 17.5621 29.2632 17.7923 29.6954C13.0885 36.1555 20.6914 38.7825 15.8628 43.6389C14.0502 45.4514 13.1886 47.8464 13.5579 50.0456C13.7582 51.2376 14.3883 52.7922 16.1117 54.2244C11.6301 56.5556 9.28125 60.4859 9.28125 65.7262V71.3512C9.28125 72.1277 9.91097 72.7575 10.6875 72.7575H61.3123C62.0888 72.7575 62.7185 72.1277 62.7185 71.3512V65.7262C62.7185 60.4857 60.3697 56.5554 55.888 54.2243ZM55.6679 49.5797C55.4522 50.8653 54.4501 52.0244 52.7592 52.9535L45.424 50.4849C45.5566 49.363 45.2976 48.2389 45.0901 47.3389C44.9795 46.8585 44.8649 46.362 44.8649 46.0811C44.8649 45.766 44.9733 45.2479 45.0779 44.747C45.2765 43.7974 45.5112 42.6747 45.3348 41.6084C45.4278 41.529 45.5203 41.4486 45.6121 41.3671C48.7001 38.6307 50.5653 35.3585 50.9646 32.0288C51.3841 31.9599 51.7843 31.8328 52.1565 31.6559C53.1528 33.1077 53.2389 34.6215 52.458 36.4437C50.9453 39.9735 51.4984 42.9777 54.1485 45.6279C55.3187 46.7982 55.8869 48.2757 55.6679 49.5797ZM20.0891 27.7717C20.1061 27.6457 20.106 27.5184 20.0889 27.3934C20.1829 26.5481 20.8995 25.8887 21.7669 25.8887H22.3609C26.6419 25.8887 32.4708 24.3126 35.9999 20.015C39.5293 24.3126 45.358 25.8887 49.6389 25.8887H50.2331C51.1003 25.8887 51.8169 26.5481 51.9108 27.3934C51.894 27.5184 51.8937 27.6458 51.9107 27.7718C51.8165 28.6167 51.1001 29.2757 50.2331 29.2757H49.6389C48.8624 29.2757 48.2327 29.9054 48.2327 30.6819C48.2327 34.6886 45.4221 37.7774 43.7467 39.262C41.2812 41.4469 38.1679 42.9148 35.9999 42.9148C33.8319 42.9148 30.7187 41.447 28.2532 39.262C26.5778 37.7774 23.7673 34.6887 23.7671 30.6819C23.7671 29.9053 23.1374 29.2757 22.3609 29.2757H21.7669C20.8999 29.2755 20.1834 28.6164 20.0891 27.7717ZM24.0492 22.9877C25.1461 20.2798 29.2775 18.9983 33.4712 18.6436C30.9865 21.3795 27.2528 22.6583 24.0492 22.9877ZM38.5286 18.6433C42.7262 18.9979 46.8506 20.2801 47.9492 22.9875C44.7456 22.6579 41.013 21.3793 38.5286 18.6433ZM29.5409 50.6995C29.5357 50.6901 29.5303 50.6808 29.525 50.6717C29.1726 50.0458 29.4264 48.9436 29.6507 47.9706C29.8034 47.3078 29.9477 46.6818 29.9477 46.081C29.9477 45.4749 29.8154 44.8418 29.6752 44.1713C29.6432 44.0185 29.6091 43.8549 29.5762 43.6869C34.1812 46.3766 37.8187 46.3765 42.4236 43.6869C42.3909 43.8548 42.3567 44.0185 42.3246 44.1712C42.1846 44.8417 42.0521 45.4749 42.0521 46.0809C42.0521 46.6815 42.1964 47.3077 42.3491 47.9704C42.5734 48.9437 42.8275 50.0462 42.4745 50.6721C42.4695 50.6807 42.4645 50.6894 42.4596 50.6983C41.8774 51.7064 41.1299 52.9506 35.9998 52.9506C30.8719 52.9506 30.1231 51.7074 29.5409 50.6995ZM21.2585 9.53862C21.2585 8.56929 22.047 7.78081 23.0163 7.78081C25.3483 7.87742 25.3476 11.2002 23.0163 11.2964C22.0471 11.2964 21.2585 10.5079 21.2585 9.53862ZM20.1095 16.8625C22.5243 15.2401 26.0052 14.0044 29.9107 13.3833C31.7418 13.0172 31.3219 10.3849 29.469 10.6057C28.856 10.7031 28.2544 10.8138 27.6656 10.937C27.6409 10.8767 27.6118 10.8177 27.5787 10.7611C28.5192 10.2437 28.5188 8.83296 27.5787 8.31603C27.8255 7.89416 27.8449 7.35542 27.5831 6.90177C27.3502 6.49846 26.9476 6.25419 26.5176 6.20694C28.0604 3.84164 30.7934 3.56981 35.9999 3.56981C42.3408 3.56981 45.052 3.98086 46.3463 8.11367L47.4867 11.7554C45.9467 11.2713 44.2855 10.8847 42.5298 10.6055C41.7632 10.4835 41.0423 11.0065 40.9202 11.7736C40.7983 12.5405 41.3213 13.2612 42.0882 13.3831C45.9941 14.0043 49.4752 15.2398 51.8902 16.8623C54.8579 18.7924 56.7883 21.9363 53.9707 25.0744C53.2838 24.0513 52.1891 23.3245 50.9218 23.1288C49.3284 13.1754 22.6939 13.1656 21.0789 23.1286C19.8112 23.3242 18.7162 24.0512 18.0291 25.0744C15.2098 21.9342 17.146 18.7897 20.1095 16.8625ZM17.8519 45.6276C20.5021 42.9771 21.0549 39.9731 19.5423 36.4433C18.7614 34.6211 18.8474 33.1074 19.8438 31.6555C20.2161 31.8324 20.6161 31.9595 21.0356 32.0284C21.4349 35.3581 23.3002 38.6303 26.3881 41.3667C26.4799 41.4481 26.5723 41.5286 26.6654 41.608C26.4892 42.6742 26.7239 43.7971 26.9224 44.7468C27.0271 45.2477 27.1355 45.7656 27.1355 46.0807C27.1355 46.3615 27.021 46.8581 26.9102 47.3385C26.7028 48.2385 26.4438 49.3626 26.5764 50.4845L19.2408 52.9532C17.55 52.0242 16.548 50.8651 16.3322 49.5796C16.1131 48.2757 16.6812 46.7982 17.8519 45.6276ZM59.906 69.9448H53.9039C53.9152 68.2329 53.4799 66.5923 52.6515 65.3025C52.2319 64.6492 51.3617 64.4595 50.7084 64.8793C50.0549 65.299 49.8655 66.1691 50.2851 66.8224C50.8261 67.6646 51.1065 68.7678 51.0928 69.9447H20.9074C20.8937 68.7678 21.1741 67.6646 21.7151 66.8224C22.1347 66.1691 21.9455 65.299 21.2918 64.8793C20.6382 64.4595 19.7683 64.6489 19.3487 65.3025C18.5203 66.5925 18.0849 68.2329 18.0963 69.9448H12.094V65.7261C12.094 60.8159 14.6106 57.4792 19.5736 55.8088L27.7455 53.0588C29.0806 54.7512 31.2084 55.7633 35.9999 55.7633C40.7914 55.7633 42.9193 54.7512 44.2544 53.0588L52.4261 55.8088C57.3894 57.4792 59.906 60.8159 59.906 65.7261V69.9448Z" fill="black"/>
<path d="M39.1642 29.3253C39.837 29.7137 40.6969 29.4831 41.0852 28.8106C41.3057 28.4008 41.9447 28.4008 42.1652 28.8106C43.1652 30.3929 45.4703 29.0484 44.6008 27.4044C43.3086 25.1282 39.9411 25.1289 38.6496 27.4044C38.2613 28.077 38.4916 28.9372 39.1642 29.3253Z" fill="black"/>
<path d="M27.9143 29.3255C28.5871 29.714 29.4472 29.4833 29.8353 28.8109C30.0558 28.4011 30.6948 28.4011 30.9153 28.8109C31.9153 30.3932 34.2204 29.0487 33.3509 27.4046C32.0587 25.1285 28.6912 25.1292 27.3997 27.4046C27.0112 28.0772 27.2416 28.9374 27.9143 29.3255Z" fill="black"/>
<path d="M32.8963 34.3872C34.5305 36.0899 37.4699 36.0896 39.1038 34.387C39.6529 33.8379 39.6529 32.9475 39.1038 32.3982C38.5545 31.8492 37.6643 31.8492 37.1149 32.3982C36.527 33.0068 35.4714 33.0112 34.8849 32.398C34.3355 31.8489 33.4453 31.8492 32.896 32.3983C32.347 32.9476 32.3472 33.8379 32.8963 34.3872Z" fill="black"/>
</g>
<defs>
<clipPath id="clip0">
<rect width="72" height="72" fill="white" transform="translate(0 0.757324)"/>
</clipPath>
</defs>
</svg>
