<svg width="73" height="73" viewBox="0 0 73 73" fill="none" xmlns="http://www.w3.org/2000/svg">
<g clip-path="url(#clip0)">
<path d="M68.3422 45.6678H27.6543C27.0654 45.6669 26.5009 45.4326 26.0846 45.0161C25.6682 44.5996 25.4341 44.0349 25.4336 43.4461V27.5352C25.4336 27.2624 25.542 27.0008 25.7349 26.8079C25.9277 26.615 26.1894 26.5066 26.4622 26.5066C26.735 26.5066 26.9966 26.615 27.1895 26.8079C27.3824 27.0008 27.4907 27.2624 27.4907 27.5352V43.4461C27.4904 43.4677 27.4945 43.4891 27.5026 43.5091C27.5107 43.5291 27.5227 43.5473 27.5379 43.5627C27.5532 43.578 27.5713 43.5901 27.5913 43.5984C27.6112 43.6066 27.6327 43.6108 27.6543 43.6106H68.3422C68.3639 43.6109 68.3854 43.6068 68.4055 43.5987C68.4256 43.5905 68.4439 43.5784 68.4592 43.563C68.4745 43.5477 68.4866 43.5295 68.4948 43.5094C68.503 43.4893 68.5071 43.4678 68.5068 43.4461V15.4424H27.4907V21.3823C27.4907 21.6551 27.3824 21.9167 27.1895 22.1096C26.9966 22.3025 26.735 22.4109 26.4622 22.4109C26.1894 22.4109 25.9277 22.3025 25.7349 22.1096C25.542 21.9167 25.4336 21.6551 25.4336 21.3823V14.4138C25.4336 14.141 25.542 13.8794 25.7349 13.6865C25.9277 13.4936 26.1894 13.3852 26.4622 13.3852H69.5302C69.803 13.3852 70.0646 13.4936 70.2575 13.6865C70.4504 13.8794 70.5588 14.141 70.5588 14.4138V43.4461C70.5582 44.0342 70.3247 44.5982 69.9093 45.0146C69.4938 45.431 68.9304 45.6659 68.3422 45.6678Z" fill="black"/>
<path d="M13.9875 19.1493C12.5806 19.1491 11.2054 18.7317 10.0357 17.95C8.86605 17.1682 7.95445 16.0572 7.41619 14.7573C6.87794 13.4575 6.73722 12.0272 7.01181 10.6474C7.28641 9.26754 7.96399 8.00012 8.95888 7.00538C9.95377 6.01063 11.2213 5.33323 12.6011 5.05884C13.981 4.78444 15.4113 4.92538 16.711 5.46381C18.0108 6.00225 19.1217 6.91401 19.9033 8.08381C20.6849 9.2536 21.1021 10.6289 21.1021 12.0358C21.0999 13.9219 20.3496 15.7302 19.0158 17.0638C17.682 18.3974 15.8737 19.1474 13.9875 19.1493ZM13.9875 6.98244C12.9875 6.98265 12.01 7.27937 11.1786 7.8351C10.3472 8.39083 9.69929 9.18061 9.31673 10.1046C8.93418 11.0285 8.8342 12.0452 9.02942 13.026C9.22463 14.0067 9.70629 14.9076 10.4135 15.6147C11.1207 16.3217 12.0217 16.8032 13.0025 16.9982C13.9833 17.1932 14.9999 17.093 15.9238 16.7103C16.8477 16.3275 17.6373 15.6795 18.1929 14.848C18.7484 14.0165 19.045 13.0389 19.045 12.0389C19.0436 10.6981 18.5103 9.41257 17.5621 8.46457C16.6139 7.51658 15.3283 6.98353 13.9875 6.98244Z" fill="black"/>
<path d="M10.5472 68.2849C9.35121 68.2876 8.20301 67.8158 7.35455 66.9729C6.50608 66.13 6.02666 64.985 6.02148 63.789V41.9444C6.02148 41.6716 6.12985 41.41 6.32274 41.2171C6.51564 41.0242 6.77726 40.9158 7.05005 40.9158C7.32284 40.9158 7.58446 41.0242 7.77735 41.2171C7.97025 41.41 8.07861 41.6716 8.07861 41.9444V63.7911C8.08099 64.126 8.15175 64.4569 8.28656 64.7635C8.42137 65.0701 8.61738 65.3459 8.86257 65.5741C9.10777 65.8022 9.39699 65.9779 9.71249 66.0903C10.028 66.2027 10.3631 66.2495 10.6973 66.2277C11.0438 66.2009 11.3801 66.098 11.6823 65.9265C11.9845 65.7549 12.2452 65.5189 12.4459 65.2352C12.7023 64.8486 12.8504 64.4004 12.8748 63.9371C12.9293 63.3406 12.9581 62.7337 12.9581 62.133V45.6266C12.9581 45.3538 13.0665 45.0922 13.2594 44.8993C13.4523 44.7064 13.7139 44.5981 13.9867 44.5981C14.2595 44.5981 14.5211 44.7064 14.714 44.8993C14.9069 45.0922 15.0153 45.3538 15.0153 45.6266V62.132C15.0153 62.7954 14.9844 63.4691 14.9237 64.1254C14.8679 64.958 14.5867 65.7598 14.1101 66.4448C13.7309 66.9746 13.2391 67.414 12.6701 67.7315C12.101 68.0489 11.4688 68.2365 10.8187 68.2808C10.7313 68.2849 10.6387 68.2849 10.5472 68.2849Z" fill="black"/>
<path d="M17.4315 68.2848C17.34 68.2848 17.2474 68.2848 17.1559 68.2765C16.5059 68.2324 15.8737 68.0449 15.3046 67.7277C14.7356 67.4105 14.2438 66.9713 13.8645 66.4416C13.3875 65.7567 13.1059 64.9549 13.0498 64.1222C12.9892 63.4608 12.9583 62.7912 12.9583 62.1298V45.6265C12.9583 45.3537 13.0667 45.0921 13.2596 44.8992C13.4525 44.7063 13.7141 44.598 13.9869 44.598C14.2597 44.598 14.5213 44.7063 14.7142 44.8992C14.9071 45.0921 15.0154 45.3537 15.0154 45.6265V62.1319C15.0154 62.7305 15.0432 63.3374 15.0977 63.936C15.1224 64.3993 15.2708 64.8476 15.5277 65.234C15.7285 65.5183 15.9897 65.7548 16.2925 65.9265C16.5953 66.0983 16.9322 66.2011 17.2793 66.2276C17.6126 66.248 17.9467 66.2003 18.261 66.0875C18.5753 65.9746 18.8634 65.799 19.1076 65.5712C19.3518 65.3434 19.5471 65.0683 19.6816 64.7626C19.8161 64.4569 19.8869 64.127 19.8898 63.793V29.4565C19.8906 28.6745 20.2015 27.9248 20.7543 27.3718C21.3072 26.8188 22.0568 26.5076 22.8387 26.5065H32.7283C33.2732 26.5054 33.7955 26.2892 34.1817 25.9048C34.37 25.7155 34.519 25.4908 34.6202 25.2437C34.7213 24.9966 34.7726 24.7319 34.7711 24.4648C34.772 24.1956 34.7199 23.9289 34.6178 23.6798C34.5156 23.4307 34.3654 23.2042 34.1758 23.0132C33.9861 22.8222 33.7606 22.6704 33.5123 22.5665C33.2639 22.4626 32.9975 22.4087 32.7283 22.4077H8.28862C6.85388 22.4091 5.47835 22.9798 4.46413 23.9946C3.44991 25.0094 2.87994 26.3853 2.87939 27.82V42.3228C2.88266 42.7411 3.05168 43.141 3.34939 43.4349C3.6471 43.7287 4.0492 43.8925 4.4675 43.8903C4.66832 43.8965 4.86835 43.8625 5.05589 43.7905C5.24344 43.7184 5.41472 43.6096 5.55973 43.4706C5.70473 43.3315 5.82055 43.1649 5.90039 42.9805C5.98024 42.7962 6.02251 42.5977 6.02475 42.3968V29.5305C6.02475 29.2577 6.13311 28.9961 6.326 28.8032C6.5189 28.6103 6.78052 28.502 7.05331 28.502C7.3261 28.502 7.58772 28.6103 7.78062 28.8032C7.97351 28.9961 8.08187 29.2577 8.08187 29.5305V42.3968C8.08078 43.3384 7.70621 44.241 7.04036 44.9066C6.37451 45.5723 5.47176 45.9466 4.53024 45.9474C4.04831 45.9546 3.56971 45.8664 3.12203 45.6878C2.67434 45.5093 2.26641 45.2439 1.92175 44.907C1.57708 44.57 1.30249 44.1682 1.11379 43.7247C0.925088 43.2812 0.826011 42.8047 0.822266 42.3228V27.82C0.824444 25.8405 1.61177 23.9427 3.01151 22.5429C4.41125 21.1432 6.30908 20.3558 8.28862 20.3537H32.7314C33.8201 20.3537 34.8643 20.7862 35.6341 21.556C36.4039 22.3258 36.8364 23.37 36.8364 24.4587C36.8364 25.5474 36.4039 26.5915 35.6341 27.3613C34.8643 28.1312 33.8201 28.5637 32.7314 28.5637H22.8418C22.6052 28.5639 22.3783 28.6581 22.2111 28.8255C22.0439 28.9929 21.95 29.2199 21.95 29.4565V63.792C21.9435 64.986 21.4645 66.1288 20.6178 66.9707C19.7711 67.8126 18.6255 68.2851 17.4315 68.2848Z" fill="black"/>
<path d="M71.793 15.4424H24.2024C23.9296 15.4424 23.668 15.334 23.4751 15.1411C23.2822 14.9482 23.1738 14.6866 23.1738 14.4138C23.1738 14.141 23.2822 13.8794 23.4751 13.6865C23.668 13.4936 23.9296 13.3852 24.2024 13.3852H71.793C72.0658 13.3852 72.3274 13.4936 72.5203 13.6865C72.7132 13.8794 72.8216 14.141 72.8216 14.4138C72.8216 14.6866 72.7132 14.9482 72.5203 15.1411C72.3274 15.334 72.0658 15.4424 71.793 15.4424Z" fill="black"/>
<path d="M71.793 45.6678H24.2024C23.9296 45.6678 23.668 45.5594 23.4751 45.3665C23.2822 45.1736 23.1738 44.912 23.1738 44.6392C23.1738 44.3664 23.2822 44.1048 23.4751 43.9119C23.668 43.719 23.9296 43.6107 24.2024 43.6107H71.793C72.0658 43.6107 72.3274 43.719 72.5203 43.9119C72.7132 44.1048 72.8216 44.3664 72.8216 44.6392C72.8216 44.912 72.7132 45.1736 72.5203 45.3665C72.3274 45.5594 72.0658 45.6678 71.793 45.6678Z" fill="black"/>
<path d="M65.5293 67.0887H59.2458C59.098 67.0887 58.952 67.057 58.8177 66.9956C58.6833 66.9342 58.5638 66.8445 58.4671 66.7328L47.9994 54.605L37.5266 66.7328C37.43 66.8445 37.3104 66.9342 37.1761 66.9956C37.0417 67.057 36.8957 67.0887 36.748 67.0887H30.4737C30.2761 67.0886 30.0826 67.0317 29.9165 66.9246C29.7504 66.8175 29.6187 66.6648 29.5371 66.4847C29.4555 66.3047 29.4275 66.105 29.4564 65.9095C29.4853 65.714 29.57 65.5309 29.7003 65.3823L42.8494 50.3652V44.6392C42.8494 44.3664 42.9578 44.1048 43.1507 43.9119C43.3436 43.719 43.6052 43.6107 43.878 43.6107H52.1302C52.403 43.6107 52.6646 43.719 52.8575 43.9119C53.0504 44.1048 53.1587 44.3664 53.1587 44.6392V50.2963L66.3048 65.3833C66.4345 65.5322 66.5187 65.7152 66.5472 65.9106C66.5757 66.1059 66.5474 66.3054 66.4656 66.4851C66.3838 66.6648 66.252 66.8172 66.086 66.924C65.92 67.0309 65.7267 67.0877 65.5293 67.0876V67.0887ZM59.721 65.0315H63.2675L51.3505 51.3619C51.1873 51.1746 51.0974 50.9346 51.0975 50.6862V45.6678H44.9014V50.7479C44.9014 50.9973 44.8107 51.2381 44.6463 51.4257L32.7366 65.0315H36.2769L47.2208 52.3586C47.3204 52.2516 47.4409 52.1663 47.5748 52.108C47.7088 52.0496 47.8533 52.0195 47.9994 52.0195C48.1456 52.0195 48.2901 52.0496 48.4241 52.108C48.558 52.1663 48.6785 52.2516 48.7781 52.3586L59.721 65.0315Z" fill="black"/>
</g>
<defs>
<clipPath id="clip0">
<rect width="72" height="72" fill="white" transform="translate(0.822266 0.60498)"/>
</clipPath>
</defs>
</svg>
