<svg width="65" height="64" viewBox="0 0 65 64" fill="none" xmlns="http://www.w3.org/2000/svg">
<g clip-path="url(#clip0)">
<path d="M7.66337 57.4933V59.7333C7.66337 62.0898 9.57362 64 11.93 64H22.4186C24.775 64 26.6852 62.0898 26.6852 59.7333V57.6H37.3519V59.7333C37.3519 62.0898 39.2622 64 41.6186 64H52.1071C54.4635 64 56.3738 62.0898 56.3738 59.7333V57.5104C58.9344 57.0778 60.8112 54.8636 60.8186 52.2667V5.33333C60.815 2.38928 58.4293 0.00352653 55.4852 0H8.73324C5.78918 0.00352653 3.40343 2.38928 3.3999 5.33333V9.6C3.3999 10.1891 3.87747 10.6667 4.46657 10.6667C5.05567 10.6667 5.53324 10.1891 5.53324 9.6V5.33333C5.53324 3.56602 6.96592 2.13333 8.73324 2.13333H55.4852C57.2525 2.13333 58.6852 3.56602 58.6852 5.33333V52.2667C58.6852 54.034 57.2525 55.4667 55.4852 55.4667H8.73324C6.96592 55.4667 5.53324 54.034 5.53324 52.2667V14.9333C5.53324 14.3442 5.05567 13.8667 4.46657 13.8667C3.87747 13.8667 3.3999 14.3442 3.3999 14.9333V52.2667C3.40279 54.7991 5.18313 56.9817 7.66337 57.4933ZM54.2404 57.6V59.7333C54.2404 60.9115 53.2853 61.8667 52.1071 61.8667H41.6186C40.4404 61.8667 39.4852 60.9115 39.4852 59.7333V57.6H54.2404ZM24.5519 57.6V59.7333C24.5519 60.9115 23.5968 61.8667 22.4186 61.8667H11.93C10.7518 61.8667 9.7967 60.9115 9.7967 59.7333V57.6H24.5519Z" fill="black"/>
<path d="M11.7517 36.2668C11.1626 36.2668 10.6851 36.7444 10.6851 37.3335V46.9335C10.6851 48.7008 12.1177 50.1335 13.8851 50.1335H50.1517C51.919 50.1335 53.3517 48.7008 53.3517 46.9335V45.8668C55.119 45.8668 56.5517 44.4341 56.5517 42.6668V36.2668C56.5517 34.4995 55.119 33.0668 53.3517 33.0668V24.5335C55.119 24.5335 56.5517 23.1008 56.5517 21.3335V14.9335C56.5517 13.1662 55.119 11.7335 53.3517 11.7335V10.6668C53.3517 8.89949 51.919 7.4668 50.1517 7.4668H13.8851C12.1177 7.4668 10.6851 8.89949 10.6851 10.6668V32.0001C10.6851 32.5892 11.1626 33.0668 11.7517 33.0668C12.3408 33.0668 12.8184 32.5892 12.8184 32.0001V10.6668C12.8184 10.0777 13.296 9.60013 13.8851 9.60013H50.1517C50.7408 9.60013 51.2184 10.0777 51.2184 10.6668V11.7335C49.4511 11.7335 48.0184 13.1662 48.0184 14.9335V21.3335C48.0184 23.1008 49.4511 24.5335 51.2184 24.5335V33.0668C49.4511 33.0668 48.0184 34.4995 48.0184 36.2668V42.6668C48.0184 44.4341 49.4511 45.8668 51.2184 45.8668V46.9335C51.2184 47.5226 50.7408 48.0001 50.1517 48.0001H13.8851C13.296 48.0001 12.8184 47.5226 12.8184 46.9335V37.3335C12.8184 36.7444 12.3408 36.2668 11.7517 36.2668ZM50.1517 21.3335V14.9335C50.1517 14.3444 50.6293 13.8668 51.2184 13.8668H53.3517C53.9408 13.8668 54.4184 14.3444 54.4184 14.9335V21.3335C54.4184 21.9226 53.9408 22.4001 53.3517 22.4001H51.2184C50.6293 22.4001 50.1517 21.9226 50.1517 21.3335ZM50.1517 42.6668V36.2668C50.1517 35.6777 50.6293 35.2001 51.2184 35.2001H53.3517C53.9408 35.2001 54.4184 35.6777 54.4184 36.2668V42.6668C54.4184 43.2559 53.9408 43.7335 53.3517 43.7335H51.2184C50.6293 43.7335 50.1517 43.2559 50.1517 42.6668Z" fill="black"/>
<path d="M20.1935 33.6979C22.5303 39.3397 28.527 42.5452 34.5163 41.3539C40.5055 40.1626 44.8192 34.9064 44.8192 28.7998C44.8192 22.6932 40.5055 17.437 34.5163 16.2457C28.527 15.0544 22.5303 18.2599 20.1935 23.9017C18.8841 27.0358 18.8841 30.5638 20.1935 33.6979ZM26.9711 19.4046L27.3593 20.3411C27.4997 20.7013 27.824 20.9573 28.2069 21.0103C28.5897 21.0633 28.9713 20.905 29.2043 20.5966C29.4373 20.2882 29.4852 19.8779 29.3295 19.5241L28.9423 18.5875C30.9477 17.9774 33.0893 17.9774 35.0948 18.5875L34.7076 19.5241C34.5519 19.8779 34.5998 20.2882 34.8328 20.5966C35.0658 20.905 35.4474 21.0633 35.8302 21.0103C36.2131 20.9573 36.5374 20.7013 36.6777 20.3411L37.066 19.4035C38.9152 20.3906 40.4292 21.9051 41.4159 23.7545L40.4793 24.1427C40.1192 24.2831 39.8632 24.6074 39.8102 24.9902C39.7572 25.3731 39.9154 25.7547 40.2239 25.9877C40.5323 26.2207 40.9426 26.2686 41.2964 26.1129L42.2329 25.7257C42.843 27.7311 42.843 29.8727 42.2329 31.8782L41.2964 31.491C40.9426 31.3353 40.5323 31.3832 40.2239 31.6162C39.9154 31.8491 39.7572 32.2307 39.8102 32.6136C39.8632 32.9965 40.1192 33.3207 40.4793 33.4611L41.4169 33.8494C40.4298 35.6986 38.9154 37.2126 37.066 38.1993L36.6777 37.2627C36.5374 36.9026 36.2131 36.6466 35.8302 36.5936C35.4474 36.5406 35.0658 36.6988 34.8328 37.0072C34.5998 37.3157 34.5519 37.726 34.7076 38.0798L35.0948 39.0163C33.0893 39.6264 30.9477 39.6264 28.9423 39.0163L29.3295 38.0798C29.4852 37.726 29.4373 37.3157 29.2043 37.0072C28.9713 36.6988 28.5897 36.5406 28.2069 36.5936C27.824 36.6466 27.4997 36.9026 27.3593 37.2627L26.9711 38.2003C25.1219 37.2132 23.6079 35.6988 22.6212 33.8494L23.5577 33.4611C23.9179 33.3207 24.1739 32.9965 24.2269 32.6136C24.2799 32.2307 24.1217 31.8491 23.8132 31.6162C23.5048 31.3832 23.0945 31.3353 22.7407 31.491L21.8041 31.8782C21.194 29.8727 21.194 27.7311 21.8041 25.7257L22.7407 26.1129C23.0945 26.2686 23.5048 26.2207 23.8132 25.9877C24.1217 25.7547 24.2799 25.3731 24.2269 24.9902C24.1739 24.6074 23.9179 24.2831 23.5577 24.1427L22.6201 23.7545C23.6069 21.9045 25.1214 20.3897 26.9711 19.4025V19.4046Z" fill="black"/>
<path d="M32.027 35.1999C34.8455 35.1955 37.3294 33.3478 38.144 30.6495C38.9585 27.9513 37.912 25.0377 35.5667 23.4745C33.2214 21.9113 30.1295 22.0663 27.9524 23.8564C25.7753 25.6464 25.0255 28.65 26.106 31.2532C27.1011 33.6442 29.4373 35.2014 32.027 35.1999ZM30.3854 24.8532C32.5627 23.955 35.0559 24.9909 35.9556 27.1675C36.8554 29.3441 35.8213 31.8381 33.6453 32.7394C31.4693 33.6407 28.9746 32.6083 28.0718 30.433C27.6345 29.3867 27.6328 28.2091 28.0672 27.1615C28.5015 26.114 29.336 25.2831 30.3854 24.8532Z" fill="black"/>
<path d="M21.3517 11.7334H16.0183C15.4292 11.7334 14.9517 12.211 14.9517 12.8001V18.1334C14.9517 18.7225 15.4292 19.2001 16.0183 19.2001C16.6074 19.2001 17.085 18.7225 17.085 18.1334V13.8667H21.3517C21.9408 13.8667 22.4183 13.3892 22.4183 12.8001C22.4183 12.211 21.9408 11.7334 21.3517 11.7334Z" fill="black"/>
</g>
<defs>
<clipPath id="clip0">
<rect width="64" height="64" fill="white" transform="translate(0.0185547)"/>
</clipPath>
</defs>
</svg>
