<svg width="65" height="64" viewBox="0 0 65 64" fill="none" xmlns="http://www.w3.org/2000/svg">
<g clip-path="url(#clip0)">
<path d="M32.2563 64C23.708 64 15.6724 60.6714 9.62842 54.6279C3.58496 48.5845 0.256348 40.5483 0.256348 32C0.256348 23.4517 3.58496 15.416 9.62842 9.37207C15.6724 3.32861 23.708 0 32.2563 0C40.8047 0 48.8408 3.32861 54.8843 9.37207C60.9277 15.416 64.2563 23.4517 64.2563 32C64.2563 40.5483 60.9277 48.5845 54.8843 54.6279C48.8408 60.6714 40.8047 64 32.2563 64ZM32.2563 2.51758C15.9995 2.51758 2.77441 15.7432 2.77441 32C2.77441 48.2568 15.9995 61.4824 32.2563 61.4824C48.5132 61.4824 61.7383 48.2568 61.7383 32C61.7383 15.7432 48.5132 2.51758 32.2563 2.51758Z" fill="black"/>
<path d="M37.6045 58.7046C37.021 58.7046 36.4976 58.2964 36.3735 57.7031C36.2314 57.0225 36.6675 56.3555 37.3481 56.2129C48.7319 53.833 56.9937 43.6499 56.9937 32C56.9937 18.3599 45.8965 7.2627 32.2563 7.2627C18.6162 7.2627 7.51904 18.3599 7.51904 32C7.51904 43.6333 15.7666 53.8135 27.1304 56.2065C27.811 56.3496 28.2461 57.0171 28.103 57.6978C27.96 58.3779 27.2925 58.8135 26.6118 58.6699C20.5859 57.4014 15.104 54.0659 11.1763 49.2788C7.19434 44.4258 5.00098 38.2896 5.00098 32C5.00098 24.7188 7.83594 17.874 12.9829 12.7266C18.1304 7.57959 24.9751 4.74512 32.2563 4.74512C39.5361 4.74512 46.3804 7.57959 51.5283 12.7266C56.6763 17.8745 59.5117 24.7192 59.5117 32C59.5117 38.2964 57.314 44.438 53.3232 49.2939C49.3877 54.0835 43.897 57.416 37.8633 58.6777C37.7769 58.6958 37.6899 58.7046 37.6045 58.7046Z" fill="black"/>
<path d="M32.2812 59.2554H32.2563C31.561 59.2554 30.9976 58.6914 30.9976 57.9966C30.9976 57.3013 31.561 56.7373 32.2563 56.7373H32.2812C32.9766 56.7373 33.54 57.3013 33.54 57.9966C33.5405 58.6914 32.9766 59.2554 32.2812 59.2554Z" fill="black"/>
<path d="M25.9155 50.2739C24.5557 50.2739 23.3638 49.7734 22.3726 48.7871C21.3848 47.7993 20.8853 46.5752 20.8853 45.147V18.9609C20.8853 17.5015 21.3931 16.2529 22.3955 15.251C23.3975 14.2485 24.6289 13.7407 26.0552 13.7407H34.9082C38.7358 13.7407 41.9136 14.9253 44.352 17.2607C46.8062 19.6113 48.0503 22.6909 48.0503 26.4146C48.0503 30.1006 46.874 33.1377 44.5547 35.4414C42.2422 37.7378 39.1543 38.9019 35.3765 38.9019H30.9497V45.2402C30.9497 46.6069 30.4502 47.7998 29.4644 48.7852C28.4712 49.7734 27.2778 50.2739 25.9155 50.2739ZM26.0552 16.2583C25.3105 16.2583 24.6958 16.5112 24.1758 17.0312C23.6484 17.5586 23.4028 18.1714 23.4028 18.9609V45.147C23.4028 45.9043 23.6406 46.4946 24.1504 47.0049C24.665 47.5166 25.2266 47.7559 25.9155 47.7559C26.6069 47.7559 27.1699 47.5166 27.686 47.0024C28.1943 46.4946 28.4321 45.9336 28.4321 45.2397V36.3843H35.377C38.5093 36.3843 40.9312 35.4912 42.7803 33.6548C44.6323 31.8154 45.5327 29.4473 45.5327 26.4146C45.5327 23.3618 44.5771 20.9624 42.6108 19.0791C40.6289 17.1812 38.1094 16.2583 34.9082 16.2583H26.0552ZM34.4893 32.2891H28.4321V20.4966H34.5356C36.1675 20.4966 37.5513 21.0952 38.6494 22.2759C39.7227 23.4248 40.2676 24.835 40.2676 26.4644C40.2676 28.043 39.6899 29.4229 38.5513 30.5659C37.4077 31.71 36.0415 32.2891 34.4893 32.2891ZM30.9497 29.7715H34.4893C35.3618 29.7715 36.1074 29.4497 36.7695 28.7876C37.4287 28.126 37.7495 27.3652 37.7495 26.4644C37.7495 25.48 37.4414 24.6714 36.8071 23.9922C36.1865 23.3242 35.4653 23.0142 34.5356 23.0142H30.9497V29.7715Z" fill="black"/>
</g>
<defs>
<clipPath id="clip0">
<rect width="64" height="64" fill="white" transform="translate(0.256348)"/>
</clipPath>
</defs>
</svg>
