<svg width="65" height="64" viewBox="0 0 65 64" fill="none" xmlns="http://www.w3.org/2000/svg">
<g clip-path="url(#clip0)">
<path d="M35.0336 42.1305H52.0949C52.7347 42.1305 53.1612 41.704 53.1612 41.0642V31.4672C53.1612 30.8274 52.7347 30.4009 52.0949 30.4009H35.0336C34.3938 30.4009 33.9673 30.8274 33.9673 31.4672V41.0642C33.9672 41.7038 34.3938 42.1305 35.0336 42.1305ZM36.0999 32.5335H51.0286V39.9978H36.0999V32.5335Z" fill="black"/>
<path d="M6.24305 28.2678H14.7738C15.4136 28.2678 15.8401 27.8413 15.8401 27.2015C15.8401 26.5617 15.4136 26.1353 14.7738 26.1353H6.24305C5.60325 26.1353 5.17676 26.5617 5.17676 27.2015C5.17676 27.8413 5.60325 28.2678 6.24305 28.2678Z" fill="black"/>
<path d="M19.0389 28.2678H27.5697C28.2095 28.2678 28.636 27.8413 28.636 27.2015C28.636 26.5617 28.2095 26.1353 27.5697 26.1353H19.0389C18.3991 26.1353 17.9727 26.5617 17.9727 27.2015C17.9727 27.8413 18.3991 28.2678 19.0389 28.2678Z" fill="black"/>
<path d="M6.24305 32.5335H20.1053C20.7451 32.5335 21.1716 32.107 21.1716 31.4672C21.1716 30.8274 20.7451 30.4009 20.1053 30.4009H6.24305C5.60325 30.4009 5.17676 30.8274 5.17676 31.4672C5.17676 32.107 5.60325 32.5335 6.24305 32.5335Z" fill="black"/>
<path d="M27.5695 30.4004H24.3705C23.7307 30.4004 23.3042 30.8269 23.3042 31.4667C23.3042 32.1065 23.7307 32.533 24.3705 32.533H27.5695C28.2093 32.533 28.6358 32.1065 28.6358 31.4667C28.6358 30.8269 28.2093 30.4004 27.5695 30.4004Z" fill="black"/>
<path d="M63.9314 17.1781C63.1851 16.2184 62.2254 15.6852 61.0523 15.5786L58.4931 15.2684V12.2729V10.1403C58.4931 7.7944 56.5737 5.875 54.2278 5.875H5.17642C2.83053 5.87488 0.911133 7.79428 0.911133 10.1403V12.273V20.8037V44.263C0.911133 46.189 2.20535 47.8266 3.9668 48.3515C3.91307 50.5086 5.54518 52.3812 7.73575 52.5804L57.0004 58.1253C57.107 58.1253 57.3203 58.1253 57.4268 58.1253C59.5596 58.1253 61.479 56.5258 61.6921 54.4998L64.8911 20.2705C64.9977 19.2041 64.6778 18.0311 63.9314 17.1781ZM3.04384 13.3393H56.3606V16.1118V19.7373H3.04384V13.3393ZM5.17642 8.00758H54.2277C55.4007 8.00758 56.3604 8.96728 56.3604 10.1403V11.2066H3.04384V10.1403C3.04384 8.96728 4.00354 8.00758 5.17642 8.00758ZM3.04384 44.2629V21.8699H56.3606V44.2629C56.3606 45.4359 55.4009 46.3956 54.2278 46.3956H5.28314H5.17655C4.00354 46.3956 3.04384 45.4359 3.04384 44.2629ZM62.7584 19.8439L59.5594 54.0732C59.4528 55.2462 58.3864 56.0992 57.2135 55.9926L8.05553 50.4477C6.98923 50.3411 6.24272 49.488 6.13613 48.5283H54.2277C56.5736 48.5283 58.493 46.6089 58.493 44.263V20.8036V17.2847L60.9456 17.498C61.4788 17.498 62.0119 17.8179 62.3318 18.2444C62.6518 18.6709 62.8652 19.3107 62.7584 19.8439Z" fill="black"/>
</g>
<defs>
<clipPath id="clip0">
<rect width="64" height="64" fill="white" transform="translate(0.911133)"/>
</clipPath>
</defs>
</svg>
