<svg width="247" height="62" viewBox="0 0 247 62" fill="none" xmlns="http://www.w3.org/2000/svg">
<path d="M47.061 37.329H35.5283L33.8166 41.0064H26.498V39.9184L39.6627 11.3733H42.8795L56.0877 39.9184V41.0064H48.7728L47.061 37.329ZM41.2584 23.2432L37.9545 30.9317H44.642L41.2584 23.2432Z" fill="#333333"/>
<path d="M83.4219 25.7932C85.8046 27.0044 86.9325 29.1768 86.9325 31.7698C86.8926 36.8689 83.7991 41.0068 77.8224 41.0068H64.1138V11.769H76.6111C77.8021 11.7507 78.9849 11.9697 80.0904 12.4134C81.1958 12.857 82.2019 13.5163 83.0499 14.3528C83.8979 15.1893 84.5708 16.1863 85.0295 17.2856C85.4881 18.385 85.7232 19.5646 85.7212 20.7558C85.7212 22.5111 84.8435 24.6399 83.4219 25.8113V25.7932ZM71.3416 18.4565V23.1711H76.0562C79.0228 23.1711 79.0228 18.4565 76.0127 18.4565H71.3416ZM71.3416 29.4053V34.3774H77.3183C80.3284 34.3774 80.2885 29.4053 77.2784 29.4053H71.3416Z" fill="#333333"/>
<path d="M95.9468 41.0071V11.7693H108.821C122.82 11.8092 122.82 33.529 108.821 33.529H103.429V41.0107L95.9468 41.0071ZM108.785 18.4387C107.03 18.3951 105.158 18.4387 103.436 18.4387V26.798H108.785C112.879 26.798 113.137 18.4785 108.785 18.4387Z" fill="#333333"/>
<path d="M131.04 41.0468H128.363V11.751H136.012V26.087L150.808 11.624H153.525V41.0069H145.793V26.631L131.04 41.0468Z" fill="#333333"/>
<path d="M167.735 44.3069H161.57V34.515H164.536L174.568 11.359H177.784L188.149 34.515H191.203V44.3069H185.041V41.0901H167.735V44.3069ZM172.087 34.4461H180.363L176.142 23.8709L172.087 34.4461Z" fill="#333333"/>
<path d="M218.601 37.3293H207.068L205.353 41.0067H198.038V39.9187L211.203 11.3735H214.42L227.628 39.9187V41.0067H220.313L218.601 37.3293ZM212.798 23.2435L209.495 30.9319H216.182L212.798 23.2435Z" fill="#333333"/>
<path d="M139.34 53.6591H136.272L135.62 55.0494H134.451V54.9056L137.557 48.2897H138.075L141.162 54.9056V55.0494H140.002L139.34 53.6591ZM137.816 50.0348L136.637 52.7195H138.986L137.816 50.0348ZM143.139 55.0494H142.017V48.3377H144.797C145.52 48.3377 146.095 48.5678 146.523 49.028C146.952 49.4819 147.166 50.0412 147.166 50.706C147.166 51.358 146.948 51.9109 146.514 52.3647C146.085 52.8122 145.513 53.0359 144.797 53.0359H143.139V55.0494ZM143.119 52.0579H144.797C145.175 52.0579 145.485 51.9269 145.727 51.6648C145.97 51.3963 146.092 51.0671 146.092 50.6772C146.092 50.2809 145.97 49.9549 145.727 49.6992C145.491 49.4371 145.181 49.3061 144.797 49.3061H143.119V52.0579ZM149.566 49.3253H147.62V48.3377H152.605V49.3253H150.659V55.0494H149.566V49.3253ZM152.995 52.3072V51.4059H156.226V52.3072H152.995ZM158.794 48.3377V51.31C159.459 51.31 159.897 51.2557 160.108 51.147C160.287 51.0512 160.431 50.8754 160.539 50.6197C160.648 50.3576 160.76 50.0028 160.875 49.5554C161.009 49.0696 161.239 48.718 161.565 48.5007C161.891 48.277 162.374 48.2258 163.013 48.3473V49.1143C162.668 49.0888 162.419 49.1271 162.265 49.2294C162.118 49.3253 161.997 49.5426 161.901 49.8814C161.658 50.7699 161.367 51.3676 161.028 51.6744L163.234 54.8864V55.0494H161.968L160.05 52.1154C159.859 52.1858 159.44 52.2209 158.794 52.2209V55.0494H157.673V48.3377H158.794ZM166.691 50.1499L164.591 55.0494H163.517V54.896L166.451 48.2993H166.931L169.874 54.896V55.0494H168.791L166.701 50.1499H166.691ZM174.884 53.6591H171.816L171.164 55.0494H169.994V54.9056L173.101 48.2897H173.619L176.706 54.9056V55.0494H175.546L174.884 53.6591ZM173.36 50.0348L172.18 52.7195H174.53L173.36 50.0348ZM176.962 51.7032C176.962 50.6548 177.291 49.8207 177.949 49.2006C178.614 48.5742 179.422 48.261 180.375 48.261C180.829 48.261 181.257 48.3409 181.66 48.5007C182.069 48.6605 182.433 48.913 182.753 49.2582C183.072 49.6033 183.29 50.0188 183.405 50.5046H182.331C182.005 49.6992 181.35 49.2901 180.365 49.2773C179.681 49.2773 179.128 49.5043 178.707 49.9581C178.291 50.4055 178.083 50.9872 178.083 51.7032C178.083 52.3807 178.294 52.9496 178.716 53.4099C179.144 53.8701 179.694 54.1002 180.365 54.1002C180.838 54.1002 181.251 53.9851 181.602 53.755C181.96 53.5249 182.213 53.1925 182.36 52.7579H183.443C183.283 53.5313 182.913 54.1194 182.331 54.5221C181.756 54.9184 181.1 55.1166 180.365 55.1166C179.413 55.1166 178.607 54.8097 177.949 54.1961C177.291 53.576 176.962 52.7451 176.962 51.7032ZM185.887 49.3253H183.941V48.3377H188.926V49.3253H186.98V55.0494H185.887V49.3253ZM194.024 48.3377V49.3157H191.061V51.0895H193.861V52.0771H191.061V54.0331H194.081V55.0494H189.939V48.3377H194.024ZM196.595 55.0494H195.473V48.3377H198.254C198.976 48.3377 199.551 48.5678 199.979 49.028C200.408 49.4819 200.622 50.0412 200.622 50.706C200.622 51.358 200.405 51.9109 199.97 52.3647C199.542 52.8122 198.97 53.0359 198.254 53.0359H196.595V55.0494ZM196.576 52.0579H198.254C198.631 52.0579 198.941 51.9269 199.184 51.6648C199.427 51.3963 199.548 51.0671 199.548 50.6772C199.548 50.2809 199.427 49.9549 199.184 49.6992C198.947 49.4371 198.637 49.3061 198.254 49.3061H196.576V52.0579Z" fill="#FF9015"/>
<path d="M246.989 11.7468C246.989 13.9797 246.328 16.1627 245.087 18.0195C243.847 19.8762 242.084 21.3234 240.021 22.1777C237.958 23.032 235.688 23.2552 233.498 22.819C231.308 22.3827 229.296 21.3067 227.718 19.727C226.14 18.1473 225.066 16.135 224.632 13.9446C224.198 11.7543 224.423 9.48442 225.279 7.42221C226.136 5.35999 227.585 3.59815 229.443 2.3596C231.301 1.12106 233.484 0.461495 235.717 0.464365C237.199 0.464365 238.666 0.756192 240.035 1.32319C241.404 1.89018 242.647 2.72124 243.695 3.76891C244.743 4.81658 245.574 6.06034 246.141 7.42919C246.708 8.79804 246.999 10.2652 246.999 11.7468" fill="#F29400"/>
<path d="M0.97998 18.4092V11.7217H23.5448V18.4092H15.9833V40.9849H8.58501V18.4092H0.97998Z" fill="#333333"/>
</svg>
