<svg width="548" height="400" viewBox="0 0 548 400" fill="none" xmlns="http://www.w3.org/2000/svg">
<path d="M274.328 293.012V199.982H547.56V399.473L274.328 293.012Z" fill="#2B69AC"/>
<path d="M274.328 293.012V199.982H1.09692V399.473L274.328 293.012Z" fill="#F9D1DA"/>
<path d="M274.328 106.951V199.981H547.56V0.490723L274.328 106.951Z" fill="#EF7D58"/>
<mask id="mask0" mask-type="alpha" maskUnits="userSpaceOnUse" x="0" y="0" width="275" height="200">
<path d="M274.206 106.951V199.981H0.974579V0.490723L274.206 106.951Z" fill="#EF7D58"/>
</mask>
<g mask="url(#mask0)">
<path d="M274.328 0.490723H1.09692V199.981H274.328V0.490723Z" fill="url(#paint0_linear)"/>
</g>
<path d="M141.986 68.6153C139.544 68.6153 137.591 68.127 136.125 66.9061C134.66 65.6852 133.928 64.2202 133.928 62.2668C133.928 60.8017 134.416 59.5809 135.393 58.6042C136.37 57.6275 137.591 57.1391 139.3 57.1391C140.765 57.1391 141.986 57.3833 142.962 58.1158C143.939 58.8483 144.916 59.825 145.648 61.5343C146.381 62.9993 147.113 64.9527 147.846 67.1503C146.137 68.127 144.183 68.6153 141.986 68.6153ZM110.487 81.8008C111.22 85.9517 112.196 90.8352 113.417 95.9629H123.428C122.452 90.8352 121.475 86.1959 120.498 81.8008C119.522 77.6498 119.033 73.743 118.545 69.8362C118.057 66.1736 117.812 62.511 117.812 59.0925C117.812 53.7207 118.789 49.0814 120.498 45.6629C122.208 42.2445 124.649 39.5585 127.824 37.8493C130.998 36.1401 134.416 35.1634 138.323 35.1634C144.183 35.1634 148.823 36.8726 151.753 40.0469C154.927 43.2212 156.392 47.3721 156.392 52.4998C156.392 54.209 156.148 55.6741 155.659 56.8949C155.415 57.8716 154.927 58.8483 154.439 59.5809C153.706 57.8716 152.974 56.4066 152.241 55.1857C150.776 52.9882 149.067 51.2789 146.869 50.058C144.672 48.8372 142.23 48.3488 139.544 48.3488C136.614 48.3488 134.172 48.8372 131.974 50.058C129.777 51.2789 128.068 52.9881 126.847 54.9415C125.626 57.1391 124.893 59.5809 124.893 62.2668C124.893 65.1969 125.626 67.8828 127.091 70.0804C128.556 72.278 130.509 73.9872 133.195 75.208C135.881 76.4289 138.811 77.1615 141.986 77.1615C144.183 77.1615 146.137 76.9173 148.09 76.4289C149.067 76.1847 150.288 75.9406 151.264 75.4522L158.101 95.7187H168.112L159.322 69.8362C161.031 68.127 162.496 65.9294 163.717 63.4877C165.426 60.0692 166.403 56.1624 166.403 51.7673C166.403 46.6396 165.182 42.0003 162.985 38.0935C160.787 34.1867 157.369 31.2566 153.218 29.059C149.067 26.8615 144.183 25.8848 138.567 25.8848C132.463 25.8848 127.091 27.1056 122.452 29.7916C118.057 32.4775 114.394 36.1401 111.952 41.0236C109.51 45.9071 108.29 51.5231 108.29 58.36C108.29 62.2668 108.534 65.9294 108.778 69.8362C109.022 73.4988 109.755 77.4056 110.487 81.8008Z" fill="#2B2423"/>
<path d="M190.088 95.7198H199.611V58.361H214.75V50.0591H199.611H190.088H174.949V58.361H190.088V95.7198Z" fill="#2B2423"/>
<path d="M115.127 137.962C112.929 136.741 111.464 135.032 110.243 132.834C109.022 130.636 108.534 127.951 108.534 125.02C108.534 122.09 109.022 119.404 110.243 117.207C111.464 115.009 112.929 113.3 115.127 112.079C117.324 110.858 119.522 110.126 122.452 110.126C125.138 110.126 127.58 110.858 129.533 112.079C131.731 113.3 133.196 115.009 134.417 117.207C135.637 119.404 136.126 122.09 136.126 125.02C136.126 127.951 135.637 130.636 134.417 132.834C133.196 135.032 131.731 136.741 129.533 137.962C127.335 139.183 125.138 139.915 122.452 139.915C119.766 139.915 117.324 139.427 115.127 137.962ZM135.149 145.531C138.568 143.578 141.253 140.648 143.207 137.229C145.16 133.567 146.137 129.66 146.137 125.02C146.137 120.381 145.16 116.474 143.207 112.812C141.253 109.149 138.568 106.463 135.149 104.266C131.731 102.312 128.068 101.091 123.673 101.091C119.522 101.091 116.103 102.068 112.929 104.266C111.22 105.486 109.511 106.952 108.29 108.417L107.801 102.068H99.0112V158.961H65.8035L80.6981 142.845L74.1054 136.985L50.1763 163.6L74.1054 190.215L80.6981 184.355L65.8035 168.239H99.0112H108.534V159.205V141.868C109.755 143.334 111.22 144.799 112.929 145.775C116.103 147.729 119.766 148.95 123.673 148.95C128.068 148.705 131.731 147.729 135.149 145.531Z" fill="#2B2423"/>
<path d="M165.671 114.032C166.892 112.567 168.357 111.346 170.31 110.369C172.264 109.637 174.461 109.148 176.903 109.148C179.345 109.148 181.298 109.637 183.251 110.369C184.961 111.102 186.426 112.323 187.647 114.032C188.867 115.497 189.6 117.45 189.844 119.648H163.717C163.717 117.45 164.45 115.741 165.671 114.032ZM194.728 141.868C196.681 139.67 198.146 136.984 198.879 134.054L190.088 132.589C189.356 135.031 188.135 136.984 185.693 138.449C183.496 139.914 180.565 140.647 177.147 140.647C172.996 140.647 169.578 139.426 167.136 136.74C164.938 134.543 163.717 131.613 163.473 127.706H199.123C199.123 126.973 199.367 126.241 199.367 125.508C199.367 124.776 199.611 124.043 199.611 123.311C199.611 118.915 198.634 115.253 196.925 112.079C194.972 108.904 192.53 106.218 189.112 104.509C185.693 102.8 181.786 101.823 177.391 101.823C172.752 101.823 168.845 102.8 165.182 104.998C161.764 106.951 158.834 109.881 156.881 113.544C154.927 117.206 153.95 121.113 153.95 125.752C153.95 130.392 154.927 134.543 156.881 137.961C158.834 141.624 161.52 144.31 164.938 146.263C168.357 148.216 172.508 149.437 177.391 149.437C181.054 149.437 184.472 148.949 187.402 147.728C190.088 145.775 192.53 144.065 194.728 141.868Z" fill="#2B2423"/>
<path d="M246.248 116.474C244.051 117.695 242.097 118.183 239.9 118.183C237.702 118.183 236.237 117.695 234.772 116.718C233.551 115.742 232.819 114.277 232.819 112.567C232.819 110.858 233.551 109.393 234.772 108.416C236.237 107.44 237.946 106.951 240.144 106.951C242.341 106.951 244.539 107.44 246.981 108.661C248.446 109.393 249.911 110.37 251.132 111.591C249.911 113.788 248.202 115.253 246.248 116.474ZM209.134 99.1377L218.412 100.847C218.656 98.4052 219.633 95.9635 221.098 93.7659C222.563 91.5683 224.517 89.8591 227.203 88.6382C229.888 87.4173 232.819 86.6848 236.481 86.6848C241.609 86.6848 245.76 87.9057 248.934 90.3474C251.864 92.7892 253.329 96.4518 253.329 101.091C253.329 101.824 253.329 102.312 253.329 103.045C251.864 101.824 250.399 100.847 248.934 100.359C246.004 99.1377 243.074 98.4052 240.144 98.4052C236.969 98.4052 234.039 98.8936 231.598 100.114C229.156 101.335 227.203 103.045 225.737 104.998C224.272 107.195 223.784 109.637 223.784 112.323C223.784 116.474 225.249 119.893 227.935 122.334C230.621 125.02 234.528 126.241 239.167 126.241C243.318 126.241 246.981 125.264 250.399 123.067C252.108 122.09 253.818 120.625 255.038 119.16V119.404C255.283 120.625 255.283 121.846 255.283 123.067C255.283 126.241 254.55 129.171 253.085 131.613C251.62 134.055 249.422 136.008 246.737 137.229C244.051 138.694 240.632 139.182 236.725 139.182C233.551 139.182 230.621 138.694 227.691 137.473C224.761 136.252 222.563 134.543 220.61 132.101C218.656 129.66 217.436 126.485 216.947 122.334L207.18 124.288C207.913 129.904 209.622 134.543 212.308 138.206C214.994 141.868 218.412 144.31 222.563 146.019C226.714 147.729 231.353 148.461 236.237 148.461C241.853 148.461 246.981 147.484 251.132 145.287C255.527 143.089 258.701 140.159 261.143 136.496C263.585 132.59 264.805 128.195 264.805 123.067C264.805 120.137 264.317 117.207 263.34 114.277C262.852 112.567 262.119 111.102 261.143 109.881C261.387 109.149 261.631 108.172 261.875 107.44C262.364 105.242 262.608 103.045 262.608 100.359C262.608 95.9635 261.631 92.3008 259.678 88.8824C257.724 85.4639 254.794 82.778 250.887 80.8246C246.981 78.8712 242.341 77.8945 236.725 77.8945C231.598 77.8945 226.958 78.8712 223.052 80.5804C219.145 82.2897 215.97 84.7314 213.529 87.9057C211.331 91.3241 209.866 94.9868 209.134 99.1377Z" fill="#2B2423"/>
<path d="M305.094 147.972H314.129V102.067H305.094L283.363 134.298V102.067H274.328V147.972H283.363L305.094 115.741V147.972Z" fill="#2B2423"/>
<path d="M135.149 191.68C136.126 189.97 137.102 187.773 137.591 185.087C138.567 180.936 139.056 175.564 139.3 168.971L139.544 162.379H155.66V191.68H135.149ZM165.182 191.68V154.321H160.055H155.66H139.788H134.172H130.51L130.021 169.46C129.777 173.855 129.533 177.273 129.289 180.203C128.8 183.133 128.312 185.331 127.824 187.284C127.091 188.994 126.359 190.459 125.626 191.191C125.382 191.435 125.138 191.68 124.894 191.924H123.673H120.743V213.899H130.265V200.226H155.66H162.008V213.899H171.287V191.924H167.868H165.182V191.68Z" fill="#2B2423"/>
<path d="M187.403 171.658C187.647 169.46 188.379 167.751 189.6 166.042C190.821 164.577 192.286 163.356 194.239 162.379C196.193 161.647 198.39 161.158 200.832 161.158C203.274 161.158 205.227 161.647 207.181 162.379C208.89 163.112 210.355 164.333 211.576 166.042C212.797 167.507 213.529 169.46 213.773 171.658H187.403ZM212.308 156.031C208.89 154.321 204.983 153.345 200.588 153.345C195.949 153.345 192.042 154.321 188.379 156.519C184.961 158.472 182.031 161.402 180.077 165.065C178.124 168.728 177.147 172.635 177.147 177.274C177.147 181.913 178.124 186.064 180.077 189.483C182.031 193.145 184.717 195.831 188.135 197.785C191.554 199.738 195.704 200.959 200.588 200.959C204.251 200.959 207.669 200.47 210.599 199.25C213.529 198.029 216.215 196.319 218.169 194.122C220.122 191.924 221.587 189.238 222.32 186.308L213.529 184.843C212.797 187.285 211.576 189.238 209.134 190.703C206.937 192.169 204.006 192.901 200.588 192.901C196.437 192.901 193.019 191.68 190.577 188.994C188.379 186.797 187.158 183.867 186.914 179.96H222.564C222.564 179.227 222.808 178.495 222.808 177.762C222.808 177.03 223.052 176.297 223.052 175.565C223.052 171.169 222.075 167.507 220.366 164.333C218.657 161.158 215.727 157.74 212.308 156.031Z" fill="#2B2423"/>
<path d="M264.805 171.901H243.562V154.076H234.039V199.981H243.562V180.203H264.805V199.981H274.328V154.076H264.805V171.901Z" fill="#2B2423"/>
<path d="M327.558 191.679V154.076H318.036V191.679H298.013V154.076H288.49V199.981H294.839H298.013H318.036H324.384V213.655H333.907V191.679H330.977H327.558Z" fill="#2B2423"/>
<path d="M352.465 186.307V154.076H343.186V199.981H352.465L373.952 167.75V199.981H383.231V154.076H373.952L352.465 186.307Z" fill="#2B2423"/>
<path d="M78.5005 86.9279C76.3029 87.9046 74.1053 88.6371 71.6636 88.6371C69.7102 88.6371 68.001 88.1488 66.7801 87.1721C65.5592 86.1954 65.0709 84.7303 65.0709 82.7769C65.0709 80.8235 65.8034 79.3585 67.2684 78.3818C68.7335 77.4051 70.6869 76.4284 73.3728 75.9401L86.0699 73.01V73.9867C86.0699 77.1609 85.3374 80.091 83.8723 82.2886C82.4073 84.242 80.698 85.9512 78.5005 86.9279ZM55.3039 63.7313L64.0942 65.4405C64.8267 62.7546 66.0476 60.8012 68.001 59.5803C69.9544 58.3595 72.3961 57.627 75.5704 57.627C78.7447 57.627 81.1864 58.3595 83.1398 60.0687C84.6048 61.2896 85.5815 63.243 85.8257 65.6847L73.1286 68.3706C69.7102 69.1032 66.5359 70.0799 63.85 71.3007C61.1641 72.5216 59.2107 73.9867 57.5015 75.9401C56.0364 77.8935 55.3039 80.3352 55.3039 83.5095C55.3039 87.6604 56.7689 90.8347 59.4549 93.2765C62.1408 95.474 65.8034 96.6949 69.9544 96.6949C73.8612 96.6949 77.2796 95.7182 80.2097 93.7648C82.4073 92.2998 84.3607 90.5905 85.8257 88.393L86.3141 95.9624H94.8602V66.9056C94.8602 61.5337 93.151 57.1386 89.7325 53.9643C86.3141 50.7901 81.6747 49.325 75.8146 49.325C71.4194 49.325 67.5126 50.0575 64.3384 51.7668V20.7566L80.4539 35.6512L86.3141 29.0585L59.699 5.12939L33.084 29.0585L38.9442 35.6512L55.0597 20.7566V63.7313H55.3039Z" fill="#2B2423"/>
<path d="M457.948 237.34C456.483 239.294 454.529 240.514 452.088 240.514C450.134 240.514 448.425 239.782 447.204 238.561C445.983 237.34 445.251 235.631 445.251 233.433C445.251 230.747 446.228 228.306 448.425 225.62C450.623 223.178 453.797 221.225 458.192 219.515C459.413 222.446 459.901 225.62 459.901 228.794C459.901 232.457 459.413 235.143 457.948 237.34ZM483.83 184.354L477.238 190.214L495.062 209.26C493.109 209.016 491.156 208.772 489.202 208.772C485.295 208.528 481.633 208.283 477.726 208.283C472.354 208.283 467.715 208.772 463.32 209.504C462.831 208.772 462.343 208.283 461.611 207.551C458.925 204.865 455.75 202.667 451.844 200.958C447.937 199.249 443.542 199.249 438.658 199.249C438.17 199.249 437.681 199.249 437.193 199.249V154.321H427.914L406.427 186.552V154.321H397.393V199.981H406.427L427.914 167.75V199.005L428.647 207.551C430.356 207.307 431.821 207.063 433.53 206.818C434.995 206.818 436.461 206.574 437.926 206.574C442.809 206.574 446.96 207.551 450.134 209.504C451.111 210.237 452.088 210.969 453.064 211.702C447.448 214.144 443.053 217.074 440.123 220.736C437.193 224.643 435.728 228.794 435.728 233.189C435.728 237.584 437.193 241.247 439.879 243.933C442.565 246.863 446.472 248.328 451.111 248.328C454.529 248.328 457.704 247.596 460.39 245.886C463.076 244.421 465.273 241.98 466.738 239.049C468.203 236.119 469.18 232.457 469.18 228.062C469.18 224.155 468.447 220.492 467.227 216.83C470.157 216.585 473.087 216.341 476.749 216.341C480.656 216.341 484.563 216.585 488.47 216.83C490.667 217.074 492.621 217.074 494.818 217.318L476.749 236.363L483.342 242.224L510.201 212.923L483.83 184.354Z" fill="#2B2423"/>
<defs>
<linearGradient id="paint0_linear" x1="137.723" y1="199.918" x2="137.723" y2="0.402091" gradientUnits="userSpaceOnUse">
<stop stop-color="#F8E800"/>
<stop offset="0.3288" stop-color="#F8E800"/>
<stop offset="0.4055" stop-color="#F8E500"/>
<stop offset="0.5006" stop-color="#F7DC00"/>
<stop offset="0.6053" stop-color="#F6CC00"/>
<stop offset="0.717" stop-color="#F3B400"/>
<stop offset="0.8342" stop-color="#EF930F"/>
<stop offset="0.9543" stop-color="#EB6518"/>
<stop offset="1" stop-color="#E94F1A"/>
</linearGradient>
</defs>
</svg>
