<svg width="250" height="250" viewBox="0 0 250 250" fill="none" xmlns="http://www.w3.org/2000/svg">
<g style="mix-blend-mode:hard-light">
<path d="M125.169 195.196C129.698 195.111 135.297 193.377 141.007 190.928C146.782 188.452 152.926 185.133 158.625 181.651C164.327 178.166 169.633 174.488 173.736 171.271C175.785 169.664 177.561 168.15 178.944 166.817C180.264 165.546 181.432 164.247 182.033 163.078C183.13 160.945 183.378 157.901 183.374 154.951C183.37 151.875 183.076 148.368 182.756 145.004C182.685 144.253 182.612 143.51 182.54 142.779C182.286 140.186 182.047 137.743 181.928 135.61C181.852 134.251 181.829 133.082 181.876 132.134C181.925 131.139 182.044 130.586 182.138 130.345C182.421 129.622 183.177 128.598 184.447 127.445C185.673 126.332 187.198 125.26 188.745 124.4C190.31 123.531 191.769 122.95 192.856 122.721C193.114 122.667 193.323 122.639 193.486 122.626C193.565 122.954 193.65 123.386 193.738 123.926C193.96 125.292 194.168 127.16 194.35 129.399C194.715 133.865 194.965 139.644 195.041 145.478C195.116 151.316 195.017 157.156 194.692 161.753C194.529 164.057 194.313 165.994 194.047 167.44C193.914 168.165 193.778 168.714 193.649 169.101C193.574 169.33 193.518 169.446 193.498 169.487C193.199 169.8 192.254 170.613 190.549 171.925C188.824 173.251 186.51 174.948 183.762 176.886C178.269 180.761 171.093 185.566 163.539 190.244C155.977 194.926 148.08 199.455 141.135 202.796C137.661 204.467 134.465 205.822 131.694 206.75C128.882 207.693 126.682 208.136 125.142 208.124C123.556 208.111 121.323 207.674 118.508 206.786C115.727 205.909 112.526 204.641 109.052 203.077C102.107 199.95 94.2126 195.702 86.6646 191.225C79.1192 186.75 71.9682 182.074 66.5107 178.108C63.7788 176.123 61.5021 174.337 59.8223 172.86C58.9816 172.121 58.3173 171.482 57.8294 170.952C57.3133 170.392 57.1026 170.069 57.0474 169.958C56.7917 169.445 56.4651 168.34 56.1499 166.556C55.8469 164.84 55.5877 162.702 55.3777 160.272C54.9581 155.416 54.7461 149.53 54.7461 143.798C54.7461 138.06 54.9585 132.542 55.3744 128.417C55.5836 126.341 55.8363 124.702 56.1138 123.589C56.1578 123.413 56.1999 123.26 56.2392 123.129C56.6192 123.178 57.1045 123.288 57.6883 123.475C58.9647 123.885 60.4863 124.59 62.0163 125.47C63.5399 126.347 64.9941 127.352 66.1428 128.319C67.3625 129.346 67.9941 130.128 68.1816 130.518C68.1764 130.507 68.1775 130.512 68.1829 130.536C68.2029 130.623 68.2805 130.965 68.3182 131.719C68.3608 132.571 68.3441 133.679 68.2807 135.011C68.1836 137.051 67.9863 139.452 67.7745 142.03C67.7089 142.828 67.642 143.642 67.5763 144.468C67.3015 147.917 67.0498 151.536 67.0419 154.705C67.0344 157.749 67.2389 160.824 68.1365 162.919C68.6759 164.179 69.8389 165.542 71.121 166.832C72.4789 168.198 74.2409 169.744 76.2815 171.38C80.3677 174.656 85.6959 178.393 91.4324 181.912C97.1666 185.429 103.363 188.762 109.186 191.205C114.938 193.618 120.6 195.282 125.169 195.196ZM56.4947 122.474C56.4952 122.476 56.4842 122.498 56.4599 122.532C56.4821 122.489 56.4942 122.472 56.4947 122.474Z" fill="url(#paint0_linear_3701_7370)" stroke="url(#paint1_linear_3701_7370)" stroke-width="5"/>
<path d="M204.339 94.3768L203.125 92.1914L204.339 94.3768C210.719 90.8324 210.586 81.6122 204.107 78.2527L139.96 44.9914C130.58 40.1274 119.42 40.1274 110.04 44.9914L45.8927 78.2527C39.4137 81.6122 39.2811 90.8324 45.6609 94.3768L45.6609 94.3768L61.2858 103.057L61.2859 103.057L109.216 129.686C119.032 135.14 130.968 135.14 140.784 129.686L188.714 103.057L204.339 94.3768ZM112.341 31.8296C120.279 27.7139 129.721 27.7139 137.659 31.8296L217.034 72.9869C226.152 77.7147 231.875 87.1295 231.875 97.4002V136.719C231.875 139.653 229.497 142.031 226.562 142.031C223.628 142.031 221.25 139.653 221.25 136.719V128.548C221.25 114.455 206.111 105.547 193.791 112.391L138.355 143.188C130.049 147.802 119.951 147.802 111.645 143.188L22.6615 93.7538C19.8615 92.1983 18.125 89.247 18.125 86.044C18.125 82.7501 19.9606 79.7306 22.8848 78.2144L112.341 31.8296Z" fill="url(#paint2_linear_3701_7370)" stroke="url(#paint3_linear_3701_7370)" stroke-width="5"/>
</g>
<defs>
<linearGradient id="paint0_linear_3701_7370" x1="124.905" y1="120.117" x2="124.905" y2="210.624" gradientUnits="userSpaceOnUse">
<stop stop-color="#B67878"/>
<stop offset="0.489583" stop-color="#4E3F3F"/>
<stop offset="1" stop-color="#B67878"/>
</linearGradient>
<linearGradient id="paint1_linear_3701_7370" x1="124.905" y1="120.117" x2="124.905" y2="210.624" gradientUnits="userSpaceOnUse">
<stop stop-color="#B67878"/>
<stop offset="0.489583" stop-color="#4E3F3F"/>
<stop offset="1" stop-color="#B67878"/>
</linearGradient>
<linearGradient id="paint2_linear_3701_7370" x1="125" y1="22.4497" x2="125" y2="153.467" gradientUnits="userSpaceOnUse">
<stop stop-color="#B67878"/>
<stop offset="0.489583" stop-color="#4E3F3F"/>
<stop offset="1" stop-color="#B67878"/>
</linearGradient>
<linearGradient id="paint3_linear_3701_7370" x1="125" y1="22.4497" x2="125" y2="153.467" gradientUnits="userSpaceOnUse">
<stop stop-color="#B67878"/>
<stop offset="0.489583" stop-color="#4E3F3F"/>
<stop offset="1" stop-color="#B67878"/>
</linearGradient>
</defs>
</svg>
