<svg width="72" height="73" viewBox="0 0 72 73" fill="none" xmlns="http://www.w3.org/2000/svg">
<g clip-path="url(#clip0_4522_6939)">
<path fill-rule="evenodd" clip-rule="evenodd" d="M41.627 43.02C39.962 43.7075 38.0748 44.0881 36.001 44.0881C33.9273 44.0881 32.04 43.7075 30.375 43.02V43.505V47.6152V50.4283C32.0854 51.4159 34.0259 51.9358 36.001 51.9358C37.9762 51.9358 39.9166 51.4159 41.627 50.4283V47.6152V45.7298V43.02Z" fill="#FFDCD5"/>
<path fill-rule="evenodd" clip-rule="evenodd" d="M41.627 50.4282C39.9166 51.4157 37.9762 51.9357 36.001 51.9357C34.0259 51.9357 32.0854 51.4157 30.375 50.4282V56.0544C32.0854 57.042 34.0259 57.5619 36.001 57.5619C37.9762 57.5619 39.9166 57.042 41.627 56.0544V50.4282Z" fill="#8690AF"/>
<path fill-rule="evenodd" clip-rule="evenodd" d="M41.627 56.0542C39.9166 57.0418 37.976 57.5617 36.001 57.5617C34.0259 57.5617 32.0854 57.0418 30.375 56.0542V71.0929H36.001H41.627V56.0542Z" fill="#B6BCCF"/>
<path fill-rule="evenodd" clip-rule="evenodd" d="M25.6207 71.0932C23.3746 62.711 24.3465 55.5437 26.3046 50.6718L19.1226 52.8086C12.8163 54.6847 10.6836 57.6333 10.6836 63.7512V71.0932H25.6207Z" fill="#E0EF9B"/>
<path fill-rule="evenodd" clip-rule="evenodd" d="M45.6953 50.6719C47.6534 55.5437 48.6253 62.7111 46.3793 71.0933H61.3162V63.7512C61.3162 57.6334 59.1837 54.6848 52.8772 52.8086L45.6953 50.6719Z" fill="#E0EF9B"/>
<path fill-rule="evenodd" clip-rule="evenodd" d="M30.3757 67.372V47.6162L30.2812 47.6863L26.3058 50.672C24.3477 55.5438 23.3758 62.7112 25.6219 71.0934H30.3757V67.372Z" fill="#CBE558"/>
<path fill-rule="evenodd" clip-rule="evenodd" d="M41.625 67.372V47.6162L41.7195 47.6863L45.6949 50.672C47.653 55.5438 48.6249 62.7112 46.3788 71.0934H41.625V67.372Z" fill="#CBE558"/>
<path fill-rule="evenodd" clip-rule="evenodd" d="M22.3506 21.4189V24.2317H21.8956C20.1892 24.2317 18.793 25.6278 18.793 27.3342C18.793 29.0406 20.1891 30.4368 21.8956 30.4368H22.3506C22.3506 37.945 27.6705 44.088 36.002 44.088C44.3334 44.088 49.6533 37.945 49.6533 30.4368H50.1083C51.8148 30.4368 53.2109 29.0406 53.2109 27.3342C53.2109 25.6278 51.8147 24.2317 50.1083 24.2317H49.6533V21.4189C47.4751 21.4189 45.6826 19.7683 45.4577 17.6499C44.7591 18.1625 43.8971 18.4655 42.9643 18.4655C41.733 18.4655 40.625 17.9379 39.8537 17.0967C39.194 18.5668 37.7176 19.5907 36.0021 19.5907C34.2866 19.5907 32.8102 18.5668 32.1505 17.0967C31.3792 17.9379 30.2712 18.4655 29.0399 18.4655C28.107 18.4655 27.2449 18.1625 26.5465 17.6499C26.3213 19.7683 24.5288 21.4189 22.3506 21.4189Z" fill="#FFDCD5"/>
<path fill-rule="evenodd" clip-rule="evenodd" d="M26.5432 17.6498C27.2418 18.1625 28.1038 18.4655 29.0366 18.4655C30.2679 18.4655 31.3759 17.9379 32.1472 17.0967C32.8069 18.5667 34.2833 19.5907 35.9988 19.5907C37.7143 19.5907 39.1907 18.5667 39.8504 17.0967C40.6217 17.9379 41.7297 18.4655 42.961 18.4655C43.8939 18.4655 44.756 18.1625 45.4544 17.6498C45.6793 19.7683 47.4718 21.4188 49.65 21.4188V24.2317H50.105C51.8113 24.2317 53.2076 25.6278 53.2076 27.3342C55.5379 27.3342 57.4272 25.4451 57.4272 23.1147C57.4272 21.6128 56.6423 20.2943 55.4606 19.5466C56.1488 18.7959 56.5689 17.7953 56.5689 16.6965C56.5689 14.4457 54.8066 12.6068 52.5864 12.4838C52.7515 12.032 52.8417 11.5442 52.8417 11.0353C52.8417 8.70504 50.9526 6.81583 48.6222 6.81583C48.0427 6.81583 47.4905 6.93271 46.9879 7.1441C46.7982 4.98948 44.9892 3.29957 42.7852 3.29957C41.66 3.29957 40.6379 3.74009 39.8813 4.45797C39.2378 2.95005 37.7417 1.89307 35.9988 1.89307C34.2557 1.89307 32.7596 2.95005 32.1163 4.45797C31.3599 3.74009 30.3376 3.29957 29.2124 3.29957C27.0084 3.29957 25.1995 4.98948 25.0097 7.1441C24.507 6.93271 23.9549 6.81583 23.3754 6.81583C21.0451 6.81583 19.1559 8.7049 19.1559 11.0353C19.1559 11.5442 19.2461 12.0321 19.4111 12.4838C17.191 12.6067 15.4286 14.4457 15.4286 16.6965C15.4286 17.7953 15.8487 18.7959 16.5369 19.5466C15.3551 20.2943 14.5703 21.6128 14.5703 23.1147C14.5703 25.445 16.4594 27.3342 18.7898 27.3342C18.7898 25.6278 20.1861 24.2317 21.8924 24.2317H22.3474V21.4188C24.5258 21.4188 26.3183 19.7683 26.5432 17.6498Z" fill="#FF764E"/>
<path d="M25.0129 8.55092C26.8791 8.47652 26.8777 5.81162 25.0129 5.73792H25.0118C23.1457 5.8126 23.1482 8.4775 25.0129 8.55092Z" fill="black"/>
<path d="M53.2799 51.4605L46.3398 49.3958L43.0334 46.9126V43.919C44.506 43.1957 45.8338 42.233 46.9663 41.0514C49.3196 38.5958 50.7304 35.3323 51.008 31.7532C52.6473 31.4196 53.966 30.1938 54.4335 28.6068C58.5945 27.7276 60.301 22.4278 57.3428 19.2947C58.9494 16.3146 57.3692 12.4503 54.239 11.3951C54.4901 7.95686 51.4446 5.04343 48.0219 5.44133C46.9294 2.46756 43.1796 0.989322 40.294 2.47417C38.1343 -0.158665 33.8661 -0.157681 31.7074 2.47487C31.2967 2.27163 30.861 2.11874 30.4098 2.02085C28.5696 1.69848 28.0076 4.30375 29.8144 4.77014C30.3141 4.87844 30.776 5.12332 31.1502 5.47832C31.4843 5.7952 31.952 5.92882 32.4035 5.83529C32.8544 5.74204 33.2312 5.43387 33.4119 5.01009C34.3672 2.74323 37.6351 2.74422 38.5898 5.01009C38.7706 5.43387 39.1474 5.74204 39.5983 5.83529C40.049 5.92868 40.5173 5.79534 40.8516 5.47832C42.531 3.8607 45.389 4.95482 45.5889 7.26781C45.6283 7.71536 45.8792 8.11706 46.264 8.34899C46.6488 8.58078 47.1213 8.61496 47.5353 8.44083C49.7701 7.4868 52.1145 9.72427 51.2675 12.0011C51.1146 12.4197 51.1689 12.8857 51.4141 13.2578C51.6591 13.63 52.066 13.8639 52.5108 13.8884C54.8545 13.9981 56.0247 16.8836 54.4259 18.5965C54.1444 18.9037 54.0134 19.3197 54.0684 19.7325C54.1235 20.1455 54.3586 20.5128 54.7106 20.7355C56.6403 21.9404 56.3648 24.8454 54.311 25.7035C53.7678 24.3083 52.5491 23.2479 51.0586 22.9265V21.4192C51.0586 20.6425 50.4288 20.0127 49.6521 20.0127C48.2096 20.0127 47.0072 18.9331 46.8552 17.5015C46.802 17.0008 46.4852 16.5668 46.0249 16.3634C45.5643 16.1601 45.0304 16.2182 44.6245 16.516C43.5102 17.3606 41.8159 17.1976 40.8888 16.1461C40.5691 15.7974 40.0947 15.6331 39.6278 15.7084C39.1607 15.7839 38.7628 16.0893 38.569 16.521C37.5911 18.7245 34.41 18.7236 33.4325 16.521C33.2387 16.0893 32.8408 15.7839 32.3735 15.7084C31.9064 15.6331 31.4326 15.7974 31.1126 16.1462C30.186 17.1977 28.491 17.3605 27.3771 16.516C26.9712 16.2182 26.4371 16.1603 25.9766 16.3634C25.5161 16.5668 25.1995 17.0009 25.1464 17.5015C24.9945 18.9332 23.792 20.0127 22.3494 20.0127C21.5727 20.0127 20.9429 20.6425 20.9429 21.4192V22.9267C19.4527 23.2481 18.234 24.3084 17.6906 25.7035C15.636 24.8449 15.3622 21.9397 17.2909 20.7355C17.6429 20.5128 17.8781 20.1455 17.933 19.7325C17.9881 19.3196 17.8572 18.9035 17.5756 18.5965C15.9764 16.8832 17.148 13.9978 19.4907 13.8884C19.9355 13.8637 20.3424 13.6298 20.5875 13.2578C20.8326 12.8857 20.8869 12.4197 20.734 12.0011C20.5333 11.4569 20.5102 10.8377 20.6673 10.2779C20.8761 9.52961 20.4388 8.75378 19.6907 8.5452C18.943 8.33675 18.1667 8.77375 17.958 9.52187C17.7885 10.1277 17.7225 10.7654 17.7625 11.3951C14.6318 12.4506 13.0524 16.315 14.6588 19.2947C11.6996 22.4289 13.4088 27.7285 17.5681 28.6068C18.0355 30.1937 19.3542 31.4196 20.9935 31.7532C21.2713 35.3323 22.6819 38.5958 25.0352 41.0514C26.1678 42.233 27.4955 43.1957 28.9681 43.919V46.9128L25.6618 49.3958L18.7216 51.4605C11.9252 53.4827 9.27734 56.9286 9.27734 63.7514V71.0935C9.27734 71.8702 9.90718 72.5 10.6838 72.5H61.3175C62.0942 72.5 62.724 71.8702 62.724 71.0935V63.7514C62.7245 56.9286 60.0764 53.4825 53.2799 51.4605ZM12.0908 63.7514C12.0908 58.1624 13.897 55.8311 19.5243 54.1568L24.0892 52.7987C23.0033 56.5927 22.2024 62.4038 23.8836 69.687H12.0908V63.7514ZM28.9685 69.687H26.7763C24.6514 61.158 26.209 54.8129 27.4664 51.559L28.9685 50.4308V69.687ZM31.7815 52.6177C34.4805 53.5813 37.5216 53.5813 40.2205 52.6177V55.2055C37.5943 56.4677 34.4078 56.4677 31.7815 55.2055V52.6177ZM23.7562 30.4371C23.7562 29.6605 23.1263 29.0306 22.3497 29.0306H21.8948C19.6443 28.9372 19.6459 25.7311 21.8948 25.6386H22.3497C23.1263 25.6386 23.7562 25.0087 23.7562 24.2321V22.6495C25.3711 22.2361 26.7125 21.1258 27.4245 19.6379C28.8677 20.0785 30.5182 19.8872 31.8198 19.1352C33.9768 21.6012 38.0258 21.6008 40.1821 19.1352C41.4837 19.8872 43.1344 20.0785 44.5775 19.6379C45.2896 21.1258 46.6308 22.2361 48.2458 22.6495V24.2321C48.2458 25.0087 48.8756 25.6386 49.6523 25.6386H50.1073C52.3578 25.732 52.3561 28.9381 50.1073 29.0306H49.6523C48.8756 29.0306 48.2458 29.6605 48.2458 30.4371C48.1908 46.7199 23.8086 46.714 23.7562 30.4371ZM36.001 45.4947C37.4663 45.4947 38.8821 45.3136 40.2205 44.9626V49.5792C37.5945 50.8415 34.4076 50.8415 31.7815 49.5792V44.9626C33.12 45.3136 34.5357 45.4947 36.001 45.4947ZM40.2205 69.687H31.7815V58.2438C34.4806 59.2074 37.5215 59.2074 40.2205 58.2438V69.687ZM43.0336 50.4307L44.5357 51.559C45.793 54.8131 47.3505 61.1584 45.2256 69.687H43.0334V50.4307H43.0336ZM59.9114 69.687H48.1186C49.7998 62.404 48.999 56.5927 47.913 52.7987L52.4779 54.1568C58.1052 55.831 59.9116 58.1624 59.9116 63.7514V69.687H59.9114Z" fill="black"/>
<path d="M30.3758 25.9282H30.3748C29.5982 25.9282 28.9688 26.5581 28.9688 27.3347C29.0432 29.2002 31.7085 29.2002 31.7823 27.3347C31.7823 26.5581 31.1525 25.9282 30.3758 25.9282Z" fill="black"/>
<path d="M41.6261 28.7412C43.4923 28.6668 43.4909 26.0019 41.6261 25.9282H41.6252C39.759 26.0029 39.7614 28.6677 41.6261 28.7412Z" fill="black"/>
<path d="M39.105 34.1225C39.6543 33.5733 39.6543 32.6827 39.105 32.1333C38.5557 31.5842 37.6653 31.5842 37.1158 32.1333C36.5289 32.7451 35.4723 32.7451 34.8855 32.1333C34.3361 31.5842 33.4458 31.5842 32.8963 32.1333C32.3471 32.6826 32.3471 33.5732 32.8963 34.1225C34.5305 35.8255 37.471 35.8254 39.105 34.1225Z" fill="black"/>
</g>
<defs>
<clipPath id="clip0_4522_6939">
<rect width="72" height="72" fill="white" transform="translate(0 0.5)"/>
</clipPath>
</defs>
</svg>
