<svg width="250" height="250" viewBox="0 0 250 250" fill="none" xmlns="http://www.w3.org/2000/svg">
<g style="mix-blend-mode:hard-light">
<g style="mix-blend-mode:hard-light">
<path d="M55.9684 46.9792C74.9965 30.0977 99.5625 20.7933 125 20.8334C182.531 20.8334 229.166 67.4688 229.166 125C229.2 146.291 222.679 167.076 210.489 184.531L182.291 125H208.333C208.333 108.431 203.394 92.2377 194.147 78.4891C184.899 64.7406 171.763 54.0608 156.417 47.8142C141.07 41.5675 124.21 40.0376 107.989 43.4198C91.769 46.802 76.9251 54.9427 65.3538 66.8021L55.9788 46.9896L55.9684 46.9792ZM194.031 203.021C175.003 219.902 150.437 229.207 125 229.167C67.4684 229.167 20.833 182.531 20.833 125C20.833 102.865 27.7393 82.3438 39.5101 65.4688L67.708 125H41.6663C41.666 141.569 46.6051 157.762 55.8526 171.511C65.1001 185.26 78.2361 195.939 93.5827 202.186C108.929 208.433 125.79 209.962 142.01 206.58C158.23 203.198 173.074 195.057 184.646 183.198L194.021 203.01L194.031 203.021ZM139.729 154.458L110.271 125L80.8018 154.458L66.0726 139.729L110.271 95.5417L139.729 125L169.198 95.5417L183.927 110.271L139.729 154.458Z" fill="url(#paint0_linear_3701_7436)"/>
</g>
</g>
<defs>
<linearGradient id="paint0_linear_3701_7436" x1="125" y1="20.8333" x2="125" y2="229.167" gradientUnits="userSpaceOnUse">
<stop stop-color="#87AEB5"/>
<stop offset="0.494792" stop-color="#4B5F63"/>
<stop offset="1" stop-color="#87AEB5"/>
</linearGradient>
</defs>
</svg>
