<svg width="72" height="72" viewBox="0 0 72 72" fill="none" xmlns="http://www.w3.org/2000/svg">
<path fill-rule="evenodd" clip-rule="evenodd" d="M50.2318 29.9256C51.9338 29.9256 53.3264 28.5308 53.3264 26.8259C53.3264 25.1212 51.9338 23.7263 50.2318 23.7263H49.6377C49.6377 20.6163 48.7443 19.9255 47.1368 18.9739C44.1874 17.2282 43.0073 14.2027 42.3846 11.1923C38.8221 15.6399 32.1671 18.9483 25.5882 19.7947C23.6036 20.0501 22.3604 21.476 22.3604 23.7262H21.7664C20.0643 23.7262 18.6718 25.121 18.6718 26.8259C18.6718 28.5308 20.0643 29.9256 21.7664 29.9256H22.3604C22.3605 37.4269 31.0395 43.5644 35.9991 43.5644C40.9587 43.5644 49.6377 37.4269 49.6379 29.9256H50.2318Z" fill="#FFDCD5"/>
<path fill-rule="evenodd" clip-rule="evenodd" d="M40.4395 2.16511C38.9835 1.64481 37.4515 1.40814 36.0005 1.40814C25.7716 1.40814 17.4022 9.77751 17.4022 20.0064V43.8892V54.4024C21.0665 52.7071 26.4514 51.2542 30.3755 49.9335V41.7626C27.8878 40.326 25.4565 38.1196 23.9363 35.473C22.9617 33.776 22.3617 31.898 22.3617 29.9257H21.7677C20.0656 29.9257 18.673 28.5309 18.673 26.826C18.673 25.1211 20.0656 23.7263 21.7677 23.7263H22.3617C22.3617 21.4759 23.6049 20.05 25.5895 19.7948C32.1683 18.9484 38.8235 15.6399 42.3859 11.1924C42.9523 9.91419 45.055 5.3139 45.055 5.3139C43.8029 3.80855 42.1754 2.78539 40.4395 2.16511Z" fill="#8690AF"/>
<path fill-rule="evenodd" clip-rule="evenodd" d="M54.5983 54.4021V54.1309V20.0061C54.5983 12.9576 50.899 6.87938 45.0548 5.31342C45.0548 5.31342 42.9521 9.9137 42.3856 11.192C43.0083 14.2024 44.1885 17.2278 47.1378 18.9735C48.7455 19.9251 49.6388 20.616 49.6388 23.726H50.2329C51.9347 23.726 53.3274 25.1208 53.3274 26.8255C53.3274 28.5304 51.9348 29.9253 50.2329 29.9253H49.6388C49.6388 31.8976 49.0387 33.7756 48.0641 35.4726C46.544 38.1193 44.1126 40.3255 41.6249 41.7622V49.9332C45.5492 51.2539 50.934 52.7066 54.5983 54.4021Z" fill="#8690AF"/>
<path fill-rule="evenodd" clip-rule="evenodd" d="M46.1531 5.35314C45.0548 4.25489 43.2741 4.25489 42.1757 5.35314C41.0774 6.45153 41.0774 8.23222 42.1757 9.33062C43.2741 10.4289 45.0548 10.4289 46.1531 9.33062C47.2514 8.23222 47.2514 6.45139 46.1531 5.35314ZM45.3008 2.22797C46.3946 1.13422 48.1844 1.13422 49.2782 2.22797C50.3719 3.32172 50.3719 5.11155 49.2782 6.20531L48.1418 7.34167L49.2782 8.47803C50.3719 9.57178 50.3719 11.3616 49.2782 12.4554C48.1844 13.5491 46.3946 13.5491 45.3008 12.4554L44.1645 11.319L43.0281 12.4554C41.9344 13.5491 40.1445 13.5491 39.0508 12.4554C37.957 11.3616 37.957 9.57178 39.0508 8.47803L40.1871 7.34167L39.0508 6.20531C37.957 5.11155 37.957 3.32172 39.0508 2.22797C40.1445 1.13422 41.9344 1.13422 43.0281 2.22797L44.1645 3.36433L45.3008 2.22797Z" fill="#FAF7F6"/>
<path d="M44.1639 10.1541C45.7171 10.1541 46.9763 8.89493 46.9763 7.34166C46.9763 5.7884 45.7171 4.52924 44.1639 4.52924C42.6106 4.52924 41.3514 5.7884 41.3514 7.34166C41.3514 8.89493 42.6106 10.1541 44.1639 10.1541Z" fill="#FFC144"/>
<path fill-rule="evenodd" clip-rule="evenodd" d="M28.2912 40.3635C27.5262 41.7382 28.5387 43.9741 28.5387 45.324C28.5387 46.674 27.3635 48.9883 28.3096 50.6273C29.2559 52.2661 30.5885 53.5999 35.9971 53.5999C41.4057 53.5999 42.7384 52.2662 43.6846 50.6273C44.6309 48.9885 43.4555 46.674 43.4555 45.324C43.4555 43.9741 44.468 41.7382 43.703 40.3635C41.1233 42.3586 38.195 43.5639 35.9971 43.5639C33.7993 43.5639 30.871 42.3586 28.2912 40.3635Z" fill="#E6D5CF"/>
<path fill-rule="evenodd" clip-rule="evenodd" d="M28.3115 50.6272L19.1245 53.7189C13.9523 55.4595 10.6874 59.0626 10.6874 64.9687V70.5936H61.3107V64.9687C61.3107 59.0628 58.0456 55.4595 52.8734 53.7189L43.6864 50.6272C42.7402 52.266 41.4075 53.5998 35.999 53.5998C30.5904 53.5998 29.2576 52.2661 28.3115 50.6272Z" fill="#E6D5CF"/>
<path d="M30.3759 28.25C32.2418 28.1758 32.2404 25.5112 30.3759 25.4375H30.375C28.509 25.512 28.5115 28.1766 30.3759 28.25Z" fill="black"/>
<path d="M41.6259 28.25C43.4917 28.1758 43.4903 25.5112 41.6259 25.4375H41.6249C39.7591 25.512 39.7615 28.1766 41.6259 28.25Z" fill="black"/>
<path d="M36 34.9157C37.1724 34.9157 38.2746 34.4591 39.1037 33.63C39.6528 33.0809 39.6528 32.1905 39.1037 31.6412C38.5545 31.0922 37.6641 31.0922 37.1149 31.6412C36.5278 32.2531 35.472 32.2531 34.885 31.6412C34.3359 31.0922 33.4455 31.0922 32.8962 31.6412C32.3471 32.1904 32.3471 33.0808 32.8962 33.63C33.7255 34.4591 34.8278 34.9157 36 34.9157Z" fill="black"/>
<path d="M22.4305 8.72705C24.2963 8.6528 24.2949 5.98824 22.4305 5.91455H22.4295C20.5637 5.98908 20.5663 8.65364 22.4305 8.72705Z" fill="black"/>
<path d="M56.0034 53.5287V20.006C56.0034 14.6487 54.0174 9.8267 50.6268 6.79532C51.9053 5.14203 51.7865 2.74978 50.2706 1.23374C48.6257 -0.411247 45.9494 -0.411247 44.3044 1.23374L44.1625 1.37577L44.0205 1.23374C42.7465 -0.040288 40.8536 -0.327578 39.3004 0.372155C35.1054 -0.546244 30.6101 0.303813 26.8196 2.24636C26.1306 2.60494 25.8628 3.45415 26.2214 4.14292C26.5815 4.83885 27.4431 5.09619 28.1179 4.74126C30.8732 3.31142 33.9403 2.6356 37.0437 2.85905C36.5456 4.3322 36.8824 6.02781 38.0544 7.19975L38.1964 7.34177L38.0544 7.4838C37.2598 8.27845 36.8221 9.3379 36.8222 10.4669C36.8222 11.578 37.2461 12.6217 38.017 13.4118C34.5706 15.98 29.9771 17.8119 25.4087 18.3995C23.1074 18.6955 21.5361 20.1756 21.0864 22.371C20.2217 22.5026 19.4371 22.8816 18.8071 23.4331V20.0059C18.8071 17.6357 19.2877 15.3351 20.2357 13.1684C20.547 12.4569 20.2224 11.6278 19.511 11.3166C18.7995 11.0051 17.9704 11.3297 17.6591 12.0412C16.5546 14.5655 15.9947 17.2452 15.9947 20.0059V53.5286C11.5891 55.8669 9.28125 59.774 9.28125 64.9686V70.5936C9.28125 71.3701 9.91081 71.9998 10.6875 71.9998H61.3108C62.0874 71.9998 62.717 71.3701 62.717 70.5936V64.9686C62.7168 59.774 60.409 55.8669 56.0034 53.5287ZM29.5402 49.9429C29.5348 49.9333 29.5295 49.9239 29.524 49.9145C29.1716 49.2886 29.4255 48.1864 29.6497 47.2134C29.8024 46.5507 29.9467 45.9246 29.9467 45.3239C29.9467 44.7178 29.8144 44.0848 29.6742 43.4144C29.6422 43.2616 29.6079 43.0979 29.5752 42.9298C34.1801 45.6195 37.8176 45.6194 42.4225 42.9298C42.3897 43.0979 42.3554 43.2616 42.3235 43.4144C42.1833 44.0849 42.051 44.718 42.051 45.3239C42.051 45.9245 42.1952 46.5507 42.348 47.2134C42.5721 48.1858 42.8258 49.2872 42.4744 49.9134C42.468 49.9242 42.4617 49.9353 42.4555 49.9463C41.8738 50.9535 41.1203 52.1934 35.9988 52.1934C30.8716 52.1935 30.1223 50.9507 29.5402 49.9429ZM45.0888 46.5818C44.978 46.1015 44.8635 45.6049 44.8635 45.324C44.8635 45.0089 44.9718 44.491 45.0766 43.9901C45.2751 43.0405 45.5098 41.9176 45.3335 40.8514C45.4264 40.772 45.5188 40.6916 45.6107 40.6101C48.6986 37.8739 50.5638 34.6017 50.963 31.2722C51.8074 31.1335 52.5734 30.7588 53.191 30.2181V52.3425L45.4226 49.7282C45.5552 48.606 45.2962 47.4819 45.0888 46.5818ZM53.191 23.4332C52.5772 22.8958 51.8167 22.5223 50.9785 22.3817C50.3932 17.0967 46.5365 18.9743 44.5636 13.6884C46.6811 15.5511 50.2401 14.6632 51.2188 11.9969C52.4886 14.2549 53.191 17.0241 53.191 20.006V23.4332ZM40.043 9.47261L40.3555 9.16015C40.5563 9.58159 40.8309 9.97646 41.1794 10.3249C41.5279 10.6734 41.9227 10.9479 42.3442 11.1487L42.0317 11.4611C41.4836 12.0094 40.5912 12.0093 40.043 11.4611C39.5021 10.9434 39.5021 9.99052 40.043 9.47261ZM43.1681 6.34744C43.6915 5.80197 44.6333 5.80197 45.1567 6.34744C45.705 6.89572 45.705 7.78783 45.1567 8.33625C44.6086 8.88439 43.7163 8.88439 43.1679 8.33625C42.6198 7.78783 42.6198 6.89572 43.1681 6.34744ZM47.1455 10.3249C47.494 9.97646 47.7686 9.58159 47.9694 9.16015L48.2819 9.47261C48.823 9.99052 48.8229 10.9432 48.2819 11.4613C47.7639 12.0024 46.8113 12.0024 46.2932 11.4613L45.9808 11.1488C46.4022 10.9479 46.7971 10.6734 47.1455 10.3249ZM47.2874 2.81391C47.6653 2.81391 48.0184 2.95903 48.2818 3.22241C48.8227 3.74032 48.8229 4.69317 48.2818 5.21108L47.9694 5.5234C47.7686 5.10196 47.494 4.70709 47.1455 4.35863C46.7971 4.01017 46.4022 3.73554 45.9808 3.53473L46.2931 3.22241C46.5566 2.95903 46.9097 2.81391 47.2874 2.81391ZM42.0317 3.22241L42.344 3.53473C41.9226 3.73554 41.5277 4.01017 41.1793 4.35863C40.8308 4.70709 40.5562 5.10196 40.3553 5.5234L40.043 5.21108C39.4947 4.66294 39.4947 3.77069 40.043 3.22241C40.5915 2.67413 41.4834 2.67413 42.0317 3.22241ZM21.7662 25.1321H22.3603C23.137 25.1321 23.7665 24.5024 23.7665 23.7259C23.7665 22.686 24.1137 21.4018 25.7676 21.1889C31.3557 20.4701 37.0001 18.0445 40.9315 14.6822C41.256 14.6904 41.5809 14.6613 41.8997 14.5952C42.8822 17.1338 44.3697 18.9698 46.4204 20.1835C47.7384 20.9636 48.2314 21.2556 48.2314 23.7257C48.2314 24.5022 48.861 25.1319 49.6376 25.1319H50.2316C52.472 25.2252 52.4702 28.4266 50.2316 28.5189H49.6376C48.861 28.5189 48.2314 29.1485 48.2314 29.9252C48.2314 33.9316 45.4208 37.0204 43.7454 38.505C41.2799 40.6897 38.1669 42.1577 35.9989 42.1577C33.8309 42.1577 30.7179 40.6899 28.2523 38.505C26.577 37.0205 23.7665 33.9319 23.7664 29.9252C23.7664 29.1486 23.1368 28.5189 22.3602 28.5189H21.766C19.5258 28.4258 19.5275 25.2245 21.7662 25.1321ZM21.0348 31.272C21.434 34.6018 23.2992 37.8738 26.3871 40.61C26.479 40.6914 26.5714 40.7719 26.6644 40.8513C26.393 42.3545 27.0315 43.964 27.1345 45.324C27.1345 45.6049 27.0201 46.1015 26.9093 46.5818C26.7019 47.4819 26.4428 48.606 26.5754 49.7279L18.8071 52.3422V30.2179C19.4246 30.7586 20.1905 31.1334 21.0348 31.272ZM59.9044 69.1875H53.9024C53.9136 67.4756 53.4784 65.8351 52.65 64.5452C52.2303 63.8917 51.3602 63.702 50.7069 64.1219C50.0534 64.5415 49.8639 65.4115 50.2836 66.065C50.8246 66.9072 51.105 68.0105 51.0914 69.1874H20.9067C20.8931 68.0105 21.1735 66.9072 21.7144 66.065C22.1342 65.4115 21.9446 64.5415 21.2912 64.1219C20.6377 63.7024 19.7678 63.8917 19.3481 64.5452C18.5195 65.8351 18.0843 67.4756 18.0957 69.1875H12.0935V64.9687C12.0935 60.0585 14.6101 56.722 19.5731 55.0518L27.7447 52.3018C29.0798 53.9941 31.2075 55.0061 35.999 55.0061C40.7906 55.0061 42.9183 53.9941 44.2534 52.3018L52.425 55.0518C57.388 56.7221 59.9045 60.0585 59.9045 64.9687V69.1875H59.9044Z" fill="black"/>
</svg>
