<svg width="72" height="72" viewBox="0 0 72 72" fill="none" xmlns="http://www.w3.org/2000/svg">
<g clip-path="url(#clip0_4522_6918)">
<path fill-rule="evenodd" clip-rule="evenodd" d="M22.3126 13.3201C25.9663 11.7197 30.7562 10.7494 36.0002 10.7494C41.2443 10.7494 46.0341 11.7197 49.6878 13.3201L47.6887 6.93633C46.0302 1.64039 41.9997 1.40625 36.0002 1.40625C30.0007 1.40625 25.9703 1.64039 24.3119 6.93619L22.3126 13.3201Z" fill="#CBE558"/>
<path fill-rule="evenodd" clip-rule="evenodd" d="M35.9985 10.7495C30.7545 10.7495 25.9646 11.7198 22.3109 13.3203C17.9776 15.2184 15.2423 18.0028 15.2423 21.1059C15.2423 23.133 16.4345 25.1154 18.6707 26.8074C18.6803 25.1105 20.0691 23.7252 21.7653 23.7252H22.3593C22.3593 18.0091 30.2274 16.3748 35.9983 16.3748C41.7693 16.3748 49.6374 18.0093 49.6374 23.7252H50.2314C51.9276 23.7252 53.3164 25.1105 53.3259 26.8074C55.5621 25.1154 56.7544 23.133 56.7544 21.1059C56.7544 18.0028 54.0189 15.2184 49.6857 13.3203C46.0322 11.7198 41.2425 10.7495 35.9985 10.7495Z" fill="#E0EF9B"/>
<path fill-rule="evenodd" clip-rule="evenodd" d="M35.9986 16.3745C30.2276 16.3745 22.3595 18.009 22.3595 23.725C26.3056 23.725 32.8716 22.2124 35.9986 16.7964C39.1255 22.2124 45.6916 23.725 49.6377 23.725C49.6377 18.009 41.7695 16.3745 35.9986 16.3745Z" fill="#FF5D7D"/>
<path fill-rule="evenodd" clip-rule="evenodd" d="M35.9997 16.7964C32.8728 22.2125 26.3067 23.725 22.3607 23.725H21.7667C20.0704 23.725 18.6816 25.1103 18.6721 26.8073V26.8248C18.6721 27.6769 19.0198 28.4514 19.5802 29.0131C20.1412 29.5755 20.9152 29.9245 21.7667 29.9245H22.3607C22.3608 37.426 31.04 43.5636 35.9997 43.5636C40.9594 43.5636 49.6388 37.426 49.6388 29.9245H50.2328C51.0843 29.9245 51.8583 29.5755 52.4192 29.0131C52.9796 28.4513 53.3274 27.6767 53.3274 26.8248C53.3274 26.8189 53.3274 26.813 53.3274 26.8073C53.3178 25.1103 51.929 23.725 50.2328 23.725H49.6388C45.6927 23.725 39.1267 22.2125 35.9997 16.7964Z" fill="#FFDCD5"/>
<path fill-rule="evenodd" clip-rule="evenodd" d="M30.3745 42.1745V41.7617C26.2917 39.4039 22.3604 34.9732 22.3604 29.9246H21.7664C20.9149 29.9246 20.1409 29.5756 19.58 29.0132C17.7008 30.9668 16.9836 33.2871 18.2493 36.2402C19.5149 39.1934 19.1093 41.6238 16.8571 43.8762C14.3937 46.3395 13.3347 50.9056 19.1248 53.7191L30.3746 49.933V42.1745H30.3745Z" fill="#FF5D7D"/>
<path fill-rule="evenodd" clip-rule="evenodd" d="M41.6251 42.1741V49.9326L52.875 53.7185C58.6651 50.9052 57.606 46.3391 55.1427 43.8756C52.8903 41.6232 52.4847 39.1928 53.7504 36.2397C55.016 33.2866 54.2988 30.9663 52.4196 29.0127C51.8587 29.5751 51.0847 29.9241 50.2332 29.9241H49.6392C49.6392 34.9727 45.7079 39.4033 41.6251 41.7612V42.1741Z" fill="#FF5D7D"/>
<path d="M23.0159 11.9454C24.7633 11.9454 26.1799 10.5288 26.1799 8.78131C26.1799 7.03385 24.7633 5.61725 23.0159 5.61725C21.2684 5.61725 19.8518 7.03385 19.8518 8.78131C19.8518 10.5288 21.2684 11.9454 23.0159 11.9454Z" fill="#FFC144"/>
<path fill-rule="evenodd" clip-rule="evenodd" d="M28.2954 40.363C27.5304 41.7378 28.5429 43.9737 28.5429 45.3237C28.5429 46.6737 27.3677 48.9881 28.3138 50.6271C29.26 52.266 30.5928 53.5998 36.0013 53.5998C41.4099 53.5998 42.7428 52.2661 43.689 50.6271C44.6353 48.9883 43.4599 46.6737 43.4599 45.3237C43.4599 43.9737 44.4725 41.7378 43.7075 40.363C41.1277 42.3582 38.1993 43.5635 36.0013 43.5635C33.8035 43.5635 30.8751 42.3582 28.2954 40.363Z" fill="#FFC144"/>
<path fill-rule="evenodd" clip-rule="evenodd" d="M28.3122 50.627L19.1251 53.7187C13.9528 55.4594 10.6876 59.0626 10.6876 64.9688V70.5938H61.312V64.9688C61.312 59.0627 58.0468 55.4594 52.8747 53.7187L43.6874 50.627C42.7411 52.2658 41.4084 53.5996 35.9997 53.5996C30.5912 53.5996 29.2585 52.2658 28.3122 50.627Z" fill="#FFC144"/>
<path d="M36.0008 12.1553C37.8666 12.0809 37.8652 9.41646 36.0008 9.34277H35.9998C34.1341 9.41745 34.1365 12.0819 36.0008 12.1553Z" fill="black"/>
<path d="M55.888 53.467C57.6112 52.0347 58.2415 50.4801 58.4417 49.2882C58.811 47.0889 57.9494 44.694 56.137 42.8815C54.3202 41.0646 53.9929 39.2441 55.0428 36.794C56.2757 33.9179 55.9936 31.2799 54.2075 28.9381C54.4377 28.506 54.5996 28.0321 54.6788 27.5309C61.1892 22.0533 57.8524 15.4565 50.841 12.2975L49.0304 6.51583C48.128 3.63444 46.4683 1.78607 43.9563 0.86484C41.771 0.0637029 39.1713 0 35.9999 0C31.3975 0 26.6531 0 24.0988 4.01666C23.5027 3.26263 22.247 3.3771 21.7937 4.21873C20.8833 3.66059 19.6479 4.3744 19.6763 5.44132C19.1875 5.43851 18.7112 5.69093 18.4495 6.14459C18.1877 6.5981 18.2072 7.13683 18.4539 7.55885C17.5134 8.0762 17.5138 9.48695 18.4539 10.0039C18.2071 10.4259 18.1877 10.9649 18.4498 11.4184C18.7118 11.8717 19.1877 12.1241 19.6763 12.1214C19.6748 12.4081 19.7611 12.6907 19.9243 12.928C19.4397 13.1958 18.978 13.4769 18.5408 13.7706C12.8845 17.4469 12.1733 23.3445 17.321 27.5309C17.4002 28.0319 17.5621 28.5058 17.7923 28.9381C13.0885 35.3981 20.6914 38.0251 15.8628 42.8816C14.0502 44.6941 13.1886 47.0891 13.5579 49.2883C13.7582 50.4802 14.3883 52.0348 16.1117 53.4671C11.6301 55.7982 9.28125 59.7285 9.28125 64.9689V70.5939C9.28125 71.3704 9.91097 72.0001 10.6875 72.0001H61.3123C62.0888 72.0001 62.7185 71.3704 62.7185 70.5939V64.9689C62.7185 59.7284 60.3697 55.7981 55.888 53.467ZM55.6679 48.8224C55.4522 50.108 54.4501 51.267 52.7592 52.1961L45.424 49.7276C45.5566 48.6057 45.2976 47.4816 45.0901 46.5816C44.9795 46.1012 44.8649 45.6046 44.8649 45.3238C44.8649 45.0087 44.9733 44.4906 45.0779 43.9897C45.2765 43.0401 45.5112 41.9173 45.3348 40.8511C45.4278 40.7717 45.5203 40.6912 45.6121 40.6098C48.7001 37.8734 50.5653 34.6012 50.9646 31.2715C51.3841 31.2026 51.7843 31.0755 52.1565 30.8986C53.1528 32.3504 53.2389 33.8642 52.458 35.6864C50.9453 39.2162 51.4984 42.2204 54.1485 44.8706C55.3187 46.0409 55.8869 47.5184 55.6679 48.8224ZM20.0891 27.0144C20.1061 26.8884 20.106 26.7611 20.0889 26.6361C20.1829 25.7908 20.8995 25.1314 21.7669 25.1314H22.3609C26.6419 25.1314 32.4708 23.5553 35.9999 19.2577C39.5293 23.5553 45.358 25.1314 49.6389 25.1314H50.2331C51.1003 25.1314 51.8169 25.7908 51.9108 26.6361C51.894 26.7611 51.8937 26.8885 51.9107 27.0145C51.8165 27.8594 51.1001 28.5184 50.2331 28.5184H49.6389C48.8624 28.5184 48.2327 29.1481 48.2327 29.9246C48.2327 33.9313 45.4221 37.0201 43.7467 38.5047C41.2812 40.6895 38.1679 42.1575 35.9999 42.1575C33.8319 42.1575 30.7187 40.6897 28.2532 38.5047C26.5778 37.0201 23.7673 33.9314 23.7671 29.9246C23.7671 29.1479 23.1374 28.5184 22.3609 28.5184H21.7669C20.8999 28.5182 20.1834 27.8591 20.0891 27.0144ZM24.0492 22.2303C25.1461 19.5225 29.2775 18.241 33.4712 17.8863C30.9865 20.6222 27.2528 21.901 24.0492 22.2303ZM38.5286 17.886C42.7262 18.2405 46.8506 19.5228 47.9492 22.2302C44.7456 21.9006 41.013 20.622 38.5286 17.886ZM29.5409 49.9422C29.5357 49.9328 29.5303 49.9235 29.525 49.9144C29.1726 49.2884 29.4264 48.1862 29.6507 47.2132C29.8034 46.5505 29.9477 45.9244 29.9477 45.3237C29.9477 44.7176 29.8154 44.0845 29.6752 43.414C29.6432 43.2611 29.6091 43.0976 29.5762 42.9296C34.1812 45.6193 37.8187 45.6191 42.4236 42.9296C42.3909 43.0975 42.3567 43.2611 42.3246 43.4139C42.1846 44.0844 42.0521 44.7176 42.0521 45.3235C42.0521 45.9241 42.1964 46.5504 42.3491 47.2131C42.5734 48.1864 42.8275 49.2889 42.4745 49.9148C42.4695 49.9234 42.4645 49.9321 42.4596 49.9409C41.8774 50.9491 41.1299 52.1933 35.9998 52.1933C30.8719 52.1933 30.1231 50.9501 29.5409 49.9422ZM21.2585 8.78129C21.2585 7.81197 22.047 7.02349 23.0163 7.02349C25.3483 7.1201 25.3476 10.4429 23.0163 10.5391C22.0471 10.5391 21.2585 9.75062 21.2585 8.78129ZM20.1095 16.1052C22.5243 14.4828 26.0052 13.2471 29.9107 12.626C31.7418 12.2599 31.3219 9.62757 29.469 9.84835C28.856 9.9458 28.2544 10.0565 27.6656 10.1797C27.6409 10.1193 27.6118 10.0604 27.5787 10.0037C28.5192 9.48638 28.5188 8.07564 27.5787 7.5587C27.8255 7.13683 27.8449 6.5981 27.5831 6.14444C27.3502 5.74113 26.9476 5.49687 26.5176 5.44962C28.0604 3.08432 30.7934 2.81249 35.9999 2.81249C42.3408 2.81249 45.052 3.22353 46.3463 7.35635L47.4867 10.9981C45.9467 10.5139 44.2855 10.1274 42.5298 9.84821C41.7632 9.72615 41.0423 10.2491 40.9202 11.0162C40.7983 11.7832 41.3213 12.5039 42.0882 12.6258C45.9941 13.247 49.4752 14.4825 51.8902 16.105C54.8579 18.0351 56.7883 21.179 53.9707 24.3171C53.2838 23.294 52.1891 22.5671 50.9218 22.3715C49.3284 12.4181 22.6939 12.4083 21.0789 22.3712C19.8112 22.5669 18.7162 23.2939 18.0291 24.3171C15.2098 21.1769 17.146 18.0324 20.1095 16.1052ZM17.8519 44.8703C20.5021 42.2198 21.0549 39.2158 19.5423 35.686C18.7614 33.8638 18.8474 32.3501 19.8438 30.8981C20.2161 31.075 20.6161 31.2022 21.0356 31.2711C21.4349 34.6008 23.3002 37.873 26.3881 40.6094C26.4799 40.6908 26.5723 40.7712 26.6654 40.8507C26.4892 41.9169 26.7239 43.0398 26.9224 43.9894C27.0271 44.4903 27.1355 45.0083 27.1355 45.3234C27.1355 45.6042 27.021 46.1008 26.9102 46.5811C26.7028 47.4811 26.4438 48.6053 26.5764 49.7272L19.2408 52.1959C17.55 51.2669 16.548 50.1077 16.3322 48.8223C16.1131 47.5184 16.6812 46.0409 17.8519 44.8703ZM59.906 69.1875H53.9039C53.9152 67.4755 53.4799 65.835 52.6515 64.5452C52.2319 63.8919 51.3617 63.7022 50.7084 64.1219C50.0549 64.5417 49.8655 65.4117 50.2851 66.0651C50.8261 66.9073 51.1065 68.0105 51.0928 69.1874H20.9074C20.8937 68.0105 21.1741 66.9073 21.7151 66.0651C22.1347 65.4117 21.9455 64.5417 21.2918 64.1219C20.6382 63.7022 19.7683 63.8916 19.3487 64.5452C18.5203 65.8352 18.0849 67.4755 18.0963 69.1875H12.094V64.9688C12.094 60.0586 14.6106 56.7219 19.5736 55.0515L27.7455 52.3015C29.0806 53.9939 31.2084 55.006 35.9999 55.006C40.7914 55.006 42.9193 53.9939 44.2544 52.3015L52.4261 55.0515C57.3894 56.7219 59.906 60.0586 59.906 64.9688V69.1875Z" fill="black"/>
<path d="M39.164 28.568C39.8368 28.9564 40.6967 28.7258 41.0849 28.0533C41.3054 27.6435 41.9444 27.6435 42.1649 28.0533C43.1649 29.6356 45.47 28.2911 44.6006 26.647C43.3084 24.3709 39.9408 24.3716 38.6493 26.647C38.261 27.3196 38.4914 28.1799 39.164 28.568Z" fill="black"/>
<path d="M27.9141 28.5682C28.5868 28.9566 29.4469 28.726 29.835 28.0535C30.0555 27.6438 30.6945 27.6438 30.915 28.0535C31.915 29.6358 34.2201 28.2913 33.3507 26.6473C32.0585 24.3711 28.6909 24.3718 27.3994 26.6473C27.011 27.3199 27.2413 28.1801 27.9141 28.5682Z" fill="black"/>
<path d="M32.8961 33.6299C34.5303 35.3325 37.4697 35.3323 39.1036 33.6297C39.6527 33.0806 39.6527 32.1901 39.1036 31.6409C38.5543 31.0919 37.6642 31.0919 37.1147 31.6409C36.5268 32.2495 35.4713 32.2538 34.8847 31.6407C34.3353 31.0916 33.4451 31.0919 32.8959 31.641C32.3469 32.1903 32.347 33.0806 32.8961 33.6299Z" fill="black"/>
</g>
<defs>
<clipPath id="clip0_4522_6918">
<rect width="72" height="72" fill="white"/>
</clipPath>
</defs>
</svg>
