<svg width="250" height="250" viewBox="0 0 250 250" fill="none" xmlns="http://www.w3.org/2000/svg">
<g style="mix-blend-mode:hard-light" clip-path="url(#clip0_3701_7500)">
<path d="M109.82 249.062C87.5232 246.172 64.5701 236.609 47.8513 223.227C10.2107 193.195 -6.87526 145.75 2.89037 98.6328C7.07787 78.2891 17.9841 56.8828 31.9451 41.4609C42.2294 29.8867 54.6317 20.3854 68.4841 13.4688C86.8747 4.14844 104.453 -0.0390625 125.203 -0.0390625C140.093 -0.0390625 152.062 1.91406 165.773 6.59375C183.786 12.7722 200.15 22.9814 213.618 36.4432C227.087 49.905 237.304 66.2641 243.492 84.2734C250.82 105.758 252.156 128.625 247.476 151.289C243.734 169.195 234.086 189.336 222.211 203.898C217.328 209.922 206.093 220.664 200.195 225.016C182.549 238.121 161.796 246.408 139.976 249.062C133.547 249.875 116.047 249.836 109.828 249.062H109.82ZM143.883 238.609C174.338 233.505 201.519 216.511 219.445 191.367C240.562 161.703 246.218 121.906 234.297 87.2031C231.492 79.0625 224.531 65.4766 219.445 58.3125C213.789 50.2969 199.789 36.2578 191.734 30.6016C183.922 25.0703 170.617 18.3516 161.539 15.3828C145.152 9.93859 127.751 8.24588 110.623 10.4298C93.4937 12.6136 77.0744 18.6183 62.5779 28C48.9386 36.9595 37.2796 48.6185 28.3201 62.2578C18.9407 76.7466 12.9372 93.1579 10.7533 110.279C8.56945 127.4 10.261 144.793 15.7029 161.172C18.7107 170.242 25.4294 183.594 30.9216 191.406C36.6169 199.422 50.6169 213.461 58.6326 219.117C65.8357 224.164 79.3826 231.117 87.5232 233.969C105.643 240.125 125 241.719 143.883 238.609ZM100.586 196.695C94.7446 195.815 89.1409 193.766 84.1091 190.672C79.5935 187.781 45.4919 154.375 43.8279 151.242C41.9138 147.664 45.2497 141.148 50.0154 139.156L52.2497 138.219L45.3747 131.219C41.5935 127.352 38.0076 123.242 37.4372 122.102C36.0935 119.5 36.0544 113.922 37.3122 111.438C37.8435 110.422 39.1013 108.875 40.0779 108.016C41.7497 106.633 41.906 106.141 41.7497 102.641C41.5466 99.5469 41.8279 98.3281 43.1716 96.0078C45.1247 92.6719 49.156 90.4297 53.1013 90.3906C55.2966 90.3906 55.8669 90.1094 56.8044 88.4766C59.2497 84.2031 66.2419 82.6562 71.5779 85.2656L74.4685 86.6484L75.8904 85.2656C77.8435 83.4766 81.7497 81.8906 84.3122 81.8906C89.4372 81.8906 96.6794 87.7891 96.6794 91.9375C96.6794 96.8984 92.1638 97.7578 87.6872 93.6484C84.7185 90.8828 83.2107 90.5938 81.9919 92.5469C81.3826 93.4844 82.8435 95.2344 91.5935 104.062C100.343 112.852 101.929 114.727 101.929 116.391C101.86 117.666 101.317 118.87 100.407 119.766C99.4963 120.662 98.284 121.186 97.0076 121.234C95.4216 121.234 92.8201 118.953 80.8122 106.992C68.5622 94.7812 66.3279 92.8281 65.3513 93.4453C62.7029 95.1172 63.6013 96.3359 77.9216 110.695C85.6951 118.508 92.0857 125.422 92.0857 126.078C92.0857 127.422 90.8669 129.906 89.8513 130.555C89.0182 130.921 88.1118 131.089 87.2029 131.047C85.531 131.086 82.9685 128.766 69.3435 115.18C55.6716 101.586 53.2263 99.3906 52.2497 100C49.5622 101.711 50.4607 102.891 66.0466 118.555C74.5544 127.062 81.6716 134.672 81.8747 135.484C82.32 136.953 81.3435 139.516 80.0466 140.406C79.186 140.772 78.2543 140.94 77.3201 140.898C75.6482 140.898 73.5388 139.07 62.2654 127.797C51.3982 116.93 48.8747 114.695 47.4919 114.82C43.5857 115.266 44.9685 117.016 65.1482 137.242C82.6482 154.781 84.8826 157.266 84.8826 159.094C84.9002 159.765 84.7492 160.43 84.4435 161.028C84.1378 161.625 83.6871 162.137 83.1326 162.516C79.9997 165 78.781 164.43 70.8826 156.781C66.8513 152.914 62.7029 149.172 61.6013 148.477C59.6091 147.258 54.5622 146.727 53.6247 147.703C53.2966 147.984 60.7419 155.844 70.1482 165.156C85.8122 180.656 87.6013 182.25 92.2029 184.445C96.4419 186.556 101.111 187.661 105.846 187.675C110.582 187.688 115.256 186.61 119.508 184.523C132.648 178.258 139.937 163.039 136.351 149.242C134.562 142.367 132.32 139.07 123.289 129.75C112.875 119.086 110.468 116.156 107.906 111.031C105.054 105.297 103.836 99.7188 103.836 92.7578C103.836 85.2266 104.609 81.8125 107.945 74.7734C111.117 68.0625 117.75 61.0234 124.304 57.3984C137.164 50.2344 154.093 50.8438 166.375 58.8672C168.82 60.4531 177.648 68.7578 188.633 79.7812C204.953 96.1406 206.82 98.2578 206.82 100.125C206.82 104.562 203.195 109.484 199.172 110.5C197.664 110.906 197.953 111.312 204.789 118.273C208.773 122.305 212.476 126.656 213.047 128C214.961 132.602 214.101 137.07 210.601 140.734C208.812 142.609 208.57 143.258 208.523 147C208.484 150.297 208.117 151.68 206.812 153.555C205.782 155.08 204.402 156.337 202.788 157.222C201.173 158.107 199.371 158.593 197.531 158.641C195.008 158.641 194.523 158.883 193.258 160.797C190.406 165.195 183 166.734 178.203 163.891L175.804 162.469L174.093 164.141C170.312 167.766 164.203 168.25 159.57 165.281C155.828 162.922 153.062 159.625 153.062 157.547C153.062 155.719 155.711 152.703 157.336 152.703C158.883 152.703 160.961 153.922 163.32 156.125C165.679 158.359 167.718 158.359 168.039 156.086C168.203 154.867 166.25 152.547 158.351 144.609C150.047 136.227 148.461 134.312 148.461 132.687C148.442 131.78 148.61 130.879 148.953 130.039C149.851 128.695 152.375 127.758 153.914 128.164C154.726 128.367 161.601 134.719 169.133 142.242C176.703 149.812 183.336 155.992 183.945 155.992C185.617 155.992 186.711 154.32 185.937 152.898C185.57 152.25 179.179 145.695 171.773 138.289C160.179 126.734 158.304 124.578 158.304 122.867C158.266 121.946 158.435 121.028 158.797 120.18C159.492 119.164 161.929 117.945 163.312 117.945C163.922 117.945 171.57 125.062 180.32 133.773C196.351 149.727 197.531 150.617 199.203 147.977C199.812 147 197.617 144.516 184.023 130.883C169.984 116.805 168.117 114.688 168.117 112.859C168.117 111.602 168.687 110.297 169.586 109.484C172.554 106.68 173.453 107.25 187.898 121.609C201.57 135.242 202.789 136.133 204.461 133.531C205.07 132.555 202.304 129.547 185.336 112.531C166.859 93.9766 165.523 92.4688 165.523 90.3125C165.523 87.0547 167.398 85.5078 171.015 85.7578C171.664 85.7969 175.57 89.0938 179.601 93.0391C183.672 96.9844 188.062 100.688 189.367 101.258C191.929 102.313 194.898 102.477 196.164 101.664C197.383 100.891 163.609 67.6484 159.218 65.3281C155.454 63.2963 151.313 62.0563 147.052 61.6847C142.79 61.313 138.497 61.8174 134.438 63.1669C130.378 64.5164 126.638 66.6824 123.447 69.5317C120.256 72.3809 117.681 75.853 115.883 79.7344C113.765 84.25 113.484 85.5938 113.195 91.4141C112.953 96.9062 113.156 98.6172 114.336 102.117C116.453 108.344 118.281 110.906 127.765 120.594C138.023 131.094 139.976 133.492 142.578 139.109C149.906 154.734 146.812 172.805 134.726 184.844C125.531 194.078 113 198.391 100.586 196.688V196.695Z" fill="url(#paint0_linear_3701_7500)"/>
</g>
<defs>
<linearGradient id="paint0_linear_3701_7500" x1="125.198" y1="-0.0390625" x2="125.198" y2="249.657" gradientUnits="userSpaceOnUse">
<stop stop-color="#6E7996"/>
<stop offset="0.552083" stop-color="#474E60"/>
<stop offset="1" stop-color="#6B7591"/>
</linearGradient>
<clipPath id="clip0_3701_7500">
<rect width="250" height="250" fill="white"/>
</clipPath>
</defs>
</svg>
