<svg width="250" height="250" viewBox="0 0 250 250" fill="none" xmlns="http://www.w3.org/2000/svg">
<g style="mix-blend-mode:hard-light">
<path d="M197.917 72.9167C197.917 72.9167 145.834 145.833 67.7087 145.833C46.8753 145.833 10.417 156.25 10.417 197.917V239.583H125V197.917C125 171.875 156.25 187.5 197.917 114.583L182.292 98.9584L197.917 72.9167ZM31.2503 52.0834V20.8334H239.584V166.667H208.334L31.2503 52.0834ZM114.584 10.4167H156.25V31.2501H114.584V10.4167ZM67.7087 145.833C77.378 145.833 86.6513 141.992 93.4886 135.155C100.326 128.318 104.167 119.044 104.167 109.375C104.167 99.7057 100.326 90.4324 93.4886 83.5951C86.6513 76.7579 77.378 72.9167 67.7087 72.9167C58.0393 72.9167 48.766 76.7579 41.9287 83.5951C35.0915 90.4324 31.2503 99.7057 31.2503 109.375C31.2503 119.044 35.0915 128.318 41.9287 135.155C48.766 141.992 58.0393 145.833 67.7087 145.833V145.833Z" stroke="url(#paint0_linear_3701_7468)" stroke-width="12.75" stroke-linejoin="round"/>
</g>
<defs>
<linearGradient id="paint0_linear_3701_7468" x1="125" y1="10.4167" x2="125" y2="239.583" gradientUnits="userSpaceOnUse">
<stop stop-color="#806283"/>
<stop offset="0.46875" stop-color="#534554"/>
<stop offset="1" stop-color="#806283"/>
</linearGradient>
</defs>
</svg>
