<svg width="72" height="73" viewBox="0 0 72 73" fill="none" xmlns="http://www.w3.org/2000/svg">
<g clip-path="url(#clip0_4522_6979)">
<path fill-rule="evenodd" clip-rule="evenodd" d="M35.9992 9.808C38.3347 9.81532 46.6334 10.1563 50.6311 12.8355C49.3796 8.16476 45.3606 1.90396 35.9992 1.90396C26.6378 1.90396 22.6188 8.16476 21.3673 12.8353C25.365 10.1563 33.6636 9.81532 35.9992 9.808Z" fill="#FF764E"/>
<path fill-rule="evenodd" clip-rule="evenodd" d="M50.6312 12.8352C46.6334 10.1562 38.3348 9.81508 35.9994 9.80777C33.6638 9.81508 25.3653 10.1561 21.3675 12.8352C20.3284 13.5316 19.5798 14.3859 19.3021 15.4333C18.378 18.918 18.4323 19.2404 18.7255 19.5632C18.8883 19.7424 19.2825 19.9516 19.7647 19.6955C19.7804 19.6872 19.7962 19.6784 19.812 19.6691C21.3216 18.7814 23.5382 18.1427 25.9535 17.6987C29.387 17.0676 33.2221 16.8298 35.9992 16.8298C38.7764 16.8298 42.6116 17.0676 46.0449 17.6987C48.4602 18.1427 50.6768 18.7814 52.1865 19.6691C52.2023 19.6784 52.2181 19.6872 52.2337 19.6955C52.7159 19.9516 53.1102 19.7424 53.273 19.5632C53.5663 19.2404 53.6206 18.918 52.6965 15.4333C52.4189 14.3858 51.6703 13.5315 50.6312 12.8352Z" fill="#FF764E"/>
<path fill-rule="evenodd" clip-rule="evenodd" d="M22.3516 24.2392C25.3364 24.2392 24.2075 19.6181 25.9551 17.6988C23.5398 18.1428 21.3232 18.7815 19.8136 19.6692C19.7977 19.6785 19.7819 19.6873 19.7663 19.6956C19.5623 21.3618 19.6258 23.3074 19.7736 25.0848C20.3297 24.5611 21.0774 24.2392 21.8968 24.2392H22.3516Z" fill="#C68A65"/>
<path fill-rule="evenodd" clip-rule="evenodd" d="M25.9536 17.6987C24.2062 19.618 25.3349 24.239 22.3502 24.239H21.8952C21.0759 24.239 20.3281 24.5611 19.772 25.0847C19.1703 25.6514 18.7931 26.4544 18.7931 27.341C18.7931 29.0471 20.189 30.4432 21.8952 30.4432H22.3502C22.3502 37.9502 27.6693 44.0923 35.9993 44.0923C44.3295 44.0923 49.6486 37.9502 49.6486 30.4432H50.1035C51.8098 30.4432 53.2057 29.0471 53.2057 27.341C53.2057 26.4542 52.8285 25.6512 52.2268 25.0847C51.6707 24.5609 50.9228 24.239 50.1035 24.239H49.6486C46.6639 24.239 47.7926 19.618 46.0451 17.6987C42.6117 17.0675 38.7766 16.8297 35.9995 16.8297C33.2223 16.8297 29.3871 17.0675 25.9536 17.6987Z" fill="#FFDCD5"/>
<path fill-rule="evenodd" clip-rule="evenodd" d="M46.047 17.6989C47.7946 19.6182 46.6658 24.2392 49.6505 24.2392H50.1054C50.9247 24.2392 51.6726 24.5613 52.2286 25.0848C52.3764 23.3074 52.4398 21.3618 52.2359 19.6957C52.2203 19.6874 52.2044 19.6785 52.1887 19.6692C50.6789 18.7817 48.4624 18.143 46.047 17.6989Z" fill="#C68A65"/>
<path fill-rule="evenodd" clip-rule="evenodd" d="M41.6254 43.0246C39.9607 43.712 38.0737 44.0925 36.0003 44.0925C33.9268 44.0925 32.0399 43.712 30.3751 43.0246V43.5095V47.619V50.4318C32.0853 51.4191 34.0254 51.939 36.0003 51.939C37.9751 51.939 39.9152 51.4191 41.6254 50.4318V47.619V45.7339V43.0246Z" fill="#FFDCD5"/>
<path fill-rule="evenodd" clip-rule="evenodd" d="M41.6254 50.4318C39.9152 51.4191 37.9751 51.9391 36.0003 51.9391C34.0254 51.9391 32.0853 51.4191 30.3751 50.4318V56.0571C32.0853 57.0446 34.0254 57.5644 36.0003 57.5644C37.9751 57.5644 39.9152 57.0446 41.6254 56.0571V50.4318Z" fill="#E6D5CF"/>
<path fill-rule="evenodd" clip-rule="evenodd" d="M41.6254 56.0568C39.9152 57.0443 37.9751 57.5641 36.0003 57.5641C34.0254 57.5641 32.0853 57.0443 30.3751 56.0568V71.0932H36.0003H41.6254V56.0568Z" fill="#F0E6E2"/>
<path fill-rule="evenodd" clip-rule="evenodd" d="M30.3744 71.0936V56.057V50.4317V47.619L26.3053 50.6752L23.3486 58.8966L25.8799 61.3857L22.1251 64.5076L27.019 71.0936H30.3744Z" fill="#B278D3"/>
<path fill-rule="evenodd" clip-rule="evenodd" d="M22.1261 64.5077L25.8809 61.3857L23.3496 58.8966L26.3063 50.6753L19.1254 52.8117C12.82 54.6875 10.6876 57.6357 10.6876 63.7526V71.0936H27.0198L22.1261 64.5077Z" fill="#B278D3"/>
<path fill-rule="evenodd" clip-rule="evenodd" d="M41.6251 56.057V71.0936H44.9807L49.8745 64.5076L46.1198 61.3857L48.6511 58.8966L45.6943 50.6752L41.6251 47.619V50.4317V56.057Z" fill="#B278D3"/>
<path fill-rule="evenodd" clip-rule="evenodd" d="M48.651 58.8964L46.1197 61.3855L49.8745 64.5075L44.9806 71.0934H61.3128V63.7525C61.3128 57.6355 59.1806 54.6874 52.8751 52.8115L45.6941 50.6751L48.651 58.8964Z" fill="#B278D3"/>
<path d="M36.0005 11.2142C37.8664 11.1398 37.8649 8.47539 36.0005 8.4017H35.9996C34.1339 8.47623 34.1363 11.1408 36.0005 11.2142Z" fill="black"/>
<path d="M53.2768 51.4638L46.3378 49.3994L43.032 46.9167V43.9233C44.5044 43.2 45.832 42.2376 46.9642 41.0561C49.3173 38.6009 50.7277 35.3379 51.0053 31.7593C54.2167 31.1446 55.7235 27.181 53.6761 24.593C53.7721 23.2282 53.7959 22.0225 53.7472 20.9502C53.9682 20.8305 54.161 20.6787 54.315 20.5093C55.1924 19.5439 54.9686 18.51 54.0572 15.0731C53.7433 13.8895 53.0057 12.857 51.8504 11.979C51.2141 9.85792 49.8881 6.89206 47.1558 4.44343C41.6544 -0.814405 30.3465 -0.814545 24.8451 4.44343C22.1129 6.89206 20.7869 9.85778 20.1506 11.9787C18.9953 12.8568 18.2577 13.8892 17.9438 15.0731C17.0324 18.5101 16.8087 19.544 17.6858 20.5091C17.8398 20.6786 18.0327 20.8305 18.2537 20.9502C18.205 22.0225 18.2288 23.2281 18.3249 24.5929C16.2768 27.1816 17.7855 31.1452 20.9956 31.7593C21.2734 35.3379 22.6837 38.6009 25.0367 41.0561C26.1691 42.2376 27.4966 43.2 28.969 43.9233V46.9164L25.6632 49.3992L18.7241 51.4637C11.9287 53.4853 9.28125 56.9307 9.28125 63.7525V71.0935C9.28125 71.87 9.91099 72.4998 10.6875 72.4998H61.3135C62.0901 72.4998 62.7198 71.87 62.7198 71.0935V63.7525C62.7198 56.9309 60.0723 53.4853 53.2768 51.4638ZM12.0938 63.7527C12.0938 58.1645 13.8998 55.8336 19.5262 54.1597L24.0417 52.8164L22.026 58.4209C21.8404 58.9372 21.972 59.5145 22.3632 59.8994L23.786 61.2985L21.2268 63.4264C20.6525 63.904 20.5517 64.747 20.9972 65.3464L24.2228 69.6873H12.0938V63.7527ZM28.969 69.6873H27.7268L24.0488 64.7378L26.7797 62.4672C27.0853 62.2131 27.2691 61.8415 27.2857 61.4445C27.3023 61.0474 27.15 60.6619 26.8667 60.3832L24.9774 58.5253L27.4871 51.5472L28.969 50.4341V69.6873ZM31.7816 52.6205C34.4804 53.5841 37.5206 53.5839 40.2195 52.6205V55.2079C37.5936 56.4702 34.4075 56.4702 31.7816 55.2079V52.6205ZM50.9079 20.58C50.9581 21.273 50.9707 22.052 50.9455 22.9115C50.673 22.8599 50.392 22.8329 50.1047 22.8329H49.6497C49.3406 22.8329 49.256 22.7638 49.1255 22.526C48.8874 22.0925 48.74 21.3337 48.5976 20.5998C48.5392 20.2992 48.4789 19.9891 48.4088 19.677C49.357 19.94 50.2052 20.2405 50.9079 20.58ZM36.0005 3.31024C42.9637 3.31024 46.3935 6.99823 48.0446 10.0902C46.4874 9.57328 44.6393 9.16701 42.5035 8.87281C41.7339 8.76551 41.0244 9.30468 40.9185 10.0741C40.8125 10.8436 41.3504 11.5532 42.1198 11.6591C47.4773 12.3968 50.8374 13.9041 51.3387 15.7941C51.5741 16.6818 51.7523 17.3935 51.8725 17.9255C43.5067 14.56 28.5214 14.5513 20.1285 17.9255C20.2488 17.3934 20.4271 16.6818 20.6625 15.7941C21.1637 13.9041 24.5234 12.397 29.8803 11.6592C30.6497 11.5533 31.1876 10.8437 31.0815 10.0742C30.9756 9.30468 30.2673 8.76537 29.4965 8.87295C27.3611 9.16701 25.5133 9.57328 23.9564 10.0901C25.6076 6.99809 29.0372 3.31024 36.0005 3.31024ZM21.0557 22.9115C21.0305 22.052 21.043 21.273 21.0932 20.5799C21.796 20.2404 22.6442 19.9399 23.5922 19.6769C23.5222 19.9891 23.4618 20.2992 23.4035 20.5998C23.261 21.3337 23.1135 22.0925 22.8756 22.526C22.7451 22.7637 22.6604 22.8329 22.3512 22.8329H21.8964C21.6092 22.8329 21.3281 22.8599 21.0557 22.9115ZM23.7576 30.4433C23.7576 29.6668 23.1278 29.037 22.3513 29.037H21.8965C19.6463 28.9436 19.648 25.738 21.8965 25.6455H22.3513C25.0002 25.6384 25.796 23.3842 26.1646 21.1362C26.3187 20.3428 26.4771 19.5276 26.763 18.987C33.0226 17.9823 38.9785 17.9825 45.2382 18.987C45.5241 19.5277 45.6825 20.3429 45.8366 21.1362C46.0204 22.0824 46.2104 23.0607 46.66 23.8799C47.2943 25.035 48.328 25.6456 49.6497 25.6456H50.1047C52.3549 25.739 52.3532 28.9446 50.1047 29.0372H49.6497C48.8732 29.0372 48.2435 29.6669 48.2435 30.4434C48.1885 46.7239 23.8099 46.718 23.7576 30.4433ZM36.0005 45.4989C37.4655 45.4989 38.8811 45.3178 40.2195 44.9668V49.5826C37.5935 50.8448 34.4077 50.8448 31.7816 49.5827V44.9668C33.1199 45.3176 34.5355 45.4989 36.0005 45.4989ZM31.7816 69.6873V58.246C34.4803 59.2096 37.5208 59.2095 40.2195 58.246V69.6873H31.7816ZM43.032 50.4343L44.514 51.5473L47.0235 58.5253L45.1343 60.3832C44.8509 60.6618 44.6986 61.0474 44.7154 61.4445C44.7318 61.8415 44.9158 62.2132 45.2213 62.4672L47.9522 64.7378L44.2743 69.6873H43.0322V50.4343H43.032ZM59.9072 69.6873H47.7783L51.0037 65.3465C51.4492 64.7469 51.3484 63.9038 50.7741 63.4264L48.2148 61.2985L49.6375 59.8994C50.0287 59.5147 50.1605 58.9372 49.9747 58.4209L47.9591 52.8164L52.4746 54.1598C58.101 55.8336 59.9071 58.1646 59.9071 63.7528V69.6873H59.9072Z" fill="black"/>
<path d="M39.1643 29.0664C39.8371 29.4548 40.697 29.2241 41.0853 28.5517C41.3058 28.1419 41.9448 28.1419 42.1654 28.5517C43.1654 30.134 45.4706 28.7895 44.601 27.1454C43.3088 24.8692 39.9412 24.8699 38.6496 27.1454C38.2612 27.818 38.4917 28.6781 39.1643 29.0664Z" fill="black"/>
<path d="M33.3509 27.1456C32.0587 24.8694 28.691 24.8701 27.3995 27.1456C27.0111 27.8182 27.2416 28.6783 27.9142 29.0666C28.587 29.455 29.4471 29.2244 29.8352 28.5519C30.0557 28.1421 30.6947 28.1421 30.9152 28.5519C31.9151 30.1343 34.2203 28.7897 33.3509 27.1456Z" fill="black"/>
<path d="M39.104 34.1283C39.6531 33.5792 39.6531 32.6887 39.104 32.1394C38.5547 31.5904 37.6645 31.5904 37.1151 32.1394C36.5271 32.748 35.4715 32.7524 34.885 32.1393C34.3355 31.5901 33.4453 31.5904 32.896 32.1395C32.347 32.6888 32.3472 33.5792 32.8963 34.1285C34.5306 35.8312 37.47 35.8309 39.104 34.1283Z" fill="black"/>
</g>
<defs>
<clipPath id="clip0_4522_6979">
<rect width="72" height="72" fill="white" transform="translate(0 0.5)"/>
</clipPath>
</defs>
</svg>
