<svg width="72" height="73" viewBox="0 0 72 73" fill="none" xmlns="http://www.w3.org/2000/svg">
<g clip-path="url(#clip0_4522_7003)">
<path d="M20.9042 65.5321C28.6006 65.5321 34.8397 59.293 34.8397 51.5966C34.8397 43.9003 28.6006 37.6611 20.9042 37.6611C13.2079 37.6611 6.96875 43.9003 6.96875 51.5966C6.96875 59.293 13.2079 65.5321 20.9042 65.5321Z" fill="#E6E9ED"/>
<path d="M52.4463 14.5863C51.2501 16.5837 49.0669 17.9192 46.5701 17.9192H32.5185V19.0805V31.8547C32.5185 36.9876 36.6759 41.145 41.8088 41.145H45.165C43.6785 41.1682 42.2037 41.5282 40.8798 42.1902C39.3701 42.9566 38.0927 44.0715 37.1637 45.4186C36.223 46.7773 35.6308 48.3682 35.4566 50.0521L35.1198 53.4082C34.9805 53.4895 34.8411 53.5592 34.6901 53.6057C34.7947 52.9437 34.8411 52.2818 34.8411 51.5966C34.8411 48.0547 33.5288 44.8379 31.3572 42.376C29.8011 40.6108 27.8153 39.2521 25.5508 38.4508V37.6495C25.5508 34.7463 27.8734 34.7463 27.8734 31.8547C27.8734 28.9515 25.5508 28.9515 25.5508 26.0482C25.5508 23.145 27.8734 23.145 27.8734 20.2418V19.0805C27.8734 14.2727 29.8243 9.91791 32.983 6.77081C36.1301 3.6121 40.485 1.66113 45.2927 1.66113C54.9082 1.66113 62.7121 9.465 62.7121 19.0805V20.2418C62.7121 23.145 65.0347 23.145 65.0347 26.0482C65.0347 28.9515 62.7121 28.9515 62.7121 31.8547C62.7121 34.7463 65.0347 34.7463 65.0347 37.6495C65.0347 40.5527 62.7121 40.5527 62.7121 43.456C62.7121 46.3592 65.0347 46.3592 65.0347 49.274C65.0347 49.4482 65.023 49.6224 65.0114 49.785C64.6863 52.8624 61.8759 55.0805 58.7753 55.0805H53.4217V47.1721V46.9515V46.6031C53.4217 43.5953 50.9714 41.145 47.9637 41.145H48.7766C53.9095 41.145 58.0669 36.9876 58.0669 31.8547V20.7411C58.0669 18.3373 56.5921 16.1889 54.3508 15.3179L52.4463 14.5863Z" fill="#B27946"/>
<path d="M34.8399 60.8869H53.4205V71.3385H44.1302H34.8399V60.8869Z" fill="#969FAA"/>
<path d="M41.796 58.2624C43.7354 57.3914 45.5818 56.3347 47.3005 55.0689C49.0076 53.8379 50.587 52.4211 52.0154 50.8301C52.9212 49.8314 53.4205 48.5308 53.4205 47.1721V55.0805V60.8869H34.8399V60.3992V60.3876C37.2438 59.9695 39.578 59.2495 41.796 58.2624Z" fill="#FCD770"/>
<path d="M40.8772 42.1902C42.2011 41.5282 43.6759 41.1682 45.1624 41.145H45.3017H47.6127H47.9611C46.8114 41.145 45.7198 41.505 44.8256 42.1321C43.9198 42.7708 43.2114 43.665 42.8166 44.745C42.1546 46.5682 41.1675 48.2289 39.9365 49.6457C38.6011 51.2018 36.952 52.4908 35.1172 53.4082L35.454 50.0521C35.6282 48.3682 36.2204 46.7773 37.1611 45.4186C38.0901 44.0715 39.3675 42.9566 40.8772 42.1902Z" fill="#FCD770"/>
<path d="M53.4201 46.9515V47.1721C53.4201 48.5308 52.9207 49.8315 52.0149 50.8302C50.5865 52.4211 49.0072 53.8379 47.3001 55.0689C43.8975 54.9411 41.0175 52.7231 39.9375 49.6457C41.1685 48.2289 42.1556 46.5682 42.8175 44.745C43.2123 43.665 43.9207 42.7708 44.8265 42.1321C45.7207 41.505 46.8123 41.145 47.962 41.145C50.9698 41.145 53.4201 43.5953 53.4201 46.6031V46.9515Z" fill="#FCD770"/>
<path d="M39.9398 49.6455C41.0198 52.7229 43.8998 54.941 47.3024 55.0687C45.5837 56.3345 43.7372 57.3913 41.7979 58.2623C39.5798 59.2494 37.2456 59.9694 34.8417 60.3874C33.6921 60.6081 32.5191 60.7474 31.3462 60.8171C30.7075 60.8636 30.0804 60.8868 29.4417 60.8868H24.1927H23.2288C21.9514 60.8868 20.9062 59.8416 20.9062 58.5642V56.2416C20.9062 54.9642 21.9514 53.9191 23.2288 53.9191H24.3901L24.8895 53.4197C25.3192 52.99 25.8882 52.7578 26.4804 52.7578C27.3398 52.7578 28.1179 53.2339 28.5011 54.0003L29.0353 55.0803L29.7785 54.9991C31.5088 54.8016 33.1695 54.3255 34.6908 53.6171V53.6055C34.8417 53.5591 34.9811 53.4894 35.1204 53.4081C36.9553 52.4907 38.6043 51.2016 39.9398 49.6455Z" fill="#F0D0B4"/>
<path d="M58.064 20.7413V31.8548C58.064 36.9877 53.9066 41.1451 48.7737 41.1451H47.9608H47.6124H45.3014C45.255 41.1451 45.2085 41.1451 45.1621 41.1451H41.8059C36.673 41.1451 32.5156 36.9877 32.5156 31.8548V19.0806V17.9193H46.5672C49.064 17.9193 51.2472 16.5838 52.4434 14.5864L54.3479 15.318C56.5892 16.189 58.064 18.3374 58.064 20.7413Z" fill="#F0D0B4"/>
<path d="M10.6171 60.9915C11.0584 59.5864 12.3822 58.5644 13.9384 58.5644C13.9384 56.6367 15.4945 55.0806 17.4222 55.0806C19.35 55.0806 20.9061 56.6367 20.9061 58.5644C20.9061 59.8419 21.9513 60.887 23.2287 60.887H24.1926C24.3203 61.247 24.39 61.6419 24.39 62.0483C24.39 63.9761 22.8339 65.5322 20.9061 65.5322C16.83 65.5322 13.1719 63.7902 10.6055 61.0032L10.6171 60.9915Z" fill="#FF826E"/>
<path d="M11.6953 41.1566C13.5882 41.2031 15.0979 42.736 15.0979 44.6289C15.0979 46.5566 13.5418 48.1128 11.614 48.1128C11.614 50.0405 10.0579 51.5966 8.13015 51.5966C7.72369 51.5966 7.34047 51.5154 6.98047 51.3876C7.02692 47.3115 8.83853 43.6534 11.6837 41.145L11.6953 41.1566Z" fill="#FF826E"/>
<path d="M25.5514 38.4507C27.8159 39.2519 29.8017 40.6107 31.3579 42.3758V44.6287C31.3579 46.5565 29.8017 48.1126 27.874 48.1126C25.9463 48.1126 24.3901 46.5565 24.3901 44.6287C22.4624 44.6287 20.9062 43.0726 20.9062 41.1449C20.9062 39.6236 21.8817 38.3461 23.2404 37.87V37.8584C24.0301 37.9861 24.8082 38.1952 25.5514 38.4507Z" fill="#FF826E"/>
<path d="M40.6445 31.8545H49.9349C49.9349 34.4209 47.8561 36.4997 45.2897 36.4997C44.0123 36.4997 42.851 35.9771 42.0032 35.1409C41.1671 34.2932 40.6445 33.1319 40.6445 31.8545Z" fill="#FF826E"/>
<path d="M39.4844 31.8546C39.4844 35.0563 42.0892 37.6611 45.2908 37.6611C48.4925 37.6611 51.0973 35.0563 51.0973 31.8546V30.6934H39.4844V31.8546ZM48.5761 33.0159C48.0965 34.3677 46.8052 35.3385 45.2908 35.3385C43.7765 35.3385 42.4851 34.3677 42.0055 33.0159H48.5761Z" fill="black"/>
<path d="M48.7757 26.0485C48.7757 24.7676 49.8174 23.7259 51.0983 23.7259C52.3792 23.7259 53.4209 24.7676 53.4209 26.0485H55.7434C55.7434 23.4867 53.6601 21.4033 51.0983 21.4033C48.5365 21.4033 46.4531 23.4867 46.4531 26.0485H48.7757Z" fill="black"/>
<path d="M41.8076 26.0485H44.1302C44.1302 23.4867 42.0468 21.4033 39.485 21.4033C36.9232 21.4033 34.8398 23.4867 34.8398 26.0485H37.1624C37.1624 24.7676 38.2041 23.7259 39.485 23.7259C40.7659 23.7259 41.8076 24.7676 41.8076 26.0485Z" fill="black"/>
<path d="M66.1957 37.652C66.1957 35.7939 65.4107 34.8138 64.7789 34.0253C64.2331 33.3436 63.8731 32.893 63.8731 31.8502C63.8731 30.8074 64.2343 30.3556 64.7789 29.6739C65.4107 28.8854 66.1957 27.9041 66.1957 26.0449C66.1957 24.1868 65.4107 23.2067 64.7801 22.4182C64.2343 21.7365 63.8731 21.2848 63.8731 20.2419V19.0806C63.8731 8.83574 55.5374 0.5 45.2925 0.5C35.0476 0.5 26.7118 8.83574 26.7118 19.0806V20.2419C26.7118 21.2848 26.3507 21.7365 25.8049 22.4182C25.1743 23.2067 24.3892 24.1868 24.3892 26.0449C24.3892 27.9041 25.1743 28.8854 25.806 29.6739C26.3518 30.3556 26.7118 30.8074 26.7118 31.8502C26.7118 32.893 26.3507 33.3436 25.806 34.0253C25.2614 34.7046 24.6064 35.5303 24.4345 36.9332C23.2999 36.6603 22.1224 36.5 20.9054 36.5C12.5812 36.5 5.80859 43.2726 5.80859 51.5968C5.80859 59.9209 12.5812 66.6936 20.9054 66.6936C25.0639 66.6936 29.0274 64.9586 31.8761 61.9427C32.48 61.8963 33.0815 61.8312 33.6796 61.7499V72.5H54.5828V56.2419H58.7762C62.5411 56.2419 65.7858 53.4583 66.162 49.9048C66.1841 49.705 66.1957 49.4937 66.1957 49.2695C66.1957 47.4092 65.4107 46.4279 64.7801 45.6394C64.254 44.9809 63.8731 44.5048 63.8731 43.4585C63.8731 42.4145 64.2343 41.9639 64.7801 41.281C65.4107 40.4925 66.1957 39.5112 66.1957 37.652ZM52.8734 15.9951L53.9348 16.405C55.7116 17.0925 56.9054 18.8333 56.9054 20.739V31.8537C56.9054 34.0253 56.06 36.0668 54.5247 37.6021C52.9895 39.1373 50.948 39.9839 48.7763 39.9839H47.615H45.3064H41.8098C37.3283 39.9839 33.6807 36.3363 33.6807 31.8548L33.6796 19.0806H46.5676C49.127 19.0806 51.4055 17.8694 52.8734 15.9951ZM29.4432 59.7258H23.2279C22.5869 59.7258 22.0667 59.2055 22.0667 58.5645V56.2419C22.0667 55.6009 22.5869 55.0806 23.2279 55.0806H24.87L25.7131 54.2375C26.209 53.7393 27.1403 53.8915 27.4562 54.5209L28.3585 56.3244L29.9077 56.1525C33.647 55.7368 37.0206 54.1307 39.6289 51.6676C40.7077 53.5048 42.359 54.8983 44.3274 55.6369C39.8623 58.28 34.727 59.7258 29.4432 59.7258ZM28.2273 62.0484C27.311 62.6906 26.3158 63.2039 25.2683 63.5859C25.4402 63.1028 25.5505 62.5895 25.5505 62.0484H28.2273ZM52.2602 52.2645V59.7258H41.2837C45.3958 58.0582 49.1468 55.5289 52.2602 52.2645ZM52.2602 46.9516V47.1769C52.2602 48.2406 51.8677 49.2637 51.1558 50.0557C49.8807 51.4725 48.4732 52.7441 46.9694 53.8717C44.504 53.6383 42.3265 52.0845 41.2953 49.8432C42.3904 48.4497 43.2858 46.8738 43.9152 45.1388C44.5307 43.4445 46.1565 42.3076 47.9576 42.3076C50.3301 42.3064 52.2602 44.2365 52.2602 46.609V46.9516ZM42.5901 42.7524C42.2406 43.2366 41.9433 43.765 41.7331 44.3445C40.6984 47.1897 38.8589 49.5575 36.5096 51.231L36.6153 50.1707C36.9149 47.1711 38.7045 44.5768 41.401 43.2274C41.783 43.0369 42.1825 42.8848 42.5901 42.7524ZM33.6134 52.8347C32.387 53.3375 31.0771 53.6801 29.7103 53.8369L29.5338 53.4827C28.952 52.3191 27.7825 51.5968 26.483 51.5968C25.5854 51.5968 24.7063 51.9603 24.071 52.5955L23.9085 52.7581H23.2279C21.8356 52.7581 20.6406 53.5849 20.0832 54.7683C19.3283 54.2375 18.4132 53.9194 17.4215 53.9194C15.2197 53.9194 13.3698 55.4592 12.8948 57.5205C11.9518 57.7354 11.1134 58.2428 10.4793 58.9524C9.21582 57.1675 8.39711 55.0493 8.1904 52.7534C10.3667 52.7255 12.1887 51.1984 12.659 49.1569C14.7192 48.6808 16.2602 46.8308 16.2602 44.629C16.2602 42.9997 15.4345 41.5853 14.1757 40.7596C15.9908 39.6285 18.1043 38.9434 20.3735 38.8493C19.9763 39.5356 19.7441 40.3195 19.7441 41.1452C19.7441 43.347 21.2851 45.1969 23.3464 45.6719C23.8214 47.7332 25.6713 49.2742 27.8731 49.2742C29.9925 49.2742 31.7646 47.84 32.3209 45.896C33.1825 47.6147 33.6796 49.5471 33.6796 51.5968C33.6796 52.009 33.6529 52.4225 33.6134 52.8347ZM30.1957 44.629C30.1957 45.9099 29.154 46.9516 27.8731 46.9516C26.5922 46.9516 25.5505 45.9099 25.5505 44.629V43.4677H24.3892C23.1083 43.4677 22.0667 42.4261 22.0667 41.1452C22.0667 40.2463 22.6113 39.4532 23.4242 39.0746C26.0696 39.6053 28.4143 40.9628 30.1957 42.8569V44.629ZM12.0981 42.3668C13.1584 42.5863 13.9376 43.5084 13.9376 44.629C13.9376 45.9099 12.8959 46.9516 11.615 46.9516H10.4538V48.1129C10.4538 49.3729 9.44227 50.3972 8.1904 50.4297C8.4784 47.2686 9.92421 44.4421 12.0981 42.3668ZM12.0203 60.7547C12.443 60.1253 13.1479 59.7258 13.9376 59.7258H15.0989V58.5645C15.0989 57.2836 16.1406 56.2419 17.4215 56.2419C18.7024 56.2419 19.7441 57.2836 19.7441 58.5645C19.7441 60.4853 21.3072 62.0484 23.2279 62.0484C23.2279 63.3293 22.1863 64.371 20.9054 64.371C17.4529 64.371 14.3209 62.989 12.0203 60.7547ZM45.2925 70.1774V64.8146L42.3277 63.3328L41.2883 65.4103L42.9699 66.2499V70.1774H36.0021V62.0484H52.2602V70.1774H45.2925ZM62.9661 39.8294C62.3356 40.6191 61.5505 41.6004 61.5505 43.4585C61.5505 45.3188 62.3356 46.3001 62.9661 47.0886C63.4922 47.7483 63.8731 48.2244 63.8731 49.2695C63.8731 49.4077 63.8661 49.5366 63.8534 49.6597C63.6002 52.0485 61.3705 53.9194 58.7762 53.9194H54.5828V47.1769V46.9516V46.609C54.5828 44.6441 53.7176 42.8813 52.3543 41.6677C53.7687 41.1521 55.0705 40.3415 56.1668 39.2453C58.141 37.2711 59.2291 34.6466 59.228 31.8548V20.7401C59.228 17.8834 57.4372 15.2716 54.7721 14.2404L54.0347 13.9559C54.3842 13.057 54.5828 12.085 54.5828 11.0654V10.9516L52.2602 11.0654C52.2602 14.2044 49.7065 16.7581 46.5676 16.7581H33.798C34.2637 14.4924 36.0718 12.6982 38.4362 12.3034L39.6765 12.0966L39.2956 9.80542L38.0553 10.0121C34.1743 10.6601 31.357 13.9849 31.357 17.9194V19.0806L31.3581 31.8548C31.3581 36.6637 34.626 40.712 39.054 41.9255C37.3121 43.1159 35.9801 44.7661 35.1625 46.6764C33.7539 42.6061 30.6625 39.3173 26.7118 37.6636V37.6508C26.7118 36.608 27.073 36.1574 27.6176 35.4757C28.2494 34.6884 29.0344 33.7083 29.0344 31.8502C29.0344 29.991 28.2494 29.0108 27.6188 28.2223C27.073 27.5395 26.7118 27.0889 26.7118 26.0449C26.7118 25.0021 27.073 24.5515 27.6176 23.8698C28.2494 23.0813 29.0344 22.1012 29.0344 20.2419V19.0806C29.0344 10.1155 36.3273 2.82258 45.2925 2.82258C54.2576 2.82258 61.5505 10.1155 61.5505 19.0806V20.2419C61.5505 22.1012 62.3356 23.0813 62.9673 23.8698C63.5131 24.5515 63.8731 25.0021 63.8731 26.0449C63.8731 27.0889 63.512 27.5395 62.9661 28.2223C62.3356 29.0108 61.5505 29.9921 61.5505 31.8502C61.5505 33.7083 62.3356 34.6884 62.9673 35.4769C63.5131 36.1586 63.8731 36.6092 63.8731 37.652C63.8731 38.6972 63.512 39.1466 62.9661 39.8294Z" fill="black"/>
</g>
<defs>
<clipPath id="clip0_4522_7003">
<rect width="72" height="72" fill="white" transform="translate(0 0.5)"/>
</clipPath>
</defs>
</svg>
