<svg width="52" height="32" viewBox="0 0 52 32" fill="none" xmlns="http://www.w3.org/2000/svg">
<g clip-path="url(#clip0_4102_2852)">
<path d="M48.7178 13.6169C48.5961 13.6168 48.4761 13.5879 48.3677 13.5326L25.8672 1.58853L3.36665 13.5067C3.19892 13.5663 3.01539 13.564 2.84923 13.5001C2.68306 13.4362 2.54523 13.315 2.46065 13.1584C2.37606 13.0018 2.35031 12.82 2.38803 12.6461C2.42576 12.4721 2.52447 12.3173 2.66634 12.2098L25.517 0.084176C25.6258 0.0299399 25.7456 0.00170898 25.8672 0.00170898C25.9887 0.00170898 26.1085 0.0299399 26.2173 0.084176L49.068 12.1839C49.2335 12.2514 49.3693 12.3761 49.4506 12.5353C49.5319 12.6946 49.5532 12.8777 49.5108 13.0514C49.4684 13.225 49.3649 13.3777 49.2194 13.4815C49.0738 13.5853 48.8958 13.6333 48.7178 13.6169Z" fill="#FF8000"/>
<path d="M25.8672 25.6906C25.7448 25.689 25.6247 25.6579 25.517 25.5998L2.66634 13.5066C2.52447 13.3991 2.42576 13.2444 2.38803 13.0704C2.35031 12.8964 2.37606 12.7147 2.46065 12.558C2.54523 12.4014 2.68306 12.2802 2.84923 12.2163C3.01539 12.1524 3.19892 12.1501 3.36665 12.2098L25.8672 24.1214L48.3677 12.2098C48.4534 12.1448 48.5521 12.0991 48.6572 12.0759C48.7622 12.0527 48.871 12.0525 48.9761 12.0753C49.0813 12.0981 49.1802 12.1433 49.2662 12.208C49.3522 12.2726 49.4231 12.3551 49.4742 12.4497C49.5254 12.5444 49.5554 12.649 49.5623 12.7563C49.5692 12.8636 49.5527 12.9712 49.5141 13.0716C49.4755 13.172 49.4157 13.2629 49.3387 13.338C49.2617 13.4131 49.1693 13.4706 49.068 13.5066L26.2173 25.5998C26.1099 25.6586 25.9896 25.6898 25.8672 25.6906Z" fill="#FF8000"/>
<path d="M1.93992 19.6085L1.26562 20.9387L19.1951 30.027L19.8694 28.6967L1.93992 19.6085Z" fill="#FF8000"/>
<path d="M2.23131 25.1137C2.07351 25.1147 1.91944 25.0657 1.79127 24.9737C1.6631 24.8816 1.56743 24.7513 1.51804 24.6014L0.039618 20.1013C0.00505372 20.0065 -0.0100706 19.9056 -0.00485412 19.8048C0.000362385 19.704 0.025813 19.6053 0.0699818 19.5146C0.114151 19.4238 0.176134 19.3429 0.25224 19.2766C0.328345 19.2103 0.417017 19.16 0.512972 19.1286L5.46049 17.5076C5.6488 17.4465 5.85365 17.4628 6.02998 17.5528C6.2063 17.6428 6.33966 17.7991 6.40071 17.9874C6.46176 18.1757 6.44551 18.3806 6.35552 18.5569C6.26553 18.7332 6.10919 18.8666 5.92087 18.9276L1.68663 20.3153L2.9381 24.1345C2.99984 24.3229 2.98475 24.528 2.89612 24.7052C2.80748 24.8825 2.65246 25.0176 2.46474 25.0812C2.38744 25.0938 2.30861 25.0938 2.23131 25.0812" fill="#FF8000"/>
<path d="M15.4851 31.8378C15.3102 31.8325 15.1427 31.7664 15.0113 31.6508C14.8799 31.5353 14.7929 31.3776 14.7653 31.2048C14.7377 31.0321 14.7711 30.8551 14.8599 30.7043C14.9486 30.5536 15.0872 30.4385 15.2517 30.3788L19.4859 28.9912L18.2409 25.172C18.2014 25.0769 18.1819 24.9748 18.1838 24.8718C18.1856 24.7689 18.2088 24.6675 18.2517 24.574C18.2947 24.4805 18.3566 24.3969 18.4335 24.3284C18.5103 24.26 18.6005 24.2082 18.6984 24.1763C18.7963 24.1444 18.8997 24.1332 19.0021 24.1432C19.1046 24.1533 19.2038 24.1844 19.2936 24.2347C19.3834 24.285 19.4619 24.3533 19.524 24.4354C19.5861 24.5174 19.6305 24.6115 19.6545 24.7116L21.1394 29.2506C21.1706 29.3438 21.183 29.4423 21.1757 29.5403C21.1684 29.6383 21.1416 29.7339 21.0969 29.8214C21.0522 29.909 20.9905 29.9868 20.9154 30.0502C20.8404 30.1136 20.7534 30.1614 20.6596 30.1908L15.7185 31.773C15.6433 31.7985 15.5645 31.8116 15.4851 31.8119" fill="#FF8000"/>
<path d="M49.9998 19.7633L32.0703 28.8516L32.7446 30.1818L50.6741 21.0935L49.9998 19.7633Z" fill="#FF8000"/>
<path d="M49.7084 25.2886C49.6311 25.3011 49.5523 25.3011 49.475 25.2886C49.2876 25.2262 49.1322 25.0927 49.0424 24.9168C48.9527 24.7408 48.9357 24.5367 48.9951 24.3483L50.2466 20.5291L46.0383 19.0961C45.9437 19.0672 45.8558 19.0199 45.7795 18.957C45.7032 18.8941 45.6401 18.8168 45.5937 18.7295C45.5473 18.6421 45.5186 18.5465 45.5093 18.4481C45.4999 18.3497 45.51 18.2503 45.539 18.1558C45.5691 18.0626 45.6174 17.9763 45.6811 17.9019C45.7448 17.8275 45.8226 17.7665 45.9101 17.7225C45.9976 17.6785 46.093 17.6522 46.1907 17.6454C46.2884 17.6385 46.3865 17.6511 46.4792 17.6825L51.4203 19.2971C51.6039 19.3632 51.7544 19.4987 51.8392 19.6745C51.9241 19.8503 51.9366 20.0523 51.8742 20.2373L50.3893 24.7763C50.3411 24.9257 50.2466 25.0558 50.1196 25.1479C49.9925 25.24 49.8394 25.2893 49.6825 25.2886" fill="#FF8000"/>
<path d="M36.4485 31.9999C36.3712 31.9997 36.2945 31.9865 36.2215 31.961L31.274 30.3399C31.1808 30.3099 31.0945 30.2616 31.0201 30.1979C30.9457 30.1342 30.8847 30.0563 30.8407 29.9688C30.7966 29.8813 30.7704 29.786 30.7635 29.6883C30.7567 29.5906 30.7693 29.4925 30.8006 29.3997L32.2791 24.8607C32.3401 24.6724 32.4735 24.516 32.6498 24.4261C32.8261 24.3361 33.031 24.3198 33.2193 24.3809C33.4076 24.4419 33.5639 24.5753 33.6539 24.7516C33.7439 24.9279 33.7602 25.1328 33.6991 25.3211L32.4217 29.1792L36.656 30.5669C36.8284 30.6193 36.976 30.7324 37.0715 30.8852C37.1669 31.038 37.2039 31.2202 37.1754 31.3982C37.1469 31.5761 37.055 31.7377 36.9166 31.8531C36.7782 31.9685 36.6027 32.0298 36.4225 32.0259" fill="#FF8000"/>
</g>
<defs>
<clipPath id="clip0_4102_2852">
<rect width="51.9392" height="32" fill="white"/>
</clipPath>
</defs>
</svg>
