<svg width="49" height="48" viewBox="0 0 49 48" fill="none" xmlns="http://www.w3.org/2000/svg">
<g clip-path="url(#clip0)">
<path d="M24.9654 35.3115C19.812 35.3115 15.2814 34.9947 11.5901 34.5881L9.40838 27.1496C9.29251 26.7546 8.99795 26.4378 8.61254 26.2929L1.36426 23.5703C1.60182 21.9864 1.93604 20.1793 2.40151 18.1318L10.2302 21.7265C10.2785 21.7487 10.3268 21.7661 10.3779 21.7796C11.1487 21.9902 17.3606 23.5113 22.9816 19.4347C26.9384 22.1456 34.2756 26.7476 39.2774 27.3493C46.4282 28.2089 46.8492 28.3837 47.5977 30.7721C48.3464 33.1607 39.3297 35.3115 24.9654 35.3115Z" fill="#FAF7F7"/>
<path d="M17.6051 30.3986C19.9322 30.3986 21.8186 28.5122 21.8186 26.1852C21.8186 23.8581 19.9322 21.9717 17.6051 21.9717C15.278 21.9717 13.3916 23.8581 13.3916 26.1852C13.3916 28.5122 15.278 30.3986 17.6051 30.3986Z" fill="#BEC7EC"/>
<path d="M21.8187 26.1855C21.8187 28.5121 19.9315 30.3982 17.605 30.3982C16.7454 30.3982 15.9457 30.1413 15.2793 29.699C17.6001 29.6932 19.4805 27.8089 19.4805 25.4862C19.4805 24.0181 18.73 22.726 17.5924 21.9717H17.605C19.9316 21.9717 21.8187 23.8579 21.8187 26.1855Z" fill="#A3AFE4"/>
<path d="M45.5996 32.8723C45.3127 30.4877 43.836 28.2914 42.1807 27.7158C46.5683 28.3195 46.9662 28.7598 47.5969 30.7725C47.8296 31.5144 47.1197 32.2338 45.5996 32.8723Z" fill="#EFE2DD"/>
<path d="M33.3457 25.4696L30.6869 35.1904C28.8934 35.2696 26.982 35.3121 24.9655 35.3121C23.089 35.3121 21.2954 35.2705 19.5947 35.1971C26.6972 34.58 28.4819 27.1829 28.9262 23.1846C30.3595 24.0045 31.8623 24.7974 33.3457 25.4696Z" fill="#EFE2DD"/>
<path d="M23.5677 19.8343C17.801 24.4672 11.1746 22.8456 10.3769 22.6274C10.3257 22.6139 10.2775 22.5964 10.2292 22.5742L2.22949 18.9013C2.56943 17.3376 2.98765 15.6272 3.5014 13.7613C3.60959 13.3673 3.9544 13.0843 4.36193 13.0534C6.05787 12.9259 10.6647 12.4015 14.8582 10.3376C20.1198 7.74831 20.2039 17.4545 20.2039 17.4545C20.2039 17.4545 21.5319 18.4608 23.5677 19.8343Z" fill="#5B5555"/>
<path d="M23.5681 19.8343C21.5323 18.4609 20.2043 17.4545 20.2043 17.4545C20.2043 17.4545 20.1203 7.74831 14.8586 10.3376C14.7098 10.411 14.5602 10.4824 14.4105 10.5511C17.4194 10.5989 17.9518 15.8751 18.0452 17.5816C18.0618 17.8844 18.1897 18.1676 18.4025 18.3794L10.2295 22.5743C10.2778 22.5965 10.3261 22.6139 10.3772 22.6275C10.7354 22.7254 12.2686 23.106 14.3711 23.0767C16.0566 22.0682 17.7481 21.0701 19.4551 20.0994C19.8478 19.8762 20.3348 19.9074 20.6982 20.1755C21.075 20.4536 21.4711 20.7376 21.8721 21.0126C22.4411 20.6745 23.0089 20.2833 23.5681 19.8343Z" fill="#433F43"/>
<path d="M12.4022 34.6744H12.3964C5.31228 33.9443 1.07535 32.8491 1.07535 32.8491C1.07535 32.8491 0.33557 29.9507 1.46751 22.9062L9.26543 25.8358C9.65028 25.9803 9.94475 26.2975 10.0604 26.6919L12.4022 34.6744Z" fill="#F82F40"/>
<path d="M12.4014 34.6749H12.3956C10.7199 34.502 9.20359 34.3089 7.86502 34.1138C9.1254 31.7921 7.89399 26.8539 7.40527 25.1377L9.26443 25.8359C9.64974 25.9808 9.94337 26.2976 10.0592 26.6926L12.4014 34.6749Z" fill="#E22334"/>
<path d="M20.0534 17.6771L10.7123 22.3955C10.4498 22.528 10.1411 22.5339 9.87387 22.4111L2.81384 19.17L2.22949 18.9015C2.31162 18.5201 2.39946 18.1299 2.49312 17.73L3.01849 17.561L18.9769 12.3402C19.4784 12.1762 20.0219 12.4436 20.1904 12.9437C20.4795 13.8015 20.8002 15.2252 20.5754 16.9436C20.5344 17.2592 20.3375 17.5336 20.0534 17.6771Z" fill="#F82F40"/>
<path d="M20.5758 16.9433C20.5343 17.2591 20.3372 17.5333 20.0533 17.6763L18.4955 18.4634C18.4935 18.4625 18.4926 18.4605 18.4907 18.4596C18.2251 18.2423 18.0639 17.9245 18.0455 17.5807C17.9934 16.6332 17.806 14.5848 17.1338 12.943L18.9775 12.3393C19.4788 12.1751 20.0225 12.4426 20.1905 12.943C20.4793 13.8006 20.8008 15.2251 20.5758 16.9433Z" fill="#E22334"/>
<path d="M26.4404 35.3047C26.4404 35.3047 30.3703 30.9101 30.8346 24.8754C30.8869 24.1953 31.6046 23.7796 32.2184 24.0771L34.676 25.2688C35.1118 25.4801 35.3232 25.9814 35.1715 26.4414C34.8402 27.4456 34.321 29.155 34.2739 30.1328C34.2411 30.8369 34.4526 31.2985 35.1557 31.1151C37.3036 30.554 39.1599 29.7379 42.912 30.0865C44.7026 30.2527 45.6008 29.4588 46.0518 28.5837C46.9712 29.0289 47.2494 29.6606 47.5971 30.7732C48.3195 33.0785 39.9431 35.1627 26.4404 35.3047Z" fill="#F82F40"/>
<path d="M45.6 32.8722C45.4706 31.803 45.1036 30.7735 44.5879 29.9091C45.319 29.6386 45.772 29.1258 46.0521 28.583C46.9715 29.0282 47.2497 29.6599 47.5974 30.7724C47.8301 31.5143 47.1202 32.2337 45.6 32.8722Z" fill="#E22334"/>
<path d="M0.355469 33.1144C0.355469 32.546 0.843531 32.1006 1.4095 32.1526C5.87181 32.5635 23.2023 34.1313 30.3096 34.3677C38.4941 34.6399 46.9292 32.3336 47.5973 30.7725C47.5973 30.7725 49.7687 33.6454 46.7622 35.3118C44.2953 36.6791 36.6144 37.6881 33.9362 38.0063C33.339 38.0772 32.738 38.1083 32.1366 38.0989L1.30628 37.6186C0.77875 37.6106 0.355469 37.1806 0.355469 36.6531L0.355469 33.1144Z" fill="#BEC7EC"/>
<path d="M46.7623 35.3116C46.3701 35.529 45.8477 35.7366 45.2334 35.9346C45.7231 34.7216 45.754 33.3878 45.4768 32.1496C46.6541 31.6802 47.4152 31.1984 47.5977 30.7725C47.5977 30.7725 49.7689 33.6457 46.7623 35.3116Z" fill="#A3AFE4"/>
<path d="M23.9494 23.6314C23.8283 23.6314 23.7056 23.601 23.5927 23.537C23.2447 23.3395 23.1226 22.8975 23.3201 22.5496L24.6179 20.2616C24.8154 19.9137 25.2575 19.7915 25.6053 19.989C25.9533 20.1864 26.0754 20.6285 25.8779 20.9764L24.5801 23.2643C24.4467 23.4995 24.2017 23.6314 23.9494 23.6314Z" fill="#433F43"/>
<path d="M26.2075 24.8718C26.1099 24.8718 26.0108 24.852 25.9159 24.8101C25.5498 24.6489 25.3838 24.2213 25.5451 23.8552L26.5532 21.5673C26.7145 21.2012 27.1421 21.0351 27.5081 21.1965C27.8742 21.3578 28.0402 21.7853 27.8789 22.1514L26.8708 24.4393C26.7513 24.7105 26.4859 24.8718 26.2075 24.8718Z" fill="#433F43"/>
<path d="M28.3745 25.9685C28.2769 25.9685 28.1778 25.9487 28.0829 25.9068C27.7168 25.7455 27.5507 25.3179 27.7121 24.9518L28.7202 22.664C28.8814 22.2979 29.309 22.1317 29.6751 22.2932C30.0412 22.4544 30.2073 22.882 30.0459 23.2481L29.0378 25.536C28.9183 25.807 28.6529 25.9685 28.3745 25.9685Z" fill="#433F43"/>
<path d="M20.7797 16.2236C20.7536 16.2236 20.7274 16.2222 20.7009 16.2194L18.4971 15.9769C18.0994 15.9339 17.8118 15.5766 17.8548 15.1789C17.8978 14.7811 18.2548 14.4933 18.6528 14.5365L20.8566 14.7791C21.2543 14.8221 21.5419 15.1794 21.4989 15.577C21.4588 15.9483 21.1447 16.2236 20.7797 16.2236Z" fill="#433F43"/>
<path d="M11.3617 19.8904C10.5698 19.8904 9.94697 19.4839 9.60563 19.0506C9.35804 18.7365 9.41204 18.281 9.72629 18.0334C10.0404 17.7857 10.496 17.8397 10.7436 18.1541C10.8245 18.2568 11.1338 18.5765 11.7146 18.3778C12.0931 18.2487 12.505 18.4502 12.6344 18.8287C12.7639 19.2073 12.562 19.6191 12.1835 19.7486C11.8943 19.8474 11.619 19.8904 11.3617 19.8904Z" fill="#433F43"/>
<path d="M13.9188 19.1134C13.6177 19.1134 13.3365 18.9242 13.2335 18.6234C13.1041 18.2449 13.3059 17.833 13.6844 17.7035C14.2 17.5272 14.3002 17.1581 14.314 16.9538C14.341 16.5546 14.6869 16.2522 15.0856 16.2801C15.4848 16.3071 15.7863 16.6526 15.7593 17.0517C15.7353 17.4055 15.5489 18.5969 14.1532 19.0742C14.0757 19.1008 13.9966 19.1134 13.9188 19.1134Z" fill="#433F43"/>
<path d="M11.9257 17.6808C11.6245 17.6808 11.3433 17.4916 11.2404 17.1908C11.1109 16.8124 11.3127 16.4004 11.6912 16.2709L12.4117 16.0245C12.7901 15.8951 13.202 16.097 13.3315 16.4754C13.4609 16.8539 13.2591 17.2658 12.8806 17.3953L12.1601 17.6418C12.0825 17.6682 12.0033 17.6808 11.9257 17.6808Z" fill="#433F43"/>
</g>
<defs>
<clipPath id="clip0">
<rect width="48" height="48" fill="white" transform="translate(0.355469)"/>
</clipPath>
</defs>
</svg>
