<svg width="141" height="141" viewBox="0 0 141 141" fill="none" xmlns="http://www.w3.org/2000/svg">
<path d="M100.664 37.199C101.377 36.2754 101.207 34.9477 100.283 34.2337C99.3593 33.5202 98.0321 33.6905 97.3181 34.6141C96.6046 35.5381 96.7745 36.8653 97.6985 37.5793C98.6225 38.2933 99.9497 38.123 100.664 37.199Z" fill="black"/>
<path d="M101.441 107.321C99.8745 108.38 99.4634 110.508 100.522 112.074C101.582 113.641 103.71 114.052 105.276 112.993C106.842 111.934 107.253 109.806 106.195 108.239C105.135 106.673 103.007 106.262 101.441 107.321Z" fill="black"/>
<path d="M65.0551 31.1337C66.0861 31.1337 66.9218 30.298 66.9218 29.2671C66.9218 28.2361 66.0861 27.4004 65.0551 27.4004C64.0242 27.4004 63.1885 28.2361 63.1885 29.2671C63.1885 30.298 64.0242 31.1337 65.0551 31.1337Z" fill="black"/>
<path d="M19.6809 41.0397C20.5284 41.4919 21.4547 41.7215 22.3899 41.7215C22.9495 41.7215 23.5146 41.6393 24.0671 41.4718C25.5399 41.0252 26.7505 40.0335 27.4761 38.6774C28.1999 37.3213 28.3549 35.7626 27.9083 34.2917C27.4617 32.8207 26.47 31.6102 25.1139 30.8845C23.7559 30.1589 22.1991 30.0039 20.7281 30.4505C19.2572 30.8971 18.0467 31.8888 17.321 33.2449C16.5953 34.6011 16.4404 36.1597 16.887 37.6307C17.3331 39.1035 18.3248 40.314 19.6809 41.0397ZM20.6124 35.0057C20.8677 34.5297 21.2923 34.1797 21.8099 34.0233C22.0031 33.965 22.2019 33.9356 22.3988 33.9356C22.7269 33.9356 23.0531 34.0159 23.3522 34.1764C23.8282 34.4317 24.1782 34.8563 24.3345 35.3739C24.4909 35.8914 24.4367 36.4383 24.1833 36.9162C23.9281 37.3922 23.5015 37.7422 22.984 37.8985C22.4665 38.0535 21.9214 38.0026 21.4417 37.7473C20.9657 37.4921 20.6157 37.0655 20.4593 36.548C20.303 36.0305 20.3571 35.4831 20.6124 35.0057Z" fill="black"/>
<path d="M126.24 65.4262C119.384 56.9548 110.935 50.2829 101.535 45.7096L113.37 30.2657C113.995 29.449 113.842 28.2805 113.029 27.6533L95.3012 13.9594C94.9092 13.6552 94.4136 13.5184 93.9194 13.5856C93.4271 13.6496 92.9805 13.9067 92.6781 14.3001L87.1131 21.5633C87.0711 21.6076 87.0156 21.6314 86.9778 21.6809C86.9386 21.7318 86.9292 21.7934 86.8961 21.8466L73.9895 38.6932C72.9036 38.6428 71.8162 38.6004 70.7228 38.6004C67.8701 38.6004 65.0416 38.7852 62.2449 39.124L53.347 26.341C54.8711 23.6778 54.7978 20.3164 53.0478 17.7259C50.5232 13.9963 45.437 13.0135 41.7148 15.5382C39.9084 16.7576 38.6852 18.6098 38.2713 20.7499C37.8574 22.89 38.3021 25.0647 39.5238 26.8712C41.0512 29.128 43.6053 30.4496 46.2849 30.4496H46.3432L52.6264 40.9925C38.1392 44.8518 25.0352 53.2812 15.2058 65.4258C14.6514 66.1094 14.6514 67.0899 15.2058 67.7736C21.4788 75.5244 29.0924 81.753 37.5391 86.2624L20.474 108.534C19.8487 109.351 20.0018 110.519 20.8147 111.146L38.5424 124.84C38.8705 125.096 39.2732 125.23 39.6834 125.23C39.7637 125.23 39.844 125.225 39.9242 125.214C40.4166 125.15 40.8632 124.893 41.1656 124.5L64.3192 94.2821C66.4393 94.4753 68.572 94.6004 70.7224 94.6004C73.527 94.6004 76.3088 94.3904 79.0696 94.0614C81.7469 98.6188 84.63 100.907 86.6651 102.032C85.7602 103.711 85.7724 105.816 86.9134 107.503C87.9344 109.012 89.606 109.827 91.3047 109.827C92.1438 109.827 92.9866 109.616 93.765 109.204L93.9297 115.322C93.946 115.938 94.2671 116.507 94.7865 116.84L109.408 126.241C109.716 126.44 110.068 126.539 110.418 126.539C110.782 126.539 111.149 126.431 111.464 126.217L115.245 123.66C115.863 123.242 116.173 122.495 116.033 121.763L112.757 104.693C112.637 104.069 112.208 103.548 111.618 103.313L105.888 101.015C108.051 99.3193 108.585 96.2178 107.022 93.905C106.056 92.4742 104.504 91.6846 102.897 91.6048C102.806 90.4951 102.515 89.0284 101.854 87.2994C104.493 85.9974 107.077 84.5605 109.562 82.9234C115.847 78.7818 121.458 73.6848 126.239 67.775C126.794 67.089 126.794 66.1099 126.24 65.4262ZM84.7429 30.7977L88.0114 33.3228C88.3507 33.5851 88.7534 33.713 89.1506 33.713C89.7101 33.713 90.2626 33.4633 90.629 32.9873C91.2599 32.1706 91.1101 30.9984 90.2934 30.3698L87.0128 27.8353L88.8262 25.4684L91.7448 27.7228C92.084 27.9851 92.4868 28.113 92.8839 28.113C93.4435 28.113 93.996 27.8633 94.3623 27.3873C94.9932 26.5706 94.8434 25.3984 94.0268 24.7698L91.0961 22.5055L94.5028 18.0596L109.276 29.471L98.0429 44.128C91.8152 41.504 85.2226 39.7773 78.435 39.0302L84.7429 30.7977ZM92.1251 45.871C97.0988 51.0193 99.994 57.6446 100.431 64.7337H89.2271C88.2872 55.3145 80.3175 47.9337 70.6552 47.9337C60.9928 47.9337 53.0231 55.3145 52.0832 64.7337H40.8786C41.3149 57.6749 44.1928 51.0725 49.1334 45.9298C56.014 43.5713 63.2898 42.3337 70.7228 42.3337C78.0892 42.3337 85.2996 43.554 92.1251 45.871ZM85.5885 66.6004C85.5885 74.8347 78.8895 81.5337 70.6552 81.5337C62.4208 81.5337 55.7218 74.8347 55.7218 66.6004C55.7218 58.366 62.4208 51.667 70.6552 51.667C78.8895 51.667 85.5885 58.3665 85.5885 66.6004ZM48.9538 27.5371C48.558 26.8735 47.8034 26.5235 47.0344 26.6528C45.317 26.9388 43.5852 26.2118 42.6155 24.7805C41.9538 23.7996 41.713 22.6203 41.9374 21.4592C42.1619 20.2982 42.825 19.2934 43.806 18.6303C45.8276 17.2648 48.5856 17.7954 49.9566 19.817C51.0524 21.4396 50.9264 23.6288 49.6486 25.1417C49.1036 25.7871 49.0616 26.7186 49.5446 27.4111L58.134 39.7498C57.5652 39.8529 57.001 39.9738 56.4358 40.0909L48.9538 27.5371ZM19.0796 66.6004C25.5752 58.9167 33.4786 52.8748 42.2258 48.7396C39.2023 53.5295 37.4607 58.9993 37.1457 64.7337H25.8552C24.8234 64.7337 23.9885 65.5686 23.9885 66.6004C23.9885 67.6322 24.8234 68.467 25.8552 68.467H37.1452C37.4602 74.2014 39.2018 79.6717 42.2254 84.4611C33.4786 80.326 25.5752 74.284 19.0796 66.6004ZM39.3414 120.741L24.5686 109.33L29.1106 103.402L33.572 106.849C33.9112 107.111 34.314 107.239 34.7111 107.239C35.2706 107.239 35.8232 106.989 36.1895 106.513C36.8204 105.699 36.6706 104.524 35.854 103.896L31.3805 100.44L33.6527 97.4746L36.6599 99.7976C36.9992 100.06 37.4019 100.188 37.799 100.188C38.3586 100.188 38.9111 99.9381 39.2774 99.4621C39.9084 98.6454 39.7586 97.4732 38.9419 96.8446L35.9226 94.5122L40.9392 87.9658C46.976 90.7849 53.3885 92.7393 60.0161 93.759L39.3414 120.741ZM49.1339 87.2714C44.1933 82.1282 41.3149 75.5263 40.879 68.4675H52.0837C53.0236 77.8867 60.9933 85.2675 70.6556 85.2675C80.318 85.2675 88.2877 77.8867 89.2276 68.4675H100.432C99.9954 75.5324 97.1161 82.138 92.1694 87.2784C85.2931 89.6187 78.0719 90.8675 70.7228 90.8675C63.2898 90.867 56.014 89.6294 49.1339 87.2714ZM112.134 121.257L110.393 122.434L97.6364 114.233L97.4362 106.773L102.198 103.554L109.283 106.397L112.134 121.257ZM103.512 98.1587L92.1676 105.83C91.4582 106.307 90.4866 106.123 90.0055 105.411C89.5244 104.7 89.712 103.73 90.4246 103.249L101.769 95.5794C102.03 95.4026 102.33 95.3116 102.638 95.3116C102.737 95.3116 102.837 95.3209 102.935 95.3405C103.344 95.4189 103.698 95.6522 103.929 95.9948C104.411 96.7078 104.223 97.6776 103.512 98.1587ZM99.2012 92.8088L89.6042 99.2969C88.6074 98.9385 85.8806 97.6216 83.096 93.4612C86.7822 92.8028 90.4031 91.8536 93.9362 90.6174C93.9367 90.6169 93.9376 90.6169 93.9386 90.6164C95.465 90.0821 96.9724 89.4941 98.462 88.8543C99.1606 90.7709 99.2268 92.1606 99.2012 92.8088ZM107.509 79.8056C104.784 81.6018 101.95 83.1848 99.0318 84.5544C102.089 79.7436 103.848 74.2397 104.165 68.467H115.456C116.487 68.467 117.322 67.6322 117.322 66.6004C117.322 65.5686 116.487 64.7337 115.456 64.7337H104.165C103.849 58.9606 102.09 53.459 99.0336 48.6496C107.855 52.7866 115.824 58.8616 122.367 66.6004C118.044 71.7155 113.051 76.1526 107.509 79.8056Z" fill="black"/>
<path d="M70.6541 55.4004C69.059 55.4004 67.4896 55.7504 65.9893 56.4411C65.1563 56.8237 64.7242 57.7552 64.972 58.6395C65.0284 58.8402 65.0541 58.997 65.0541 59.1337C65.0541 60.1637 64.2174 61.0004 63.1874 61.0004C63.0507 61.0004 62.8939 60.9747 62.6932 60.9183C61.8038 60.6686 60.8756 61.104 60.4948 61.9356C59.8041 63.4359 59.4541 65.0053 59.4541 66.6004C59.4541 72.7763 64.4782 77.8004 70.6541 77.8004C76.83 77.8004 81.8541 72.7763 81.8541 66.6004C81.8541 60.4245 76.8304 55.4004 70.6541 55.4004ZM70.6541 74.0671C66.5362 74.0671 63.1874 70.7183 63.1874 66.6004C63.1874 65.9713 63.2714 65.346 63.4371 64.7281C66.3262 64.6007 68.6544 62.2725 68.7818 59.3834C69.3997 59.2177 70.025 59.1337 70.6541 59.1337C74.772 59.1337 78.1208 62.4825 78.1208 66.6004C78.1208 70.7183 74.7724 74.0671 70.6541 74.0671Z" fill="black"/>
</svg>
