<svg width="71" height="32" viewBox="0 0 71 32" fill="none" xmlns="http://www.w3.org/2000/svg">
<path d="M44.3031 8H21.6969C15.7892 8 11 11.4986 11 15.8144V16.1856C11 20.5014 15.7892 24 21.6969 24H44.3031C50.2108 24 55 20.5014 55 16.1856V15.8144C55 11.4986 50.2108 8 44.3031 8Z" stroke="#4C4C4C" stroke-width="7" stroke-miterlimit="10"/>
<path d="M18.7799 1.9959H14.5999C14.4311 2.00847 14.2609 1.99206 14.1003 1.94772C13.9396 1.90339 13.792 1.83209 13.6668 1.73839C13.5416 1.64469 13.4417 1.53063 13.3733 1.4035C13.3049 1.27637 13.2695 1.13895 13.2695 1C13.2695 0.861053 13.3049 0.723632 13.3733 0.596499C13.4417 0.469366 13.5416 0.355311 13.6668 0.261609C13.792 0.167908 13.9396 0.0966134 14.1003 0.0522763C14.2609 0.0079392 14.4311 -0.00846816 14.5999 0.00409858H18.7799C18.9487 -0.00846816 19.1189 0.0079392 19.2795 0.0522763C19.4402 0.0966134 19.5878 0.167908 19.713 0.261609C19.8381 0.355311 19.9381 0.469366 20.0065 0.596499C20.0749 0.723632 20.1102 0.861053 20.1102 1C20.1102 1.13895 20.0749 1.27637 20.0065 1.4035C19.9381 1.53063 19.8381 1.64469 19.713 1.73839C19.5878 1.83209 19.4402 1.90339 19.2795 1.94772C19.1189 1.99206 18.9487 2.00847 18.7799 1.9959Z" fill="#4C4C4C"/>
<path d="M26.7196 2H22.5296C22.2264 1.97734 21.9444 1.86218 21.7391 1.67715C21.5338 1.49212 21.4199 1.25059 21.4199 1C21.4199 0.749414 21.5338 0.507883 21.7391 0.322852C21.9444 0.137821 22.2264 0.0226638 22.5296 0H26.7196C27.0228 0.0226638 27.3047 0.137821 27.5101 0.322852C27.7154 0.507883 27.8292 0.749414 27.8292 1C27.8292 1.25059 27.7154 1.49212 27.5101 1.67715C27.3047 1.86218 27.0228 1.97734 26.7196 2Z" fill="#4C4C4C"/>
<path d="M34.6493 2H30.4593C30.156 1.97734 29.8741 1.86218 29.6688 1.67715C29.4634 1.49212 29.3496 1.25059 29.3496 1C29.3496 0.749414 29.4634 0.507883 29.6688 0.322852C29.8741 0.137821 30.156 0.0226638 30.4593 0H34.6493C34.9525 0.0226638 35.2344 0.137821 35.4398 0.322852C35.6451 0.507883 35.7589 0.749414 35.7589 1C35.7589 1.25059 35.6451 1.49212 35.4398 1.67715C35.2344 1.86218 34.9525 1.97734 34.6493 2Z" fill="#4C4C4C"/>
<path d="M42.5787 1.9959H38.3987C38.2299 2.00847 38.0597 1.99206 37.899 1.94772C37.7384 1.90339 37.5908 1.83209 37.4656 1.73839C37.3404 1.64469 37.2405 1.53063 37.1721 1.4035C37.1037 1.27637 37.0684 1.13895 37.0684 1C37.0684 0.861053 37.1037 0.723632 37.1721 0.596499C37.2405 0.469366 37.3404 0.355311 37.4656 0.261609C37.5908 0.167908 37.7384 0.0966134 37.899 0.0522763C38.0597 0.0079392 38.2299 -0.00846816 38.3987 0.00409858H42.5787C42.8819 0.0266695 43.1638 0.141355 43.3692 0.325627C43.5745 0.5099 43.6884 0.750441 43.6884 1C43.6884 1.24956 43.5745 1.4901 43.3692 1.67437C43.1638 1.85865 42.8819 1.97333 42.5787 1.9959Z" fill="#4C4C4C"/>
<path d="M50.5184 2H46.3284C46.0252 1.97734 45.7432 1.86218 45.5379 1.67715C45.3326 1.49212 45.2188 1.25059 45.2188 1C45.2188 0.749414 45.3326 0.507883 45.5379 0.322852C45.7432 0.137821 46.0252 0.0226638 46.3284 0H50.5184C50.8216 0.0226638 51.1036 0.137821 51.3089 0.322852C51.5142 0.507883 51.6281 0.749414 51.6281 1C51.6281 1.25059 51.5142 1.49212 51.3089 1.67715C51.1036 1.86218 50.8216 1.97734 50.5184 2Z" fill="#4C4C4C"/>
<path d="M0 10.4V6.21C0 5.88909 0.127482 5.58132 0.354401 5.3544C0.58132 5.12748 0.88908 5 1.20999 5C1.5309 5 1.83866 5.12748 2.06558 5.3544C2.2925 5.58132 2.41998 5.88909 2.41998 6.21V10.4C2.41998 10.7209 2.2925 11.0287 2.06558 11.2556C1.83866 11.4825 1.5309 11.61 1.20999 11.61C0.88908 11.61 0.58132 11.4825 0.354401 11.2556C0.127482 11.0287 0 10.7209 0 10.4Z" fill="#4C4C4C"/>
<path d="M0 18.3399V14.1499C0 13.829 0.127482 13.5213 0.354401 13.2943C0.58132 13.0674 0.88908 12.9399 1.20999 12.9399C1.5309 12.9399 1.83866 13.0674 2.06558 13.2943C2.2925 13.5213 2.41998 13.829 2.41998 14.1499V18.3399C2.41998 18.6609 2.2925 18.9686 2.06558 19.1955C1.83866 19.4225 1.5309 19.5499 1.20999 19.5499C0.88908 19.5499 0.58132 19.4225 0.354401 19.1955C0.127482 18.9686 0 18.6609 0 18.3399Z" fill="#4C4C4C"/>
<path d="M0 26.2701V22.0801C0 21.7592 0.127482 21.4514 0.354401 21.2245C0.58132 20.9976 0.88908 20.8701 1.20999 20.8701C1.5309 20.8701 1.83866 20.9976 2.06558 21.2245C2.2925 21.4514 2.41998 21.7592 2.41998 22.0801V26.2701C2.41998 26.591 2.2925 26.8988 2.06558 27.1257C1.83866 27.3526 1.5309 27.4801 1.20999 27.4801C0.88908 27.4801 0.58132 27.3526 0.354401 27.1257C0.127482 26.8988 0 26.591 0 26.2701Z" fill="#4C4C4C"/>
<path d="M63.6289 10.4V6.21C63.6289 5.88909 63.7564 5.58132 63.9833 5.3544C64.2102 5.12748 64.518 5 64.8389 5C65.1598 5 65.4676 5.12748 65.6945 5.3544C65.9214 5.58132 66.0489 5.88909 66.0489 6.21V10.4C66.0489 10.7209 65.9214 11.0287 65.6945 11.2556C65.4676 11.4825 65.1598 11.61 64.8389 11.61C64.518 11.61 64.2102 11.4825 63.9833 11.2556C63.7564 11.0287 63.6289 10.7209 63.6289 10.4Z" fill="#4C4C4C"/>
<path d="M63.6289 18.3399V14.1499C63.6289 13.829 63.7564 13.5213 63.9833 13.2943C64.2102 13.0674 64.518 12.9399 64.8389 12.9399C65.1598 12.9399 65.4676 13.0674 65.6945 13.2943C65.9214 13.5213 66.0489 13.829 66.0489 14.1499V18.3399C66.0489 18.6609 65.9214 18.9686 65.6945 19.1955C65.4676 19.4225 65.1598 19.5499 64.8389 19.5499C64.518 19.5499 64.2102 19.4225 63.9833 19.1955C63.7564 18.9686 63.6289 18.6609 63.6289 18.3399Z" fill="#4C4C4C"/>
<path d="M63.6289 26.2701V22.0801C63.6289 21.7592 63.7564 21.4514 63.9833 21.2245C64.2102 20.9976 64.518 20.8701 64.8389 20.8701C65.1598 20.8701 65.4676 20.9976 65.6945 21.2245C65.9214 21.4514 66.0489 21.7592 66.0489 22.0801V26.2701C66.0489 26.591 65.9214 26.8988 65.6945 27.1257C65.4676 27.3526 65.1598 27.4801 64.8389 27.4801C64.518 27.4801 64.2102 27.3526 63.9833 27.1257C63.7564 26.8988 63.6289 26.591 63.6289 26.2701Z" fill="#4C4C4C"/>
<path d="M18.7787 32H14.5987C14.2778 32 13.97 31.8946 13.7431 31.7071C13.5162 31.5196 13.3887 31.2652 13.3887 31C13.3887 30.7348 13.5162 30.4804 13.7431 30.2929C13.97 30.1054 14.2778 30 14.5987 30H18.7787C19.0996 30 19.4074 30.1054 19.6343 30.2929C19.8612 30.4804 19.9887 30.7348 19.9887 31C19.9887 31.2652 19.8612 31.5196 19.6343 31.7071C19.4074 31.8946 19.0996 32 18.7787 32Z" fill="#4C4C4C"/>
<path d="M26.7184 32H22.5284C22.2074 32 21.8997 31.8946 21.6728 31.7071C21.4458 31.5196 21.3184 31.2652 21.3184 31C21.3184 30.7348 21.4458 30.4804 21.6728 30.2929C21.8997 30.1054 22.2074 30 22.5284 30H26.7184C27.0393 30 27.347 30.1054 27.5739 30.2929C27.8009 30.4804 27.9283 30.7348 27.9283 31C27.9283 31.2652 27.8009 31.5196 27.5739 31.7071C27.347 31.8946 27.0393 32 26.7184 32Z" fill="#4C4C4C"/>
<path d="M34.65 32H30.46C30.1391 32 29.8313 31.8946 29.6044 31.7071C29.3775 31.5196 29.25 31.2652 29.25 31C29.25 30.7348 29.3775 30.4804 29.6044 30.2929C29.8313 30.1054 30.1391 30 30.46 30H34.65C34.9709 30 35.2787 30.1054 35.5056 30.2929C35.7325 30.4804 35.86 30.7348 35.86 31C35.86 31.2652 35.7325 31.5196 35.5056 31.7071C35.2787 31.8946 34.9709 32 34.65 32Z" fill="#4C4C4C"/>
<path d="M42.5794 32H38.3994C38.0785 32 37.7708 31.8946 37.5439 31.7071C37.3169 31.5196 37.1895 31.2652 37.1895 31C37.1895 30.7348 37.3169 30.4804 37.5439 30.2929C37.7708 30.1054 38.0785 30 38.3994 30H42.5794C42.9003 30 43.2081 30.1054 43.4351 30.2929C43.662 30.4804 43.7895 30.7348 43.7895 31C43.7895 31.2652 43.662 31.5196 43.4351 31.7071C43.2081 31.8946 42.9003 32 42.5794 32Z" fill="#4C4C4C"/>
<path d="M50.5191 32H46.3291C46.0082 32 45.7005 31.8946 45.4735 31.7071C45.2466 31.5196 45.1191 31.2652 45.1191 31C45.1191 30.7348 45.2466 30.4804 45.4735 30.2929C45.7005 30.1054 46.0082 30 46.3291 30H50.5191C50.84 30 51.1478 30.1054 51.3748 30.2929C51.6017 30.4804 51.7292 30.7348 51.7292 31C51.7292 31.2652 51.6017 31.5196 51.3748 31.7071C51.1478 31.8946 50.84 32 50.5191 32Z" fill="#4C4C4C"/>
</svg>
