<svg width="71" height="32" viewBox="0 0 71 32" fill="none" xmlns="http://www.w3.org/2000/svg">
<path d="M54.4793 11.3549H12.8293C11.8215 11.3549 10.8549 10.9545 10.1423 10.2419C9.42965 9.52925 9.0293 8.5627 9.0293 7.55488C9.0293 6.54706 9.42965 5.58051 10.1423 4.86787C10.8549 4.15524 11.8215 3.75488 12.8293 3.75488H54.4793C55.4871 3.75488 56.4537 4.15524 57.1663 4.86787C57.8789 5.58051 58.2793 6.54706 58.2793 7.55488C58.2793 8.5627 57.8789 9.52925 57.1663 10.2419C56.4537 10.9545 55.4871 11.3549 54.4793 11.3549Z" fill="#4C4C4C"/>
<path d="M24.0904 2.435H19.9104C19.7416 2.45033 19.5714 2.43031 19.4108 2.37622C19.2501 2.32213 19.1025 2.23515 18.9773 2.12084C18.8522 2.00652 18.7522 1.86737 18.6838 1.71227C18.6154 1.55717 18.5801 1.38952 18.5801 1.22C18.5801 1.05049 18.6154 0.882828 18.6838 0.727725C18.7522 0.572623 18.8522 0.433476 18.9773 0.31916C19.1025 0.204843 19.2501 0.117868 19.4108 0.0637771C19.5714 0.00968583 19.7416 -0.0103312 19.9104 0.00500027H24.0904C24.3936 0.0325367 24.6756 0.172453 24.8809 0.397266C25.0862 0.622078 25.2001 0.915538 25.2001 1.22C25.2001 1.52446 25.0862 1.81792 24.8809 2.04274C24.6756 2.26755 24.3936 2.40746 24.0904 2.435Z" fill="#4C4C4C"/>
<path d="M32.0001 2.43488H27.8401C27.5369 2.40735 27.255 2.26743 27.0496 2.04262C26.8443 1.81781 26.7305 1.52435 26.7305 1.21988C26.7305 0.915421 26.8443 0.621961 27.0496 0.397148C27.255 0.172336 27.5369 0.0324193 27.8401 0.00488281H32.0001C32.3033 0.0324193 32.5853 0.172336 32.7906 0.397148C32.9959 0.621961 33.1098 0.915421 33.1098 1.21988C33.1098 1.52435 32.9959 1.81781 32.7906 2.04262C32.5853 2.26743 32.3033 2.40735 32.0001 2.43488Z" fill="#4C4C4C"/>
<path d="M39.9998 2.43488H35.7698C35.4666 2.40735 35.1846 2.26743 34.9793 2.04262C34.774 1.81781 34.6602 1.52435 34.6602 1.21988C34.6602 0.915421 34.774 0.621961 34.9793 0.397148C35.1846 0.172336 35.4666 0.0324193 35.7698 0.00488281H39.9998C40.303 0.0324193 40.585 0.172336 40.7903 0.397148C40.9956 0.621961 41.1095 0.915421 41.1095 1.21988C41.1095 1.52435 40.9956 1.81781 40.7903 2.04262C40.585 2.26743 40.303 2.40735 39.9998 2.43488Z" fill="#4C4C4C"/>
<path d="M47.8895 2.43488H43.6995C43.3963 2.40735 43.1143 2.26743 42.909 2.04262C42.7037 1.81781 42.5898 1.52435 42.5898 1.21988C42.5898 0.915421 42.7037 0.621961 42.909 0.397148C43.1143 0.172336 43.3963 0.0324193 43.6995 0.00488281H47.8895C48.1927 0.0324193 48.4747 0.172336 48.68 0.397148C48.8853 0.621961 48.9992 0.915421 48.9992 1.21988C48.9992 1.52435 48.8853 1.81781 48.68 2.04262C48.4747 2.26743 48.1927 2.40735 47.8895 2.43488Z" fill="#4C4C4C"/>
<path d="M5.39927 20.8348H1.20927C0.906054 20.8072 0.624093 20.6673 0.418772 20.4425C0.213451 20.2177 0.0996094 19.9242 0.0996094 19.6198C0.0996094 19.3153 0.213451 19.0219 0.418772 18.7971C0.624093 18.5722 0.906054 18.4323 1.20927 18.4048H5.39927C5.70248 18.4323 5.98444 18.5722 6.18977 18.7971C6.39509 19.0219 6.50893 19.3153 6.50893 19.6198C6.50893 19.9242 6.39509 20.2177 6.18977 20.4425C5.98444 20.6673 5.70248 20.8072 5.39927 20.8348Z" fill="#4C4C4C"/>
<path d="M13.3307 20.8349H9.15065C8.98183 20.8502 8.81167 20.8302 8.65102 20.7761C8.49036 20.722 8.34275 20.6351 8.21758 20.5207C8.09241 20.4064 7.99244 20.2673 7.92404 20.1122C7.85564 19.9571 7.82031 19.7894 7.82031 19.6199C7.82031 19.4504 7.85564 19.2827 7.92404 19.1276C7.99244 18.9725 8.09241 18.8334 8.21758 18.7191C8.34275 18.6047 8.49036 18.5178 8.65102 18.4637C8.81167 18.4096 8.98183 18.3896 9.15065 18.4049H13.3307C13.6339 18.4324 13.9158 18.5724 14.1211 18.7972C14.3265 19.022 14.4403 19.3154 14.4403 19.6199C14.4403 19.9244 14.3265 20.2178 14.1211 20.4426C13.9158 20.6674 13.6339 20.8074 13.3307 20.8349Z" fill="#4C4C4C"/>
<path d="M21.2704 20.8348H17.0804C16.7771 20.8072 16.4952 20.6673 16.2899 20.4425C16.0845 20.2177 15.9707 19.9242 15.9707 19.6198C15.9707 19.3153 16.0845 19.0219 16.2899 18.7971C16.4952 18.5722 16.7771 18.4323 17.0804 18.4048H21.2704C21.5736 18.4323 21.8555 18.5722 22.0609 18.7971C22.2662 19.0219 22.38 19.3153 22.38 19.6198C22.38 19.9242 22.2662 20.2177 22.0609 20.4425C21.8555 20.6673 21.5736 20.8072 21.2704 20.8348Z" fill="#4C4C4C"/>
<path d="M29.2003 20.8348H25.0003C24.6971 20.8072 24.4151 20.6673 24.2098 20.4425C24.0045 20.2177 23.8906 19.9242 23.8906 19.6198C23.8906 19.3153 24.0045 19.0219 24.2098 18.7971C24.4151 18.5722 24.6971 18.4323 25.0003 18.4048H29.2003C29.5035 18.4323 29.7855 18.5722 29.9908 18.7971C30.1961 19.0219 30.3099 19.3153 30.3099 19.6198C30.3099 19.9242 30.1961 20.2177 29.9908 20.4425C29.7855 20.6673 29.5035 20.8072 29.2003 20.8348Z" fill="#4C4C4C"/>
<path d="M5.39927 25.6849H1.20927C0.906054 25.6573 0.624093 25.5174 0.418772 25.2926C0.213451 25.0678 0.0996094 24.7743 0.0996094 24.4699C0.0996094 24.1654 0.213451 23.872 0.418772 23.6471C0.624093 23.4223 0.906054 23.2824 1.20927 23.2549H5.39927C5.70248 23.2824 5.98444 23.4223 6.18977 23.6471C6.39509 23.872 6.50893 24.1654 6.50893 24.4699C6.50893 24.7743 6.39509 25.0678 6.18977 25.2926C5.98444 25.5174 5.70248 25.6573 5.39927 25.6849Z" fill="#4C4C4C"/>
<path d="M13.3307 25.685H9.15065C8.98183 25.7003 8.81167 25.6803 8.65102 25.6262C8.49036 25.5721 8.34275 25.4852 8.21758 25.3708C8.09241 25.2565 7.99244 25.1174 7.92404 24.9623C7.85564 24.8072 7.82031 24.6395 7.82031 24.47C7.82031 24.3005 7.85564 24.1328 7.92404 23.9777C7.99244 23.8226 8.09241 23.6835 8.21758 23.5692C8.34275 23.4548 8.49036 23.3679 8.65102 23.3138C8.81167 23.2597 8.98183 23.2397 9.15065 23.255H13.3307C13.6339 23.2825 13.9158 23.4225 14.1211 23.6473C14.3265 23.8721 14.4403 24.1655 14.4403 24.47C14.4403 24.7745 14.3265 25.0679 14.1211 25.2927C13.9158 25.5175 13.6339 25.6575 13.3307 25.685Z" fill="#4C4C4C"/>
<path d="M21.2704 25.6849H17.0804C16.7771 25.6573 16.4952 25.5174 16.2899 25.2926C16.0845 25.0678 15.9707 24.7743 15.9707 24.4699C15.9707 24.1654 16.0845 23.872 16.2899 23.6471C16.4952 23.4223 16.7771 23.2824 17.0804 23.2549H21.2704C21.5736 23.2824 21.8555 23.4223 22.0609 23.6471C22.2662 23.872 22.38 24.1654 22.38 24.4699C22.38 24.7743 22.2662 25.0678 22.0609 25.2926C21.8555 25.5174 21.5736 25.6573 21.2704 25.6849Z" fill="#4C4C4C"/>
<path d="M29.2003 25.6849H25.0003C24.6971 25.6573 24.4151 25.5174 24.2098 25.2926C24.0045 25.0678 23.8906 24.7743 23.8906 24.4699C23.8906 24.1654 24.0045 23.872 24.2098 23.6471C24.4151 23.4223 24.6971 23.2824 25.0003 23.2549H29.2003C29.5035 23.2824 29.7855 23.4223 29.9908 23.6471C30.1961 23.872 30.3099 24.1654 30.3099 24.4699C30.3099 24.7743 30.1961 25.0678 29.9908 25.2926C29.7855 25.5174 29.5035 25.6573 29.2003 25.6849Z" fill="#4C4C4C"/>
<path d="M5.4 30.525H1.21C0.889088 30.525 0.58132 30.3975 0.354401 30.1706C0.127482 29.9437 0 29.6359 0 29.315C0 28.9941 0.127482 28.6863 0.354401 28.4594C0.58132 28.2325 0.889088 28.105 1.21 28.105H5.4C5.72091 28.105 6.02868 28.2325 6.2556 28.4594C6.48252 28.6863 6.61 28.9941 6.61 29.315C6.61 29.6359 6.48252 29.9437 6.2556 30.1706C6.02868 30.3975 5.72091 30.525 5.4 30.525Z" fill="#4C4C4C"/>
<path d="M13.3295 30.525H9.14945C8.82854 30.525 8.52077 30.3975 8.29385 30.1706C8.06694 29.9437 7.93945 29.6359 7.93945 29.315C7.93945 28.9941 8.06694 28.6863 8.29385 28.4594C8.52077 28.2325 8.82854 28.105 9.14945 28.105H13.3295C13.6504 28.105 13.9581 28.2325 14.1851 28.4594C14.412 28.6863 14.5395 28.9941 14.5395 29.315C14.5395 29.6359 14.412 29.9437 14.1851 30.1706C13.9581 30.3975 13.6504 30.525 13.3295 30.525Z" fill="#4C4C4C"/>
<path d="M21.2691 30.525H17.0791C16.7582 30.525 16.4505 30.3975 16.2235 30.1706C15.9966 29.9437 15.8691 29.6359 15.8691 29.315C15.8691 28.9941 15.9966 28.6863 16.2235 28.4594C16.4505 28.2325 16.7582 28.105 17.0791 28.105H21.2691C21.5901 28.105 21.8978 28.2325 22.1247 28.4594C22.3517 28.6863 22.4791 28.9941 22.4791 29.315C22.4791 29.6359 22.3517 29.9437 22.1247 30.1706C21.8978 30.3975 21.5901 30.525 21.2691 30.525Z" fill="#4C4C4C"/>
<path d="M29.1991 30.525H24.9991C24.6781 30.525 24.3704 30.3975 24.1435 30.1706C23.9165 29.9437 23.7891 29.6359 23.7891 29.315C23.7891 28.9941 23.9165 28.6863 24.1435 28.4594C24.3704 28.2325 24.6781 28.105 24.9991 28.105H29.1991C29.52 28.105 29.8277 28.2325 30.0547 28.4594C30.2816 28.6863 30.4091 28.9941 30.4091 29.315C30.4091 29.6359 30.2816 29.9437 30.0547 30.1706C29.8277 30.3975 29.52 30.525 29.1991 30.525Z" fill="#4C4C4C"/>
<path d="M42.3094 20.8348H38.1194C37.8162 20.8072 37.5342 20.6673 37.3289 20.4425C37.1236 20.2177 37.0098 19.9242 37.0098 19.6198C37.0098 19.3153 37.1236 19.0219 37.3289 18.7971C37.5342 18.5722 37.8162 18.4323 38.1194 18.4048H42.3094C42.6126 18.4323 42.8946 18.5722 43.0999 18.7971C43.3052 19.0219 43.4191 19.3153 43.4191 19.6198C43.4191 19.9242 43.3052 20.2177 43.0999 20.4425C42.8946 20.6673 42.6126 20.8072 42.3094 20.8348Z" fill="#4C4C4C"/>
<path d="M50.2391 20.8348H46.0491C45.7459 20.8072 45.4639 20.6673 45.2586 20.4425C45.0533 20.2177 44.9395 19.9242 44.9395 19.6198C44.9395 19.3153 45.0533 19.0219 45.2586 18.7971C45.4639 18.5722 45.7459 18.4323 46.0491 18.4048H50.2391C50.5423 18.4323 50.8243 18.5722 51.0296 18.7971C51.2349 19.0219 51.3488 19.3153 51.3488 19.6198C51.3488 19.9242 51.2349 20.2177 51.0296 20.4425C50.8243 20.6673 50.5423 20.8072 50.2391 20.8348Z" fill="#4C4C4C"/>
<path d="M58.1703 20.8349H54.0003C53.8314 20.8502 53.6613 20.8302 53.5006 20.7761C53.34 20.722 53.1924 20.6351 53.0672 20.5207C52.942 20.4064 52.842 20.2673 52.7736 20.1122C52.7052 19.9571 52.6699 19.7894 52.6699 19.6199C52.6699 19.4504 52.7052 19.2827 52.7736 19.1276C52.842 18.9725 52.942 18.8334 53.0672 18.7191C53.1924 18.6047 53.34 18.5178 53.5006 18.4637C53.6613 18.4096 53.8314 18.3896 54.0003 18.4049H58.1803C58.3491 18.3896 58.5192 18.4096 58.6799 18.4637C58.8406 18.5178 58.9882 18.6047 59.1133 18.7191C59.2385 18.8334 59.3385 18.9725 59.4069 19.1276C59.4753 19.2827 59.5106 19.4504 59.5106 19.6199C59.5106 19.7894 59.4753 19.9571 59.4069 20.1122C59.3385 20.2673 59.2385 20.4064 59.1133 20.5207C58.9882 20.6351 58.8406 20.722 58.6799 20.7761C58.5192 20.8302 58.3491 20.8502 58.1803 20.8349" fill="#4C4C4C"/>
<path d="M66.1102 20.8348H61.9202C61.617 20.8072 61.335 20.6673 61.1297 20.4425C60.9244 20.2177 60.8105 19.9242 60.8105 19.6198C60.8105 19.3153 60.9244 19.0219 61.1297 18.7971C61.335 18.5722 61.617 18.4323 61.9202 18.4048H66.1102C66.4134 18.4323 66.6954 18.5722 66.9007 18.7971C67.106 19.0219 67.2199 19.3153 67.2199 19.6198C67.2199 19.9242 67.106 20.2177 66.9007 20.4425C66.6954 20.6673 66.4134 20.8072 66.1102 20.8348Z" fill="#4C4C4C"/>
<path d="M42.3094 25.6849H38.1194C37.8162 25.6573 37.5342 25.5174 37.3289 25.2926C37.1236 25.0678 37.0098 24.7743 37.0098 24.4699C37.0098 24.1654 37.1236 23.872 37.3289 23.6471C37.5342 23.4223 37.8162 23.2824 38.1194 23.2549H42.3094C42.6126 23.2824 42.8946 23.4223 43.0999 23.6471C43.3052 23.872 43.4191 24.1654 43.4191 24.4699C43.4191 24.7743 43.3052 25.0678 43.0999 25.2926C42.8946 25.5174 42.6126 25.6573 42.3094 25.6849Z" fill="#4C4C4C"/>
<path d="M50.2391 25.6849H46.0491C45.7459 25.6573 45.4639 25.5174 45.2586 25.2926C45.0533 25.0678 44.9395 24.7743 44.9395 24.4699C44.9395 24.1654 45.0533 23.872 45.2586 23.6471C45.4639 23.4223 45.7459 23.2824 46.0491 23.2549H50.2391C50.5423 23.2824 50.8243 23.4223 51.0296 23.6471C51.2349 23.872 51.3488 24.1654 51.3488 24.4699C51.3488 24.7743 51.2349 25.0678 51.0296 25.2926C50.8243 25.5174 50.5423 25.6573 50.2391 25.6849Z" fill="#4C4C4C"/>
<path d="M58.1703 25.685H54.0003C53.8314 25.7003 53.6613 25.6803 53.5006 25.6262C53.34 25.5721 53.1924 25.4852 53.0672 25.3708C52.942 25.2565 52.842 25.1174 52.7736 24.9623C52.7052 24.8072 52.6699 24.6395 52.6699 24.47C52.6699 24.3005 52.7052 24.1328 52.7736 23.9777C52.842 23.8226 52.942 23.6835 53.0672 23.5692C53.1924 23.4548 53.34 23.3679 53.5006 23.3138C53.6613 23.2597 53.8314 23.2397 54.0003 23.255H58.1803C58.3491 23.2397 58.5192 23.2597 58.6799 23.3138C58.8406 23.3679 58.9882 23.4548 59.1133 23.5692C59.2385 23.6835 59.3385 23.8226 59.4069 23.9777C59.4753 24.1328 59.5106 24.3005 59.5106 24.47C59.5106 24.6395 59.4753 24.8072 59.4069 24.9623C59.3385 25.1174 59.2385 25.2565 59.1133 25.3708C58.9882 25.4852 58.8406 25.5721 58.6799 25.6262C58.5192 25.6803 58.3491 25.7003 58.1803 25.685" fill="#4C4C4C"/>
<path d="M66.1102 25.6849H61.9202C61.617 25.6573 61.335 25.5174 61.1297 25.2926C60.9244 25.0678 60.8105 24.7743 60.8105 24.4699C60.8105 24.1654 60.9244 23.872 61.1297 23.6471C61.335 23.4223 61.617 23.2824 61.9202 23.2549H66.1102C66.4134 23.2824 66.6954 23.4223 66.9007 23.6471C67.106 23.872 67.2199 24.1654 67.2199 24.4699C67.2199 24.7743 67.106 25.0678 66.9007 25.2926C66.6954 25.5174 66.4134 25.6573 66.1102 25.6849Z" fill="#4C4C4C"/>
<path d="M42.3102 30.525H38.1202C37.7992 30.525 37.4915 30.3975 37.2646 30.1706C37.0376 29.9437 36.9102 29.6359 36.9102 29.315C36.9102 28.9941 37.0376 28.6863 37.2646 28.4594C37.4915 28.2325 37.7992 28.105 38.1202 28.105H42.3102C42.6311 28.105 42.9388 28.2325 43.1658 28.4594C43.3927 28.6863 43.5202 28.9941 43.5202 29.315C43.5202 29.6359 43.3927 29.9437 43.1658 30.1706C42.9388 30.3975 42.6311 30.525 42.3102 30.525Z" fill="#4C4C4C"/>
<path d="M50.2398 30.525H46.0498C45.7289 30.525 45.4212 30.3975 45.1942 30.1706C44.9673 29.9437 44.8398 29.6359 44.8398 29.315C44.8398 28.9941 44.9673 28.6863 45.1942 28.4594C45.4212 28.2325 45.7289 28.105 46.0498 28.105H50.2398C50.5608 28.105 50.8685 28.2325 51.0954 28.4594C51.3224 28.6863 51.4498 28.9941 51.4498 29.315C51.4498 29.6359 51.3224 29.9437 51.0954 30.1706C50.8685 30.3975 50.5608 30.525 50.2398 30.525Z" fill="#4C4C4C"/>
<path d="M58.1691 30.525H53.9991C53.6781 30.525 53.3704 30.3975 53.1435 30.1706C52.9165 29.9437 52.7891 29.6359 52.7891 29.315C52.7891 28.9941 52.9165 28.6863 53.1435 28.4594C53.3704 28.2325 53.6781 28.105 53.9991 28.105H58.1791C58.5 28.105 58.8077 28.2325 59.0347 28.4594C59.2616 28.6863 59.3891 28.9941 59.3891 29.315C59.3891 29.6359 59.2616 29.9437 59.0347 30.1706C58.8077 30.3975 58.5 30.525 58.1791 30.525" fill="#4C4C4C"/>
<path d="M66.1109 30.525H61.9209C61.6 30.525 61.2923 30.3975 61.0653 30.1706C60.8384 29.9437 60.7109 29.6359 60.7109 29.315C60.7109 28.9941 60.8384 28.6863 61.0653 28.4594C61.2923 28.2325 61.6 28.105 61.9209 28.105H66.1109C66.4319 28.105 66.7396 28.2325 66.9665 28.4594C67.1935 28.6863 67.3209 28.9941 67.3209 29.315C67.3209 29.6359 67.1935 29.9437 66.9665 30.1706C66.7396 30.3975 66.4319 30.525 66.1109 30.525Z" fill="#4C4C4C"/>
</svg>
