<svg width="65" height="64" viewBox="0 0 65 64" fill="none" xmlns="http://www.w3.org/2000/svg">
<g clip-path="url(#clip0)">
<path d="M62.8732 41.5255H55.0594L55.0015 41.4972C51.8747 39.639 49.3589 38.5661 46.9055 38.2296C47.5479 36.0872 47.8736 33.8627 47.8736 31.5951C47.8736 18.8639 37.5167 8.50635 24.7861 8.50635C18.1022 8.50635 11.7507 11.4015 7.36023 16.4492C6.90711 16.9701 6.96211 17.7596 7.48311 18.2127C8.00386 18.6657 8.79335 18.6106 9.2466 18.0899C13.1621 13.5882 18.826 11.0063 24.7861 11.0063C36.1381 11.0063 45.3736 20.2425 45.3736 31.5951C45.3736 33.8432 45.0161 36.043 44.3101 38.1464C42.0549 38.3081 39.8881 39.0512 37.8237 39.9366H29.1584C26.1087 39.9366 23.5564 42.4881 23.5564 45.5386C23.5564 46.6395 23.8826 47.7305 24.4954 48.6459H24.1822L9.25698 44.3636C9.01361 44.2937 8.76186 44.2409 8.51111 44.2056C5.72636 40.6137 4.19861 36.1567 4.19861 31.5952C4.19861 30.2425 4.33173 28.8859 4.59423 27.5634C4.72861 26.8862 4.28861 26.2284 3.61148 26.094C2.93436 25.9599 2.27636 26.3996 2.14211 27.0767C1.84786 28.5592 1.69873 30.0795 1.69873 31.5954C1.69873 36.2295 3.10561 40.7677 5.69261 44.576C4.32223 45.1576 3.20661 46.3086 2.70686 47.8395C1.81611 50.5741 3.31923 53.6042 6.03648 54.5442L24.2031 60.8377C27.5135 61.9847 31.0966 62.3351 34.5667 61.8546L50.9577 59.5801H53.5227V62.75C53.5227 63.4404 54.0825 64 54.7727 64H62.8737C63.564 64 64.1237 63.4404 64.1237 62.75V42.7755C64.1232 42.0851 63.5636 41.5255 62.8732 41.5255ZM50.871 57.08C50.8135 57.08 50.7561 57.084 50.6992 57.0919L34.2232 59.3782C31.1399 59.8051 27.958 59.493 25.0211 58.4754L6.85398 52.1816C5.40773 51.6814 4.60936 50.0695 5.08336 48.6144C5.55373 47.1737 7.11023 46.3499 8.56761 46.767L23.6616 51.0981C23.7737 51.1302 23.8897 51.1466 24.0064 51.1466L38.0825 51.146C38.7727 51.146 39.3325 50.5809 39.3325 49.8905C39.3325 49.2001 38.7727 48.6405 38.0825 48.6405L29.1584 48.6402C27.4682 48.6402 26.0566 47.229 26.0566 45.5385C26.0566 43.848 27.4694 42.4371 29.1582 42.4371H38.0826C38.2547 42.4371 38.4249 42.4016 38.5826 42.3327C40.8471 41.3445 43.2722 40.4982 45.7785 40.6395C48.5742 40.7971 51.1545 42.1335 53.5224 43.527V57.08H50.871ZM61.6232 61.5H56.0222L56.0225 44.0255H61.6232V61.5Z" fill="black"/>
<path d="M24.7861 5.93225C25.4765 5.93225 26.0361 5.37262 26.0361 4.68225V1.25C26.0361 0.559625 25.4765 0 24.7861 0C24.0958 0 23.5361 0.559625 23.5361 1.25V4.68225C23.5361 5.37262 24.0958 5.93225 24.7861 5.93225Z" fill="black"/>
<path d="M39.7524 9.38536C39.9853 9.57749 40.2671 9.67111 40.5471 9.67111C40.9074 9.67111 41.2649 9.51611 41.5122 9.21636L43.9391 6.27386C44.3783 5.74124 44.3026 4.95349 43.7701 4.51424C43.2373 4.07486 42.4497 4.15074 42.0103 4.68324L39.5834 7.62574C39.1443 8.15824 39.2201 8.94611 39.7524 9.38536Z" fill="black"/>
<path d="M9.10627 9.21641C9.35339 9.51603 9.71089 9.67116 10.0713 9.67116C10.3513 9.67116 10.633 9.57753 10.8659 9.38541C11.3985 8.94616 11.4741 8.15828 11.0349 7.62578L8.60789 4.68328C8.16877 4.15065 7.38089 4.0749 6.84827 4.51428C6.31564 4.95353 6.24002 5.74141 6.67927 6.27391L9.10627 9.21641Z" fill="black"/>
<path d="M25.6264 36.5634C28.1786 36.5634 30.255 34.487 30.255 31.9347V24.8794C30.255 22.3271 28.1786 20.2507 25.6264 20.2507H23.946C21.3938 20.2507 19.3174 22.3271 19.3174 24.8794V31.9347C19.3174 34.487 21.3938 36.5634 23.946 36.5634H25.6264ZM21.8174 31.9347V24.8794C21.8174 23.7056 22.7723 22.7507 23.946 22.7507H25.6264C26.8001 22.7507 27.755 23.7056 27.755 24.8794V31.9347C27.755 33.1085 26.8001 34.0634 25.6264 34.0634H23.946C22.7723 34.0634 21.8174 33.1085 21.8174 31.9347Z" fill="black"/>
<path d="M4.06296 22.3712C4.32121 23.0012 5.06783 23.308 5.69546 23.0475C6.32446 22.7865 6.63258 22.045 6.37171 21.415C6.11133 20.7861 5.36808 20.4777 4.73921 20.7387C4.11158 20.9992 3.80096 21.7425 4.06296 22.3712Z" fill="black"/>
</g>
<defs>
<clipPath id="clip0">
<rect width="64" height="64" fill="white" transform="translate(0.911133)"/>
</clipPath>
</defs>
</svg>
