<svg width="308" height="308" viewBox="0 0 308 308" fill="none" xmlns="http://www.w3.org/2000/svg">
<g style="mix-blend-mode:hard-light" opacity="0.2" clip-path="url(#clip0_3701_7404)">
<path d="M261.963 114.165L260.312 108.029C258.146 99.9823 251.315 93.838 242.959 92.8506C202.238 87.8438 163.82 71.7535 143.124 61.7894C133.948 57.3549 122.883 60.3325 117.172 68.7732C104.171 87.8055 79.0908 120.876 46.4094 145.744C43.1319 148.225 40.675 151.633 39.357 155.526C38.0391 159.42 37.9209 163.62 39.0178 167.581L40.669 173.717C44.7023 188.705 57.4677 198.861 72.0253 200.445C76.2711 217.425 80.0254 236.587 81.1143 255.064C81.9097 268.442 94.385 277.922 107.361 274.43L254.924 234.719C267.899 231.227 273.932 216.767 267.906 204.797C259.548 188.168 253.078 169.737 248.356 152.993C260.052 144.344 265.996 129.153 261.963 114.165ZM134.289 80.6713C150.754 88.5381 177.082 99.7912 207.361 107.284L84.4428 140.363C106.872 118.685 123.997 95.7385 134.289 80.6713ZM161.375 141.234L191.551 133.114C193.798 141.462 188.872 150.015 180.523 152.262C172.174 154.509 163.621 149.583 161.375 141.234ZM130.229 165.797C121.88 168.043 113.327 163.118 111.081 154.769L141.257 146.648C143.504 154.997 138.578 163.55 130.229 165.797ZM90.9631 160.183C93.2098 168.531 88.284 177.084 79.9352 179.331C71.5864 181.578 63.0334 176.652 60.7867 168.303L90.9631 160.183ZM101.846 254.339C100.735 234.574 96.9378 214.453 92.4754 196.668C98.9094 193.319 104.125 188.247 107.526 182.046C110.718 183.884 114.176 185.111 117.754 185.982C121.81 205.063 125.967 226.921 128.576 247.038L101.819 254.239L101.846 254.339ZM149.022 241.644C146.483 222.586 142.713 202.566 138.881 184.719C147.114 181.641 153.858 175.835 157.948 168.585C165.124 172.803 173.77 174.467 182.536 172.971C188.279 190.303 194.966 209.539 202.334 227.297L149.022 241.644ZM222.653 221.829C214.685 203.046 207.31 182.054 201.37 163.588C204.028 161.039 206.504 158.215 208.242 155.051C214.269 158.607 221.352 160.476 228.598 160.144C233.664 177.766 240.478 197.076 249.436 214.729L222.68 221.93L222.653 221.829ZM230.817 138.728C222.469 140.974 213.915 136.049 211.669 127.7L241.845 119.579C244.092 127.928 239.166 136.481 230.817 138.728Z" fill="url(#paint0_linear_3701_7404)"/>
</g>
<defs>
<linearGradient id="paint0_linear_3701_7404" x1="128.848" y1="60.4532" x2="181.092" y2="254.588" gradientUnits="userSpaceOnUse">
<stop stop-color="#9F79AE"/>
<stop offset="0.505208" stop-color="#413F43"/>
<stop offset="1" stop-color="#9F79AE"/>
</linearGradient>
<clipPath id="clip0_3701_7404">
<rect width="250" height="250" fill="white" transform="translate(0.833984 65.7773) rotate(-15.062)"/>
</clipPath>
</defs>
</svg>
