<svg width="65" height="65" viewBox="0 0 65 65" fill="none" xmlns="http://www.w3.org/2000/svg">
<g clip-path="url(#clip0)">
<path d="M24.271 30.699V21.9568C24.271 18.0559 21.8403 14.7141 18.4155 13.3601C19.7129 12.1301 20.5244 10.3928 20.5244 8.46802V7.46899C20.5244 3.75024 17.499 0.724854 13.7803 0.724854C10.0615 0.724854 7.03564 3.75024 7.03564 7.46899V8.46802C7.03564 10.3928 7.84766 12.1301 9.14453 13.3601C5.71973 14.7141 3.28906 18.0559 3.28906 21.9568V30.699C3.28906 33.2996 5.10547 35.4822 7.53564 36.0496V38.7615C7.53564 39.4509 8.09473 40.01 8.78418 40.01C9.47412 40.01 10.0332 39.4509 10.0332 38.7615V34.321H17.5269V60.9783C17.5269 61.6667 16.9668 62.2268 16.2778 62.2268C15.5894 62.2268 15.0288 61.6667 15.0288 60.9783V43.4065C15.0288 42.717 14.4697 42.1575 13.7803 42.1575C13.0903 42.1575 12.5312 42.717 12.5312 43.4065V60.9778C12.5312 61.6667 11.9707 62.2268 11.2822 62.2268C10.5938 62.2268 10.0332 61.6667 10.0332 60.9778V48.2742C10.0332 47.5842 9.47412 47.0251 8.78418 47.0251C8.09473 47.0251 7.53564 47.5842 7.53564 48.2742V60.9783C7.53564 63.0442 9.21631 64.7249 11.2822 64.7249C12.2412 64.7249 13.1167 64.3625 13.7803 63.7678C14.4434 64.3621 15.3188 64.7249 16.2778 64.7249C18.3438 64.7249 20.0249 63.0442 20.0249 60.9783V36.0496C22.4551 35.4822 24.271 33.2996 24.271 30.699ZM9.53369 7.46899C9.53369 5.12769 11.4385 3.2229 13.7803 3.2229C16.1216 3.2229 18.0264 5.12769 18.0264 7.46899V8.46802C18.0264 10.8098 16.1216 12.7146 13.7803 12.7146C11.4385 12.7146 9.53369 10.8098 9.53369 8.46802V7.46899ZM10.0332 31.8235V26.4529C10.0332 25.7634 9.47412 25.2039 8.78418 25.2039C8.09473 25.2039 7.53564 25.7634 7.53564 26.4529V33.4231C6.50488 32.9485 5.78711 31.9065 5.78711 30.699V21.9568C5.78711 18.238 8.8125 15.2126 12.5312 15.2126H15.0288C18.7476 15.2126 21.7734 18.238 21.7734 21.9568V30.699C21.7734 31.9065 21.0557 32.9485 20.0249 33.4231V26.4529C20.0249 25.7634 19.4653 25.2039 18.7759 25.2039C18.0859 25.2039 17.5269 25.7634 17.5269 26.4529V31.8235H10.0332Z" fill="black"/>
<path d="M8.78418 44.656C9.11279 44.656 9.43506 44.5222 9.66699 44.2898C9.89941 44.0579 10.0332 43.7356 10.0332 43.407C10.0332 43.0769 9.89941 42.7561 9.66699 42.5242C9.43506 42.2903 9.11279 42.158 8.78418 42.158C8.45459 42.158 8.13379 42.2903 7.90137 42.5242C7.66895 42.7561 7.53564 43.0774 7.53564 43.407C7.53564 43.7356 7.66895 44.0579 7.90137 44.2898C8.13379 44.5222 8.45605 44.656 8.78418 44.656Z" fill="black"/>
<path d="M35.873 36.426C36.5889 35.4719 37.0137 34.2874 37.0137 33.0056C37.0137 29.8567 34.4517 27.2947 31.3027 27.2947C28.1538 27.2947 25.5918 29.8567 25.5918 33.0056C25.5918 34.2908 26.0186 35.4778 26.7378 36.4333C23.5327 37.2244 21.1484 40.1223 21.1484 43.5681V46.3914C21.1484 48.8005 22.9731 50.7913 25.313 51.0554V61.0417C25.313 63.0422 26.9409 64.6702 28.9419 64.6702C30.9429 64.6702 32.5703 63.0422 32.5703 61.0417V61.0066C32.9268 61.1238 33.3066 61.1882 33.7012 61.1882C35.7021 61.1882 37.3301 59.5603 37.3301 57.5593V51.0554C39.6699 50.7913 41.4941 48.8005 41.4941 46.3914V43.5681C41.4941 40.1111 39.0942 37.2053 35.873 36.426ZM31.3027 29.7927C33.0742 29.7927 34.5156 31.2341 34.5156 33.0061C34.5156 34.7776 33.0742 36.219 31.3027 36.219C29.5308 36.219 28.0898 34.7776 28.0898 33.0061C28.0898 31.2341 29.5308 29.7927 31.3027 29.7927ZM38.9966 46.3914C38.9966 47.4197 38.2852 48.2825 37.3296 48.5208V43.6521C37.3296 42.9626 36.7705 42.4036 36.0811 42.4036C35.3911 42.4036 34.832 42.9626 34.832 43.6521V57.5593C34.832 58.1829 34.3247 58.6902 33.7012 58.6902C33.0776 58.6902 32.5703 58.1829 32.5703 57.5593V51.2517C32.5703 50.5623 32.0112 50.0027 31.3213 50.0027C30.6318 50.0027 30.0728 50.5623 30.0728 51.2517V61.0417C30.0728 61.6648 29.5654 62.1721 28.9419 62.1721C28.3184 62.1721 27.811 61.6648 27.811 61.0417V43.6526C27.811 42.9626 27.2515 42.4036 26.562 42.4036C25.8721 42.4036 25.313 42.9626 25.313 43.6526V48.5208C24.3574 48.283 23.6465 47.4197 23.6465 46.3918V43.5681C23.6465 40.8928 25.8228 38.7166 28.498 38.7166H34.1445C36.8198 38.7166 38.9961 40.8928 38.9961 43.5681V46.3914H38.9966Z" fill="black"/>
<path d="M58.7261 17.7307V10.7161C58.7261 5.89575 54.8042 1.97388 49.9834 1.97388C45.1631 1.97388 41.2412 5.89575 41.2412 10.7161V17.7576C39.418 19.3137 38.2593 21.6257 38.2593 24.2048V30.2932C38.2593 33.2371 40.4204 35.6848 43.2393 36.135V48.2742C43.2393 48.8782 43.6685 49.3821 44.2383 49.4978V61.1731C44.2383 63.1013 45.8071 64.6702 47.7354 64.6702C48.5908 64.6702 49.375 64.3611 49.9834 63.8489C50.5918 64.3611 51.376 64.6702 52.2314 64.6702C54.1597 64.6702 55.7285 63.1013 55.7285 61.1731V49.4978C56.2988 49.3821 56.7275 48.8782 56.7275 48.2742V46.1506C56.7275 45.4612 56.1685 44.9021 55.479 44.9021C54.7891 44.9021 54.23 45.4612 54.23 46.1506V47.0251H45.7373V25.4675C45.7373 24.7776 45.1777 24.2185 44.4883 24.2185C43.7983 24.2185 43.2393 24.7776 43.2393 25.4675V33.5808C41.8081 33.1721 40.7568 31.8538 40.7568 30.2932V24.2048C40.7568 20.908 43.4395 18.2253 46.7363 18.2253H53.2617C56.5591 18.2253 59.2412 20.908 59.2412 24.2048V30.2932C59.2412 31.865 58.1748 33.1917 56.7275 33.5896V25.4675C56.7275 24.7776 56.1685 24.2185 55.479 24.2185C54.7891 24.2185 54.23 24.7776 54.23 25.4675V36.8708C54.23 37.5603 54.7891 38.1194 55.479 38.1194C56.1685 38.1194 56.7275 37.5603 56.7275 36.8708V36.1409C59.562 35.7039 61.7393 33.2478 61.7393 30.2932V24.2048C61.7393 21.6111 60.5669 19.2869 58.7261 17.7307ZM53.231 61.1731C53.231 61.7239 52.7827 62.1721 52.2314 62.1721C51.6807 62.1721 51.2324 61.7239 51.2324 61.1731V49.5232H53.231V61.1731ZM48.7344 49.5232V61.1731C48.7344 61.7239 48.2861 62.1721 47.7354 62.1721C47.1846 62.1721 46.7363 61.7239 46.7363 61.1731V49.5232H48.7344ZM43.7388 10.7161C43.7388 7.27319 46.54 4.47144 49.9834 4.47144C53.4268 4.47144 56.228 7.27319 56.228 10.7161V16.2644C55.5659 16.0164 54.8652 15.8479 54.1367 15.7727C54.5142 15.0925 54.7295 14.3108 54.7295 13.4797V11.9348C54.7295 10.343 53.4341 9.0481 51.8423 9.0481H48.1245C46.5327 9.0481 45.2378 10.343 45.2378 11.9348V13.4797C45.2378 14.3123 45.4541 15.0955 45.832 15.7761C45.103 15.8542 44.4014 16.0251 43.7388 16.2766V10.7161ZM47.7354 13.4797V11.9348C47.7354 11.7205 47.9102 11.5457 48.1245 11.5457H51.8423C52.0571 11.5457 52.2314 11.7205 52.2314 11.9348V13.4797C52.2314 14.719 51.2231 15.7278 49.9834 15.7278C48.7441 15.7278 47.7354 14.719 47.7354 13.4797Z" fill="black"/>
<path d="M55.478 40.3435C55.1499 40.3435 54.8276 40.4768 54.5952 40.7092C54.3628 40.9417 54.2305 41.2639 54.2305 41.592C54.2305 41.9207 54.3628 42.2429 54.5952 42.4753C54.8276 42.7073 55.1499 42.8411 55.478 42.8411C55.8081 42.8411 56.1289 42.7078 56.3608 42.4753C56.5947 42.2429 56.7271 41.9216 56.7271 41.592C56.7271 41.2625 56.5947 40.9417 56.3608 40.7092C56.1289 40.4768 55.8081 40.3435 55.478 40.3435Z" fill="black"/>
</g>
<defs>
<clipPath id="clip0">
<rect width="64" height="64" fill="white" transform="translate(0.539062 0.724854)"/>
</clipPath>
</defs>
</svg>
