<svg width="281" height="280" viewBox="0 0 281 280" fill="none" xmlns="http://www.w3.org/2000/svg">
<g opacity="0.2" clip-path="url(#clip0_3703_2838)">
<path d="M198.602 167.141C201.949 165.969 203.712 162.306 202.54 158.96C201.369 155.613 197.706 153.849 194.359 155.021L116.919 182.128C113.572 183.299 111.809 186.962 112.981 190.309C114.152 193.656 117.815 195.419 121.162 194.248L121.288 194.203C124.705 193.007 128.445 194.808 129.641 198.224L130.523 200.744C131.719 204.161 129.919 207.901 126.502 209.097L126.375 209.141C123.028 210.313 121.265 213.975 122.436 217.322C123.608 220.669 127.271 222.432 130.617 221.261L208.057 194.154C211.404 192.982 213.168 189.32 211.996 185.973C210.825 182.626 207.162 180.863 203.815 182.034L203.492 182.147C199.967 183.381 196.11 181.524 194.876 177.999L194.131 175.87C192.897 172.345 194.754 168.487 198.279 167.254L198.602 167.141ZM182.383 181.176C183.823 185.289 181.656 189.79 177.543 191.23L152.255 200.082C148.142 201.521 143.641 199.354 142.201 195.242C140.762 191.129 142.929 186.628 147.042 185.188L172.33 176.336C176.443 174.897 180.944 177.064 182.383 181.176Z" fill="url(#paint0_linear_3703_2838)"/>
<path d="M127.457 110.703C117.927 114.039 111.496 101.006 119.941 95.4725L193.305 47.4015C197.257 44.8119 198.361 39.5088 195.772 35.5567L183.735 17.1874C181.145 13.2354 175.842 12.131 171.89 14.7205L37.5923 102.719C33.6403 105.308 32.5358 110.611 35.1253 114.563L50.1573 137.505C50.5381 138.086 50.8467 138.711 51.0762 139.367L94.2448 262.693C95.8058 267.152 100.686 269.502 105.146 267.941L256.691 214.895C261.15 213.334 263.5 208.453 261.939 203.994L220.995 87.0251C219.434 82.5656 214.554 80.2158 210.094 81.7768L127.457 110.703ZM169.778 33.131C169.98 31.9314 170.673 30.8703 171.691 30.2036C173.708 28.8817 176.415 29.4454 177.736 31.4626L179.57 34.2608C181.289 36.8835 180.556 40.4029 177.933 42.1215C173.79 44.8362 168.4 41.3146 169.222 36.43L169.778 33.131ZM139.103 54.1233C139.412 52.284 140.475 50.6573 142.035 49.635L142.644 49.2364C147.529 46.0352 153.884 50.1878 152.915 55.9476C152.605 57.7869 151.542 59.4136 149.982 60.4358L149.374 60.8345C144.488 64.0357 138.133 59.8831 139.103 54.1233ZM108.596 74.1125C108.906 72.2731 109.969 70.6463 111.529 69.624L112.137 69.2255C117.023 66.0242 123.378 70.1769 122.409 75.9368C122.099 77.7762 121.036 79.4031 119.476 80.4253L118.868 80.8238C113.982 84.0249 107.627 79.8723 108.596 74.1125ZM78.0904 94.1016C78.4001 92.2623 79.463 90.6356 81.0231 89.6134L81.6314 89.2147C86.5169 86.0135 92.8723 90.1661 91.9026 95.9259C91.593 97.7652 90.5301 99.3919 88.97 100.414L88.3616 100.813C83.4762 104.014 77.1208 99.8614 78.0904 94.1016ZM51.3486 115.892C49.6182 113.251 50.3562 109.708 52.9971 107.977C57.1688 105.244 62.5959 108.79 61.7678 113.708L61.234 116.879C61.0278 118.104 60.3201 119.187 59.2815 119.867C57.2226 121.216 54.4601 120.641 53.1111 118.582L51.3486 115.892ZM168.779 112.118C169.522 110.407 170.946 109.085 172.706 108.468L173.392 108.228C178.905 106.299 184.073 111.86 181.744 117.217C181 118.928 179.576 120.25 177.816 120.866L177.13 121.106C171.617 123.036 166.45 117.474 168.779 112.118ZM134.355 124.168C135.099 122.457 136.523 121.134 138.283 120.518L138.969 120.278C144.482 118.348 149.649 123.91 147.32 129.267C146.577 130.977 145.153 132.3 143.393 132.916L142.707 133.156C137.194 135.086 132.026 129.524 134.355 124.168ZM99.9312 136.217C100.675 134.506 102.099 133.184 103.859 132.567L104.545 132.327C110.058 130.398 115.225 135.96 112.896 141.316C112.153 143.027 110.729 144.349 108.969 144.966L108.283 145.206C102.77 147.135 97.6022 141.574 99.9312 136.217ZM68.7264 150.923C67.6832 147.943 69.2535 144.681 72.2337 143.638C76.9414 141.99 81.3543 146.74 79.3655 151.314L78.0832 154.263C77.5881 155.402 76.6403 156.282 75.4683 156.692C73.1449 157.506 70.6021 156.282 69.7889 153.958L68.7264 150.923ZM248.403 204.191L113.024 251.579C108.564 253.14 103.684 250.79 102.123 246.33L78.3301 178.359C76.7691 173.9 79.1189 169.019 83.5784 167.458L210.883 122.896C215.343 121.335 220.224 123.685 221.785 128.145L248.403 204.19C248.403 204.191 248.403 204.191 248.403 204.191ZM212.84 102.591C213.876 105.551 212.316 108.79 209.357 109.826C204.682 111.462 200.299 106.746 202.274 102.203L203.609 99.135C204.094 98.0193 205.022 97.1566 206.17 96.7547C208.447 95.9579 210.938 97.1572 211.734 99.4334L212.84 102.591Z" fill="url(#paint1_linear_3703_2838)"/>
</g>
<defs>
<linearGradient id="paint0_linear_3703_2838" x1="155.639" y1="168.574" x2="169.337" y2="207.707" gradientUnits="userSpaceOnUse">
<stop stop-color="#C9E7DA"/>
<stop offset="0.505208" stop-color="#73887F"/>
<stop offset="1" stop-color="#94BDAB"/>
</linearGradient>
<linearGradient id="paint1_linear_3703_2838" x1="104.35" y1="36.1781" x2="176.708" y2="242.892" gradientUnits="userSpaceOnUse">
<stop stop-color="#C9E7DA"/>
<stop offset="0.505208" stop-color="#73887F"/>
<stop offset="1" stop-color="#94BDAB"/>
</linearGradient>
<clipPath id="clip0_3703_2838">
<rect width="219.012" height="219.012" fill="white" transform="translate(0.992188 72.3577) rotate(-19.292)"/>
</clipPath>
</defs>
</svg>
