<svg width="64" height="65" viewBox="0 0 64 65" fill="none" xmlns="http://www.w3.org/2000/svg">
<g clip-path="url(#clip0)">
<path d="M62.7872 52.4081C60.5357 48.4597 56.4092 47.7206 55.604 47.6129C55.5571 47.6065 55.5101 47.6033 55.4621 47.6033H44.1716L43.7247 47.1564C44.2996 46.9559 44.8499 46.6935 45.3598 46.3757C45.8834 46.0493 46.3282 45.6824 46.7217 45.3016L50.9026 46.4962L51.4882 44.4452L48.1435 43.4896C48.585 42.7355 48.8623 42.0263 49.017 41.5122C49.0468 41.4119 49.0628 41.3085 49.0628 41.2039V39.0122L51.6161 37.9179L50.7768 35.9576L49.0628 36.6924V35.8712C49.0628 35.6782 49.0106 35.4883 48.9103 35.3219L45.7107 29.9892C45.5421 29.7076 45.252 29.5199 44.9267 29.4794C44.6057 29.4442 44.2761 29.5508 44.0426 29.7844L41.1554 32.6715H40.5304V19.2479L42.0385 17.7398H43.4069L46.3378 19.6937C46.8284 20.0212 47.4897 19.8879 47.8171 19.3983L49.9502 16.1987C50.1891 15.8403 50.1891 15.3742 49.9502 15.0159L45.684 8.61655C45.4856 8.31898 45.1528 8.14087 44.7966 8.14087H41.597C41.1927 8.14087 40.8237 8.36911 40.6424 8.73067L38.8047 12.4071H27.3244L25.4856 8.73067C25.3054 8.36911 24.9364 8.14087 24.5321 8.14087H20.2659C19.9214 8.14087 19.5983 8.30725 19.3988 8.58775L14.0661 16.0536C13.7632 16.477 13.8112 17.0583 14.1791 17.4273L16.3122 19.5604C16.6717 19.9209 17.2348 19.9743 17.6582 19.6937L20.5891 17.7398H23.024L23.4656 18.1814V29.7748C20.6499 30.7976 12.9622 34.3066 9.66975 42.9584C7.72756 48.0629 8.15845 52.8283 8.8741 55.9501L6.40077 54.4655V50.8029C6.40077 49.5828 5.72245 48.4864 4.63243 47.9414C3.54028 47.3953 2.25615 47.5126 1.28026 48.2443C0.47928 48.8458 0.00146484 49.8025 0.00146484 50.8029V58.2688C0.00146484 58.6367 0.191311 58.978 0.502744 59.1732L9.03515 64.506C9.20474 64.6116 9.39991 64.6681 9.60043 64.6681H30.9314H35.1977H57.5952C57.7605 64.6681 57.9248 64.6297 58.072 64.5561L62.3382 62.423C62.5312 62.327 62.6891 62.1745 62.7936 61.9868C62.9045 61.7884 65.4557 57.0828 62.7872 52.4081ZM34.1322 53.9962L27.8161 53.9759L27.8097 56.109L34.1311 56.1293V62.535H31.998C31.998 60.1822 30.0846 58.2688 27.7318 58.2688H25.5987C25.5987 52.9765 21.293 48.6698 15.9997 48.6698H14.9332V50.8029H15.9997C20.1156 50.8029 23.4656 54.1519 23.4656 58.2688V59.3353C23.4656 59.9241 23.9423 60.4019 24.5321 60.4019H27.7318C28.9082 60.4019 29.8649 61.3586 29.8649 62.535H9.90653L2.13457 57.6779V50.8029C2.13457 50.4691 2.29348 50.1502 2.56012 49.9497C2.89075 49.7022 3.30777 49.6638 3.67787 49.8494C4.04689 50.0339 4.26767 50.3902 4.26767 50.8029V55.0691C4.26767 55.4435 4.46498 55.7912 4.78495 55.9832L10.1177 59.1828C10.5049 59.4153 10.9976 59.3791 11.3464 59.09C11.6941 58.801 11.8231 58.3253 11.6674 57.9008C10.8696 55.7293 9.27193 49.9998 11.6631 43.7157C11.8199 43.3029 11.998 42.9147 12.1761 42.5275L12.1783 42.5286C15.7694 34.7247 23.3621 32.0188 24.8489 31.5559C25.2958 31.4183 25.5987 31.0056 25.5987 30.5384V17.7398C25.5987 17.4572 25.4867 17.1852 25.2862 16.9858L24.2196 15.9192C24.0202 15.7187 23.7493 15.6067 23.4656 15.6067H20.2659C20.0558 15.6067 19.8489 15.6697 19.674 15.7859L17.2017 17.4337L16.3261 16.5581L20.8152 10.274H23.873L25.7117 13.9504C25.892 14.3119 26.261 14.5402 26.6652 14.5402H39.4639C39.8681 14.5402 40.2371 14.3119 40.4184 13.9504L42.2561 10.274H44.226L47.7808 15.6067L46.6343 17.3271L44.322 15.7859C44.1471 15.6697 43.9402 15.6067 43.7301 15.6067H41.597C41.3133 15.6067 41.0424 15.7187 40.8429 15.9192L38.7098 18.0523C38.5093 18.2518 38.3973 18.5237 38.3973 18.8064V32.6715H35.6392L32.7521 29.7844C32.5195 29.5508 32.1921 29.441 31.8679 29.4794C31.5415 29.5199 31.2525 29.7076 31.084 29.9892L27.8843 35.3219C27.7841 35.4883 27.7318 35.6782 27.7318 35.8712V36.6924L26.0189 35.9587L25.1795 37.919L27.7318 39.0122V40.6941V41.2039C27.7318 41.3085 27.7478 41.4119 27.7777 41.5122C27.9739 42.1649 28.3611 43.1269 29.049 44.1039L25.2243 45.5384L25.9741 47.5361L30.6179 45.7944C30.8696 45.997 31.1416 46.1922 31.4359 46.3757C32.254 46.8855 33.1712 47.2502 34.1322 47.4529V53.9962ZM61.0637 60.6749L57.3435 62.535H47.6976L46.9297 60.2291V57.5254L48.2949 55.4776C48.4645 55.2216 48.7503 55.0691 49.0564 55.0691C49.5172 55.0691 49.7539 55.3731 49.8339 55.5032C49.915 55.6344 50.0803 55.9821 49.8745 56.3927L49.1748 57.792C48.97 58.2026 49.05 58.6986 49.3753 59.0228L50.4419 60.0894C50.6413 60.2899 50.9122 60.4019 51.1959 60.4019H56.5287V58.2688H51.6375L51.4274 58.0587L51.7836 57.3473C52.2593 56.3959 52.2081 55.2867 51.6492 54.3823C51.0903 53.4778 50.1198 52.936 49.0564 52.936C48.0357 52.936 47.0876 53.4437 46.5202 54.2927L44.9758 56.6103C44.8595 56.7863 44.7966 56.9921 44.7966 57.2022V60.4019C44.7966 60.516 44.8158 60.6301 44.8521 60.7389L45.4504 62.535H41.597V55.0691H39.4639V62.535H36.2642V55.0659V46.5367C36.2642 45.9864 35.8451 45.5256 35.2968 45.4744C34.5161 45.4019 33.7834 45.1929 33.1061 44.8601L34.5065 44.3353L33.7567 42.3377L31.133 43.3221C30.4408 42.5051 30.0601 41.6412 29.8649 41.0408V40.6931V39.9252L32.6443 41.1165L33.4837 39.1562L29.8649 37.6065V36.1666L32.2092 32.2588L34.4436 34.4921C34.6431 34.6927 34.914 34.8046 35.1977 34.8046H39.4639H41.597C41.8807 34.8046 42.1516 34.6927 42.351 34.4921L44.5854 32.2588L46.9297 36.1666V37.6065L43.3098 39.1572L44.1492 41.1176L46.9297 39.9262V41.0408C46.7697 41.5324 46.4828 42.2022 46.0061 42.8784L44.0234 42.3121L43.4378 44.3631L44.2036 44.5817C43.3898 45.0819 42.4811 45.3838 41.4988 45.4755C41.0872 45.5139 40.7341 45.7869 40.5944 46.1752C40.4536 46.5644 40.5507 46.9985 40.8429 47.2908L42.976 49.4239C43.1755 49.6244 43.4464 49.7364 43.7301 49.7364H55.3864C55.9965 49.8292 59.2207 50.4574 60.9357 53.465C62.6912 56.542 61.4913 59.7342 61.0637 60.6749Z" fill="black"/>
<path d="M63.009 14.7439C61.0882 9.4058 54.8531 1.26482 45.5421 0.718744C39.2132 0.337985 34.3956 5.27185 32.0908 7.63959C32.046 7.68546 32.0012 7.73132 31.9585 7.77505C31.8988 7.71425 31.838 7.65026 31.7729 7.58307C29.5033 5.22599 24.7444 0.311322 18.4549 0.693147C9.14393 1.23922 2.90887 9.37914 0.988015 14.7183C-1.57704 21.8535 0.906957 30.9704 7.80434 39.731L9.48203 38.4117C3.04859 30.2419 0.684048 21.8685 2.99633 15.4393C4.72414 10.6334 10.3011 3.30726 18.5797 2.82198C23.9231 2.52228 28.1883 6.93567 30.2371 9.06344C30.6285 9.46873 30.9453 9.79616 31.1799 10.0041C31.309 10.1193 31.4658 10.2015 31.6332 10.243L31.7431 10.2697C32.0833 10.354 32.4459 10.2654 32.7083 10.0308C32.9355 9.82922 33.2416 9.51566 33.6202 9.12637C35.7032 6.98687 40.0515 2.54468 45.4173 2.84758C53.697 3.33393 59.2729 10.6601 61.0007 15.4659C63.6298 22.774 60.2104 32.5233 51.855 41.5452L53.4197 42.9947C62.3275 33.3765 65.9122 22.8155 63.009 14.7439Z" fill="black"/>
<path d="M29.8645 18.8064H27.7314V20.9395H29.8645V18.8064Z" fill="black"/>
<path d="M36.2645 18.8064H34.1313V20.9395H36.2645V18.8064Z" fill="black"/>
<path d="M34.131 23.0725H29.8647V25.2056H34.131V23.0725Z" fill="black"/>
<path d="M36.2645 36.9377H34.1313V39.0708H36.2645V36.9377Z" fill="black"/>
<path d="M42.6639 36.9377H40.5308V39.0708H42.6639V36.9377Z" fill="black"/>
<path d="M39.4642 40.1375H37.3311V42.2706H39.4642V40.1375Z" fill="black"/>
</g>
<defs>
<clipPath id="clip0">
<rect width="64" height="64" fill="white" transform="translate(0 0.670166)"/>
</clipPath>
</defs>
</svg>
