<svg width="229" height="180" viewBox="0 0 229 180" fill="none" xmlns="http://www.w3.org/2000/svg">
<path opacity="0.5" fill-rule="evenodd" clip-rule="evenodd" d="M74.1431 10.02C80.8272 2.91665 90.5474 -0.493777 100.205 0.876099L190.373 13.6668C201.467 15.2404 210.759 22.8647 214.468 33.4373L227.742 71.2705C229.19 75.3968 227.019 79.9155 222.892 81.3632C218.766 82.8109 214.248 80.6395 212.8 76.5133L210.058 68.6996C205.969 57.0451 190.865 54.071 182.662 63.3052L139.832 111.526C132.949 119.275 122.553 122.922 112.337 121.172L10.4316 103.717C6.32501 103.013 2.92262 100.139 1.54325 96.2073C0.124728 92.1643 1.07741 87.6678 4.01364 84.5474L74.1431 10.02ZM170.887 52.7172L182.917 39.1734C186.487 35.1539 184.146 28.7775 178.823 28.0225L106.11 17.708C96.453 16.3381 86.7328 19.7485 80.0487 26.8518L29.72 80.3367C26.0359 84.2519 28.1923 90.693 33.4911 91.6008L51.3461 94.6591L106.339 104.081C116.556 105.831 126.953 102.184 133.836 94.4337L170.887 52.7172ZM142.044 161.462C157.36 155.762 183.058 120.663 184.022 113.694C184.556 109.831 181.087 102.368 177.922 95.5581C175.378 90.0837 173.03 85.0318 173.116 82.6125C173.31 77.184 182.144 67.2373 185.146 69.0683C188.149 70.8993 203.979 112.282 202.03 117.19C200.081 122.098 163.041 173.482 148.059 178.606C133.078 183.729 73.1183 169.79 67.547 164.375C61.9758 158.959 47.804 118.567 50.6631 116.253C53.5222 113.939 65.6916 116.487 68.5184 119.312C69.7665 120.559 71.1277 125.772 72.661 131.643C74.6002 139.069 76.8146 147.548 79.4236 150.393C84.0955 155.488 126.728 167.161 142.044 161.462Z" fill="url(#paint0_linear_3703_2705)"/>
<defs>
<linearGradient id="paint0_linear_3703_2705" x1="84.7859" y1="-1.35772" x2="128.759" y2="123.971" gradientUnits="userSpaceOnUse">
<stop stop-color="#F3F8FF"/>
<stop offset="0.489583" stop-color="#8CA7D0"/>
<stop offset="1" stop-color="#EDF4FF"/>
</linearGradient>
</defs>
</svg>
