<svg width="64" height="64" viewBox="0 0 64 64" fill="none" xmlns="http://www.w3.org/2000/svg">
<path d="M64 48V18.1333C63.9965 15.1893 61.6107 12.8035 58.6667 12.8H46.9333V0H44.8V24.5333C44.8 25.1224 45.2776 25.6 45.8667 25.6H49.4827L32 36.0896L14.5173 25.6H18.1333C18.7224 25.6 19.2 25.1224 19.2 24.5333V0H17.0667V12.8H5.33333C2.38933 12.8035 0.00346667 15.1893 0 18.1333V48C0.00346667 50.944 2.38933 53.3299 5.33333 53.3333H22.8075L20.6741 57.6H1.06667C0.4776 57.6 0 58.0776 0 58.6667C0 64 5.62027 64 7.46667 64H56.5333C58.3797 64 64 64 64 58.6667C64 58.0776 63.5224 57.6 62.9333 57.6H43.3259L41.1925 53.3333H58.6667C61.6107 53.3299 63.9965 50.944 64 48ZM17.0667 23.4667H10.6667C10.0776 23.4668 9.60013 23.9445 9.6004 24.5337C9.60053 24.908 9.79667 25.2547 10.1175 25.4476L31.4508 38.2476C31.7888 38.4507 32.2115 38.4507 32.5495 38.2476L53.8828 25.4476C54.3876 25.144 54.5508 24.4887 54.2473 23.9837C54.0545 23.6631 53.7077 23.4668 53.3335 23.4667H46.9335V19.2H57.6001V44.8H6.4V19.2H17.0667V23.4667ZM61.7376 59.7333C61.3653 61.0464 60.0779 61.8667 56.5333 61.8667H7.46667C3.92213 61.8667 2.63467 61.0464 2.2624 59.7333H61.7376ZM23.0592 57.6L25.1925 53.3333H38.8075L40.9408 57.6H23.0592ZM5.33333 51.2C3.566 51.2 2.13333 49.7673 2.13333 48V18.1333C2.13333 16.366 3.566 14.9333 5.33333 14.9333H17.0667V17.0667H5.33333C4.74427 17.0667 4.26667 17.5443 4.26667 18.1333V45.8667C4.26667 46.4557 4.74427 46.9333 5.33333 46.9333H58.6667C59.2557 46.9333 59.7333 46.4557 59.7333 45.8667V18.1333C59.7333 17.5443 59.2557 17.0667 58.6667 17.0667H46.9333V14.9333H58.6667C60.434 14.9333 61.8667 16.366 61.8667 18.1333V48C61.8667 49.7673 60.434 51.2 58.6667 51.2H5.33333Z" fill="black"/>
<path d="M36.6538 16.049C38.3179 14.7397 39.3418 12.7805 39.4666 10.6666C39.4666 3.61383 35.4058 2.1333 31.9999 2.1333C28.594 2.1333 24.5332 3.61383 24.5332 10.6666C24.6571 12.7816 25.6811 14.7421 27.346 16.0522C24.5186 16.4006 22.3958 18.8044 22.3999 21.6533V25.6H24.5332V21.6533C24.5332 19.7093 26.1092 18.1333 28.0532 18.1333H35.9466C37.8906 18.1333 39.4666 19.7093 39.4666 21.6533V25.6H41.5999V21.6533C41.6057 18.8032 39.4825 16.3976 36.6538 16.049ZM26.722 9.53703C27.0111 5.96263 28.6932 4.26663 31.9999 4.26663C35.0271 4.26663 36.6933 5.6981 37.1701 8.68477L33.6159 6.55143C33.1107 6.24837 32.4555 6.41223 32.1524 6.91743C32.1124 6.9841 32.0799 7.05477 32.0554 7.1285C31.5156 8.7477 28.6015 9.35997 26.722 9.53703ZM31.9999 16C29.6208 15.5948 27.6418 13.945 26.8148 11.6778V11.6746C28.641 11.5242 31.9348 10.9717 33.4708 8.95037L37.2831 11.2373C36.8554 13.8528 33.6372 16 31.9999 16Z" fill="black"/>
<path d="M53.3336 38.3999V36.2666H51.2002V38.3999H49.0669V40.5333H51.2002V42.6666H53.3336V40.5333H55.4669V38.3999H53.3336Z" fill="black"/>
</svg>
