<svg width="81" height="81" viewBox="0 0 81 81" fill="none" xmlns="http://www.w3.org/2000/svg">
<g clip-path="url(#clip0)">
<path d="M65.6602 32.531H35.8585C37.2365 30.9469 38.0739 28.8806 38.0739 26.621C38.0739 21.6487 34.0287 17.6035 29.0563 17.6035C24.084 17.6035 20.0388 21.6487 20.0388 26.621C20.0388 28.8806 20.8761 30.9469 22.254 32.531H15.1401C10.8412 32.531 7.34375 36.0284 7.34375 40.3273V49.5268C7.34375 50.388 8.04183 51.086 8.90301 51.086C9.76419 51.086 10.4623 50.388 10.4623 49.5268V40.3273C10.4623 37.748 12.5607 35.6495 15.1401 35.6495H58.7994C61.3788 35.6495 63.4772 37.748 63.4772 40.3273V48.7473H47.2609C42.962 48.7473 39.4646 52.2447 39.4646 56.5436C39.4646 60.8425 42.962 64.3399 47.2609 64.3399H63.4772V72.76C63.4772 75.3393 61.3788 77.4378 58.7994 77.4378H15.1401C12.5607 77.4378 10.4623 75.3393 10.4623 72.76V63.5481C10.4623 62.687 9.76419 61.9889 8.90301 61.9889C8.04183 61.9889 7.34375 62.687 7.34375 63.5481V72.76C7.34375 77.0589 10.8412 80.5563 15.1401 80.5563H65.6602C69.9591 80.5563 73.4565 77.0589 73.4565 72.76V40.3273C73.4565 36.0284 69.9591 32.531 65.6602 32.531ZM29.0563 20.7222C32.3091 20.7222 34.9553 23.3684 34.9553 26.6212C34.9553 29.874 32.3091 32.5202 29.0563 32.5202C25.8037 32.5202 23.1573 29.874 23.1573 26.6212C23.1573 23.3684 25.8036 20.7222 29.0563 20.7222ZM65.0323 35.6495H65.6602C68.2395 35.6495 70.338 37.748 70.338 40.3273V48.7473H66.5957V40.3273C66.5957 38.5736 66.0133 36.9535 65.0323 35.6495ZM42.5831 56.5436C42.5831 53.9643 44.6815 51.8658 47.2609 51.8658H70.338V61.2214H47.2609C44.6815 61.2214 42.5831 59.123 42.5831 56.5436ZM65.6602 77.4378H65.0323C66.0133 76.1337 66.5957 74.5138 66.5957 72.76V64.3399H70.338V72.76C70.338 75.3393 68.2395 77.4378 65.6602 77.4378Z" fill="#0A1124"/>
<path d="M46.862 54.9844C46.4504 54.9844 46.0481 55.1512 45.758 55.4412C45.468 55.7313 45.3027 56.1336 45.3027 56.5436C45.3027 56.9537 45.468 57.356 45.758 57.646C46.0496 57.9361 46.4504 58.1029 46.862 58.1029C47.2721 58.1029 47.6728 57.9361 47.9644 57.646C48.2544 57.356 48.4213 56.9537 48.4213 56.5436C48.4213 56.1336 48.2544 55.7313 47.9644 55.4412C47.6744 55.1511 47.2721 54.9844 46.862 54.9844Z" fill="#0A1124"/>
<path d="M51.7441 22.0211C56.7164 22.0211 60.7616 17.9759 60.7616 13.0036C60.7616 8.03144 56.7164 3.98608 51.7441 3.98608C46.7718 3.98608 42.7266 8.03128 42.7266 13.0036C42.7266 17.9759 46.7718 22.0211 51.7441 22.0211ZM51.7441 7.10477C54.9967 7.10477 57.6431 9.75099 57.6431 13.0038C57.6431 16.2565 54.9969 18.9028 51.7441 18.9028C48.4913 18.9028 45.8451 16.2565 45.8451 13.0038C45.8451 9.75099 48.4913 7.10477 51.7441 7.10477Z" fill="#0A1124"/>
<path d="M36.5143 15.9278C37.3755 15.9278 38.0736 15.2297 38.0736 14.3685V2.11566C38.0736 1.25448 37.3755 0.556396 36.5143 0.556396C35.6532 0.556396 34.9551 1.25448 34.9551 2.11566V14.3685C34.9551 15.2297 35.6532 15.9278 36.5143 15.9278Z" fill="#0A1124"/>
<path d="M29.03 10.5357C29.8912 10.5357 30.5892 9.8376 30.5892 8.97642V2.11566C30.5892 1.25448 29.8912 0.556396 29.03 0.556396C28.1688 0.556396 27.4707 1.25448 27.4707 2.11566V8.97642C27.4707 9.8376 28.1688 10.5357 29.03 10.5357Z" fill="#0A1124"/>
<path d="M8.90301 58.1029C9.3131 58.1029 9.71539 57.9361 10.0054 57.646C10.2954 57.356 10.4623 56.9537 10.4623 56.5436C10.4623 56.1336 10.2954 55.7313 10.0054 55.4412C9.71539 55.1512 9.31466 54.9844 8.90301 54.9844C8.49293 54.9844 8.09064 55.1512 7.80061 55.4412C7.51059 55.7313 7.34375 56.1336 7.34375 56.5436C7.34375 56.9537 7.51059 57.356 7.80061 57.646C8.09064 57.9361 8.49277 58.1029 8.90301 58.1029Z" fill="#0A1124"/>
</g>
<defs>
<clipPath id="clip0">
<rect width="80" height="80" fill="white" transform="translate(0.400391 0.556396)"/>
</clipPath>
</defs>
</svg>
