<svg width="81" height="81" viewBox="0 0 81 81" fill="none" xmlns="http://www.w3.org/2000/svg">
<g clip-path="url(#clip0)">
<path d="M60.5305 20.6608C59.9197 20.0516 58.931 20.0516 58.3202 20.6608C57.711 21.2716 57.711 22.2603 58.3202 22.8711C58.931 23.4803 59.9197 23.4803 60.5305 22.8711C61.1397 22.2603 61.1397 21.2716 60.5305 20.6608Z" fill="#0A1124"/>
<path d="M14.1395 67.0535C13.5303 66.4428 12.5401 66.4428 11.9307 67.0535C11.32 67.6628 11.32 68.6531 11.9307 69.2623C12.54 69.8731 13.5303 69.8731 14.1395 69.2623C14.7503 68.6532 14.7503 67.6628 14.1395 67.0535Z" fill="#0A1124"/>
<path d="M79.1378 2.05405C78.2524 1.1689 77.0757 0.681396 75.8244 0.681396C74.5732 0.681396 73.3966 1.1689 72.5111 2.05421L64.9491 9.61499L62.7404 7.40624C62.1302 6.7964 61.1414 6.7964 60.5311 7.40624L54.4116 13.5258L28.225 25.9301L22.9664 20.6716C22.3563 20.0617 21.3675 20.0617 20.7572 20.6716C20.1472 21.2816 20.1472 22.2706 20.7572 22.8808L25.2271 27.3506L18.9093 30.3433C17.0235 31.2367 15.5983 32.8106 14.8966 34.7753C14.3733 36.2403 14.2994 37.7917 14.6657 39.268L10.2239 41.3717C9.44425 41.7409 9.11159 42.6725 9.48066 43.4522C9.74784 44.0159 10.3086 44.3461 10.8936 44.3461C11.1178 44.3461 11.3453 44.2976 11.5611 44.1955L17.2738 41.4898L32.2655 34.3897L38.4297 40.5539L36.2207 42.763C35.6105 43.3728 35.6102 44.3619 36.22 44.9722C36.5252 45.2775 36.925 45.43 37.3249 45.43C37.7246 45.43 38.1243 45.2775 38.4291 44.9728L40.6388 42.7631L46.8275 48.9519L39.73 63.9353C39.7288 63.9378 39.7274 63.94 39.7263 63.9425C39.7252 63.945 39.7244 63.9475 39.7232 63.95L37.0205 69.6553C36.6513 70.435 36.9839 71.3664 37.7636 71.7356C37.9796 71.838 38.2071 71.8864 38.4311 71.8864C39.016 71.8864 39.5769 71.5565 39.8439 70.9925L41.9497 66.5475C42.5638 66.6986 43.185 66.7747 43.8018 66.7747C46.7283 66.7747 49.5402 65.1234 50.8741 62.3073L53.8661 55.9905L58.3114 60.4358C58.6166 60.7406 59.0163 60.8933 59.416 60.8933C59.8157 60.8933 60.2155 60.7406 60.5205 60.4358C61.1305 59.8258 61.1305 58.8367 60.5205 58.2266L55.2863 52.9922L67.7335 26.7142L73.7861 20.6616C74.3961 20.0516 74.3961 19.0625 73.7861 18.4523L71.5774 16.2436L79.138 8.68171C80.9649 6.85421 80.9649 3.8814 79.1378 2.05405ZM17.5883 37.8834C17.5168 37.1961 17.5992 36.4959 17.8386 35.8259C18.2597 34.647 19.115 33.7025 20.2466 33.1664L27.5727 29.6961L29.9196 32.043L17.5883 37.8834ZM30.571 28.2759L50.5225 18.8248C50.1358 19.9948 49.9827 21.2395 50.0814 22.4923L32.9182 30.623L30.571 28.2759ZM42.8482 40.5533L45.0578 38.3436C45.6677 37.7334 45.6674 36.7444 45.0572 36.1344C44.4469 35.5247 43.4582 35.525 42.848 36.135L40.6389 38.3441L35.2638 32.9689L50.8635 25.5791C51.3274 26.6209 51.9802 27.5745 52.7993 28.3933C53.6268 29.2206 54.5904 29.8778 55.643 30.342L48.2482 45.953L42.8482 40.5533ZM48.0507 60.9689C47.5146 62.1005 46.5699 62.9558 45.3903 63.3769C44.7203 63.6161 44.02 63.6984 43.3325 63.6273L49.1736 51.2973L51.5202 53.6439L48.0507 60.9689ZM52.9407 50.6458L50.5941 48.2992L58.7357 31.1108C58.97 31.1283 59.2043 31.1401 59.4377 31.1401C60.4552 31.1401 61.4583 30.972 62.4114 30.6517L52.9407 50.6458ZM63.8446 26.1842C62.3458 27.683 60.2114 28.3166 58.1335 27.8795C56.9503 27.6317 55.8696 27.0455 55.008 26.1844C54.1963 25.3723 53.6316 24.3628 53.3611 23.2572C53.3496 23.1348 53.3244 23.0125 53.2825 22.8923C52.9125 20.8678 53.548 18.8083 55.0082 17.348L61.636 10.7201L70.4724 19.5566L63.8446 26.1842ZM76.9286 6.47202L69.368 14.0339L67.1583 11.8241L74.7202 4.26358C75.0157 3.96812 75.4077 3.80562 75.8244 3.80562C76.2413 3.80562 76.6336 3.96827 76.9286 4.26327C77.5375 4.87218 77.5375 5.86312 76.9286 6.47202Z" fill="#0A1124"/>
<path d="M14.1396 14.0338C13.5295 13.424 12.5407 13.424 11.9304 14.0338C5.5701 20.3943 1.58182 28.831 0.699633 37.7899C-0.170055 46.6244 1.99823 55.5577 6.8051 62.9443C7.10463 63.4043 7.6051 63.6546 8.11604 63.6546C8.40807 63.6546 8.70354 63.5729 8.96651 63.4016C9.68963 62.931 9.89432 61.9633 9.42385 61.2402C0.222758 47.101 2.20604 28.1769 14.1396 16.2432C14.7496 15.6332 14.7496 14.644 14.1396 14.0338Z" fill="#0A1124"/>
<path d="M67.1597 67.0533C66.5495 66.4435 65.5608 66.4435 64.9506 67.0535C53.0167 78.9874 34.0929 80.9706 19.9534 71.7692C19.2301 71.2985 18.2628 71.5035 17.792 72.2266C17.3215 72.9497 17.5262 73.9172 18.2494 74.3878C24.569 78.5005 32.0194 80.6814 39.5726 80.6814C40.8481 80.6814 42.1275 80.6191 43.4039 80.4935C52.3626 79.6114 60.7993 75.623 67.1597 69.2625C67.7697 68.6527 67.7697 67.6635 67.1597 67.0533Z" fill="#0A1124"/>
</g>
<defs>
<clipPath id="clip0">
<rect width="80" height="80" fill="white" transform="translate(0.509766 0.681396)"/>
</clipPath>
</defs>
</svg>
