<svg width="73" height="73" viewBox="0 0 73 73" fill="none" xmlns="http://www.w3.org/2000/svg">
<g clip-path="url(#clip0)">
<path d="M72.8027 43.1826C72.6421 42.9122 72.3955 42.7017 72.101 42.5841L66.8654 40.4704L72.2879 37.321C72.9735 36.9252 73.204 36.0563 72.8027 35.3801C72.6421 35.1097 72.3955 34.8992 72.101 34.7817L66.8654 32.6679L72.2879 29.5186C72.7615 29.2375 73.0299 28.7137 72.9783 28.1709C72.9368 27.6348 72.5914 27.1677 72.0866 26.965L51.4753 18.6377L41.3207 14.3818C41.1558 14.3174 40.9801 14.2839 40.8029 14.2825L24.262 7.6433C23.8559 7.47696 23.3949 7.50321 23.0107 7.71423L0.846011 19.9996C0.136554 20.3519 -0.148955 21.2049 0.208291 21.9046C0.371182 22.2238 0.650398 22.4706 0.989844 22.5956L6.34044 24.7803L0.846011 27.802C0.154713 28.1879 -0.0885447 29.0536 0.302681 29.7354C0.458201 30.0064 0.699481 30.2192 0.989844 30.3414L6.34044 32.526L0.874778 35.5477C0.143926 35.8549 -0.19588 36.6883 0.115519 37.409C0.27787 37.7847 0.596461 38.0731 0.989844 38.2006L6.34044 40.3711L0.874778 43.3927C0.18348 43.7786 -0.0597781 44.6443 0.331448 45.3261C0.486968 45.5971 0.728248 45.8099 1.01861 45.9321L19.6162 53.7204C19.6842 53.7691 19.7565 53.8119 19.832 53.848L30.001 58.1039L48.6993 65.9489C49.12 66.125 49.6006 66.0935 49.9938 65.8638L72.2879 52.9259C72.9735 52.5301 73.204 51.6612 72.8027 50.9851C72.6421 50.7146 72.3955 50.5041 72.101 50.3866L66.8654 48.2728L72.2879 45.1235C72.9735 44.7278 73.2038 43.8588 72.8027 43.1826ZM68.3181 36.2998L49.1452 47.436L32.0003 40.2577V35.5337L48.6849 42.5275C48.8624 42.602 49.0531 42.6407 49.2459 42.641C49.504 42.641 49.7574 42.5724 49.9794 42.4424L63.7442 34.4556L68.3181 36.2998ZM68.3757 28.4831L49.1452 39.6194L33.5681 33.0937L51.1157 21.5318L68.3757 28.4831ZM18.9115 50.3726L4.80142 44.4569L9.6486 41.7757L18.9258 45.6627L18.9115 50.3726ZM18.9115 42.5701L4.80142 36.6544L9.6486 33.9448L18.9258 37.8319L18.9115 42.5701ZM18.9115 34.7677L4.80142 28.8662L9.6486 26.1849L18.9258 30.072L18.9115 34.7677ZM4.80142 21.0637L23.8162 10.5233L37.6098 16.0985L20.2347 27.5326L4.80142 21.0637ZM29.7565 32.2141C29.36 32.4783 29.1229 32.9197 29.1236 33.3916V54.671L21.8025 51.6068V29.9159L40.8604 17.3895L47.9514 20.2267L29.7565 32.2141ZM68.3181 51.9047L49.1452 63.0267L32.0003 55.8485V51.1386L48.6849 58.0615C49.1056 58.2376 49.5862 58.2061 49.9794 57.9764L63.7442 49.9895L68.3181 51.9047ZM49.1452 55.2243L32.0003 48.046V43.3362L48.6993 50.33C49.12 50.5061 49.6006 50.4745 49.9938 50.2449L63.7586 42.258L68.3181 44.1022L49.1452 55.2243Z" fill="black"/>
</g>
<defs>
<clipPath id="clip0">
<rect width="73" height="72" fill="white" transform="translate(0 0.79834)"/>
</clipPath>
</defs>
</svg>
