<svg width="81" height="81" viewBox="0 0 81 81" fill="none" xmlns="http://www.w3.org/2000/svg">
<g clip-path="url(#clip0)">
<path d="M79.2188 61.7479L80.1467 60.768C80.6592 60.2267 80.6592 59.3493 80.1467 58.808C79.6342 58.2668 78.8035 58.2668 78.291 58.808L77.3632 59.788L76.4353 58.808C75.9229 58.2668 75.0921 58.2668 74.5797 58.808C74.0672 59.3493 74.0672 60.2267 74.5797 60.768L75.5075 61.7479L74.5797 62.7279C74.0672 63.2692 74.0672 64.1466 74.5797 64.6878C74.8359 64.9585 75.1719 65.0939 75.5075 65.0939C75.8431 65.0939 76.1791 64.9585 76.4353 64.6878L77.3632 63.7079L78.291 64.6878C78.5472 64.9585 78.8832 65.0939 79.2188 65.0939C79.5545 65.0939 79.8904 64.9585 80.1467 64.6878C80.6592 64.1466 80.6592 63.2692 80.1467 62.7279L79.2188 61.7479Z" fill="black"/>
<path d="M54.7817 80.4548C55.4335 80.4548 55.9619 79.8968 55.9619 79.2084C55.9619 78.52 55.4335 77.9619 54.7817 77.9619C54.1299 77.9619 53.6016 78.52 53.6016 79.2084C53.6016 79.8968 54.1299 80.4548 54.7817 80.4548Z" fill="black"/>
<path d="M67.8242 7.69043H58.9926C58.2672 7.69043 57.6803 8.31036 57.6803 9.07652C57.6803 9.84267 58.2672 10.4626 58.9926 10.4626H67.8242C68.7431 10.4626 69.4915 11.253 69.4915 12.2236V69.6894C69.4915 70.66 68.7431 71.4504 67.8242 71.4504H13.4151C12.4961 71.4504 11.7478 70.66 11.7478 69.6894V12.2236C11.7478 11.253 12.4961 10.4626 13.4151 10.4626H52.2553C52.9807 10.4626 53.5677 9.84267 53.5677 9.07652C53.5677 8.31036 52.9807 7.69043 52.2553 7.69043H13.4151C11.0479 7.69043 9.12305 9.72347 9.12305 12.2236V69.6894C9.12305 72.1895 11.0479 74.2226 13.4151 74.2226H67.8242C70.1913 74.2226 72.1162 72.1895 72.1162 69.6894V12.2236C72.1162 9.72347 70.1913 7.69043 67.8242 7.69043Z" fill="black"/>
<path d="M39.8298 46.2966H35.8398V51.4566H32.9298V46.2966H21.2598V44.1966L31.9998 30.4566H35.2398L24.9498 43.7166H33.0198V39.1566H35.8398V43.7166H39.8298V46.2966Z" fill="black"/>
<path d="M50.2081 51.6966C48.5481 51.6966 47.0681 51.2766 45.7681 50.4366C44.4881 49.5766 43.4781 48.3366 42.7381 46.7166C41.9981 45.0966 41.6281 43.1766 41.6281 40.9566C41.6281 38.7366 41.9981 36.8166 42.7381 35.1966C43.4781 33.5766 44.4881 32.3466 45.7681 31.5066C47.0681 30.6466 48.5481 30.2166 50.2081 30.2166C51.8481 30.2166 53.3081 30.6466 54.5881 31.5066C55.8881 32.3466 56.9081 33.5766 57.6481 35.1966C58.3881 36.8166 58.7581 38.7366 58.7581 40.9566C58.7581 43.1766 58.3881 45.0966 57.6481 46.7166C56.9081 48.3366 55.8881 49.5766 54.5881 50.4366C53.3081 51.2766 51.8481 51.6966 50.2081 51.6966ZM50.2081 49.0266C51.8881 49.0266 53.2281 48.3366 54.2281 46.9566C55.2481 45.5766 55.7581 43.5766 55.7581 40.9566C55.7581 38.3366 55.2481 36.3366 54.2281 34.9566C53.2281 33.5766 51.8881 32.8866 50.2081 32.8866C48.5081 32.8866 47.1481 33.5766 46.1281 34.9566C45.1281 36.3366 44.6281 38.3366 44.6281 40.9566C44.6281 43.5766 45.1281 45.5766 46.1281 46.9566C47.1481 48.3366 48.5081 49.0266 50.2081 49.0266Z" fill="black"/>
</g>
<defs>
<clipPath id="clip0">
<rect width="80" height="80" fill="white" transform="translate(0.53125 0.682617)"/>
</clipPath>
</defs>
</svg>
