<svg width="66" height="65" viewBox="0 0 66 65" fill="none" xmlns="http://www.w3.org/2000/svg">
<g clip-path="url(#clip0)">
<path d="M64.2904 16.2951L33.6947 5.50015C33.2847 5.35542 32.8375 5.35542 32.4275 5.50015L1.83184 16.2951C1.07113 16.5635 0.562052 17.282 0.561037 18.0887C0.560021 18.8954 1.06745 19.615 1.82752 19.8852L32.4232 30.7622C32.6295 30.8355 32.8453 30.8722 33.061 30.8722C33.2769 30.8722 33.4925 30.8355 33.6988 30.7622L64.2945 19.8852C65.0546 19.615 65.5619 18.8954 65.561 18.0887C65.56 17.282 65.0509 16.5635 64.2904 16.2951Z" fill="#005ca9"/>
<path d="M60.9885 41.7141V25.1035L57.1799 26.4575V41.7141C56.0328 42.3743 55.2598 43.6115 55.2598 45.0302C55.2598 46.4488 56.0328 47.6861 57.1799 48.3463V57.7048C57.1799 58.7565 58.0325 59.6091 59.0842 59.6091C60.1359 59.6091 60.9885 58.7565 60.9885 57.7048V48.3465C62.1357 47.6863 62.9087 46.4489 62.9087 45.0303C62.9087 43.6116 62.1358 42.3743 60.9885 41.7141Z" fill="#005ca9"/>
<path d="M33.0603 34.6806C32.4067 34.6806 31.7629 34.5695 31.1468 34.3506L13.9468 28.2358V36.6158C13.9468 38.666 16.0856 40.3998 20.3037 41.7688C23.9804 42.9622 28.5108 43.6194 33.0603 43.6194C37.6098 43.6194 42.1401 42.9622 45.817 41.7688C50.0351 40.3998 52.1739 38.666 52.1739 36.6158V28.2358L34.974 34.3506C34.3578 34.5695 33.714 34.6806 33.0603 34.6806Z" fill="#005ca9"/>
</g>
<defs>
<clipPath id="clip0">
<rect width="65" height="65" fill="white" transform="translate(0.561035)"/>
</clipPath>
</defs>
</svg>
