<svg width="80" height="81" viewBox="0 0 80 81" fill="none" xmlns="http://www.w3.org/2000/svg">
<path d="M67.5747 28.9101C69.5157 28.9101 71.0947 27.3311 71.0947 25.3901C71.0947 23.4491 69.5157 21.8701 67.5747 21.8701C65.6337 21.8701 64.0547 23.4491 64.0547 25.3901C64.0547 27.3311 65.6337 28.9101 67.5747 28.9101ZM67.5747 24.2168C68.2215 24.2168 68.748 24.7427 68.748 25.3901C68.748 26.0375 68.2215 26.5635 67.5747 26.5635C66.9279 26.5635 66.4014 26.0375 66.4014 25.3901C66.4014 24.7427 66.9279 24.2168 67.5747 24.2168Z" fill="black"/>
<path d="M53.4937 14.8301C54.1417 14.8301 54.667 14.3047 54.667 13.6567C54.667 13.0087 54.1417 12.4834 53.4937 12.4834C52.8456 12.4834 52.3203 13.0087 52.3203 13.6567C52.3203 14.3047 52.8456 14.8301 53.4937 14.8301Z" fill="black"/>
<path d="M66.2579 14.972C66.487 15.2011 66.7874 15.3158 67.0875 15.3158C67.3875 15.3158 67.6879 15.2011 67.917 14.972L68.7466 14.1425L69.5761 14.972C69.8052 15.2011 70.1056 15.3158 70.4056 15.3158C70.7057 15.3158 71.0061 15.2011 71.2352 14.972C71.6934 14.5139 71.6934 13.7711 71.2352 13.3129L70.4056 12.4834L71.2352 11.6539C71.6934 11.1957 71.6934 10.4529 71.2352 9.99476C70.777 9.53658 70.0343 9.53658 69.5761 9.99476L68.7466 10.8243L67.917 9.99476C67.4588 9.53658 66.7161 9.53658 66.2579 9.99476C65.7997 10.4529 65.7997 11.1957 66.2579 11.6539L67.0875 12.4834L66.2579 13.3129C65.7994 13.7714 65.7994 14.5139 66.2579 14.972Z" fill="black"/>
<path d="M57.0144 37.2985V29.2251C57.0144 26.4636 54.768 24.2167 52.0066 24.2167H41.761V8.96337C41.761 8.31481 41.2357 7.79004 40.5877 7.79004H8.90771C8.25973 7.79004 7.73438 8.31481 7.73438 8.96337V40.6434C7.73438 41.2919 8.25973 41.8167 8.90771 41.8167H20.7367C21.3846 41.8167 21.91 41.2919 21.91 40.6434C21.91 39.9948 21.3846 39.47 20.7367 39.47H10.081V10.1367H39.4144V24.2167H29.1688C26.4074 24.2167 24.161 26.4636 24.161 29.2251V52.0617C24.161 54.8231 26.4074 57.0701 29.1688 57.0701H34.0003C34.6483 57.0701 35.1737 56.5453 35.1737 55.8967C35.1737 55.2482 34.6483 54.7234 34.0003 54.7234H29.1688C27.7016 54.7234 26.5077 53.5295 26.5077 52.0617V29.2251C26.5077 27.7572 27.7016 26.5634 29.1688 26.5634H52.0063C53.4736 26.5634 54.6674 27.7572 54.6674 29.2251V37.1234C44.9628 37.1234 37.0674 45.0182 37.0674 54.7234C37.0674 64.4286 44.9628 72.3234 54.6674 72.3234C64.3721 72.3234 72.2674 64.4286 72.2674 54.7234C72.2677 45.8157 65.6108 38.4516 57.0144 37.2985ZM54.6677 69.9767C46.2567 69.9767 39.4144 63.1338 39.4144 54.7234C39.4144 46.3129 46.2567 39.47 54.6677 39.47C63.0788 39.47 69.921 46.3129 69.921 54.7234C69.921 63.1338 63.0788 69.9767 54.6677 69.9767Z" fill="black"/>
</svg>
