<svg width="89" height="89" viewBox="0 0 89 89" fill="none" xmlns="http://www.w3.org/2000/svg">
<path d="M75.9609 66.41V69.0351C75.9609 69.76 76.548 70.3477 77.2735 70.3477C77.999 70.3477 78.5861 69.76 78.5861 69.0351V66.41C78.5861 65.6851 77.999 65.0974 77.2735 65.0974C76.548 65.0974 75.9609 65.6851 75.9609 66.41Z" fill="black"/>
<path d="M77.2735 72.9729C76.548 72.9729 75.9609 73.5606 75.9609 74.2855V76.9106C75.9609 77.6355 76.548 78.2232 77.2735 78.2232C77.999 78.2232 78.5861 77.6355 78.5861 76.9106V74.2855C78.5861 73.5606 77.999 72.9729 77.2735 72.9729Z" fill="black"/>
<path d="M74.6447 70.3479H72.0196C71.2941 70.3479 70.707 70.9356 70.707 71.6605C70.707 72.3853 71.2941 72.973 72.0196 72.973H74.6447C75.3703 72.973 75.9573 72.3853 75.9573 71.6605C75.9573 70.9356 75.3703 70.3479 74.6447 70.3479Z" fill="black"/>
<path d="M82.5197 70.3479H79.8946C79.1691 70.3479 78.582 70.9356 78.582 71.6605C78.582 72.3853 79.1691 72.973 79.8946 72.973H82.5197C83.2453 72.973 83.8323 72.3853 83.8323 71.6605C83.8323 70.9356 83.2453 70.3479 82.5197 70.3479Z" fill="black"/>
<path d="M71.7672 61.1427C71.7672 60.3677 71.1388 59.7393 70.3641 59.7393C69.589 59.7393 68.9609 60.3677 68.9609 61.1427C68.9609 61.9178 69.589 62.5459 70.3641 62.5459C71.1385 62.5459 71.7672 61.9178 71.7672 61.1427Z" fill="black"/>
<path d="M71.3748 35.8907C70.6263 20.0765 58.5504 7.27768 43.2842 6.11934C35.5191 5.53427 28.0962 8.00419 22.3819 13.0858C16.1869 18.5956 12.39 26.8359 11.9313 35.7401L5.23881 48.9107C5.21191 48.9645 5.18762 49.0203 5.16826 49.0767C4.8247 50.07 4.91953 51.1653 5.42848 52.0818C5.92201 52.9721 6.76664 53.6123 7.74483 53.8368L12.7556 54.9892L14.1567 70.8752C14.349 72.7312 15.8706 74.1304 17.697 74.1304C17.7446 74.1304 17.7932 74.1277 17.8408 74.1228L28.2875 72.9704V81.9841C28.2875 82.709 28.8745 83.2967 29.6001 83.2967C30.3256 83.2967 30.9126 82.709 30.9126 81.9841V71.5052C30.9126 71.1321 30.7538 70.7764 30.4755 70.5277C30.1973 70.2776 29.8219 70.1612 29.4567 70.2002L17.6409 71.5033C17.1897 71.4744 16.8193 71.099 16.7707 70.6251L15.2878 53.8085C15.238 53.2418 14.8284 52.7716 14.2739 52.644L8.33286 51.2782C7.98667 51.1988 7.80357 50.9501 7.72514 50.8083C7.58929 50.5642 7.55582 50.2744 7.629 50.0034L14.243 36.986C14.4212 36.7675 14.5262 36.4958 14.5377 36.21C14.8826 27.8752 18.3766 20.1618 24.127 15.0474C29.3054 10.4433 36.0297 8.2014 43.0873 8.73726C57.0334 9.79552 68.0671 21.5227 68.753 36.0147C69.1119 43.626 66.624 50.9399 61.7478 56.6096C59.7586 58.922 58.6626 61.888 58.6626 64.9611L58.6613 81.9835C58.6613 82.7086 59.2493 83.2967 59.9745 83.2967C60.6997 83.2967 61.2877 82.7086 61.2877 81.9835V64.9611C61.2877 62.5161 62.158 60.1581 63.7373 58.3215C69.0522 52.1406 71.7646 44.1749 71.3748 35.8907Z" fill="black"/>
<path d="M54.1756 17.6318C53.5718 17.2298 52.758 17.3932 52.3567 17.997C51.9541 18.6008 52.1182 19.4152 52.7219 19.8172C58.2298 23.4826 61.5178 29.6146 61.5178 36.221C61.5178 47.0773 52.6862 55.9095 41.8293 55.9095C30.9724 55.9095 22.1408 47.0773 22.1408 36.221C22.1408 25.3648 30.9724 16.5325 41.8293 16.5325C44.1994 16.5325 46.5155 16.9486 48.7137 17.7696C49.3943 18.0226 50.1506 17.6787 50.402 16.9985C50.6556 16.3192 50.3111 15.5635 49.6315 15.3099C47.1383 14.3793 44.5131 13.9077 41.8293 13.9077C29.5253 13.9077 19.5156 23.9174 19.5156 36.2214C19.5156 48.5254 29.5253 58.535 41.8293 58.535C54.1333 58.535 64.1429 48.5254 64.1429 36.2214C64.1429 28.7341 60.4169 21.7848 54.1756 17.6318Z" fill="black"/>
<path d="M81.2113 17.8452C81.2113 15.6739 79.445 13.9075 77.2736 13.9075C75.1023 13.9075 73.3359 15.6739 73.3359 17.8452C73.3359 20.0165 75.1023 21.7829 77.2736 21.7829C79.445 21.7829 81.2113 20.0168 81.2113 17.8452ZM75.9611 17.8452C75.9611 17.1216 76.5494 16.5326 77.2736 16.5326C77.9978 16.5326 78.5862 17.1216 78.5862 17.8452C78.5862 18.5687 77.9978 19.1577 77.2736 19.1577C76.5494 19.1577 75.9611 18.5687 75.9611 17.8452Z" fill="black"/>
<path d="M41.1958 20.6356L29.3827 27.1984C28.9659 27.4298 28.707 27.8688 28.707 28.3456V42.7839C28.707 43.2606 28.9659 43.6997 29.3827 43.931L41.1958 50.4939C41.3933 50.6041 41.6135 50.6593 41.8327 50.6593C42.0519 50.6593 42.2724 50.6041 42.4696 50.4939L54.2827 43.931C54.6995 43.6997 54.9584 43.2606 54.9584 42.7839V28.3456C54.9584 27.8688 54.6995 27.4298 54.2827 27.1984L42.4696 20.6356C42.0749 20.4151 41.5905 20.4151 41.1958 20.6356ZM41.8327 23.2847L50.9436 28.3459L41.8327 33.4069L32.7218 28.3459L41.8327 23.2847ZM31.3322 30.576L40.5201 35.6806V47.116L31.3322 42.0117V30.576ZM43.1453 47.116V35.6806L52.3333 30.576V42.0117L43.1453 47.116Z" fill="black"/>
</svg>
