<svg width="89" height="89" viewBox="0 0 89 89" fill="none" xmlns="http://www.w3.org/2000/svg">
<path d="M54.9348 40.8044H57.5062C58.1547 40.8044 58.6795 40.2796 58.6795 39.631V29.071C58.6795 28.4225 58.1547 27.8977 57.5062 27.8977H29.3462C28.6976 27.8977 28.1729 28.4225 28.1729 29.071V39.631C28.1729 40.2796 28.6976 40.8044 29.3462 40.8044H31.9175C33.7347 40.8044 35.2129 39.3263 35.2129 37.5091V36.111H38.7329V52.5377H37.3348C35.5176 52.5377 34.0395 54.0158 34.0395 55.833V58.4044C34.0395 59.0529 34.5643 59.5777 35.2129 59.5777H51.6395C52.2881 59.5777 52.8129 59.0529 52.8129 58.4044V55.833C52.8129 54.0158 51.3347 52.5377 49.5175 52.5377H48.1195V36.111H51.6395V37.5091C51.6395 39.3263 53.1176 40.8044 54.9348 40.8044ZM36.3862 55.833C36.3862 55.3094 36.8112 54.8844 37.3348 54.8844H39.9062C40.5547 54.8844 41.0795 54.3596 41.0795 53.711V34.9377C41.0795 34.2891 40.5547 33.7644 39.9062 33.7644H34.0395C33.391 33.7644 32.8662 34.2891 32.8662 34.9377V37.5091C32.8662 38.0327 32.4411 38.4577 31.9175 38.4577H30.5195V30.2444H42.2529V57.231H36.3862V55.833ZM46.9462 33.7644C46.2976 33.7644 45.7729 34.2891 45.7729 34.9377V53.711C45.7729 54.3596 46.2976 54.8844 46.9462 54.8844H49.5175C50.0411 54.8844 50.4662 55.3094 50.4662 55.833V57.231H44.5995V30.2444H56.3329V38.4577H54.9348C54.4112 38.4577 53.9862 38.0327 53.9862 37.5091V34.9377C53.9862 34.2891 53.4614 33.7644 52.8129 33.7644H46.9462Z" fill="black"/>
<path d="M59.852 65.4443C61.793 65.4443 63.372 63.8653 63.372 61.9243C63.372 59.9833 61.793 58.4043 59.852 58.4043C57.911 58.4043 56.332 59.9833 56.332 61.9243C56.332 63.8653 57.911 65.4443 59.852 65.4443ZM59.852 60.751C60.4994 60.751 61.0254 61.2769 61.0254 61.9243C61.0254 62.5717 60.4994 63.0976 59.852 63.0976C59.2046 63.0976 58.6787 62.5717 58.6787 61.9243C58.6787 61.2769 59.2046 60.751 59.852 60.751Z" fill="black"/>
<path d="M76.9181 44.748C76.1844 44.7466 75.5884 45.3406 75.5869 46.0742C75.5855 46.8078 76.1795 47.4039 76.9131 47.4054C77.647 47.4068 78.2428 46.8128 78.2442 46.0792C78.2457 45.3453 77.652 44.7495 76.9181 44.748Z" fill="black"/>
<path d="M56.8174 49.5942C56.8159 50.3279 57.4099 50.9239 58.1435 50.9254C58.8775 50.9268 59.4732 50.3328 59.4747 49.5992C59.4762 48.8656 58.8822 48.2695 58.1485 48.2681C57.4146 48.2666 56.8189 48.8606 56.8174 49.5942Z" fill="black"/>
<path d="M13.57 23.2043H15.2646V61.9243C15.2646 62.5728 15.7894 63.0976 16.438 63.0976C17.0865 63.0976 17.6113 62.5728 17.6113 61.9243V23.2043H19.3059C20.9594 23.2043 22.3046 21.8591 22.3046 20.2055V18.5109H64.5446V20.2055C64.5446 21.8591 65.8899 23.2043 67.5434 23.2043H73.2795C74.933 23.2043 76.2783 21.8591 76.2783 20.2055V14.4697C76.2783 12.8162 74.933 11.4709 73.2795 11.4709H67.5434C65.8899 11.4709 64.5446 12.8162 64.5446 14.4697V16.1643H22.3046V14.4697C22.3046 12.8162 20.9594 11.4709 19.3059 11.4709H13.57C11.9165 11.4709 10.5713 12.8162 10.5713 14.4697V20.2058C10.5713 21.8591 11.9165 23.2043 13.57 23.2043ZM66.8913 14.4697C66.8913 14.1098 67.1834 13.8176 67.5434 13.8176H73.2795C73.6394 13.8176 73.9316 14.1098 73.9316 14.4697V20.2058C73.9316 20.5657 73.6394 20.8579 73.2795 20.8579H67.5434C67.1834 20.8579 66.8913 20.5657 66.8913 20.2058V14.4697ZM12.918 14.4697C12.918 14.1098 13.2101 13.8176 13.57 13.8176H19.3062C19.6661 13.8176 19.9583 14.1098 19.9583 14.4697V20.2058C19.9583 20.5657 19.6661 20.8579 19.3062 20.8579H13.57C13.2101 20.8579 12.918 20.5657 12.918 20.2058V14.4697Z" fill="black"/>
<path d="M73.2792 65.4444H71.5846V26.7244C71.5846 26.0758 71.0598 25.551 70.4113 25.551C69.7627 25.551 69.238 26.0758 69.238 26.7244V65.4444H67.5434C65.8898 65.4444 64.5446 66.7896 64.5446 68.4431V70.1377H22.3046V68.4431C22.3046 66.7896 20.9594 65.4444 19.3059 65.4444H13.57C11.9165 65.4444 10.5713 66.7896 10.5713 68.4431V74.1792C10.5713 75.8328 11.9165 77.178 13.57 77.178H19.3062C20.9597 77.178 22.3049 75.8328 22.3049 74.1792V72.4844H64.5449V74.179C64.5449 75.8325 65.8901 77.1777 67.5437 77.1777H73.2798C74.9333 77.1777 76.2785 75.8325 76.2785 74.179V68.4428C76.278 66.7896 74.9327 65.4444 73.2792 65.4444ZM19.958 74.179C19.958 74.5389 19.6658 74.831 19.3059 74.831H13.57C13.2101 74.831 12.918 74.5389 12.918 74.179V68.4428C12.918 68.0829 13.2101 67.7907 13.57 67.7907H19.3062C19.6661 67.7907 19.9583 68.0829 19.9583 68.4428V74.179H19.958ZM73.9313 74.179C73.9313 74.5389 73.6391 74.831 73.2792 74.831H67.5431C67.1832 74.831 66.891 74.5389 66.891 74.179V68.4428C66.891 68.0829 67.1832 67.7907 67.5431 67.7907H73.2792C73.6391 67.7907 73.9313 68.0829 73.9313 68.4428V74.179Z" fill="black"/>
</svg>
