<svg width="73" height="73" viewBox="0 0 73 73" fill="none" xmlns="http://www.w3.org/2000/svg">
<path d="M55.5361 41.9492H57.7861V44.1992H55.5361V41.9492Z" fill="black"/>
<path d="M62.2861 24.5432V13.8242C62.2861 12.9291 61.9305 12.0707 61.2976 11.4377C60.6646 10.8048 59.8062 10.4492 58.9111 10.4492C58.527 10.4529 58.1464 10.523 57.7861 10.6562V10.4492C57.7861 9.55411 57.4305 8.69567 56.7976 8.06273C56.1646 7.4298 55.3062 7.07422 54.4111 7.07422C54.027 7.07795 53.6464 7.14798 53.2861 7.28122V5.94922C53.2861 5.05411 52.9305 4.19567 52.2976 3.56273C51.6646 2.9298 50.8062 2.57422 49.9111 2.57422C49.016 2.57422 48.1575 2.9298 47.5246 3.56273C46.8917 4.19567 46.5361 5.05411 46.5361 5.94922V6.15622C46.1758 6.02298 45.7952 5.95295 45.4111 5.94922C44.516 5.94922 43.6575 6.3048 43.0246 6.93773C42.3916 7.57067 42.0361 8.42911 42.0361 9.32422V21.004L40.8537 21.5946C39.9134 22.0649 39.1131 22.774 38.5329 23.6508C37.9527 24.5276 37.613 25.5414 37.5477 26.5908C37.4824 27.6401 37.6939 28.6882 38.161 29.6301C38.628 30.5721 39.3343 31.3749 40.2091 31.9581L43.2837 34.0078C43.592 34.2132 43.8447 34.4916 44.0196 34.8182C44.1945 35.1447 44.286 35.5094 44.2861 35.8798V37.4492H43.1611C42.8627 37.4492 42.5766 37.5677 42.3656 37.7787C42.1546 37.9897 42.0361 38.2758 42.0361 38.5742V70.0742H44.2861V39.6992H60.0361V70.0742H62.2861V38.5742C62.2861 38.2758 62.1676 37.9897 61.9566 37.7787C61.7456 37.5677 61.4594 37.4492 61.1611 37.4492H60.0361V34.3363C61.5129 31.2827 62.282 27.9352 62.2861 24.5432ZM46.5361 37.4492V35.8798C46.5369 35.1389 46.3543 34.4093 46.0047 33.7561C45.6551 33.1028 45.1493 32.5462 44.5324 32.1358L41.4567 30.0861C40.9099 29.7214 40.4685 29.2194 40.1766 28.6305C39.8847 28.0416 39.7526 27.3864 39.7935 26.7304C39.8344 26.0744 40.0468 25.4406 40.4096 24.8925C40.7724 24.3444 41.2727 23.9012 41.8606 23.6072L42.0361 23.5195V26.1992H44.2861V9.32422C44.2861 9.02585 44.4046 8.7397 44.6156 8.52872C44.8266 8.31775 45.1127 8.19922 45.4111 8.19922C45.7094 8.19922 45.9956 8.31775 46.2066 8.52872C46.4175 8.7397 46.5361 9.02585 46.5361 9.32422V20.5742H48.7861V5.94922C48.7861 5.65085 48.9046 5.3647 49.1156 5.15372C49.3266 4.94275 49.6127 4.82422 49.9111 4.82422C50.2094 4.82422 50.4956 4.94275 50.7066 5.15372C50.9175 5.3647 51.0361 5.65085 51.0361 5.94922V21.6992H53.2861V10.4492C53.2861 10.1509 53.4046 9.8647 53.6156 9.65372C53.8266 9.44275 54.1127 9.32422 54.4111 9.32422C54.7094 9.32422 54.9956 9.44275 55.2066 9.65372C55.4175 9.8647 55.5361 10.1509 55.5361 10.4492V22.8242H57.7861V13.8242C57.7861 13.5259 57.9046 13.2397 58.1156 13.0287C58.3266 12.8177 58.6127 12.6992 58.9111 12.6992C59.2094 12.6992 59.4956 12.8177 59.7066 13.0287C59.9176 13.2397 60.0361 13.5259 60.0361 13.8242V24.5432C60.0309 27.6773 59.2993 30.7676 57.8986 33.5713C57.8227 33.728 57.7842 33.9001 57.7861 34.0742V37.4492H46.5361Z" fill="black"/>
<path d="M28.5361 64.4492H30.7861V66.6992H28.5361V64.4492Z" fill="black"/>
<path d="M35.2861 47.0432V39.6992C35.2861 38.8041 34.9305 37.9457 34.2976 37.3127C33.6646 36.6798 32.8062 36.3242 31.9111 36.3242C31.5269 36.3279 31.1464 36.398 30.7861 36.5312V36.3242C30.7861 35.4291 30.4305 34.5707 29.7976 33.9377C29.1646 33.3048 28.3062 32.9492 27.4111 32.9492C27.0269 32.9529 26.6464 33.023 26.2861 33.1562V31.8242C26.2861 30.9291 25.9305 30.0707 25.2976 29.4377C24.6646 28.8048 23.8062 28.4492 22.9111 28.4492C22.016 28.4492 21.1575 28.8048 20.5246 29.4377C19.8916 30.0707 19.5361 30.9291 19.5361 31.8242V32.0312C19.1758 31.898 18.7952 31.8279 18.4111 31.8242C17.516 31.8242 16.6575 32.1798 16.0246 32.8127C15.3916 33.4457 15.0361 34.3041 15.0361 35.1992V43.504L13.8537 44.0946C12.9134 44.5649 12.1131 45.274 11.5329 46.1508C10.9527 47.0276 10.613 48.0414 10.5477 49.0908C10.4824 50.1401 10.6939 51.1882 11.161 52.1301C11.628 53.0721 12.3343 53.8749 13.2091 54.4581L16.2837 56.5078C16.592 56.7133 16.8447 56.9916 17.0196 57.3182C17.1945 57.6447 17.286 58.0094 17.2861 58.3798V59.9492H16.1611C15.8627 59.9492 15.5766 60.0677 15.3656 60.2787C15.1546 60.4897 15.0361 60.7758 15.0361 61.0742V70.0742H17.2861V62.1992H33.0361V70.0742H35.2861V61.0742C35.2861 60.7758 35.1675 60.4897 34.9566 60.2787C34.7456 60.0677 34.4594 59.9492 34.1611 59.9492H33.0361V56.8363C34.5129 53.7827 35.282 50.4352 35.2861 47.0432ZM19.5361 59.9492V58.3742C19.5368 57.6333 19.3543 56.9037 19.0047 56.2504C18.6551 55.5972 18.1493 55.0406 17.5324 54.6302L14.4567 52.5805C13.9099 52.2158 13.4685 51.7138 13.1766 51.1249C12.8847 50.536 12.7526 49.8808 12.7935 49.2248C12.8344 48.5688 13.0468 47.935 13.4096 47.3869C13.7724 46.8388 14.2727 46.3956 14.8606 46.1016L15.0361 46.0195V48.6992H17.2861V35.1992C17.2861 34.9009 17.4046 34.6147 17.6156 34.4037C17.8266 34.1927 18.1127 34.0742 18.4111 34.0742C18.7094 34.0742 18.9956 34.1927 19.2066 34.4037C19.4175 34.6147 19.5361 34.9009 19.5361 35.1992V43.0742H21.7861V31.8242C21.7861 31.5259 21.9046 31.2397 22.1156 31.0287C22.3265 30.8177 22.6127 30.6992 22.9111 30.6992C23.2094 30.6992 23.4956 30.8177 23.7066 31.0287C23.9175 31.2397 24.0361 31.5259 24.0361 31.8242V44.1992H26.2861V36.3242C26.2861 36.0259 26.4046 35.7397 26.6156 35.5287C26.8265 35.3177 27.1127 35.1992 27.4111 35.1992C27.7094 35.1992 27.9956 35.3177 28.2066 35.5287C28.4175 35.7397 28.5361 36.0259 28.5361 36.3242V45.3242H30.7861V39.6992C30.7861 39.4009 30.9046 39.1147 31.1156 38.9037C31.3266 38.6927 31.6127 38.5742 31.9111 38.5742C32.2094 38.5742 32.4956 38.6927 32.7066 38.9037C32.9175 39.1147 33.0361 39.4009 33.0361 39.6992V47.0432C33.0326 50.1769 32.3029 53.2671 30.9042 56.0713C30.8263 56.2275 30.7859 56.3997 30.7861 56.5742V59.9492H19.5361Z" fill="black"/>
<path d="M36.4111 22.8242H29.6611C29.3628 22.8242 29.0766 22.9427 28.8656 23.1537C28.6547 23.3647 28.5361 23.6509 28.5361 23.9492V26.3466L23.5355 23.0132C23.3504 22.8903 23.1333 22.8246 22.9111 22.8242H15.0361C14.4394 22.8242 13.8671 22.5872 13.4451 22.1652C13.0232 21.7433 12.7861 21.171 12.7861 20.5742V11.5742C12.7861 10.9775 13.0232 10.4052 13.4451 9.98323C13.8671 9.56127 14.4394 9.32422 15.0361 9.32422H39.7861V7.07422H15.0361C13.8427 7.07422 12.6981 7.54832 11.8542 8.39224C11.0102 9.23615 10.5361 10.3807 10.5361 11.5742V20.5742C10.5361 21.7677 11.0102 22.9123 11.8542 23.7562C12.6981 24.6001 13.8427 25.0742 15.0361 25.0742H22.5736L29.0401 29.3852C29.2095 29.4974 29.4061 29.5615 29.609 29.5709C29.8119 29.5803 30.0136 29.5346 30.1927 29.4387C30.3717 29.3427 30.5214 29.2 30.6259 29.0258C30.7304 28.8516 30.7858 28.6524 30.7861 28.4492V25.0742H36.4111V22.8242Z" fill="black"/>
<path d="M16.1611 12.6992H18.4111V14.9492H16.1611V12.6992Z" fill="black"/>
<path d="M20.6611 12.6992H39.7861V14.9492H20.6611V12.6992Z" fill="black"/>
<path d="M16.1611 17.1992H39.7861V19.4492H16.1611V17.1992Z" fill="black"/>
<path d="M64.5361 43.0742H66.7861V62.1992H64.5361V43.0742Z" fill="black"/>
<path d="M64.5361 64.4492H66.7861V66.6992H64.5361V64.4492Z" fill="black"/>
<path d="M7.29515 54.4547L9.27515 53.386C8.6265 52.1805 8.28675 50.8331 8.28628 49.4642C8.27866 48.047 8.63958 46.6522 9.33362 45.4166C10.0277 44.181 11.031 43.147 12.2452 42.4161C12.4104 42.3158 12.547 42.1746 12.6418 42.0061C12.7366 41.8376 12.7863 41.6475 12.7863 41.4542V35.1992H10.5363V40.8433C9.14069 41.805 8.00119 43.0931 7.21692 44.5956C6.43265 46.0981 6.02735 47.7694 6.03628 49.4642C6.03697 51.2062 6.4695 52.9208 7.29515 54.4547Z" fill="black"/>
<path d="M8.74707 56.5079C9.32965 57.1517 9.98981 57.7208 10.7124 58.2021L11.9612 56.3301C11.3931 55.9519 10.8739 55.5049 10.4154 54.9993L8.74707 56.5079Z" fill="black"/>
</svg>
