<svg width="74" height="74" viewBox="0 0 74 74" fill="none" xmlns="http://www.w3.org/2000/svg">
<g clip-path="url(#clip0)">
<path d="M63.1671 57.7997C62.5803 57.7344 62.0513 58.1564 61.9856 58.7433C61.1666 66.0531 54.9937 71.5654 47.6264 71.5654C39.6575 71.5654 33.1742 65.0828 33.1742 57.1146C33.1742 49.1463 39.6575 42.6637 47.6264 42.6637C54.5612 42.6637 60.5314 47.6002 61.8222 54.4015C61.9324 54.9815 62.4924 55.3621 63.072 55.2525C63.6521 55.1425 64.0331 54.5828 63.9231 54.0027C62.4409 46.1934 55.5872 40.5253 47.6264 40.5253C47.0029 40.5253 42.0528 40.5609 42.0528 40.5609V38.2712H45.4117C46.0022 38.2712 46.4809 37.7925 46.4809 37.202V32.774C46.4809 32.1835 46.0022 31.7048 45.4117 31.7048H33.197V11.0337L36.6598 13.9106C38.3276 15.0526 39.8771 14.9099 41.3085 13.4825C42.4701 12.0832 42.2772 9.99863 40.8783 8.83538L32.0228 1.47668C30.8005 0.460971 29.0261 0.460828 27.8036 1.47668L18.9472 8.83638C17.5446 10.51 17.4016 12.0588 18.5185 13.4831C20.0092 14.9131 21.5585 15.0558 23.1664 13.9111L26.6295 11.0336V18.7601C26.6295 19.3505 27.1082 19.8292 27.6986 19.8292C28.2891 19.8292 28.7678 19.3505 28.7678 18.7601V8.75555C28.532 7.73913 27.948 7.465 27.0155 7.93315L21.7987 12.2674C20.7412 13.1474 19.0336 11.5472 20.3148 10.4802L29.1704 3.12134C29.601 2.76352 30.226 2.76381 30.6562 3.12134L39.5116 10.48C40.8924 11.6282 38.9738 13.0549 38.0273 12.2668L32.8112 7.93315C31.8788 7.465 31.2946 7.73913 31.0588 8.75555V31.7048H28.7679V23.4201C28.7679 22.8296 28.2892 22.3509 27.6988 22.3509C27.1083 22.3509 26.6296 22.8296 26.6296 23.4201V31.7048H14.415C13.8246 31.7048 13.3459 32.1835 13.3459 32.774V36.1229H9.98713C9.39667 36.1229 8.91797 36.6016 8.91797 37.1921V41.6201C8.91797 42.2106 9.39667 42.6893 9.98713 42.6893H13.3462V44.9887H9.98756C9.3971 44.9887 8.9184 45.4674 8.9184 46.0578V50.4856C8.9184 51.0761 9.3971 51.5548 9.98756 51.5548H13.3462V53.8513H9.98756C9.3971 53.8513 8.9184 54.33 8.9184 54.9205V59.3483C8.9184 59.9387 9.3971 60.4174 9.98756 60.4174H13.3462V62.7069H9.98756C9.3971 62.7069 8.9184 63.1856 8.9184 63.776V68.2052C8.9184 68.7957 9.3971 69.2744 9.98756 69.2744H13.3462V72.6458C13.3462 73.2363 13.8249 73.715 14.4153 73.715C14.4153 73.715 47.0331 73.7036 47.6264 73.7036C56.0837 73.7036 63.1702 67.3744 64.1105 58.9812C64.1764 58.3944 63.754 57.8654 63.1671 57.7997ZM15.4842 33.8431H44.3425V36.1329L15.4842 36.1229V33.8431ZM11.0563 38.2612L39.9146 38.2712V40.5509H11.0563V38.2612ZM15.4846 42.6992H39.4234C38.2993 43.3413 37.2578 44.1113 36.3175 44.9887H15.4846V42.6992ZM11.0569 47.127H34.3886C33.8442 47.8468 33.3574 48.6123 32.9341 49.4165H11.0569V47.127ZM11.0569 55.9897H19.7713C20.3617 55.9897 20.8404 55.511 20.8404 54.9205C20.8404 54.9195 20.8403 54.9187 20.8403 54.9177C20.8403 54.9167 20.8404 54.9158 20.8404 54.9148C20.8404 54.3243 20.3617 53.8456 19.7713 53.8456H15.4846V51.5548H31.9955C31.7311 52.2958 31.5177 53.0606 31.3602 53.8456H24.4314C23.8409 53.8456 23.3622 54.3243 23.3622 54.9148C23.3622 55.5053 23.8409 55.984 24.4314 55.984H31.0752C31.022 56.7491 31.0227 57.5142 31.0773 58.2791H11.0569V55.9897ZM15.4846 60.4174H31.3667C31.526 61.2021 31.7411 61.9664 32.0071 62.7069H15.4846V60.4174ZM11.0569 64.8452H32.9515C33.3773 65.6502 33.8673 66.416 34.4148 67.1361H11.0569V64.8452ZM15.4846 71.5767V69.2872H36.368C37.3184 70.1668 38.3716 70.9366 39.5075 71.5767H15.4846Z" fill="black"/>
<path d="M47.6043 44.9839C40.9106 44.9839 35.4648 50.4296 35.4648 57.1232C35.4648 63.8169 40.9106 69.2626 47.6043 69.2626C54.298 69.2626 59.7437 63.8169 59.7437 57.1232C59.7436 50.4295 54.298 44.9839 47.6043 44.9839ZM47.6043 67.1243C42.0897 67.1243 37.6032 62.6378 37.6032 57.1232C37.6032 51.6086 42.0897 47.1222 47.6043 47.1222C53.1189 47.1222 57.6054 51.6087 57.6054 57.1232C57.6052 62.6378 53.1189 67.1243 47.6043 67.1243Z" fill="black"/>
<path d="M48.2122 56.1966H46.9961C46.3648 56.1966 45.8512 55.6829 45.8512 55.0517C45.8512 54.4205 46.3648 53.9068 46.9961 53.9068H48.0826C48.497 53.9068 48.8554 54.1736 48.9746 54.5704C49.1442 55.136 49.7404 55.4573 50.3059 55.2872C50.8714 55.1176 51.1925 54.5214 51.0227 53.9559C50.6881 52.8408 49.7797 52.0398 48.6734 51.8267V50.5028C48.6734 49.9123 48.1947 49.4336 47.6042 49.4336C47.0138 49.4336 46.5351 49.9123 46.5351 50.5028V51.8014C44.9423 52.0264 43.7129 53.3978 43.7129 55.0517C43.7129 56.862 45.1858 58.3349 46.9961 58.3349H48.2122C48.8435 58.3349 49.3571 58.8485 49.3571 59.4798C49.3571 60.111 48.8435 60.6246 48.2122 60.6246H46.8405C46.4261 60.6246 46.0678 60.3579 45.9486 59.961C45.7789 59.3954 45.1829 59.0746 44.6173 59.2443C44.0517 59.4139 43.7307 60.0101 43.9005 60.5756C44.2634 61.7852 45.3011 62.6262 46.5349 62.7466V64.0286C46.5349 64.619 47.0136 65.0977 47.6041 65.0977C48.1945 65.0977 48.6732 64.619 48.6732 64.0286V62.73C50.266 62.5051 51.4954 61.1337 51.4954 59.4798C51.4954 57.6693 50.0227 56.1966 48.2122 56.1966Z" fill="black"/>
</g>
<defs>
<clipPath id="clip0">
<rect width="73" height="73" fill="white" transform="translate(0.0175781 0.714844)"/>
</clipPath>
</defs>
</svg>
