<svg width="73" height="72" viewBox="0 0 73 72" fill="none" xmlns="http://www.w3.org/2000/svg">
<g clip-path="url(#clip0)">
<path d="M67.3743 39.4838C67.3743 42.0491 65.2944 44.1289 62.7291 44.1289C60.1639 44.1289 58.084 42.0491 58.084 39.4838C58.084 36.9185 60.1639 34.8386 62.7291 34.8386C65.2944 34.8386 67.3743 36.9185 67.3743 39.4838Z" fill="#FCD770"/>
<path d="M13.9549 25.5485C13.9549 28.1138 11.875 30.1936 9.30971 30.1936C6.74444 30.1936 4.66455 28.1138 4.66455 25.5485C4.66455 22.9832 6.74444 20.9033 9.30971 20.9033C11.875 20.9033 13.9549 22.9832 13.9549 25.5485Z" fill="#FCD770"/>
<path d="M50.3618 42.8867L48.794 42.5266L43.1038 41.2145L41.8262 47.6129L36.0198 44.129L30.2133 47.6129L29.1331 41.168L23.2456 42.5266L21.6777 42.8867C18.5193 43.6181 16.2778 46.4284 16.2778 49.6684V63.871H55.7617V49.6684C55.7617 46.4284 53.5202 43.6181 50.3618 42.8867Z" fill="#B4DD7F"/>
<path d="M40.6647 40.6453L43.1035 41.2146L41.826 47.613L36.0195 44.1291L40.6647 40.6453Z" fill="#E6E9ED"/>
<path d="M36.0195 44.1291L30.213 47.613L29.1328 41.1681V41.1562L31.3743 40.6453L36.0195 44.1291Z" fill="#E6E9ED"/>
<path d="M48.7939 27.8823V42.5266L43.1037 41.2145L40.6649 40.6452V37.1613L40.5605 36.9407C42.1278 35.8838 43.301 34.2927 43.8352 32.4351L44.1488 32.5161C46.7152 32.5161 48.7939 30.4374 48.7939 27.8823Z" fill="#B27946"/>
<path d="M31.4785 36.9407L31.3742 37.1613V40.6452L29.1327 41.1561V41.168L23.2451 42.5266V27.8823C23.2451 30.4374 25.3239 32.5161 27.8903 32.5161L28.2038 32.4351C28.5872 33.7818 29.3073 34.9782 30.2707 35.9422C30.6427 36.3136 31.0373 36.6385 31.4785 36.9407Z" fill="#B27946"/>
<path d="M37.6337 24.3872H33.6967V24.3526C33.4642 24.3759 33.2323 24.3872 32.9885 24.3872H29.0516V24.3526C28.8191 24.3759 28.5872 24.3872 28.3433 24.3872H27.8903V23.2373C25.5444 23.3189 23.4889 25.0722 23.2684 27.418C23.2565 27.5694 23.2451 27.7316 23.2451 27.8824V20.9033C23.2451 13.8426 28.9586 8.12915 36.0193 8.12915C39.5497 8.12915 42.7432 9.55751 45.0539 11.8688C47.3651 14.1794 48.7935 17.373 48.7935 20.9033V27.8824C48.7935 27.7316 48.7822 27.5694 48.7703 27.418C48.5497 25.0722 46.4942 23.3189 44.1483 23.2373V20.9033C42.6967 23.0751 40.2579 24.3872 37.6337 24.3872Z" fill="#B27946"/>
<path d="M36.0192 38.3228C37.7033 38.3228 39.2706 37.8119 40.56 36.9409L40.6643 37.1615V40.6454L36.0192 44.1292L31.374 40.6454V37.1615L31.4784 36.9409C34.9044 38.2649 35.4618 38.3228 36.0192 38.3228Z" fill="#F0D0B4"/>
<path d="M48.7704 27.4181C48.7824 27.5695 48.7937 27.7316 48.7937 27.8825C48.7937 30.4375 46.7149 32.5163 44.1485 32.5163L43.835 32.4352C44.0442 31.7264 44.1485 30.9717 44.1485 30.1937V23.2373C46.4944 23.319 48.5499 25.0722 48.7704 27.4181Z" fill="#F0D0B4"/>
<path d="M33.6966 24.3872H37.6335C40.2578 24.3872 42.6966 23.0751 44.1482 20.9033V30.1936C44.1482 30.9716 44.0439 31.7263 43.8346 32.4351C43.3005 34.2928 42.1273 35.8839 40.56 36.9408C39.2706 37.8118 37.7033 38.3227 36.0192 38.3227C35.4618 38.3227 34.9044 38.2648 31.4783 36.9408C31.0372 36.6386 30.6425 36.3137 30.2706 35.9423C29.3072 34.9783 28.587 33.7819 28.2037 32.4351C27.9945 31.7263 27.8901 30.9716 27.8901 30.1936V24.3872H28.3432C28.587 24.3872 28.8189 24.3759 29.0514 24.3526V24.3872H32.9884C33.2322 24.3872 33.4641 24.3759 33.6966 24.3526V24.3872Z" fill="#F0D0B4"/>
<path d="M27.8903 24.3873V30.1937C27.8903 30.9717 27.9946 31.7264 28.2038 32.4352L27.8903 32.5163C25.3239 32.5163 23.2451 30.4375 23.2451 27.8825C23.2451 27.7316 23.2565 27.5695 23.2684 27.4181C23.4889 25.0722 25.5444 23.319 27.8903 23.2373V24.3873Z" fill="#F0D0B4"/>
<path d="M15.1162 49.6718V65.0323H56.9227V49.6718C56.9227 45.8653 54.3319 42.6077 50.6218 41.7509L49.9549 41.5972V20.9033C49.9549 13.2188 43.7039 6.96777 36.0194 6.96777C28.335 6.96777 22.084 13.2188 22.084 20.9033V41.5972L21.4171 41.752C17.707 42.6077 15.1162 45.8653 15.1162 49.6718ZM54.6001 49.6718V62.7097H48.8447C48.949 61.9726 49.2149 61.2672 49.6323 60.6417C50.603 59.185 51.1162 57.4907 51.1162 55.742C51.1162 53.9932 50.603 52.2989 49.6334 50.8422L48.7936 49.5834V47.6129H46.4711V50.2876L47.701 52.1316C48.4149 53.2033 48.7936 54.4531 48.7936 55.742C48.7936 57.0308 48.4149 58.2806 47.701 59.3523C47.0284 60.3616 46.6383 61.5127 46.5232 62.7097H37.1807V46.18L42.6413 49.4558L44.0101 42.6088L50.0989 44.014C52.7487 44.6264 54.6001 46.9523 54.6001 49.6718ZM26.779 31.153C26.225 30.9647 25.7141 30.6557 25.3121 30.2146C24.6436 29.4791 24.3277 28.5237 24.423 27.5262C24.5483 26.2113 25.4794 25.1118 26.7291 24.6378V30.1936C26.7291 30.5174 26.7467 30.8372 26.779 31.153ZM29.0517 25.5053C30.2839 25.4089 31.4673 25.0755 32.5356 24.5124V25.5484H32.9943C34.4794 25.5484 35.91 25.1815 37.1807 24.5113V25.5484H37.6395C39.5997 25.5484 41.4613 24.9048 42.9872 23.7719V30.1936C42.9872 34.0364 39.8622 37.1613 36.0194 37.1613C32.1766 37.1613 29.0517 34.0364 29.0517 30.1936V25.5053ZM45.3098 24.6366C46.5595 25.1107 47.4894 26.2101 47.6148 27.524C47.71 28.5225 47.3953 29.478 46.7268 30.2134C46.3248 30.6546 45.8139 30.9636 45.2599 31.1519C45.2922 30.8372 45.3098 30.5174 45.3098 30.1936V24.6366ZM40.9294 41.8983L41.7471 42.0866L41.0105 45.7689L38.0982 44.0213L40.9294 41.8983ZM36.0194 39.4839C37.2516 39.4839 38.4271 39.2378 39.5033 38.8001V40.0645L36.0194 42.6774L32.5356 40.0645V38.8001C33.6118 39.2378 34.7873 39.4839 36.0194 39.4839ZM31.1095 41.8983L33.9407 44.0225L31.0783 45.74L30.4625 42.048L31.1095 41.8983ZM41.8259 39.7221V37.4341C43.0671 36.4366 44.0453 35.1268 44.6458 33.6253C45.7311 33.53 46.7659 33.1512 47.6323 32.5009V41.0608L41.8259 39.7221ZM36.0194 9.29035C42.423 9.29035 47.6323 14.4997 47.6323 20.9033V23.3245C46.953 22.8102 46.1677 22.4314 45.3098 22.2352V19.742H42.9872V20.5154C42.0499 21.7844 40.7145 22.6707 39.2096 23.0353C39.674 22.5885 40.1027 22.0969 40.4695 21.548L38.5371 20.2597C37.5964 21.671 36.1725 22.6475 34.5644 23.0364C35.0288 22.5896 35.4575 22.098 35.8244 21.5491L33.8919 20.2608C32.7851 21.9217 31.0097 22.9775 29.0517 23.1839V19.742H26.7291V22.2352C25.8712 22.4314 25.0858 22.8102 24.4065 23.3245V20.9033C24.4065 14.4997 29.6159 9.29035 36.0194 9.29035ZM24.4065 32.5009C25.273 33.1524 26.3089 33.5312 27.3931 33.6253C27.9925 35.1268 28.9706 36.4366 30.213 37.4341V39.7221L24.4065 41.062V32.5009ZM28.196 42.5708L29.3477 49.4859L34.8581 46.18V62.7097H25.5168C25.4017 61.5127 25.0116 60.3627 24.3391 59.3523C23.624 58.2806 23.2452 57.0308 23.2452 55.742C23.2452 54.4531 23.624 53.2033 24.3379 52.1316L25.5678 50.2876V47.6129H23.2452V49.5834L22.4055 50.8422C21.4358 52.2989 20.9227 53.9932 20.9227 55.742C20.9227 57.4907 21.4358 59.185 22.4055 60.6417C22.8239 61.2683 23.0887 61.9737 23.1931 62.7097H17.4388V49.6718C17.4388 46.9523 19.2902 44.6264 21.9399 44.014L28.196 42.5708Z" fill="#666666"/>
<path d="M39.5034 51.0967H41.826V53.4193H39.5034V51.0967Z" fill="#666666"/>
<path d="M30.2129 51.0967H32.5355V53.4193H30.2129V51.0967Z" fill="#666666"/>
<path d="M6.98713 2.32258H17.4387V0H4.66455V12.7742H6.98713V2.32258Z" fill="#666666"/>
<path d="M54.6001 2.32258H65.0517V12.7742H67.3743V0H54.6001V2.32258Z" fill="#666666"/>
<path d="M6.98713 59.2258H4.66455V72H17.4387V69.6774H6.98713V59.2258Z" fill="#666666"/>
<path d="M65.0517 69.6774H54.6001V72H67.3743V59.2258H65.0517V69.6774Z" fill="#666666"/>
<path d="M8.14844 15.0967H10.471V17.4193H8.14844V15.0967Z" fill="#666666"/>
<path d="M8.14844 33.6775H10.471V36.0001H8.14844V33.6775Z" fill="#666666"/>
<path d="M8.14842 30.1936V31.3548H10.471V30.1936C10.471 28.273 12.0343 26.7097 13.9549 26.7097V24.3871C12.0343 24.3871 10.471 22.8238 10.471 20.9032V19.7419H8.14842V20.9032C8.14842 22.8238 6.5851 24.3871 4.66455 24.3871V26.7097C6.5851 26.7097 8.14842 28.273 8.14842 30.1936ZM9.30971 24.3514C9.6488 24.8073 10.0508 25.2093 10.5067 25.5484C10.0508 25.8875 9.6488 26.2895 9.30971 26.7454C8.97062 26.2895 8.5686 25.8875 8.1127 25.5484C8.5686 25.2093 8.97062 24.8073 9.30971 24.3514Z" fill="#666666"/>
<path d="M16.2778 24.3872H18.6004V26.7098H16.2778V24.3872Z" fill="#666666"/>
<path d="M0.0195312 24.3872H2.34211V26.7098H0.0195312V24.3872Z" fill="#666666"/>
<path d="M61.5679 29.0322H63.8904V31.3548H61.5679V29.0322Z" fill="#666666"/>
<path d="M61.5679 47.6128H63.8904V49.9354H61.5679V47.6128Z" fill="#666666"/>
<path d="M63.8904 34.8388V33.6775H61.5679V34.8388C61.5679 36.7593 60.0045 38.3227 58.084 38.3227V40.6452C60.0045 40.6452 61.5679 42.2086 61.5679 44.1291V45.2904H63.8904V44.1291C63.8904 42.2086 65.4538 40.6452 67.3743 40.6452V38.3227C65.4538 38.3227 63.8904 36.7593 63.8904 34.8388ZM62.7291 40.681C62.3901 40.2251 61.988 39.823 61.5321 39.4839C61.988 39.1449 62.3901 38.7428 62.7291 38.2869C63.0682 38.7428 63.4703 39.1449 63.9262 39.4839C63.4703 39.823 63.0682 40.2251 62.7291 40.681Z" fill="#666666"/>
<path d="M69.6968 38.3225H72.0194V40.6451H69.6968V38.3225Z" fill="#666666"/>
<path d="M53.439 38.3225H55.7615V40.6451H53.439V38.3225Z" fill="#666666"/>
</g>
<defs>
<clipPath id="clip0">
<rect width="72" height="72" fill="white" transform="translate(0.0195312)"/>
</clipPath>
</defs>
</svg>
