<svg width="80" height="81" viewBox="0 0 80 81" fill="none" xmlns="http://www.w3.org/2000/svg">
<g clip-path="url(#clip0)">
<path d="M23.688 65.2342C23.1295 64.9051 22.4092 65.0903 22.0798 65.6489C20.7359 67.9269 20.0254 70.528 20.0254 73.1708V79.4333C20.0254 80.0819 20.5512 80.6076 21.1997 80.6076C21.8482 80.6076 22.374 80.0819 22.374 79.4333V73.1708C22.374 70.9474 22.9716 68.759 24.1026 66.8422C24.4323 66.2837 24.2466 65.5638 23.688 65.2342Z" fill="black"/>
<path d="M52.0484 60.1441L49.2072 58.61C50.8955 57.2669 52.3767 55.6488 53.563 53.847L53.7094 53.9294C54.259 54.2391 54.9547 54.0593 55.2855 53.5223L56.6585 51.2944C60.0051 45.8639 61.282 39.4016 60.2542 33.0975C60.1498 32.4574 59.5465 32.0231 58.9063 32.1275C58.2662 32.232 57.8319 32.8354 57.9363 33.4755C58.8732 39.2221 57.7094 45.1127 54.6592 50.0623L53.8785 51.329L53.7336 51.2474C53.1727 50.9316 52.4625 51.1259 52.1406 51.6827C50.846 53.922 49.0459 55.8906 46.9326 57.3815L45.1237 56.4048V55.0554C49.5311 53.0875 52.6122 48.6658 52.6122 43.5354V31.7381C52.6122 30.8698 52.1274 30.094 51.3471 29.7132C50.5667 29.3321 49.6568 29.4279 48.9725 29.9621L47.1759 31.3647C45.623 32.5771 43.8066 33.4182 41.8923 33.8331L44.8517 30.2784C45.2667 29.7799 45.199 29.0396 44.7007 28.6247C44.2023 28.2098 43.4617 28.2774 43.0469 28.7758L38.5886 34.1306H34.3447L37.4849 30.2679C37.8941 29.7645 37.8178 29.025 37.3146 28.6159C36.8115 28.2068 36.0717 28.283 35.6627 28.7863L31.318 34.1306H29.1133C28.1624 34.1306 27.3888 34.9041 27.3888 35.8551V43.5354C27.3888 48.6049 30.3969 52.9824 34.7206 54.9845V56.4048L32.9119 57.3815C30.7983 55.8904 28.9983 53.922 27.7038 51.6827C27.3817 51.1254 26.6715 50.9314 26.1108 51.2474L25.9658 51.329L25.1851 50.0623C20.1146 41.8347 20.4225 31.4046 25.9689 23.4903C29.2025 18.8765 34.2882 16.2304 39.9222 16.2304C45.5562 16.2304 50.6418 18.8765 53.8754 23.4903C55.0049 25.1019 55.9376 26.8576 56.648 28.7086C56.8804 29.3141 57.5597 29.6163 58.1651 29.3842C58.7705 29.152 59.073 28.4728 58.8407 27.8673C58.0617 25.8372 57.0384 23.911 55.7988 22.1424C52.1196 16.8928 46.3328 13.8818 39.9223 13.8818C33.5119 13.8818 27.7251 16.8926 24.0459 22.1424C17.9607 30.8252 17.6231 42.268 23.1858 51.2945L24.5588 53.5224C24.8895 54.0593 25.5853 54.2392 26.1349 53.9295L26.2813 53.8472C27.4677 55.649 28.9489 57.267 30.6373 58.61L27.7962 60.1441C27.0581 60.5426 26.3497 61.007 25.6904 61.5238C25.1801 61.9242 25.0909 62.6623 25.4912 63.1725C25.7228 63.4678 26.0677 63.6221 26.416 63.6221C26.6696 63.6221 26.925 63.5405 27.14 63.3717C27.6945 62.9366 28.2909 62.5459 28.9121 62.2105L34.7452 59.0609C34.9962 61.6968 37.2219 63.7656 39.9226 63.7656C42.6232 63.7656 44.8491 61.6968 45.1001 59.0609L50.9332 62.2105C54.966 64.3879 57.471 68.5876 57.471 73.1704V79.433C57.471 80.0817 57.9967 80.6073 58.6453 80.6073C59.2938 80.6073 59.8196 80.0817 59.8196 79.433V73.1704C59.8188 67.7235 56.8414 62.7321 52.0484 60.1441ZM29.737 43.5357V36.4797H39.1388C42.5581 36.4797 45.9257 35.3209 48.6211 33.2165L50.2634 31.9343V43.5358C50.2634 49.195 45.6594 53.7991 40.0003 53.7991C34.3413 53.7991 29.737 49.1947 29.737 43.5357ZM39.922 61.4173C38.3489 61.4173 37.0689 60.1375 37.0689 58.5644V55.7999C38.0103 56.0249 38.991 56.1475 40.0003 56.1475C40.9538 56.1475 41.8815 56.0376 42.7751 55.8361V58.5644C42.775 60.1375 41.4951 61.4173 39.922 61.4173Z" fill="black"/>
<path d="M58.6453 22.4621C58.9234 22.4621 59.2025 22.364 59.4264 22.1643L63.9655 18.1175C65.6679 19.6147 67.8979 20.5256 70.3379 20.5256C75.666 20.5256 80.0007 16.1909 80.0007 10.8628C80.0007 5.53494 75.666 1.2002 70.3379 1.2002C65.0099 1.2002 60.6753 5.53494 60.6753 10.8628C60.6753 12.9064 61.3147 14.8027 62.4017 16.3655L57.8635 20.4115C57.3794 20.843 57.337 21.5853 57.7685 22.0695C58.0004 22.3295 58.3221 22.4621 58.6453 22.4621ZM70.3379 3.5488C74.3709 3.5488 77.6521 6.82981 77.6521 10.8628C77.6521 14.8959 74.3709 18.177 70.3379 18.177C66.3049 18.177 63.0239 14.8959 63.0239 10.8628C63.0239 6.82981 66.3049 3.5488 70.3379 3.5488Z" fill="black"/>
<path d="M70.3379 54.0742C67.8979 54.0742 65.6679 54.9851 63.9655 56.4823L59.4264 52.4355C58.9425 52.0038 58.2002 52.0466 57.7685 52.5304C57.337 53.0145 57.3794 53.7568 57.8635 54.1883L62.4017 58.2344C61.3147 59.7971 60.6753 61.6932 60.6753 63.737C60.6753 69.0651 65.01 73.3998 70.3379 73.3998C75.666 73.3998 80.0007 69.0651 80.0007 63.737C80.0007 58.4089 75.666 54.0742 70.3379 54.0742ZM70.3379 71.0512C66.3049 71.0512 63.0239 67.77 63.0239 63.737C63.0239 59.704 66.305 56.4228 70.3379 56.4228C74.3709 56.4228 77.6521 59.704 77.6521 63.737C77.6521 67.77 74.3709 71.0512 70.3379 71.0512Z" fill="black"/>
<path d="M71.7156 31.3813C68.854 31.3813 66.4605 33.4229 65.9142 36.1259H64.4477C63.7992 36.1259 63.2734 36.6515 63.2734 37.3002C63.2734 37.9488 63.7992 38.4745 64.4477 38.4745H65.9142C66.4605 41.1774 68.854 43.2188 71.7156 43.2188C74.9792 43.2188 77.6342 40.5638 77.6342 37.3002C77.6342 34.0365 74.9791 31.3813 71.7156 31.3813ZM71.7156 40.87C69.747 40.87 68.1454 39.2684 68.1454 37.3C68.1454 35.3314 69.747 33.7298 71.7156 33.7298C73.6842 33.7298 75.2856 35.3314 75.2856 37.3C75.2856 39.2686 73.684 40.87 71.7156 40.87Z" fill="black"/>
<path d="M9.6628 20.5256C12.1028 20.5256 14.3328 19.6147 16.0352 18.1175L20.5743 22.1643C20.7982 22.364 21.0772 22.4621 21.3554 22.4621C21.6784 22.4621 22.0003 22.3294 22.2324 22.0693C22.6639 21.5852 22.6215 20.8429 22.1374 20.4113L17.5992 16.3655C18.686 14.8027 19.3256 12.9066 19.3256 10.863C19.3256 9.57831 19.0763 8.32885 18.5848 7.14922C18.3354 6.55064 17.6478 6.26771 17.0492 6.51697C16.4504 6.7664 16.1675 7.45391 16.4169 8.05265C16.7886 8.94449 16.977 9.89004 16.977 10.863C16.977 14.896 13.6958 18.177 9.66296 18.177C5.62977 18.177 2.34861 14.896 2.34861 10.863C2.34861 6.82981 5.62977 3.54865 9.6628 3.54865C11.0612 3.54865 12.4219 3.9465 13.5977 4.69915C14.1439 5.04894 14.8701 4.88954 15.2198 4.34326C15.5694 3.79713 15.41 3.07078 14.8639 2.72131C13.3092 1.72628 11.5107 1.2002 9.6628 1.2002C4.33475 1.20004 0 5.53494 0 10.863C0 16.1909 4.33475 20.5256 9.6628 20.5256Z" fill="black"/>
<path d="M22.1372 54.1883C22.6213 53.7568 22.6638 53.0144 22.2322 52.5303C21.8006 52.0462 21.0584 52.0036 20.5743 52.4354L16.0352 56.4822C14.3328 54.9851 12.1028 54.0741 9.6628 54.0741C4.33475 54.074 0 58.4087 0 63.7368C0 69.0648 4.33475 73.3996 9.6628 73.3996C14.9909 73.3996 19.3254 69.0648 19.3254 63.7368C19.3254 61.6932 18.686 59.7969 17.5991 58.2341L22.1372 54.1883ZM9.6628 71.0509C5.62977 71.0509 2.34861 67.7698 2.34861 63.7368C2.34861 59.7037 5.62977 56.4226 9.6628 56.4226C13.6958 56.4226 16.9768 59.7037 16.9768 63.7368C16.9768 67.7698 13.6958 71.0509 9.6628 71.0509Z" fill="black"/>
<path d="M14.0853 36.1259C13.539 33.4229 11.1454 31.3813 8.28388 31.3813C5.02026 31.3813 2.36523 34.0365 2.36523 37.3002C2.36523 40.5638 5.02041 43.2188 8.28388 43.2188C11.1454 43.2188 13.539 41.1774 14.0853 38.4745H15.5517C16.2003 38.4745 16.726 37.9488 16.726 37.3002C16.726 36.6515 16.2003 36.1259 15.5517 36.1259H14.0853ZM8.28388 40.87C6.31528 40.87 4.71384 39.2684 4.71384 37.3C4.71384 35.3314 6.31544 33.7298 8.28388 33.7298C10.2523 33.7298 11.8541 35.3314 11.8541 37.3C11.8539 39.2686 10.2523 40.87 8.28388 40.87Z" fill="black"/>
</g>
<defs>
<clipPath id="clip0">
<rect width="80" height="80" fill="white" transform="translate(0 0.903809)"/>
</clipPath>
</defs>
</svg>
