<svg width="85" height="83" viewBox="0 0 85 83" fill="none" xmlns="http://www.w3.org/2000/svg">
<path d="M21.7559 23.3438C22.4807 23.3438 23.0684 22.7631 23.0684 22.0469C23.0684 21.3306 22.4807 20.75 21.7559 20.75C21.031 20.75 20.4434 21.3306 20.4434 22.0469C20.4434 22.7631 21.031 23.3438 21.7559 23.3438Z" fill="black"/>
<path d="M32.2559 23.3438C32.9807 23.3438 33.5684 22.7631 33.5684 22.0469C33.5684 21.3306 32.9807 20.75 32.2559 20.75C31.531 20.75 30.9434 21.3306 30.9434 22.0469C30.9434 22.7631 31.531 23.3438 32.2559 23.3438Z" fill="black"/>
<path d="M29.6309 24.6406V20.75H27.0059V24.6406C27.0055 24.9845 26.8671 25.3141 26.621 25.5572C26.3749 25.8003 26.0413 25.9371 25.6934 25.9375H24.3809V28.5312H25.6934C26.7373 28.5301 27.7381 28.1198 28.4763 27.3904C29.2145 26.661 29.6297 25.6721 29.6309 24.6406Z" fill="black"/>
<path d="M20.582 31.705C21.0824 32.7022 21.8555 33.5409 22.8137 34.126C23.7719 34.7112 24.8769 35.0193 26.0033 35.0156H29.6309V32.4218H26.0033C25.3647 32.424 24.7383 32.2493 24.195 31.9175C23.6518 31.5858 23.2135 31.1103 22.9299 30.5449L20.582 31.705Z" fill="black"/>
<path d="M50.6309 53.1719V49.2813C50.6285 47.2183 49.7981 45.2404 48.3217 43.7817C46.8454 42.3229 44.8437 41.5023 42.7559 41.5H38.8184V37.4748C39.9851 37.2326 41.0591 36.6705 41.9175 35.853C42.7759 35.0356 43.3839 33.9957 43.6718 32.8526L43.807 32.3174C44.9918 32.0765 46.0562 31.4394 46.821 30.5135C47.5858 29.5876 48.0043 28.4295 48.0059 27.2344V15.5625C48.0043 14.1872 47.4506 12.8686 46.4664 11.8961C45.4822 10.9236 44.1478 10.3766 42.7559 10.375C42.0599 10.3742 41.3927 10.1007 40.9006 9.61447C40.4085 9.12822 40.1317 8.46894 40.1309 7.78128C40.1293 6.40595 39.5756 5.08739 38.5914 4.11489C37.6072 3.14238 36.2728 2.59534 34.8809 2.59378H31.2532C29.6646 2.58878 28.1383 3.20353 27.0059 4.3044C25.8735 3.20353 24.3471 2.58878 22.7585 2.59378H19.1309C17.739 2.59534 16.4045 3.14238 15.4203 4.11489C14.4361 5.08739 13.8824 6.40595 13.8809 7.78128C13.8801 8.46894 13.6032 9.12822 13.1111 9.61447C12.619 10.1007 11.9518 10.3742 11.2559 10.375C9.86396 10.3766 8.52952 10.9236 7.54529 11.8961C6.56107 12.8686 6.00744 14.1872 6.00586 15.5625V27.2344C6.00743 28.4295 6.42587 29.5876 7.1907 30.5135C7.95552 31.4394 9.01996 32.0765 10.2047 32.3174L10.3401 32.8527C10.628 33.9958 11.2359 35.0357 12.0943 35.8531C12.9526 36.6706 14.0267 37.2326 15.1934 37.4748V41.5H11.2559C9.168 41.5023 7.16632 42.3229 5.68998 43.7817C4.21364 45.2404 3.3832 47.2183 3.38086 49.2813V53.1719C3.38083 53.4713 3.48568 53.7615 3.67758 53.9931L13.7362 66.1407H9.94336C9.72729 66.1407 9.51456 66.1934 9.32405 66.2941C9.13355 66.3949 8.97116 66.5405 8.85132 66.7182L6.22632 70.6088C6.08258 70.8218 6.00587 71.0721 6.00586 71.3282V79.1094C6.00586 79.4534 6.14415 79.7832 6.39029 80.0264C6.63643 80.2696 6.97026 80.4063 7.31836 80.4063H46.6934C47.0415 80.4063 47.3753 80.2696 47.6214 80.0264C47.8676 79.7832 48.0059 79.4534 48.0059 79.1094V71.3282C48.0059 71.0721 47.9291 70.8218 47.7854 70.6088L45.1604 66.7182C45.0406 66.5405 44.8782 66.3949 44.6877 66.2941C44.4972 66.1934 44.2844 66.1407 44.0684 66.1407H40.2755L50.3341 53.9931C50.526 53.7615 50.6309 53.4713 50.6309 53.1719ZM17.8184 18.1269C18.5217 18.047 19.19 17.7801 19.7519 17.3546C20.3139 16.9291 20.7485 16.3609 21.0096 15.7106L21.9919 13.2842L23.0386 15.008C23.624 15.9661 24.4493 16.759 25.4349 17.3104C26.4205 17.8618 27.5333 18.1531 28.6659 18.1563H36.1934V29.8282C36.1934 32.2358 35.2254 34.5449 33.5024 36.2474C31.7794 37.9498 29.4425 38.9063 27.0059 38.9063C24.5692 38.9063 22.2323 37.9498 20.5093 36.2474C18.7863 34.5449 17.8184 32.2358 17.8184 29.8282V18.1269ZM12.8867 32.2236L12.5293 30.8105C12.4583 30.5299 12.2944 30.2809 12.0636 30.1029C11.8329 29.9249 11.5486 29.8282 11.2559 29.8282C10.5599 29.8274 9.89269 29.5538 9.40058 29.0676C8.90847 28.5813 8.63166 27.9221 8.63086 27.2344V15.5625C8.63166 14.8749 8.90847 14.2156 9.40058 13.7293C9.89269 13.2431 10.5599 12.9696 11.2559 12.9688C12.6478 12.9672 13.9822 12.4202 14.9664 11.4477C15.9507 10.4752 16.5043 9.15661 16.5059 7.78128C16.5067 7.09362 16.7835 6.43434 17.2756 5.94809C17.7677 5.46184 18.4349 5.18832 19.1309 5.18753H22.7585C23.3971 5.18541 24.0235 5.36012 24.5668 5.69187C25.11 6.02361 25.5483 6.49911 25.8319 7.06445C25.941 7.27985 26.1085 7.46101 26.3159 7.58761C26.5232 7.71422 26.7621 7.78128 27.0059 7.78128C27.2496 7.78128 27.4885 7.71422 27.6959 7.58761C27.9032 7.46101 28.0708 7.27985 28.1798 7.06445C28.4634 6.49911 28.9017 6.02361 29.445 5.69187C29.9882 5.36012 30.6146 5.18541 31.2532 5.18753H34.8809C35.5768 5.18832 36.244 5.46184 36.7361 5.94809C37.2282 6.43434 37.5051 7.09362 37.5059 7.78128C37.5074 9.15661 38.0611 10.4752 39.0453 11.4477C40.0295 12.4202 41.364 12.9672 42.7559 12.9688C43.4518 12.9696 44.119 13.2431 44.6111 13.7293C45.1032 14.2156 45.3801 14.8749 45.3809 15.5625V27.2344C45.3801 27.9221 45.1032 28.5813 44.6111 29.0676C44.119 29.5538 43.4518 29.8274 42.7559 29.8282C42.4631 29.8282 42.1788 29.9249 41.9481 30.1029C41.7174 30.2809 41.5535 30.5299 41.4825 30.8105L41.1252 32.2235C40.9791 32.8022 40.6928 33.3372 40.2909 33.7823C39.8891 34.2274 39.3837 34.5693 38.8184 34.7785V18.1563H41.4434V15.5625H28.6659C27.9863 15.5606 27.3187 15.3859 26.7273 15.055C26.136 14.7242 25.6409 14.2484 25.2896 13.6736L22.8814 9.70775C22.7556 9.50063 22.5738 9.33233 22.3564 9.22182C22.139 9.11131 21.8947 9.06298 21.6511 9.08227C21.4074 9.10157 21.174 9.18772 20.9772 9.33103C20.7804 9.47433 20.628 9.6691 20.5372 9.89337L18.5723 14.7473C18.4756 14.9885 18.3076 15.1952 18.0902 15.3407C17.8728 15.4861 17.6161 15.5634 17.3536 15.5625H12.5684V18.1563H15.1934V34.7785C14.6281 34.5694 14.1227 34.2275 13.7209 33.7824C13.319 33.3373 13.0328 32.8024 12.8867 32.2236ZM45.3809 71.7208V77.8125H8.63086V71.7208L10.6458 68.7344H43.366L45.3809 71.7208ZM48.0059 52.709L36.8839 66.1407H17.1278L6.00586 52.709V49.2813C6.00744 47.9059 6.56107 46.5874 7.54529 45.6149C8.52952 44.6424 9.86396 44.0953 11.2559 44.0938H16.5059C16.854 44.0938 17.1878 43.9571 17.4339 43.7139C17.6801 43.4707 17.8184 43.1409 17.8184 42.7969V37.1531C18.9236 38.5101 20.3227 39.605 21.9126 40.3573C23.5026 41.1095 25.243 41.5 27.0059 41.5C28.7687 41.5 30.5091 41.1095 32.0991 40.3573C33.6891 39.605 35.0881 38.5101 36.1934 37.1531V42.7969C36.1934 43.1409 36.3316 43.4707 36.5778 43.7139C36.8239 43.9571 37.1578 44.0938 37.5059 44.0938H42.7559C44.1478 44.0953 45.4822 44.6424 46.4664 45.6149C47.4506 46.5874 48.0043 47.9059 48.0059 49.2813V52.709Z" fill="black"/>
<path d="M32.0038 48.139C32.7243 46.486 33.2032 44.7403 33.4262 42.9541L30.8208 42.6394C30.4164 45.8585 29.0606 48.8884 26.9229 51.3503C26.1996 50.3125 25.232 49.464 24.1032 48.8777C22.9745 48.2913 21.7186 47.9847 20.4434 47.9843H15.1934V50.578H20.4434C21.8353 50.5796 23.1697 51.1266 24.1539 52.0991C25.1382 53.0716 25.6918 54.3902 25.6934 55.7655V58.3593H28.3184V55.7655C28.3199 54.3902 28.8736 53.0716 29.8578 52.0991C30.842 51.1266 32.1765 50.5796 33.5684 50.578H38.8184V47.9843H33.5684C33.0429 47.9842 32.5188 48.036 32.0038 48.139Z" fill="black"/>
<path d="M80.8184 2.59375H42.7559V5.1875H77.6497L73.7122 9.07812H48.0059V11.6719H72.9434V37.683L65.8313 32.6635C65.633 32.5234 65.3991 32.4408 65.1558 32.4247C64.9126 32.4087 64.6697 32.4599 64.4542 32.5726L54.9772 37.5302L48.8778 32.173L47.134 34.1117L52.5009 38.8255L48.7042 40.8116L49.9325 43.1039L64.9655 35.24L72.9434 40.8706V50.5781H53.2559V53.1719H73.7122L77.6497 57.0625H50.6309V59.6562H80.8184C81.1665 59.6562 81.5003 59.5196 81.7464 59.2764C81.9926 59.0332 82.1309 58.7033 82.1309 58.3594V3.89062C82.1309 3.54667 81.9926 3.21681 81.7464 2.9736C81.5003 2.73039 81.1665 2.59375 80.8184 2.59375ZM75.5684 10.9122L79.5059 7.02161V55.2284L75.5684 51.3378V10.9122Z" fill="black"/>
<path d="M63.7559 24.6406C63.7559 23.3581 63.371 22.1045 62.6499 21.0381C61.9288 19.9718 60.9039 19.1406 59.7047 18.6498C58.5056 18.1591 57.1861 18.0306 55.9131 18.2808C54.6401 18.531 53.4708 19.1486 52.553 20.0555C51.6352 20.9623 51.0102 22.1177 50.757 23.3756C50.5037 24.6334 50.6337 25.9372 51.1304 27.1221C51.6271 28.307 52.4682 29.3197 53.5474 30.0322C54.6266 30.7447 55.8954 31.125 57.1934 31.125C58.9332 31.123 60.6013 30.4392 61.8316 29.2236C63.0619 28.008 63.7539 26.3598 63.7559 24.6406ZM53.2559 24.6406C53.2559 23.8711 53.4868 23.1189 53.9195 22.4791C54.3521 21.8393 54.9671 21.3406 55.6866 21.0462C56.406 20.7517 57.1977 20.6746 57.9615 20.8248C58.7253 20.9749 59.4269 21.3454 59.9776 21.8895C60.5283 22.4337 60.9033 23.1269 61.0552 23.8816C61.2071 24.6363 61.1292 25.4186 60.8311 26.1295C60.5331 26.8404 60.0284 27.4481 59.3809 27.8756C58.7334 28.3031 57.9721 28.5313 57.1934 28.5313C56.1494 28.5301 55.1486 28.1198 54.4105 27.3904C53.6723 26.661 53.2571 25.6721 53.2559 24.6406Z" fill="black"/>
</svg>
