<svg width="89" height="88" viewBox="0 0 89 88" fill="none" xmlns="http://www.w3.org/2000/svg">
<path d="M73.0898 63.438V65.7846C73.0898 66.4326 73.6146 66.958 74.2632 66.958C74.9117 66.958 75.4365 66.4326 75.4365 65.7846V63.438C75.4365 62.79 74.9117 62.2646 74.2632 62.2646C73.6146 62.2646 73.0898 62.79 73.0898 63.438Z" fill="black"/>
<path d="M74.2632 69.3047C73.6146 69.3047 73.0898 69.83 73.0898 70.478V72.8247C73.0898 73.4727 73.6146 73.998 74.2632 73.998C74.9117 73.998 75.4365 73.4727 75.4365 72.8247V70.478C75.4365 69.83 74.9117 69.3047 74.2632 69.3047Z" fill="black"/>
<path d="M71.9145 66.958H69.5679C68.9193 66.958 68.3945 67.4834 68.3945 68.1313C68.3945 68.7793 68.9193 69.3047 69.5679 69.3047H71.9145C72.5631 69.3047 73.0879 68.7793 73.0879 68.1313C73.0879 67.4834 72.5631 66.958 71.9145 66.958Z" fill="black"/>
<path d="M78.9536 66.958H76.6069C75.9584 66.958 75.4336 67.4834 75.4336 68.1313C75.4336 68.7793 75.9584 69.3047 76.6069 69.3047H78.9536C79.6022 69.3047 80.1269 68.7793 80.1269 68.1313C80.1269 67.4834 79.6022 66.958 78.9536 66.958Z" fill="black"/>
<path d="M69.3406 58.7294C69.3406 58.0366 68.7789 57.4749 68.0863 57.4749C67.3935 57.4749 66.832 58.0366 66.832 58.7294C66.832 59.4223 67.3935 59.9837 68.0863 59.9837C68.7786 59.9837 69.3406 59.4223 69.3406 58.7294Z" fill="black"/>
<path d="M68.9904 36.156C68.3213 22.0194 57.5263 10.5782 43.8796 9.54276C36.9381 9.01975 30.3026 11.2277 25.1945 15.7702C19.6567 20.6956 16.2625 28.0618 15.8524 36.0214L9.86991 47.7949C9.84585 47.843 9.82415 47.8929 9.80684 47.9433C9.49972 48.8312 9.58449 49.8104 10.0395 50.6297C10.4806 51.4255 11.2357 51.9978 12.1101 52.1984L16.5893 53.2286L17.8418 67.4295C18.0137 69.0886 19.3739 70.3393 21.0066 70.3393C21.0491 70.3393 21.0925 70.337 21.1351 70.3326L30.4736 69.3024V77.36C30.4736 78.0079 30.9984 78.5333 31.647 78.5333C32.2955 78.5333 32.8203 78.0079 32.8203 77.36V67.9927C32.8203 67.6591 32.6783 67.3412 32.4296 67.1188C32.1808 66.8953 31.8453 66.7912 31.5188 66.8261L20.9564 67.9909C20.5531 67.9651 20.2219 67.6295 20.1785 67.2059L18.8529 52.1732C18.8084 51.6666 18.4423 51.2463 17.9465 51.1321L12.6357 49.9113C12.3263 49.8403 12.1626 49.618 12.0925 49.4912C11.9711 49.273 11.9411 49.014 12.0065 48.7717L17.919 37.1352C18.0783 36.9398 18.1721 36.6969 18.1824 36.4414C18.4907 28.9908 21.6141 22.0957 26.7545 17.5238C31.3836 13.408 37.3945 11.404 43.7036 11.883C56.1702 12.829 66.0336 23.3121 66.6466 36.2669C66.9675 43.0708 64.7435 49.6089 60.3845 54.6771C58.6064 56.7442 57.6266 59.3956 57.6266 62.1427L57.6255 77.3594C57.6255 78.0076 58.1511 78.5333 58.7994 78.5333C59.4476 78.5333 59.9733 78.0076 59.9733 77.3594V62.1427C59.9733 59.9571 60.7512 57.8492 62.163 56.2074C66.9141 50.6822 69.3388 43.5615 68.9904 36.156Z" fill="black"/>
<path d="M53.6161 19.8339C53.0764 19.4746 52.3489 19.6207 51.9902 20.1604C51.6303 20.7001 51.7769 21.4282 52.3167 21.7875C57.2403 25.0641 60.1795 30.5456 60.1795 36.4513C60.1795 46.1559 52.2847 54.0513 42.5795 54.0513C32.8743 54.0513 24.9795 46.1559 24.9795 36.4513C24.9795 26.7466 32.8743 18.8513 42.5795 18.8513C44.6982 18.8513 46.7686 19.2232 48.7336 19.9571C49.342 20.1833 50.0181 19.8759 50.2428 19.2678C50.4696 18.6606 50.1616 17.985 49.5541 17.7583C47.3253 16.9264 44.9787 16.5049 42.5795 16.5049C31.5807 16.5049 22.6328 25.4527 22.6328 36.4515C22.6328 47.4504 31.5807 56.3982 42.5795 56.3982C53.5783 56.3982 62.5261 47.4504 62.5261 36.4515C62.5261 29.7586 59.1953 23.5463 53.6161 19.8339Z" fill="black"/>
<path d="M77.7822 20.0246C77.7822 18.0837 76.2032 16.5046 74.2622 16.5046C72.3212 16.5046 70.7422 18.0837 70.7422 20.0246C70.7422 21.9656 72.3212 23.5446 74.2622 23.5446C76.2032 23.5446 77.7822 21.9659 77.7822 20.0246ZM73.0889 20.0246C73.0889 19.3778 73.6148 18.8513 74.2622 18.8513C74.9096 18.8513 75.4355 19.3778 75.4355 20.0246C75.4355 20.6714 74.9096 21.198 74.2622 21.198C73.6148 21.198 73.0889 20.6714 73.0889 20.0246Z" fill="black"/>
<path d="M42.0116 22.5192L31.4516 28.3858C31.0791 28.5926 30.8477 28.9851 30.8477 29.4113V42.318C30.8477 42.7442 31.0791 43.1367 31.4516 43.3435L42.0116 49.2102C42.1882 49.3087 42.385 49.358 42.581 49.358C42.7769 49.358 42.9741 49.3087 43.1504 49.2102L53.7104 43.3435C54.0829 43.1367 54.3143 42.7442 54.3143 42.318V29.4113C54.3143 28.9851 54.0829 28.5926 53.7104 28.3858L43.1504 22.5192C42.7975 22.3221 42.3645 22.3221 42.0116 22.5192ZM42.581 24.8873L50.7254 29.4116L42.581 33.9357L34.4366 29.4116L42.581 24.8873ZM33.1943 31.4051L41.4077 35.9682V46.1906L33.1943 41.6278V31.4051ZM43.7543 46.1906V35.9682L51.9677 31.4051V41.6278L43.7543 46.1906Z" fill="black"/>
</svg>
