<svg width="81" height="81" viewBox="0 0 81 81" fill="none" xmlns="http://www.w3.org/2000/svg">
<g clip-path="url(#clip0)">
<path d="M53.3086 39.1189C54.1715 39.1189 54.8711 38.4193 54.8711 37.5564C54.8711 36.6935 54.1715 35.9939 53.3086 35.9939C52.4456 35.9939 51.7461 36.6935 51.7461 37.5564C51.7461 38.4193 52.4456 39.1189 53.3086 39.1189Z" fill="#0A1124"/>
<path d="M53.5772 44.2515C52.7243 44.1248 51.9291 44.7146 51.8027 45.5682C51.3757 48.4518 48.9382 50.8434 45.2825 51.9659C41.3752 53.1657 35.9516 52.7635 32.643 49.1606C32.0593 48.5249 31.0708 48.4831 30.4353 49.0665C29.7997 49.6503 29.7577 50.6387 30.3413 51.2742C32.2566 53.36 34.858 54.7815 37.8643 55.3851C38.9258 55.5982 40.0271 55.704 41.1355 55.704C42.8477 55.704 44.5768 55.4517 46.1999 54.9532C51.0358 53.4684 54.286 50.1312 54.8939 46.026C55.0203 45.1724 54.4308 44.3779 53.5772 44.2515Z" fill="#0A1124"/>
<path d="M75.2947 30.4331C72.4547 27.1408 68.535 25.0061 63.8169 24.1487C68.3341 21.1003 72.2304 18.0666 75.0085 15.4194C79.2443 11.3833 80.6646 8.54702 79.4786 6.49405C78.159 4.20749 74.3494 4.22327 67.4891 6.54421C61.6927 8.50515 54.4718 11.9109 47.1568 16.1344C45.8932 16.8637 44.6414 17.6106 43.4168 18.3633C42.5085 15.7981 43.1075 12.868 45.1116 10.3272C46.6127 8.42405 46.9479 6.00687 45.9864 4.01858C44.9786 1.93468 42.7668 0.687021 40.066 0.681396H39.9925C30.4604 0.681396 21.1368 4.44249 13.7394 11.2719C6.33285 18.1097 1.79847 27.1616 0.971597 36.7598C-0.0232467 48.3192 3.67175 59.3089 11.3757 67.7044C18.9435 75.9516 29.6724 80.6814 40.8113 80.6814C46.8082 80.6814 52.4379 79.5842 57.5436 77.42C62.2124 75.4411 66.3583 72.6155 69.8664 69.0212C73.1191 65.6886 75.6836 61.8522 77.4888 57.6183C79.2066 53.5895 80.145 49.3201 80.2032 45.2719C80.2877 39.3847 78.5904 34.2536 75.2947 30.4331ZM43.5994 21.9295C45.2532 20.8866 46.9755 19.8473 48.7191 18.8408C55.4825 14.9358 62.2175 11.7194 67.6836 9.7839C73.7008 7.65343 76.1644 7.79249 76.7388 8.06749C76.6891 8.43108 76.2375 10.0487 72.2889 13.685C68.9918 16.7214 64.1769 20.2922 58.7314 23.7395C57.01 24.8297 55.2185 25.9131 53.4068 26.9594C50.9091 28.4009 48.4133 29.7489 45.9638 30.9831C45.475 29.5567 44.8486 28.1725 44.0863 26.8519C43.3474 25.572 42.4903 24.3705 41.5324 23.2587C42.2104 22.8144 42.9002 22.37 43.5994 21.9295ZM43.1329 32.3692C38.7208 34.4616 34.6724 36.0567 31.4394 36.982C31.2711 36.1737 30.9752 35.3925 30.5554 34.6647C30.1574 33.9748 29.6582 33.3581 29.0811 32.8262C31.5014 30.4905 34.908 27.7842 38.9193 25.0156C39.8505 26.0564 40.6761 27.1948 41.38 28.4141C42.108 29.675 42.6939 31.0012 43.1329 32.3692ZM77.0785 45.227C76.8557 60.7752 62.9264 77.5564 40.8113 77.5564C30.5454 77.5564 20.6558 73.1955 13.6783 65.5917C6.57316 57.8489 3.16644 47.7047 4.08519 37.028C5.66316 18.7095 21.7711 3.8064 39.9925 3.8064H40.0627C41.5575 3.80952 42.6913 4.38265 43.173 5.37905C43.616 6.29499 43.4235 7.42124 42.6578 8.39187C39.8418 11.9622 39.1355 16.3533 40.7266 20.0556C39.8889 20.5953 39.0657 21.1373 38.2702 21.675C38.2664 21.6775 38.2627 21.68 38.2591 21.6825C33.2905 25.0351 29.0949 28.37 26.3033 31.1764C24.1861 30.4528 21.8599 30.6637 19.8827 31.805C16.6364 33.6801 12.3739 42.4184 11.5525 44.1511C11.3325 44.6148 11.3546 45.1572 11.6111 45.6017C11.8678 46.0462 12.3264 46.3364 12.838 46.378C13.7016 46.448 16.1539 46.6248 18.8835 46.6248C22.1957 46.6248 25.9157 46.3642 27.6954 45.3362C29.6232 44.2234 30.9594 42.3641 31.4222 40.2266C35.2539 39.2208 40.2603 37.2531 45.6825 34.6114C48.7205 33.1328 51.8449 31.4689 54.9693 29.6658C56.5541 28.7505 58.121 27.8069 59.6438 26.8551C59.653 26.8556 59.6619 26.857 59.6711 26.8573C72.6944 27.2308 77.2024 36.5914 77.0785 45.227ZM28.4691 38.8642C28.3691 40.4356 27.496 41.8431 26.1329 42.63C24.6552 43.4836 19.5789 43.5986 15.411 43.408C17.3289 39.7042 19.9663 35.3658 21.4455 34.5114C22.8421 33.7051 24.5305 33.6698 25.963 34.4172C26.7504 34.8272 27.4022 35.4526 27.8485 36.2262C28.3127 37.0309 28.5272 37.9431 28.4691 38.8642Z" fill="#0A1124"/>
<path d="M28.3105 10.3438C24.8643 10.3438 22.0605 13.1475 22.0605 16.5937C22.0605 20.04 24.8643 22.8437 28.3105 22.8437C31.7568 22.8437 34.5605 20.04 34.5605 16.5937C34.5605 13.1475 31.7568 10.3438 28.3105 10.3438ZM28.3105 19.7187C26.5874 19.7187 25.1855 18.3169 25.1855 16.5937C25.1855 14.8706 26.5874 13.4687 28.3105 13.4687C30.0337 13.4687 31.4355 14.8706 31.4355 16.5937C31.4355 18.3169 30.0337 19.7187 28.3105 19.7187Z" fill="#0A1124"/>
<path d="M20.498 52.3298C17.0518 52.3298 14.248 55.1336 14.248 58.5798C14.248 62.0261 17.0518 64.8298 20.498 64.8298C23.9443 64.8298 26.748 62.0261 26.748 58.5798C26.748 55.1336 23.9443 52.3298 20.498 52.3298ZM20.498 61.7048C18.7749 61.7048 17.373 60.303 17.373 58.5798C17.373 56.8567 18.7749 55.4548 20.498 55.4548C22.2212 55.4548 23.623 56.8567 23.623 58.5798C23.623 60.303 22.2212 61.7048 20.498 61.7048Z" fill="#0A1124"/>
<path d="M36.123 61.7048C32.6768 61.7048 29.873 64.5086 29.873 67.9548C29.873 71.4011 32.6768 74.2048 36.123 74.2048C39.5693 74.2048 42.373 71.4011 42.373 67.9548C42.373 64.5086 39.5693 61.7048 36.123 61.7048ZM36.123 71.0798C34.3999 71.0798 32.998 69.678 32.998 67.9548C32.998 66.2317 34.3999 64.8298 36.123 64.8298C37.8462 64.8298 39.248 66.2317 39.248 67.9548C39.248 69.678 37.8462 71.0798 36.123 71.0798Z" fill="#0A1124"/>
<path d="M54.873 58.5798C51.4268 58.5798 48.623 61.3836 48.623 64.8298C48.623 68.2761 51.4268 71.0798 54.873 71.0798C58.3193 71.0798 61.123 68.2761 61.123 64.8298C61.123 61.3836 58.3193 58.5798 54.873 58.5798ZM54.873 67.9548C53.1499 67.9548 51.748 66.553 51.748 64.8298C51.748 63.1067 53.1499 61.7048 54.873 61.7048C56.5962 61.7048 57.998 63.1067 57.998 64.8298C57.998 66.553 56.5962 67.9548 54.873 67.9548Z" fill="#0A1124"/>
<path d="M67.373 42.9548C63.9268 42.9548 61.123 45.7586 61.123 49.2048C61.123 52.6511 63.9268 55.4548 67.373 55.4548C70.8193 55.4548 73.623 52.6511 73.623 49.2048C73.623 45.7586 70.8193 42.9548 67.373 42.9548ZM67.373 52.3298C65.6499 52.3298 64.248 50.928 64.248 49.2048C64.248 47.4817 65.6499 46.0798 67.373 46.0798C69.0962 46.0798 70.498 47.4817 70.498 49.2048C70.498 50.928 69.0962 52.3298 67.373 52.3298Z" fill="#0A1124"/>
</g>
<defs>
<clipPath id="clip0">
<rect width="80" height="80" fill="white" transform="translate(0.509766 0.681396)"/>
</clipPath>
</defs>
</svg>
