<svg width="81" height="81" viewBox="0 0 81 81" fill="none" xmlns="http://www.w3.org/2000/svg">
<g clip-path="url(#clip0)">
<path d="M75.1028 16.4114C72.1614 16.4114 69.7695 18.8034 69.7695 21.7447C69.7695 24.6859 72.1616 27.0779 75.1028 27.0779C78.0441 27.0779 80.4361 24.6861 80.4361 21.7447C80.4361 18.8034 78.0441 16.4114 75.1028 16.4114ZM75.1028 24.4114C73.6322 24.4114 72.4361 23.2154 72.4361 21.7447C72.4361 20.274 73.632 19.0779 75.1028 19.0779C76.5736 19.0779 77.7695 20.2739 77.7695 21.7447C77.7694 23.2154 76.5734 24.4114 75.1028 24.4114Z" fill="black"/>
<path d="M5.76883 60.4114C2.82758 60.4114 0.435547 62.8034 0.435547 65.7447C0.435547 68.6859 2.82758 71.0779 5.76883 71.0779C8.71023 71.0779 11.1021 68.6859 11.1021 65.7447C11.1021 62.8034 8.71023 60.4114 5.76883 60.4114ZM5.76883 68.4114C4.2982 68.4114 3.10211 67.2154 3.10211 65.7447C3.10211 64.2739 4.29805 63.0779 5.76883 63.0779C7.23945 63.0779 8.43555 64.2739 8.43555 65.7447C8.43555 67.2154 7.23961 68.4114 5.76883 68.4114Z" fill="black"/>
<path d="M72.5169 18.0965L61.0143 12.5432C60.3502 12.2218 59.5543 12.5018 59.2343 13.1647C58.9143 13.8273 59.1929 14.6247 59.8557 14.9447L71.3583 20.4979C71.5451 20.5886 71.7424 20.6312 71.9369 20.6312C72.4329 20.6312 72.909 20.3539 73.1382 19.8765C73.4582 19.2139 73.1796 18.4165 72.5169 18.0965Z" fill="black"/>
<path d="M60.4348 69.7446C57.4934 69.7446 55.1016 72.1367 55.1016 75.0779C55.1016 78.0192 57.4934 80.4113 60.4348 80.4113C63.3763 80.4113 65.7681 78.0193 65.7681 75.0781C65.7681 72.1368 63.3763 69.7446 60.4348 69.7446ZM60.4348 77.7446C58.9642 77.7446 57.7681 76.5487 57.7681 75.0779C57.7681 73.6071 58.9642 72.4113 60.4348 72.4113C61.9055 72.4113 63.1016 73.6073 63.1016 75.0781C63.1016 76.5488 61.9055 77.7446 60.4348 77.7446Z" fill="black"/>
<path d="M57.8509 71.4302L46.3483 65.877C45.6842 65.5555 44.8883 65.8343 44.5683 66.4984C44.2483 67.161 44.5269 67.9584 45.1897 68.2784L56.6923 73.8316C56.8791 73.9223 57.0764 73.9649 57.2709 73.9649C57.7669 73.9649 58.243 73.6876 58.4723 73.2102C58.7922 72.5474 58.5136 71.7502 57.8509 71.4302Z" fill="black"/>
<path d="M40.4348 36.4114C37.4934 36.4114 35.1016 38.8034 35.1016 41.7447C35.1016 44.6861 37.4936 47.0779 40.4348 47.0779C43.3762 47.0779 45.7681 44.6859 45.7681 41.7447C45.7681 38.8034 43.3762 36.4114 40.4348 36.4114ZM40.4348 44.4114C38.9642 44.4114 37.7681 43.2154 37.7681 41.7447C37.7681 40.274 38.9641 39.0779 40.4348 39.0779C41.9055 39.0779 43.1016 40.2739 43.1016 41.7447C43.1016 43.2154 41.9055 44.4114 40.4348 44.4114Z" fill="black"/>
<path d="M38.0912 38.2461L29.2552 31.3594C28.6738 30.91 27.8366 31.01 27.3832 31.5914C26.9312 32.1728 27.0338 33.01 27.6152 33.4634L36.4512 40.3501C36.6952 40.5395 36.9832 40.6316 37.2699 40.6316C37.6673 40.6316 38.0593 40.4556 38.3232 40.1183C38.7752 39.5367 38.6726 38.6994 38.0912 38.2461Z" fill="black"/>
<path d="M64.4362 35.0781C56.3495 35.0781 49.7695 41.6581 49.7695 49.7448C49.7695 57.8316 56.3495 64.4116 64.4362 64.4116C72.523 64.4116 79.103 57.8316 79.103 49.7448C79.103 41.6581 72.523 35.0781 64.4362 35.0781ZM64.4362 61.7447C57.8189 61.7447 52.4362 56.362 52.4362 49.7447C52.4362 43.1273 57.8189 37.7447 64.4362 37.7447C71.0536 37.7447 76.4362 43.1273 76.4362 49.7447C76.4362 56.362 71.0536 61.7447 64.4362 61.7447Z" fill="black"/>
<path d="M64.4348 40.4114C61.4934 40.4114 59.1016 42.8034 59.1016 45.7447C59.1016 48.6861 61.4936 51.0779 64.4348 51.0779C67.3763 51.0779 69.7681 48.6859 69.7681 45.7447C69.7681 42.8034 67.3763 40.4114 64.4348 40.4114ZM64.4348 48.4114C62.9642 48.4114 61.7681 47.2154 61.7681 45.7447C61.7681 44.274 62.9641 43.0779 64.4348 43.0779C65.9055 43.0779 67.1016 44.2739 67.1016 45.7447C67.1016 47.2154 65.9055 48.4114 64.4348 48.4114Z" fill="black"/>
<path d="M68.3035 53.7446H60.5676C58.289 53.7446 56.4355 55.5487 56.4355 57.7646V61.2793C56.4355 61.7553 56.6888 62.1953 57.1009 62.434C59.3355 63.7273 61.8715 64.4113 64.4355 64.4113C66.9996 64.4113 69.5355 63.7273 71.7702 62.434C72.1823 62.1967 72.4355 61.7553 72.4355 61.2807V57.766C72.4355 55.5487 70.5823 53.7446 68.3035 53.7446ZM69.7688 60.4846C66.4502 62.1379 62.4209 62.1379 59.1021 60.4846V57.766C59.1021 57.0193 59.7595 56.4113 60.5674 56.4113H68.3034C69.1113 56.4113 69.7687 57.0193 69.7687 57.766V60.4846H69.7688Z" fill="black"/>
<path d="M32.4343 51.0781C24.3476 51.0781 17.7676 57.6581 17.7676 65.7448C17.7676 73.8315 24.3476 80.4114 32.4343 80.4114C40.521 80.4114 47.101 73.8314 47.101 65.7447C47.101 57.658 40.521 51.0781 32.4343 51.0781ZM32.4343 77.7447C25.8169 77.7447 20.4343 72.362 20.4343 65.7447C20.4343 59.1273 25.8169 53.7447 32.4343 53.7447C39.0516 53.7447 44.4343 59.1273 44.4343 65.7447C44.4343 72.362 39.0516 77.7447 32.4343 77.7447Z" fill="black"/>
<path d="M32.4348 56.4114C29.4934 56.4114 27.1016 58.8034 27.1016 61.7447C27.1016 64.6861 29.4936 67.0779 32.4348 67.0779C35.3761 67.0779 37.7681 64.6859 37.7681 61.7447C37.7681 58.8034 35.3762 56.4114 32.4348 56.4114ZM32.4348 64.4114C30.9642 64.4114 29.7681 63.2154 29.7681 61.7447C29.7681 60.274 30.9641 59.0779 32.4348 59.0779C33.9055 59.0779 35.1016 60.2739 35.1016 61.7447C35.1016 63.2154 33.9055 64.4114 32.4348 64.4114Z" fill="black"/>
<path d="M36.3035 69.7446H28.5676C26.289 69.7446 24.4355 71.5487 24.4355 73.7646V77.2793C24.4355 77.7553 24.6888 78.1953 25.1009 78.434C27.3355 79.7273 29.8715 80.4113 32.4355 80.4113C34.9996 80.4113 37.5355 79.7273 39.7702 78.434C40.1823 78.1967 40.4355 77.7554 40.4355 77.2807V73.766C40.4355 71.5487 38.5823 69.7446 36.3035 69.7446ZM37.7688 76.4846C34.4501 78.1379 30.4209 78.1379 27.1021 76.4846V73.766C27.1021 73.0193 27.7595 72.4113 28.5674 72.4113H36.3034C37.1113 72.4113 37.7687 73.0193 37.7687 73.766V76.4846H37.7688Z" fill="black"/>
<path d="M15.1023 17.7446C7.01555 17.7446 0.435547 24.3246 0.435547 32.4113C0.435547 40.4981 7.01555 47.0781 15.1023 47.0781C23.189 47.0781 29.769 40.4981 29.769 32.4113C29.7688 24.3246 23.1888 17.7446 15.1023 17.7446ZM15.1023 44.4113C8.48492 44.4113 3.10227 39.0287 3.10227 32.4113C3.10227 25.794 8.48492 20.4113 15.1023 20.4113C21.7196 20.4113 27.1023 25.794 27.1023 32.4113C27.1023 39.0287 21.7196 44.4113 15.1023 44.4113Z" fill="black"/>
<path d="M15.1028 23.0781C12.1614 23.0781 9.76953 25.4702 9.76953 28.4114C9.76953 31.3527 12.1616 33.7447 15.1028 33.7447C18.0442 33.7447 20.4361 31.3527 20.4361 28.4114C20.4361 25.4702 18.0441 23.0781 15.1028 23.0781ZM15.1028 31.0781C13.6322 31.0781 12.4361 29.8822 12.4361 28.4114C12.4361 26.9406 13.632 25.7447 15.1028 25.7447C16.5734 25.7447 17.7695 26.9406 17.7695 28.4114C17.7695 29.8822 16.5734 31.0781 15.1028 31.0781Z" fill="black"/>
<path d="M18.9695 36.4114H11.2336C8.955 36.4114 7.10156 38.2154 7.10156 40.4314V43.9461C7.10156 44.422 7.35484 44.862 7.76688 45.1008C10.0016 46.394 12.5375 47.0781 15.1016 47.0781C17.6656 47.0781 20.2016 46.394 22.4363 45.1008C22.8483 44.8634 23.1016 44.422 23.1016 43.9475V40.4328C23.1016 38.2154 21.2481 36.4114 18.9695 36.4114ZM20.4348 43.1514C17.1163 44.8047 13.0869 44.8047 9.76813 43.1514V40.4328C9.76813 39.6861 10.4255 39.0781 11.2334 39.0781H18.9694C19.7774 39.0781 20.4347 39.6861 20.4347 40.4328V43.1514H20.4348Z" fill="black"/>
<path d="M47.1023 0.411377C39.0155 0.411377 32.4355 6.99138 32.4355 15.0781C32.4355 23.1648 39.0155 29.7448 47.1023 29.7448C55.189 29.7448 61.769 23.1648 61.769 15.0781C61.7688 6.99138 55.1888 0.411377 47.1023 0.411377ZM47.1023 27.0781C40.4849 27.0781 35.1023 21.6954 35.1023 15.0781C35.1023 8.46075 40.4849 3.0781 47.1023 3.0781C53.7196 3.0781 59.1023 8.46075 59.1023 15.0781C59.1023 21.6954 53.7196 27.0781 47.1023 27.0781Z" fill="black"/>
<path d="M47.1028 5.74463C44.1614 5.74463 41.7695 8.13666 41.7695 11.0779C41.7695 14.0192 44.1616 16.4112 47.1028 16.4112C50.0441 16.4112 52.4361 14.0193 52.4361 11.0781C52.4361 8.13682 50.0441 5.74463 47.1028 5.74463ZM47.1028 13.7446C45.6322 13.7446 44.4361 12.5487 44.4361 11.0779C44.4361 9.60729 45.632 8.41119 47.1028 8.41119C48.5736 8.41119 49.7695 9.60713 49.7695 11.0779C49.7694 12.5487 48.5734 13.7446 47.1028 13.7446Z" fill="black"/>
<path d="M50.9695 19.0781H43.2336C40.955 19.0781 39.1016 20.8822 39.1016 23.0981V26.6128C39.1016 27.0887 39.3548 27.5287 39.7669 27.7675C42.0016 29.0608 44.5375 29.7448 47.1016 29.7448C49.6656 29.7448 52.2016 29.0608 54.4362 27.7675C54.8483 27.5301 55.1016 27.0887 55.1016 26.6142V23.0995C55.1016 20.882 53.2481 19.0781 50.9695 19.0781ZM52.4348 25.8181C49.1162 27.4714 45.0869 27.4714 41.7681 25.8181V23.0995C41.7681 22.3528 42.4255 21.7448 43.2334 21.7448H50.9694C51.7773 21.7448 52.4347 22.3528 52.4347 23.0995V25.8181H52.4348Z" fill="black"/>
<path d="M34.7822 14.2099C34.3036 13.6525 33.4622 13.5858 32.9022 14.0646L23.6622 21.9713C23.1022 22.4499 23.0369 23.2913 23.5155 23.8513C23.7795 24.1593 24.1528 24.318 24.5288 24.318C24.8355 24.318 25.1434 24.2127 25.3955 23.9966L34.6355 16.0899C35.1956 15.6113 35.261 14.7699 34.7822 14.2099Z" fill="black"/>
<path d="M64.1676 35.6127L56.1676 24.946C55.7262 24.3553 54.8902 24.2392 54.3009 24.6792C53.7115 25.1206 53.5929 25.9566 54.0341 26.5445L62.0341 37.2113C62.2968 37.5606 62.6968 37.7445 63.1021 37.7445C63.3794 37.7445 63.6609 37.6578 63.9009 37.4778C64.4902 37.0366 64.609 36.2006 64.1676 35.6127Z" fill="black"/>
<path d="M53.2249 54.1541C52.7835 53.5648 51.9476 53.4462 51.3582 53.8874L43.9102 59.4727C43.3209 59.9141 43.2023 60.7501 43.6435 61.338C43.9062 61.6874 44.3062 61.8713 44.7115 61.8713C44.9901 61.8713 45.2701 61.7833 45.5102 61.6046L52.9582 56.0193C53.5476 55.5782 53.6663 54.7421 53.2249 54.1541Z" fill="black"/>
<path d="M19.1023 64.4114H9.76883C9.03289 64.4114 8.43555 65.0073 8.43555 65.7447C8.43555 66.482 9.03289 67.0779 9.76883 67.0779H19.1021C19.838 67.0779 20.4354 66.482 20.4354 65.7447C20.4354 65.0073 19.8382 64.4114 19.1023 64.4114Z" fill="black"/>
<path d="M15.103 0.411377C12.1616 0.411377 9.76953 2.80341 9.76953 5.74466C9.76953 8.68606 12.1616 11.0779 15.1028 11.0779C18.0442 11.0779 20.4361 8.68591 20.4361 5.74466C20.4363 2.80341 18.0442 0.411377 15.103 0.411377ZM15.103 8.41138C13.6323 8.41138 12.4363 7.21544 12.4363 5.74466C12.4363 4.27403 13.6322 3.07794 15.103 3.07794C16.5736 3.07794 17.7697 4.27388 17.7697 5.74466C17.7695 7.21544 16.5736 8.41138 15.103 8.41138Z" fill="black"/>
<path d="M15.1028 8.41138C14.3669 8.41138 13.7695 9.00731 13.7695 9.74466V19.0779C13.7695 19.8153 14.3669 20.4112 15.1028 20.4112C15.8387 20.4112 16.4361 19.8153 16.4361 19.0779V9.74466C16.4361 9.00731 15.8387 8.41138 15.1028 8.41138Z" fill="black"/>
</g>
<defs>
<clipPath id="clip0">
<rect width="80" height="80" fill="white" transform="translate(0.435547 0.411377)"/>
</clipPath>
</defs>
</svg>
