<svg width="73" height="72" viewBox="0 0 73 72" fill="none" xmlns="http://www.w3.org/2000/svg">
<g clip-path="url(#clip0)">
<path d="M34.9227 20.7127H34.791V18.5288H47.098C51.8993 18.5288 55.9012 14.7095 55.9632 9.90873C56.0263 5.03101 52.0915 1.05737 47.2283 1.05737H38.7114C32.6526 1.05737 27.7407 5.96912 27.7407 12.028V31.306L38.4687 38.2721C41.0273 39.9334 42.571 42.7767 42.571 45.8273C42.571 50.042 39.1399 53.471 34.9226 53.471L27.7407 58.675V65.7384L34.9226 70.9424C48.774 70.9424 60.0424 59.6759 60.0424 45.8272C60.0426 31.979 48.774 20.7127 34.9227 20.7127Z" fill="#FF8F71"/>
<path d="M34.924 53.4713C32.2009 53.4713 29.6604 52.0044 28.2934 49.643C25.8762 45.4676 20.5314 44.0425 16.3564 46.4597C12.181 48.8769 10.7559 54.2212 13.1731 58.3967C17.6531 66.1355 25.9874 70.9427 34.9241 70.9427C30.0994 66.1181 30.0994 58.2958 34.924 53.4713Z" fill="#FF6F4D"/>
<path d="M33.7013 28.9627C31.4877 28.2904 29.9763 26.2468 29.9763 23.9334V9.79314C29.9763 4.96844 33.8873 1.05737 38.712 1.05737H26.0558C21.2312 1.05737 17.32 4.96844 17.32 9.79314C17.32 30.503 17.2612 29.5505 17.2612 29.5505C17.3158 34.3555 21.3146 38.1842 26.1198 38.1842H34.9232C39.1405 38.1842 42.5716 41.6128 42.5716 45.8276V40.9362C42.5716 35.2896 38.8324 30.5213 33.7013 28.9627Z" fill="#FF6F4D"/>
<path d="M39.1177 10.6873H33.6333C32.1188 10.6873 30.8911 11.8194 30.8911 14.3435C30.8911 17.1857 32.4407 20.2855 34.1467 19.7467C34.6444 20.9024 35.4569 21.656 36.3755 21.656C37.2941 21.656 38.1066 20.9024 38.6043 19.7467C40.3102 20.2855 41.8599 17.1858 41.8599 14.3435C41.8599 11.8194 40.6322 10.6873 39.1177 10.6873Z" fill="#FFCE71"/>
<path d="M44.0415 13.1551C43.8345 12.3568 43.5336 11.5828 43.1439 10.8537C42.2034 9.09403 40.5138 7.86792 38.5083 7.48992C37.6549 7.32905 36.8256 7.71155 36.3756 8.39358C35.9256 7.71169 35.0961 7.32919 34.2428 7.48992C32.2373 7.86792 30.5478 9.09403 29.6073 10.8537C29.2178 11.5827 28.9169 12.3568 28.7097 13.1551C28.3655 14.4825 29.3596 15.7795 30.7308 15.7795C31.6756 15.7795 32.5156 15.1485 32.7486 14.2329C32.8731 13.7439 33.056 13.27 33.2944 12.8241C33.6298 12.1964 34.2738 11.7381 35.0173 11.5979C35.5974 11.4885 36.0748 11.1448 36.3755 10.6876C36.6761 11.1448 37.1535 11.4885 37.7336 11.5979C38.4771 11.7381 39.1213 12.1965 39.4567 12.824C39.6949 13.27 39.878 13.7441 40.0025 14.2329C40.2355 15.1485 41.0754 15.7795 42.0203 15.7795C43.3917 15.7795 44.3857 14.4824 44.0415 13.1551Z" fill="#FCE3A0"/>
<path d="M52.8665 1.78762C51.2108 0.619875 49.2615 0 47.2289 0H26.0558C20.6574 0 16.2655 4.39453 16.2655 9.79313V29.5625C16.3261 34.8981 20.7145 39.2389 26.1201 39.2389H34.9235C38.5593 39.2389 41.5173 42.1945 41.5173 45.8276C41.5173 49.4608 38.5593 52.4166 34.9235 52.4166C32.5758 52.4166 30.3847 51.1512 29.2055 49.1145C26.5449 44.5189 20.5782 42.7965 15.8273 45.5469C11.2317 48.2075 9.50931 54.1738 12.2597 58.925C13.9065 61.7697 16.0527 64.2521 18.6388 66.3034C19.0953 66.6655 19.7588 66.5888 20.1206 66.1326C20.4826 65.6762 20.4061 65.0129 19.9497 64.6508C17.5719 62.7646 15.5988 60.4827 14.0853 57.8682C11.9231 54.133 13.2859 49.4554 16.8841 47.3723C20.6126 45.2139 25.2932 46.5671 27.3799 50.1713C28.935 52.8573 31.8254 54.5258 34.9235 54.5258C39.7225 54.5258 43.6266 50.6237 43.6266 45.8274C43.6266 41.0314 39.7225 37.1294 34.9235 37.1294H26.1201C21.5322 37.1294 18.2528 33.2249 18.3749 29.5242V9.79313C18.3749 5.55778 21.8206 2.11205 26.0558 2.11205H47.2289C48.8237 2.11205 50.3527 2.59594 51.6505 3.51141C52.127 3.84708 52.7847 3.73345 53.1204 3.25744C53.4562 2.78142 53.3425 2.12344 52.8665 1.78762Z" fill="#666666"/>
<path d="M40.611 20.2634C40.8568 20.0708 41.0815 19.8411 41.2857 19.5836H47.0982C54.5125 19.5836 59.2685 11.789 55.9383 5.31815C55.6716 4.80023 55.0356 4.59688 54.5177 4.86309C53.9997 5.12971 53.796 5.76562 54.0626 6.28354C56.6643 11.3369 52.9754 17.4742 47.0982 17.4742H42.3861C42.4651 17.243 42.534 17.0113 42.5939 16.7815C44.3529 16.459 45.5295 14.6939 45.0616 12.8902C44.0788 9.10195 41.6922 7.0169 38.703 6.45327C37.8881 6.29971 37.063 6.46818 36.3748 6.92788C35.6866 6.46818 34.8614 6.29943 34.0466 6.45327C31.061 7.0162 28.6715 9.09885 27.6881 12.8902C27.221 14.6911 28.3938 16.4583 30.1554 16.7813C30.5308 18.2211 31.2745 19.7629 32.4407 20.4764C32.7914 20.691 33.1581 20.8171 33.5287 20.8533C34.7608 22.9061 36.7854 23.2134 38.2621 21.9908C50.1032 23.5887 58.9879 33.7712 58.9879 45.8274C58.9879 59.0944 48.1922 69.8879 34.9227 69.8879C30.8854 69.8879 26.87 68.8507 23.3106 66.888C22.8005 66.6067 22.1592 66.7924 21.8779 67.3023C21.5967 67.8123 21.782 68.4539 22.2922 68.7351C26.1626 70.8692 30.5303 72 34.9228 72C49.3556 72 61.0974 60.2577 61.0974 45.8274C61.0974 33.5547 52.6524 22.8836 40.611 20.2634ZM29.73 13.4198C29.917 12.6986 30.1886 12.0023 30.5367 11.3507C31.3259 9.87412 32.7478 8.8446 34.4374 8.52609C34.7098 8.47462 34.986 8.53298 35.2148 8.68992C35.9086 9.16593 36.8408 9.16593 37.5347 8.68977C37.7635 8.53284 38.0397 8.4749 38.3119 8.52609C40.0019 8.84474 41.4237 9.87412 42.2126 11.3505C42.561 12.0025 42.8324 12.6987 43.0195 13.4198C43.2031 14.1277 42.6253 14.815 41.878 14.7134C41.4591 14.6569 41.1238 14.3661 41.0237 13.9725C40.5792 12.2256 39.6931 10.8938 37.9283 10.5612C37.7895 10.5351 37.6601 10.4815 37.5438 10.4019C36.8428 9.9232 35.9033 9.92517 35.2051 10.4022C35.0891 10.4815 34.9598 10.5351 34.821 10.5612C33.0452 10.896 32.1656 12.2428 31.7256 13.9726C31.6117 14.4204 31.1824 14.7247 30.73 14.7247C30.051 14.7247 29.5584 14.0816 29.73 13.4198ZM35.1147 19.3297C34.9006 18.8324 34.3445 18.5785 33.8284 18.7411C33.7865 18.7546 33.7083 18.7792 33.5416 18.677C33.1074 18.4113 32.5769 17.5954 32.2477 16.4474C32.9943 16.0418 33.5533 15.3453 33.7701 14.4929C33.8741 14.0843 34.0268 13.6901 34.2239 13.3211C34.4076 12.9777 34.7862 12.7146 35.2122 12.6342C35.6312 12.555 36.0224 12.3948 36.3749 12.1579C36.728 12.395 37.119 12.5551 37.5378 12.6342C37.9639 12.7145 38.3427 12.9776 38.5259 13.3207C38.7231 13.6898 38.8758 14.0843 38.9799 14.4928C39.1967 15.3451 39.7557 16.0415 40.502 16.4471C40.1728 17.5953 39.6424 18.4113 39.2081 18.677C39.0412 18.7789 38.9633 18.7543 38.9214 18.7411C38.4057 18.5785 37.8494 18.8324 37.6351 19.3297C37.3025 20.1023 36.8078 20.6014 36.3749 20.6014C35.9418 20.6014 35.4474 20.1022 35.1147 19.3297Z" fill="#666666"/>
<path d="M26.5391 7.49146V9.17896C26.5391 9.76143 27.0111 10.2336 27.5938 10.2336C28.1764 10.2336 28.6484 9.76143 28.6484 9.17896V7.49146C28.6484 6.90899 28.1764 6.43677 27.5938 6.43677C27.0111 6.43677 26.5391 6.90899 26.5391 7.49146Z" fill="#666666"/>
<path d="M44.1025 7.49146V9.17896C44.1025 9.76143 44.5746 10.2336 45.1572 10.2336C45.7398 10.2336 46.2119 9.76143 46.2119 9.17896V7.49146C46.2119 6.90899 45.7398 6.43677 45.1572 6.43677C44.5746 6.43677 44.1025 6.90899 44.1025 7.49146Z" fill="#666666"/>
</g>
<defs>
<clipPath id="clip0">
<rect width="72" height="72" fill="white" transform="translate(0.0195312)"/>
</clipPath>
</defs>
</svg>
