<svg width="81" height="81" viewBox="0 0 81 81" fill="none" xmlns="http://www.w3.org/2000/svg">
<path d="M70.3795 28.3571C72.4648 28.3571 74.1613 26.6606 74.1613 24.5753C74.1613 22.4899 72.4648 20.7935 70.3795 20.7935C68.2941 20.7935 66.5977 22.4899 66.5977 24.5753C66.5977 26.6606 68.2941 28.3571 70.3795 28.3571ZM70.3795 23.3147C71.0744 23.3147 71.6401 23.8797 71.6401 24.5753C71.6401 25.2708 71.0744 25.8359 70.3795 25.8359C69.6846 25.8359 69.1189 25.2708 69.1189 24.5753C69.1189 23.8797 69.6846 23.3147 70.3795 23.3147Z" fill="black"/>
<path d="M55.2528 13.2297C55.949 13.2297 56.5134 12.6653 56.5134 11.9691C56.5134 11.2729 55.949 10.7085 55.2528 10.7085C54.5566 10.7085 53.9922 11.2729 53.9922 11.9691C53.9922 12.6653 54.5566 13.2297 55.2528 13.2297Z" fill="black"/>
<path d="M68.9671 13.3822C69.2132 13.6284 69.5359 13.7516 69.8583 13.7516C70.1807 13.7516 70.5035 13.6284 70.7496 13.3822L71.6408 12.491L72.5321 13.3822C72.7782 13.6284 73.1009 13.7516 73.4233 13.7516C73.7457 13.7516 74.0684 13.6284 74.3146 13.3822C74.8068 12.89 74.8068 12.092 74.3146 11.5997L73.4233 10.7085L74.3146 9.81723C74.8068 9.32496 74.8068 8.52699 74.3146 8.03473C73.8223 7.54246 73.0243 7.54246 72.5321 8.03473L71.6408 8.92598L70.7496 8.03473C70.2573 7.54246 69.4594 7.54246 68.9671 8.03473C68.4748 8.52699 68.4748 9.32496 68.9671 9.81723L69.8583 10.7085L68.9671 11.5997C68.4745 12.0923 68.4745 12.89 68.9671 13.3822Z" fill="black"/>
<path d="M59.0353 37.3693V28.6954C59.0353 25.7286 56.6219 23.3145 53.6551 23.3145H42.6474V6.92662C42.6474 6.22982 42.083 5.66602 41.3868 5.66602H7.35045C6.65428 5.66602 6.08984 6.22982 6.08984 6.92662V40.963C6.08984 41.6598 6.65428 42.2236 7.35045 42.2236H20.0593C20.7554 42.2236 21.3199 41.6598 21.3199 40.963C21.3199 40.2662 20.7554 39.7024 20.0593 39.7024H8.61106V8.18723H40.1262V23.3145H29.1186C26.1518 23.3145 23.7383 25.7286 23.7383 28.6954V53.2306C23.7383 56.1975 26.1518 58.6115 29.1186 58.6115H34.3095C35.0056 58.6115 35.5701 58.0477 35.5701 57.3509C35.5701 56.6541 35.0056 56.0903 34.3095 56.0903H29.1186C27.5422 56.0903 26.2596 54.8076 26.2596 53.2306V28.6954C26.2596 27.1184 27.5422 25.8357 29.1186 25.8357H53.6548C55.2311 25.8357 56.5138 27.1184 56.5138 28.6954V37.1812C46.0873 37.1812 37.6047 45.6632 37.6047 56.0903C37.6047 66.5174 46.0873 74.9994 56.5138 74.9994C66.9403 74.9994 75.4229 66.5174 75.4229 56.0903C75.4232 46.5201 68.2712 38.6082 59.0353 37.3693ZM56.5141 72.4782C47.4775 72.4782 40.1262 65.1263 40.1262 56.0903C40.1262 47.0543 47.4775 39.7024 56.5141 39.7024C65.5508 39.7024 72.902 47.0543 72.902 56.0903C72.902 65.1263 65.5508 72.4782 56.5141 72.4782Z" fill="black"/>
</svg>
