<svg width="80" height="81" viewBox="0 0 80 81" fill="none" xmlns="http://www.w3.org/2000/svg">
<g clip-path="url(#clip0)">
<path d="M23.686 65.2342C23.1275 64.9051 22.4073 65.0903 22.0778 65.6489C20.734 67.9269 20.0234 70.528 20.0234 73.1708V79.4333C20.0234 80.0819 20.5492 80.6076 21.1977 80.6076C21.8463 80.6076 22.372 80.0819 22.372 79.4333V73.1708C22.372 70.9474 22.9697 68.759 24.1006 66.8422C24.4304 66.2837 24.2447 65.5638 23.686 65.2342Z" fill="black"/>
<path d="M52.0464 60.1441L49.2052 58.61C50.8935 57.2669 52.3747 55.6488 53.5611 53.847L53.7075 53.9294C54.2571 54.2391 54.9527 54.0593 55.2836 53.5223L56.6566 51.2944C60.0032 45.8639 61.28 39.4016 60.2523 33.0975C60.1478 32.4574 59.5446 32.0231 58.9043 32.1275C58.2643 32.232 57.8299 32.8354 57.9344 33.4755C58.8713 39.2221 57.7075 45.1127 54.6573 50.0623L53.8766 51.329L53.7316 51.2474C53.1708 50.9316 52.4605 51.1259 52.1386 51.6827C50.8441 53.922 49.0439 55.8906 46.9307 57.3815L45.1218 56.4048V55.0554C49.5292 53.0875 52.6102 48.6658 52.6102 43.5354V31.7381C52.6102 30.8698 52.1255 30.094 51.3451 29.7132C50.5647 29.3321 49.6549 29.4279 48.9705 29.9621L47.174 31.3647C45.6211 32.5771 43.8047 33.4182 41.8904 33.8331L44.8498 30.2784C45.2647 29.7799 45.1971 29.0396 44.6987 28.6247C44.2003 28.2098 43.4597 28.2774 43.045 28.7758L38.5867 34.1306H34.3428L37.483 30.2679C37.8921 29.7645 37.8159 29.025 37.3126 28.6159C36.8096 28.2068 36.0698 28.283 35.6608 28.7863L31.316 34.1306H29.1113C28.1604 34.1306 27.3868 34.9041 27.3868 35.8551V43.5354C27.3868 48.6049 30.3949 52.9824 34.7187 54.9845V56.4048L32.9099 57.3815C30.7964 55.8904 28.9964 53.922 27.7018 51.6827C27.3798 51.1254 26.6695 50.9314 26.1088 51.2474L25.9639 51.329L25.1832 50.0623C20.1127 41.8347 20.4205 31.4046 25.967 23.4903C29.2006 18.8765 34.2862 16.2304 39.9202 16.2304C45.5542 16.2304 50.6399 18.8765 53.8735 23.4903C55.003 25.1019 55.9357 26.8576 56.6461 28.7086C56.8784 29.3141 57.5578 29.6163 58.1631 29.3842C58.7686 29.152 59.0711 28.4728 58.8387 27.8673C58.0598 25.8372 57.0364 23.911 55.7968 22.1424C52.1176 16.8928 46.3308 13.8818 39.9204 13.8818C33.5099 13.8818 27.7231 16.8926 24.0439 22.1424C17.9587 30.8252 17.6211 42.268 23.1839 51.2945L24.5569 53.5224C24.8876 54.0593 25.5834 54.2392 26.133 53.9295L26.2794 53.8472C27.4657 55.649 28.9469 57.267 30.6354 58.61L27.7942 60.1441C27.0561 60.5426 26.3478 61.007 25.6884 61.5238C25.1782 61.9242 25.0889 62.6623 25.4893 63.1725C25.7209 63.4678 26.0658 63.6221 26.414 63.6221C26.6677 63.6221 26.923 63.5405 27.138 63.3717C27.6926 62.9366 28.289 62.5459 28.9101 62.2105L34.7433 59.0609C34.9943 61.6968 37.2199 63.7656 39.9207 63.7656C42.6213 63.7656 44.8471 61.6968 45.0981 59.0609L50.9313 62.2105C54.964 64.3879 57.469 68.5876 57.469 73.1704V79.433C57.469 80.0817 57.9948 80.6073 58.6433 80.6073C59.2919 80.6073 59.8176 80.0817 59.8176 79.433V73.1704C59.8168 67.7235 56.8394 62.7321 52.0464 60.1441ZM29.7351 43.5357V36.4797H39.1369C42.5561 36.4797 45.9237 35.3209 48.6192 33.2165L50.2615 31.9343V43.5358C50.2615 49.195 45.6574 53.7991 39.9984 53.7991C34.3393 53.7991 29.7351 49.1947 29.7351 43.5357ZM39.9201 61.4173C38.347 61.4173 37.067 60.1375 37.067 58.5644V55.7999C38.0083 56.0249 38.9891 56.1475 39.9984 56.1475C40.9519 56.1475 41.8796 56.0376 42.7732 55.8361V58.5644C42.773 60.1375 41.4932 61.4173 39.9201 61.4173Z" fill="black"/>
<path d="M58.6433 22.4621C58.9214 22.4621 59.2006 22.364 59.4245 22.1643L63.9636 18.1175C65.666 19.6147 67.8959 20.5256 70.336 20.5256C75.664 20.5256 79.9987 16.1909 79.9987 10.8628C79.9987 5.53494 75.664 1.2002 70.336 1.2002C65.0079 1.2002 60.6733 5.53494 60.6733 10.8628C60.6733 12.9064 61.3128 14.8027 62.3997 16.3655L57.8616 20.4115C57.3774 20.843 57.335 21.5853 57.7665 22.0695C57.9984 22.3295 58.3202 22.4621 58.6433 22.4621ZM70.336 3.5488C74.369 3.5488 77.6501 6.82981 77.6501 10.8628C77.6501 14.8959 74.369 18.177 70.336 18.177C66.3029 18.177 63.0219 14.8959 63.0219 10.8628C63.0219 6.82981 66.3029 3.5488 70.336 3.5488Z" fill="black"/>
<path d="M70.336 54.0742C67.8959 54.0742 65.666 54.9851 63.9636 56.4823L59.4245 52.4355C58.9405 52.0038 58.1982 52.0466 57.7665 52.5304C57.335 53.0145 57.3774 53.7568 57.8616 54.1883L62.3997 58.2344C61.3128 59.7971 60.6733 61.6932 60.6733 63.737C60.6733 69.0651 65.0081 73.3998 70.336 73.3998C75.664 73.3998 79.9987 69.0651 79.9987 63.737C79.9987 58.4089 75.664 54.0742 70.336 54.0742ZM70.336 71.0512C66.3029 71.0512 63.0219 67.77 63.0219 63.737C63.0219 59.704 66.3031 56.4228 70.336 56.4228C74.369 56.4228 77.6501 59.704 77.6501 63.737C77.6501 67.77 74.369 71.0512 70.336 71.0512Z" fill="black"/>
<path d="M71.7156 31.3813C68.854 31.3813 66.4605 33.4229 65.9142 36.1259H64.4477C63.7992 36.1259 63.2734 36.6515 63.2734 37.3002C63.2734 37.9488 63.7992 38.4745 64.4477 38.4745H65.9142C66.4605 41.1774 68.854 43.2188 71.7156 43.2188C74.9792 43.2188 77.6342 40.5638 77.6342 37.3002C77.6342 34.0365 74.9791 31.3813 71.7156 31.3813ZM71.7156 40.87C69.747 40.87 68.1454 39.2684 68.1454 37.3C68.1454 35.3314 69.747 33.7298 71.7156 33.7298C73.6842 33.7298 75.2856 35.3314 75.2856 37.3C75.2856 39.2686 73.684 40.87 71.7156 40.87Z" fill="black"/>
<path d="M9.6628 20.5256C12.1028 20.5256 14.3328 19.6147 16.0352 18.1175L20.5743 22.1643C20.7982 22.364 21.0772 22.4621 21.3554 22.4621C21.6784 22.4621 22.0003 22.3294 22.2324 22.0693C22.6639 21.5852 22.6215 20.8429 22.1374 20.4113L17.5992 16.3655C18.686 14.8027 19.3256 12.9066 19.3256 10.863C19.3256 9.57831 19.0763 8.32885 18.5848 7.14922C18.3354 6.55064 17.6478 6.26771 17.0492 6.51697C16.4504 6.7664 16.1675 7.45391 16.4169 8.05265C16.7886 8.94449 16.977 9.89004 16.977 10.863C16.977 14.896 13.6958 18.177 9.66296 18.177C5.62977 18.177 2.34861 14.896 2.34861 10.863C2.34861 6.82981 5.62977 3.54865 9.6628 3.54865C11.0612 3.54865 12.4219 3.9465 13.5977 4.69915C14.1439 5.04894 14.8701 4.88954 15.2198 4.34326C15.5694 3.79713 15.41 3.07078 14.8639 2.72131C13.3092 1.72628 11.5107 1.2002 9.6628 1.2002C4.33475 1.20004 0 5.53494 0 10.863C0 16.1909 4.33475 20.5256 9.6628 20.5256Z" fill="black"/>
<path d="M22.1372 54.1883C22.6213 53.7568 22.6638 53.0144 22.2322 52.5303C21.8006 52.0462 21.0584 52.0036 20.5743 52.4354L16.0352 56.4822C14.3328 54.9851 12.1028 54.0741 9.6628 54.0741C4.33475 54.074 0 58.4087 0 63.7368C0 69.0648 4.33475 73.3996 9.6628 73.3996C14.9909 73.3996 19.3254 69.0648 19.3254 63.7368C19.3254 61.6932 18.686 59.7969 17.5991 58.2341L22.1372 54.1883ZM9.6628 71.0509C5.62977 71.0509 2.34861 67.7698 2.34861 63.7368C2.34861 59.7037 5.62977 56.4226 9.6628 56.4226C13.6958 56.4226 16.9768 59.7037 16.9768 63.7368C16.9768 67.7698 13.6958 71.0509 9.6628 71.0509Z" fill="black"/>
<path d="M14.0833 36.1259C13.537 33.4229 11.1435 31.3813 8.28193 31.3813C5.0183 31.3813 2.36328 34.0365 2.36328 37.3002C2.36328 40.5638 5.01846 43.2188 8.28193 43.2188C11.1435 43.2188 13.537 41.1774 14.0833 38.4745H15.5498C16.1983 38.4745 16.7241 37.9488 16.7241 37.3002C16.7241 36.6515 16.1983 36.1259 15.5498 36.1259H14.0833ZM8.28193 40.87C6.31333 40.87 4.71189 39.2684 4.71189 37.3C4.71189 35.3314 6.31348 33.7298 8.28193 33.7298C10.2504 33.7298 11.8521 35.3314 11.8521 37.3C11.852 39.2686 10.2504 40.87 8.28193 40.87Z" fill="black"/>
</g>
<defs>
<clipPath id="clip0">
<rect width="80" height="80" fill="white" transform="translate(0 0.903809)"/>
</clipPath>
</defs>
</svg>
