<svg width="89" height="89" viewBox="0 0 89 89" fill="none" xmlns="http://www.w3.org/2000/svg">
<path d="M75.1574 58.991L75.9869 58.1614C76.4451 57.7032 76.4451 56.9605 75.9869 56.5023C75.5287 56.0441 74.786 56.0441 74.3278 56.5023L73.4983 57.3319L72.6687 56.5023C72.2106 56.0441 71.4678 56.0441 71.0097 56.5023C70.5515 56.9605 70.5515 57.7032 71.0097 58.1614L71.8392 58.991L71.0097 59.8205C70.5515 60.2787 70.5515 61.0214 71.0097 61.4796C71.2387 61.7087 71.5391 61.8234 71.8392 61.8234C72.1393 61.8234 72.4396 61.7087 72.6687 61.4796L73.4983 60.6501L74.3278 61.4796C74.5569 61.7087 74.8573 61.8234 75.1574 61.8234C75.4575 61.8234 75.7578 61.7087 75.9869 61.4796C76.4451 61.0214 76.4451 60.2787 75.9869 59.8205L75.1574 58.991Z" fill="black"/>
<path d="M54.7261 75.4177C55.3741 75.4177 55.8994 74.8924 55.8994 74.2444C55.8994 73.5964 55.3741 73.071 54.7261 73.071C54.0781 73.071 53.5527 73.5964 53.5527 74.2444C53.5527 74.8924 54.0781 75.4177 54.7261 75.4177Z" fill="black"/>
<path d="M64.9689 13.231H57.073C56.4244 13.231 55.8997 13.7557 55.8997 14.4043C55.8997 15.0529 56.4244 15.5776 57.073 15.5776H64.9689C65.7906 15.5776 66.4597 16.2467 66.4597 17.0683V65.7136C66.4597 66.5352 65.7906 67.2043 64.9689 67.2043H16.3237C15.5021 67.2043 14.833 66.5352 14.833 65.7136V17.0683C14.833 16.2467 15.5021 15.5776 16.3237 15.5776H51.0494C51.698 15.5776 52.2227 15.0529 52.2227 14.4043C52.2227 13.7557 51.698 13.231 51.0494 13.231H16.3237C14.2073 13.231 12.4863 14.9519 12.4863 17.0683V65.7136C12.4863 67.83 14.2073 69.551 16.3237 69.551H64.9689C67.0854 69.551 68.8063 67.83 68.8063 65.7136V17.0683C68.8063 14.9519 67.0854 13.231 64.9689 13.231Z" fill="black"/>
<path d="M35.9543 27.3111C35.9543 26.6625 35.4296 26.1378 34.781 26.1378C34.1325 26.1378 33.6077 26.6625 33.6077 27.3111V32.692L20.3572 19.4415C19.899 18.9834 19.1563 18.9834 18.6981 19.4415C18.2399 19.8997 18.2399 20.6424 18.6981 21.1006L31.9486 34.3511H26.5677C25.9191 34.3511 25.3943 34.8759 25.3943 35.5244C25.3943 36.173 25.9191 36.6978 26.5677 36.6978H34.781C35.4296 36.6978 35.9543 36.173 35.9543 35.5244V27.3111Z" fill="black"/>
<path d="M55.8979 47.2576C55.8979 46.609 55.3731 46.0842 54.7246 46.0842H46.5112C45.8627 46.0842 45.3379 46.609 45.3379 47.2576V55.4709C45.3379 56.1195 45.8627 56.6442 46.5112 56.6442C47.1598 56.6442 47.6846 56.1195 47.6846 55.4709V50.09L60.935 63.3404C61.1641 63.5695 61.4645 63.6842 61.7646 63.6842C62.0646 63.6842 62.365 63.5695 62.5941 63.3404C63.0523 62.8823 63.0523 62.1395 62.5941 61.6814L49.3437 48.4309H54.7246C55.3731 48.4309 55.8979 47.9061 55.8979 47.2576Z" fill="black"/>
<path d="M62.5941 19.4415C62.1359 18.9834 61.3932 18.9834 60.935 19.4415L47.6846 32.692V27.3111C47.6846 26.6625 47.1598 26.1378 46.5112 26.1378C45.8627 26.1378 45.3379 26.6625 45.3379 27.3111V35.5244C45.3379 36.173 45.8627 36.6978 46.5112 36.6978H54.7246C55.3731 36.6978 55.8979 36.173 55.8979 35.5244C55.8979 34.8759 55.3731 34.3511 54.7246 34.3511H49.3437L62.5941 21.1006C63.0523 20.6424 63.0523 19.8997 62.5941 19.4415Z" fill="black"/>
<path d="M34.781 56.6442C35.4296 56.6442 35.9543 56.1195 35.9543 55.4709V47.2576C35.9543 46.609 35.4296 46.0842 34.781 46.0842H26.5677C25.9191 46.0842 25.3943 46.609 25.3943 47.2576C25.3943 47.9061 25.9191 48.4309 26.5677 48.4309H31.9486L18.6981 61.6814C18.2399 62.1395 18.2399 62.8823 18.6981 63.3404C18.9272 63.5695 19.2276 63.6842 19.5277 63.6842C19.8278 63.6842 20.1281 63.5695 20.3572 63.3404L33.6077 50.09V55.4709C33.6077 56.1195 34.1325 56.6442 34.781 56.6442Z" fill="black"/>
</svg>
