<svg width="81" height="81" viewBox="0 0 81 81" fill="none" xmlns="http://www.w3.org/2000/svg">
<g clip-path="url(#clip0)">
<path d="M58.3618 31.1024C59.4216 31.1024 60.4288 30.6926 61.1974 29.9485C61.6624 29.4984 61.6744 28.7565 61.2243 28.2916C60.7741 27.8267 60.0322 27.8145 59.5674 28.2648C59.2382 28.5834 58.8101 28.759 58.3618 28.759H58.0205C57.5722 28.759 57.1441 28.5835 56.8149 28.2648C56.3497 27.8145 55.608 27.8267 55.158 28.2916C54.7079 28.7566 54.7199 29.4985 55.1849 29.9485C55.9536 30.6926 56.9607 31.1024 58.0205 31.1024H58.3618Z" fill="black"/>
<path d="M34.7987 59.71C35.0905 59.8728 35.4139 59.9539 35.737 59.9539C36.0877 59.9539 36.438 59.8582 36.7469 59.6681L44.0244 55.1839C44.5973 54.8309 44.9394 54.2183 44.9394 53.5453C44.9394 52.8723 44.5973 52.2597 44.0244 51.9067L36.7467 47.4225C36.1536 47.057 35.4072 47.0411 34.7987 47.3806C34.1905 47.7203 33.8125 48.3642 33.8125 49.0609V58.0293C33.8127 58.7262 34.1905 59.3701 34.7987 59.71ZM36.1563 49.8114L42.2161 53.5453L36.1563 57.2792V49.8114Z" fill="black"/>
<path d="M49.1717 65.4348H37.9106C37.4228 64.0159 36.0758 62.9929 34.4936 62.9929C32.9112 62.9929 31.5642 64.0159 31.0762 65.435H29.5819C28.9347 65.435 28.41 65.9598 28.4102 66.607C28.4102 67.2542 28.9348 67.7787 29.582 67.7787H31.0764C31.5644 69.1975 32.9114 70.22 34.4936 70.22C36.0758 70.22 37.4227 69.1973 37.9106 67.7787H49.1717C49.8187 67.7787 50.3436 67.2542 50.3436 66.607C50.3436 65.9598 49.8189 65.4348 49.1717 65.4348ZM34.4936 67.876C33.7934 67.876 33.2239 67.3065 33.2239 66.6064C33.2239 65.906 33.7934 65.3364 34.4936 65.3364C35.1936 65.3364 35.7631 65.906 35.7631 66.6064C35.7631 67.3065 35.1936 67.876 34.4936 67.876Z" fill="black"/>
<path d="M79.5283 57.4301V49.2185C79.5283 43.7599 75.0873 39.319 69.6287 39.319H63.6478V35.1727C66.3212 33.5054 68.105 30.5395 68.105 27.1632V26.2462H69.9772C72.6091 26.2462 74.7503 24.1049 74.7503 21.4729C74.7503 20.2251 74.2684 19.0881 73.4817 18.2367V14.189C73.4817 10.6629 71.9198 7.35119 69.1967 5.10291C68.6976 4.69088 67.9591 4.7615 67.547 5.26056C67.135 5.75963 67.2056 6.49822 67.7047 6.91025C69.8867 8.71166 71.1381 11.3648 71.1381 14.189V16.8434C70.7662 16.7501 70.3775 16.6999 69.9772 16.6999H68.0736C67.7444 13.1665 64.7637 10.3912 61.1458 10.3912H49.9164C49.0119 10.3912 48.2759 11.1271 48.2759 12.0317V16.6999H46.4033C46.0034 16.6999 45.6153 16.7499 45.2439 16.8431V5.48166C45.2439 4.57806 45.7164 3.77775 46.5077 3.34103C47.2992 2.90384 48.2289 2.93072 48.993 3.41181L49.6892 3.85134C50.6292 4.44353 51.7141 4.75666 52.8262 4.75666H61.7055C62.1956 4.75666 62.6836 4.794 63.1561 4.86775C63.7958 4.96697 64.3947 4.52994 64.4944 3.89041C64.5942 3.25088 64.1567 2.65181 63.5172 2.55213C62.9256 2.45978 62.3161 2.41306 61.7055 2.41306H52.8262C52.1569 2.41306 51.5041 2.22463 50.9394 1.869L50.243 1.42931C48.7448 0.485876 46.925 0.433376 45.3748 1.28931C43.8253 2.14478 42.9 3.71213 42.9 5.48181V18.2352C42.1123 19.0868 41.6298 20.2245 41.6298 21.4731C41.6298 24.1051 43.7711 26.2463 46.403 26.2463H48.2756V27.1634C48.2756 30.5399 50.0598 33.5063 52.7339 35.1735V36.8067H35.7102C36.192 35.1906 36.4522 33.4781 36.4522 31.7048C36.4522 21.9557 28.6203 14.0242 18.9937 14.0242C9.36719 14.0242 1.53516 21.9557 1.53516 31.7048C1.53516 41.454 9.36703 49.3854 18.9936 49.3854C19.423 49.3854 19.8486 49.369 20.2702 49.3379V71.7001C20.2702 73.3473 21.6109 74.6874 23.2591 74.6874H32.1814V76.3385C32.1814 77.9226 33.4702 79.2113 35.0542 79.2113H38.7853C40.3694 79.2113 41.6581 77.9226 41.6581 76.3385V74.6874H43.3861V79.5107C43.3861 80.1579 43.9108 80.6826 44.558 80.6826H70.2301C70.8773 80.6826 71.402 80.1579 71.402 79.5107V75.4624C71.402 74.8152 70.8773 74.2906 70.2301 74.2906C69.583 74.2906 69.0583 74.8152 69.0583 75.4624V78.3388H45.73V74.6874H55.4952C57.1433 74.6874 58.4841 73.3473 58.4841 71.7001V65.0196H69.0586V69.994C69.0586 70.6412 69.5833 71.1659 70.2305 71.1659C70.8776 71.1659 71.4023 70.6412 71.4023 69.994V65.0195H73.4912C74.6356 65.0195 75.7066 64.6995 76.6194 64.1441C78.362 63.0841 79.5284 61.1668 79.5284 58.9823V57.4301H79.5283ZM72.4067 21.4731C72.4067 22.8127 71.3169 23.9026 69.9772 23.9026H68.105V19.0435H69.9772C71.3169 19.0435 72.4067 20.1334 72.4067 21.4731ZM46.4033 23.9026C45.0636 23.9026 43.9737 22.8126 43.9737 21.4731C43.9737 20.1335 45.0636 19.0435 46.4033 19.0435H48.2759V23.9026H46.4033ZM50.6195 27.1632V25.0895C50.6195 25.0845 50.6203 25.0795 50.6203 25.0743C50.6203 25.0692 50.6197 25.0643 50.6195 25.0592V17.8867C50.6195 17.8817 50.6203 17.8767 50.6203 17.8715C50.6203 17.8663 50.6197 17.8615 50.6195 17.8563V12.7345H61.1458C63.6908 12.7345 65.7612 14.8049 65.7612 17.3499V27.1629C65.7612 31.0726 62.5805 34.2534 58.6708 34.2534H57.7098C53.8003 34.2537 50.6195 31.0729 50.6195 27.1632ZM55.078 36.2209C55.9141 36.4643 56.7966 36.5973 57.71 36.5973H58.6709C59.5848 36.5973 60.4678 36.4641 61.3042 36.2206V41.2532C61.3042 42.6437 60.173 43.7749 58.7825 43.7749H58.4841V39.7938C58.4841 38.1467 57.1431 36.8065 55.4952 36.8065H55.078V36.2209ZM57.3212 62.6762C57.3181 62.6762 57.3153 62.6757 57.3122 62.6757C57.3091 62.6757 57.3062 62.6762 57.3031 62.6762H55.922C54.9711 62.6762 54.1973 61.9026 54.1973 60.9515V58.6034H58.27V62.676H57.3212V62.6762ZM55.495 39.1502C55.8508 39.1502 56.1403 39.439 56.1403 39.794V42.1817C55.9322 42.1357 55.7167 42.1096 55.495 42.1096H33.0997C33.7653 41.1867 34.3448 40.1962 34.8262 39.1504H55.495V39.1502ZM3.87875 31.7048C3.87875 23.2479 10.6592 16.3677 18.9936 16.3677C27.328 16.3677 34.1084 23.2479 34.1084 31.7048C34.1084 40.1617 27.328 47.0418 18.9936 47.0418C10.6592 47.0418 3.87875 40.1617 3.87875 31.7048ZM39.3147 76.3387C39.3147 76.6306 39.0773 76.8679 38.7855 76.8679H35.0544C34.7625 76.8679 34.5252 76.6306 34.5252 76.3387V74.6876H39.3145L39.3147 76.3387ZM56.1405 71.7002C56.1405 72.0552 55.8509 72.344 55.4952 72.344H23.2592C22.9034 72.344 22.6139 72.0552 22.6139 71.7002V49.0021C25.8569 48.3068 28.7703 46.6974 31.078 44.4532H55.495C55.8508 44.4532 56.1403 44.742 56.1403 45.097V56.2599H49.8173C49.1702 56.2599 48.6455 56.7846 48.6455 57.4318C48.6455 58.079 49.1702 58.6037 49.8173 58.6037H51.8537V60.9518C51.8537 63.1951 53.6787 65.0201 55.922 65.0201H56.1405V71.7002ZM76.8198 60.5823C76.2225 61.8199 74.9548 62.6759 73.4911 62.6759C72.7989 62.6759 61.2992 62.6762 60.6136 62.6762V58.6035H72.3092C72.9564 58.6035 73.4811 58.0788 73.4811 57.4317C73.4811 56.7845 72.9564 56.2598 72.3092 56.2598H71.4026V48.8129C71.4026 48.1657 70.878 47.641 70.2308 47.641C69.5836 47.641 69.0589 48.1657 69.0589 48.8129V56.2598H58.4837V46.1185H58.7822C61.327 46.1185 63.4203 44.1543 63.6291 41.6624H69.6286C73.7948 41.6624 77.1845 45.052 77.1845 49.2184V58.9821C77.1847 59.3006 77.1544 59.9151 76.8198 60.5823Z" fill="black"/>
<path d="M31.0081 31.8576C31.6684 31.6583 32.1122 31.0595 32.1122 30.3675C32.1122 29.6756 31.6686 29.0767 31.0081 28.877L19.5697 25.4225C19.193 25.3087 18.7944 25.3087 18.4175 25.4225L6.97891 28.8772C6.31859 29.0767 5.875 29.6756 5.875 30.3675C5.875 30.6923 5.97391 30.9961 6.14594 31.2481V35.1198C6.14594 35.767 6.67063 36.2917 7.31781 36.2917C7.965 36.2917 8.48969 35.767 8.48969 35.1198V32.3139L10.2661 32.8503V38.2487C10.2661 39.1672 10.8839 39.969 11.7681 40.1984L18.2863 41.892C18.5177 41.9523 18.7558 41.9823 18.9939 41.9823C19.2319 41.9823 19.4697 41.9523 19.7009 41.892L26.2191 40.1986C27.1038 39.9689 27.7216 39.1672 27.7216 38.2487V32.8501L31.0081 31.8576ZM18.9936 27.6967L27.8364 30.3673L18.9936 33.0379L10.1508 30.3673L18.9936 27.6967ZM25.3778 37.9958L19.1111 39.624C19.0342 39.644 18.9531 39.6439 18.8759 39.624L12.6097 37.9959V33.5584L18.4175 35.3125C18.6059 35.3693 18.7998 35.3978 18.9936 35.3978C19.1875 35.3978 19.3813 35.3693 19.5697 35.3125L25.3778 33.5583V37.9958Z" fill="black"/>
</g>
<defs>
<clipPath id="clip0">
<rect width="80" height="80" fill="white" transform="translate(0.53125 0.682617)"/>
</clipPath>
</defs>
</svg>
