<svg width="73" height="72" viewBox="0 0 73 72" fill="none" xmlns="http://www.w3.org/2000/svg">
<path d="M36.0196 1.05469L23.9634 9.79102L36.0196 18.5275C40.8366 18.5275 44.7553 22.4464 44.7553 27.2638V44.7362C44.7553 49.5536 40.8367 53.4725 36.0196 53.4725L23.9634 62.2088L36.0196 70.9453C50.4702 70.9453 62.2267 59.1879 62.2267 44.7362V27.2638C62.2267 12.8121 50.4702 1.05469 36.0196 1.05469Z" fill="#FF8E9E"/>
<path d="M36.0197 53.4725C31.2027 53.4725 27.2839 49.5536 27.2839 44.7362V27.2638C27.2839 22.4464 31.2025 18.5275 36.0197 18.5275C31.1947 13.7024 31.1947 5.87967 36.0197 1.05469C21.569 1.05469 9.8125 12.8121 9.8125 27.2638V44.7362C9.8125 59.1879 21.569 70.9453 36.0197 70.9453C31.1947 66.1203 31.1947 58.2976 36.0197 53.4725Z" fill="#EA5B70"/>
<path d="M24.8317 19.7767C27.1115 19.7767 28.9597 18.3049 28.9597 16.4893C28.9597 14.6737 27.1115 13.2019 24.8317 13.2019C22.5518 13.2019 20.7036 14.6737 20.7036 16.4893C20.7036 18.3049 22.5518 19.7767 24.8317 19.7767Z" fill="#FFDBE0"/>
<path d="M47.2071 19.7767C49.487 19.7767 51.3352 18.3049 51.3352 16.4893C51.3352 14.6737 49.487 13.2019 47.2071 13.2019C44.9273 13.2019 43.0791 14.6737 43.0791 16.4893C43.0791 18.3049 44.9273 19.7767 47.2071 19.7767Z" fill="#FFDBE0"/>
<path d="M29.2276 8.0271H25.7728C24.3214 8.0271 23.2394 9.36557 23.5437 10.7848L23.7351 11.6772C24.0567 13.1769 25.3823 14.2485 26.9162 14.2485H28.0844C29.6183 14.2485 30.9438 13.1771 31.2654 11.6772L31.4568 10.7848C31.7609 9.36543 30.679 8.0271 29.2276 8.0271Z" fill="#4C5699"/>
<path d="M43.186 8.0271H46.6408C48.0924 8.0271 49.1742 9.36557 48.8699 10.7848L48.6785 11.6772C48.3569 13.1769 47.0313 14.2485 45.4974 14.2485H44.3292C42.7953 14.2485 41.4698 13.1771 41.1482 11.6772L40.9568 10.7848C40.6526 9.36543 41.7344 8.0271 43.186 8.0271Z" fill="#4C5699"/>
<path d="M63.0737 23.8899C61.3849 10.2704 49.7542 0 36.0195 0C30.0707 0 24.4143 1.89 19.6615 5.46581C19.1958 5.81597 19.1025 6.47719 19.4528 6.94266C19.8031 7.40812 20.4641 7.50178 20.9296 7.15134C25.3139 3.85284 30.5319 2.10938 36.0195 2.10938C48.6915 2.10938 59.4223 11.5845 60.9802 24.1487V24.1495C61.1073 25.1751 61.1718 26.2229 61.1718 27.2638V44.7362C61.1718 58.6065 49.8885 69.8906 36.0195 69.8906C22.1505 69.8906 10.8672 58.6065 10.8672 44.7362V27.2638C10.867 20.7381 13.3651 14.5479 17.9012 9.83377C18.3051 9.41414 18.2922 8.74645 17.8726 8.34258C17.4528 7.93856 16.7851 7.9515 16.3814 8.37127C11.4651 13.4803 8.75767 20.1898 8.75781 27.2638V44.7362C8.75781 59.7694 20.9873 72 36.0195 72C51.0518 72 63.2812 59.7694 63.2812 44.7362V27.2638C63.2812 26.1364 63.2113 25.0013 63.0737 23.8899Z" fill="#666666"/>
<path d="M42.3774 49.0417C42.05 49.5236 42.1752 50.1795 42.6568 50.5068C43.1387 50.8342 43.7945 50.7091 44.122 50.2274C45.2263 48.6024 45.8099 46.7035 45.8099 44.7363V27.2639C45.8099 21.865 41.4181 17.4729 36.0195 17.4729C30.6209 17.4729 26.229 21.865 26.229 27.2639V44.7363C26.229 50.1352 30.6209 54.5273 36.0193 54.5273H36.0203C37.6333 54.5273 39.2339 54.1246 40.6486 53.3625C41.1613 53.0862 41.3532 52.4465 41.077 51.9338C40.8007 51.421 40.1613 51.2292 39.6483 51.5053C38.5397 52.1024 37.2852 52.4179 36.0202 52.4179C36.02 52.4179 36.0197 52.4179 36.0195 52.4179C31.7841 52.4179 28.3384 48.9719 28.3384 44.7363V27.2639C28.3384 23.0283 31.7841 19.5823 36.0195 19.5823C40.2548 19.5823 43.7005 23.0283 43.7005 27.2639V44.7363C43.7005 46.2791 43.2429 47.7679 42.3774 49.0417Z" fill="#666666"/>
<path d="M39.1299 13.9675C39.5127 13.5284 39.4668 12.8622 39.0275 12.4795C38.5882 12.0969 37.9222 12.1426 37.5396 12.5819C36.7343 13.5058 35.3038 13.5048 34.4992 12.5818C34.1163 12.1424 33.4502 12.097 33.0111 12.4795C32.572 12.8623 32.5264 13.5286 32.9089 13.9676C34.5583 15.8596 37.4891 15.8507 39.1299 13.9675Z" fill="#666666"/>
<path d="M49.7098 11.898L49.901 11.0056C50.3467 8.92756 48.7615 6.97217 46.6408 6.97217H43.1859C42.4279 6.97217 41.7075 7.22543 41.1263 7.68331C37.7924 7.26031 34.6285 7.25932 31.2872 7.68331C30.706 7.22557 29.9856 6.97217 29.2276 6.97217H25.7726C23.6473 6.97217 22.0677 8.93192 22.5124 11.0057L22.7037 11.898C23.1266 13.8708 24.8981 15.3028 26.9159 15.3028H28.0842C30.1019 15.3028 31.8733 13.8708 32.2963 11.8981L32.4877 11.0056C32.5839 10.5573 32.5856 10.103 32.5005 9.66697C33.531 9.56065 34.7642 9.47572 36.2066 9.47572C37.6489 9.47572 38.8822 9.56065 39.9127 9.66697C39.8278 10.103 39.8295 10.5573 39.9255 11.0056L40.1168 11.898C40.5398 13.8708 42.3112 15.3028 44.329 15.3028H45.4972C47.5153 15.3028 49.2869 13.8709 49.7098 11.898ZM30.4256 10.5633L30.2342 11.4559C30.0182 12.4627 29.1141 13.1934 28.0845 13.1934H26.9162C25.8864 13.1934 24.9823 12.4627 24.7664 11.4557L24.575 10.5634C24.4115 9.8 24.9937 9.08168 25.7729 9.08168H29.2279C30.0072 9.08168 30.5882 9.80407 30.4256 10.5633ZM47.8388 10.5634L47.6475 11.4559C47.4315 12.4627 46.5274 13.1934 45.4976 13.1934H44.3295C43.2997 13.1934 42.3956 12.4627 42.1796 11.4559L41.9883 10.5634C41.8261 9.80548 42.4049 9.08168 43.1862 9.08168H46.6411C47.4215 9.08168 48.002 9.8014 47.8388 10.5634Z" fill="#666666"/>
</svg>
