<svg width="81" height="81" viewBox="0 0 81 81" fill="none" xmlns="http://www.w3.org/2000/svg">
<path d="M55.2284 32.2328C54.7273 31.7294 53.9137 31.7282 53.4103 32.2303C52.9082 32.7314 52.9056 33.545 53.4077 34.0484L54.8572 35.5033L53.4013 36.954C52.8992 37.4552 52.8966 38.2688 53.3987 38.7722C53.6498 39.0245 53.979 39.1502 54.3091 39.1502C54.637 39.1502 54.9658 39.0245 55.2169 38.7747L56.6718 37.325L58.1225 38.7812C58.3735 39.0335 58.7027 39.1592 59.0328 39.1592C59.3607 39.1592 59.6896 39.0348 59.9406 38.7837C60.4427 38.2826 60.4453 37.469 59.9432 36.9656L58.4931 35.51L59.9496 34.0587C60.4517 33.5575 60.4543 32.744 59.9522 32.2406C59.451 31.7372 58.6374 31.7359 58.1341 32.238L56.6785 33.6884L55.2284 32.2328Z" fill="black"/>
<path d="M51.4746 16.8974C53.6016 16.8974 55.332 15.1671 55.332 13.04C55.332 10.913 53.6016 9.18262 51.4746 9.18262C49.3476 9.18262 47.6172 10.913 47.6172 13.04C47.6172 15.1671 49.3476 16.8974 51.4746 16.8974ZM51.4746 11.7542C52.184 11.7542 52.7604 12.3306 52.7604 13.04C52.7604 13.7495 52.184 14.3258 51.4746 14.3258C50.7652 14.3258 50.1888 13.7495 50.1888 13.04C50.1888 12.3306 50.7652 11.7542 51.4746 11.7542Z" fill="black"/>
<path d="M67.8048 26.6901C68.6014 26.5792 69.1572 25.8437 69.0466 25.0475C68.936 24.2513 68.2005 23.6952 67.404 23.8061C66.6074 23.917 66.0516 24.6521 66.1625 25.4487C66.2731 26.2449 67.0086 26.8007 67.8048 26.6901Z" fill="black"/>
<path d="M75.9034 69.6156H9.64051L21.8936 61.9008H68.1886C68.8993 61.9008 69.4744 61.3257 69.4744 60.615C69.4744 59.9043 68.8993 59.3292 68.1886 59.3292H25.9783L32.1247 55.4592C32.1462 55.4605 32.1646 55.4718 32.1864 55.4718H61.7599C62.4706 55.4718 63.0457 54.8967 63.0457 54.186C63.0457 53.4752 62.4706 52.9002 61.7599 52.9002H36.1895L40.2738 50.3286H56.6164C57.3271 50.3286 57.9022 49.7535 57.9022 49.0428C57.9022 48.332 57.3271 47.757 56.6164 47.757H41.1867V28.4699C41.1867 27.8322 40.7197 27.2908 40.0893 27.1979L5.37261 22.0547C5.00455 22.0033 4.62813 22.1087 4.34429 22.3537C4.06173 22.597 3.89844 22.9525 3.89844 23.3267V70.9014C3.89844 71.6121 4.47351 72.1872 5.18424 72.1872H75.9034C76.6141 72.1872 77.1892 71.6121 77.1892 70.9014C77.1892 70.1907 76.6141 69.6156 75.9034 69.6156ZM30.9003 42.074V53.1908L21.8997 58.8579V44.0741L30.9003 42.074ZM21.8997 41.4392V27.1028L30.9003 28.4358V39.4388L21.8997 41.4392ZM38.6151 48.3333L33.4719 51.5716V41.5025L38.6151 40.3594V48.3333ZM38.6151 37.7245L33.4719 38.8676V28.8168L38.6151 29.5786V37.7245ZM19.3281 26.7219V42.0107L6.47004 44.8681V24.8176L19.3281 26.7219ZM6.47004 47.503L19.3281 44.6456V60.4771L6.47004 68.5731V47.503Z" fill="black"/>
</svg>
