<svg width="89" height="89" viewBox="0 0 89 89" fill="none" xmlns="http://www.w3.org/2000/svg">
<path d="M63.3861 23.6726C63.8346 23.092 63.7275 22.2575 63.147 21.8087C62.5662 21.3602 61.732 21.4673 61.2832 22.0478C60.8347 22.6286 60.9414 23.4628 61.5222 23.9116C62.103 24.3604 62.9373 24.2534 63.3861 23.6726Z" fill="black"/>
<path d="M63.8744 67.7493C62.89 68.4149 62.6316 69.7527 63.2971 70.7372C63.963 71.7216 65.3006 71.98 66.2853 71.3145C67.2697 70.6486 67.5282 69.311 66.8626 68.3266C66.1967 67.3421 64.8588 67.0837 63.8744 67.7493Z" fill="black"/>
<path d="M41.0034 19.8601C41.6514 19.8601 42.1767 19.3348 42.1767 18.6868C42.1767 18.0387 41.6514 17.5134 41.0034 17.5134C40.3554 17.5134 39.8301 18.0387 39.8301 18.6868C39.8301 19.3348 40.3554 19.8601 41.0034 19.8601Z" fill="black"/>
<path d="M12.4819 26.0868C13.0146 26.371 13.5968 26.5153 14.1847 26.5153C14.5364 26.5153 14.8916 26.4637 15.2389 26.3584C16.1647 26.0777 16.9256 25.4544 17.3817 24.6019C17.8367 23.7495 17.934 22.7698 17.6533 21.8452C17.3726 20.9206 16.7493 20.1597 15.8968 19.7036C15.0432 19.2474 14.0647 19.15 13.1401 19.4308C12.2155 19.7115 11.4546 20.3348 10.9985 21.1872C10.5423 22.0397 10.445 23.0194 10.7257 23.944C11.0061 24.8697 11.6294 25.6306 12.4819 26.0868ZM13.0674 22.294C13.2278 21.9948 13.4947 21.7748 13.82 21.6765C13.9415 21.6398 14.0664 21.6214 14.1902 21.6214C14.3964 21.6214 14.6015 21.6718 14.7895 21.7727C15.0887 21.9332 15.3087 22.2001 15.407 22.5254C15.5052 22.8507 15.4712 23.1945 15.3119 23.4949C15.1515 23.7941 14.8834 24.0141 14.5581 24.1124C14.2328 24.2097 13.8902 24.1778 13.5886 24.0173C13.2894 23.8569 13.0694 23.5888 12.9711 23.2634C12.8729 22.9381 12.9069 22.5941 13.0674 22.294Z" fill="black"/>
<path d="M79.4624 41.4154C75.1527 36.0905 69.8422 31.8967 63.9339 29.0221L71.3725 19.3145C71.7656 18.8012 71.6694 18.0667 71.1584 17.6724L60.0152 9.06484C59.7688 8.87359 59.4573 8.78764 59.1467 8.82988C58.8372 8.87007 58.5565 9.03169 58.3664 9.27897L54.8684 13.8444C54.842 13.8723 54.8071 13.8872 54.7834 13.9183C54.7587 13.9503 54.7528 13.989 54.732 14.0225L46.6193 24.6118C45.9367 24.5801 45.2532 24.5534 44.566 24.5534C42.7728 24.5534 40.9949 24.6696 39.237 24.8825L33.644 16.8476C34.602 15.1735 34.556 13.0606 33.456 11.4323C31.869 9.08801 28.672 8.47025 26.3324 10.0572C25.1969 10.8237 24.428 11.9879 24.1679 13.3331C23.9077 14.6784 24.1872 16.0453 24.9552 17.1808C25.9152 18.5993 27.5207 19.4301 29.205 19.4301H29.2416L33.1911 26.0571C24.0848 28.4829 15.848 33.7814 9.66956 41.4151C9.32108 41.8448 9.32108 42.4611 9.66956 42.8909C13.6126 47.7628 18.3983 51.678 23.7076 54.5124L12.981 68.5118C12.5879 69.0251 12.6842 69.7596 13.1951 70.1539L24.3383 78.7614C24.5445 78.9219 24.7976 79.0066 25.0555 79.0066C25.1059 79.0066 25.1564 79.0031 25.2068 78.9964C25.5163 78.9562 25.797 78.7946 25.9871 78.5473L40.5408 59.5534C41.8735 59.6748 43.214 59.7534 44.5657 59.7534C46.3286 59.7534 48.0772 59.6214 49.8125 59.4146C51.4954 62.2793 53.3076 63.7175 54.5868 64.4248C54.018 65.4802 54.0257 66.8031 54.7429 67.8638C55.3847 68.8124 56.4354 69.3246 57.5031 69.3246C58.0306 69.3246 58.5603 69.1917 59.0496 68.9327L59.1531 72.7783C59.1634 73.1655 59.3652 73.5231 59.6917 73.7328L68.8824 79.642C69.076 79.767 69.2972 79.8289 69.5172 79.8289C69.7463 79.8289 69.9766 79.7614 70.1748 79.6271L72.5514 78.0196C72.9398 77.757 73.1346 77.2874 73.0466 76.8269L70.9874 66.0973C70.9117 65.7055 70.6424 65.3778 70.2714 65.23L66.6695 63.7853C68.0291 62.7196 68.365 60.7701 67.3826 59.3164C66.7751 58.417 65.7998 57.9207 64.7898 57.8705C64.7326 57.173 64.5493 56.251 64.1342 55.1642C65.793 54.3458 67.4169 53.4426 68.9789 52.4136C72.9298 49.8103 76.4566 46.6065 79.4621 42.8917C79.8106 42.4605 79.8106 41.8451 79.4624 41.4154ZM53.3786 19.6489L55.4331 21.2361C55.6463 21.401 55.8995 21.4813 56.1491 21.4813C56.5008 21.4813 56.8481 21.3244 57.0784 21.0252C57.475 20.5119 57.3808 19.775 56.8675 19.3799L54.8054 17.7868L55.9452 16.299L57.7798 17.7161C57.993 17.881 58.2462 17.9613 58.4958 17.9613C58.8475 17.9613 59.1948 17.8044 59.4251 17.5052C59.8216 16.9919 59.7275 16.255 59.2142 15.8599L57.372 14.4367L59.5134 11.6421L68.7991 18.8149L61.7386 28.028C57.824 26.3785 53.6801 25.2932 49.4136 24.8236L53.3786 19.6489ZM58.0188 29.1236C61.1452 32.3596 62.965 36.5241 63.2399 40.9801H56.1972C55.6064 35.0595 50.5969 30.4201 44.5234 30.4201C38.45 30.4201 33.4404 35.0595 32.8496 40.9801H25.8067C26.081 36.5431 27.89 32.3931 30.9955 29.1605C35.3204 27.678 39.8938 26.9001 44.566 26.9001C49.1962 26.9001 53.7285 27.6672 58.0188 29.1236ZM53.9101 42.1534C53.9101 47.3293 49.6993 51.5401 44.5234 51.5401C39.3476 51.5401 35.1368 47.3293 35.1368 42.1534C35.1368 36.9776 39.3476 32.7668 44.5234 32.7668C49.6993 32.7668 53.9101 36.9779 53.9101 42.1534ZM30.8826 17.5994C30.6338 17.1823 30.1595 16.9623 29.6761 17.0435C28.5966 17.2233 27.508 16.7663 26.8985 15.8667C26.4825 15.2501 26.3312 14.5088 26.4723 13.779C26.6134 13.0492 27.0302 12.4176 27.6468 12.0008C28.9175 11.1425 30.6511 11.476 31.5129 12.7468C32.2017 13.7667 32.1225 15.1427 31.3193 16.0937C30.9767 16.4994 30.9503 17.0849 31.2539 17.5202L36.653 25.2759C36.2954 25.3407 35.9408 25.4167 35.5856 25.4903L30.8826 17.5994ZM12.1045 42.1534C16.1874 37.3237 21.1553 33.5259 26.6536 30.9267C24.7531 33.9375 23.6583 37.3756 23.4603 40.9801H16.3634C15.7149 40.9801 15.1901 41.5049 15.1901 42.1534C15.1901 42.802 15.7149 43.3268 16.3634 43.3268H23.46C23.658 46.9312 24.7528 50.3697 26.6533 53.3802C21.1553 50.7809 16.1874 46.9832 12.1045 42.1534ZM24.8405 76.1848L15.5547 69.0119L18.4097 65.286L21.214 67.4525C21.4272 67.6174 21.6804 67.6978 21.93 67.6978C22.2817 67.6978 22.629 67.5408 22.8593 67.2416C23.2559 66.7295 23.1617 65.9914 22.6484 65.5963L19.8365 63.4239L21.2647 61.5601L23.155 63.0203C23.3682 63.1851 23.6214 63.2655 23.871 63.2655C24.2227 63.2655 24.57 63.1086 24.8003 62.8094C25.1969 62.296 25.1027 61.5592 24.5894 61.1641L22.6915 59.698L25.8448 55.5831C29.6394 57.3551 33.6701 58.5836 37.836 59.2245L24.8405 76.1848ZM30.9958 55.1466C27.8903 51.9138 26.081 47.764 25.807 43.3271H32.8499C33.4407 49.2477 38.4503 53.8871 44.5237 53.8871C50.5972 53.8871 55.6067 49.2477 56.1975 43.3271H63.2402C62.9659 47.7678 61.156 51.92 58.0467 55.151C53.7244 56.6221 49.1854 57.4071 44.566 57.4071C39.8938 57.4068 35.3204 56.6288 30.9958 55.1466ZM70.5958 76.5089L69.5016 77.249L61.4831 72.094L61.3572 67.405L64.3501 65.3816L68.8038 67.1683L70.5958 76.5089ZM65.1762 61.9901L58.0455 66.8119C57.5996 67.112 56.9889 66.9964 56.6865 66.5485C56.3841 66.1017 56.502 65.4919 56.9499 65.1895L64.0806 60.3688C64.2445 60.2577 64.4334 60.2005 64.627 60.2005C64.6889 60.2005 64.752 60.2063 64.8139 60.2187C65.0706 60.2679 65.2929 60.4146 65.4384 60.6299C65.7411 61.0781 65.6229 61.6877 65.1762 61.9901ZM62.4666 58.6273L56.4342 62.7055C55.8077 62.4803 54.0937 61.6525 52.3434 59.0374C54.6604 58.6235 56.9364 58.0269 59.1572 57.2498C59.1575 57.2495 59.1581 57.2495 59.1587 57.2492C60.1182 56.9134 61.0657 56.5438 62.002 56.1416C62.4411 57.3463 62.4828 58.2199 62.4666 58.6273ZM67.6888 50.4539C65.9758 51.5829 64.1947 52.5779 62.3602 53.4388C64.2821 50.4149 65.3876 46.9553 65.5868 43.3268H72.6837C73.3323 43.3268 73.8571 42.802 73.8571 42.1534C73.8571 41.5049 73.3323 40.9801 72.6837 40.9801H65.5868C65.3879 37.3513 64.2824 33.8932 62.3613 30.8701C67.9062 33.4705 72.9155 37.2891 77.0277 42.1534C74.3106 45.3687 71.1722 48.1577 67.6888 50.4539Z" fill="black"/>
<path d="M44.5234 35.1135C43.5208 35.1135 42.5343 35.3335 41.5912 35.7677C41.0676 36.0082 40.796 36.5937 40.9518 37.1496C40.9873 37.2757 41.0034 37.3742 41.0034 37.4602C41.0034 38.1076 40.4775 38.6335 39.8301 38.6335C39.7441 38.6335 39.6456 38.6174 39.5194 38.5819C38.9603 38.425 38.3769 38.6986 38.1375 39.2214C37.7034 40.1644 37.4834 41.1509 37.4834 42.1535C37.4834 46.0355 40.6414 49.1935 44.5234 49.1935C48.4054 49.1935 51.5634 46.0355 51.5634 42.1535C51.5634 38.2716 48.4057 35.1135 44.5234 35.1135ZM44.5234 46.8469C41.935 46.8469 39.8301 44.7419 39.8301 42.1535C39.8301 41.7581 39.8829 41.365 39.987 40.9767C41.803 40.8966 43.2665 39.4332 43.3465 37.6171C43.7349 37.513 44.128 37.4602 44.5234 37.4602C47.1118 37.4602 49.2167 39.5652 49.2167 42.1535C49.2167 44.7419 47.1121 46.8469 44.5234 46.8469Z" fill="black"/>
</svg>
