<svg width="81" height="81" viewBox="0 0 81 81" fill="none" xmlns="http://www.w3.org/2000/svg">
<g clip-path="url(#clip0)">
<path d="M65.6563 32.8723H35.8545C37.2326 31.2882 38.07 29.2219 38.07 26.9624C38.07 21.99 34.0248 17.9448 29.0524 17.9448C24.0801 17.9448 20.0349 21.99 20.0349 26.9624C20.0349 29.2219 20.8722 31.2882 22.2501 32.8723H15.1362C10.8373 32.8723 7.33984 36.3697 7.33984 40.6686V49.8681C7.33984 50.7293 8.03793 51.4274 8.89911 51.4274C9.76029 51.4274 10.4584 50.7293 10.4584 49.8681V40.6686C10.4584 38.0893 12.5568 35.9908 15.1362 35.9908H58.7955C61.3748 35.9908 63.4733 38.0893 63.4733 40.6686V49.0886H47.257C42.9581 49.0886 39.4607 52.586 39.4607 56.8849C39.4607 61.1838 42.9581 64.6812 47.257 64.6812H63.4733V73.1013C63.4733 75.6806 61.3748 77.7791 58.7955 77.7791H15.1362C12.5568 77.7791 10.4584 75.6806 10.4584 73.1013V63.8895C10.4584 63.0283 9.76029 62.3302 8.89911 62.3302C8.03793 62.3302 7.33984 63.0283 7.33984 63.8895V73.1013C7.33984 77.4002 10.8373 80.8976 15.1362 80.8976H65.6563C69.9552 80.8976 73.4526 77.4002 73.4526 73.1013V40.6686C73.4526 36.3697 69.9552 32.8723 65.6563 32.8723ZM29.0524 21.0635C32.3052 21.0635 34.9514 23.7097 34.9514 26.9625C34.9514 30.2153 32.3052 32.8615 29.0524 32.8615C25.7998 32.8615 23.1534 30.2153 23.1534 26.9625C23.1534 23.7097 25.7996 21.0635 29.0524 21.0635ZM65.0284 35.9908H65.6563C68.2356 35.9908 70.3341 38.0893 70.3341 40.6686V49.0886H66.5918V40.6686C66.5918 38.9149 66.0094 37.2948 65.0284 35.9908ZM42.5792 56.8849C42.5792 54.3056 44.6776 52.2071 47.257 52.2071H70.3341V61.5627H47.257C44.6776 61.5627 42.5792 59.4643 42.5792 56.8849ZM65.6563 77.7791H65.0284C66.0094 76.475 66.5918 74.8551 66.5918 73.1013V64.6812H70.3341V73.1013C70.3341 75.6806 68.2356 77.7791 65.6563 77.7791Z" fill="#0A1124"/>
<path d="M46.8561 55.3257C46.4445 55.3257 46.0422 55.4925 45.7522 55.7825C45.4622 56.0726 45.2969 56.4749 45.2969 56.885C45.2969 57.295 45.4622 57.6973 45.7522 57.9873C46.0438 58.2774 46.4445 58.4442 46.8561 58.4442C47.2662 58.4442 47.667 58.2774 47.9585 57.9873C48.2486 57.6973 48.4154 57.295 48.4154 56.885C48.4154 56.4749 48.2486 56.0726 47.9585 55.7825C47.6685 55.4924 47.2662 55.3257 46.8561 55.3257Z" fill="#0A1124"/>
<path d="M51.7402 22.3624C56.7125 22.3624 60.7577 18.3173 60.7577 13.3449C60.7577 8.37274 56.7125 4.32739 51.7402 4.32739C46.7678 4.32739 42.7227 8.37259 42.7227 13.3449C42.7227 18.3173 46.7678 22.3624 51.7402 22.3624ZM51.7402 7.44607C54.9928 7.44607 57.6392 10.0923 57.6392 13.3451C57.6392 16.5979 54.9929 19.2441 51.7402 19.2441C48.4874 19.2441 45.8412 16.5979 45.8412 13.3451C45.8412 10.0923 48.4874 7.44607 51.7402 7.44607Z" fill="#0A1124"/>
<path d="M36.5085 16.2691C37.3697 16.2691 38.0677 15.571 38.0677 14.7098V2.45697C38.0677 1.59579 37.3697 0.897705 36.5085 0.897705C35.6473 0.897705 34.9492 1.59579 34.9492 2.45697V14.7098C34.9492 15.571 35.6473 16.2691 36.5085 16.2691Z" fill="#0A1124"/>
<path d="M29.0241 10.877C29.8853 10.877 30.5834 10.1789 30.5834 9.31772V2.45697C30.5834 1.59579 29.8853 0.897705 29.0241 0.897705C28.1629 0.897705 27.4648 1.59579 27.4648 2.45697V9.31772C27.4648 10.1789 28.1629 10.877 29.0241 10.877Z" fill="#0A1124"/>
<path d="M8.89911 58.4442C9.30919 58.4442 9.71148 58.2774 10.0015 57.9873C10.2915 57.6973 10.4584 57.295 10.4584 56.885C10.4584 56.4749 10.2915 56.0726 10.0015 55.7825C9.71148 55.4925 9.31075 55.3257 8.89911 55.3257C8.48902 55.3257 8.08673 55.4925 7.79671 55.7825C7.50669 56.0726 7.33984 56.4749 7.33984 56.885C7.33984 57.295 7.50669 57.6973 7.79671 57.9873C8.08673 58.2774 8.48887 58.4442 8.89911 58.4442Z" fill="#0A1124"/>
</g>
<defs>
<clipPath id="clip0">
<rect width="80" height="80" fill="white" transform="translate(0.394531 0.897705)"/>
</clipPath>
</defs>
</svg>
