<svg width="89" height="88" viewBox="0 0 89 88" fill="none" xmlns="http://www.w3.org/2000/svg">
<path d="M75.4367 58.6668L76.2662 57.8372C76.7244 57.379 76.7244 56.6363 76.2662 56.1781C75.808 55.7199 75.0653 55.7199 74.6071 56.1781L73.7776 57.0077L72.948 56.1781C72.4899 55.7199 71.7471 55.7199 71.289 56.1781C70.8308 56.6363 70.8308 57.379 71.289 57.8372L72.1185 58.6668L71.289 59.4963C70.8308 59.9545 70.8308 60.6972 71.289 61.1554C71.518 61.3845 71.8184 61.4992 72.1185 61.4992C72.4186 61.4992 72.7189 61.3845 72.948 61.1554L73.7776 60.3258L74.6071 61.1554C74.8362 61.3845 75.1366 61.4992 75.4367 61.4992C75.7368 61.4992 76.0371 61.3845 76.2662 61.1554C76.7244 60.6972 76.7244 59.9545 76.2662 59.4963L75.4367 58.6668Z" fill="black"/>
<path d="M55.0054 75.0935C55.6534 75.0935 56.1787 74.5682 56.1787 73.9202C56.1787 73.2721 55.6534 72.7468 55.0054 72.7468C54.3574 72.7468 53.832 73.2721 53.832 73.9202C53.832 74.5682 54.3574 75.0935 55.0054 75.0935Z" fill="black"/>
<path d="M65.2482 12.9067H57.3523C56.7037 12.9067 56.179 13.4315 56.179 14.0801C56.179 14.7286 56.7037 15.2534 57.3523 15.2534H65.2482C66.0699 15.2534 66.739 15.9225 66.739 16.7441V65.3894C66.739 66.211 66.0699 66.8801 65.2482 66.8801H16.603C15.7814 66.8801 15.1123 66.211 15.1123 65.3894V16.7441C15.1123 15.9225 15.7814 15.2534 16.603 15.2534H51.3287C51.9773 15.2534 52.502 14.7286 52.502 14.0801C52.502 13.4315 51.9773 12.9067 51.3287 12.9067H16.603C14.4866 12.9067 12.7656 14.6277 12.7656 16.7441V65.3894C12.7656 67.5058 14.4866 69.2267 16.603 69.2267H65.2482C67.3646 69.2267 69.0856 67.5058 69.0856 65.3894V16.7441C69.0856 14.6277 67.3646 12.9067 65.2482 12.9067Z" fill="black"/>
<path d="M36.2327 26.9869C36.2327 26.3383 35.7079 25.8135 35.0593 25.8135C34.4108 25.8135 33.886 26.3383 33.886 26.9869V32.3678L20.6355 19.1173C20.1774 18.6591 19.4346 18.6591 18.9765 19.1173C18.5183 19.5755 18.5183 20.3182 18.9765 20.7764L32.2269 34.0269H26.846C26.1974 34.0269 25.6727 34.5516 25.6727 35.2002C25.6727 35.8488 26.1974 36.3735 26.846 36.3735H35.0593C35.7079 36.3735 36.2327 35.8488 36.2327 35.2002V26.9869Z" fill="black"/>
<path d="M56.1772 46.9333C56.1772 46.2848 55.6524 45.76 55.0039 45.76H46.7905C46.142 45.76 45.6172 46.2848 45.6172 46.9333V55.1467C45.6172 55.7952 46.142 56.32 46.7905 56.32C47.4391 56.32 47.9639 55.7952 47.9639 55.1467V49.7658L61.2143 63.0162C61.4434 63.2453 61.7438 63.36 62.0438 63.36C62.3439 63.36 62.6443 63.2453 62.8734 63.0162C63.3316 62.558 63.3316 61.8153 62.8734 61.3571L49.6229 48.1067H55.0039C55.6524 48.1067 56.1772 47.5819 56.1772 46.9333Z" fill="black"/>
<path d="M62.8734 19.1173C62.4152 18.6591 61.6725 18.6591 61.2143 19.1173L47.9639 32.3678V26.9869C47.9639 26.3383 47.4391 25.8135 46.7905 25.8135C46.142 25.8135 45.6172 26.3383 45.6172 26.9869V35.2002C45.6172 35.8488 46.142 36.3735 46.7905 36.3735H55.0039C55.6524 36.3735 56.1772 35.8488 56.1772 35.2002C56.1772 34.5516 55.6524 34.0269 55.0039 34.0269H49.6229L62.8734 20.7764C63.3316 20.3182 63.3316 19.5755 62.8734 19.1173Z" fill="black"/>
<path d="M35.0593 56.32C35.7079 56.32 36.2327 55.7952 36.2327 55.1467V46.9333C36.2327 46.2848 35.7079 45.76 35.0593 45.76H26.846C26.1974 45.76 25.6727 46.2848 25.6727 46.9333C25.6727 47.5819 26.1974 48.1067 26.846 48.1067H32.2269L18.9765 61.3571C18.5183 61.8153 18.5183 62.558 18.9765 63.0162C19.2055 63.2453 19.5059 63.36 19.806 63.36C20.1061 63.36 20.4065 63.2453 20.6355 63.0162L33.886 49.7658V55.1467C33.886 55.7952 34.4108 56.32 35.0593 56.32Z" fill="black"/>
</svg>
