<svg width="73" height="73" viewBox="0 0 73 73" fill="none" xmlns="http://www.w3.org/2000/svg">
<g clip-path="url(#clip0)">
<path d="M66.667 68.7417L6.35647 68.7868C5.56895 68.7874 4.93013 68.1491 4.92957 67.3622L4.90674 36.1587C4.90618 35.3712 5.54388 34.7324 6.33141 34.7318L66.642 34.6873C67.4295 34.6867 68.0683 35.3244 68.0688 36.1119L68.0917 67.3154C68.0922 68.1023 67.4545 68.7411 66.667 68.7417Z" fill="#FD6069"/>
<path d="M66.667 68.7417L36.5111 68.7645L36.4861 34.7095L66.6419 34.6873C67.4289 34.6867 68.0677 35.3244 68.0682 36.1119L68.0916 67.3154C68.0922 68.1023 67.4545 68.7411 66.667 68.7417Z" fill="#FC3E4B"/>
<path d="M36.5 42.9656C26.9902 35.9425 15.6134 35.6339 9.55273 36.0996V60.3829C9.55273 61.1955 10.2294 61.8444 11.0403 61.8076C17.35 61.5197 27.7209 62.281 36.5 68.7644C45.2791 62.281 55.65 61.5197 61.9597 61.8076C62.7706 61.8444 63.4473 61.1955 63.4473 60.3829V36.0996C57.3866 35.6339 46.0098 35.9425 36.5 42.9656Z" fill="#9CC6DB"/>
<path d="M36.5 42.9656C26.9902 35.9425 15.6134 35.6339 9.55273 36.0996V60.3829C9.55273 61.1955 10.2294 61.8444 11.0403 61.8076C17.35 61.5197 27.7209 62.281 36.5 68.7644V42.9656Z" fill="#BDDFF4"/>
<path d="M9.55273 32.4136V55.3581C9.55273 56.1701 10.2294 56.819 11.0403 56.7822C17.35 56.4943 27.7209 57.2556 36.5 63.739V37.9402C27.6579 31.41 17.2007 30.6848 10.905 30.99C10.147 31.0262 9.55273 31.655 9.55273 32.4136Z" fill="#E3F4FF"/>
<path d="M63.4473 32.4136V55.3581C63.4473 56.1701 62.7711 56.819 61.9597 56.7822C55.65 56.4943 45.2791 57.2556 36.5 63.739V37.9402C45.3426 31.41 55.7993 30.6848 62.0956 30.99C62.853 31.0262 63.4473 31.655 63.4473 32.4136Z" fill="#BDDFF4"/>
<path d="M49.3439 51.3877C49.3439 53.4678 45.0649 55.2089 39.3389 55.6483H39.3378C38.425 55.7179 37.4754 55.7552 36.5001 55.7552C35.5249 55.7552 34.5753 55.7179 33.6631 55.6483H33.6614C27.9354 55.2089 23.657 53.4678 23.657 51.3877C23.657 50.1045 25.2821 48.951 27.8703 48.1529C30.1499 47.4484 33.1769 47.0195 36.5001 47.0195C39.824 47.0195 42.8504 47.4484 45.1306 48.1529C47.7181 48.951 49.3439 50.1045 49.3439 51.3877Z" fill="#618BAA"/>
<path d="M71.9307 13.4707L55.229 35.0841L45.1304 48.1528L39.3388 55.6482H39.3371C38.4248 55.7178 37.4752 55.7551 36.5 55.7551C35.5248 55.7551 34.5752 55.7178 33.6629 55.6482H33.6612L27.8696 48.1528L17.771 35.0841L1.06934 13.4707H71.9307Z" fill="#A6FFEE"/>
<path d="M49.5303 42.4582L45.1304 48.153L39.3376 55.6483C38.4248 55.718 37.4752 55.7553 36.5 55.7553C35.5248 55.7553 34.5752 55.718 33.6629 55.6483L27.8701 48.153L23.4697 42.4582C21.1461 39.4501 23.2887 35.0842 27.0915 35.0842H45.909C49.7113 35.0842 51.8544 39.4501 49.5303 42.4582Z" fill="#FC3E4B"/>
<path d="M36.5 37.9825C34.8002 37.9825 33.4224 36.6046 33.4224 34.9043V29.1003H39.5783V34.9043C39.5783 36.6046 38.2004 37.9825 36.5 37.9825Z" fill="#FD6069"/>
<path d="M49.8555 19.0666C49.8555 20.6288 48.589 21.8953 47.0268 21.8953C45.464 21.8953 44.1975 20.6288 44.1975 19.0666C44.1975 17.5038 45.464 16.2373 47.0268 16.2373C48.589 16.2373 49.8555 17.5038 49.8555 19.0666Z" fill="#FECBAA"/>
<path d="M28.8025 19.0666C28.8025 20.6288 27.536 21.8953 25.9738 21.8953C24.411 21.8953 23.1445 20.6288 23.1445 19.0666C23.1445 17.5038 24.411 16.2373 25.9738 16.2373C27.536 16.2373 28.8025 17.5038 28.8025 19.0666Z" fill="#FECBAA"/>
<path d="M27.2725 14.0188L28.0745 24.1357C28.4226 28.5306 32.0912 31.9196 36.4999 31.9196C40.9087 31.9196 44.5773 28.5306 44.9254 24.1357L45.7274 14.0188H27.2725Z" fill="#FEDFC5"/>
<path d="M47.2785 16.7457H25.7214C24.8904 16.7457 24.217 16.0718 24.217 15.2408C24.217 9.14672 29.1571 4.20605 35.2512 4.20605H37.7486C43.8427 4.20605 48.7828 9.14672 48.7828 15.2408C48.7834 16.0718 48.1095 16.7457 47.2785 16.7457Z" fill="#BDDFF4"/>
<path d="M48.7834 15.2408C48.7834 15.6557 48.6152 16.0322 48.3429 16.3045C48.0705 16.5769 47.6951 16.7451 47.2791 16.7451H44.3963C44.8124 16.7451 45.1872 16.5769 45.4596 16.3045C45.7319 16.0322 45.9001 15.6557 45.9001 15.2408C45.9001 9.14721 40.96 4.20654 34.8665 4.20654H37.7492C43.8427 4.20654 48.7834 9.14721 48.7834 15.2408Z" fill="#9CC6DB"/>
<path d="M72.5846 12.6248C72.1173 12.2639 71.4457 12.3497 71.0848 12.8176L51.3917 38.3006C51.2954 37.9169 51.1572 37.5381 50.9773 37.1711C50.0211 35.224 48.0796 34.0144 45.9097 34.0144H40.6477V32.0378C41.4836 31.6329 42.2645 31.1054 42.9612 30.4616C44.7256 28.8314 45.8022 26.6148 45.9921 24.2205L46.1007 22.8504C46.4026 22.9244 46.7134 22.9645 47.0269 22.9645C49.1767 22.9645 50.9255 21.2157 50.9255 19.0665C50.9255 17.9687 50.4521 16.93 49.6652 16.201C49.7855 15.9041 49.8529 15.5806 49.8529 15.2408C49.8529 8.56694 44.4232 3.13672 37.7488 3.13672H35.252C28.5775 3.13672 23.1479 8.56694 23.1479 15.2408C23.1479 15.5783 23.2147 15.8997 23.3333 16.1954C22.5403 16.9217 22.0752 17.9515 22.0752 19.0665C22.0752 21.2157 23.824 22.9645 25.9738 22.9645C26.2879 22.9645 26.5982 22.9244 26.9 22.8504L27.0086 24.2205C27.1985 26.6148 28.2751 28.8314 30.0395 30.4616C30.7363 31.1054 31.5165 31.6329 32.3531 32.0378V34.0144H27.0911C24.9218 34.0144 22.9797 35.224 22.0234 37.1717C21.8435 37.5381 21.7054 37.9169 21.609 38.3012L1.91599 12.817C1.55454 12.3497 0.88286 12.2639 0.415582 12.6248C-0.0516953 12.9863 -0.138022 13.6574 0.223436 14.1247L12.3933 29.8729C11.8781 29.8818 11.364 29.8974 10.8533 29.9219C9.52443 29.986 8.4835 31.0809 8.4835 32.4142V33.6607L6.3309 33.6624C4.95469 33.6635 3.83634 34.7835 3.83746 36.1597L3.86029 67.3626C3.86141 68.7377 4.98031 69.856 6.35597 69.856H6.35764L66.6676 69.8115C68.0438 69.8104 69.1622 68.6904 69.1611 67.3141L69.1566 61.3415C69.1561 60.7511 68.6776 60.2732 68.0873 60.2732H68.0867C67.4958 60.2732 67.0174 60.7522 67.0179 61.3431L67.0224 67.3158C67.0224 67.5124 66.8631 67.6723 66.6665 67.6728L40.0857 67.6923C47.668 63.2963 55.9731 62.604 61.9113 62.8758C62.5986 62.9076 63.2485 62.6625 63.7453 62.188C64.2354 61.7196 64.5167 61.0619 64.5167 60.3835V46.7996C64.5167 46.2087 64.0383 45.7303 63.4474 45.7303C62.857 45.7303 62.378 46.2087 62.378 46.7996V55.3582C62.378 55.4919 62.309 55.5776 62.2677 55.6172C62.2271 55.6562 62.138 55.7202 62.0088 55.7141C55.395 55.4133 45.9726 56.2543 37.57 61.7001V56.8096C44.1169 56.6269 50.4126 54.7728 50.4126 51.3877C50.4126 51.351 50.4115 51.3142 50.4098 51.2763C52.886 50.7383 55.488 50.4158 58.1603 50.3212C58.7506 50.3006 59.2123 49.8049 59.1912 49.2145C59.17 48.6242 58.6732 48.1624 58.0845 48.1842C55.1171 48.2889 52.2288 48.6637 49.4897 49.2919C49.0091 48.7901 48.2995 48.2866 47.2742 47.8177C50.6593 46.7773 54.3168 46.1808 58.1603 46.0444C58.7506 46.0238 59.2123 45.5281 59.1912 44.9383C59.1706 44.3607 58.6966 43.9068 58.1235 43.9068C58.1107 43.9068 58.0979 43.9068 58.0851 43.9074C54.8453 44.0221 51.7276 44.4498 48.7774 45.1817L50.7312 42.6537C53.1071 42.1575 55.605 41.8584 58.1603 41.7676C58.7506 41.747 59.2118 41.2513 59.1912 40.6609C59.17 40.0706 58.6732 39.6094 58.0845 39.6306C56.2488 39.6952 54.4404 39.8651 52.6794 40.1324L54.5062 37.7682C55.7041 37.6295 56.9305 37.5348 58.1603 37.4908C58.7506 37.4702 59.2118 36.9745 59.1912 36.3847C59.17 35.7943 58.6727 35.336 58.0845 35.3538C57.4869 35.375 56.8899 35.4095 56.2956 35.4524L58.9556 32.0105C59.9815 31.9943 61.0185 32.0088 62.0433 32.0584C62.231 32.0673 62.378 32.2238 62.378 32.4142V41.8773C62.378 42.4682 62.8564 42.9466 63.4474 42.9466C64.0383 42.9466 64.5167 42.4682 64.5167 41.8773V35.7581L66.6426 35.7565H66.6431C66.7712 35.7565 66.8559 35.8222 66.8949 35.8606C66.9338 35.8996 66.999 35.9843 66.999 36.1129L67.014 56.4208C67.0146 57.0112 67.493 57.4896 68.0834 57.4896H68.0845C68.6749 57.4891 69.1533 57.0101 69.1527 56.4192L69.1377 36.1113C69.1377 35.4446 68.8776 34.818 68.4058 34.3474C67.9347 33.8768 67.3087 33.6178 66.6431 33.6178C66.6426 33.6178 66.6414 33.6178 66.6409 33.6178L64.5167 33.6195V32.4142C64.5167 31.0809 63.4758 29.9865 62.1469 29.9219C61.6356 29.8974 61.1216 29.8818 60.6075 29.8729L72.7768 14.1253C73.1382 13.658 73.0519 12.9863 72.5846 12.6248ZM47.0269 20.8259C46.7613 20.8259 46.5067 20.768 46.2745 20.6571L46.4995 17.815H47.2787C47.5683 17.815 47.8462 17.7643 48.1068 17.6758C48.5329 18.0049 48.7869 18.5112 48.7869 19.0665C48.7863 20.0367 47.9971 20.8259 47.0269 20.8259ZM35.252 5.27539H37.7488C43.2436 5.27539 47.7142 9.74599 47.7142 15.2408C47.7142 15.4809 47.5187 15.6764 47.2787 15.6764H42.6471V12.0529C42.6471 11.4625 42.1687 10.9835 41.5778 10.9835C40.9874 10.9835 40.5084 11.4625 40.5084 12.0529V15.6764H39.6608V13.433C39.6608 12.8421 39.1818 12.3636 38.5914 12.3636C38.0005 12.3636 37.5221 12.8421 37.5221 13.433V15.6764H25.7221C25.482 15.6764 25.2866 15.4809 25.2866 15.2408C25.2866 9.74599 29.7572 5.27539 35.252 5.27539ZM25.9738 20.8259C25.0031 20.8259 24.2139 20.0367 24.2139 19.0665C24.2139 18.5129 24.4684 18.0055 24.8945 17.6758C25.1546 17.7649 25.4319 17.815 25.7215 17.815H26.5007L26.7263 20.6571C26.4935 20.768 26.2395 20.8259 25.9738 20.8259ZM29.1406 24.0511L28.646 17.815H44.3541L43.8596 24.0511C43.5577 27.864 40.3246 30.8503 36.5001 30.8503C32.6755 30.8503 29.4425 27.864 29.1406 24.0511ZM36.5001 32.989C37.1818 32.989 37.854 32.9144 38.509 32.7735V34.9049C38.509 36.0121 37.6079 36.9133 36.5001 36.9133C35.3923 36.9133 34.4912 36.0121 34.4912 34.9049V32.7735C35.1462 32.9144 35.8184 32.989 36.5001 32.989ZM24.3158 41.8038C23.4793 40.7216 23.34 39.3421 23.9426 38.114C24.5458 36.886 25.7226 36.153 27.0905 36.153H32.5452C32.9702 37.4964 34.0618 38.5457 35.4308 38.9116V54.6692C35.0136 54.6575 34.6076 54.6397 34.2133 54.6152C34.2044 54.603 34.196 54.5896 34.1865 54.5773L24.3164 41.8049C24.3164 41.8044 24.3164 41.8044 24.3158 41.8038ZM31.2687 54.2989C27.0025 53.6216 24.7268 52.2153 24.7268 51.3872C24.7268 50.9076 25.5957 50.0989 27.4898 49.4089L31.2687 54.2989ZM10.6222 32.4142C10.6222 32.2232 10.7692 32.0667 10.9563 32.0578C11.9806 32.0088 13.0176 31.9938 14.0446 32.0105L16.7046 35.4524C16.1103 35.4095 15.5133 35.375 14.9157 35.3532C14.3253 35.3365 13.8302 35.7938 13.809 36.3842C13.7884 36.9745 14.2496 37.4696 14.8399 37.4908C16.0697 37.5342 17.2961 37.6289 18.494 37.7682L20.3208 40.1318C18.5598 39.8651 16.7514 39.6952 14.9157 39.63C14.3225 39.6094 13.8302 40.0706 13.809 40.6609C13.7884 41.2513 14.2496 41.7464 14.8399 41.7676C17.3935 41.8578 19.8925 42.1558 22.2679 42.652L24.2239 45.1828C21.2743 44.4504 18.1565 44.0216 14.9157 43.9068C14.3225 43.889 13.8302 44.3474 13.809 44.9372C13.7884 45.5275 14.2496 46.0232 14.8399 46.0438C18.6856 46.1803 22.342 46.7773 25.7271 47.8183C24.7023 48.2878 23.9939 48.7918 23.5143 49.2919C20.7736 48.6631 17.8842 48.2883 14.9157 48.1836C14.3225 48.1619 13.8302 48.6242 13.809 49.214C13.7878 49.8043 14.2496 50.2994 14.8399 50.3206C17.5121 50.4153 20.1142 50.7378 22.5898 51.2758C22.5887 51.3136 22.5876 51.3504 22.5876 51.3872C22.5876 54.7723 28.8833 56.6264 35.4308 56.809V61.7035C32.0707 59.5314 28.269 57.9212 24.0991 56.9121C23.5249 56.7739 22.9474 57.1259 22.8081 57.7001C22.6695 58.2738 23.022 58.8519 23.5962 58.9906C28.0212 60.0616 31.9989 61.8438 35.4302 64.2877V66.7271C27.027 61.2807 17.604 60.437 10.9914 60.7388C10.8611 60.745 10.7731 60.6804 10.7324 60.6414C10.6912 60.6018 10.6222 60.5161 10.6222 60.3829V57.8266C10.7753 57.8477 10.9313 57.8572 11.0889 57.85C13.6876 57.7319 16.2819 57.8255 18.797 58.129C18.841 58.134 18.8839 58.1368 18.9268 58.1368C19.4598 58.1368 19.9215 57.738 19.9872 57.1955C20.0579 56.6091 19.6397 56.0761 19.0532 56.0054C16.4205 55.6879 13.7082 55.5893 10.9914 55.7135C10.8605 55.7208 10.7725 55.655 10.7324 55.6166C10.6912 55.5771 10.6222 55.4907 10.6222 55.3576V32.4142ZM6.35597 67.7174C6.15936 67.7174 5.99952 67.5575 5.99896 67.3609L5.97613 36.158C5.97613 36.0294 6.04129 35.9447 6.08028 35.9057C6.11926 35.8668 6.20336 35.801 6.33202 35.801L8.4835 35.7994V60.3829C8.4835 61.0613 8.76476 61.7191 9.25542 62.188C9.75166 62.6625 10.3999 62.907 11.0894 62.8753C17.0276 62.6035 25.3383 63.2969 32.9239 67.6973L6.35597 67.7174ZM61.9113 57.8505C62.0695 57.8578 62.2249 57.8488 62.378 57.8271V60.3829C62.378 60.5166 62.309 60.6024 62.2677 60.6419C62.2271 60.6804 62.1374 60.7455 62.0088 60.7388C55.3939 60.4375 45.9726 61.2813 37.5694 66.7277V64.2888C45.7783 58.4387 55.3093 57.5498 61.9113 57.8505ZM37.5694 38.9116C38.9384 38.5457 40.03 37.4964 40.455 36.153H45.9097C47.2776 36.153 48.4544 36.886 49.0576 38.114C49.6602 39.3421 49.5209 40.7216 48.6844 41.8038C48.6844 41.8044 48.6838 41.8044 48.6838 41.8049L38.8136 54.5773C38.8042 54.5896 38.7958 54.603 38.7869 54.6158C38.3926 54.6397 37.9866 54.6581 37.5694 54.6692V38.9116ZM48.2734 51.3872C48.2734 52.2153 45.9977 53.6216 41.732 54.2989L45.5104 49.4094C47.4012 50.0973 48.2734 50.8932 48.2734 51.3872Z" fill="black"/>
<path d="M41.5776 44.0933H44.1975C44.7884 44.0933 45.2668 43.6148 45.2668 43.0239C45.2668 42.4336 44.7884 41.9546 44.1975 41.9546H41.5776C40.9873 41.9546 40.5083 42.4336 40.5083 43.0239C40.5083 43.6148 40.9873 44.0933 41.5776 44.0933Z" fill="black"/>
<path d="M33.4411 20.352C33.435 19.7616 32.9443 19.2865 32.3606 19.2938H32.3472C31.7569 19.2999 31.2896 19.7839 31.2957 20.3743C31.3018 20.9613 31.7858 21.4324 32.3717 21.4324H32.3829C32.9732 21.4263 33.4472 20.9423 33.4411 20.352Z" fill="black"/>
<path d="M40.6415 21.4324H40.6526C41.243 21.4262 41.717 20.9423 41.7108 20.3519C41.7047 19.7654 41.2269 19.2937 40.6421 19.2937C40.6382 19.2937 40.6343 19.2937 40.6304 19.2937H40.617C40.0266 19.2998 39.5594 19.7838 39.5655 20.3742C39.5716 20.9612 40.0556 21.4324 40.6415 21.4324Z" fill="black"/>
<path d="M40.4386 24.416C40.5316 23.8329 40.1345 23.2849 39.5513 23.1918C38.9666 23.0994 38.4196 23.4959 38.3266 24.0791C38.1824 24.9824 37.4143 25.6379 36.4998 25.6379C35.5853 25.6379 34.8173 24.9824 34.6731 24.0791C34.58 23.4959 34.0326 23.0994 33.4483 23.1918C32.8652 23.2849 32.4681 23.8329 32.5611 24.416C32.8719 26.3631 34.5282 27.7766 36.4998 27.7766C38.4709 27.7766 40.1278 26.3631 40.4386 24.416Z" fill="black"/>
<path d="M57.7346 18.3541C57.7446 18.3541 57.7541 18.3547 57.7641 18.3547C58.3411 18.3547 58.8167 17.8946 58.8323 17.3137L58.834 17.2569C58.8496 16.6666 58.384 16.1753 57.7936 16.1597C57.201 16.1458 56.712 16.6092 56.6959 17.1995L56.6947 17.2564C56.6786 17.8467 57.1442 18.3379 57.7346 18.3541Z" fill="black"/>
<path d="M57.807 19.7789C57.2127 19.7639 56.7243 20.2261 56.707 20.816L56.7048 20.8728C56.6881 21.4631 57.152 21.956 57.7424 21.9733C57.753 21.9733 57.7641 21.9738 57.7747 21.9738C58.3506 21.9738 58.8256 21.5155 58.8429 20.9357L58.8446 20.8789C58.8618 20.2885 58.3973 19.7962 57.807 19.7789Z" fill="black"/>
<path d="M58.4814 19.0288C58.4642 19.6191 58.9287 20.112 59.519 20.1293L59.5758 20.131C59.5864 20.1315 59.597 20.1315 59.6076 20.1315C60.184 20.1315 60.6591 19.6732 60.6764 19.0939C60.6936 18.5036 60.2291 18.0107 59.6388 17.9934L59.582 17.9917C58.9877 17.9734 58.4992 18.4384 58.4814 19.0288Z" fill="black"/>
<path d="M55.9001 20.1398L55.9569 20.1415C55.9675 20.142 55.9786 20.142 55.9892 20.142C56.5651 20.142 57.0401 19.6837 57.0574 19.1039C57.0747 18.5135 56.6102 18.0212 56.0198 18.0039L55.9636 18.0022C55.3676 17.9889 54.8803 18.4495 54.863 19.0393C54.8452 19.6296 55.3097 20.1225 55.9001 20.1398Z" fill="black"/>
<path d="M20.8933 24.105C20.8832 24.1045 20.8732 24.1045 20.8638 24.1045C20.2868 24.1045 19.8111 24.5645 19.7955 25.1449L19.7939 25.2017C19.7777 25.792 20.2433 26.2838 20.8337 26.2994C20.8437 26.2994 20.8537 26.3 20.8632 26.3C21.4402 26.3 21.9158 25.8399 21.9314 25.259L21.9331 25.2028C21.9492 24.6124 21.4831 24.1206 20.8933 24.105Z" fill="black"/>
<path d="M20.8442 29.9187C20.8542 29.9192 20.8642 29.9192 20.8737 29.9192C21.4507 29.9192 21.9263 29.4592 21.9419 28.8789L21.9436 28.8221C21.9597 28.2317 21.4941 27.7399 20.9032 27.7243C20.3117 27.7076 19.8216 28.1743 19.806 28.7641L19.8044 28.8209C19.7882 29.4113 20.2538 29.9031 20.8442 29.9187Z" fill="black"/>
<path d="M22.6749 28.0763C22.6855 28.0769 22.6966 28.0769 22.7072 28.0769C23.2831 28.0769 23.7581 27.6185 23.7754 27.0393C23.7927 26.4489 23.3282 25.956 22.7378 25.9387L22.6816 25.9371C22.0856 25.9232 21.5983 26.3843 21.581 26.9741C21.5638 27.5645 22.0283 28.0574 22.6186 28.0746L22.6749 28.0763Z" fill="black"/>
<path d="M17.9622 26.9853C17.9443 27.5751 18.4094 28.068 18.9992 28.0853L19.056 28.0869C19.0666 28.0875 19.0772 28.0875 19.0883 28.0875C19.6642 28.0875 20.1393 27.6291 20.1565 27.0499C20.1738 26.4595 19.7093 25.9666 19.1189 25.9494L19.0627 25.9477C18.4662 25.931 17.9794 26.3944 17.9622 26.9853Z" fill="black"/>
<path d="M19.9721 6.52744C19.9821 6.52744 19.9916 6.528 20.0016 6.528C20.5786 6.528 21.0543 6.06796 21.0698 5.48763L21.0715 5.43082C21.0877 4.84045 20.6221 4.34867 20.0317 4.33308C20.0217 4.33252 20.0117 4.33252 20.0022 4.33252C19.4252 4.33252 18.9496 4.79256 18.934 5.37289L18.9323 5.4297C18.9161 6.02007 19.3817 6.51185 19.9721 6.52744Z" fill="black"/>
<path d="M19.9799 10.1465C19.9911 10.1471 20.0016 10.1471 20.0122 10.1471C20.5881 10.1471 21.0632 9.68872 21.0804 9.10894L21.0821 9.05269C21.0994 8.46233 20.6349 7.96943 20.0451 7.95217C19.4536 7.93936 18.9618 8.39939 18.9445 8.98976L18.9429 9.04601C18.9251 9.63637 19.3901 10.1293 19.9799 10.1465Z" fill="black"/>
<path d="M20.7194 7.20468C20.7033 7.79504 21.1689 8.28683 21.7592 8.30242L21.816 8.30409C21.8255 8.30465 21.8355 8.30465 21.8455 8.30465C22.4225 8.30465 22.8982 7.84461 22.9138 7.26427C22.9299 6.67336 22.4638 6.18213 21.8734 6.16653L21.8171 6.16486C21.8071 6.16431 21.7976 6.16431 21.7876 6.16431C21.2106 6.16431 20.735 6.62434 20.7194 7.20468Z" fill="black"/>
<path d="M18.1403 8.31296L18.1971 8.31463C18.2072 8.31519 18.2166 8.31519 18.2266 8.31519C18.8036 8.31519 19.2793 7.85515 19.2949 7.27481C19.311 6.68445 18.8454 6.19267 18.2551 6.17707L18.1982 6.1754C17.6034 6.16037 17.1161 6.62486 17.1005 7.21522C17.0844 7.80558 17.55 8.29737 18.1403 8.31296Z" fill="black"/>
</g>
<defs>
<clipPath id="clip0">
<rect width="73" height="73" fill="white"/>
</clipPath>
</defs>
</svg>
