<svg width="81" height="81" viewBox="0 0 81 81" fill="none" xmlns="http://www.w3.org/2000/svg">
<g clip-path="url(#clip0)">
<path d="M66.0196 32.6113H36.2178C37.5959 31.0272 38.4332 28.9609 38.4332 26.7014C38.4332 21.729 34.388 17.6838 29.4157 17.6838C24.4434 17.6838 20.3982 21.729 20.3982 26.7014C20.3982 28.9609 21.2355 31.0272 22.6134 32.6113H15.4994C11.2006 32.6113 7.70312 36.1087 7.70312 40.4076V49.6071C7.70312 50.4683 8.40121 51.1664 9.26239 51.1664C10.1236 51.1664 10.8216 50.4683 10.8216 49.6071V40.4076C10.8216 37.8283 12.9201 35.7298 15.4994 35.7298H59.1588C61.7381 35.7298 63.8366 37.8283 63.8366 40.4076V48.8276H47.6203C43.3214 48.8276 39.8239 52.3251 39.8239 56.6239C39.8239 60.9228 43.3214 64.4203 47.6203 64.4203H63.8366V72.8403C63.8366 75.4196 61.7381 77.5181 59.1588 77.5181H15.4994C12.9201 77.5181 10.8216 75.4196 10.8216 72.8403V63.6285C10.8216 62.7673 10.1236 62.0692 9.26239 62.0692C8.40121 62.0692 7.70312 62.7673 7.70312 63.6285V72.8403C7.70312 77.1392 11.2006 80.6366 15.4994 80.6366H66.0196C70.3184 80.6366 73.8159 77.1392 73.8159 72.8403V40.4076C73.8159 36.1087 70.3184 32.6113 66.0196 32.6113ZM29.4157 20.8025C32.6685 20.8025 35.3147 23.4487 35.3147 26.7015C35.3147 29.9543 32.6685 32.6005 29.4157 32.6005C26.1631 32.6005 23.5167 29.9543 23.5167 26.7015C23.5167 23.4487 26.1629 20.8025 29.4157 20.8025ZM65.3916 35.7298H66.0196C68.5989 35.7298 70.6973 37.8283 70.6973 40.4076V48.8276H66.9551V40.4076C66.9551 38.6539 66.3727 37.0338 65.3916 35.7298ZM42.9425 56.6239C42.9425 54.0446 45.0409 51.9462 47.6203 51.9462H70.6973V61.3017H47.6203C45.0409 61.3017 42.9425 59.2033 42.9425 56.6239ZM66.0196 77.5181H65.3916C66.3727 76.2141 66.9551 74.5941 66.9551 72.8403V64.4203H70.6973V72.8403C70.6973 75.4196 68.5989 77.5181 66.0196 77.5181Z" fill="#0A1124"/>
<path d="M47.2194 55.0647C46.8078 55.0647 46.4055 55.2315 46.1155 55.5216C45.8254 55.8116 45.6602 56.2139 45.6602 56.624C45.6602 57.0341 45.8254 57.4363 46.1155 57.7264C46.407 58.0164 46.8078 58.1832 47.2194 58.1832C47.6295 58.1832 48.0302 58.0164 48.3218 57.7264C48.6119 57.4363 48.7787 57.0341 48.7787 56.624C48.7787 56.2139 48.6119 55.8116 48.3218 55.5216C48.0318 55.2314 47.6295 55.0647 47.2194 55.0647Z" fill="#0A1124"/>
<path d="M52.1035 22.1015C57.0758 22.1015 61.121 18.0563 61.121 13.0839C61.121 8.11176 57.0758 4.06641 52.1035 4.06641C47.1311 4.06641 43.0859 8.1116 43.0859 13.0839C43.0859 18.0563 47.1311 22.1015 52.1035 22.1015ZM52.1035 7.18509C55.3561 7.18509 58.0025 9.83131 58.0025 13.0841C58.0025 16.3369 55.3562 18.9831 52.1035 18.9831C48.8507 18.9831 46.2045 16.3369 46.2045 13.0841C46.2045 9.83131 48.8507 7.18509 52.1035 7.18509Z" fill="#0A1124"/>
<path d="M36.8718 16.0081C37.7329 16.0081 38.431 15.31 38.431 14.4488V2.19598C38.431 1.3348 37.7329 0.636719 36.8718 0.636719C36.0106 0.636719 35.3125 1.3348 35.3125 2.19598V14.4488C35.3125 15.31 36.0106 16.0081 36.8718 16.0081Z" fill="#0A1124"/>
<path d="M29.3874 10.616C30.2486 10.616 30.9467 9.91792 30.9467 9.05674V2.19598C30.9467 1.3348 30.2486 0.636719 29.3874 0.636719C28.5262 0.636719 27.8281 1.3348 27.8281 2.19598V9.05674C27.8281 9.91792 28.5262 10.616 29.3874 10.616Z" fill="#0A1124"/>
<path d="M9.26239 58.1832C9.67248 58.1832 10.0748 58.0164 10.3648 57.7264C10.6548 57.4363 10.8217 57.0341 10.8217 56.624C10.8217 56.2139 10.6548 55.8116 10.3648 55.5216C10.0748 55.2315 9.67403 55.0647 9.26239 55.0647C8.8523 55.0647 8.45001 55.2315 8.15999 55.5216C7.86997 55.8116 7.70312 56.2139 7.70312 56.624C7.70312 57.0341 7.86997 57.4363 8.15999 57.7264C8.45001 58.0164 8.85215 58.1832 9.26239 58.1832Z" fill="#0A1124"/>
</g>
<defs>
<clipPath id="clip0">
<rect width="80" height="80" fill="white" transform="translate(0.757812 0.636719)"/>
</clipPath>
</defs>
</svg>
