<svg width="81" height="81" viewBox="0 0 81 81" fill="none" xmlns="http://www.w3.org/2000/svg">
<g clip-path="url(#clip0)">
<path d="M60.2953 41.8283C59.6428 41.8283 59.0439 41.4047 58.8242 40.7914C58.6102 40.194 58.7869 39.5082 59.265 39.0898C59.7639 38.6532 60.5016 38.5829 61.0758 38.9122C61.6649 39.2498 61.971 39.9592 61.8157 40.6203C61.6518 41.3178 61.0132 41.8283 60.2953 41.8283Z" fill="#0A1124"/>
<path d="M60.243 58.1378L56.6815 54.5762C58.3866 52.6016 59.7193 50.3269 60.6088 47.8494C60.9004 47.0372 60.4784 46.1423 59.6662 45.8508C58.8543 45.5598 57.9593 45.9811 57.6676 46.7934C56.7996 49.2114 55.4362 51.4033 53.668 53.2455C52.7052 50.3898 50.356 48.1664 47.4248 47.3795C49.2729 45.578 50.4223 43.0628 50.4223 40.2842C50.4223 34.8187 45.9759 30.3723 40.5104 30.3723C35.0449 30.3723 30.5985 34.8187 30.5985 40.2842C30.5985 43.0628 31.7479 45.5781 33.596 47.3795C30.6638 48.1666 28.314 50.3912 27.3518 53.2481C24.1052 49.8761 22.2866 45.4073 22.2866 40.6355C22.2866 30.5861 30.4616 22.4101 40.5102 22.4101C47.9718 22.4101 54.604 26.8787 57.4068 33.7942C57.7307 34.5941 58.6421 34.9797 59.4416 34.6555C60.2413 34.3314 60.627 33.4203 60.3029 32.6206C59.4171 30.435 58.187 28.4305 56.6635 26.6703L60.218 23.1158C61.3384 23.8183 62.6176 24.1695 63.8968 24.1695C65.6704 24.1695 67.4438 23.4945 68.794 22.1444C71.4941 19.4441 71.4941 15.0506 68.794 12.3501C66.094 9.65015 61.7002 9.64999 58.9998 12.3501C56.683 14.667 56.3541 18.2303 58.0129 20.9012L54.4507 24.4634C53.8563 23.9514 53.2315 23.47 52.5782 23.0216C49.4473 20.8722 45.843 19.6139 42.0721 19.3414V14.3078C45.1409 13.5975 47.4351 10.8416 47.4351 7.55999C47.4352 3.7414 44.3284 0.634521 40.5098 0.634521C36.6912 0.634521 33.5843 3.7414 33.5843 7.55999C33.5843 10.8416 35.8785 13.5973 38.9473 14.3078V19.342C34.239 19.6844 29.9493 21.5606 26.5771 24.472L23.0065 20.9014C24.6652 18.2305 24.3363 14.6673 22.0196 12.3503C19.3193 9.65015 14.9255 9.65046 12.2254 12.3503C9.52524 15.0506 9.52524 19.4441 12.2254 22.1445C13.5755 23.4947 15.349 24.1697 17.1226 24.1697C18.4018 24.1697 19.681 23.8183 20.8015 23.1159L24.366 26.6805C21.4488 30.0512 19.567 34.3417 19.2201 39.052H14.1782C13.4604 35.9934 10.7096 33.7092 7.43523 33.7092C3.61664 33.7091 0.509766 36.8159 0.509766 40.6345C0.509766 44.4531 3.61664 47.56 7.43523 47.56C10.724 47.56 13.4846 45.2556 14.1876 42.1769H19.2162C19.5434 46.8045 21.3398 51.1216 24.3352 54.5791L20.7766 58.1378C18.1057 56.4791 14.5423 56.808 12.2255 59.1247C9.52539 61.825 9.52539 66.2184 12.2255 68.9189C13.5757 70.2691 15.3491 70.9441 17.1227 70.9441C18.8962 70.9441 20.6696 70.2691 22.0198 68.9189C24.3437 66.5948 24.6674 63.0166 22.9912 60.343L26.5479 56.7861C26.8516 57.0481 27.1637 57.303 27.4841 57.5501C27.486 57.5516 27.4879 57.5531 27.4898 57.5545C30.8362 60.1328 34.7698 61.6295 38.9474 61.9283V66.9612C35.8787 67.6716 33.5845 70.4275 33.5845 73.7091C33.5843 77.5276 36.6912 80.6345 40.5098 80.6345C44.3284 80.6345 47.4352 77.5276 47.4352 73.7091C47.4352 70.4275 45.1409 67.6717 42.0723 66.9612V61.9283C46.2504 61.6298 50.1843 60.133 53.5312 57.5545C53.5326 57.5534 53.534 57.5523 53.5354 57.5512C53.8555 57.3044 54.1677 57.0494 54.4721 56.7862L58.0287 60.3428C56.3523 63.0164 56.6762 66.5945 59.0001 68.9187C60.3502 70.2689 62.1237 70.9439 63.8971 70.9439C65.6707 70.9439 67.4441 70.2689 68.7943 68.9187C71.4945 66.2184 71.4945 61.825 68.7943 59.1245C66.4774 56.808 62.914 56.4791 60.243 58.1378ZM61.2096 14.56C61.9504 13.8191 62.9237 13.4486 63.8968 13.4486C64.8701 13.4486 65.8434 13.8191 66.5841 14.56C68.0659 16.0417 68.0659 18.4528 66.5841 19.9345C65.1027 21.4164 62.6913 21.4164 61.2096 19.9345C59.7279 18.4528 59.7279 16.0417 61.2096 14.56ZM36.7093 7.55999C36.7093 5.46437 38.4141 3.75952 40.5098 3.75952C42.6054 3.75952 44.3102 5.46437 44.3102 7.55999C44.3102 9.65562 42.6054 11.3605 40.5098 11.3605C38.4141 11.3605 36.7093 9.65562 36.7093 7.55999ZM14.4352 19.9347C12.9535 18.453 12.9535 16.0419 14.4352 14.5601C15.176 13.8192 16.1493 13.4487 17.1226 13.4487C18.0959 13.4487 19.069 13.8192 19.8098 14.5601C21.2915 16.0419 21.2915 18.453 19.8098 19.9347C18.328 21.4169 15.9166 21.4166 14.4352 19.9347ZM7.43523 44.435C5.33961 44.435 3.63477 42.7301 3.63477 40.6345C3.63477 38.5389 5.33961 36.8341 7.43523 36.8341C9.53086 36.8341 11.2357 38.5389 11.2357 40.6345C11.2357 42.7301 9.53086 44.435 7.43523 44.435ZM40.5104 33.4973C44.2526 33.4973 47.2973 36.5419 47.2973 40.2842C47.2973 44.0266 44.2527 47.0711 40.5104 47.0711C36.768 47.0711 33.7235 44.0266 33.7235 40.2842C33.7235 36.5419 36.7682 33.4973 40.5104 33.4973ZM19.8099 66.7091C18.3282 68.1912 15.9168 68.1909 14.4354 66.7091C12.9537 65.2273 12.9537 62.8162 14.4354 61.3345C15.1762 60.5936 16.1495 60.2231 17.1227 60.2231C18.096 60.2231 19.0691 60.5936 19.8099 61.3345C21.2916 62.8162 21.2916 65.2273 19.8099 66.7091ZM44.3102 73.7091C44.3102 75.8047 42.6054 77.5095 40.5098 77.5095C38.4141 77.5095 36.7093 75.8047 36.7093 73.7091C36.7093 71.6134 38.4141 69.9086 40.5098 69.9086C42.6054 69.9086 44.3102 71.6134 44.3102 73.7091ZM40.5104 58.8589C36.7148 58.8589 33.1098 57.7172 30.0345 55.5491C30.3293 52.5483 32.8671 50.1961 35.944 50.1961H45.0765C48.1534 50.1961 50.6915 52.5483 50.9862 55.5491C47.911 57.7172 44.306 58.8589 40.5104 58.8589ZM66.5843 66.7091C65.1029 68.1909 62.6915 68.1909 61.2098 66.7091C59.7281 65.2273 59.7281 62.8162 61.2098 61.3345C61.9506 60.5936 62.9238 60.2231 63.897 60.2231C64.8702 60.2231 65.8435 60.5936 66.5843 61.3345C68.066 62.8162 68.066 65.2273 66.5843 66.7091Z" fill="#0A1124"/>
<path d="M73.5856 47.5599C69.767 47.5599 66.6602 44.453 66.6602 40.6345C66.6602 36.8159 69.767 33.709 73.5856 33.709C77.4042 33.709 80.5111 36.8159 80.5111 40.6345C80.5111 44.453 77.4042 47.5599 73.5856 47.5599ZM73.5856 36.834C71.49 36.834 69.7852 38.5388 69.7852 40.6345C69.7852 42.7301 71.49 44.4349 73.5856 44.4349C75.6812 44.4349 77.3861 42.7301 77.3861 40.6345C77.3861 38.5388 75.6812 36.834 73.5856 36.834Z" fill="#0A1124"/>
</g>
<defs>
<clipPath id="clip0">
<rect width="80" height="80" fill="white" transform="translate(0.509766 0.634521)"/>
</clipPath>
</defs>
</svg>
