<svg width="81" height="81" viewBox="0 0 81 81" fill="none" xmlns="http://www.w3.org/2000/svg">
<g clip-path="url(#clip0)">
<path d="M79.3594 63.5874C80.0067 63.5874 80.5312 63.0627 80.5312 62.4155V60.6196C80.5312 57.3799 78.4641 54.5221 75.3866 53.508L68.062 51.098V48.5621C70.6125 47.0319 72.3236 44.2402 72.3236 41.0557V36.0049C72.3236 31.1811 68.3992 27.2568 63.5755 27.2568C60.7342 27.2568 58.2059 28.6193 56.6069 30.7241C55.7217 29.063 54.2206 27.7675 52.3414 27.1504L45.0177 24.7391V22.2032C47.5681 20.673 49.2792 17.8813 49.2792 14.6968V9.64583C49.2794 4.82208 45.355 0.897705 40.5312 0.897705C35.7075 0.897705 31.7831 4.82208 31.7831 9.64583V14.6966C31.7831 17.8811 33.4942 20.6729 36.0447 22.203V24.739L28.7217 27.15C26.842 27.7675 25.3408 29.063 24.4556 30.7241C22.8566 28.6191 20.3283 27.2568 17.487 27.2568C12.6633 27.2568 8.73891 31.1811 8.73891 36.0049V41.0557C8.73891 44.2402 10.45 47.0319 13.0005 48.5621V51.098L5.67531 53.5082C2.59844 54.5221 0.53125 57.3799 0.53125 60.6196V62.4155C0.53125 63.0627 1.05578 63.5874 1.70312 63.5874C2.35047 63.5874 2.875 63.0627 2.875 62.4155V60.6196C2.875 58.394 4.29516 56.4307 6.40828 55.7343L13.2694 53.4766C13.8964 55.1993 15.5502 56.4327 17.4869 56.4327C19.4234 56.4327 21.0772 55.1991 21.7042 53.4766L28.5644 55.734C30.0681 56.2296 31.2333 57.3711 31.7722 58.8179L28.7209 59.8221C25.6433 60.8349 23.5755 63.6924 23.5755 66.9322V68.2943H9.50422V65.3622C9.50422 64.715 8.97969 64.1904 8.33234 64.1904C7.685 64.1904 7.16047 64.715 7.16047 65.3622V68.2943H2.875V67.8896C2.875 67.2424 2.35047 66.7177 1.70312 66.7177C1.05578 66.7177 0.53125 67.2424 0.53125 67.8896V69.4661C0.53125 70.1133 1.05578 70.638 1.70312 70.638H23.5755V79.7255C23.5755 80.3727 24.1 80.8974 24.7473 80.8974H56.315C56.9623 80.8974 57.4869 80.3727 57.4869 79.7255V78.1602C57.4869 77.513 56.9623 76.9883 56.315 76.9883C55.6677 76.9883 55.1431 77.513 55.1431 78.1602V78.554H50.8578V71.6761C50.8578 71.029 50.3333 70.5043 49.6859 70.5043C49.0386 70.5043 48.5141 71.029 48.5141 71.6761V78.554H32.5484V71.6761C32.5484 71.029 32.0239 70.5043 31.3766 70.5043C30.7292 70.5043 30.2047 71.029 30.2047 71.6761V78.554H25.9192V66.9325C25.9192 64.7071 27.3395 62.7443 29.4536 62.0486L36.3139 59.7908C36.9411 61.5132 38.5947 62.7466 40.5312 62.7466C42.4678 62.7466 44.1214 61.5133 44.7486 59.7908L51.6089 62.0486C53.723 62.7444 55.1433 64.7071 55.1433 66.9325V72.6891C55.1433 73.3363 55.6678 73.861 56.3152 73.861C56.9625 73.861 57.487 73.3363 57.487 72.6891V70.6383H79.3594C80.0067 70.6383 80.5312 70.1136 80.5312 69.4665V67.8899C80.5312 67.2427 80.0067 66.718 79.3594 66.718C78.712 66.718 78.1875 67.2427 78.1875 67.8899V68.2946H73.902V65.3625C73.902 64.7154 73.3775 64.1907 72.7302 64.1907C72.0828 64.1907 71.5583 64.7154 71.5583 65.3625V68.2946H57.4869V66.9325C57.4869 63.6925 55.4191 60.8352 52.3414 59.8224L49.2902 58.8182C49.8291 57.3716 50.9941 56.23 52.4973 55.7344L59.3581 53.4769C59.9852 55.1994 61.6389 56.433 63.5755 56.433C65.5122 56.433 67.1659 55.1994 67.793 53.4769L74.6534 55.7344C76.7673 56.4307 78.1875 58.394 78.1875 60.6196V62.4155C78.1875 63.0627 78.712 63.5874 79.3594 63.5874ZM63.5755 29.6004C67.1069 29.6004 69.9798 32.4733 69.9798 36.0047V41.0555C69.9798 44.5869 67.1067 47.4599 63.5755 47.4599C60.0442 47.4599 57.1712 44.5869 57.1712 41.0555V36.0047C57.1712 32.4733 60.0442 29.6004 63.5755 29.6004ZM34.1269 14.6966V9.64583C34.1269 6.11442 36.9998 3.24146 40.5312 3.24146C44.0627 3.24146 46.9356 6.11442 46.9356 9.64583V14.6966C46.9356 18.228 44.0625 21.101 40.5312 21.101C37 21.101 34.1269 18.228 34.1269 14.6966ZM40.5312 23.4447C41.2703 23.4447 41.988 23.3518 42.6741 23.1783V25.556C42.6737 25.5671 42.6739 25.578 42.6741 25.589C42.6731 26.7697 41.7123 27.73 40.5314 27.73C39.3505 27.73 38.3895 26.7697 38.3887 25.589C38.3887 25.5779 38.3889 25.5669 38.3887 25.556V23.1783C39.0745 23.3516 39.7922 23.4447 40.5312 23.4447ZM29.4539 29.3765L36.3138 27.1179C36.9408 28.8404 38.5945 30.0738 40.5311 30.0738C42.4677 30.0738 44.1214 28.8404 44.7484 27.1179L51.6091 29.3766C53.568 30.02 54.9264 31.7355 55.1162 33.7749C54.9283 34.4871 54.8272 35.2343 54.8272 36.0047V41.0555C54.8272 41.3524 54.8423 41.6458 54.8714 41.9352H49.2694C49.0681 37.2886 45.2262 33.57 40.5309 33.57C35.8356 33.57 31.9938 37.2886 31.7925 41.9352H26.1905C26.2195 41.6458 26.2347 41.3524 26.2347 41.0555V36.0047C26.2347 35.2343 26.1336 34.4872 25.9456 33.7749C26.1358 31.7357 27.4944 30.0202 29.4539 29.3765ZM40.5312 53.7733C36.9998 53.7733 34.1269 50.9004 34.1269 47.369V42.3182C34.1269 38.7868 37 35.9138 40.5312 35.9138C44.0625 35.9138 46.9356 38.7868 46.9356 42.3182V47.369C46.9356 50.9004 44.0627 53.7733 40.5312 53.7733ZM11.0825 41.0555V36.0047C11.0825 32.4733 13.9556 29.6004 17.4869 29.6004C21.0181 29.6004 23.8911 32.4733 23.8911 36.0047V41.0555C23.8911 44.5869 21.0181 47.4599 17.4869 47.4599C13.9556 47.4599 11.0825 44.5869 11.0825 41.0555ZM19.6295 51.9463C19.6295 53.1279 18.6684 54.089 17.4869 54.089C16.3053 54.089 15.3441 53.1277 15.3441 51.9463V49.5372C16.03 49.7107 16.7477 49.8036 17.4869 49.8036C18.2259 49.8036 18.9436 49.7107 19.6295 49.5372V51.9463ZM29.2975 53.508L21.9734 51.098V48.5619C23.6123 47.5786 24.9028 46.0738 25.617 44.279H31.7831V47.369C31.7831 50.5535 33.4942 53.3452 36.0447 54.8754V57.4118L33.998 58.0854C33.2281 55.938 31.517 54.2396 29.2975 53.508ZM40.5312 60.4027C39.3497 60.4027 38.3884 59.4415 38.3884 58.2599V58.2457C38.3884 58.2433 38.3884 58.241 38.3884 58.2388V55.8508C39.0744 56.0243 39.792 56.1172 40.5312 56.1172C41.2705 56.1172 41.988 56.0243 42.6741 55.8508V58.2388V58.2457V58.2599C42.6741 59.4415 41.7128 60.4027 40.5312 60.4027ZM51.7645 53.5082C49.5455 54.2396 47.8344 55.938 47.0647 58.0855L45.0178 57.4119V54.8755C47.5683 53.3454 49.2794 50.5536 49.2794 47.3691V44.279H55.4455C56.1597 46.074 57.4502 47.5788 59.0891 48.5619V51.098L51.7645 53.5082ZM63.5755 54.0891C62.3939 54.0891 61.4328 53.1279 61.4328 51.9465V49.5374C62.1187 49.7108 62.8364 49.8038 63.5755 49.8038C64.3145 49.8038 65.0322 49.7108 65.7183 49.5374V51.9465C65.7183 53.1279 64.757 54.0891 63.5755 54.0891Z" fill="black"/>
</g>
<defs>
<clipPath id="clip0">
<rect width="80" height="80" fill="white" transform="translate(0.53125 0.897705)"/>
</clipPath>
</defs>
</svg>
