<svg width="89" height="88" viewBox="0 0 89 88" fill="none" xmlns="http://www.w3.org/2000/svg">
<path d="M72.0395 32.8535C73.9805 32.8535 75.5595 31.2745 75.5595 29.3335C75.5595 27.3925 73.9805 25.8135 72.0395 25.8135C70.0985 25.8135 68.5195 27.3925 68.5195 29.3335C68.5195 31.2745 70.0985 32.8535 72.0395 32.8535ZM72.0395 28.1601C72.6863 28.1601 73.2129 28.6861 73.2129 29.3335C73.2129 29.9809 72.6863 30.5068 72.0395 30.5068C71.3927 30.5068 70.8662 29.9809 70.8662 29.3335C70.8662 28.6861 71.3927 28.1601 72.0395 28.1601Z" fill="black"/>
<path d="M57.9585 18.7734C58.6065 18.7734 59.1318 18.2481 59.1318 17.6001C59.1318 16.9521 58.6065 16.4268 57.9585 16.4268C57.3105 16.4268 56.7852 16.9521 56.7852 17.6001C56.7852 18.2481 57.3105 18.7734 57.9585 18.7734Z" fill="black"/>
<path d="M70.7228 18.9154C70.9519 19.1445 71.2522 19.2592 71.5523 19.2592C71.8524 19.2592 72.1528 19.1445 72.3819 18.9154L73.2114 18.0859L74.0409 18.9154C74.27 19.1445 74.5704 19.2592 74.8705 19.2592C75.1706 19.2592 75.4709 19.1445 75.7 18.9154C76.1582 18.4572 76.1582 17.7145 75.7 17.2563L74.8705 16.4268L75.7 15.5972C76.1582 15.139 76.1582 14.3963 75.7 13.9381C75.2419 13.4799 74.4991 13.4799 74.0409 13.9381L73.2114 14.7677L72.3819 13.9381C71.9237 13.4799 71.181 13.4799 70.7228 13.9381C70.2646 14.3963 70.2646 15.139 70.7228 15.5972L71.5523 16.4268L70.7228 17.2563C70.2643 17.7148 70.2643 18.4572 70.7228 18.9154Z" fill="black"/>
<path d="M61.4792 41.2419V33.1684C61.4792 30.407 59.2329 28.1601 56.4714 28.1601H46.2259V12.9067C46.2259 12.2582 45.7005 11.7334 45.0526 11.7334H13.3726C12.7246 11.7334 12.1992 12.2582 12.1992 12.9067V44.5867C12.1992 45.2353 12.7246 45.7601 13.3726 45.7601H25.2015C25.8495 45.7601 26.3748 45.2353 26.3748 44.5867C26.3748 43.9382 25.8495 43.4134 25.2015 43.4134H14.5459V14.0801H43.8792V28.1601H33.6337C30.8722 28.1601 28.6259 30.407 28.6259 33.1684V56.005C28.6259 58.7665 30.8722 61.0134 33.6337 61.0134H38.4652C39.1131 61.0134 39.6385 60.4886 39.6385 59.8401C39.6385 59.1915 39.1131 58.6667 38.4652 58.6667H33.6337C32.1664 58.6667 30.9726 57.4729 30.9726 56.005V33.1684C30.9726 31.7006 32.1664 30.5067 33.6337 30.5067H56.4711C57.9384 30.5067 59.1323 31.7006 59.1323 33.1684V41.0667C49.4276 41.0667 41.5323 48.9615 41.5323 58.6667C41.5323 68.372 49.4276 76.2667 59.1323 76.2667C68.8369 76.2667 76.7323 68.372 76.7323 58.6667C76.7326 49.7591 70.0756 42.395 61.4792 41.2419ZM59.1326 73.9201C50.7215 73.9201 43.8792 67.0772 43.8792 58.6667C43.8792 50.2563 50.7215 43.4134 59.1326 43.4134C67.5436 43.4134 74.3859 50.2563 74.3859 58.6667C74.3859 67.0772 67.5436 73.9201 59.1326 73.9201Z" fill="black"/>
</svg>
