<svg width="83" height="82" viewBox="0 0 83 82" fill="none" xmlns="http://www.w3.org/2000/svg">
<path d="M38.0254 29.4688H45.7129V32.0312H38.0254V29.4688Z" fill="black"/>
<path d="M75.1816 34.5938H73.9004V30.75C73.9004 28.6308 72.1758 26.9062 70.0566 26.9062C67.9375 26.9062 66.2129 28.6308 66.2129 30.75V34.8295C64.7254 35.3599 63.6504 36.7693 63.6504 38.4375V41.4395C63.6504 43.1512 64.3179 44.7605 65.5274 45.97L66.1219 46.5645L65.1482 52.4057C61.9681 45.3908 55.69 40.2953 48.0448 38.6374L47.5323 36.5912C50.565 35.4688 52.8238 32.7564 53.2979 29.4675H53.4004C56.2268 29.4675 58.5254 27.1689 58.5254 24.3425C58.5254 23.297 58.2076 22.3271 57.6695 21.516L58.0782 19.8824C58.3755 18.6947 58.5267 17.4737 58.5267 16.2514C58.5254 7.99628 51.8104 1.28125 43.554 1.28125H40.183C31.9279 1.28125 25.2129 7.99628 25.2129 16.2527C25.2129 17.475 25.3628 18.696 25.6613 19.8837L26.07 21.5186C25.5306 22.3283 25.2129 23.2995 25.2129 24.3438C25.2129 27.1702 27.5115 29.4688 30.3379 29.4688H30.4404C30.9145 32.7577 33.1733 35.4688 36.206 36.5925L35.6999 38.6143C25.2834 40.5323 17.5254 49.7317 17.5254 60.402V66.625C17.5254 74.3958 23.8484 80.7188 31.6191 80.7188H43.1504C45.6924 80.7188 47.7911 78.8558 48.1908 76.4266C49.7027 75.8846 51.2799 75.5938 52.8943 75.5938H58.5254V72.7276L60.3115 74.8698C62.0527 76.9583 64.61 78.1562 67.3289 78.1562C72.3655 78.1562 76.4629 74.0588 76.4629 69.0222V46.6554L77.1484 45.97C78.3579 44.7605 79.0254 43.1512 79.0254 41.4395V38.4375C79.0254 36.3183 77.3008 34.5938 75.1816 34.5938ZM70.0566 29.4688C70.7639 29.4688 71.3379 30.0427 71.3379 30.75V34.8295C70.8587 34.9999 70.4269 35.26 70.0566 35.5931C69.6864 35.2587 69.2546 34.9999 68.7754 34.8295V30.75C68.7754 30.0427 69.3494 29.4688 70.0566 29.4688ZM42.9825 70.4688C42.5175 68.9851 41.1286 67.9062 39.4924 67.9062C38.0984 67.9062 36.8466 68.6801 36.2214 69.9281L35.9523 70.4688H32.9004V57.6562H35.969C38.5123 57.6562 40.98 58.3494 43.1504 59.6524V70.4688H42.9825ZM39.504 42.5311L36.01 45.3255L34.4866 41.5163C35.1631 41.3293 35.8511 41.1717 36.5558 41.0564L39.504 42.5311ZM41.5552 49.9688H42.1843L44.292 57.3462C42.9287 56.5505 41.4681 55.9637 39.9498 55.587L41.5552 49.9688ZM42.3586 47.4062H41.3797L40.2753 45.1974L41.8691 43.9225L43.463 45.1974L42.3586 47.4062ZM44.2343 42.5311L47.1658 41.0653C47.8654 41.2063 48.5509 41.3805 49.2248 41.583L47.727 45.3255L44.2343 42.5311ZM50.8379 21.7812C50.8379 23.1945 49.6886 24.3438 48.2754 24.3438C46.8622 24.3438 45.7129 23.1945 45.7129 21.7812C45.7129 20.368 46.8622 19.2188 48.2754 19.2188C49.6886 19.2188 50.8379 20.368 50.8379 21.7812ZM53.4004 26.9062V21.7812C54.8136 21.7812 55.9629 22.9305 55.9629 24.3438C55.9629 25.757 54.8136 26.9062 53.4004 26.9062ZM40.1843 3.84375H43.5553C50.3959 3.84375 55.9629 9.41078 55.9629 16.2527C55.9629 17.2648 55.8373 18.2783 55.5926 19.2636L55.4901 19.6749C54.8495 19.3866 54.1461 19.2188 53.4004 19.2188H53.3376C53.0237 16.3013 50.7584 13.9131 47.7898 13.5428L47.1133 13.4583C44.8532 13.1751 43.1504 11.2455 43.1504 8.96875H40.5879C40.5879 12.5357 43.2567 15.5595 46.7943 16.0002L47.4708 16.0848C48.0999 16.1642 48.67 16.4038 49.1646 16.7447C48.8737 16.6947 48.5803 16.6562 48.2754 16.6562C45.8935 16.6562 43.905 18.295 43.3323 20.5H40.406C39.8332 18.295 37.8447 16.6562 35.4629 16.6562C34.5494 16.6562 33.705 16.9163 32.9606 17.3353C33.245 15.5454 34.7582 14.1706 36.6122 14.1066C37.3707 15.5416 38.4802 16.7908 39.8768 17.7222L41.2977 15.5903C39.249 14.2244 38.0254 11.9374 38.0254 9.47484V8.96875H35.4629V9.47484C35.4629 10.2116 35.5564 10.9329 35.7127 11.6363C32.6723 12.1322 30.3379 14.7587 30.3379 17.9375V19.2188C29.5922 19.2188 28.8888 19.3866 28.2482 19.6749L28.1457 19.2636C27.901 18.2783 27.7754 17.2648 27.7754 16.2527C27.7754 9.41078 33.3424 3.84375 40.1843 3.84375ZM35.4629 19.2188C36.8761 19.2188 38.0254 20.368 38.0254 21.7812C38.0254 23.1945 36.8761 24.3438 35.4629 24.3438C34.0497 24.3438 32.9004 23.1945 32.9004 21.7812C32.9004 20.368 34.0497 19.2188 35.4629 19.2188ZM27.7754 24.3438C27.7754 22.9305 28.9247 21.7812 30.3379 21.7812V26.9062C28.9247 26.9062 27.7754 25.757 27.7754 24.3438ZM32.9004 28.1875V26.1939C33.6576 26.6346 34.525 26.9062 35.4629 26.9062C37.8447 26.9062 39.8332 25.2675 40.406 23.0625H43.3323C43.905 25.2675 45.8935 26.9062 48.2754 26.9062C49.2133 26.9062 50.0807 26.6346 50.8379 26.1939V28.1875C50.8379 31.7199 47.964 34.5938 44.4316 34.5938H39.3066C35.7742 34.5938 32.9004 31.7199 32.9004 28.1875ZM39.3066 37.1562H44.4316C44.6315 37.1562 44.8288 37.1396 45.0249 37.1268L45.5015 39.032L41.8691 40.8488L38.2368 39.032L38.7134 37.1268C38.9095 37.1396 39.1068 37.1562 39.3066 37.1562ZM20.0879 66.625V60.402C20.0879 52.4288 24.9861 45.378 32.0637 42.3581L34.9158 49.487L38.2304 46.8361L39.2208 48.8156L37.4065 55.1642C36.9286 55.1219 36.4507 55.0938 35.969 55.0938H30.3379V70.233C28.8504 69.7026 27.7754 68.2932 27.7754 66.625V52.5312H25.2129V66.625C25.2129 70.1574 28.0867 73.0312 31.6191 73.0312H35.4629V78.1562H31.6191C25.2603 78.1562 20.0879 72.9838 20.0879 66.625ZM43.1504 78.1562H38.0254V72.0524L38.5148 71.0735C38.7006 70.7007 39.076 70.4688 39.4937 70.4688C40.0959 70.4688 40.5879 70.9607 40.5879 71.5629V73.0312H43.1504C44.5636 73.0312 45.7129 74.1805 45.7129 75.5938C45.7129 77.007 44.5636 78.1562 43.1504 78.1562ZM55.9629 73.0312H52.8943C51.1979 73.0312 49.5361 73.2913 47.9333 73.7974C47.5156 72.6879 46.7251 71.7718 45.7129 71.1811V59.6524C47.8846 58.3494 50.351 57.6562 52.8943 57.6562H55.9629V73.0312ZM67.3289 75.5938C65.3737 75.5938 63.5325 74.7315 62.2807 73.2286L58.5254 68.7224V55.0938H52.8943C50.7392 55.0938 48.6303 55.5166 46.6623 56.3186L44.5188 48.8143L45.5092 46.8348L48.8238 49.4857L51.6323 42.4658C57.5145 45.0206 62.0335 50.0367 63.9002 56.3853L64.2731 57.6524L62.3858 68.9774L64.9137 69.3976L68.5794 47.4062H73.9004V69.0222C73.9004 72.6456 70.9522 75.5938 67.3289 75.5938ZM75.3367 44.1583L74.6512 44.8438H68.0246L67.3391 44.1583C66.6139 43.4318 66.2129 42.467 66.2129 41.4395V38.4375C66.2129 37.7303 66.7869 37.1562 67.4941 37.1562C68.2014 37.1562 68.7754 37.7303 68.7754 38.4375C68.7754 40.5567 70.5 42.2812 72.6191 42.2812H76.3719C76.2143 42.9872 75.8594 43.6355 75.3367 44.1583ZM76.4629 39.7188H72.6191C71.9119 39.7188 71.3379 39.1447 71.3379 38.4375C71.3379 37.7303 71.9119 37.1562 72.6191 37.1562H75.1816C75.8889 37.1562 76.4629 37.7303 76.4629 38.4375V39.7188Z" fill="black"/>
</svg>
