<svg width="73" height="72" viewBox="0 0 73 72" fill="none" xmlns="http://www.w3.org/2000/svg">
<path d="M68.6445 3.375H30.3945V50.625H68.6445V3.375Z" fill="#548AFF"/>
<path d="M63.0195 9H36.0195V45H63.0195V9Z" fill="#9CE6ED"/>
<path d="M36.0195 24.75L49.5195 36.75V45H36.0195V24.75Z" fill="#00B55B"/>
<path d="M63.0195 34.875L55.1445 29.25L36.0195 39.375V45H63.0195V34.875Z" fill="#02C26A"/>
<path d="M31.5195 31.5C32.4835 31.5 33.4199 31.1778 34.1797 30.5845C34.9396 29.9912 35.4793 29.161 35.7131 28.2258L36.0195 27C36.9146 27 37.7731 26.6444 38.406 26.0115C39.039 25.3786 39.3945 24.5201 39.3945 23.625V13.5C39.3945 12.6049 39.039 11.7464 38.406 11.1135C37.7731 10.4806 36.9146 10.125 36.0195 10.125C35.1244 10.125 34.266 9.76942 33.633 9.13649C33.0001 8.50355 32.6445 7.64511 32.6445 6.75C32.6445 5.85489 32.289 4.99645 31.656 4.36351C31.0231 3.73058 30.1646 3.375 29.2695 3.375H26.1601C25.4042 3.375 24.6632 3.58549 24.0202 3.98289C23.3772 4.3803 22.8576 4.9489 22.5195 5.625C22.1815 4.9489 21.6618 4.3803 21.0188 3.98289C20.3758 3.58549 19.6349 3.375 18.879 3.375H15.7695C14.8744 3.375 14.016 3.73058 13.383 4.36351C12.7501 4.99645 12.3945 5.85489 12.3945 6.75C12.3945 7.64511 12.039 8.50355 11.406 9.13649C10.7731 9.76942 9.91464 10.125 9.01953 10.125C8.12443 10.125 7.26598 10.4806 6.63305 11.1135C6.00011 11.7464 5.64453 12.6049 5.64453 13.5V23.625C5.64453 24.5201 6.00011 25.3786 6.63305 26.0115C7.26598 26.6444 8.12443 27 9.01953 27L9.32597 28.2258C9.55978 29.161 10.0995 29.9912 10.8593 30.5845C11.6192 31.1778 12.5555 31.5 13.5195 31.5H31.5195Z" fill="#F78E00"/>
<path d="M31.5195 58.5L41.6445 46.125V42.75C41.6445 41.2582 41.0519 39.8274 39.997 38.7725C38.9421 37.7176 37.5114 37.125 36.0195 37.125H31.5195V23.625H13.5195V37.125H9.01953C7.52769 37.125 6.09695 37.7176 5.04206 38.7725C3.98716 39.8274 3.39453 41.2582 3.39453 42.75V46.125L13.5195 58.5H31.5195Z" fill="#FFC431"/>
<path d="M15.7695 23.625V28.125C15.7695 29.3069 16.0023 30.4772 16.4546 31.5692C16.9069 32.6611 17.5698 33.6532 18.4056 34.489C19.2413 35.3247 20.2334 35.9876 21.3254 36.4399C22.4173 36.8922 23.5876 37.125 24.7695 37.125H31.5195V23.625H15.7695Z" fill="#FFB401"/>
<path d="M37.1445 58.5H7.89453L5.64453 61.875V68.625H39.3945V61.875L37.1445 58.5Z" fill="#FFC431"/>
<path d="M37.1445 58.5H7.89453L5.64453 61.875H39.3945L37.1445 58.5Z" fill="#FFB401"/>
<path d="M48.3945 25.875C50.8798 25.875 52.8945 23.8603 52.8945 21.375C52.8945 18.8897 50.8798 16.875 48.3945 16.875C45.9092 16.875 43.8945 18.8897 43.8945 21.375C43.8945 23.8603 45.9092 25.875 48.3945 25.875Z" fill="#FFA100"/>
<path d="M31.5195 14.625H23.9424C23.1653 14.625 22.4015 14.4238 21.7252 14.0409C21.049 13.658 20.4835 13.1066 20.0837 12.4402L18.0195 9L16.3353 13.2106C16.1683 13.6281 15.88 13.986 15.5076 14.2382C15.1353 14.4903 14.6959 14.625 14.2462 14.625H13.5195V25.875C13.5195 28.262 14.4677 30.5511 16.1556 32.239C17.8434 33.9268 20.1326 34.875 22.5195 34.875H22.5195C24.9065 34.875 27.1957 33.9268 28.8835 32.239C30.5713 30.5511 31.5195 28.262 31.5195 25.875V14.625Z" fill="#FFC431"/>
<path d="M18.0195 20.25C18.6409 20.25 19.1445 19.7463 19.1445 19.125C19.1445 18.5037 18.6409 18 18.0195 18C17.3982 18 16.8945 18.5037 16.8945 19.125C16.8945 19.7463 17.3982 20.25 18.0195 20.25Z" fill="#666666"/>
<path d="M27.0195 20.25C27.6409 20.25 28.1445 19.7463 28.1445 19.125C28.1445 18.5037 27.6409 18 27.0195 18C26.3982 18 25.8945 18.5037 25.8945 19.125C25.8945 19.7463 26.3982 20.25 27.0195 20.25Z" fill="#666666"/>
<path d="M24.7695 21.375V18H22.5195V21.375C22.5192 21.6733 22.4006 21.9592 22.1896 22.1701C21.9787 22.381 21.6928 22.4997 21.3945 22.5H20.2695V24.75H21.3945C22.2893 24.749 23.1472 24.3931 23.7799 23.7604C24.4126 23.1277 24.7685 22.2698 24.7695 21.375Z" fill="#666666"/>
<path d="M17.0132 27.5032C17.4421 28.3682 18.1047 29.0958 18.9261 29.6033C19.7474 30.1109 20.6945 30.3783 21.66 30.375H24.7694V28.125H21.66C21.1126 28.1268 20.5757 27.9753 20.11 27.6875C19.6444 27.3997 19.2687 26.9872 19.0256 26.4968L17.0132 27.5032Z" fill="#666666"/>
<path d="M42.7695 46.1248V42.7498C42.7675 40.9602 42.0557 39.2445 40.7903 37.979C39.5248 36.7136 37.8091 36.0018 36.0195 35.9998H32.6445V32.508C33.6446 32.2979 34.5652 31.8103 35.3009 31.1012C36.0367 30.392 36.5578 29.49 36.8046 28.4984L36.9205 28.0341C37.936 27.8251 38.8484 27.2725 39.504 26.4693C40.1595 25.6661 40.5182 24.6615 40.5195 23.6248V13.4998C40.5182 12.3067 40.0436 11.1629 39.2 10.3193C38.3564 9.47567 37.2126 9.00113 36.0195 8.99978C35.423 8.9991 34.8511 8.76183 34.4293 8.34002C34.0075 7.91821 33.7702 7.34631 33.7695 6.74978C33.7682 5.55672 33.2936 4.41292 32.45 3.5693C31.6064 2.72568 30.4626 2.25114 29.2695 2.24978H26.1601C24.7985 2.24545 23.4902 2.77872 22.5195 3.73369C21.5489 2.77872 20.2406 2.24545 18.8789 2.24978H15.7695C14.5765 2.25114 13.4327 2.72568 12.589 3.5693C11.7454 4.41292 11.2709 5.55672 11.2695 6.74978C11.2688 7.34631 11.0316 7.91821 10.6098 8.34002C10.188 8.76183 9.61606 8.9991 9.01953 8.99978C7.82647 9.00113 6.68267 9.47567 5.83905 10.3193C4.99542 11.1629 4.52088 12.3067 4.51953 13.4998V23.6248C4.52087 24.6615 4.87954 25.6661 5.53511 26.4693C6.19067 27.2725 7.10305 27.8251 8.11851 28.0341L8.23456 28.4985C8.48134 29.4901 9.00245 30.3921 9.73818 31.1013C10.4739 31.8104 11.3945 32.2979 12.3945 32.508V35.9998H9.01953C7.22994 36.0018 5.51422 36.7136 4.24878 37.979C2.98335 39.2445 2.27154 40.9602 2.26953 42.7498V46.1248C2.26951 46.3845 2.35937 46.6362 2.52386 46.8372L11.1455 57.3748H7.89453C7.70933 57.3748 7.52698 57.4205 7.3637 57.5079C7.20041 57.5953 7.06122 57.7216 6.9585 57.8758L4.7085 61.2508C4.58529 61.4355 4.51954 61.6527 4.51953 61.8748V68.6248C4.51953 68.9231 4.63806 69.2093 4.84904 69.4203C5.06002 69.6312 5.34616 69.7498 5.64453 69.7498H39.3945C39.6929 69.7498 39.979 69.6312 40.19 69.4203C40.401 69.2093 40.5195 68.9231 40.5195 68.6248V61.8748C40.5195 61.6527 40.4538 61.4355 40.3306 61.2508L38.0806 57.8758C37.9778 57.7216 37.8387 57.5953 37.6754 57.5079C37.5121 57.4205 37.3297 57.3748 37.1445 57.3748H33.8935L42.5152 46.8372C42.6797 46.6362 42.7696 46.3845 42.7695 46.1248ZM14.6445 15.7243C15.2474 15.655 15.8202 15.4234 16.3019 15.0543C16.7836 14.6852 17.1561 14.1924 17.3799 13.6283L18.2218 11.5234L19.119 13.0188C19.6208 13.8498 20.3282 14.5377 21.173 15.016C22.0178 15.4943 22.9716 15.747 23.9424 15.7498H30.3945V25.8748C30.3945 27.9634 29.5648 29.9664 28.088 31.4432C26.6111 32.9201 24.6081 33.7498 22.5195 33.7498C20.431 33.7498 18.4279 32.9201 16.9511 31.4432C15.4742 29.9664 14.6445 27.9634 14.6445 25.8748V15.7243ZM10.4174 27.9528L10.111 26.727C10.0502 26.4836 9.90967 26.2675 9.71191 26.1131C9.51414 25.9587 9.27044 25.8748 9.01953 25.8748C8.423 25.8741 7.8511 25.6368 7.42929 25.215C7.00749 24.7932 6.77021 24.2213 6.76953 23.6248V13.4998C6.77021 12.9033 7.00749 12.3314 7.42929 11.9095C7.8511 11.4877 8.423 11.2505 9.01953 11.2498C10.2126 11.2484 11.3564 10.7739 12.2 9.93027C13.0436 9.08665 13.5182 7.94284 13.5195 6.74978C13.5202 6.15325 13.7575 5.58135 14.1793 5.15955C14.6011 4.73774 15.173 4.50046 15.7695 4.49978H18.8789C19.4263 4.49794 19.9633 4.6495 20.4289 4.93728C20.8945 5.22506 21.2702 5.63754 21.5133 6.12795C21.6068 6.31481 21.7504 6.47195 21.9281 6.58178C22.1058 6.69161 22.3106 6.74978 22.5195 6.74978C22.7284 6.74978 22.9332 6.69161 23.111 6.58178C23.2887 6.47195 23.4323 6.31481 23.5257 6.12795C23.7689 5.63754 24.1446 5.22506 24.6102 4.93728C25.0758 4.6495 25.6128 4.49794 26.1601 4.49978H29.2695C29.8661 4.50046 30.438 4.73774 30.8598 5.15955C31.2816 5.58135 31.5188 6.15325 31.5195 6.74978C31.5209 7.94284 31.9954 9.08665 32.839 9.93027C33.6827 10.7739 34.8265 11.2484 36.0195 11.2498C36.6161 11.2505 37.188 11.4877 37.6098 11.9095C38.0316 12.3314 38.2688 12.9033 38.2695 13.4998V23.6248C38.2688 24.2213 38.0316 24.7932 37.6098 25.215C37.188 25.6368 36.6161 25.8741 36.0195 25.8748C35.7686 25.8748 35.5249 25.9587 35.3272 26.1131C35.1294 26.2675 34.9889 26.4836 34.928 26.727L34.6218 27.9526C34.4966 28.4547 34.2512 28.9188 33.9067 29.3049C33.5623 29.691 33.1291 29.9876 32.6445 30.1691V15.7498H34.8945V13.4998H23.9424C23.3599 13.4981 22.7877 13.3465 22.2808 13.0595C21.7739 12.7725 21.3495 12.3598 21.0485 11.8612L18.9843 8.42094C18.8765 8.24126 18.7206 8.09527 18.5343 7.9994C18.348 7.90354 18.1386 7.86161 17.9297 7.87835C17.7208 7.89509 17.5208 7.96983 17.3521 8.09414C17.1834 8.21845 17.0528 8.3874 16.975 8.58195L15.2908 12.7926C15.2079 13.0018 15.0639 13.1812 14.8775 13.3073C14.6912 13.4335 14.4712 13.5005 14.2461 13.4998H10.1445V15.7498H12.3945V30.1691C11.91 29.9876 11.4768 29.6911 11.1324 29.305C10.788 28.9189 10.5426 28.4548 10.4174 27.9528ZM38.2695 62.2154V67.4998H6.76953V62.2154L8.49658 59.6248H36.5425L38.2695 62.2154ZM40.5195 45.7232L30.9865 57.3748H14.0526L4.51953 45.7232V42.7498C4.52088 41.5567 4.99542 40.4129 5.83905 39.5693C6.68267 38.7257 7.82647 38.2511 9.01953 38.2498H13.5195C13.8179 38.2498 14.104 38.1312 14.315 37.9203C14.526 37.7093 14.6445 37.4231 14.6445 37.1248V32.2289C15.5919 33.4061 16.7911 34.3559 18.1539 35.0085C19.5167 35.661 21.0085 35.9998 22.5195 35.9998C24.0305 35.9998 25.5223 35.661 26.8852 35.0085C28.248 34.3559 29.4472 33.4061 30.3945 32.2289V37.1248C30.3945 37.4231 30.5131 37.7093 30.724 37.9203C30.935 38.1312 31.2212 38.2498 31.5195 38.2498H36.0195C37.2126 38.2511 38.3564 38.7257 39.2 39.5693C40.0436 40.4129 40.5182 41.5567 40.5195 42.7498V45.7232Z" fill="#666666"/>
<path d="M26.8035 41.7593C27.421 40.3254 27.8315 38.811 28.0227 37.2615L25.7895 36.9885C25.4428 39.781 24.2807 42.4094 22.4484 44.5449C21.8284 43.6447 20.999 42.9087 20.0316 42.4C19.0641 41.8914 17.9876 41.6254 16.8945 41.625H12.3945V43.875H16.8945C18.0876 43.8764 19.2314 44.3509 20.075 45.1945C20.9186 46.0382 21.3932 47.182 21.3945 48.375V50.625H23.6445V48.375C23.6459 47.182 24.1204 46.0382 24.964 45.1945C25.8077 44.3509 26.9515 43.8764 28.1445 43.875H32.6445V41.625H28.1445C27.6942 41.625 27.2449 41.6699 26.8035 41.7593Z" fill="#666666"/>
<path d="M68.6445 2.25H36.0195V4.5H65.9285L62.5535 7.875H40.5195V10.125H61.8945V32.6889L55.7985 28.3346C55.6285 28.2131 55.428 28.1414 55.2195 28.1275C55.011 28.1135 54.8028 28.158 54.6181 28.2557L46.4949 32.5563L41.2669 27.9091L39.7722 29.5909L44.3724 33.68L41.1181 35.4028L42.1709 37.3914L55.0564 30.5696L61.8945 35.454V43.875H45.0195V46.125H62.5535L65.9285 49.5H42.7695V51.75H68.6445C68.9429 51.75 69.229 51.6315 69.44 51.4205C69.651 51.2095 69.7695 50.9234 69.7695 50.625V3.375C69.7695 3.07663 69.651 2.79049 69.44 2.57951C69.229 2.36853 68.9429 2.25 68.6445 2.25ZM64.1445 9.46603L67.5195 6.09103V47.909L64.1445 44.534V9.46603Z" fill="#666666"/>
<path d="M54.0195 21.375C54.0195 20.2625 53.6896 19.1749 53.0716 18.2499C52.4535 17.3249 51.575 16.6039 50.5471 16.1782C49.5193 15.7524 48.3883 15.641 47.2972 15.8581C46.206 16.0751 45.2037 16.6109 44.4171 17.3975C43.6304 18.1842 43.0947 19.1865 42.8776 20.2776C42.6606 21.3688 42.772 22.4998 43.1977 23.5276C43.6235 24.5554 44.3444 25.4339 45.2695 26.052C46.1945 26.6701 47.282 27 48.3945 27C49.8859 26.9983 51.3156 26.4051 52.3701 25.3506C53.4247 24.2961 54.0179 22.8663 54.0195 21.375ZM45.0195 21.375C45.0195 20.7075 45.2175 20.055 45.5883 19.5C45.9592 18.9449 46.4863 18.5124 47.103 18.2569C47.7197 18.0015 48.3983 17.9346 49.053 18.0649C49.7077 18.1951 50.309 18.5165 50.781 18.9885C51.253 19.4605 51.5745 20.0619 51.7047 20.7166C51.8349 21.3713 51.7681 22.0499 51.5126 22.6666C51.2572 23.2833 50.8246 23.8104 50.2696 24.1812C49.7146 24.5521 49.0621 24.75 48.3945 24.75C47.4997 24.749 46.6419 24.3931 46.0092 23.7604C45.3765 23.1276 45.0206 22.2698 45.0195 21.375Z" fill="#666666"/>
</svg>
