<svg width="66" height="65" viewBox="0 0 66 65" fill="none" xmlns="http://www.w3.org/2000/svg">
<g clip-path="url(#clip0)">
<path d="M38.4103 17.35C30.531 15.6983 24.3724 9.53964 22.7208 1.66017C22.5179 0.69291 21.6648 0 20.6762 0C19.6877 0 18.8345 0.69291 18.6318 1.66029C16.9801 9.53964 10.8215 15.6981 2.94216 17.3497C1.97478 17.5524 1.28174 18.4057 1.28174 19.3941C1.28174 20.3826 1.97465 21.2358 2.94216 21.4386C10.8214 23.0904 16.9797 29.2489 18.6314 37.1282C18.8342 38.0956 19.6873 38.7886 20.6759 38.7886C21.6643 38.7886 22.5176 38.0957 22.7203 37.1282C24.3721 29.2489 30.5309 23.0904 38.4102 21.439C39.3776 21.2362 40.0706 20.3831 40.0706 19.3945C40.0705 18.406 39.3776 17.5528 38.4103 17.35Z" fill="#005ca9"/>
<path d="M34.9575 51.8589C31.2451 51.0808 28.3435 48.1792 27.5651 44.4666C27.3624 43.4992 26.5093 42.8062 25.5207 42.8062C24.5322 42.8062 23.679 43.4989 23.4762 44.4664C22.6979 48.1789 19.7961 51.0806 16.0838 51.8588C15.1164 52.0615 14.4233 52.9148 14.4233 53.9033C14.4233 54.8917 15.1162 55.745 16.0838 55.9477C19.796 56.7259 22.6977 59.6277 23.476 63.3402C23.6787 64.3076 24.5318 65.0006 25.5204 65.0006C26.5089 65.0006 27.3621 64.3078 27.5649 63.3402C28.3432 59.6277 31.245 56.7261 34.9575 55.9478C35.9248 55.7451 36.6179 54.8918 36.6179 53.9034C36.6179 52.9149 35.925 52.0618 34.9575 51.8589Z" fill="#005ca9"/>
<path d="M63.1802 32.517C58.1622 31.4651 54.2402 27.543 53.1884 22.5252C52.9857 21.5578 52.1326 20.8647 51.144 20.8647C50.1555 20.8647 49.3023 21.5575 49.0995 22.525C48.0476 27.543 44.1256 31.465 39.1077 32.5168C38.1403 32.7195 37.4473 33.5728 37.4473 34.5612C37.4473 35.5497 38.1402 36.4028 39.1077 36.6057C44.1255 37.6576 48.0475 41.5796 49.0993 46.5975C49.302 47.5649 50.1552 48.258 51.1437 48.258C52.1322 48.258 52.9854 47.5652 53.1882 46.5975C54.2402 41.5796 58.1622 37.6576 63.18 36.6059C64.1474 36.4031 64.8405 35.5499 64.8405 34.5615C64.8405 33.573 64.1475 32.7198 63.1802 32.517Z" fill="#005ca9"/>
</g>
<defs>
<clipPath id="clip0">
<rect width="65" height="65" fill="white" transform="translate(0.561035)"/>
</clipPath>
</defs>
</svg>
