<svg width="83" height="83" viewBox="0 0 83 83" fill="none" xmlns="http://www.w3.org/2000/svg">
<g clip-path="url(#clip0)">
<path d="M29.3688 62.4031C28.7067 62.4031 28.1699 62.9397 28.1699 63.602V69.916C28.1699 70.5782 28.7067 71.1149 29.3688 71.1149C30.031 71.1149 30.5678 70.5782 30.5678 69.916V63.602C30.5678 62.9397 30.031 62.4031 29.3688 62.4031Z" fill="black"/>
<path d="M52.5759 62.4031C51.9137 62.4031 51.377 62.9397 51.377 63.602V69.916C51.377 70.5782 51.9137 71.1149 52.5759 71.1149C53.238 71.1149 53.7748 70.5782 53.7748 69.916V63.602C53.7748 62.9397 53.238 62.4031 52.5759 62.4031Z" fill="black"/>
<path d="M75.8723 58.2173L71.8579 56.6068V55.5815C72.646 55.1435 73.3535 54.5736 73.949 53.9009C76.4883 54.2006 78.9179 53.187 80.4907 51.1477C82.1172 49.0389 82.4557 46.3212 81.3961 43.8778L79.5934 39.7213C79.4579 39.4089 79.3647 39.0795 79.3161 38.7425C78.9277 36.0425 77.5783 33.5718 75.5167 31.7856C73.455 29.9992 70.8174 29.0156 68.0896 29.0156C65.3619 29.0156 62.7242 29.9992 60.6626 31.7856C58.6011 33.5718 57.2516 36.0424 56.8631 38.7425C56.8145 39.0796 56.7214 39.4091 56.5858 39.7213L54.7833 43.8778C53.7237 46.3211 54.0622 49.0388 55.6887 51.1477C57.0801 52.9517 59.1416 53.957 61.3564 53.9569C61.642 53.9569 61.9306 53.9399 62.2205 53.9059C62.7608 54.5186 63.3945 55.0463 64.1003 55.4664V56.6066L60.086 58.2173C59.8243 58.3223 59.5689 58.4411 59.3198 58.5725C58.5431 57.1439 57.4341 55.8946 56.0543 54.9456L50.8256 51.3496C50.8558 50.6893 50.5917 50.0241 50.0538 49.5677L47.9291 47.7649C47.7277 47.5938 47.5014 47.4647 47.2622 47.3769V44.9497C49.508 43.3207 51.1005 40.8459 51.5673 37.9956H51.6952C53.9811 37.9956 55.8409 36.1359 55.8409 33.8501C55.8409 32.8742 55.501 31.9764 54.9347 31.2675L55.7916 25.1752C56.4093 20.7834 53.3431 16.6797 48.9562 16.0272L48.7857 16.0019C47.3829 13.7125 45.2103 12.0607 42.6036 11.3215L42.2898 11.2325C38.8337 10.2526 35.1369 10.8375 32.1473 12.8376C31.5969 13.2058 31.4492 13.9504 31.8173 14.5006C32.1855 15.0508 32.9299 15.1987 33.4805 14.8304C35.8849 13.2219 38.8572 12.7514 41.6357 13.5394L41.9494 13.6284C44.1307 14.2469 45.9212 15.6883 46.9913 17.6871C47.7274 19.0624 48.0524 20.5748 47.9586 22.0876L47.1459 21.3891C46.403 20.7506 45.3107 20.7337 44.5489 21.3491L43.4828 22.2102H37.3972C33.4483 22.2102 30.2356 25.423 30.2356 29.3719V29.7049C29.9176 29.706 29.6085 29.7441 29.3111 29.8133C27.9557 25.9975 28.3379 21.6984 30.3751 18.1817C30.707 17.6087 30.5116 16.8752 29.9387 16.5432C29.3658 16.2115 28.6324 16.4067 28.3004 16.9796C25.8367 21.2327 25.4372 26.4618 27.2084 31.0381C26.5244 31.7776 26.1054 32.7656 26.1054 33.8501C26.1054 36.1359 27.9651 37.9956 30.2511 37.9956H30.379C30.8457 40.8459 32.4382 43.3207 34.684 44.9497V47.3769C34.4449 47.4645 34.2185 47.5938 34.0173 47.7647L31.8925 49.5677C31.3546 50.0241 31.0905 50.6894 31.1207 51.3496L25.892 54.9456C24.8294 55.6763 23.9272 56.5849 23.2136 57.6164C22.7511 57.361 22.2692 57.1426 21.7701 56.9658L18.2201 55.7084V54.7635C20.0283 53.6463 21.3283 51.784 21.6903 49.608H22.2268C24.3304 49.608 26.0416 47.8967 26.0416 45.7934C26.0416 44.8489 25.696 43.9844 25.1255 43.3175L25.3395 40.7837C25.637 37.1348 24.0449 33.6736 21.0803 31.5257C18.1158 29.3774 14.3309 28.9421 10.9561 30.3609L8.56639 31.3656C4.86622 32.1825 2.3931 35.7281 2.92142 39.4943L3.45598 43.3052C2.87922 43.9737 2.5293 44.8432 2.5293 45.7934C2.5293 47.8967 4.24055 49.608 6.34408 49.608H6.88056C7.21913 51.6428 8.37824 53.4026 10.0059 54.5362V55.7084L6.45582 56.9657C5.95867 57.1418 5.46888 57.3624 5.00018 57.6217C4.4207 57.9421 4.21065 58.6715 4.531 59.2509C4.74969 59.6466 5.15908 59.8699 5.58125 59.8699C5.7774 59.8699 5.97642 59.8216 6.16025 59.72C6.51401 59.5243 6.8828 59.3581 7.25606 59.2258L10.3237 58.1393C10.9449 59.6199 12.4092 60.6625 14.1127 60.6625C15.8163 60.6625 17.2806 59.6199 17.9018 58.1393L20.9694 59.226C21.3553 59.3625 21.7278 59.5325 22.0847 59.732C21.6085 60.9392 21.3532 62.2401 21.3532 63.575V70.6876C21.3532 71.3499 21.89 71.8866 22.5521 71.8866C23.2143 71.8866 23.751 71.3499 23.751 70.6876V63.575C23.751 60.9157 25.0593 58.4283 27.2504 56.9214L32.2437 53.4874L34.2903 56.2238C34.7302 56.812 35.42 57.1434 36.1315 57.1434C36.3531 57.1434 36.5769 57.1113 36.7957 57.0446L39.774 56.1382V71.1896C39.774 71.8519 40.3108 72.3885 40.9729 72.3885C41.635 72.3885 42.1718 71.8519 42.1718 71.1896V56.1382L45.1504 57.0448C45.3692 57.1113 45.5927 57.1434 45.8143 57.1434C46.5256 57.1434 47.2156 56.8119 47.6555 56.2238L49.702 53.4874L54.6952 56.9214C56.8865 58.4283 58.1946 60.9157 58.1946 63.575V70.6876C58.1946 71.3499 58.7314 71.8866 59.3935 71.8866C60.0556 71.8866 60.5924 71.3499 60.5924 70.6876V63.575C60.5924 62.6308 60.4644 61.7034 60.2214 60.814C60.4644 60.6722 60.7171 60.5479 60.9785 60.443L64.4596 59.0462C65.0764 60.3736 66.4215 61.2968 67.979 61.2968C69.5365 61.2968 70.8817 60.3738 71.4984 59.0463L74.9797 60.443C77.1811 61.326 78.6033 63.4292 78.6033 65.801V67.8304C78.6033 68.4927 79.1401 69.0293 79.8022 69.0293C80.4643 69.0293 81.0011 68.4927 81.0011 67.8304V65.801C81.001 62.4441 78.9878 59.4674 75.8723 58.2173ZM28.5027 33.8499C28.5027 32.8915 29.2785 32.1114 30.2351 32.1029V35.5967C29.2787 35.5884 28.5027 34.8084 28.5027 33.8499ZM22.2265 47.21H21.7936V44.3761H22.2265C23.0079 44.3761 23.6435 45.0118 23.6435 45.7931C23.6435 46.5743 23.0079 47.21 22.2265 47.21ZM4.92681 45.7932C4.92681 45.0118 5.56239 44.3763 6.34376 44.3763H6.77665V47.2102H6.34376C5.56255 47.21 4.92681 46.5744 4.92681 45.7932ZM8.23277 38.2827C7.43749 39.3809 6.95665 40.6456 6.81901 41.9783H6.34376C6.1238 41.9783 5.90864 41.9981 5.69875 42.0339L5.29575 39.1608C4.93736 36.6063 6.63694 34.2031 9.16489 33.6895C9.24226 33.6738 9.31803 33.6504 9.39092 33.6198L11.8853 32.5709C14.4817 31.4793 17.393 31.8145 19.6733 33.4668C21.9536 35.1194 23.1784 37.7816 22.9498 40.5848L22.828 42.0259C22.6321 41.9947 22.4313 41.9781 22.2265 41.9781H21.7831C21.6798 40.9616 20.819 40.1655 19.7756 40.1655H16.8151C14.7052 40.1655 12.6173 39.4633 10.9362 38.1884L10.597 37.9312C10.2409 37.6611 9.78273 37.5437 9.34105 37.6096C8.89889 37.6754 8.49494 37.9208 8.23277 38.2827ZM10.1749 39.6891C10.1745 39.6896 10.1744 39.6899 10.1742 39.6903C10.1744 39.6899 10.1747 39.6896 10.1749 39.6891ZM9.17464 42.7763C9.17464 41.9092 9.38357 41.0712 9.78369 40.3167C11.8255 41.7681 14.3079 42.5637 16.8152 42.5637H19.3958V48.3718C19.3958 51.1899 17.1031 53.4826 14.2852 53.4826C11.4673 53.4826 9.17464 51.1899 9.17464 48.3718V42.7763ZM14.1126 58.2646C13.1701 58.2646 12.4034 57.4978 12.4034 56.5555V55.6414C13.0049 55.7973 13.6356 55.8804 14.2852 55.8804C14.8118 55.8804 15.3256 55.8254 15.8219 55.7217V56.5555C15.8219 57.4978 15.0551 58.2646 14.1126 58.2646ZM51.7102 35.5967V32.1029C52.6668 32.1112 53.4426 32.8915 53.4426 33.8499C53.4426 34.8084 52.6668 35.5884 51.7102 35.5967ZM53.4167 24.8408L52.7146 29.8315C52.393 29.7498 52.0565 29.7059 51.71 29.7046V29.6075C51.71 27.6746 51.1122 25.8153 50.0295 24.2617C50.5015 22.4435 50.4849 20.5716 49.9962 18.7924C52.3121 19.7808 53.7827 22.2389 53.4167 24.8408ZM32.6331 36.2547V29.3716C32.6331 26.7447 34.7702 24.6078 37.3969 24.6078H43.9062C44.1804 24.6078 44.4462 24.5138 44.6595 24.3416L45.8157 23.4076L46.8898 24.3307C48.4293 25.654 49.3122 27.5775 49.3122 29.6075V36.2545C49.3122 40.853 45.5711 44.5941 40.9726 44.5941C36.374 44.5941 32.6331 40.853 32.6331 36.2547ZM40.9727 46.9921C42.3451 46.9921 43.6565 46.7306 44.8641 46.2594V47.7956L40.9727 49.7036L37.0814 47.7956V46.2594C38.2888 46.7304 39.6004 46.9921 40.9727 46.9921ZM36.1668 54.7293L33.5842 51.2762L35.47 49.6759L39.7737 51.786V53.6316L36.1668 54.7293ZM45.7785 54.7293L42.1716 53.6317V51.7862L46.4753 49.6761L48.3611 51.2764L45.7785 54.7293ZM57.5871 49.6833C56.5017 48.2759 56.2758 46.4625 56.983 44.832L58.7856 40.6754C59.0058 40.1677 59.1575 39.6324 59.2364 39.0841C59.8657 34.7112 63.6717 31.4136 68.0896 31.4136C72.5075 31.4136 76.3135 34.7112 76.9427 39.0841C77.0215 39.6322 77.1732 40.1676 77.3935 40.6754L79.196 44.832C79.9031 46.4624 79.6774 48.2759 78.5919 49.6833C77.7882 50.7252 76.6492 51.3667 75.3992 51.5207C75.6573 50.8499 75.8257 50.1349 75.8875 49.3896C75.9422 48.7298 75.4514 48.1504 74.7917 48.0958C74.1325 48.0422 73.5527 48.5319 73.4978 49.1916C73.2669 51.9806 70.8912 54.1653 68.0896 54.1653C65.096 54.1653 62.6608 51.7301 62.6608 48.7365V42.985C62.6608 41.7097 63.0361 40.4555 63.7275 39.3908C65.2789 40.5751 67.1912 41.2524 69.1447 41.304L73.5185 41.4194V44.1811C73.5185 44.8434 74.0553 45.38 74.7174 45.38C75.3795 45.38 75.9163 44.8434 75.9163 44.1811V41.0947C75.9163 39.9671 75.0333 39.0606 73.9061 39.031L69.2078 38.9073C67.6865 38.867 66.1987 38.316 65.0185 37.3561L64.7087 37.104C64.3433 36.8068 63.8843 36.6706 63.4158 36.7209C62.9476 36.771 62.5276 37.0012 62.2336 37.3687C60.9626 38.9567 60.2625 40.9514 60.2625 42.9855V48.7369C60.2625 49.7164 60.4449 50.6536 60.775 51.5184C59.5271 51.3634 58.3898 50.7239 57.5871 49.6833ZM67.9788 58.8988C67.1621 58.8988 66.4976 58.2344 66.4976 57.4176V56.4001C67.0119 56.5067 67.5442 56.5633 68.0895 56.5633C68.5559 56.5633 69.0136 56.5195 69.4599 56.4389V57.4177C69.4601 58.2344 68.7955 58.8988 67.9788 58.8988Z" fill="black"/>
<path d="M2.57358 61.3191C1.97764 61.03 1.26069 61.2797 0.97199 61.8756C0.329691 63.2026 0.00390625 64.6217 0.00390625 66.0939V69.9157C0.00390625 70.578 0.5407 71.1146 1.20282 71.1146C1.86494 71.1146 2.40174 70.578 2.40174 69.9157V66.0939C2.40174 64.9867 2.64679 63.9192 3.13036 62.9206C3.41889 62.3246 3.16968 61.6075 2.57358 61.3191Z" fill="black"/>
</g>
<defs>
<clipPath id="clip0">
<rect width="82" height="82" fill="white" transform="translate(0.00390625 0.577881)"/>
</clipPath>
</defs>
</svg>
