<svg width="66" height="65" viewBox="0 0 66 65" fill="none" xmlns="http://www.w3.org/2000/svg">
<g clip-path="url(#clip0)">
<path d="M64.7135 28.7201C64.1843 28.3669 63.5136 28.3009 62.9262 28.5449L52.1758 33.005V53.4998L62.9262 57.96C63.161 58.0575 63.4089 58.1054 63.6558 58.1054C64.0269 58.1054 64.3957 57.997 64.7135 57.7849C65.2425 57.4316 65.5603 56.8374 65.5603 56.2011V30.3039C65.5603 29.6675 65.2426 29.0734 64.7135 28.7201Z" fill="#FF8000"/>
<path d="M48.368 29.0571C48.368 28.0054 47.5154 27.1528 46.4637 27.1528H27.6384V15.8759H39.4291V20.3905C39.4291 21.4422 40.2817 22.2948 41.3334 22.2948H57.143C61.7324 22.2948 65.4662 18.5611 65.4662 13.9716C65.4662 9.38213 61.7325 5.64844 57.143 5.64844H41.3336C40.2819 5.64844 39.4293 6.50105 39.4293 7.55273V12.0673H2.46533C1.41365 12.0673 0.561035 12.9199 0.561035 13.9716C0.561035 15.0233 1.41365 15.8759 2.46533 15.8759H23.8298V27.1528H2.46533C1.41365 27.1528 0.561035 28.0054 0.561035 29.0571V57.4465C0.561035 58.4981 1.41365 59.3508 2.46533 59.3508H46.4637C47.5154 59.3508 48.368 58.4981 48.368 57.4465V29.0571ZM8.76843 49.2391C8.76843 48.1874 9.62105 47.3348 10.6727 47.3348H16.8068C17.8585 47.3348 18.7111 48.1874 18.7111 49.2391C18.7111 50.2907 17.8585 51.1434 16.8068 51.1434H10.6727C9.62105 51.1434 8.76843 50.2907 8.76843 49.2391Z" fill="#FF8000"/>
</g>
<defs>
<clipPath id="clip0">
<rect width="65" height="65" fill="white" transform="translate(0.561035)"/>
</clipPath>
</defs>
</svg>
