<svg width="81" height="81" viewBox="0 0 81 81" fill="none" xmlns="http://www.w3.org/2000/svg">
<g clip-path="url(#clip0)">
<path d="M25.445 14.983L23.7766 16.6514L18.5495 11.423C17.2708 10.1469 15.5727 9.44364 13.7676 9.44364C12.7753 9.44364 11.8411 9.66944 10.9921 10.0552C10.0772 7.99589 9.58304 5.7546 9.58304 3.4346V2.99202H16.0347V0.411377H0.550781V2.99202H7.00239V3.4346C7.00239 6.30428 7.65788 9.06557 8.86046 11.5804C7.71594 12.792 7.00239 14.414 7.00239 16.2075C7.00239 18.0152 7.70562 19.7146 8.98433 20.9907L14.2101 26.2178L12.5417 27.8862L14.3663 29.7107L27.2695 16.8075L25.445 14.983ZM16.0347 24.3933L10.8076 19.1649C10.0179 18.3765 9.58304 17.3262 9.58304 16.2075C9.58304 15.3946 9.82562 14.6423 10.2282 13.9998C10.9017 14.9959 11.6721 15.9378 12.5417 16.8075L14.3663 14.983C13.5495 14.1662 12.8372 13.2746 12.2205 12.3288C12.7005 12.1365 13.2192 12.0243 13.7676 12.0243C14.885 12.0243 15.9353 12.4591 16.7263 13.2488L21.9521 18.4759L16.0347 24.3933Z" fill="black"/>
<path d="M65.0669 0.411377V2.99202H71.5185V3.4346C71.5185 5.7546 71.0243 7.99589 70.1095 10.0552C69.2604 9.66944 68.3262 9.44364 67.334 9.44364C65.5288 9.44364 63.8295 10.1469 62.5507 11.4243L57.3249 16.6514L55.6565 14.983L53.832 16.8075L66.7353 29.7107L68.5598 27.8862L66.8914 26.2178L72.1172 20.992C73.3959 19.7146 74.0991 18.0165 74.0991 16.2075C74.0991 14.414 73.3856 12.7907 72.2411 11.5791C73.4436 9.06557 74.0991 6.30299 74.0991 3.4346V2.99202H80.5507V0.411377H65.0669ZM70.2927 19.1662L65.0669 24.3933L59.1495 18.4759L64.3753 13.2501C65.1662 12.4591 66.2178 12.0243 67.334 12.0243C67.8811 12.0243 68.4011 12.1365 68.8811 12.3288C68.2643 13.2746 67.552 14.1662 66.7353 14.983L68.5598 16.8075C69.4295 15.9378 70.1998 14.9959 70.8733 13.9998C71.2759 14.6423 71.5185 15.3959 71.5185 16.2075C71.5185 17.3262 71.0836 18.3765 70.2927 19.1662Z" fill="black"/>
<path d="M41.6226 37.9416L55.7129 21.9081L53.7748 20.2048L16.3555 62.7855L18.2935 64.4887L23.6613 58.3803L25.1077 63.961L27.6058 63.3132L25.7193 56.0384L39.9051 39.8964L54.091 56.0384L52.2045 63.3132L54.7026 63.961L56.149 58.3803L61.5168 64.4887L63.4548 62.7855L41.6226 37.9416Z" fill="black"/>
<path d="M61.2359 28.4711L55.4492 50.7878L57.9473 51.4356L63.734 29.1188L61.2359 28.4711Z" fill="black"/>
<path d="M26.0401 20.205L24.1016 21.9084L36.3387 35.8345L38.2773 34.131L26.0401 20.205Z" fill="black"/>
<path d="M18.5762 28.4726L16.0781 29.1204L21.9798 51.8805L24.4779 51.2328L18.5762 28.4726Z" fill="black"/>
<path d="M75.3892 46.863H72.8086V49.4437H75.3892V46.863Z" fill="black"/>
<path d="M70.4459 47.8464L68.6211 49.6711L70.4459 51.4959L72.2706 49.6711L70.4459 47.8464Z" fill="black"/>
<path d="M70.2291 52.0242H67.6484V54.6048H70.2291V52.0242Z" fill="black"/>
<path d="M70.4459 55.1376L68.6211 56.9624L70.4459 58.7872L72.2706 56.9624L70.4459 55.1376Z" fill="black"/>
<path d="M75.3892 57.1855H72.8086V59.7662H75.3892V57.1855Z" fill="black"/>
<path d="M77.7464 55.1361L75.9219 56.9612L77.7469 58.7857L79.5714 56.9607L77.7464 55.1361Z" fill="black"/>
<path d="M80.5494 52.0242H77.9688V54.6048H80.5494V52.0242Z" fill="black"/>
<path d="M77.7467 47.8456L75.9219 49.6704L77.7467 51.4952L79.5714 49.6704L77.7467 47.8456Z" fill="black"/>
<path d="M41.8424 0.411377H39.2617V2.99202H41.8424V0.411377Z" fill="black"/>
<path d="M36.8987 1.39152L35.0742 3.21655L36.8992 5.04107L38.7238 3.21604L36.8987 1.39152Z" fill="black"/>
<path d="M36.6783 5.57275H34.0977V8.1534H36.6783V5.57275Z" fill="black"/>
<path d="M36.8993 8.69013L35.0742 10.5146L36.8987 12.3397L38.7238 10.5152L36.8993 8.69013Z" fill="black"/>
<path d="M41.8424 10.7339H39.2617V13.3145H41.8424V10.7339Z" fill="black"/>
<path d="M44.1995 8.69157L42.375 10.5166L44.2 12.3411L46.0245 10.5161L44.1995 8.69157Z" fill="black"/>
<path d="M47.0025 5.57275H44.4219V8.1534H47.0025V5.57275Z" fill="black"/>
<path d="M44.1998 1.38934L42.375 3.21411L44.1998 5.03889L46.0245 3.21411L44.1998 1.38934Z" fill="black"/>
<path d="M8.29158 48.1533H5.71094V50.734H8.29158V48.1533Z" fill="black"/>
<path d="M3.35186 49.1242L1.52734 50.9492L3.35238 52.7737L5.17689 50.9487L3.35186 49.1242Z" fill="black"/>
<path d="M3.13143 53.3147H0.550781V55.8953H3.13143V53.3147Z" fill="black"/>
<path d="M3.35212 56.4274L1.52734 58.2522L3.35212 60.077L5.17689 58.2522L3.35212 56.4274Z" fill="black"/>
<path d="M8.29158 58.4758H5.71094V61.0565H8.29158V58.4758Z" fill="black"/>
<path d="M10.649 56.4286L8.82422 58.2534L10.649 60.0782L12.4738 58.2534L10.649 56.4286Z" fill="black"/>
<path d="M13.4556 53.3147H10.875V55.8953H13.4556V53.3147Z" fill="black"/>
<path d="M10.649 49.1305L8.82422 50.9553L10.649 52.7801L12.4738 50.9553L10.649 49.1305Z" fill="black"/>
</g>
<defs>
<clipPath id="clip0">
<rect width="80" height="80" fill="white" transform="translate(0.550781 0.411377)"/>
</clipPath>
</defs>
</svg>
