<svg width="73" height="73" viewBox="0 0 73 73" fill="none" xmlns="http://www.w3.org/2000/svg">
<g clip-path="url(#clip0)">
<path d="M15.6134 41.0825C15.6134 40.4999 15.1412 40.0278 14.5587 40.0278H2.5254V34.7208C2.5254 33.4641 3.32429 32.3467 4.51342 31.9402L12.4704 29.2187L16.0991 33.3214C16.5099 33.7859 17.2289 33.7966 17.6539 33.349L21.5858 29.2099L29.5681 31.94C30.7572 32.3467 31.5561 33.4641 31.5561 34.7206V40.0277H19.1558C18.5733 40.0277 18.1011 40.4998 18.1011 41.0824C18.1011 41.665 18.5733 42.1371 19.1558 42.1371H32.6108C33.1933 42.1371 33.6655 41.665 33.6655 41.0824V34.7206C33.6655 32.5622 32.2933 30.6426 30.2507 29.944L22.3424 27.2392V24.7357C24.3738 23.1687 25.4796 20.7038 25.3827 18.1502H27.1852C28.8826 18.1502 30.2635 16.7692 30.2635 15.0717V13.5555C30.2635 11.6064 28.7027 10.4872 26.8666 10.4772V7.57962C26.8666 3.7944 23.787 0.714844 20.0018 0.714844H14.0802C10.2948 0.714844 7.21526 3.7944 7.21526 7.57962V10.4771C5.55532 10.5946 3.81831 11.6063 3.81831 13.5554V15.0716C3.81831 16.7689 5.19925 18.15 6.8966 18.15H8.70027C8.60338 20.7031 9.70855 23.1674 11.7392 24.7345V27.2392L3.83083 29.944C1.78838 30.6426 0.416016 32.5623 0.416016 34.7206V41.0824C0.416016 41.665 0.888236 42.1371 1.47071 42.1371H14.5587C15.1412 42.1372 15.6134 41.665 15.6134 41.0825V41.0825ZM28.1543 13.5555V15.0717C28.1543 15.6061 27.7196 16.0408 27.1854 16.0408H25.3828V12.5866H27.1854C27.7196 12.5866 28.1543 13.0213 28.1543 13.5555ZM9.32464 7.57962C9.32464 4.95752 11.4579 2.82423 14.0802 2.82423H20.0018C22.6239 2.82423 24.7572 4.95752 24.7572 7.57962V10.4771C22.1541 10.6357 20.2687 8.87197 19.8049 6.37713C19.5283 5.48683 18.3631 5.39107 17.9018 6.13343C16.9889 7.99334 15.4361 10.4772 13.0976 10.4772H9.32464V7.57962ZM8.69956 16.0406H6.8966C6.36237 16.0406 5.92769 15.606 5.92769 15.0716V13.5555C5.92769 13.0213 6.36237 12.5866 6.8966 12.5866H8.69956V16.0406ZM10.8096 18.5698V12.5866H13.0978C15.3912 12.5866 17.4498 11.1356 18.5092 9.15322C19.3784 11.0557 21.1823 12.3456 23.2729 12.5535L23.2733 18.5698C23.2733 26.1044 10.8096 26.0587 10.8096 18.5698ZM20.233 25.8948V27.5715L16.917 31.062L13.8486 27.5926V25.8944C15.5698 26.7688 18.447 26.6248 20.233 25.8948Z" fill="black"/>
<path d="M17.0123 20.7051C18.9993 20.7155 20.3586 19.8804 20.3586 17.7642C20.3586 17.1816 19.8864 16.7095 19.3039 16.7095C18.7215 16.7095 18.2492 17.1816 18.2492 17.7642C18.2492 18.906 15.832 18.906 15.832 17.7642C15.832 17.1816 15.3598 16.7095 14.7773 16.7095C14.1949 16.7095 13.7227 17.1816 13.7227 17.7642C13.7227 19.3802 15.0618 20.7119 17.0123 20.7051V20.7051Z" fill="black"/>
<path d="M68.9533 60.5217L61.0434 57.8155V55.3132C63.0752 53.746 64.1807 51.2809 64.0837 48.727H65.887C67.5843 48.727 68.9653 47.346 68.9653 45.6485V44.1323C68.9653 42.1835 67.7625 41.0037 65.5689 41.054V38.156C65.5689 34.0187 61.9147 31.188 58.0131 31.2921C57.4304 31.2921 56.9584 31.7642 56.9584 32.3468C56.9584 32.9294 57.4304 33.4015 58.0131 33.4015C60.7059 33.3935 63.4595 35.1881 63.4595 38.156V41.054C60.8236 41.2859 58.9042 39.501 58.5068 36.9544C58.3757 36.0115 57.0792 35.7654 56.6038 36.7107C55.7017 38.5043 54.0111 41.0544 51.7988 41.0544L48.0258 41.0542V38.1562C48.0258 35.2175 50.6066 33.2447 53.4174 33.4016C54 33.4016 54.4721 32.9295 54.4721 32.3469C54.4721 31.7643 54 31.2922 53.4174 31.2922C49.5339 31.1911 45.9164 34.0524 45.9164 38.1562V41.0542C44.0321 41.0829 42.5202 42.1837 42.5202 44.1325V45.6487C42.5202 47.346 43.901 48.7271 45.5985 48.7271H47.4014C47.3044 51.281 48.41 53.7462 50.4418 55.3132V57.8155L42.5319 60.5215C40.4896 61.2203 39.1172 63.1398 39.1172 65.2981V71.66C39.1172 72.2427 39.5893 72.7147 40.1719 72.7147H53.4174C54 72.7147 54.4721 72.2427 54.4721 71.66C54.4721 71.0774 54 70.6054 53.4174 70.6054H41.2266V65.2981C41.2266 64.0417 42.0256 62.9243 43.2147 62.5174L51.172 59.7951L54.8012 63.8984C55.2119 64.363 55.9309 64.3734 56.3559 63.9259L60.2882 59.7865L68.2707 62.5177C69.4598 62.9245 70.2589 64.0419 70.2589 65.2983V70.6055H58.0132C57.4306 70.6055 56.9585 71.0776 56.9585 71.6602C56.9585 72.2428 57.4306 72.7149 58.0132 72.7149H71.3136C71.8962 72.7149 72.3683 72.2428 72.3683 71.6602V65.2983C72.368 63.1398 70.9956 61.2203 68.9533 60.5217V60.5217ZM66.8559 44.1323V45.6485C66.8559 46.1829 66.4212 46.6176 65.887 46.6176H64.084V43.1637L65.887 43.1634C66.4212 43.1634 66.8559 43.5981 66.8559 44.1323ZM45.5983 46.6176C45.0641 46.6176 44.6294 46.1829 44.6294 45.6485V44.1323C44.6294 43.5981 45.0641 43.1634 45.5983 43.1634L47.4013 43.1637V46.6176H45.5983ZM49.5107 49.1473V43.1637H51.7988C54.0888 43.1637 56.1514 41.7058 57.2116 39.7292C58.0318 41.5177 60.027 42.9298 61.9743 43.1312V49.1473C61.9743 56.6817 49.5107 56.636 49.5107 49.1473ZM55.6188 61.6388L52.5512 58.1703V56.4722C54.3287 57.1137 57.1565 57.1137 58.9342 56.4722V58.149L55.6188 61.6388Z" fill="black"/>
<path d="M55.7142 51.2823C57.4256 51.2825 59.0596 50.4576 59.0596 48.3413C59.0596 47.7587 58.5876 47.2866 58.005 47.2866C57.4223 47.2866 56.9503 47.7587 56.9503 48.3413C56.9503 49.4833 54.5332 49.4833 54.5332 48.3413C54.5332 47.7587 54.0611 47.2866 53.4785 47.2866C52.8959 47.2866 52.4238 47.7587 52.4238 48.3413C52.4238 49.9575 53.91 51.2927 55.7142 51.2823V51.2823Z" fill="black"/>
<path d="M40.447 19.2064C41.7454 20.7054 43.3703 20.727 44.8765 19.6943C46.3157 18.7075 46.366 17.0301 45.9759 15.9719H51.523C52.2093 15.9719 52.7675 16.5302 52.7675 17.2164V23.6104C52.7675 25.4056 54.2279 26.8659 56.023 26.8659C57.8181 26.8659 59.2785 25.4055 59.2785 23.6104V17.2164C59.2785 12.94 55.7994 9.46098 51.523 9.46098H45.9702C46.4393 8.06626 46.0932 6.83383 44.9319 5.76367C43.5212 4.65358 41.4704 4.89826 40.3605 6.30859L36.9021 10.703C35.9818 11.872 35.9834 13.5672 36.9053 14.7343C36.9055 14.7341 40.4176 19.177 40.447 19.2064V19.2064ZM38.5596 12.0077L42.0182 7.61317C42.4088 7.1169 43.1309 7.03056 43.6276 7.42136C44.136 7.90483 44.1998 8.44131 43.8193 9.03067L43.164 9.86331C42.4485 10.7694 42.8 11.532 43.9928 11.5704H51.5232C54.6365 11.5704 57.1692 14.1033 57.1692 17.2164V23.6104C57.1692 24.2424 56.6551 24.7565 56.0232 24.7565C55.3912 24.7565 54.8771 24.2424 54.8771 23.6104V17.2164C54.8771 15.3672 53.3725 13.8625 51.5232 13.8625H44.0028C42.6243 13.9334 42.554 14.9178 43.1751 15.5709L43.818 16.3849C44.1931 16.9616 44.1388 17.4911 43.6553 17.9733C43.1248 18.3253 42.6518 18.4033 41.9781 17.7535L38.5606 13.4265C38.2414 13.0226 38.2408 12.4126 38.5596 12.0077V12.0077Z" fill="black"/>
<path d="M32.3559 54.3742C31.3239 53.0677 29.1466 52.9054 27.8434 53.7932C26.8535 54.4685 26.3546 56.459 26.744 57.5155H21.1969C20.5106 57.5155 19.9523 56.9572 19.9523 56.271V49.877C19.9523 48.0818 18.492 46.6216 16.6969 46.6216C14.9018 46.6216 13.4414 48.082 13.4414 49.877V56.271C13.4414 60.5474 16.9205 64.0265 21.1969 64.0265H26.7499C26.2806 65.4212 26.6267 66.6536 27.788 67.7238C29.3863 68.807 30.9101 68.6253 32.3594 67.1788L35.8179 62.7843C36.7379 61.6153 36.7365 59.9199 35.8146 58.7532L32.3559 54.3742ZM34.1603 61.4797L30.7017 65.8743C30.3108 66.3707 29.5888 66.4567 29.0923 66.0661C28.5839 65.5826 28.5199 65.0461 28.9005 64.4568L29.5558 63.6241C30.1432 62.7655 29.8971 61.9217 28.7269 61.9171H21.1967C18.0834 61.9171 15.5506 59.3841 15.5506 56.271V49.877C15.5506 49.2451 16.0648 48.731 16.6967 48.731C17.3287 48.731 17.8428 49.2451 17.8428 49.877V56.271C17.8428 58.1202 19.3474 59.6249 21.1967 59.6249H28.7169C29.8268 59.6366 30.2135 58.8631 29.5447 57.9166L28.9017 57.1025C28.5268 56.5259 28.5811 55.9965 29.0644 55.5141C29.5951 55.1626 30.0681 55.084 30.7418 55.7339L34.1591 60.061C34.4785 60.465 34.4789 61.075 34.1603 61.4797V61.4797Z" fill="black"/>
</g>
<defs>
<clipPath id="clip0">
<rect width="72" height="72" fill="white" transform="translate(0.390625 0.714844)"/>
</clipPath>
</defs>
</svg>
