<svg width="73" height="73" viewBox="0 0 73 73" fill="none" xmlns="http://www.w3.org/2000/svg">
<g clip-path="url(#clip0)">
<path d="M71.5446 50.9457H67.2907C66.7083 50.9457 66.236 51.4177 66.236 52.0004C66.236 52.583 66.7083 53.055 67.2907 53.055H70.49V70.6055H55.1554L55.1549 53.055H62.6938C63.2763 53.055 63.7485 52.583 63.7485 52.0004C63.7485 51.4177 63.2763 50.9457 62.6938 50.9457H59.5115V41.0798C59.5115 39.8492 58.8046 38.7117 57.7055 38.1648L50.759 33.9352V31.3733C50.759 30.7907 50.2868 30.3187 49.7043 30.3187C49.1218 30.3187 48.6496 30.7907 48.6496 31.3733V33.473H42.022V23.6236C42.022 23.041 41.5497 22.569 40.9673 22.569H39.6946C39.4148 22.569 39.1466 22.6802 38.9487 22.8779L35.2264 26.6017C35.1399 26.6881 35.0395 26.7603 34.9283 26.8158L30.7663 28.8972V26.3343L33.5838 24.9254C33.6852 24.8748 33.7777 24.808 33.8578 24.728L37.9725 20.6131C38.1895 20.3962 38.4775 20.2765 38.7822 20.2765L54.0991 20.2934C54.7426 20.2336 55.0945 19.882 55.1549 19.2387V14.868C55.1549 14.2486 55.6589 13.7446 56.2785 13.7446C56.8981 13.7446 57.4021 14.2486 57.4021 14.868V20.6535C57.3462 21.7432 56.7133 22.376 55.5037 22.5519H49.7043C49.1218 22.5519 48.6496 23.024 48.6496 23.6066V26.7777C48.6496 27.3603 49.1218 27.8324 49.7043 27.8324C50.2868 27.8324 50.759 27.3603 50.759 26.7777V24.6613H55.5037C57.6126 24.6613 59.5115 22.7731 59.5115 20.6535V14.868C59.5115 13.4548 58.5995 12.2513 57.3335 11.8128V9.3765H61.7536V12.6899C61.7536 13.2725 62.2258 13.7446 62.8083 13.7446H67.1764C67.7589 13.7446 68.2311 13.2725 68.2311 12.6899V8.32181C68.2311 7.7392 67.7589 7.26713 67.1764 7.26713H63.863V3.95358C63.863 3.37097 63.3908 2.89889 62.8083 2.89889H57.3335V1.76953C57.3335 1.18692 56.8613 0.714844 56.2788 0.714844C55.6963 0.714844 55.2241 1.18692 55.2241 1.76953V11.8128C53.9578 12.251 53.0456 13.4548 53.0456 14.8682V18.183L49.0549 18.1786C49.4427 17.5299 49.6665 16.7722 49.6665 15.9631V13.779C49.6665 11.3911 47.7237 9.44822 45.3357 9.44822C42.9476 9.44822 41.0048 11.391 41.0048 13.779V15.9631C41.0048 16.7689 41.2267 17.5235 41.6116 18.1703L38.7832 18.1673C37.9139 18.1673 37.0962 18.5063 36.4808 19.1217L32.4872 23.1153L24.91 26.9044L18.4798 26.9117C18.8665 26.2637 19.0895 25.5072 19.0895 24.6991V22.5151C19.0895 20.1271 17.1468 18.1843 14.7587 18.1843C12.3708 18.1843 10.428 20.127 10.428 22.5151V24.6991C10.428 25.5105 10.6528 26.2703 11.0427 26.9202L10.3237 26.921C7.37014 26.921 4.96728 29.3233 4.96728 32.276V44.6791C4.96728 47.2073 7.02983 48.6199 9.33594 48.6872V64.0784H1.6543C1.07183 64.0784 0.599609 64.5504 0.599609 65.133V71.6596C0.599609 72.2422 1.07183 72.7143 1.6543 72.7143L71.5446 72.7148C72.1271 72.7148 72.5993 72.2428 72.5993 71.6602V52.0004C72.5993 51.4179 72.1271 50.9457 71.5446 50.9457ZM66.1216 11.6351H63.8629V9.3765H66.1216V11.6351ZM61.7535 5.00827V7.26713H57.3334V5.00827H61.7535ZM43.1142 15.9632V13.779C43.1142 12.5542 44.1107 11.5576 45.3357 11.5576C46.5606 11.5576 47.5571 12.5542 47.5571 13.779V15.9631C47.557 18.7684 43.1142 18.8708 43.1142 15.9632V15.9632ZM53.0454 55.3136H46.3902V40.0032L53.0003 43.1389L53.0454 55.3136ZM49.4079 35.5824C49.4079 35.5824 56.714 40.0287 56.747 40.0443C57.1449 40.233 57.402 40.6394 57.402 41.0797V50.9454H55.1097V42.4716C55.1097 42.0644 54.8751 41.6933 54.5069 41.5187L45.7875 37.3825C44.8961 36.9913 44.2749 37.378 44.2808 38.3354V55.3133H42.0221V35.5824H49.4079ZM12.5373 24.6994V22.5154C12.5373 21.2905 13.5337 20.2939 14.7587 20.2939C15.9836 20.2939 16.98 21.2905 16.98 22.5154V24.6994C16.98 27.4948 12.5373 27.6154 12.5373 24.6994V24.6994ZM7.07652 44.6794V32.2763C7.07652 30.4866 8.53311 29.0307 10.3248 29.0307L25.1607 29.0138C25.324 29.0137 25.4852 28.9755 25.6313 28.9024L28.657 27.3894V29.9523L26.1929 31.1846C26.033 31.2641 25.8553 31.3061 25.6785 31.3061H19.1268C18.5443 31.3061 18.0721 31.7782 18.0721 32.3608V35.4278C18.0721 36.0105 18.5443 36.4825 19.1268 36.4825C19.7093 36.4825 20.1815 36.0105 20.1815 35.4278V33.4155H25.6785C26.1797 33.4155 26.6826 33.297 27.1346 33.0721L35.8717 28.7029C36.1863 28.5457 36.4711 28.3405 36.7183 28.0933L39.9127 24.8976L39.913 55.3138H36.5995C36.017 55.3138 35.5448 55.7858 35.5448 56.3685V59.682H28.9346V49.8165C28.9346 48.5857 28.2276 47.4482 27.1284 46.9014L20.1815 42.6714V40.0235C20.1815 39.4409 19.7093 38.9688 19.1268 38.9688C18.5443 38.9688 18.0721 39.4409 18.0721 40.0235V42.2088H11.4452V34.4871C11.4452 33.9045 10.973 33.4324 10.3905 33.4324C9.80802 33.4324 9.3358 33.9045 9.3358 34.4871V46.5784C8.0173 46.5715 7.07187 46.1672 7.07652 44.6794V44.6794ZM23.9301 50.2551L15.2107 46.119C14.3278 45.7629 13.7126 46.1848 13.704 47.0719V64.0498H11.4452L11.4456 44.3184H18.8309C18.8309 44.3184 26.1371 48.7649 26.1702 48.7805C26.568 48.9692 26.825 49.3755 26.825 49.8159V59.6814H24.5327V51.2077C24.5327 50.8007 24.2982 50.4296 23.9301 50.2551V50.2551ZM15.8134 48.7395L22.4235 51.8751V59.6819H19.1268C18.5443 59.6819 18.0721 60.1539 18.0721 60.7365V64.0788H15.8133V48.7395H15.8134ZM2.70898 66.188H18.0721V70.6052H2.70898V66.188ZM20.1815 61.7911H35.5446V70.6052H20.1815V61.7911ZM37.654 57.423H53.0454V70.6052H37.654V57.423Z" fill="black"/>
</g>
<defs>
<clipPath id="clip0">
<rect width="72" height="72" fill="white" transform="translate(0.599609 0.714844)"/>
</clipPath>
</defs>
</svg>
