<svg width="73" height="72" viewBox="0 0 73 72" fill="none" xmlns="http://www.w3.org/2000/svg">
<g clip-path="url(#clip0)">
<path d="M15.9208 44.9073L16.5801 46.2688C16.5801 46.2688 27.0337 54.7571 35.9874 54.7571C44.9411 54.7571 55.4417 46.2688 55.4417 46.2688L56.0531 44.9073H56.0532C55.0482 41.9039 53.814 37.7804 52.9483 33.4255L51.0351 32.3496H20.6583L19.0255 33.425C18.1597 37.7802 16.9254 41.9038 15.9204 44.9072L15.9208 44.9073Z" fill="#365E7D"/>
<path d="M24.7996 32.8118L25.5011 32.3499H20.6588L19.0259 33.4253C18.1602 37.7804 16.9259 41.9041 15.9209 44.9074H15.921L16.5803 46.2689C16.5803 46.2689 18.1893 47.5752 20.6848 49.1628C22.1476 44.2771 23.6391 38.6491 24.7996 32.8118Z" fill="#294B64"/>
<path d="M70.2605 23.0974L37.7339 12.1045C36.6011 11.7217 35.3738 11.7217 34.2409 12.1045L1.71436 23.0974C0.874638 23.3812 0.800524 24.54 1.59721 24.9284L33.5969 40.5294C35.1056 41.2649 36.8692 41.2649 38.3779 40.5294L70.3776 24.9284C71.1744 24.54 71.1003 23.3812 70.2605 23.0974Z" fill="#477B9E"/>
<path d="M11.4417 24.9284C10.6449 24.54 10.7191 23.3812 11.5588 23.0974L40.9097 13.1778L37.734 12.1045C36.6012 11.7217 35.3739 11.7217 34.2411 12.1045L1.71436 23.0974C0.874638 23.3812 0.800524 24.54 1.59721 24.9284L33.5969 40.5294C35.1058 41.2649 36.8692 41.2649 38.3779 40.5294L40.9095 39.2951L11.4417 24.9284Z" fill="#3F6D8E"/>
<path d="M64.8997 52.0154H61.2068L60.7677 58.8455C60.7313 59.4114 61.1679 59.8911 61.7191 59.8911H64.3874C64.9388 59.8911 65.3752 59.4114 65.3387 58.8455L64.8997 52.0154Z" fill="#FFD064"/>
<path d="M63.1707 58.8455L63.6097 52.0154H61.2065L60.7673 58.8455C60.7308 59.4114 61.1674 59.8911 61.7188 59.8911H64.1221C63.5708 59.8911 63.1344 59.4114 63.1707 58.8455Z" fill="#F2AB08"/>
<path d="M63.9079 47.1062H62.1984C61.3467 47.1062 60.6499 47.803 60.6499 48.6547V51.7285C60.6499 52.0081 60.8766 52.2348 61.1562 52.2348H64.9502C65.2298 52.2348 65.4565 52.0081 65.4565 51.7285V48.6547C65.4565 47.803 64.7596 47.1062 63.9079 47.1062Z" fill="#FFE07D"/>
<path d="M63.3688 51.7285V48.6547C63.3688 47.9797 63.8071 47.4035 64.4127 47.1928C64.2542 47.1377 64.0847 47.1062 63.908 47.1062H62.1984C61.3467 47.1062 60.6499 47.803 60.6499 48.6547V51.7285C60.6499 52.0083 60.8766 52.2348 61.1562 52.2348H63.8751C63.5955 52.235 63.3688 52.0083 63.3688 51.7285Z" fill="#FFD064"/>
<path d="M36.2052 18.8677C34.1772 18.7448 32.4941 20.3532 32.4941 22.3546V22.3723C32.4986 23.2723 33.2529 23.9898 34.1529 23.9898H37.8225C38.6925 23.9898 39.5313 23.3166 39.4769 22.1834C39.3926 20.4208 37.9665 18.9744 36.2052 18.8677Z" fill="#3F6D8E"/>
<path d="M35.6584 22.3723C35.6584 22.3664 35.6584 22.3605 35.6584 22.3546C35.6584 20.9974 36.4327 19.8217 37.5633 19.2433C37.1495 19.0315 36.6909 18.8971 36.2052 18.8677C34.1772 18.7448 32.4941 20.3532 32.4941 22.3546V22.3723C32.4986 23.2723 33.2529 23.9898 34.1529 23.9898H37.3172C36.417 23.9898 35.6629 23.2723 35.6584 22.3723Z" fill="#365E7D"/>
<path d="M56.0532 44.9079C52.3874 47.9209 46.4264 51.2932 39.9867 53.3683C37.4342 54.1911 34.6051 54.212 31.9875 53.3683C25.5624 51.2978 19.6036 47.9332 15.921 44.9077C15.5685 45.9606 15.2444 46.8764 14.9742 47.6155C14.5103 48.885 14.9099 50.3118 15.9726 51.147C21.86 55.7743 28.0743 58.3025 31.9875 59.5635C33.2797 59.9799 34.6294 60.1882 35.9871 60.1882C37.3447 60.1882 38.6944 59.9799 39.9867 59.5635C43.8998 58.3025 50.1141 55.7742 56.0016 51.147C57.0642 50.3118 57.4639 48.885 56.9999 47.6155C56.7298 46.8766 56.4056 45.9608 56.0532 44.9079Z" fill="#FFE07D"/>
<path d="M20.9223 48.3643C18.9993 47.2217 17.3004 46.0409 15.921 44.9077C15.5687 45.9606 15.2444 46.8764 14.9742 47.6155C14.5103 48.885 14.9099 50.3118 15.9726 51.147C17.083 52.0198 18.2051 52.8178 19.3213 53.5468C19.8417 51.9347 20.3811 50.1983 20.9223 48.3643Z" fill="#FFD064"/>
<path d="M70.6302 22.0943L55.4313 16.9577C54.8796 16.772 54.2809 17.0674 54.0943 17.6192C53.9078 18.1711 54.204 18.7697 54.7558 18.9562L69.8096 24.0439L62.7235 27.4986C62.4293 27.3001 62.0991 27.1478 61.7411 27.0543L40.4864 21.4994C39.8108 18.0237 35.5314 16.5649 32.9028 19.0385C31.993 19.8947 31.4713 21.102 31.4713 22.351V22.374C31.4787 23.8446 32.6959 25.041 34.1848 25.041H37.8545C38.8021 25.041 39.7498 24.5465 40.2413 23.6157L60.0626 28.796C53.7996 31.8495 39.74 38.7041 37.9477 39.578C36.6826 40.1946 35.273 40.1541 34.0913 39.578L2.22928 24.0439L34.6106 13.1001C35.519 12.793 36.5199 12.793 37.4282 13.1001L50.0707 17.373C50.6227 17.5593 51.2211 17.2636 51.4077 16.7114C51.5942 16.1596 51.298 15.5609 50.7462 15.3744L38.1037 11.1016C36.7595 10.6475 35.2794 10.6475 33.9352 11.1016L1.40868 22.0943C-0.319417 22.6788 -0.475379 25.0722 1.16708 25.8728L17.86 34.0113C16.9416 38.3772 15.5395 43.0776 14.0156 47.2497C13.3918 48.9558 13.9293 50.8538 15.3528 51.9727C20.1701 55.759 25.8621 58.6838 31.696 60.564C34.4375 61.4473 37.4945 61.4813 40.3423 60.564C46.178 58.683 51.8706 55.757 56.6854 51.9727C58.1141 50.8494 58.6443 48.9506 58.0226 47.2497C56.5309 43.1702 55.1096 38.4391 54.1784 34.0117L62.0305 30.1835V46.0582C60.6884 46.161 59.6272 47.2834 59.6272 48.6513V51.725C59.6272 52.1817 59.8255 52.5919 60.1391 52.8777L59.7473 58.8014C59.6708 59.9587 60.591 60.9423 61.7512 60.9423H64.4196C65.5792 60.9423 66.4998 59.9591 66.4233 58.8014L66.0316 52.8777C66.3452 52.5919 66.5435 52.1818 66.5435 51.725V48.6512C66.5435 47.2833 65.4822 46.1609 64.1401 46.0581V30.1606C64.1401 29.8364 64.0891 29.5224 63.9979 29.2243L70.8718 25.873C72.5122 25.0732 72.3611 22.6796 70.6302 22.0943ZM37.8545 22.9315H34.1848C33.859 22.9315 33.5823 22.6713 33.5808 22.3687V22.351C33.5808 21.6714 33.8533 21.0407 34.3485 20.5746C35.8675 19.1451 38.3567 20.1741 38.4553 22.2302C38.4788 22.7225 38.1618 22.9315 37.8545 22.9315ZM54.8538 44.5382C49.1551 48.9983 41.0678 52.1888 38.2822 52.7199C37.7099 52.829 37.3346 53.3814 37.4437 53.9535C37.5528 54.5259 38.1068 54.9012 38.6773 54.792C41.5911 54.2363 49.5744 51.1338 55.5675 46.6489C55.7149 47.0692 55.8857 47.5478 56.0413 47.9738C56.3507 48.8204 56.0856 49.7607 55.3819 50.3141C49.7017 54.7782 43.7162 57.2601 39.6952 58.5557C37.2935 59.3299 34.6849 59.3108 32.3431 58.5557C28.3221 57.2599 22.3366 54.7782 16.6564 50.3141C15.9528 49.7609 15.6873 48.8208 15.9971 47.9736C16.0033 47.9568 16.0094 47.9396 16.0156 47.9227C16.1688 47.5028 16.3387 47.0262 16.4708 46.6486C22.3223 51.0262 30.2838 54.2055 33.36 54.7924C33.9329 54.9012 34.4846 54.5262 34.5938 53.9541C34.7029 53.3818 34.3276 52.8294 33.7555 52.7203C31.1256 52.2189 23.0107 49.0959 17.1845 44.5381C18.0411 41.9185 19.0337 38.5521 19.8139 34.9639L33.1668 41.4738C34.9447 42.3407 37.0249 42.3746 38.8723 41.4738L52.2243 34.9642C53.0045 38.5522 53.9971 41.9187 54.8538 44.5382ZM61.8592 58.8326L62.2261 53.2862H63.9444L64.3111 58.8326H61.8592ZM64.4339 48.6511V51.1766H61.7367V48.6511C61.7367 48.3834 61.9627 48.1573 62.2305 48.1573H63.94C64.2076 48.1574 64.4339 48.3834 64.4339 48.6511Z" fill="#666666"/>
</g>
<defs>
<clipPath id="clip0">
<rect width="72" height="72" fill="white" transform="translate(0.0195312)"/>
</clipPath>
</defs>
</svg>
