<svg width="66" height="65" viewBox="0 0 66 65" fill="none" xmlns="http://www.w3.org/2000/svg">
<g clip-path="url(#clip0)">
<path d="M7.03564 39.3555H12.1138V44.4336H15.9224V3.80859H23.5396V7.62011C22.4015 8.27874 21.6353 9.50841 21.6353 10.918V13.457C21.6353 14.1582 22.2036 14.7266 22.9048 14.7266H27.9829C28.6841 14.7266 29.2524 14.1582 29.2524 13.457V10.918C29.2524 9.50854 28.4862 8.27874 27.3481 7.62011V3.80859H38.7739V7.62011C37.6359 8.27874 36.8696 9.50841 36.8696 10.918V13.457C36.8696 14.1582 37.438 14.7266 38.1392 14.7266H43.2173C43.9184 14.7266 44.4868 14.1582 44.4868 13.457V10.918C44.4868 9.50854 43.7205 8.27874 42.5825 7.62011V3.80859H50.1997V44.4336H54.0083V39.3555H59.0864V44.4336H62.895V1.9043C62.895 0.852617 62.0424 0 60.9907 0H5.13135C4.07967 0 3.22705 0.852617 3.22705 1.9043V44.4336H7.03564V39.3555ZM54.0083 3.80859H59.0864V8.88672H54.0083V3.80859ZM54.0083 12.6953H59.0864V17.7734H54.0083V12.6953ZM54.0083 21.582H59.0864V26.6602H54.0083V21.582ZM54.0083 30.4688H59.0864V35.5469H54.0083V30.4688ZM7.03564 3.80859H12.1138V8.88672H7.03564V3.80859ZM7.03564 12.6953H12.1138V17.7734H7.03564V12.6953ZM7.03564 21.582H12.1138V26.6602H7.03564V21.582ZM7.03564 30.4688H12.1138V35.5469H7.03564V30.4688Z" fill="#005ca9"/>
<path d="M19.731 31.1035H46.3911V44.4336H19.731V31.1035Z" fill="#005ca9"/>
<path d="M43.4667 48.2422H22.653L18.6527 62.5841C18.3141 63.798 19.2268 65 20.4869 65H45.6325C46.8926 65 47.8053 63.7979 47.4667 62.5841L43.4667 48.2422Z" fill="#005ca9"/>
<path d="M63.0216 48.2422H47.4214L50.9624 60.9375H63.6563C64.708 60.9375 65.5607 60.0849 65.5607 59.0332V50.7812C65.5607 49.3789 64.4239 48.2422 63.0216 48.2422Z" fill="#005ca9"/>
<path d="M3.1001 48.2422C1.69777 48.2422 0.561035 49.3789 0.561035 50.7812V59.0332C0.561035 60.0849 1.41365 60.9375 2.46533 60.9375H15.1592L18.7002 48.2422H3.1001Z" fill="#005ca9"/>
</g>
<defs>
<clipPath id="clip0">
<rect width="65" height="65" fill="white" transform="translate(0.561035)"/>
</clipPath>
</defs>
</svg>
