<svg width="73" height="73" viewBox="0 0 73 73" fill="none" xmlns="http://www.w3.org/2000/svg">
<path d="M2.28125 12.8207L9.98047 49.047H19.3906V9.18213L2.28125 12.8207Z" fill="#E6E9ED"/>
<path d="M19.3904 37.1731V49.047H14.6454L12.4326 38.6445L19.3904 37.1731Z" fill="#B4DD7F"/>
<path d="M19.3905 23.44V32.508L11.4859 34.1847L11.2464 33.0669C10.3339 28.7553 13.0828 24.5122 17.3944 23.5997C18.0673 23.4514 18.7403 23.4058 19.3905 23.44Z" fill="#FCD770"/>
<path d="M19.3905 15.6722V22.5958C18.8316 23.0749 18.17 23.4399 17.3944 23.5996C14.9307 24.1242 12.5125 22.5502 11.9878 20.0864C11.4632 17.6227 13.0372 15.1931 15.501 14.6685C16.9382 14.3719 18.3525 14.7939 19.3905 15.6722Z" fill="#FCD770"/>
<path d="M70.7188 12.8207L63.3047 47.6782L63.1108 48.5565C61.6394 43.7887 58.1377 39.8992 53.6094 37.9259V9.18213L70.7188 12.8207Z" fill="#E6E9ED"/>
<path d="M19.3906 2.28125V51.3281L53.6094 51.6133V2.28125H19.3906Z" fill="#FFEAA7"/>
<path d="M49.0469 36.6483V36.6597C48.3055 36.557 47.5413 36.5 46.7656 36.5C40.6747 36.5 35.3252 39.6823 32.2911 44.4844H23.9531V29.6562H49.0469V36.6483Z" fill="#B4DD7F"/>
<path d="M39.9219 23.9531V25.0938H23.9531V23.9531C23.9531 21.7403 24.8428 19.7556 26.2914 18.307C27.74 16.8584 29.7247 15.9688 31.9375 15.9688C36.3517 15.9688 39.9219 19.5389 39.9219 23.9531Z" fill="#FCD770"/>
<path d="M31.9375 15.9688C34.4573 15.9688 36.5 13.926 36.5 11.4062C36.5 8.88645 34.4573 6.84375 31.9375 6.84375C29.4177 6.84375 27.375 8.88645 27.375 11.4062C27.375 13.926 29.4177 15.9688 31.9375 15.9688Z" fill="#FCD770"/>
<path d="M22.8125 55.8906V58.1719H6.84375C4.32297 58.1719 2.28125 56.1302 2.28125 53.6094C2.28125 52.3547 2.79453 51.2141 3.61578 50.3814C4.44844 49.5602 5.58906 49.0469 6.84375 49.0469H9.98047H14.6456H19.3906H22.8125V51.3281V55.8906Z" fill="#CF9E76"/>
<path d="M22.8125 51.3281H29.8159C29.7133 52.0695 29.6562 52.8338 29.6562 53.6094C29.6562 54.385 29.7133 55.1492 29.8159 55.8906H22.8125V51.3281Z" fill="#AAB2BD"/>
<path d="M63.1108 48.5564C63.6127 50.1533 63.875 51.8528 63.875 53.6094C63.875 63.0537 56.21 70.7188 46.7656 70.7188C38.0969 70.7188 30.9223 64.2628 29.8159 55.8906C29.7133 55.1492 29.6562 54.385 29.6562 53.6094C29.6562 52.8337 29.7133 52.0695 29.8159 51.3281C30.1353 48.8302 31.0136 46.5147 32.2911 44.4844C35.3252 39.6823 40.6747 36.5 46.7656 36.5C47.5413 36.5 48.3055 36.557 49.0469 36.6597C50.6552 36.865 52.1836 37.2984 53.6094 37.9258C58.1377 39.8991 61.6394 43.7886 63.1108 48.5564Z" fill="#E6E9ED"/>
<path d="M46.7656 66.1562C53.6951 66.1562 59.3125 60.5388 59.3125 53.6094C59.3125 46.6799 53.6951 41.0625 46.7656 41.0625C39.8362 41.0625 34.2188 46.6799 34.2188 53.6094C34.2188 60.5388 39.8362 66.1562 46.7656 66.1562Z" fill="#69D6F4"/>
<path d="M46.7656 39.9219C39.2181 39.9219 33.0781 46.0619 33.0781 53.6094C33.0781 61.1569 39.2181 67.2969 46.7656 67.2969C54.3131 67.2969 60.4531 61.1569 60.4531 53.6094C60.4531 46.0619 54.3131 39.9219 46.7656 39.9219ZM46.7656 65.0156C40.4762 65.0156 35.3594 59.8988 35.3594 53.6094C35.3594 47.32 40.4762 42.2031 46.7656 42.2031C53.055 42.2031 58.1719 47.32 58.1719 53.6094C58.1719 59.8988 53.055 65.0156 46.7656 65.0156Z" fill="black"/>
<path d="M46.7656 60.4531V62.7344C47.661 62.7344 48.5473 62.6043 49.3993 62.3488L48.7423 60.1646C48.1036 60.3562 47.4386 60.4531 46.7656 60.4531Z" fill="black"/>
<path d="M46.7656 44.4844V46.7656C50.54 46.7656 53.6094 49.835 53.6094 53.6094C53.6094 55.9123 52.4619 58.0464 50.54 59.3205L51.7992 61.2219C54.361 59.5247 55.8906 56.6788 55.8906 53.6094C55.8906 48.5781 51.7969 44.4844 46.7656 44.4844Z" fill="black"/>
<path d="M41.0625 23.9531C41.0625 20.2666 38.8611 17.0911 35.7073 15.6528C36.8833 14.6068 37.6406 13.1001 37.6406 11.4062C37.6406 8.26155 35.0822 5.70312 31.9375 5.70312C28.7928 5.70312 26.2344 8.26155 26.2344 11.4062C26.2344 13.1001 26.9917 14.6068 28.1677 15.6528C25.0139 17.0911 22.8125 20.2666 22.8125 23.9531V26.2344H41.0625V23.9531ZM28.5156 11.4062C28.5156 9.51966 30.0509 7.98438 31.9375 7.98438C33.8241 7.98438 35.3594 9.51966 35.3594 11.4062C35.3594 13.2928 33.8241 14.8281 31.9375 14.8281C30.0509 14.8281 28.5156 13.2928 28.5156 11.4062ZM25.0938 23.9531C25.0938 20.1788 28.1632 17.1094 31.9375 17.1094C35.7118 17.1094 38.7812 20.1788 38.7812 23.9531H25.0938Z" fill="black"/>
<path d="M43.3438 5.70312H50.1875V7.98438H43.3438V5.70312Z" fill="black"/>
<path d="M43.3438 10.2656H50.1875V12.5469H43.3438V10.2656Z" fill="black"/>
<path d="M43.3438 14.8281H50.1875V17.1094H43.3438V14.8281Z" fill="black"/>
<path d="M43.3438 19.3906H50.1875V21.6719H43.3438V19.3906Z" fill="black"/>
<path d="M43.3438 23.9531H50.1875V26.2344H43.3438V23.9531Z" fill="black"/>
<path d="M59.4946 16.2712L59.9692 14.0399L66.6632 15.4636L66.1887 17.6949L59.4946 16.2712Z" fill="black"/>
<path d="M58.5454 20.7351L59.02 18.5038L65.714 19.9274L65.2394 22.1588L58.5454 20.7351Z" fill="black"/>
<path d="M57.595 25.197L58.0695 22.9657L64.7624 24.3891L64.2879 26.6205L57.595 25.197Z" fill="black"/>
<path d="M56.6475 29.6606L57.122 27.4293L63.8161 28.853L63.3415 31.0843L56.6475 29.6606Z" fill="black"/>
<path d="M55.6914 34.1189L56.166 31.8876L62.86 33.3112L62.3854 35.5426L55.6914 34.1189Z" fill="black"/>
<path d="M72.0726 11.9389L54.7499 8.25698V1.14062H18.2499V8.25698L0.927246 11.9389L8.57285 47.9062H6.84367C3.69896 47.9062 1.14054 50.4647 1.14054 53.6094C1.14054 56.7541 3.69896 59.3125 6.84367 59.3125H23.953V57.0312H28.8486C30.4557 65.4628 37.8732 71.8594 46.7655 71.8594C56.8281 71.8594 65.0155 63.672 65.0155 53.6094C65.0155 51.8448 64.7509 50.1442 64.2821 48.529L72.0726 11.9389ZM69.3647 13.6955L62.7503 44.8197C60.9355 41.5336 58.1319 38.8782 54.7499 37.2243V10.5896L69.3647 13.6955ZM52.4687 3.42188V36.2844C51.7273 36.0392 50.9665 35.8407 50.1874 35.6924V28.5156H22.8124V45.625H30.3805C29.6813 47.0542 29.1554 48.5804 28.8486 50.1875H23.953V47.9062H20.5312V3.42188H52.4687ZM31.6888 43.3438H25.0937V30.7969H47.9062V35.4175C47.5275 35.3936 47.1511 35.3594 46.7655 35.3594C40.5069 35.3594 34.9772 38.528 31.6888 43.3438ZM15.5706 47.9062L13.7889 39.5238L18.2499 38.5759V47.9062H15.5706ZM13.3201 27.6795C14.3159 26.1465 15.8489 25.0926 17.6374 24.7128C17.8359 24.6706 18.0435 24.6478 18.2499 24.625V31.5793L12.3666 32.8306C11.9856 31.0421 12.3255 29.2125 13.3201 27.6795ZM14.5874 22.0049C13.8209 21.5065 13.2939 20.7411 13.1046 19.8457C12.9141 18.9515 13.0829 18.0378 13.5813 17.2713C14.0798 16.5048 14.8452 15.9779 15.7394 15.7874C16.6063 15.6037 17.4948 15.7897 18.2499 16.2687V21.9981C17.9054 22.2217 17.5473 22.4007 17.1629 22.4817C16.2675 22.6711 15.3539 22.5023 14.5874 22.0049ZM3.63509 13.6955L18.2499 10.5896V13.7388C17.2975 13.4149 16.2732 13.3408 15.2649 13.5563C13.7752 13.8734 12.4977 14.7506 11.6685 16.0281C10.8393 17.3056 10.5564 18.8306 10.8735 20.3191C11.1894 21.8099 12.0689 23.0874 13.3464 23.9166C13.4399 23.9771 13.5391 24.0216 13.6349 24.0763C12.7704 24.7173 12.0118 25.5067 11.4084 26.4363C10.0808 28.4803 9.62793 30.9189 10.1355 33.3028L10.6077 35.5362L18.2499 33.9108V36.2434L11.0822 37.7672L13.2369 47.9062H10.9054L3.63509 13.6955ZM21.6718 57.0312H6.84367C4.95707 57.0312 3.42179 55.496 3.42179 53.6094C3.42179 51.7228 4.95707 50.1875 6.84367 50.1875H21.6718V57.0312ZM23.953 54.75V52.4688H28.5737C28.5498 52.8474 28.5155 53.2238 28.5155 53.6094C28.5155 53.9949 28.5498 54.3713 28.5737 54.75H23.953ZM46.7655 69.5781C37.9599 69.5781 30.7968 62.415 30.7968 53.6094C30.7968 44.8037 37.9599 37.6406 46.7655 37.6406C55.5712 37.6406 62.7343 44.8037 62.7343 53.6094C62.7343 62.415 55.5712 69.5781 46.7655 69.5781Z" fill="black"/>
</svg>
