<svg width="80" height="81" viewBox="0 0 80 81" fill="none" xmlns="http://www.w3.org/2000/svg">
<g clip-path="url(#clip0)">
<path d="M78.6876 61.4767L79.6154 60.4967C80.1279 59.9555 80.1279 59.0781 79.6154 58.5368C79.103 57.9955 78.2722 57.9955 77.7598 58.5368L76.8319 59.5168L75.9041 58.5368C75.3916 57.9955 74.5609 57.9955 74.0484 58.5368C73.5359 59.0781 73.5359 59.9555 74.0484 60.4967L74.9763 61.4767L74.0484 62.4567C73.5359 62.9979 73.5359 63.8753 74.0484 64.4166C74.3047 64.6872 74.6406 64.8227 74.9763 64.8227C75.3119 64.8227 75.6478 64.6872 75.9041 64.4166L76.8319 63.4366L77.7598 64.4166C78.016 64.6872 78.352 64.8227 78.6876 64.8227C79.0232 64.8227 79.3592 64.6872 79.6154 64.4166C80.1279 63.8753 80.1279 62.9979 79.6154 62.4567L78.6876 61.4767Z" fill="black"/>
<path d="M54.2466 80.1836C54.8983 80.1836 55.4267 79.6255 55.4267 78.9371C55.4267 78.2487 54.8983 77.6907 54.2466 77.6907C53.5948 77.6907 53.0664 78.2487 53.0664 78.9371C53.0664 79.6255 53.5948 80.1836 54.2466 80.1836Z" fill="black"/>
<path d="M67.291 7.41919H58.4594C57.734 7.41919 57.1471 8.03912 57.1471 8.80528C57.1471 9.57143 57.734 10.1914 58.4594 10.1914H67.291C68.2099 10.1914 68.9583 10.9818 68.9583 11.9524V69.4181C68.9583 70.3887 68.2099 71.1791 67.291 71.1791H12.8819C11.9629 71.1791 11.2146 70.3887 11.2146 69.4181V11.9524C11.2146 10.9818 11.9629 10.1914 12.8819 10.1914H51.7221C52.4475 10.1914 53.0345 9.57143 53.0345 8.80528C53.0345 8.03912 52.4475 7.41919 51.7221 7.41919H12.8819C10.5147 7.41919 8.58984 9.45223 8.58984 11.9524V69.4181C8.58984 71.9183 10.5147 73.9513 12.8819 73.9513H67.291C69.6581 73.9513 71.583 71.9183 71.583 69.4181V11.9524C71.583 9.45223 69.6581 7.41919 67.291 7.41919Z" fill="black"/>
<path d="M42.5644 38.9509C44.6244 39.1509 46.1944 39.7909 47.2744 40.8709C48.3544 41.9309 48.8944 43.2909 48.8944 44.9509C48.8944 46.1509 48.5944 47.2409 47.9944 48.2209C47.3944 49.1809 46.4944 49.9509 45.2944 50.5309C44.1144 51.0909 42.6644 51.3709 40.9444 51.3709C39.4444 51.3709 38.0044 51.1509 36.6244 50.7109C35.2444 50.2509 34.1144 49.6209 33.2344 48.8209L34.6144 46.4509C35.3344 47.1309 36.2544 47.6809 37.3744 48.1009C38.4944 48.5009 39.6844 48.7009 40.9444 48.7009C42.5044 48.7009 43.7144 48.3709 44.5744 47.7109C45.4544 47.0509 45.8944 46.1409 45.8944 44.9809C45.8944 43.8209 45.4644 42.9209 44.6044 42.2809C43.7444 41.6409 42.4444 41.3209 40.7044 41.3209H39.0244V39.2209L44.3044 32.7409H34.1944V30.1309H48.0544V32.1709L42.5644 38.9509Z" fill="black"/>
</g>
<defs>
<clipPath id="clip0">
<rect width="80" height="80" fill="white" transform="translate(0 0.411377)"/>
</clipPath>
</defs>
</svg>
