<svg width="80" height="81" viewBox="0 0 80 81" fill="none" xmlns="http://www.w3.org/2000/svg">
<g clip-path="url(#clip0)">
<path d="M17.9961 36.6509C17.3489 36.6509 16.8242 37.1754 16.8242 37.8228V39.117C16.8242 39.7643 17.3489 40.2888 17.9961 40.2888C18.6433 40.2888 19.168 39.7643 19.168 39.117V37.8228C19.168 37.1754 18.6433 36.6509 17.9961 36.6509Z" fill="black"/>
<path d="M28.3516 40.2888C28.9987 40.2888 29.5234 39.7643 29.5234 39.117V37.8228C29.5234 37.1754 28.9987 36.6509 28.3516 36.6509C27.7044 36.6509 27.1797 37.1754 27.1797 37.8228V39.117C27.1797 39.7643 27.7044 40.2888 28.3516 40.2888Z" fill="black"/>
<path d="M26.4299 44.8825C26.7546 44.3225 26.5638 43.6055 26.0038 43.281C25.4438 42.9561 24.7266 43.1469 24.4022 43.7071C24.1483 44.1452 23.678 44.4172 23.1749 44.4172C22.6717 44.4172 22.2016 44.1452 21.9477 43.7071C21.623 43.1469 20.9061 42.9563 20.3461 43.2807C19.7863 43.6052 19.5953 44.3224 19.9199 44.8822C20.5914 46.041 21.8388 46.7608 23.1749 46.7608C24.511 46.7608 25.7582 46.0411 26.4299 44.8825Z" fill="black"/>
<path d="M34.8233 59.948L30.8177 59.9482V54.861C34.3995 52.5447 36.8703 48.6514 37.2402 44.1716H38.7058C40.7792 44.1716 42.4662 42.4847 42.4662 40.4113V35.2343C42.4662 33.5699 41.3789 32.1555 39.8777 31.6616V27.4685C39.8777 21.113 34.7072 15.9424 28.3516 15.9424H17.9973C11.6419 15.9424 6.47125 21.113 6.47125 27.4685V31.6616C4.97 32.1553 3.88281 33.5697 3.88281 35.2341V40.4111C3.88281 42.4847 5.56969 44.1716 7.64328 44.1716H9.10922C9.47906 48.6513 11.9495 52.5443 15.5311 54.8605V59.948L11.5255 59.9478C5.17031 59.9478 0 65.1182 0 71.4733V76.6508C0 78.7244 1.68687 80.4111 3.76031 80.4111H8.01031C8.6575 80.4111 9.18219 79.8866 9.18219 79.2393C9.18219 78.5919 8.6575 78.0674 8.01031 78.0674H3.76031C2.97922 78.0674 2.34375 77.4319 2.34375 76.6508V71.4733C2.34375 66.4105 6.46266 62.2916 11.5255 62.2916H14.0433L11.6791 64.8777C11.193 65.4093 10.9641 66.1244 11.0509 66.8396C11.138 67.5547 11.5316 68.1941 12.1311 68.5938L22.5244 75.5225C22.7242 75.6557 22.95 75.7196 23.1733 75.7196C23.4017 75.7196 23.6269 75.6517 23.8197 75.5246C23.8212 75.5236 23.8228 75.5236 23.8244 75.5225L23.8378 75.5136C23.8395 75.5125 23.8412 75.5114 23.8428 75.5102L34.2177 68.5938C34.817 68.1941 35.2108 67.5547 35.2978 66.8394C35.3848 66.1243 35.1559 65.4093 34.6698 64.8777L32.3056 62.2916H34.8231C39.8859 62.2916 44.0048 66.4103 44.0048 71.4733V76.6508C44.0048 77.4319 43.3694 78.0674 42.5883 78.0674H12.6978C12.0506 78.0674 11.5259 78.5919 11.5259 79.2393C11.5259 79.8866 12.0506 80.4111 12.6978 80.4111H42.5883C44.6617 80.4111 46.3486 78.7243 46.3486 76.6508V71.4733C46.3487 65.1182 41.1784 59.948 34.8233 59.948ZM40.1223 40.4111C40.1223 41.1922 39.4869 41.8277 38.7056 41.8277H37.2891V33.8172H38.7056C39.4869 33.8172 40.1223 34.4527 40.1223 35.2339V40.4111ZM17.9973 18.2863H28.3516C33.4147 18.2863 37.5339 22.4054 37.5339 27.4686V31.4738H33.5288C31.3706 31.4738 29.6067 29.7579 29.5273 27.6188C29.8061 26.7552 29.9583 25.8352 29.9583 24.8799C29.9583 24.2325 29.4336 23.708 28.7864 23.708C28.1392 23.708 27.6145 24.2325 27.6145 24.8799C27.6145 28.5158 24.6566 31.4736 21.0208 31.4736H8.81516V27.4685C8.81516 22.4054 12.9344 18.2863 17.9973 18.2863ZM6.22672 40.4111V35.2341C6.22672 34.4528 6.86219 33.8174 7.64344 33.8174H9.06016L9.06031 41.828H7.64344C6.86219 41.828 6.22672 41.1924 6.22672 40.4111ZM11.4041 43.0002L11.4039 33.8174H21.0208C23.817 33.8174 26.3166 32.5257 27.9566 30.5086C29.0356 32.4785 31.1286 33.8174 33.5288 33.8174H34.9455V42.9997V43.0002C34.9455 49.4907 29.6652 54.771 23.1747 54.771C16.6844 54.771 11.4041 49.4907 11.4041 43.0002ZM23.1747 57.1147C25.048 57.1147 26.8369 56.7469 28.4739 56.0813V60.8527L27.4286 63.0216H18.9203L17.875 60.8525V56.0811C19.5122 56.7469 21.3011 57.1147 23.1747 57.1147ZM26.2991 65.3653L23.1745 71.8485L20.0498 65.3653H26.2991ZM13.3777 66.5568C13.3708 66.5008 13.3995 66.4696 13.4089 66.4594L16.3989 63.1886L20.2575 71.1947L13.4314 66.6438C13.4197 66.636 13.3844 66.6125 13.3777 66.5568ZM32.9712 66.5568C32.9644 66.6125 32.9291 66.6361 32.9177 66.6439L26.0912 71.1949L29.9498 63.1886L32.9402 66.4596C32.9495 66.4697 32.9781 66.5008 32.9712 66.5568Z" fill="black"/>
<path d="M52.6875 0.413604C49.4473 0.470948 46.3066 1.64392 43.8441 3.71673C43.3489 4.1336 43.2853 4.87282 43.7022 5.36798C44.1189 5.86313 44.8583 5.92673 45.3533 5.50985C47.4353 3.75735 49.9858 2.80548 52.7291 2.75704C55.9169 2.69751 58.9209 3.89829 61.1914 6.12876C63.4627 8.36017 64.7136 11.3424 64.7136 14.5258C64.7136 18.7028 62.4664 22.6041 58.8488 24.7069C57.6764 25.3884 56.948 26.6409 56.948 27.9752V28.8852H54.1147V20.8747H55.5312C56.1784 20.8747 56.7031 20.3502 56.7031 19.7028C56.7031 19.0555 56.1784 18.5309 55.5312 18.5309H50.3542C49.707 18.5309 49.1823 19.0555 49.1823 19.7028C49.1823 20.3502 49.707 20.8747 50.3542 20.8747H51.7709V28.8852H48.9375V27.9556C48.9375 26.6316 48.2139 25.3895 47.0489 24.7141C43.4239 22.6127 41.172 18.7086 41.1719 14.5259C41.1719 12.5449 41.6673 10.5897 42.6047 8.87142C42.9147 8.30313 42.7053 7.59142 42.1372 7.28142C41.5688 6.97142 40.8572 7.18063 40.5472 7.74892C39.4225 9.81063 38.8281 12.1541 38.8281 14.5259C38.8283 19.5417 41.5278 24.2225 45.8733 26.7417C46.3177 26.9995 46.5938 27.4645 46.5938 27.9558V29.0733C45.0925 29.567 44.0052 30.9814 44.0052 32.6456C44.0052 34.31 45.0925 35.7244 46.5938 36.2183V37.9114C46.5938 39.9361 48.2409 41.5833 50.2656 41.5833H55.6198C57.6445 41.5833 59.2917 39.9361 59.2917 37.9114V36.2183C60.793 35.7245 61.8802 34.3102 61.8802 32.6456C61.8802 30.9813 60.793 29.5669 59.2917 29.0733V27.9753C59.2917 27.4728 59.5734 26.9969 60.0267 26.7334C64.3634 24.2125 67.0573 19.535 67.0573 14.5259C67.0573 10.7084 65.5575 7.13267 62.8341 4.45704C60.1113 1.78188 56.5081 0.343135 52.6875 0.413604ZM56.948 37.9113C56.948 38.6436 56.3522 39.2394 55.6198 39.2394H50.2656C49.5333 39.2394 48.9375 38.6436 48.9375 37.9113V36.4061H56.948V37.9113ZM58.1198 34.0625H47.7656C46.9845 34.0625 46.3489 33.427 46.3489 32.6458C46.3489 31.8647 46.9844 31.2292 47.7656 31.2292H58.1198C58.9009 31.2292 59.5364 31.8647 59.5364 32.6458C59.5364 33.4269 58.9009 34.0625 58.1198 34.0625Z" fill="black"/>
<path d="M74.5578 36.8082L70.0744 34.2197C69.5139 33.8961 68.7972 34.088 68.4736 34.6486C68.15 35.2091 68.342 35.9258 68.9025 36.2494L73.3859 38.8379C73.5705 38.9444 73.772 38.995 73.9708 38.995C74.3758 38.995 74.7697 38.7849 74.9867 38.4089C75.3103 37.8485 75.1183 37.1318 74.5578 36.8082Z" fill="black"/>
<path d="M78.8255 18.5312H73.6484C73.0013 18.5312 72.4766 19.0558 72.4766 19.7031C72.4766 20.3505 73.0013 20.875 73.6484 20.875H78.8255C79.4727 20.875 79.9973 20.3505 79.9973 19.7031C79.9973 19.0559 79.4727 18.5312 78.8255 18.5312Z" fill="black"/>
<path d="M69.4895 5.34385C69.6883 5.34385 69.8898 5.29322 70.0744 5.18666L74.5578 2.59822C75.1183 2.27463 75.3103 1.55791 74.9867 0.997441C74.6631 0.436816 73.9464 0.245097 73.3859 0.568535L68.9025 3.15697C68.342 3.48057 68.15 4.19729 68.4736 4.75775C68.6906 5.13369 69.0845 5.34385 69.4895 5.34385Z" fill="black"/>
<path d="M31.3244 2.5982L35.8078 5.18664C35.9924 5.2932 36.1939 5.34383 36.3927 5.34383C36.7977 5.34383 37.1916 5.13367 37.4086 4.75774C37.7322 4.19727 37.5402 3.48055 36.9797 3.15695L32.4963 0.56836C31.9358 0.244767 31.2191 0.436642 30.8955 0.997267C30.5719 1.55774 30.7639 2.27445 31.3244 2.5982Z" fill="black"/>
</g>
<defs>
<clipPath id="clip0">
<rect width="80" height="80" fill="white" transform="translate(0 0.411133)"/>
</clipPath>
</defs>
</svg>
