<svg width="89" height="89" viewBox="0 0 89 89" fill="none" xmlns="http://www.w3.org/2000/svg">
<path d="M72.9365 63.7622V66.1089C72.9365 66.7568 73.4613 67.2822 74.1099 67.2822C74.7584 67.2822 75.2832 66.7568 75.2832 66.1089V63.7622C75.2832 63.1142 74.7584 62.5889 74.1099 62.5889C73.4613 62.5889 72.9365 63.1142 72.9365 63.7622Z" fill="black"/>
<path d="M74.1099 69.6289C73.4613 69.6289 72.9365 70.1543 72.9365 70.8022V73.1489C72.9365 73.7969 73.4613 74.3222 74.1099 74.3222C74.7584 74.3222 75.2832 73.7969 75.2832 73.1489V70.8022C75.2832 70.1543 74.7584 69.6289 74.1099 69.6289Z" fill="black"/>
<path d="M71.7602 67.2822H69.4136C68.765 67.2822 68.2402 67.8076 68.2402 68.4556C68.2402 69.1035 68.765 69.6289 69.4136 69.6289H71.7602C72.4088 69.6289 72.9336 69.1035 72.9336 68.4556C72.9336 67.8076 72.4088 67.2822 71.7602 67.2822Z" fill="black"/>
<path d="M78.8003 67.2822H76.4536C75.805 67.2822 75.2803 67.8076 75.2803 68.4556C75.2803 69.1035 75.805 69.6289 76.4536 69.6289H78.8003C79.4488 69.6289 79.9736 69.1035 79.9736 68.4556C79.9736 67.8076 79.4488 67.2822 78.8003 67.2822Z" fill="black"/>
<path d="M69.1873 59.0537C69.1873 58.3608 68.6256 57.7991 67.933 57.7991C67.2402 57.7991 66.6787 58.3608 66.6787 59.0537C66.6787 59.7465 67.2402 60.308 67.933 60.308C68.6253 60.308 69.1873 59.7465 69.1873 59.0537Z" fill="black"/>
<path d="M68.837 36.4802C68.1679 22.3436 57.373 10.9024 43.7262 9.86698C36.7848 9.34397 30.1493 11.5519 25.0412 16.0944C19.5034 21.0198 16.1092 28.386 15.6991 36.3456L9.71659 48.1191C9.69253 48.1672 9.67083 48.2171 9.65352 48.2675C9.3464 49.1555 9.43117 50.1346 9.88613 50.9539C10.3273 51.7497 11.0823 52.322 11.9568 52.5226L16.436 53.5528L17.6885 67.7537C17.8604 69.4128 19.2206 70.6635 20.8533 70.6635C20.8958 70.6635 20.9392 70.6612 20.9818 70.6568L30.3203 69.6266V77.6842C30.3203 78.3322 30.8451 78.8575 31.4937 78.8575C32.1422 78.8575 32.667 78.3322 32.667 77.6842V68.3169C32.667 67.9834 32.525 67.6654 32.2763 67.443C32.0275 67.2195 31.6919 67.1154 31.3655 67.1503L20.8031 68.3151C20.3998 68.2893 20.0686 67.9537 20.0252 67.5302L18.6996 52.4974C18.655 51.9908 18.289 51.5705 17.7932 51.4564L12.4824 50.2355C12.173 50.1645 12.0093 49.9422 11.9392 49.8155C11.8177 49.5972 11.7878 49.3382 11.8532 49.0959L17.7657 37.4594C17.9249 37.264 18.0188 37.0211 18.0291 36.7656C18.3374 29.315 21.4608 22.4199 26.6011 17.848C31.2302 13.7322 37.2412 11.7282 43.5502 12.2072C56.0169 13.1532 65.8802 23.6363 66.4933 36.5911C66.8142 43.395 64.5902 49.9331 60.2312 55.0013C58.453 57.0684 57.4733 59.7199 57.4733 62.4669L57.4721 77.6836C57.4721 78.3319 57.9978 78.8575 58.6461 78.8575C59.2943 78.8575 59.82 78.3319 59.82 77.6836V62.4669C59.82 60.2813 60.5979 58.1734 62.0097 56.5316C66.7608 51.0064 69.1855 43.8857 68.837 36.4802Z" fill="black"/>
<path d="M53.4628 20.1581C52.9231 19.7988 52.1956 19.9449 51.8369 20.4846C51.477 21.0244 51.6236 21.7524 52.1634 22.1117C57.087 25.3883 60.0262 30.8698 60.0262 36.7755C60.0262 46.4801 52.1314 54.3755 42.4262 54.3755C32.7209 54.3755 24.8262 46.4801 24.8262 36.7755C24.8262 27.0708 32.7209 19.1755 42.4262 19.1755C44.5449 19.1755 46.6152 19.5474 48.5803 20.2813C49.1887 20.5075 49.8648 20.2001 50.0895 19.592C50.3162 18.9848 50.0082 18.3093 49.4007 18.0825C47.172 17.2506 44.8253 16.8291 42.4262 16.8291C31.4273 16.8291 22.4795 25.7769 22.4795 36.7758C22.4795 47.7746 31.4273 56.7224 42.4262 56.7224C53.425 56.7224 62.3728 47.7746 62.3728 36.7758C62.3728 30.0828 59.042 23.8706 53.4628 20.1581Z" fill="black"/>
<path d="M77.6289 20.3489C77.6289 18.4079 76.0499 16.8289 74.1089 16.8289C72.1679 16.8289 70.5889 18.4079 70.5889 20.3489C70.5889 22.2898 72.1679 23.8689 74.1089 23.8689C76.0499 23.8689 77.6289 22.2901 77.6289 20.3489ZM72.9355 20.3489C72.9355 19.7021 73.4615 19.1755 74.1089 19.1755C74.7563 19.1755 75.2822 19.7021 75.2822 20.3489C75.2822 20.9957 74.7563 21.5222 74.1089 21.5222C73.4615 21.5222 72.9355 20.9957 72.9355 20.3489Z" fill="black"/>
<path d="M41.8583 22.8434L31.2983 28.7101C30.9258 28.9169 30.6943 29.3093 30.6943 29.7356V42.6422C30.6943 43.0684 30.9258 43.4609 31.2983 43.6677L41.8583 49.5344C42.0349 49.6329 42.2317 49.6822 42.4277 49.6822C42.6236 49.6822 42.8207 49.6329 42.997 49.5344L53.557 43.6677C53.9296 43.4609 54.161 43.0684 54.161 42.6422V29.7356C54.161 29.3093 53.9296 28.9169 53.557 28.7101L42.997 22.8434C42.6442 22.6463 42.2112 22.6463 41.8583 22.8434ZM42.4277 25.2115L50.5721 29.7358L42.4277 34.2599L34.2833 29.7358L42.4277 25.2115ZM33.041 31.7293L41.2543 36.2924V46.5148L33.041 41.952V31.7293ZM43.601 46.5148V36.2924L51.8143 31.7293V41.952L43.601 46.5148Z" fill="black"/>
</svg>
