<svg width="73" height="72" viewBox="0 0 73 72" fill="none" xmlns="http://www.w3.org/2000/svg">
<g clip-path="url(#clip0)">
<path d="M52.0631 27.3777C53.017 27.3777 53.9234 27.0088 54.6152 26.3392C55.0337 25.9341 55.0445 25.2664 54.6393 24.848C54.2342 24.4295 53.5665 24.4185 53.1482 24.8238C52.8519 25.1106 52.4665 25.2686 52.0631 25.2686H51.756C51.3525 25.2686 50.9672 25.1107 50.6709 24.8238C50.2523 24.4185 49.5847 24.4295 49.1797 24.848C48.7746 25.2665 48.7854 25.9342 49.2039 26.3392C49.8958 27.0088 50.8021 27.3777 51.756 27.3777H52.0631Z" fill="black"/>
<path d="M30.8583 53.1245C31.1209 53.271 31.412 53.344 31.7028 53.344C32.0183 53.344 32.3336 53.258 32.6116 53.0868L39.1614 49.051C39.6771 48.7334 39.9849 48.182 39.9849 47.5763C39.9849 46.9706 39.6771 46.4192 39.1614 46.1016L32.6115 42.0658C32.0777 41.7369 31.4059 41.7225 30.8583 42.0281C30.3109 42.3338 29.9707 42.9133 29.9707 43.5404V51.612C29.9708 52.2391 30.3109 52.8187 30.8583 53.1245ZM32.0801 44.2158L37.5339 47.5763L32.0801 50.9368V44.2158Z" fill="black"/>
<path d="M43.7928 58.277H33.6578C33.2188 57 32.0065 56.0793 30.5825 56.0793C29.1584 56.0793 27.9461 57 27.5069 58.2772H26.162C25.5795 58.2772 25.1073 58.7495 25.1074 59.332C25.1074 59.9145 25.5796 60.3865 26.1621 60.3865H27.507C27.9462 61.6634 29.1585 62.5837 30.5825 62.5837C32.0065 62.5837 33.2187 61.6633 33.6578 60.3865H43.7928C44.3751 60.3865 44.8475 59.9145 44.8475 59.332C44.8475 58.7495 44.3753 58.277 43.7928 58.277ZM30.5825 60.4742C29.9524 60.4742 29.4398 59.9616 29.4398 59.3314C29.4398 58.7012 29.9524 58.1884 30.5825 58.1884C31.2125 58.1884 31.7251 58.7012 31.7251 59.3314C31.7251 59.9616 31.2125 60.4742 30.5825 60.4742Z" fill="black"/>
<path d="M71.1137 51.0727V43.6823C71.1137 38.7696 67.1169 34.7727 62.2042 34.7727H56.8213V31.0411C59.2274 29.5405 60.8328 26.8712 60.8328 23.8325V23.0072H62.5177C64.8864 23.0072 66.8136 21.0801 66.8136 18.7113C66.8136 17.5882 66.3799 16.5649 65.6718 15.7986V12.1557C65.6718 8.98226 64.2661 6.00171 61.8153 3.97826C61.3662 3.60743 60.7014 3.671 60.3306 4.12015C59.9598 4.56931 60.0233 5.23404 60.4725 5.60487C62.4363 7.22614 63.5626 9.61395 63.5626 12.1557V14.5447C63.2279 14.4607 62.878 14.4156 62.5177 14.4156H60.8045C60.5082 11.2355 57.8257 8.73771 54.5695 8.73771H44.463C43.649 8.73771 42.9866 9.40006 42.9866 10.2141V14.4156H41.3012C40.9414 14.4156 40.5921 14.4606 40.2578 14.5444V4.31914C40.2578 3.5059 40.683 2.78562 41.3952 2.39257C42.1076 1.9991 42.9443 2.02329 43.632 2.45628L44.2586 2.85185C45.1046 3.38482 46.0809 3.66664 47.0819 3.66664H55.0732C55.5143 3.66664 55.9535 3.70025 56.3788 3.76662C56.9545 3.85592 57.4935 3.46259 57.5832 2.88701C57.6731 2.31143 57.2793 1.77228 56.7037 1.68256C56.1713 1.59945 55.6228 1.5574 55.0732 1.5574H47.0819C46.4795 1.5574 45.8919 1.38781 45.3837 1.06775L44.757 0.672026C43.4086 -0.177067 41.7708 -0.224317 40.3756 0.546026C38.9811 1.31595 38.1483 2.72656 38.1483 4.31928V15.7974C37.4394 16.5638 37.0051 17.5877 37.0051 18.7114C37.0051 21.0802 38.9323 23.0074 41.301 23.0074H42.9863V23.8327C42.9863 26.8716 44.5921 29.5414 46.9988 31.0418V32.5116H31.6774C32.1111 31.0572 32.3453 29.5159 32.3453 27.9199C32.3453 19.1458 25.2966 12.0074 16.6327 12.0074C7.96875 12.0074 0.919922 19.1458 0.919922 27.9199C0.919922 36.6942 7.96861 43.8325 16.6325 43.8325C17.019 43.8325 17.402 43.8177 17.7814 43.7898V63.9157C17.7814 65.3982 18.9881 66.6043 20.4714 66.6043H28.5015V68.0903C28.5015 69.516 29.6614 70.6759 31.0871 70.6759H34.4451C35.8707 70.6759 37.0306 69.516 37.0306 68.0903V66.6043H38.5858V70.9453C38.5858 71.5278 39.058 72 39.6405 72H62.7454C63.3279 72 63.8001 71.5278 63.8001 70.9453V67.3018C63.8001 66.7194 63.3279 66.2472 62.7454 66.2472C62.163 66.2472 61.6907 66.7194 61.6907 67.3018V69.8906H40.6953V66.6043H49.4839C50.9672 66.6043 52.1739 65.3982 52.1739 63.9157V57.9033H61.691V62.3802C61.691 62.9627 62.1632 63.4349 62.7457 63.4349C63.3282 63.4349 63.8004 62.9627 63.8004 62.3802V57.9032H65.6804C66.7103 57.9032 67.6742 57.6152 68.4957 57.1154C70.0641 56.1614 71.1139 54.4358 71.1139 52.4697V51.0727H71.1137ZM64.7043 18.7114C64.7043 19.9171 63.7235 20.898 62.5177 20.898H60.8328V16.5248H62.5177C63.7235 16.5248 64.7043 17.5057 64.7043 18.7114ZM41.3012 20.898C40.0955 20.898 39.1147 19.917 39.1147 18.7114C39.1147 17.5058 40.0955 16.5248 41.3012 16.5248H42.9866V20.898H41.3012ZM45.0959 23.8325V21.9662C45.0959 21.9617 45.0966 21.9572 45.0966 21.9525C45.0966 21.9479 45.096 21.9435 45.0959 21.9389V15.4836C45.0959 15.4791 45.0966 15.4746 45.0966 15.47C45.0966 15.4654 45.096 15.461 45.0959 15.4564V10.8467H54.5695C56.86 10.8467 58.7234 12.7101 58.7234 15.0006V23.8323C58.7234 27.351 55.8607 30.2137 52.342 30.2137H51.4771C47.9586 30.214 45.0959 27.3513 45.0959 23.8325ZM49.1085 31.9844C49.8609 32.2035 50.6552 32.3232 51.4773 32.3232H52.3421C53.1646 32.3232 53.9593 32.2034 54.7121 31.9841V36.5135C54.7121 37.765 53.694 38.7831 52.4425 38.7831H52.1739V35.2001C52.1739 33.7176 50.9671 32.5115 49.4839 32.5115H49.1085V31.9844ZM51.1274 55.7942C51.1246 55.7942 51.1221 55.7938 51.1192 55.7938C51.1164 55.7938 51.1139 55.7942 51.1111 55.7942H49.8681C49.0123 55.7942 48.3159 55.098 48.3159 54.242V52.1287H51.9813V55.7941H51.1274V55.7942ZM49.4838 34.6209C49.804 34.6209 50.0646 34.8807 50.0646 35.2002V37.3491C49.8772 37.3078 49.6833 37.2843 49.4838 37.2843H29.328C29.9271 36.4536 30.4486 35.5622 30.8819 34.621H49.4838V34.6209ZM3.02916 27.9199C3.02916 20.3088 9.13158 14.1166 16.6325 14.1166C24.1335 14.1166 30.2359 20.3088 30.2359 27.9199C30.2359 35.5311 24.1335 41.7233 16.6325 41.7233C9.13158 41.7233 3.02916 35.5311 3.02916 27.9199V27.9199ZM34.9215 68.0905C34.9215 68.3532 34.7079 68.5668 34.4452 68.5668H31.0872C30.8245 68.5668 30.6109 68.3532 30.6109 68.0905V66.6045H34.9214L34.9215 68.0905ZM50.0647 63.9159C50.0647 64.2354 49.8041 64.4952 49.4839 64.4952H20.4716C20.1514 64.4952 19.8908 64.2354 19.8908 63.9159V43.4876C22.8095 42.8618 25.4316 41.4133 27.5085 39.3935H49.4838C49.804 39.3935 50.0646 39.6534 50.0646 39.9729V50.0196H44.3739C43.7914 50.0196 43.3192 50.4918 43.3192 51.0743C43.3192 51.6567 43.7914 52.129 44.3739 52.129H46.2067V54.2423C46.2067 56.2612 47.8492 57.9037 49.8681 57.9037H50.0647V63.9159ZM68.6761 53.9097C68.1385 55.0236 66.9976 55.7939 65.6803 55.7939C65.0573 55.7939 54.7076 55.7942 54.0905 55.7942V52.1288H64.6166C65.199 52.1288 65.6713 51.6566 65.6713 51.0741C65.6713 50.4917 65.199 50.0194 64.6166 50.0194H63.8007V43.3173C63.8007 42.7348 63.3285 42.2626 62.746 42.2626C62.1635 42.2626 61.6913 42.7348 61.6913 43.3173V50.0194H52.1737V40.8923H52.4423C54.7326 40.8923 56.6166 39.1245 56.8044 36.8818H62.204C65.9536 36.8818 69.0044 39.9324 69.0044 43.6822V52.4696C69.0045 52.7562 68.9772 53.3092 68.6761 53.9097Z" fill="black"/>
<path d="M27.446 28.0574C28.0403 27.8779 28.4396 27.3391 28.4396 26.7162C28.4396 26.0936 28.0404 25.5545 27.446 25.3748L17.1514 22.2657C16.8123 22.1634 16.4536 22.1634 16.1144 22.2657L5.81969 25.375C5.22541 25.5545 4.82617 26.0936 4.82617 26.7162C4.82617 27.0086 4.91519 27.282 5.07002 27.5088V30.9934C5.07002 31.5758 5.54223 32.048 6.1247 32.048C6.70717 32.048 7.17939 31.5758 7.17939 30.9934V28.468L8.77816 28.9508V33.8094C8.77816 34.636 9.33419 35.3577 10.13 35.5641L15.9963 37.0883C16.2046 37.1426 16.4189 37.1696 16.6332 37.1696C16.8474 37.1696 17.0614 37.1426 17.2695 37.0883L23.1358 35.5642C23.932 35.3575 24.4881 34.636 24.4881 33.8094V28.9506L27.446 28.0574ZM16.6329 24.3125L24.5914 26.7161L16.6329 29.1197L8.67438 26.7161L16.6329 24.3125ZM22.3787 33.5817L16.7387 35.0472C16.6695 35.0652 16.5965 35.065 16.527 35.0472L10.8874 33.5818V29.5881L16.1144 31.1667C16.284 31.2179 16.4585 31.2435 16.6329 31.2435C16.8074 31.2435 16.9818 31.2179 17.1514 31.1667L22.3787 29.5879V33.5817Z" fill="black"/>
</g>
<defs>
<clipPath id="clip0">
<rect width="72" height="72" fill="white" transform="translate(0.0175781)"/>
</clipPath>
</defs>
</svg>
