<svg width="81" height="80" viewBox="0 0 81 80" fill="none" xmlns="http://www.w3.org/2000/svg">
<g clip-path="url(#clip0)">
<path d="M58.4165 30.4198C59.4763 30.4198 60.4835 30.01 61.2521 29.2659C61.7171 28.8158 61.7291 28.0739 61.279 27.609C60.8288 27.144 60.0869 27.1318 59.6221 27.5822C59.2929 27.9008 58.8647 28.0764 58.4165 28.0764H58.0752C57.6269 28.0764 57.1988 27.9009 56.8696 27.5822C56.4044 27.1318 55.6627 27.144 55.2127 27.609C54.7626 28.074 54.7746 28.8159 55.2396 29.2659C56.0083 30.01 57.0154 30.4198 58.0752 30.4198H58.4165Z" fill="black"/>
<path d="M34.8554 59.0273C35.1471 59.1902 35.4705 59.2713 35.7937 59.2713C36.1443 59.2713 36.4946 59.1756 36.8035 58.9855L44.081 54.5013C44.654 54.1483 44.996 53.5356 44.996 52.8627C44.996 52.1897 44.654 51.577 44.081 51.2241L36.8034 46.7399C36.2102 46.3744 35.4638 46.3585 34.8554 46.698C34.2471 47.0377 33.8691 47.6816 33.8691 48.3783V57.3467C33.8693 58.0436 34.2471 58.6875 34.8554 59.0273ZM36.2129 49.1288L42.2727 52.8627L36.2129 56.5966V49.1288Z" fill="black"/>
<path d="M49.2264 64.7522H37.9653C37.4775 63.3333 36.1305 62.3103 34.5483 62.3103C32.9659 62.3103 31.6189 63.3333 31.1309 64.7523H29.6366C28.9894 64.7523 28.4647 65.2772 28.4648 65.9244C28.4648 66.5715 28.9895 67.0961 29.6367 67.0961H31.1311C31.6191 68.5148 32.9661 69.5373 34.5483 69.5373C36.1305 69.5373 37.4773 68.5147 37.9653 67.0961H49.2264C49.8734 67.0961 50.3983 66.5715 50.3983 65.9244C50.3983 65.2772 49.8736 64.7522 49.2264 64.7522ZM34.5483 67.1934C33.8481 67.1934 33.2786 66.6239 33.2786 65.9237C33.2786 65.2234 33.8481 64.6537 34.5483 64.6537C35.2483 64.6537 35.8178 65.2234 35.8178 65.9237C35.8178 66.6239 35.2483 67.1934 34.5483 67.1934Z" fill="black"/>
<path d="M79.583 56.7475V48.5359C79.583 43.0773 75.142 38.6364 69.6834 38.6364H63.7025V34.4901C66.3759 32.8228 68.1597 29.8568 68.1597 26.4806V25.5636H70.0319C72.6637 25.5636 74.805 23.4223 74.805 20.7903C74.805 19.5425 74.3231 18.4054 73.5364 17.554V13.5064C73.5364 9.98029 71.9745 6.66857 69.2514 4.42029C68.7523 4.00826 68.0137 4.07888 67.6017 4.57795C67.1897 5.07701 67.2603 5.8156 67.7594 6.22763C69.9414 8.02904 71.1928 10.6822 71.1928 13.5064V16.1608C70.8209 16.0675 70.4322 16.0173 70.0319 16.0173H68.1283C67.7991 12.4839 64.8184 9.70857 61.2005 9.70857H49.9711C49.0666 9.70857 48.3306 10.4445 48.3306 11.349V16.0173H46.458C46.0581 16.0173 45.67 16.0673 45.2986 16.1604V4.79904C45.2986 3.89545 45.7711 3.09513 46.5623 2.65841C47.3539 2.22123 48.2836 2.2481 49.0477 2.7292L49.7439 3.16873C50.6839 3.76091 51.7687 4.07404 52.8809 4.07404H61.7602C62.2503 4.07404 62.7383 4.11138 63.2108 4.18513C63.8505 4.28435 64.4494 3.84732 64.5491 3.20779C64.6489 2.56826 64.2114 1.9692 63.5719 1.86951C62.9803 1.77716 62.3708 1.73045 61.7602 1.73045H52.8809C52.2116 1.73045 51.5587 1.54201 50.9941 1.18638L50.2977 0.746696C48.7995 -0.196742 46.9797 -0.249241 45.4295 0.606696C43.88 1.46216 42.9547 3.02951 42.9547 4.7992V17.5526C42.167 18.4042 41.6845 19.5419 41.6845 20.7904C41.6845 23.4225 43.8258 25.5637 46.4576 25.5637H48.3303V26.4808C48.3303 29.8573 50.1145 32.8237 52.7886 34.4909V36.124H35.7648C36.2467 34.5079 36.5069 32.7954 36.5069 31.0222C36.5069 21.2731 28.675 13.3415 19.0484 13.3415C9.42187 13.3415 1.58984 21.2731 1.58984 31.0222C1.58984 40.7714 9.42172 48.7028 19.0483 48.7028C19.4777 48.7028 19.9033 48.6864 20.3248 48.6553V71.0175C20.3248 72.6647 21.6656 74.0048 23.3137 74.0048H32.2361V75.6559C32.2361 77.24 33.5248 78.5287 35.1089 78.5287H38.84C40.4241 78.5287 41.7128 77.24 41.7128 75.6559V74.0048H43.4408V78.8281C43.4408 79.4753 43.9655 80 44.6127 80H70.2848C70.932 80 71.4567 79.4753 71.4567 78.8281V74.7798C71.4567 74.1326 70.932 73.6079 70.2848 73.6079C69.6376 73.6079 69.113 74.1326 69.113 74.7798V77.6562H45.7847V74.0048H55.5498C57.198 74.0048 58.5387 72.6647 58.5387 71.0175V64.337H69.1133V69.3114C69.1133 69.9586 69.638 70.4832 70.2851 70.4832C70.9323 70.4832 71.457 69.9586 71.457 69.3114V64.3368H73.5459C74.6903 64.3368 75.7612 64.0168 76.6741 63.4615C78.4167 62.4015 79.5831 60.4842 79.5831 58.2997V56.7475H79.583ZM72.4614 20.7904C72.4614 22.1301 71.3716 23.22 70.0319 23.22H68.1597V18.3609H70.0319C71.3716 18.3609 72.4614 19.4508 72.4614 20.7904ZM46.458 23.22C45.1183 23.22 44.0284 22.13 44.0284 20.7904C44.0284 19.4509 45.1183 18.3609 46.458 18.3609H48.3306V23.22H46.458ZM50.6742 26.4806V24.4068C50.6742 24.4018 50.675 24.3968 50.675 24.3917C50.675 24.3865 50.6744 24.3817 50.6742 24.3765V17.204C50.6742 17.199 50.675 17.194 50.675 17.1889C50.675 17.1837 50.6744 17.1789 50.6742 17.1737V12.0519H61.2005C63.7455 12.0519 65.8159 14.1223 65.8159 16.6673V26.4803C65.8159 30.39 62.6352 33.5708 58.7255 33.5708H57.7645C53.855 33.5711 50.6742 30.3903 50.6742 26.4806ZM55.1327 35.5383C55.9687 35.7817 56.8512 35.9147 57.7647 35.9147H58.7256C59.6395 35.9147 60.5225 35.7815 61.3589 35.5379V40.5706C61.3589 41.9611 60.2276 43.0923 58.8372 43.0923H58.5387V39.1112C58.5387 37.464 57.1978 36.1239 55.5498 36.1239H55.1327V35.5383ZM57.3759 61.9936C57.3728 61.9936 57.37 61.9931 57.3669 61.9931C57.3637 61.9931 57.3609 61.9936 57.3578 61.9936H55.9767C55.0258 61.9936 54.252 61.22 54.252 60.2689V57.9207H58.3247V61.9934H57.3759V61.9936ZM55.5497 38.4676C55.9055 38.4676 56.195 38.7564 56.195 39.1114V41.499C55.9869 41.4531 55.7714 41.427 55.5497 41.427H33.1544C33.82 40.504 34.3995 39.5136 34.8809 38.4678H55.5497V38.4676ZM3.93344 31.0222C3.93344 22.5653 10.7139 15.6851 19.0483 15.6851C27.3827 15.6851 34.1631 22.5653 34.1631 31.0222C34.1631 39.479 27.3827 46.3592 19.0483 46.3592C10.7139 46.3592 3.93344 39.479 3.93344 31.0222ZM39.3694 75.6561C39.3694 75.9479 39.132 76.1853 38.8402 76.1853H35.1091C34.8172 76.1853 34.5798 75.9479 34.5798 75.6561V74.005H39.3692L39.3694 75.6561ZM56.1952 71.0176C56.1952 71.3726 55.9056 71.6614 55.5498 71.6614H23.3139C22.9581 71.6614 22.6686 71.3726 22.6686 71.0176V48.3195C25.9116 47.6242 28.825 46.0148 31.1327 43.7706H55.5497C55.9055 43.7706 56.195 44.0593 56.195 44.4143V55.5773H49.872C49.2248 55.5773 48.7002 56.102 48.7002 56.7492C48.7002 57.3964 49.2248 57.9211 49.872 57.9211H51.9084V60.2692C51.9084 62.5125 53.7334 64.3375 55.9767 64.3375H56.1952V71.0176ZM76.8745 59.8997C76.2772 61.1373 75.0095 61.9932 73.5458 61.9932C72.8536 61.9932 61.3539 61.9936 60.6683 61.9936V57.9209H72.3639C73.0111 57.9209 73.5358 57.3962 73.5358 56.749C73.5358 56.1018 73.0111 55.5772 72.3639 55.5772H71.4573V48.1303C71.4573 47.4831 70.9326 46.9584 70.2855 46.9584C69.6383 46.9584 69.1136 47.4831 69.1136 48.1303V55.5772H58.5384V45.4359H58.8369C61.3817 45.4359 63.475 43.4717 63.6837 40.9798H69.6833C73.8495 40.9798 77.2392 44.3693 77.2392 48.5358V58.2995C77.2394 58.6179 77.2091 59.2325 76.8745 59.8997Z" fill="black"/>
<path d="M31.0628 31.175C31.7231 30.9756 32.1669 30.3769 32.1669 29.6849C32.1669 28.993 31.7233 28.3941 31.0628 28.1944L19.6244 24.7399C19.2477 24.6261 18.8491 24.6261 18.4722 24.7399L7.03359 28.1945C6.37328 28.3941 5.92969 28.993 5.92969 29.6849C5.92969 30.0097 6.02859 30.3134 6.20063 30.5655V34.4372C6.20063 35.0844 6.72531 35.6091 7.3725 35.6091C8.01969 35.6091 8.54438 35.0844 8.54438 34.4372V31.6313L10.3208 32.1677V37.5661C10.3208 38.4845 10.9386 39.2864 11.8228 39.5158L18.3409 41.2094C18.5723 41.2697 18.8105 41.2997 19.0486 41.2997C19.2866 41.2997 19.5244 41.2697 19.7556 41.2094L26.2738 39.5159C27.1584 39.2863 27.7762 38.4845 27.7762 37.5661V32.1675L31.0628 31.175ZM19.0483 27.0141L27.8911 29.6847L19.0483 32.3553L10.2055 29.6847L19.0483 27.0141ZM25.4325 37.3131L19.1658 38.9414C19.0889 38.9614 19.0078 38.9613 18.9306 38.9414L12.6644 37.3133V32.8758L18.4722 34.6299C18.6606 34.6867 18.8545 34.7152 19.0483 34.7152C19.2422 34.7152 19.4359 34.6867 19.6244 34.6299L25.4325 32.8756V37.3131Z" fill="black"/>
</g>
<defs>
<clipPath id="clip0">
<rect width="80" height="80" fill="white" transform="translate(0.585938)"/>
</clipPath>
</defs>
</svg>
