<svg width="81" height="81" viewBox="0 0 81 81" fill="none" xmlns="http://www.w3.org/2000/svg">
<g clip-path="url(#clip0)">
<path d="M60.186 41.8283C59.5335 41.8283 58.9346 41.4047 58.7149 40.7914C58.5008 40.194 58.6775 39.5082 59.1557 39.0898C59.6546 38.6532 60.3922 38.5829 60.9664 38.9122C61.5555 39.2498 61.8616 39.9592 61.7063 40.6203C61.5424 41.3178 60.9038 41.8283 60.186 41.8283Z" fill="#0A1124"/>
<path d="M60.1337 58.1378L56.5721 54.5762C58.2773 52.6016 59.6099 50.3269 60.4995 47.8494C60.791 47.0372 60.369 46.1423 59.5568 45.8508C58.7449 45.5598 57.8499 45.9811 57.5582 46.7934C56.6902 49.2114 55.3268 51.4033 53.5587 53.2455C52.5959 50.3898 50.2466 48.1664 47.3154 47.3795C49.1635 45.578 50.3129 43.0628 50.3129 40.2842C50.3129 34.8187 45.8665 30.3723 40.401 30.3723C34.9355 30.3723 30.4891 34.8187 30.4891 40.2842C30.4891 43.0628 31.6385 45.5781 33.4866 47.3795C30.5545 48.1666 28.2046 50.3912 27.2424 53.2481C23.9959 49.8761 22.1773 45.4073 22.1773 40.6355C22.1773 30.5861 30.3523 22.4101 40.4009 22.4101C47.8624 22.4101 54.4946 26.8787 57.2974 33.7942C57.6213 34.5941 58.5327 34.9797 59.3323 34.6555C60.132 34.3314 60.5176 33.4203 60.1935 32.6206C59.3077 30.435 58.0776 28.4305 56.5541 26.6703L60.1087 23.1158C61.229 23.8183 62.5082 24.1695 63.7874 24.1695C65.561 24.1695 67.3345 23.4945 68.6846 22.1444C71.3848 19.4441 71.3848 15.0506 68.6846 12.3501C65.9846 9.65015 61.5909 9.64999 58.8904 12.3501C56.5737 14.667 56.2448 18.2303 57.9035 20.9012L54.3413 24.4634C53.747 23.9514 53.1221 23.47 52.4688 23.0216C49.3379 20.8722 45.7337 19.6139 41.9627 19.3414V14.3078C45.0315 13.5975 47.3257 10.8416 47.3257 7.55999C47.3259 3.7414 44.219 0.634521 40.4004 0.634521C36.5818 0.634521 33.4749 3.7414 33.4749 7.55999C33.4749 10.8416 35.7691 13.5973 38.8379 14.3078V19.342C34.1296 19.6844 29.8399 21.5606 26.4677 24.472L22.8971 20.9014C24.5559 18.2305 24.227 14.6673 21.9102 12.3503C19.2099 9.65015 14.8162 9.65046 12.116 12.3503C9.41586 15.0506 9.41586 19.4441 12.116 22.1445C13.4662 23.4947 15.2396 24.1697 17.0132 24.1697C18.2924 24.1697 19.5716 23.8183 20.6921 23.1159L24.2566 26.6805C21.3395 30.0512 19.4576 34.3417 19.1107 39.052H14.0688C13.351 35.9934 10.6002 33.7092 7.32586 33.7092C3.50727 33.7091 0.400391 36.8159 0.400391 40.6345C0.400391 44.4531 3.50727 47.56 7.32586 47.56C10.6146 47.56 13.3752 45.2556 14.0782 42.1769H19.1068C19.434 46.8045 21.2304 51.1216 24.2259 54.5791L20.6673 58.1378C17.9963 56.4791 14.4329 56.808 12.1162 59.1247C9.41602 61.825 9.41602 66.2184 12.1162 68.9189C13.4663 70.2691 15.2398 70.9441 17.0134 70.9441C18.7868 70.9441 20.5602 70.2691 21.9104 68.9189C24.2343 66.5948 24.558 63.0166 22.8818 60.343L26.4385 56.7861C26.7423 57.0481 27.0543 57.303 27.3748 57.5501C27.3766 57.5516 27.3785 57.5531 27.3804 57.5545C30.7268 60.1328 34.6604 61.6295 38.838 61.9283V66.9612C35.7693 67.6716 33.4751 70.4275 33.4751 73.7091C33.4749 77.5276 36.5818 80.6345 40.4004 80.6345C44.219 80.6345 47.3259 77.5276 47.3259 73.7091C47.3259 70.4275 45.0315 67.6717 41.9629 66.9612V61.9283C46.141 61.6298 50.0749 60.133 53.4218 57.5545C53.4232 57.5534 53.4246 57.5523 53.426 57.5512C53.7462 57.3044 54.0584 57.0494 54.3627 56.7862L57.9193 60.3428C56.2429 63.0164 56.5668 66.5945 58.8907 68.9187C60.2409 70.2689 62.0143 70.9439 63.7877 70.9439C65.5613 70.9439 67.3348 70.2689 68.6849 68.9187C71.3851 66.2184 71.3851 61.825 68.6849 59.1245C66.368 56.808 62.8046 56.4791 60.1337 58.1378ZM61.1002 14.56C61.841 13.8191 62.8143 13.4486 63.7874 13.4486C64.7607 13.4486 65.734 13.8191 66.4748 14.56C67.9565 16.0417 67.9565 18.4528 66.4748 19.9345C64.9934 21.4164 62.582 21.4164 61.1002 19.9345C59.6185 18.4528 59.6185 16.0417 61.1002 14.56ZM36.5999 7.55999C36.5999 5.46437 38.3048 3.75952 40.4004 3.75952C42.496 3.75952 44.2009 5.46437 44.2009 7.55999C44.2009 9.65562 42.496 11.3605 40.4004 11.3605C38.3048 11.3605 36.5999 9.65562 36.5999 7.55999ZM14.3259 19.9347C12.8441 18.453 12.8441 16.0419 14.3259 14.5601C15.0666 13.8192 16.0399 13.4487 17.0132 13.4487C17.9865 13.4487 18.9596 13.8192 19.7004 14.5601C21.1821 16.0419 21.1821 18.453 19.7004 19.9347C18.2187 21.4169 15.8073 21.4166 14.3259 19.9347ZM7.32586 44.435C5.23023 44.435 3.52539 42.7301 3.52539 40.6345C3.52539 38.5389 5.23023 36.8341 7.32586 36.8341C9.42148 36.8341 11.1263 38.5389 11.1263 40.6345C11.1263 42.7301 9.42148 44.435 7.32586 44.435ZM40.401 33.4973C44.1432 33.4973 47.1879 36.5419 47.1879 40.2842C47.1879 44.0266 44.1434 47.0711 40.401 47.0711C36.6587 47.0711 33.6141 44.0266 33.6141 40.2842C33.6141 36.5419 36.6588 33.4973 40.401 33.4973ZM19.7005 66.7091C18.2188 68.1912 15.8074 68.1909 14.326 66.7091C12.8443 65.2273 12.8443 62.8162 14.326 61.3345C15.0668 60.5936 16.0401 60.2231 17.0134 60.2231C17.9866 60.2231 18.9598 60.5936 19.7005 61.3345C21.1823 62.8162 21.1823 65.2273 19.7005 66.7091ZM44.2009 73.7091C44.2009 75.8047 42.496 77.5095 40.4004 77.5095C38.3048 77.5095 36.5999 75.8047 36.5999 73.7091C36.5999 71.6134 38.3048 69.9086 40.4004 69.9086C42.496 69.9086 44.2009 71.6134 44.2009 73.7091ZM40.401 58.8589C36.6054 58.8589 33.0004 57.7172 29.9251 55.5491C30.2199 52.5483 32.7577 50.1961 35.8346 50.1961H44.9671C48.044 50.1961 50.5821 52.5483 50.8768 55.5491C47.8016 57.7172 44.1966 58.8589 40.401 58.8589ZM66.4749 66.7091C64.9935 68.1909 62.5821 68.1909 61.1004 66.7091C59.6187 65.2273 59.6187 62.8162 61.1004 61.3345C61.8412 60.5936 62.8145 60.2231 63.7876 60.2231C64.7609 60.2231 65.7341 60.5936 66.4749 61.3345C67.9566 62.8162 67.9566 65.2273 66.4749 66.7091Z" fill="#0A1124"/>
<path d="M73.4762 47.5599C69.6577 47.5599 66.5508 44.453 66.5508 40.6345C66.5508 36.8159 69.6577 33.709 73.4762 33.709C77.2948 33.709 80.4017 36.8159 80.4017 40.6345C80.4017 44.453 77.2948 47.5599 73.4762 47.5599ZM73.4762 36.834C71.3806 36.834 69.6758 38.5388 69.6758 40.6345C69.6758 42.7301 71.3806 44.4349 73.4762 44.4349C75.5719 44.4349 77.2767 42.7301 77.2767 40.6345C77.2767 38.5388 75.5719 36.834 73.4762 36.834Z" fill="#0A1124"/>
</g>
<defs>
<clipPath id="clip0">
<rect width="80" height="80" fill="white" transform="translate(0.400391 0.634521)"/>
</clipPath>
</defs>
</svg>
