<svg width="80" height="81" viewBox="0 0 80 81" fill="none" xmlns="http://www.w3.org/2000/svg">
<g clip-path="url(#clip0)">
<path d="M39.8607 10.4029C40.7298 10.4029 41.4343 9.6984 41.4343 8.82934V1.8109C41.4343 0.941836 40.7298 0.237305 39.8607 0.237305C38.9916 0.237305 38.2871 0.941836 38.2871 1.8109V8.82934C38.2873 9.6984 38.9918 10.4029 39.8607 10.4029Z" fill="black"/>
<path d="M78.324 54.2974L75.5441 51.5254C74.5552 50.5377 73.2373 49.9937 71.8329 49.9937C70.9349 49.9937 70.0729 50.2171 69.309 50.6357L64.0705 45.4035L64.3257 45.1487C66.4509 43.0193 66.4501 39.5591 64.3255 37.437C63.5663 36.6763 62.619 36.1691 61.5863 35.9557C61.7285 35.4649 61.8034 34.9509 61.8034 34.4248C61.8034 32.963 61.2355 31.5924 60.2077 30.5688C59.4484 29.8082 58.5012 29.301 57.4685 29.0876C57.6107 28.5968 57.6855 28.0829 57.6855 27.5566C57.6855 26.0948 57.1177 24.7243 56.0882 23.6991C55.3107 22.9226 54.3549 22.431 53.3513 22.2218C53.8882 20.3707 53.4294 18.288 51.9732 16.8293C50.761 15.6223 49.1162 15.1035 47.531 15.2716L37.1505 13.3068C35.5674 13.0065 33.5904 12.8079 32.3424 13.9462C32.2637 14.018 32.1834 14.1007 32.1043 14.1927C30.1693 13.4874 27.9124 13.9074 26.3629 15.4552C25.3349 16.482 24.7687 17.852 24.7687 19.3129C24.7687 19.8391 24.8432 20.353 24.9852 20.844C23.9537 21.0573 23.0076 21.5638 22.2509 22.322C21.2209 23.3477 20.6529 24.7162 20.6518 26.1754C20.6513 26.7029 20.7262 27.2185 20.869 27.7107C19.837 27.9235 18.8902 28.4291 18.1312 29.1873C17.1012 30.2162 16.534 31.587 16.534 33.0471C16.534 34.1655 16.8679 35.231 17.4866 36.131C16.7054 36.3959 15.9898 36.8366 15.3905 37.4352C13.264 39.5591 13.2632 43.0195 15.392 45.152L15.6462 45.4051L10.4071 50.6346C8.46008 49.7179 6.06117 50.0613 4.45445 51.666L1.67289 54.4398C0.683516 55.4279 0.138828 56.746 0.138672 58.1512C0.138672 59.5565 0.683516 60.8748 1.67289 61.863L5.1443 65.3302C5.75914 65.9445 6.75555 65.9438 7.36961 65.329C7.98383 64.7141 7.9832 63.7177 7.36836 63.1037L3.89695 59.6365C3.50289 59.2429 3.28586 58.7154 3.28586 58.1513C3.28586 57.5874 3.50289 57.0601 3.89602 56.6674L6.67773 53.8935C7.37273 53.1993 8.43648 53.0959 9.2443 53.5788C9.30117 53.6643 9.36695 53.7455 9.44226 53.821C9.57711 53.9562 9.73102 54.0598 9.89445 54.1355L25.8465 70.0641C25.9223 70.2293 26.0263 70.3848 26.1621 70.5207C26.2943 70.653 26.4451 70.7554 26.6051 70.8307C26.9424 71.2121 27.1288 71.6993 27.1288 72.219C27.1288 72.783 26.9118 73.3104 26.5177 73.704L23.7388 76.4796C22.9177 77.2971 21.5821 77.297 20.7635 76.4821L17.2921 73.0104C16.6776 72.3959 15.6813 72.3959 15.0668 73.0104C14.4523 73.6249 14.4523 74.6212 15.0668 75.2357L18.5407 78.7099C19.5632 79.7282 20.906 80.2371 22.2495 80.2371C23.5932 80.2371 24.9376 79.7274 25.9613 78.7082L28.742 75.9309C29.7313 74.9426 30.2762 73.6245 30.2762 72.219C30.2762 71.216 29.9973 70.2582 29.4787 69.4323L35.3749 63.5432C35.3812 63.5368 35.3874 63.5304 35.3938 63.524C36.069 62.826 37.9491 62.9566 39.7674 63.0829C41.0593 63.1727 42.4996 63.2726 43.9068 63.1104L50.3637 69.5596C49.9454 70.3223 49.7221 71.1832 49.7221 72.0798C49.7221 73.4837 50.2669 74.801 51.2563 75.7893L54.0371 78.5666C55.0259 79.5543 56.3438 80.0984 57.7482 80.0984C59.1524 80.0984 60.4704 79.5545 61.4593 78.5666L78.3251 61.7213C79.3144 60.7332 79.8593 59.4151 79.8593 58.0098C79.8591 56.6046 79.3143 55.2865 78.324 54.2974ZM36.5646 16.399L43.3907 17.691L39.3049 21.7752C38.6729 21.4715 37.8066 20.9049 36.8563 19.9959C35.5555 18.7515 34.6251 17.3148 34.5404 16.4187C34.5402 16.4182 34.5402 16.4177 34.5402 16.4173C34.5402 16.4171 34.5401 16.417 34.5401 16.4168C34.534 16.3524 34.5324 16.301 34.5332 16.2618C34.739 16.2118 35.2855 16.1563 36.5646 16.399ZM28.5868 17.682C29.384 16.8855 30.6224 16.7937 31.5232 17.4037C32.0337 19.544 33.8595 21.4838 34.6809 22.2698C35.2896 22.8523 37.2429 24.5987 39.2145 25.0787C39.4812 25.461 39.6263 25.9168 39.6263 26.3977C39.6263 27.0173 39.388 27.5965 38.9538 28.0302C38.5209 28.464 37.9407 28.7027 37.3201 28.7027C36.6993 28.7027 36.1191 28.464 35.6841 28.0282L35.684 28.028L35.6832 28.0273L28.5866 20.9435C28.154 20.5115 27.9157 19.9323 27.9157 19.3129C27.9159 18.6934 28.1541 18.1141 28.5868 17.682ZM24.4749 24.5487C24.9079 24.1151 25.4874 23.8762 26.1071 23.8762C26.7276 23.8762 27.309 24.1155 27.7448 24.5509L33.4591 30.2538C34.359 31.1551 34.359 32.6216 33.4623 33.5198C33.027 33.9534 32.4448 34.1921 31.823 34.1921C31.2013 34.1921 30.6191 33.9534 30.1857 33.5216L30.1855 33.5215L25.8504 29.1873C25.8437 29.1805 25.8363 29.1743 25.8295 29.1674L24.4732 27.8118C24.038 27.3771 23.7985 26.7968 23.799 26.1777C23.7996 25.5607 24.0384 24.9834 24.4749 24.5487ZM20.3552 31.414C20.7885 30.9813 21.3693 30.743 21.9909 30.743C22.6073 30.743 23.183 30.9779 23.6145 31.403L27.9629 35.7495C28.3965 36.1813 28.6354 36.7599 28.6354 37.3787C28.6354 37.9973 28.3965 38.5759 27.9612 39.0095C27.528 39.442 26.9479 39.6802 26.3274 39.6802C25.706 39.6802 25.124 39.4413 24.6902 39.0095L23.1138 37.4349C23.1135 37.4345 23.113 37.4341 23.1127 37.4338L20.3554 34.6798C19.9207 34.2455 19.6813 33.6655 19.6813 33.0468C19.6813 32.4282 19.9207 31.848 20.3552 31.414ZM17.6146 39.6618C18.0498 39.2271 18.6313 38.9877 19.2521 38.9877C19.8727 38.9877 20.4541 39.227 20.8891 39.6613L22.4677 41.238C22.9015 41.6699 23.1402 42.2485 23.1402 42.8673C23.1402 43.486 22.9013 44.0645 22.4645 44.4998C22.0315 44.9334 21.4513 45.1723 20.8307 45.1723C20.2099 45.1723 19.6298 44.9335 19.1937 44.4966L18.996 44.2998C18.9934 44.2971 18.9913 44.2943 18.9888 44.2918C18.9859 44.289 18.9827 44.2865 18.9798 44.2837L17.6162 42.9254C16.7163 42.0237 16.7155 40.5598 17.6146 39.6618ZM49.6824 57.5459C49.0682 56.9309 48.0718 56.9304 47.4571 57.5444L46.0571 58.9427C44.7268 60.273 42.3163 60.1055 39.9852 59.9438C37.4538 59.7679 34.8362 59.5863 33.1423 61.3254L27.3462 67.1145L12.852 52.6415L17.9813 47.5213C18.8291 48.041 19.8074 48.3196 20.831 48.3196C22.2934 48.3196 23.6646 47.7527 24.6888 46.7266C25.7199 45.6998 26.2879 44.3293 26.2879 42.8674C26.2879 42.8538 26.287 42.8404 26.287 42.8268C26.3005 42.827 26.3141 42.8277 26.3277 42.8277C27.788 42.8277 29.1582 42.2626 30.1838 41.2382C31.2149 40.2113 31.7829 38.8407 31.7829 37.379C31.7829 37.3654 31.7819 37.352 31.7819 37.3384C31.7957 37.3384 31.8095 37.3393 31.8234 37.3393C33.2832 37.3393 34.6541 36.7748 35.6866 35.7465C36.7585 34.6729 37.2887 33.2595 37.2785 31.849C37.2926 31.8491 37.3066 31.8499 37.3207 31.8499C38.783 31.8498 40.1541 31.283 41.1799 30.2554C42.2079 29.2287 42.7741 27.8587 42.7741 26.3977C42.7741 25.376 42.4963 24.3993 41.9784 23.5532L46.4741 19.0593C46.8091 18.7257 47.2223 18.5163 47.6552 18.4299C47.7021 18.4249 47.7484 18.4174 47.7941 18.4084C48.4888 18.3126 49.2184 18.527 49.7496 19.056C50.6494 19.9574 50.6494 21.424 49.7529 22.3221L48.3837 23.6857C48.3791 23.6902 48.3743 23.6943 48.3698 23.6988L46.7927 25.2732C46.1777 25.8873 46.1771 26.8837 46.7913 27.4985C47.4057 28.1135 48.4019 28.114 49.0166 27.4999L50.3913 26.1271C50.3916 26.1268 50.3919 26.1265 50.3923 26.1262L50.6001 25.9191C51.5024 25.0251 52.9643 25.027 53.8657 25.9271C54.2994 26.359 54.5384 26.9376 54.5384 27.5563C54.5384 28.1749 54.2994 28.7535 53.8623 29.1888L52.4852 30.5687C52.4851 30.5688 52.4849 30.569 52.4848 30.5693L50.9079 32.1398C50.2921 32.753 50.2901 33.7495 50.9034 34.3651C51.5166 34.9809 52.5129 34.9827 53.1287 34.3696L54.7127 32.792C55.1457 32.3582 55.7258 32.1195 56.3465 32.1195C56.9673 32.1195 57.5476 32.3582 57.9837 32.7951C58.4174 33.2271 58.6562 33.8057 58.6562 34.4245C58.6562 35.043 58.4174 35.6216 57.9812 36.056L55.2359 38.8024C54.6215 39.4171 54.6216 40.4134 55.2362 41.0277C55.5435 41.3349 55.946 41.4884 56.3487 41.4884C56.7515 41.4884 57.1543 41.3346 57.4615 41.0273L58.8069 39.6813C58.8146 39.674 58.8229 39.6676 58.8305 39.6599C59.2635 39.2262 59.8437 38.9874 60.4643 38.9874C61.0851 38.9874 61.6652 39.2262 62.0998 39.6615C62.9987 40.5595 62.9979 42.0235 62.0998 42.9232L60.7318 44.2896C60.7313 44.2901 60.7307 44.2905 60.7302 44.291C60.7298 44.2915 60.7293 44.2921 60.7288 44.2926L58.5576 46.4612C57.9427 47.0754 57.9421 48.0718 58.5562 48.6866C58.8635 48.9943 59.2666 49.1482 59.6696 49.1482C60.0719 49.1482 60.4744 48.9948 60.7816 48.688L61.8437 47.6273L66.9338 52.7115L52.4408 67.1868L47.248 62.0002C47.6101 61.7674 47.9565 61.4937 48.2816 61.1685L49.6809 59.771C50.296 59.1571 50.2966 58.1607 49.6824 57.5459ZM76.1009 59.4946L59.2351 76.3399C58.8405 76.734 58.3124 76.951 57.748 76.951C57.1837 76.951 56.6555 76.734 56.2608 76.3398L53.4801 73.5624C53.086 73.169 52.869 72.6424 52.869 72.0798C52.869 71.5173 53.086 70.9907 53.4801 70.5971L70.3458 53.7518C70.7405 53.3576 71.2685 53.1405 71.833 53.1405C72.3974 53.1405 72.9255 53.3576 73.3212 53.7527L76.101 56.5248C76.4951 56.9184 76.7121 57.4455 76.7121 58.0096C76.7119 58.5738 76.4949 59.1012 76.1009 59.4946Z" fill="black"/>
<path d="M18.9656 9.07644C19.2728 9.383 19.675 9.53612 20.0772 9.53612C20.4803 9.53612 20.8836 9.38206 21.1909 9.07409C21.8048 8.45894 21.8039 7.46269 21.1887 6.84878L15.4546 1.12612C14.8396 0.512217 13.8432 0.512999 13.2293 1.12831C12.6154 1.74347 12.6164 2.73972 13.2315 3.35362L18.9656 9.07644Z" fill="black"/>
<path d="M59.6458 9.53607C60.0482 9.53607 60.4507 9.38263 60.7579 9.07591L66.4875 3.3531C67.1024 2.73903 67.103 1.74263 66.4888 1.12778C65.8747 0.51294 64.8785 0.512315 64.2635 1.12653L58.5338 6.84935C57.9189 7.46341 57.9183 8.45981 58.5325 9.07466C58.8399 9.38231 59.2429 9.53607 59.6458 9.53607Z" fill="black"/>
<path d="M9.81471 67.9253C9.20549 68.545 9.21393 69.5414 9.83377 70.1506L9.8383 70.155C10.1441 70.4556 10.5411 70.6053 10.938 70.6053C11.3453 70.6053 11.7527 70.4476 12.0613 70.1337C12.6705 69.514 12.6597 68.5154 12.04 67.9062C11.4205 67.297 10.4242 67.3056 9.81471 67.9253Z" fill="black"/>
<path d="M53.5327 55.2789C53.772 55.2789 54.0149 55.2244 54.2428 55.1096C55.0188 54.7182 55.3305 53.7719 54.9392 52.996C54.5478 52.22 53.6014 51.9081 52.8256 52.2996L52.8169 52.3039C52.0409 52.6953 51.7336 53.6394 52.1249 54.4153C52.4011 54.9635 52.9567 55.2789 53.5327 55.2789Z" fill="black"/>
</g>
<defs>
<clipPath id="clip0">
<rect width="80" height="80" fill="white" transform="translate(0 0.237305)"/>
</clipPath>
</defs>
</svg>
