<svg width="81" height="81" viewBox="0 0 81 81" fill="none" xmlns="http://www.w3.org/2000/svg">
<g clip-path="url(#clip0)">
<path d="M75.0638 16.9038C72.1223 16.9038 69.7305 19.2958 69.7305 22.2371C69.7305 25.1783 72.1225 27.5704 75.0638 27.5704C78.005 27.5704 80.397 25.1785 80.397 22.2371C80.397 19.2958 78.005 16.9038 75.0638 16.9038ZM75.0638 24.9038C73.5931 24.9038 72.397 23.7079 72.397 22.2371C72.397 20.7665 73.593 19.5704 75.0638 19.5704C76.5345 19.5704 77.7305 20.7663 77.7305 22.2371C77.7303 23.7079 76.5344 24.9038 75.0638 24.9038Z" fill="black"/>
<path d="M5.73172 60.9038C2.79047 60.9038 0.398438 63.2958 0.398438 66.2371C0.398438 69.1783 2.79047 71.5704 5.73172 71.5704C8.67313 71.5704 11.065 69.1783 11.065 66.2371C11.065 63.2958 8.67313 60.9038 5.73172 60.9038ZM5.73172 68.9038C4.26109 68.9038 3.065 67.7079 3.065 66.2371C3.065 64.7663 4.26094 63.5704 5.73172 63.5704C7.20234 63.5704 8.39844 64.7663 8.39844 66.2371C8.39844 67.7079 7.2025 68.9038 5.73172 68.9038Z" fill="black"/>
<path d="M72.4779 18.589L60.9752 13.0357C60.3112 12.7143 59.5152 12.9943 59.1952 13.6571C58.8752 14.3197 59.1538 15.1171 59.8166 15.4371L71.3193 20.9904C71.506 21.081 71.7033 21.1237 71.8979 21.1237C72.3938 21.1237 72.8699 20.8463 73.0991 20.369C73.4191 19.7063 73.1405 18.909 72.4779 18.589Z" fill="black"/>
<path d="M60.3997 70.2371C57.4583 70.2371 55.0664 72.6291 55.0664 75.5703C55.0664 78.5116 57.4583 80.9038 60.3997 80.9038C63.3411 80.9038 65.733 78.5117 65.733 75.5705C65.733 72.6292 63.3411 70.2371 60.3997 70.2371ZM60.3997 78.2371C58.9291 78.2371 57.733 77.0411 57.733 75.5703C57.733 74.0996 58.9291 72.9038 60.3997 72.9038C61.8703 72.9038 63.0664 74.0997 63.0664 75.5705C63.0664 77.0413 61.8703 78.2371 60.3997 78.2371Z" fill="black"/>
<path d="M57.8138 71.9227L46.3112 66.3694C45.6471 66.048 44.8512 66.3267 44.5312 66.9908C44.2112 67.6534 44.4898 68.4508 45.1526 68.7708L56.6552 74.3241C56.8419 74.4147 57.0393 74.4574 57.2338 74.4574C57.7298 74.4574 58.2059 74.18 58.4352 73.7027C58.7551 73.0399 58.4765 72.2427 57.8138 71.9227Z" fill="black"/>
<path d="M40.3997 36.9038C37.4583 36.9038 35.0664 39.2958 35.0664 42.2371C35.0664 45.1785 37.4584 47.5704 40.3997 47.5704C43.3411 47.5704 45.733 45.1783 45.733 42.2371C45.733 39.2958 43.3411 36.9038 40.3997 36.9038ZM40.3997 44.9038C38.9291 44.9038 37.733 43.7079 37.733 42.2371C37.733 40.7665 38.9289 39.5704 40.3997 39.5704C41.8703 39.5704 43.0664 40.7663 43.0664 42.2371C43.0664 43.7079 41.8703 44.9038 40.3997 44.9038Z" fill="black"/>
<path d="M38.056 38.7385L29.2201 31.8518C28.6387 31.4024 27.8015 31.5024 27.3481 32.0838C26.896 32.6652 26.9987 33.5024 27.5801 33.9559L36.416 40.8426C36.6601 41.032 36.9481 41.124 37.2348 41.124C37.6321 41.124 38.0241 40.948 38.2881 40.6107C38.7401 40.0291 38.6374 39.1918 38.056 38.7385Z" fill="black"/>
<path d="M64.3972 35.5706C56.3105 35.5706 49.7305 42.1506 49.7305 50.2373C49.7305 58.324 56.3105 64.904 64.3972 64.904C72.4839 64.904 79.0639 58.324 79.0639 50.2373C79.0639 42.1506 72.4839 35.5706 64.3972 35.5706ZM64.3972 62.2371C57.7798 62.2371 52.3972 56.8545 52.3972 50.2371C52.3972 43.6198 57.7798 38.2371 64.3972 38.2371C71.0145 38.2371 76.3972 43.6198 76.3972 50.2371C76.3972 56.8545 71.0145 62.2371 64.3972 62.2371Z" fill="black"/>
<path d="M64.3997 40.9038C61.4583 40.9038 59.0664 43.2958 59.0664 46.2371C59.0664 49.1785 61.4584 51.5704 64.3997 51.5704C67.3411 51.5704 69.733 49.1783 69.733 46.2371C69.733 43.2958 67.3411 40.9038 64.3997 40.9038ZM64.3997 48.9038C62.9291 48.9038 61.733 47.7079 61.733 46.2371C61.733 44.7665 62.9289 43.5704 64.3997 43.5704C65.8703 43.5704 67.0664 44.7663 67.0664 46.2371C67.0664 47.7079 65.8703 48.9038 64.3997 48.9038Z" fill="black"/>
<path d="M68.2664 54.2371H60.5305C58.2519 54.2371 56.3984 56.0411 56.3984 58.2571V61.7717C56.3984 62.2477 56.6517 62.6877 57.0637 62.9264C59.2984 64.2197 61.8344 64.9038 64.3984 64.9038C66.9625 64.9038 69.4984 64.2197 71.7331 62.9264C72.1452 62.6891 72.3984 62.2477 72.3984 61.7732V58.2585C72.3984 56.0411 70.5452 54.2371 68.2664 54.2371ZM69.7317 60.9771C66.4131 62.6303 62.3838 62.6303 59.065 60.9771V58.2585C59.065 57.5117 59.7223 56.9038 60.5303 56.9038H68.2663C69.0742 56.9038 69.7316 57.5117 69.7316 58.2585V60.9771H69.7317Z" fill="black"/>
<path d="M32.3972 51.5706C24.3105 51.5706 17.7305 58.1506 17.7305 66.2373C17.7305 74.324 24.3105 80.9038 32.3972 80.9038C40.4839 80.9038 47.0639 74.3238 47.0639 66.2371C47.0639 58.1504 40.4839 51.5706 32.3972 51.5706ZM32.3972 78.2371C25.7798 78.2371 20.3972 72.8544 20.3972 66.2371C20.3972 59.6198 25.7798 54.2371 32.3972 54.2371C39.0145 54.2371 44.3972 59.6198 44.3972 66.2371C44.3972 72.8544 39.0145 78.2371 32.3972 78.2371Z" fill="black"/>
<path d="M32.3958 56.9038C29.4544 56.9038 27.0625 59.2958 27.0625 62.2371C27.0625 65.1785 29.4545 67.5704 32.3958 67.5704C35.337 67.5704 37.7291 65.1783 37.7291 62.2371C37.7291 59.2958 35.3372 56.9038 32.3958 56.9038ZM32.3958 64.9038C30.9252 64.9038 29.7291 63.7079 29.7291 62.2371C29.7291 60.7665 30.925 59.5704 32.3958 59.5704C33.8664 59.5704 35.0625 60.7663 35.0625 62.2371C35.0625 63.7079 33.8664 64.9038 32.3958 64.9038Z" fill="black"/>
<path d="M36.2664 70.2371H28.5305C26.2519 70.2371 24.3984 72.0411 24.3984 74.2571V77.7717C24.3984 78.2477 24.6517 78.6877 25.0637 78.9264C27.2984 80.2197 29.8344 80.9038 32.3984 80.9038C34.9625 80.9038 37.4984 80.2197 39.7331 78.9264C40.1452 78.6891 40.3984 78.2478 40.3984 77.7732V74.2585C40.3984 72.0411 38.5452 70.2371 36.2664 70.2371ZM37.7317 76.9771C34.413 78.6303 30.3837 78.6303 27.065 76.9771V74.2585C27.065 73.5117 27.7223 72.9038 28.5303 72.9038H36.2663C37.0742 72.9038 37.7316 73.5117 37.7316 74.2585V76.9771H37.7317Z" fill="black"/>
<path d="M15.0652 18.2371C6.97844 18.2371 0.398438 24.8171 0.398438 32.9038C0.398438 40.9905 6.97844 47.5705 15.0652 47.5705C23.1519 47.5705 29.7319 40.9905 29.7319 32.9038C29.7317 24.8171 23.1517 18.2371 15.0652 18.2371ZM15.0652 44.9038C8.44781 44.9038 3.06516 39.5211 3.06516 32.9038C3.06516 26.2864 8.44781 20.9038 15.0652 20.9038C21.6825 20.9038 27.0652 26.2864 27.0652 32.9038C27.0652 39.5211 21.6825 44.9038 15.0652 44.9038Z" fill="black"/>
<path d="M15.0638 23.5706C12.1223 23.5706 9.73047 25.9626 9.73047 28.9038C9.73047 31.8451 12.1225 34.2371 15.0638 34.2371C18.0052 34.2371 20.397 31.8451 20.397 28.9038C20.397 25.9626 18.005 23.5706 15.0638 23.5706ZM15.0638 31.5706C13.5931 31.5706 12.397 30.3746 12.397 28.9038C12.397 27.4331 13.593 26.2371 15.0638 26.2371C16.5344 26.2371 17.7305 27.4331 17.7305 28.9038C17.7305 30.3746 16.5344 31.5706 15.0638 31.5706Z" fill="black"/>
<path d="M18.9305 36.9038H11.1945C8.91594 36.9038 7.0625 38.7079 7.0625 40.9238V44.4385C7.0625 44.9144 7.31578 45.3544 7.72781 45.5932C9.9625 46.8865 12.4984 47.5705 15.0625 47.5705C17.6266 47.5705 20.1625 46.8865 22.3972 45.5932C22.8092 45.3558 23.0625 44.9144 23.0625 44.4399V40.9252C23.0625 38.7079 21.2091 36.9038 18.9305 36.9038ZM20.3958 43.6438C17.0772 45.2971 13.0478 45.2971 9.72906 43.6438V40.9252C9.72906 40.1785 10.3864 39.5705 11.1944 39.5705H18.9303C19.7383 39.5705 20.3956 40.1785 20.3956 40.9252V43.6438H20.3958Z" fill="black"/>
<path d="M47.0651 0.903809C38.9784 0.903809 32.3984 7.48381 32.3984 15.5705C32.3984 23.6572 38.9784 30.2372 47.0651 30.2372C55.1519 30.2372 61.7319 23.6572 61.7319 15.5705C61.7317 7.48381 55.1517 0.903809 47.0651 0.903809ZM47.0651 27.5705C40.4478 27.5705 35.0652 22.1879 35.0652 15.5705C35.0652 8.95318 40.4478 3.57053 47.0651 3.57053C53.6825 3.57053 59.0651 8.95318 59.0651 15.5705C59.0651 22.1879 53.6825 27.5705 47.0651 27.5705Z" fill="black"/>
<path d="M47.0677 6.23706C44.1262 6.23706 41.7344 8.62909 41.7344 11.5703C41.7344 14.5116 44.1264 16.9036 47.0677 16.9036C50.0089 16.9036 52.4009 14.5117 52.4009 11.5705C52.4009 8.62925 50.0089 6.23706 47.0677 6.23706ZM47.0677 14.2371C45.597 14.2371 44.4009 13.0411 44.4009 11.5703C44.4009 10.0997 45.5969 8.90362 47.0677 8.90362C48.5384 8.90362 49.7344 10.0996 49.7344 11.5703C49.7342 13.0411 48.5383 14.2371 47.0677 14.2371Z" fill="black"/>
<path d="M50.9344 19.5706H43.1984C40.9198 19.5706 39.0664 21.3746 39.0664 23.5906V27.1052C39.0664 27.5812 39.3197 28.0212 39.7317 28.2599C41.9664 29.5532 44.5023 30.2373 47.0664 30.2373C49.6305 30.2373 52.1664 29.5532 54.4011 28.2599C54.8131 28.0226 55.0664 27.5812 55.0664 27.1066V23.592C55.0664 21.3745 53.213 19.5706 50.9344 19.5706ZM52.3997 26.3106C49.0811 27.9638 45.0517 27.9638 41.733 26.3106V23.592C41.733 22.8452 42.3903 22.2373 43.1983 22.2373H50.9342C51.7422 22.2373 52.3995 22.8452 52.3995 23.592V26.3106H52.3997Z" fill="black"/>
<path d="M34.747 14.7023C34.2685 14.145 33.427 14.0782 32.867 14.557L23.627 22.4637C23.067 22.9423 23.0017 23.7837 23.4803 24.3437C23.7444 24.6517 24.1177 24.8104 24.4936 24.8104C24.8003 24.8104 25.1083 24.7051 25.3603 24.489L34.6003 16.5823C35.1605 16.1037 35.2258 15.2623 34.747 14.7023Z" fill="black"/>
<path d="M64.1305 36.1051L56.1305 25.4384C55.6891 24.8478 54.8531 24.7317 54.2637 25.1717C53.6744 25.6131 53.5558 26.449 53.997 27.037L61.997 37.7037C62.2597 38.0531 62.6597 38.237 63.065 38.237C63.3423 38.237 63.6237 38.1502 63.8637 37.9703C64.4531 37.529 64.5719 36.6931 64.1305 36.1051Z" fill="black"/>
<path d="M53.1878 54.6466C52.7464 54.0572 51.9105 53.9386 51.3211 54.3798L43.8731 59.9652C43.2837 60.4066 43.1652 61.2425 43.6064 61.8305C43.8691 62.1798 44.2691 62.3638 44.6744 62.3638C44.953 62.3638 45.233 62.2758 45.4731 62.097L52.9211 56.5117C53.5105 56.0706 53.6292 55.2345 53.1878 54.6466Z" fill="black"/>
<path d="M19.0652 64.9038H9.73172C8.99578 64.9038 8.39844 65.4997 8.39844 66.2371C8.39844 66.9744 8.99578 67.5704 9.73172 67.5704H19.065C19.8009 67.5704 20.3983 66.9744 20.3983 66.2371C20.3983 65.4997 19.8011 64.9038 19.0652 64.9038Z" fill="black"/>
<path d="M15.0639 0.903809C12.1225 0.903809 9.73047 3.29584 9.73047 6.23709C9.73047 9.1785 12.1225 11.5704 15.0637 11.5704C18.0052 11.5704 20.397 9.17834 20.397 6.23709C20.3972 3.29584 18.0052 0.903809 15.0639 0.903809ZM15.0639 8.90381C13.5933 8.90381 12.3972 7.70787 12.3972 6.23709C12.3972 4.76646 13.5931 3.57037 15.0639 3.57037C16.5345 3.57037 17.7306 4.76631 17.7306 6.23709C17.7305 7.70787 16.5345 8.90381 15.0639 8.90381Z" fill="black"/>
<path d="M15.0637 8.90381C14.3278 8.90381 13.7305 9.49975 13.7305 10.2371V19.5704C13.7305 20.3077 14.3278 20.9037 15.0637 20.9037C15.7997 20.9037 16.397 20.3077 16.397 19.5704V10.2371C16.397 9.49975 15.7997 8.90381 15.0637 8.90381Z" fill="black"/>
</g>
<defs>
<clipPath id="clip0">
<rect width="80" height="80" fill="white" transform="translate(0.398438 0.903809)"/>
</clipPath>
</defs>
</svg>
