<svg width="74" height="73" viewBox="0 0 74 73" fill="none" xmlns="http://www.w3.org/2000/svg">
<path d="M26.2334 33.1306V35.8708C26.2334 37.4023 27.3886 38.6944 28.9289 38.8858L41.3559 40.4298L41.2904 33.1306H26.2334Z" fill="#C7E0E5"/>
<path d="M48.3855 33.1306H39.4106V43.877C39.4106 44.8169 39.7132 45.7325 40.2745 46.4919C40.8359 47.2513 41.1384 48.1669 41.1384 49.1068V52.3282H46.6576V49.1068C46.6576 48.1669 46.9601 47.2513 47.5214 46.4919C48.0828 45.7325 48.3853 44.8169 48.3853 43.877V33.1306H48.3855Z" fill="#DAEAEF"/>
<path d="M42.6381 20.9879L36.5363 22.086C35.3202 22.3049 34.1546 21.5099 33.9327 20.3102C33.7109 19.1105 34.5168 17.9607 35.7329 17.7418L41.8347 16.6437C43.0508 16.4248 44.2164 17.2198 44.4383 18.4195C44.6601 19.6191 43.8542 20.769 42.6381 20.9879Z" fill="#C7E0E5"/>
<path d="M26.2334 32.4338V35.8711C26.2334 37.4025 27.3886 38.6947 28.9289 38.8861L41.3559 40.43L41.2904 32.4338H26.2334Z" fill="#C7E0E5"/>
<path d="M48.3855 33.1309H39.4106V43.8773C39.4106 44.8171 39.7132 45.7328 40.2745 46.4921C40.8359 47.2515 41.1384 48.1672 41.1384 49.107V52.3284H46.6576V49.107C46.6576 48.1672 46.9601 47.2515 47.5214 46.4921C48.0828 45.7328 48.3853 44.8171 48.3853 43.8773V33.1309H48.3855Z" fill="#DAEAEF"/>
<path d="M17.1008 43.8462H12.7111C11.5528 43.8462 10.6138 42.9198 10.6138 41.7772C10.6138 40.6346 11.5528 39.7083 12.7111 39.7083H17.1008C18.259 39.7083 19.1981 40.6346 19.1981 41.7772C19.1981 42.9198 18.259 43.8462 17.1008 43.8462Z" fill="#C7E0E5"/>
<path d="M28.4877 8.83522L10.1528 4.11475L7.38269 14.5853C7.04073 15.8779 7.19321 17.2496 7.81123 18.4383L11.7642 26.0423L16.2193 27.1893L23.4349 22.4607C24.563 21.7214 25.3755 20.5983 25.7175 19.3056L28.4877 8.83522Z" fill="#DCF5FF"/>
<path d="M19.1524 6.43164L15.2815 20.8922C14.9395 22.1848 14.1269 23.308 12.9989 24.0473L11.3047 25.1576L11.7646 26.0421L16.2198 27.1892L23.4353 22.4606C24.5634 21.7213 25.376 20.5982 25.7179 19.3054L28.488 8.83494L19.1524 6.43164Z" fill="#C7EEFB"/>
<path d="M27.9161 10.6038L9.7754 5.93333C8.4366 5.58858 7.63445 4.23851 7.98393 2.9178C8.33341 1.5971 9.70197 0.805795 11.0408 1.15055L29.1815 5.82098C30.5203 6.16573 31.3224 7.51581 30.9729 8.83651C30.6234 10.1572 29.2549 10.9484 27.9161 10.6038Z" fill="#C7EEFB"/>
<path d="M29.1816 5.82086L22.399 4.07471L21.7808 6.41142C21.4243 7.75907 20.0306 8.56734 18.6643 8.22173L27.9162 10.6036C29.255 10.9484 30.6235 10.1571 30.973 8.83639C31.3224 7.51569 30.5204 6.16562 29.1816 5.82086Z" fill="#97E4F9"/>
<path d="M1.74951 28.4227V32.3662C1.74951 32.6019 1.93249 32.7983 2.17068 32.8181L10.6175 33.5213V27.2676L2.17068 27.9708C1.93263 27.9906 1.74951 28.1871 1.74951 28.4227Z" fill="#DAEAEF"/>
<path d="M10.5115 26.1008L7.08496 26.9133C6.74357 26.9943 6.50293 27.2956 6.50293 27.6419V33.147C6.50293 33.4934 6.74357 33.7946 7.08496 33.8755L10.5115 34.6881C11.233 34.8592 11.9724 34.9456 12.7144 34.9456H67.1605C69.3402 34.9456 71.1072 31.8869 71.1072 29.7366C71.1072 27.5864 69.3402 25.8433 67.1605 25.8433H12.7144C11.9724 25.8431 11.233 25.9297 10.5115 26.1008Z" fill="#EFF3F5"/>
<path d="M67.2732 24.8267H55.76C55.2083 24.8267 54.761 25.2679 54.761 25.8122V34.9768C54.761 35.521 55.2083 35.9623 55.76 35.9623H67.2732C70.022 35.9623 72.2504 32.4485 72.2504 29.7368C72.2506 27.0249 70.0222 24.8267 67.2732 24.8267Z" fill="#DAEAEF"/>
<path d="M67.273 24.8267H62.5693V32.7574C62.5693 34.5274 61.1148 35.9623 59.3206 35.9623H67.273C70.0218 35.9623 72.2502 32.4485 72.2502 29.7368C72.2503 27.0249 70.0219 24.8267 67.273 24.8267Z" fill="#C7E0E5"/>
<path d="M47.0279 49.5024H40.7684C40.0185 49.5024 39.4106 50.1021 39.4106 50.8418V52.6459C39.4106 53.3856 40.0185 53.9852 40.7684 53.9852H47.0279C47.7777 53.9852 48.3856 53.3856 48.3856 52.6459V50.8418C48.3856 50.102 47.7777 49.5024 47.0279 49.5024Z" fill="#C7E0E5"/>
<path d="M67.2732 23.7572H55.7598C54.9954 23.7572 54.3277 24.1667 53.9653 24.7738H50.857C50.2583 24.7738 49.7731 25.2524 49.7731 25.8431C49.7731 26.4338 50.2583 26.9124 50.857 26.9124H53.6768V33.8761H12.7147C12.0585 33.8761 11.4025 33.7994 10.7651 33.6482L7.58713 32.8946V27.8939L10.7651 27.1404C11.4029 26.9891 12.0588 26.9124 12.7147 26.9124H45.7899C46.3887 26.9124 46.8739 26.4338 46.8739 25.8431C46.8739 25.2524 46.3887 24.7738 45.7899 24.7738H41.2878L40.8483 22.397L42.8327 22.0398C44.6387 21.7149 45.8344 20.0098 45.5046 18.2276C45.1755 16.4458 43.4476 15.2672 41.6403 15.5917L35.5383 16.6899C33.7362 17.0142 32.5376 18.7243 32.8665 20.5021C33.1952 22.2801 34.9209 23.4637 36.731 23.138L38.7157 22.7808L39.0842 24.7738H21.8642L24.0348 23.3513C25.3866 22.4656 26.3567 21.1246 26.7666 19.5755L28.8389 11.742C30.2975 11.6263 31.6202 10.6234 32.0217 9.10627C32.5225 7.21298 31.3748 5.28033 29.455 4.78616L11.3144 0.115868C9.3955 -0.378308 7.43609 0.75362 6.93515 2.64748C6.54015 4.14056 7.17709 5.66344 8.40677 6.48027L6.3339 14.3151C5.92401 15.8639 6.10626 17.5016 6.8467 18.9263L10.0603 25.108L6.83152 25.8735C6.37943 25.9808 6.00263 26.2453 5.75173 26.5993L2.07977 26.905C1.28672 26.9709 0.665527 27.6376 0.665527 28.4226V32.3659C0.665527 33.1638 1.27328 33.8162 2.07948 33.8835L5.75173 34.1893C6.00263 34.5434 6.37957 34.808 6.83181 34.9151L10.2584 35.7276C11.0615 35.9181 11.8879 36.0148 12.7147 36.0148H13.8221V38.6388H12.7112C10.9569 38.6388 9.52977 40.0466 9.52977 41.7772C9.52977 43.5077 10.9569 44.9155 12.7112 44.9155H17.1009C18.8552 44.9155 20.2823 43.5077 20.2823 41.7772C20.2823 40.0466 18.8552 38.6388 17.1009 38.6388H15.99V36.0148H25.1527C25.2236 38.0173 26.7644 39.6948 28.7933 39.9468L38.3266 41.1312V43.8771C38.3266 45.0512 38.6973 46.1733 39.3987 47.1222C39.716 47.5515 39.9218 48.0388 40.0079 48.5541C39.0331 48.8703 38.3266 49.7755 38.3266 50.8417V52.6456C38.3266 53.9738 39.4219 55.0542 40.7682 55.0542H42.8139V66.9612C42.8139 70.2908 45.56 72.9998 48.9352 72.9998C52.3105 72.9998 55.0565 70.2908 55.0565 66.9612V51.1754C55.0565 48.8358 56.986 46.9324 59.3577 46.9324C61.7293 46.9324 63.6588 48.8358 63.6588 51.1754V71.9011C63.6588 72.4918 64.1439 72.9704 64.7427 72.9704C65.3415 72.9704 65.8267 72.4918 65.8267 71.9011V51.1754C65.8267 47.6565 62.9247 44.7937 59.3577 44.7937C55.7906 44.7937 52.8886 47.6565 52.8886 51.1754V66.9613C52.8886 69.1118 51.1152 70.8613 48.9352 70.8613C46.7552 70.8613 44.9818 69.1118 44.9818 66.9613V55.0544H47.0277C48.374 55.0544 49.4692 53.9739 49.4692 52.6458V50.8419C49.4692 49.7757 48.7628 48.8705 47.7879 48.5542C47.8741 48.0389 48.08 47.5516 48.3973 47.1223C49.0987 46.1736 49.4694 45.0515 49.4694 43.8772V36.0149H53.9653C54.3277 36.6221 54.9954 37.0316 55.7598 37.0316H67.2732C70.6307 37.0316 73.3344 33.0409 73.3344 29.7366C73.3344 26.4395 70.6153 23.7572 67.2732 23.7572ZM36.3419 21.0342C35.7113 21.1471 35.1131 20.7349 34.9991 20.1184C34.8849 19.5006 35.3013 18.9065 35.9274 18.7937L42.0292 17.6956C42.6565 17.5834 43.2573 17.9916 43.3719 18.6114C43.4865 19.2313 43.0703 19.8233 42.4436 19.9361L36.3419 21.0342ZM8.43148 14.855L10.4533 7.21284L11.8742 7.57869C12.4535 7.72826 13.0455 7.3855 13.1967 6.81405C13.3479 6.24259 13.0008 5.65859 12.4216 5.50946L10.0491 4.89865C9.29072 4.70332 8.83487 3.93582 9.03273 3.18771C9.23002 2.44203 10.0022 1.98892 10.767 2.18525L28.9077 6.85554C29.6675 7.05101 30.1224 7.81623 29.924 8.56619C29.7263 9.31415 28.9522 9.76498 28.1901 9.56908C28.1898 9.56908 28.1895 9.56894 28.1892 9.56894L17.3245 6.77184C16.7455 6.62285 16.1531 6.96489 16.002 7.53649C15.8508 8.10794 16.1979 8.69194 16.7771 8.84108L26.6905 11.3934L24.6688 19.0357C24.3938 20.0755 23.7425 20.9755 22.8352 21.57L17.9461 24.7739H12.7147C12.5855 24.7739 12.4564 24.777 12.3273 24.7819L8.7759 17.9505C8.27871 16.9941 8.15644 15.8948 8.43148 14.855ZM2.8335 28.9885L5.41916 28.7732V32.0153L2.8335 31.8V28.9885ZM18.1144 41.7772C18.1144 42.3284 17.6598 42.7768 17.1009 42.7768H12.7112C12.1524 42.7768 11.6977 42.3284 11.6977 41.7772C11.6977 41.226 12.1523 40.7774 12.7112 40.7774H17.1009C17.6597 40.7774 18.1144 41.226 18.1144 41.7772ZM29.0642 37.8249C28.1169 37.7073 27.3928 36.9414 27.324 36.0149H38.3265V38.9757L29.0642 37.8249ZM47.3014 52.6456C47.3014 52.7945 47.1786 52.9157 47.0277 52.9157H40.7682C40.6173 52.9157 40.4944 52.7945 40.4944 52.6456V50.8417C40.4944 50.6927 40.6173 50.5716 40.7682 50.5716H47.0277C47.1786 50.5716 47.3014 50.6927 47.3014 50.8417V52.6456ZM47.3014 43.8771C47.3014 44.5953 47.0747 45.2818 46.6457 45.8619C46.0799 46.6273 45.7297 47.5056 45.6152 48.4329H42.1807C42.0662 47.5056 41.716 46.6274 41.1503 45.8621C40.7214 45.2818 40.4946 44.5953 40.4946 43.8771V36.0148H47.3014V43.8771ZM67.2732 34.8928H55.8448V25.8958H67.2732C69.4199 25.8958 71.1664 27.6188 71.1664 29.7365C71.1664 31.9879 69.2786 34.8928 67.2732 34.8928Z" fill="black"/>
</svg>
