<svg width="81" height="80" viewBox="0 0 81 80" fill="none" xmlns="http://www.w3.org/2000/svg">
<g clip-path="url(#clip0)">
<path d="M78.8493 55.812H74.1227C73.4755 55.812 72.9509 56.3366 72.9509 56.9839C72.9509 57.6312 73.4755 58.1558 74.1227 58.1558H77.6774V77.6562H60.639L60.6385 58.1558H69.0151C69.6623 58.1558 70.187 57.6312 70.187 56.9839C70.187 56.3366 69.6623 55.812 69.0151 55.812H65.4791V44.85C65.4791 43.4827 64.6937 42.2188 63.4724 41.6111L55.7541 36.9116V34.065C55.7541 33.4177 55.2295 32.8931 54.5823 32.8931C53.9351 32.8931 53.4104 33.4177 53.4104 34.065V36.398H46.0463V25.4542C46.0463 24.8069 45.5216 24.2823 44.8745 24.2823H43.4604C43.1495 24.2823 42.8515 24.4059 42.6316 24.6256L38.4957 28.7631C38.3996 28.8592 38.288 28.9394 38.1645 29.0011L33.5401 31.3138V28.4661L36.6705 26.9006C36.7832 26.8444 36.886 26.7702 36.9751 26.6812L41.547 22.1092C41.788 21.8681 42.108 21.7352 42.4466 21.7352L59.4654 21.7539C60.1804 21.6875 60.5713 21.2969 60.6385 20.582V15.7258C60.6385 15.0375 61.1985 14.4775 61.887 14.4775C62.5754 14.4775 63.1354 15.0375 63.1354 15.7258V22.1541C63.0732 23.3648 62.3701 24.068 61.026 24.2634H54.5823C53.9351 24.2634 53.4104 24.788 53.4104 25.4353V28.9587C53.4104 29.6061 53.9351 30.1306 54.5823 30.1306C55.2295 30.1306 55.7541 29.6061 55.7541 28.9587V26.6072H61.026C63.3693 26.6072 65.4791 24.5092 65.4791 22.1541V15.7258C65.4791 14.1555 64.4659 12.8183 63.0591 12.3311V9.62406H67.9704V13.3056C67.9704 13.953 68.4951 14.4775 69.1423 14.4775H73.9957C74.6429 14.4775 75.1676 13.953 75.1676 13.3056V8.45219C75.1676 7.80484 74.6429 7.28031 73.9957 7.28031H70.3141V3.59859C70.3141 2.95125 69.7895 2.42672 69.1423 2.42672H63.0591V1.17188C63.0591 0.524531 62.5345 0 61.8873 0C61.2401 0 60.7154 0.524531 60.7154 1.17188V12.3311C59.3084 12.818 58.2948 14.1555 58.2948 15.7259V19.4091L53.8607 19.4042C54.2916 18.6834 54.5402 17.8416 54.5402 16.9425V14.5158C54.5402 11.8625 52.3816 9.70375 49.7282 9.70375C47.0748 9.70375 44.9162 11.8623 44.9162 14.5158V16.9425C44.9162 17.8378 45.1627 18.6763 45.5904 19.395L42.4477 19.3916C41.4818 19.3916 40.5732 19.7683 39.8895 20.452L35.4521 24.8894L27.033 29.0995L19.8884 29.1077C20.318 28.3877 20.5659 27.547 20.5659 26.6492V24.2225C20.5659 21.5692 18.4073 19.4105 15.7538 19.4105C13.1005 19.4105 10.942 21.5691 10.942 24.2225V26.6492C10.942 27.5508 11.1916 28.395 11.6249 29.117L10.826 29.118C7.5443 29.118 4.87445 31.7872 4.87445 35.068V48.8492C4.87445 51.6583 7.16617 53.2278 9.72852 53.3027V70.4039H1.19336C0.546172 70.4039 0.0214844 70.9284 0.0214844 71.5758V78.8275C0.0214844 79.4748 0.546172 79.9994 1.19336 79.9994L78.8493 80C79.4965 80 80.0212 79.4755 80.0212 78.8281V56.9839C80.0212 56.3367 79.4965 55.812 78.8493 55.812ZM72.8237 12.1336H70.314V9.62406H72.8237V12.1336ZM67.9702 4.77047V7.28031H63.059V4.77047H67.9702ZM47.2599 16.9427V14.5158C47.2599 13.1548 48.3671 12.0475 49.7282 12.0475C51.0893 12.0475 52.1965 13.1548 52.1965 14.5158V16.9425C52.1963 20.0595 47.2599 20.1733 47.2599 16.9427ZM58.2946 60.6653H50.8999V43.6538L58.2444 47.1378L58.2946 60.6653ZM54.2529 38.7417C54.2529 38.7417 62.3709 43.682 62.4074 43.6994C62.8496 43.9091 63.1352 44.3606 63.1352 44.8498V55.8117H60.5882V46.3964C60.5882 45.9439 60.3276 45.5316 59.9185 45.3377L50.2302 40.7419C49.2398 40.3072 48.5496 40.7369 48.5562 41.8006V60.665H46.0465V38.7417H54.2529ZM13.2855 26.6495V24.2228C13.2855 22.8619 14.3927 21.7545 15.7538 21.7545C17.1148 21.7545 18.222 22.8619 18.222 24.2228V26.6495C18.222 29.7555 13.2855 29.8895 13.2855 26.6495ZM7.21805 48.8495V35.0683C7.21805 33.0797 8.83648 31.462 10.8273 31.462L27.3116 31.4433C27.493 31.4431 27.6721 31.4008 27.8345 31.3195L31.1963 29.6384V32.4861L28.4585 33.8553C28.2809 33.9436 28.0834 33.9903 27.887 33.9903H20.6073C19.9601 33.9903 19.4354 34.5148 19.4354 35.1622V38.57C19.4354 39.2173 19.9601 39.7419 20.6073 39.7419C21.2545 39.7419 21.7791 39.2173 21.7791 38.57V36.3341H27.887C28.4438 36.3341 29.0026 36.2023 29.5048 35.9525L39.2127 31.0978C39.5623 30.9231 39.8787 30.6952 40.1534 30.4205L43.7027 26.8697L43.703 60.6655H40.0213C39.3741 60.6655 38.8495 61.19 38.8495 61.8373V65.5191H31.5048V54.5573C31.5048 53.1898 30.7193 51.9259 29.4979 51.3184L21.7791 46.6184V43.6763C21.7791 43.0289 21.2545 42.5044 20.6073 42.5044C19.9601 42.5044 19.4354 43.0289 19.4354 43.6763V46.1044H12.0721V37.5247C12.0721 36.8773 11.5474 36.3528 10.9002 36.3528C10.253 36.3528 9.72836 36.8773 9.72836 37.5247V50.9595C8.26336 50.9519 7.21289 50.5027 7.21805 48.8495ZM25.9443 55.0447L16.256 50.4491C15.2751 50.0534 14.5915 50.5222 14.582 51.5078V70.3722H12.0721L12.0726 48.4484H20.2785C20.2785 48.4484 28.3965 53.3889 28.4332 53.4062C28.8752 53.6159 29.1609 54.0673 29.1609 54.5567V65.5184H26.6138V56.1031C26.6138 55.6509 26.3532 55.2386 25.9443 55.0447ZM16.9257 53.3608L24.2702 56.8447V65.5189H20.6073C19.9601 65.5189 19.4354 66.0434 19.4354 66.6908V70.4044H16.9255V53.3608H16.9257ZM2.36523 72.748H19.4354V77.6559H2.36523V72.748ZM21.7791 67.8625H38.8493V77.6559H21.7791V67.8625ZM41.193 63.0091H58.2946V77.6559H41.193V63.0091Z" fill="black"/>
</g>
<defs>
<clipPath id="clip0">
<rect width="80" height="80" fill="white" transform="translate(0.0214844)"/>
</clipPath>
</defs>
</svg>
