<svg width="66" height="65" viewBox="0 0 66 65" fill="none" xmlns="http://www.w3.org/2000/svg">
<g clip-path="url(#clip0)">
<path d="M52.29 7.70119H50.9471C50.4203 5.67403 48.5966 4.16876 46.4033 4.16876H40.0106C38.661 1.69938 36.0688 0 33.0617 0C30.0549 0 27.4621 1.70164 26.1124 4.16876H19.7197C17.5249 4.16876 15.7024 5.67365 15.1748 7.70119H13.8331C11.2334 7.70119 9.12354 9.8122 9.12354 12.4104V60.2908C9.12354 62.8916 11.2334 65.0004 13.8331 65.0004H52.29C54.8885 65.0004 56.9995 62.8916 56.9995 60.2908V12.4104C56.9991 9.80616 54.8926 7.70119 52.29 7.70119ZM33.0617 4.55962C34.931 4.55962 36.4465 6.07621 36.4465 7.94704C36.4465 9.81635 34.931 11.3318 33.0617 11.3318C31.192 11.3318 29.6754 9.81409 29.6754 7.94704C29.6754 6.07999 31.1916 4.55962 33.0617 4.55962ZM19.3757 49.6924C18.0732 49.6924 17.0211 48.6392 17.0211 47.3374C17.0211 46.0361 18.0732 44.9832 19.3757 44.9832C20.6808 44.9832 21.7303 46.0361 21.7303 47.3374C21.7306 48.6392 20.6763 49.6924 19.3757 49.6924ZM19.3757 37.9187C18.0732 37.9187 17.0211 36.8655 17.0211 35.5642C17.0211 34.2624 18.0732 33.2096 19.3757 33.2096C20.6808 33.2096 21.7303 34.2624 21.7303 35.5642C21.7306 36.8655 20.6763 37.9187 19.3757 37.9187ZM19.3757 26.1451C18.0732 26.1451 17.0211 25.0907 17.0211 23.7905C17.0211 22.4892 18.0732 21.4359 19.3757 21.4359C20.6808 21.4359 21.7303 22.4892 21.7303 23.7905C21.7306 25.0907 20.6763 26.1451 19.3757 26.1451ZM47.7942 49.6924H27.1158C25.8107 49.6924 24.7612 48.6392 24.7612 47.3374C24.7612 46.0361 25.811 44.9832 27.1158 44.9832H47.7942C49.0982 44.9832 50.1487 46.0361 50.1487 47.3374C50.1491 48.6392 49.0982 49.6924 47.7942 49.6924ZM47.7942 37.9187H27.1158C25.8107 37.9187 24.7612 36.8655 24.7612 35.5642C24.7612 34.2624 25.811 33.2096 27.1158 33.2096H47.7942C49.0982 33.2096 50.1487 34.2624 50.1487 35.5642C50.1491 36.8655 49.0982 37.9187 47.7942 37.9187ZM47.7942 26.1451H27.1158C25.8107 26.1451 24.7612 25.0907 24.7612 23.7905C24.7612 22.4892 25.811 21.4359 27.1158 21.4359H47.7942C49.0982 21.4359 50.1487 22.4892 50.1487 23.7905C50.1491 25.0907 49.0982 26.1451 47.7942 26.1451Z" fill="#005ca9"/>
</g>
<defs>
<clipPath id="clip0">
<rect width="65" height="65" fill="white" transform="translate(0.561035)"/>
</clipPath>
</defs>
</svg>
