<svg width="73" height="73" viewBox="0 0 73 73" fill="none" xmlns="http://www.w3.org/2000/svg">
<g clip-path="url(#clip0)">
<path d="M14.3975 58.6335H45.3941V63.0616H14.3975V58.6335Z" fill="#F9D264"/>
<path d="M14.3975 40.9153H45.3941V45.3433H14.3975V40.9153Z" fill="#F9D264"/>
<path d="M14.3975 32.0591H45.3941V36.4871H14.3975V32.0591Z" fill="#F9D264"/>
<path d="M14.3977 49.7715H45.3944V54.1995H14.3977V49.7715Z" fill="#F9D264"/>
<path d="M14.3975 67.5029H45.3941V71.931H14.3975V67.5029Z" fill="#F9D264"/>
<path d="M14.3979 58.6333H17.2491V63.0611H14.3979V58.6333Z" fill="#EFC356"/>
<path d="M14.3979 40.9153H17.2491V45.3431H14.3979V40.9153Z" fill="#EFC356"/>
<path d="M14.3979 32.0598H17.2491V36.4876H14.3979V32.0598Z" fill="#EFC356"/>
<path d="M14.3979 49.7708H17.2491V54.1999H14.3979V49.7708Z" fill="#EFC356"/>
<path d="M14.3979 67.5032H17.2491V71.9309H14.3979V67.5032Z" fill="#EFC356"/>
<path d="M40.1779 8.9431L31.3218 1.58354C30.4952 0.896705 29.2965 0.896562 28.47 1.58354L19.6137 8.9431C18.6661 9.73057 18.5363 11.1373 19.3238 12.0849C19.765 12.6159 20.4005 12.89 21.0408 12.89C21.5433 12.89 22.0488 12.7211 22.4655 12.3748L27.6818 8.04001V32.065H32.1098V8.04015L37.3259 12.3748C38.2735 13.1624 39.6802 13.0326 40.4677 12.0849C41.2553 11.1373 41.1255 9.73057 40.1779 8.9431Z" fill="#AEE69C"/>
<path d="M9.96948 54.2056H40.9661V58.6336H9.96948V54.2056Z" fill="#FFF292"/>
<path d="M9.96948 45.3433H40.9661V49.7713H9.96948V45.3433Z" fill="#FFF292"/>
<path d="M9.96948 36.4773H40.9661V40.9053H9.96948V36.4773Z" fill="#FFF292"/>
<path d="M9.96948 63.0618H40.9661V67.4898H9.96948V63.0618Z" fill="#FFF292"/>
<path d="M9.96997 54.2058H12.8211V58.6336H9.96997V54.2058Z" fill="#F9E77D"/>
<path d="M9.96997 45.343H12.8211V49.7708H9.96997V45.343Z" fill="#F9E77D"/>
<path d="M9.96997 36.4775H12.8211V40.9053H9.96997V36.4775Z" fill="#F9E77D"/>
<path d="M9.96997 63.0613H12.8211V67.4905H9.96997V63.0613Z" fill="#F9E77D"/>
<path d="M47.6083 71.9197C56.1798 71.9197 63.1284 64.9711 63.1284 56.3995C63.1284 47.828 56.1798 40.8794 47.6083 40.8794C39.0367 40.8794 32.0881 47.828 32.0881 56.3995C32.0881 64.9711 39.0367 71.9197 47.6083 71.9197Z" fill="#FFF292"/>
<path d="M34.9395 56.3995C34.9395 48.3087 41.1307 41.6639 49.0341 40.9441C48.5646 40.9013 48.0891 40.8794 47.6085 40.8794C39.0369 40.8794 32.0884 47.828 32.0884 56.3995C32.0884 64.9711 39.0369 71.9197 47.6085 71.9197C48.0891 71.9197 48.5646 71.8977 49.0341 71.8549C41.1307 71.1353 34.9395 64.4905 34.9395 56.3995Z" fill="#F9E77D"/>
<path d="M47.5869 67.4789C53.7008 67.4789 58.6572 62.5226 58.6572 56.4087C58.6572 50.2947 53.7008 45.3384 47.5869 45.3384C41.4729 45.3384 36.5166 50.2947 36.5166 56.4087C36.5166 62.5226 41.4729 67.4789 47.5869 67.4789Z" fill="#F9D264"/>
<path d="M39.3677 56.4085C39.3677 50.7776 43.5718 46.1287 49.0124 45.4293C48.5457 45.3693 48.0699 45.3384 47.5869 45.3384C41.473 45.3384 36.5166 50.2947 36.5166 56.4087C36.5166 62.5226 41.473 67.4789 47.5869 67.4789C48.0699 67.4789 48.5457 67.448 49.0124 67.388C43.5718 66.6883 39.3677 62.0394 39.3677 56.4085Z" fill="#EFC356"/>
<path d="M63.1495 57.0849C62.5628 57.0196 62.0337 57.4415 61.968 58.0284C61.149 65.3382 54.9761 70.8506 47.6089 70.8506C39.6399 70.8506 33.1566 64.368 33.1566 56.3997C33.1566 48.4315 39.6399 41.9489 47.6089 41.9489C54.5436 41.9489 60.5138 46.8853 61.8047 53.6866C61.9149 54.2667 62.4748 54.6473 63.0544 54.5377C63.6345 54.4276 64.0155 53.868 63.9055 53.2879C62.4233 45.4786 55.5696 39.8104 47.6089 39.8104C46.9853 39.8104 42.0352 39.8461 42.0352 39.8461V37.5564H45.3941C45.9846 37.5564 46.4633 37.0776 46.4633 36.4872V32.0591C46.4633 31.4687 45.9846 30.99 45.3941 30.99H33.1794V10.3189L36.6422 13.1958C38.31 14.3378 39.8596 14.1951 41.291 12.7677C42.4525 11.3684 42.2596 9.28379 40.8607 8.12054L32.0052 0.761833C30.7829 -0.253873 29.0085 -0.254016 27.786 0.761833L18.9296 8.12154C17.527 9.79513 17.384 11.344 18.5009 12.7683C19.9916 14.1982 21.5409 14.3409 23.1488 13.1962L26.6119 10.3187V18.0452C26.6119 18.6357 27.0906 19.1144 27.6811 19.1144C28.2715 19.1144 28.7502 18.6357 28.7502 18.0452V8.04071C28.5144 7.02429 27.9304 6.75015 26.9979 7.2183L21.7811 11.5526C20.7236 12.4325 19.016 10.8324 20.2973 9.76534L29.1528 2.40649C29.5835 2.04868 30.2084 2.04896 30.6386 2.40649L39.494 9.7652C40.8748 10.9133 38.9562 12.34 38.0098 11.552L32.7937 7.2183C31.8612 6.75015 31.277 7.02429 31.0412 8.04071V30.99H28.7504V22.7052C28.7504 22.1148 28.2717 21.6361 27.6812 21.6361C27.0907 21.6361 26.612 22.1148 26.612 22.7052V30.99H14.3975C13.807 30.99 13.3283 31.4687 13.3283 32.0591V35.408H9.96956C9.37909 35.408 8.90039 35.8867 8.90039 36.4772V40.9053C8.90039 41.4957 9.37909 41.9744 9.96956 41.9744H13.3286V44.2738H9.96998C9.37952 44.2738 8.90082 44.7525 8.90082 45.343V49.7708C8.90082 50.3612 9.37952 50.8399 9.96998 50.8399H13.3286V53.1365H9.96998C9.37952 53.1365 8.90082 53.6152 8.90082 54.2057V58.6334C8.90082 59.2239 9.37952 59.7026 9.96998 59.7026H13.3286V61.992H9.96998C9.37952 61.992 8.90082 62.4707 8.90082 63.0612V67.4904C8.90082 68.0809 9.37952 68.5596 9.96998 68.5596H13.3286V71.931C13.3286 72.5215 13.8073 73.0001 14.3978 73.0001C14.3978 73.0001 47.0155 72.9887 47.6089 72.9887C56.0661 72.9887 63.1527 66.6596 64.093 58.2664C64.1588 57.6796 63.7364 57.1506 63.1495 57.0849ZM15.4666 33.1283H44.325V35.418L15.4666 35.408V33.1283ZM11.0387 37.5464L39.897 37.5564V39.8361H11.0387V37.5464ZM15.4671 41.9844H39.4058C38.2818 42.6265 37.2402 43.3964 36.2999 44.2738H15.4671V41.9844ZM11.0393 46.4122H34.371C33.8266 47.1319 33.3398 47.8974 32.9165 48.7016H11.0393V46.4122ZM11.0393 55.2748H19.7537C20.3442 55.2748 20.8229 54.7961 20.8229 54.2057C20.8229 54.2047 20.8227 54.2038 20.8227 54.2028C20.8227 54.2018 20.8229 54.201 20.8229 54.2C20.8229 53.6095 20.3442 53.1308 19.7537 53.1308H15.4671V50.8399H31.978C31.7135 51.5809 31.5001 52.3457 31.3426 53.1308H24.4138C23.8234 53.1308 23.3447 53.6095 23.3447 54.2C23.3447 54.7904 23.8234 55.2691 24.4138 55.2691H31.0576C31.0044 56.0342 31.0052 56.7993 31.0598 57.5643H11.0393V55.2748ZM15.4671 59.7026H31.3491C31.5084 60.4872 31.7235 61.2516 31.9895 61.992H15.4671V59.7026ZM11.0393 64.1304H32.9339C33.3597 64.9354 33.8497 65.7012 34.3973 66.4212H11.0393V64.1304ZM15.4671 70.8618V68.5724H36.3504C37.3008 69.452 38.354 70.2218 39.4899 70.8618H15.4671Z" fill="black"/>
<path d="M47.5869 44.2693C40.8933 44.2693 35.4475 49.715 35.4475 56.4086C35.4475 63.1023 40.8933 68.548 47.5869 68.548C54.2806 68.548 59.7264 63.1023 59.7264 56.4086C59.7262 49.7149 54.2806 44.2693 47.5869 44.2693ZM47.5869 66.4097C42.0723 66.4097 37.5858 61.9232 37.5858 56.4086C37.5858 50.894 42.0723 46.4076 47.5869 46.4076C53.1015 46.4076 57.588 50.8941 57.588 56.4086C57.5879 61.9232 53.1015 66.4097 47.5869 66.4097Z" fill="black"/>
<path d="M48.1949 55.482H46.9787C46.3475 55.482 45.8339 54.9683 45.8339 54.3371C45.8339 53.7059 46.3475 53.1922 46.9787 53.1922H48.0653C48.4797 53.1922 48.8381 53.459 48.9573 53.8558C49.1269 54.4214 49.7231 54.7427 50.2886 54.5726C50.8541 54.403 51.1751 53.8068 51.0054 53.2413C50.6708 52.1262 49.7624 51.3252 48.656 51.1121V49.7882C48.656 49.1977 48.1773 48.719 47.5869 48.719C46.9964 48.719 46.5177 49.1977 46.5177 49.7882V51.0868C44.925 51.3118 43.6956 52.6832 43.6956 54.3371C43.6956 56.1474 45.1684 57.6203 46.9787 57.6203H48.1949C48.8261 57.6203 49.3397 58.1339 49.3397 58.7652C49.3397 59.3964 48.8261 59.91 48.1949 59.91H46.8232C46.4088 59.91 46.0504 59.6433 45.9313 59.2464C45.7616 58.6808 45.1656 58.36 44.5999 58.5297C44.0344 58.6993 43.7134 59.2955 43.8832 59.861C44.2461 61.0706 45.2838 61.9116 46.5176 62.032V63.314C46.5176 63.9044 46.9963 64.3831 47.5867 64.3831C48.1772 64.3831 48.6559 63.9044 48.6559 63.314V62.0154C50.2487 61.7905 51.4781 60.4191 51.4781 58.7652C51.4781 56.9547 50.0053 55.482 48.1949 55.482Z" fill="black"/>
</g>
<defs>
<clipPath id="clip0">
<rect width="73" height="73" fill="white"/>
</clipPath>
</defs>
</svg>
