<svg width="73" height="73" viewBox="0 0 73 73" fill="none" xmlns="http://www.w3.org/2000/svg">
<g clip-path="url(#clip0)">
<path d="M47.4765 67.8217V71.8316H24.7935V67.8217C24.7935 62.6334 29.0014 58.4255 34.1896 58.4255H38.079C43.2686 58.4255 47.4765 62.6334 47.4765 67.8217Z" fill="#BED8FB"/>
<path d="M39.1812 58.4905C34.5094 59.0333 30.8858 63.0044 30.8858 67.8215V71.8314H24.7935V67.8215C24.7935 62.632 29.0014 58.4241 34.1896 58.4241H38.079C38.4514 58.4241 38.8197 58.4462 39.1812 58.4905Z" fill="#9DC6FB"/>
<path d="M33.5012 63.4433V65.2672C33.5012 66.7213 34.6806 67.9006 36.1346 67.9006C36.8609 67.9006 37.5201 67.6062 37.9961 67.1285C38.4738 66.6526 38.7682 65.9933 38.7682 65.267V61.9482" fill="#E28086"/>
<path d="M36.2144 55.4863H30.9482V61.8282C30.9482 63.2824 32.1271 64.4613 33.5814 64.4613C35.0355 64.4613 36.2145 63.2825 36.2145 61.8282V55.4863H36.2144Z" fill="#D3EFFB"/>
<path d="M41.4807 55.4863H36.2146V61.8282C36.2146 63.2824 37.3934 64.4613 38.8477 64.4613C40.3019 64.4613 41.4809 63.2825 41.4809 61.8282V55.4863H41.4807Z" fill="#D3EFFB"/>
<path d="M45.5178 22.9863C43.8394 22.9863 42.3738 23.8943 41.5828 25.2452C39.7313 22.3507 36.4912 20.4302 32.8003 20.4302C27.045 20.4302 22.3794 25.0958 22.3794 30.8511V42.9433H40.9602V45.4994H50.0755V27.544C50.0755 25.0269 48.0349 22.9863 45.5178 22.9863Z" fill="#6C6570"/>
<path d="M37.3561 21.4774C36.3096 21.9874 35.3606 22.6688 34.5461 23.4834C32.6599 25.3695 31.4936 27.974 31.4936 30.8521V42.9436H22.3792V30.8521C22.3792 27.9741 23.5454 25.3695 25.4316 23.4834C27.3163 21.5972 29.9222 20.4309 32.8003 20.4309C34.4338 20.4308 35.98 20.8077 37.3561 21.4774Z" fill="#545058"/>
<path d="M48.5344 48.2904H23.7355C21.7442 48.2904 20.1299 46.6762 20.1299 44.6848C20.1299 42.6934 21.7442 41.0791 23.7355 41.0791H48.5344C50.5258 41.0791 52.1401 42.6934 52.1401 44.6848C52.1401 46.676 50.5258 48.2904 48.5344 48.2904Z" fill="#EAAC9D"/>
<path d="M46.5741 36.4598V49.4346C46.5741 55.1904 41.9704 59.9614 36.2148 60.0043C30.4132 60.0476 25.6963 55.3573 25.6963 49.5656V36.4597C25.6963 36.431 25.6964 36.4023 25.6966 36.3737C25.723 33.0975 29.2682 31.0865 32.1338 32.6745C33.3195 33.3315 34.6837 33.7056 36.1353 33.7056C39.3836 33.7056 42.1953 31.8322 43.5449 29.1062C45.4168 30.9924 46.5741 33.5906 46.5741 36.4598Z" fill="#FFDDCE"/>
<path d="M39.2036 59.5383C38.2585 59.8346 37.2557 59.9961 36.215 60.0046C30.4134 60.048 25.696 55.3574 25.696 49.5656V36.3741C25.7213 33.2016 29.0469 31.2158 31.86 32.5345V49.5657C31.86 54.2535 34.9497 58.2182 39.2036 59.5383Z" fill="#FFCBBE"/>
<path d="M38.6662 70.4317V71.8315H33.604V70.4317C33.604 69.0346 34.7366 67.9006 36.1351 67.9006C36.8343 67.9006 37.4657 68.1845 37.924 68.6428C38.3838 69.101 38.6662 69.7325 38.6662 70.4317Z" fill="#E28086"/>
<path d="M38.0989 2.12446L39.0908 4.13438C39.3504 4.66064 39.8524 5.02535 40.4332 5.10961L42.6513 5.43198C44.1135 5.64442 44.6975 7.44162 43.6393 8.47303L42.0343 10.0375C41.6141 10.4472 41.4224 11.0373 41.5216 11.6156L41.9004 13.8247C42.1502 15.2811 40.6215 16.3918 39.3136 15.7042L37.3297 14.6612C36.8103 14.3882 36.1898 14.3882 35.6703 14.6612L33.6864 15.7042C32.3783 16.3918 30.8498 15.2811 31.0996 13.8247L31.4784 11.6156C31.5776 11.0373 31.3859 10.4472 30.9657 10.0375L29.3607 8.47303C28.3025 7.44162 28.8865 5.64442 30.3487 5.43198L32.5668 5.10961C33.1476 5.02521 33.6496 4.66049 33.9092 4.13438L34.9011 2.12446C35.5553 0.799335 37.4449 0.799335 38.0989 2.12446Z" fill="#FFE07D"/>
<path d="M37.5191 1.44419C37.283 1.60702 37.0808 1.83329 36.9377 2.12401L35.9465 4.13379C35.6864 4.65947 35.1847 5.02447 34.6034 5.1086L32.3859 5.43096C30.9236 5.64412 30.3389 7.44074 31.3979 8.47244L33.0022 10.0364C33.423 10.4461 33.6143 11.0364 33.5148 11.6146L33.1367 13.8244C33.0076 14.5719 33.3487 15.2288 33.8886 15.5971L33.6876 15.703C32.3804 16.3915 30.8516 15.28 31.1008 13.8244L31.4801 11.6146C31.5796 11.0364 31.3871 10.4463 30.9675 10.0364L29.3621 8.47244C28.3041 7.44074 28.8877 5.64398 30.35 5.43096L32.5685 5.1086C33.1488 5.02447 33.6515 4.65947 33.9106 4.13379L34.9029 2.12401C35.4132 1.08803 36.6787 0.861763 37.5191 1.44419Z" fill="#FFD064"/>
<path d="M10.3479 8.09784L11.3398 10.1078C11.5994 10.634 12.1015 10.9987 12.6822 11.083L14.9003 11.4054C16.3625 11.6178 16.9465 13.415 15.8883 14.4464L14.2833 16.0109C13.8632 16.4206 13.6714 17.0107 13.7706 17.589L14.1494 19.7981C14.3992 21.2545 12.8705 22.3652 11.5627 21.6776L9.57868 20.6346C9.05927 20.3616 8.43877 20.3616 7.91936 20.6346L5.93538 21.6776C4.62737 22.3652 3.09879 21.2545 3.34859 19.7981L3.72742 17.589C3.82665 17.0107 3.63488 16.4206 3.21471 16.0109L1.6097 14.4464C0.551489 13.415 1.13549 11.6178 2.59777 11.4054L4.81586 11.083C5.39658 10.9986 5.8986 10.6339 6.15823 10.1078L7.15015 8.09784C7.80444 6.77272 9.69388 6.77272 10.3479 8.09784Z" fill="#FFE07D"/>
<path d="M9.76763 7.41744C9.53152 7.58026 9.32935 7.80653 9.1862 8.09725L8.195 10.107C7.93493 10.6327 7.4332 10.9977 6.85191 11.0818L4.63439 11.4042C3.17211 11.6174 2.5874 13.414 3.64647 14.4457L5.25076 16.0096C5.67151 16.4194 5.86284 17.0097 5.76333 17.5878L5.38521 19.7976C5.25618 20.5452 5.59722 21.202 6.13717 21.5703L5.93613 21.6762C4.62897 22.3648 3.10011 21.2532 3.34934 19.7976L3.72859 17.5878C3.82811 17.0097 3.63563 16.4195 3.21602 16.0096L1.61059 14.4457C0.552665 13.414 1.13624 11.6172 2.59852 11.4042L4.81703 11.0818C5.39733 10.9977 5.90006 10.6327 6.15912 10.107L7.15147 8.09725C7.66161 7.06113 8.92728 6.83486 9.76763 7.41744Z" fill="#FFD064"/>
<path d="M65.8498 8.09784L66.8418 10.1078C67.1014 10.634 67.6034 10.9987 68.1841 11.083L70.4022 11.4054C71.8645 11.6178 72.4485 13.415 71.3903 14.4464L69.7853 16.0109C69.3651 16.4206 69.1733 17.0107 69.2726 17.589L69.6514 19.7981C69.9012 21.2545 68.3725 22.3652 67.0646 21.6776L65.0806 20.6346C64.5612 20.3616 63.9407 20.3616 63.4213 20.6346L61.4373 21.6776C60.1293 22.3652 58.6007 21.2545 58.8505 19.7981L59.2294 17.589C59.3286 17.0107 59.1368 16.4206 58.7167 16.0109L57.1117 14.4464C56.0534 13.415 56.6374 11.6178 58.0997 11.4054L60.3178 11.083C60.8985 10.9986 61.4005 10.6339 61.6602 10.1078L62.6521 8.09784C63.3062 6.77272 65.1958 6.77272 65.8498 8.09784Z" fill="#FFE07D"/>
<path d="M65.2696 7.41744C65.0335 7.58026 64.8313 7.80653 64.6882 8.09725L63.6969 10.107C63.4369 10.6327 62.9352 10.9977 62.3539 11.0818L60.1363 11.4042C58.6741 11.6174 58.0893 13.414 59.1484 14.4457L60.7527 16.0096C61.1735 16.4194 61.3648 17.0097 61.2653 17.5878L60.8872 19.7976C60.7581 20.5452 61.0992 21.202 61.6391 21.5703L61.4381 21.6763C60.1309 22.3648 58.6021 21.2532 58.8513 19.7976L59.2305 17.5878C59.3301 17.0097 59.1376 16.4195 58.718 16.0096L57.1125 14.4457C56.0546 13.414 56.6382 11.6172 58.1005 11.4042L60.319 11.0818C60.8993 10.9977 61.402 10.6327 61.6611 10.107L62.6534 8.09725C63.1636 7.06113 64.4291 6.83486 65.2696 7.41744Z" fill="#FFD064"/>
<path d="M51.1451 40.8092V27.5442C51.1451 24.4418 48.6204 21.9178 45.517 21.9178C44.0516 21.9178 42.6562 22.4971 41.6207 23.4893C39.4496 20.8811 36.2464 19.3611 32.7995 19.3611C29.7303 19.3611 26.8448 20.5563 24.6746 22.7265C22.5044 24.8967 21.3092 27.7821 21.3092 30.8514V40.6868C20.9928 40.8793 20.6971 41.1106 20.4287 41.3791C19.5461 42.2616 19.0601 43.436 19.0601 44.6859C19.0601 47.2627 21.1574 49.3591 23.7355 49.3591H24.6263V49.5657C24.6263 51.0337 24.8993 52.4635 25.4378 53.8152C25.6564 54.3637 26.2782 54.6315 26.827 54.4129C27.3756 54.1944 27.6432 53.5724 27.4247 53.0238C26.9868 51.9248 26.7649 50.7614 26.7649 49.5656V36.4598L26.7651 36.4265C26.7658 36.4119 26.7662 36.3973 26.7664 36.3827C26.7752 35.2429 27.3698 34.2187 28.3567 33.6425C29.3687 33.0518 30.5865 33.0395 31.6147 33.6097C32.99 34.3717 34.5531 34.7746 36.1351 34.7746C39.1805 34.7746 41.9586 33.3301 43.6958 30.9213C44.8706 32.5184 45.5053 34.4414 45.5053 36.4598V49.4344C45.5053 54.6346 41.3341 58.8963 36.2071 58.9343C33.6885 58.9536 31.3289 57.9908 29.5446 56.2251C29.1249 55.8098 28.4478 55.8132 28.0325 56.2331C27.617 56.6528 27.6206 57.3299 28.0404 57.7453C28.3771 58.0783 28.7324 58.3851 29.1007 58.6709C25.8179 60.4869 23.7251 63.9477 23.7251 67.8229V71.8697C23.7251 72.4603 24.2038 72.939 24.7944 72.939H47.4766C48.0672 72.939 48.546 72.4603 48.546 71.8697V67.8229C48.546 63.9334 46.4408 60.4648 43.1398 58.6533C45.8749 56.5202 47.644 53.1764 47.644 49.4343V49.3588H48.5345C49.7844 49.3588 50.9588 48.8728 51.8414 47.9902C52.7239 47.1077 53.21 45.934 53.21 44.6856C53.2098 43.074 52.3898 41.65 51.1451 40.8092ZM37.1691 69.4001C37.445 69.6751 37.5969 70.0416 37.5969 70.4318V70.8008H34.6733V70.4318C34.6733 69.6288 35.3243 68.9754 36.1262 68.9705C36.1289 68.9705 36.1317 68.9707 36.1344 68.9707C36.1376 68.9707 36.1407 68.9704 36.1438 68.9704C36.5301 68.9728 36.8935 69.1245 37.1691 69.4001ZM32.0169 60.3145C33.0131 60.6958 34.0635 60.9376 35.1452 61.0291V61.828C35.1452 62.2459 34.9827 62.6378 34.685 62.9345C34.391 63.2296 33.9989 63.392 33.581 63.392C32.7186 63.392 32.0168 62.6904 32.0168 61.828V60.3145H32.0169ZM37.2384 66.3745C36.9466 66.6673 36.558 66.8292 36.1437 66.8316C36.1409 66.8316 36.138 66.8314 36.135 66.8314C36.132 66.8314 36.1289 66.8317 36.1259 66.8317C35.3103 66.8273 34.6416 66.1954 34.5768 65.3952C35.1849 65.2266 35.7416 64.9044 36.1975 64.447C36.2036 64.441 36.2091 64.4346 36.2151 64.4284C36.624 64.8425 37.1296 65.1603 37.6948 65.3461C37.6758 65.7343 37.5174 66.0965 37.2384 66.3745ZM38.8481 63.3922C37.9857 63.3922 37.284 62.6906 37.284 61.8281V61.0137C38.3789 60.9031 39.4284 60.6347 40.4123 60.2334V61.8281C40.4123 62.246 40.2498 62.6379 39.9521 62.9346C39.6581 63.2296 39.266 63.3922 38.8481 63.3922ZM25.8634 67.8232C25.8634 64.8439 27.4178 62.1729 29.8783 60.6923V61.828C29.8783 63.4692 30.952 64.8637 32.4337 65.3479C32.4552 66.3564 32.8814 67.2664 33.5566 67.9223C32.9249 68.5713 32.5345 69.4566 32.5345 70.4317V70.8007H25.8633V67.8232H25.8634ZM46.4071 67.8232V70.8007H39.7357V70.4317C39.7357 69.4852 39.3724 68.5958 38.7141 67.9219C38.7262 67.91 38.7389 67.8988 38.7509 67.8867C39.4208 67.219 39.8021 66.3394 39.8343 65.3977C40.4461 65.2299 41.0065 64.9065 41.4646 64.4467C42.1652 63.7483 42.5511 62.8183 42.5511 61.8278V60.7908C44.9193 62.2898 46.4071 64.9072 46.4071 67.8232ZM23.7355 47.2205C22.3368 47.2205 21.1987 46.0834 21.1987 44.6859C21.1987 44.0072 21.4623 43.3699 21.9408 42.8914C22.4195 42.4127 23.0568 42.1493 23.7353 42.1493H24.6261V47.2205H23.7355ZM44.3038 28.3526C44.0607 28.1075 43.7143 27.995 43.3737 28.0503C43.0331 28.1057 42.7399 28.3219 42.5866 28.6312C41.363 31.1015 38.891 32.6361 36.1351 32.6361C34.9148 32.6361 33.7102 32.3259 32.6516 31.7394C30.9572 30.7998 28.9485 30.8209 27.2787 31.7957C25.6389 32.7528 24.649 34.4535 24.6279 36.3479C24.6266 36.3853 24.6263 36.4226 24.6263 36.46V40.0105H23.7355C23.6391 40.0105 23.5433 40.0143 23.4479 40.0201V30.8516C23.4479 28.3536 24.4205 26.0052 26.1868 24.2388C27.953 22.4724 30.3016 21.4997 32.7995 21.4997C36.0045 21.4997 38.9515 23.1156 40.6824 25.822C40.883 26.1357 41.2312 26.3227 41.6046 26.315C41.9768 26.3076 42.3185 26.1071 42.5064 25.7856C43.1301 24.719 44.2837 24.0563 45.517 24.0563C47.4411 24.0563 49.0065 25.621 49.0065 27.544V40.0341C48.8512 40.0184 48.6938 40.0103 48.5344 40.0103H47.6439V36.4598C47.6439 33.4023 46.4578 30.5229 44.3038 28.3526ZM50.329 46.4782C49.8504 46.9568 49.2131 47.2203 48.5345 47.2203H47.644V42.1491H48.5345C49.9332 42.1491 51.0713 43.287 51.0713 44.6859C51.0711 45.3631 50.8075 45.9997 50.329 46.4782Z" fill="black"/>
<path d="M31.4936 46.9109C31.076 47.3285 31.076 48.0055 31.4936 48.4231C32.7333 49.6628 34.3815 50.3456 36.1348 50.3456C37.888 50.3456 39.5363 49.6628 40.776 48.4231C41.1936 48.0055 41.1936 47.3285 40.776 46.9109C40.3584 46.4933 39.6813 46.4933 39.2639 46.9109C38.4281 47.7467 37.3168 48.207 36.1348 48.207C34.9529 48.207 33.8417 47.7467 33.006 46.9109C32.5883 46.4933 31.9112 46.4932 31.4936 46.9109Z" fill="black"/>
<path d="M34.4805 42.3738V40.2649C34.4805 39.6743 34.0017 39.1956 33.4111 39.1956C32.8206 39.1956 32.3418 39.6743 32.3418 40.2649V42.3738C32.3418 42.9643 32.8206 43.4431 33.4111 43.4431C34.0017 43.4431 34.4805 42.9643 34.4805 42.3738Z" fill="black"/>
<path d="M39.928 42.3738V40.2649C39.928 39.6743 39.4492 39.1956 38.8586 39.1956C38.2681 39.1956 37.7893 39.6743 37.7893 40.2649V42.3738C37.7893 42.9643 38.2681 43.4431 38.8586 43.4431C39.4492 43.4431 39.928 42.9643 39.928 42.3738Z" fill="black"/>
<path d="M30.2195 10.8037C30.3878 10.9677 30.4645 11.2038 30.4247 11.4352L30.0457 13.6443C29.861 14.7222 30.2957 15.7911 31.1804 16.434C31.6803 16.7973 32.2653 16.9818 32.8541 16.9818C33.3074 16.9818 33.763 16.8724 34.1841 16.6512L36.168 15.6082C36.3759 15.4988 36.6241 15.4988 36.832 15.6082L38.816 16.6512C39.7841 17.1602 40.935 17.0769 41.8197 16.4342C42.7045 15.7913 43.1393 14.7224 42.9543 13.6445L42.5754 11.4355C42.5357 11.204 42.6124 10.9679 42.7807 10.8039L44.3855 9.23938C45.1687 8.47602 45.4453 7.35578 45.1073 6.31567C44.7694 5.27556 43.8871 4.53173 42.8048 4.37447L40.5867 4.05224C40.3543 4.01845 40.1534 3.8726 40.0494 3.66187L39.0575 1.65194C38.5739 0.671004 37.594 0.0617676 36.5002 0.0617676C35.4067 0.0617676 34.4266 0.671004 33.9425 1.65166L32.9506 3.66144C32.8467 3.87217 32.6458 4.01803 32.4132 4.05182L30.1952 4.37404C29.1129 4.53131 28.2306 5.27514 27.8927 6.31524C27.5548 7.35535 27.8314 8.47573 28.6144 9.23895L30.2195 10.8037ZM29.9268 6.97638C29.968 6.84948 30.1066 6.54836 30.5028 6.49076L32.7209 6.16853C33.65 6.03351 34.4528 5.45022 34.8684 4.60816L35.8604 2.59823C36.0376 2.23922 36.3668 2.20044 36.5002 2.20044C36.6337 2.20044 36.9629 2.23922 37.1401 2.59823L38.1322 4.6083C38.5478 5.45022 39.3505 6.03351 40.2797 6.16853L42.4978 6.49076C42.894 6.54836 43.0326 6.84963 43.0738 6.97638C43.115 7.10313 43.1799 7.42835 42.8932 7.70781L41.2883 9.27231C40.6159 9.9276 40.3092 10.8713 40.4679 11.7969L40.8469 14.0061C40.9146 14.4006 40.6709 14.6256 40.563 14.704C40.4551 14.7824 40.1658 14.9446 39.8115 14.7583L37.8275 13.7153C36.9964 13.2785 36.0042 13.2783 35.173 13.7153L33.189 14.7583C32.8347 14.9445 32.5454 14.7824 32.4375 14.704C32.3297 14.6256 32.086 14.4007 32.1536 14.0061L32.5326 11.7968C32.6913 10.8715 32.3846 9.9276 31.7123 9.27231L30.1073 7.70781C29.8207 7.42835 29.8856 7.10313 29.9268 6.97638Z" fill="black"/>
<path d="M15.0541 10.3465L12.836 10.0243C12.6036 9.99048 12.4027 9.84462 12.2988 9.63403L11.3069 7.62411C10.8228 6.64317 9.84273 6.03394 8.74916 6.03394C7.65558 6.03394 6.6755 6.64317 6.19145 7.62397L5.19953 9.63375C5.09559 9.84448 4.8947 9.99034 4.66215 10.0241L2.44407 10.3464C1.3619 10.5038 0.479625 11.2476 0.141715 12.2877C-0.196195 13.3278 0.0802636 14.4482 0.863445 15.2115L2.46845 16.7761C2.63669 16.94 2.71325 17.1761 2.67362 17.4077L2.29479 19.6168C2.11001 20.6947 2.54473 21.7636 3.42942 22.4065C3.9293 22.7698 4.5143 22.9543 5.10315 22.9543C5.5564 22.9543 6.01208 22.8449 6.43312 22.6236L8.41709 21.5807C8.62497 21.4713 8.8732 21.4714 9.08108 21.5807L11.0651 22.6236C12.0332 23.1326 13.1841 23.0494 14.0687 22.4066C14.9536 21.7637 15.3883 20.6948 15.2034 19.6169L14.8244 17.4078C14.7848 17.1763 14.8615 16.9402 15.0296 16.7763L16.6347 15.2118C17.4178 14.4485 17.6944 13.3281 17.3565 12.288C17.0187 11.2476 16.1364 10.5038 15.0541 10.3465ZM15.1421 13.68L13.5369 15.2445C12.8647 15.8999 12.558 16.8436 12.7167 17.7691L13.0957 19.9782C13.1634 20.3727 12.9197 20.5977 12.8118 20.6761C12.704 20.7546 12.4147 20.9168 12.0602 20.7305L10.0763 19.6875C9.24504 19.2505 8.25284 19.2505 7.42175 19.6875L5.43778 20.7305C5.08362 20.9167 4.79418 20.7544 4.68625 20.6761C4.57846 20.5977 4.3348 20.3729 4.40238 19.9782L4.78121 17.7691C4.9399 16.8436 4.63321 15.8999 3.96096 15.2445L2.35624 13.68C2.06951 13.4005 2.13453 13.0753 2.17559 12.9485C2.2168 12.8217 2.35553 12.5205 2.75175 12.4629L4.9697 12.1407C5.89888 12.0057 6.70159 11.4224 7.11735 10.5805L8.10927 8.57054C8.28649 8.21153 8.6157 8.17275 8.74916 8.17275C8.88261 8.17275 9.21182 8.21153 9.38905 8.57054L10.381 10.5805C10.7966 11.4225 11.5993 12.0057 12.5285 12.1407L14.7466 12.4629C15.1428 12.5205 15.2814 12.8217 15.3226 12.9485C15.3638 13.0754 15.4287 13.4005 15.1421 13.68Z" fill="black"/>
<path d="M72.137 15.2114C72.92 14.4473 73.1963 13.3266 72.8581 12.2865C72.5201 11.2471 71.6378 10.5037 70.5495 10.3457L70.4469 10.3315C69.8621 10.2499 69.3218 10.6584 69.2404 11.2433C69.1591 11.8283 69.5673 12.3684 70.1523 12.4498L70.2485 12.4632C70.6446 12.5208 70.7832 12.8215 70.8244 12.9481C70.8657 13.075 70.9308 13.4005 70.644 13.6802L69.0379 15.245C68.3658 15.901 68.0597 16.845 68.2189 17.7689L68.5969 19.9786C68.6649 20.373 68.4214 20.598 68.3135 20.6764C68.2055 20.7549 67.9164 20.9175 67.5624 20.7314L65.5768 19.6866C64.7459 19.2517 63.7542 19.252 62.9237 19.6876L60.9392 20.7313C60.5856 20.9172 60.2966 20.7552 60.1887 20.6768C60.0806 20.5982 59.8366 20.3731 59.9042 19.9782L60.2839 17.7678C60.4413 16.8412 60.134 15.8976 59.4626 15.2443L57.8578 13.6808C57.5709 13.4009 57.6359 13.0755 57.6773 12.9486C57.7185 12.8219 57.8571 12.5206 58.2529 12.4632L60.4711 12.1409C61.401 12.0061 62.2043 11.4228 62.6199 10.5801L63.6104 8.57064C63.7877 8.21163 64.1172 8.17285 64.2507 8.17285C64.3841 8.17285 64.7136 8.21163 64.891 8.5705L65.651 10.1089C65.9124 10.6383 66.5539 10.8556 67.0833 10.5941C67.6128 10.3326 67.83 9.69131 67.5683 9.16177L66.8084 7.62321C66.3241 6.64299 65.344 6.03418 64.2506 6.03418C63.1573 6.03418 62.1772 6.64313 61.6926 7.62421L60.7018 9.63428C60.5978 9.84472 60.397 9.99058 60.164 10.0244L57.9453 10.3466C56.8636 10.5039 55.9816 11.2474 55.6434 12.2872C55.3052 13.3272 55.5814 14.4476 56.3649 15.2119L57.9709 16.7766C58.1387 16.9398 58.2151 17.1762 58.1759 17.4075L57.7965 19.6166C57.6118 20.6949 58.0468 21.7643 58.932 22.4071C59.8164 23.0495 60.9667 23.1329 61.9347 22.6241L63.9185 21.5809C64.1267 21.4715 64.376 21.4718 64.5833 21.5803L66.567 22.6243C66.9879 22.8456 67.4433 22.9548 67.8964 22.9548C68.4857 22.9548 69.0711 22.7699 69.5714 22.4061C70.4561 21.7628 70.8904 20.6936 70.7049 19.6169L70.3269 17.4071C70.287 17.1758 70.3637 16.9397 70.5313 16.7763L72.137 15.2114Z" fill="black"/>
</g>
<defs>
<clipPath id="clip0">
<rect width="73" height="73" fill="white"/>
</clipPath>
</defs>
</svg>
