<svg width="81" height="80" viewBox="0 0 81 80" fill="none" xmlns="http://www.w3.org/2000/svg">
<g clip-path="url(#clip0)">
<path d="M21.3379 43.7549V49.6065C21.3379 50.2482 21.8626 50.7684 22.5098 50.7684H49.2191C49.8665 50.7684 50.391 50.2482 50.391 49.6065V43.7549C50.391 41.8066 49.1415 40.073 47.2813 39.4409L42.3443 37.7661C42.942 36.7497 43.2862 35.5696 43.2862 34.3107V24.8817C43.2862 21.898 40.838 19.4705 37.8287 19.4705H33.9001C30.8909 19.4705 28.4426 21.8978 28.4426 24.8817L28.4424 34.3107C28.4424 35.5696 28.7866 36.7497 29.3843 37.7661L24.4468 39.441C22.5874 40.073 21.3379 41.8066 21.3379 43.7549ZM30.7863 34.3107V29.9111H32.1205C33.7209 29.9111 35.171 29.0289 36.1273 27.8069C36.6804 28.931 37.8004 29.9111 39.1293 29.9111H40.9426V34.3107C40.9426 40.3796 30.7863 40.3796 30.7863 34.3107ZM30.7866 24.8817C30.7866 23.1794 32.1834 21.7943 33.9004 21.7943H37.829C39.5459 21.7943 40.9427 23.1792 40.9427 24.8817V27.5872H39.1295C38.8659 27.5872 38.6207 27.4464 38.4895 27.2195L37.3759 25.2938C36.9784 24.6062 36.0368 24.5186 35.5074 25.0737L33.7929 26.8727C33.3601 27.3267 32.7505 27.5872 32.1205 27.5872H30.7866V24.8817ZM31.0282 39.6647C33.6168 41.7401 38.1224 41.7319 40.7009 39.6647L46.5221 41.6394C47.4344 41.9494 48.0474 42.7997 48.0474 43.7549V48.4445H23.6816V43.7549C23.6816 42.7995 24.2946 41.9494 25.2063 41.6396L31.0282 39.6647Z" fill="black"/>
<path d="M69.9918 27.3793C70.6391 27.3793 71.1637 26.8591 71.1637 26.2174V1.57332C71.1637 0.931618 70.6391 0.411377 69.9918 0.411377H21.4559C20.8087 0.411377 20.284 0.931618 20.284 1.57332V5.18774H16.6027C15.9555 5.18774 15.4309 5.70798 15.4309 6.34968V10.0369H11.748C11.1009 10.0369 10.5762 10.5572 10.5762 11.1989V47.075C10.5762 47.7167 11.1009 48.237 11.748 48.237C12.3952 48.237 12.9199 47.7167 12.9199 47.075V12.3608H59.1121V77.4095H12.9199V52.1396C12.9199 51.4979 12.3952 50.9776 11.748 50.9776C11.1009 50.9776 10.5762 51.4979 10.5762 52.1396V78.5715C10.5762 79.2132 11.1009 79.7334 11.748 79.7334H60.284C60.9313 79.7334 61.4559 79.2132 61.4559 78.5715V74.8858H65.1371C65.7844 74.8858 66.309 74.3655 66.309 73.7238V70.1079H69.9918C70.6391 70.1079 71.1637 69.5876 71.1637 68.9459V31.2803C71.1637 30.6386 70.6391 30.1184 69.9918 30.1184C69.3444 30.1184 68.8199 30.6386 68.8199 31.2803V67.784H66.309V6.34968C66.309 5.70798 65.7844 5.18774 65.1371 5.18774H44.9855C44.3382 5.18774 43.8137 5.70798 43.8137 6.34968C43.8137 6.99139 44.3382 7.51163 44.9855 7.51163H63.9652V72.5619H61.4559V11.1989C61.4559 10.5572 60.9313 10.0369 60.284 10.0369H17.7746V7.51163H39.8793C40.5265 7.51163 41.0512 6.99139 41.0512 6.34968C41.0512 5.70798 40.5265 5.18774 39.8793 5.18774H22.6277V2.73526H68.8199V26.2174C68.8199 26.8591 69.3444 27.3793 69.9918 27.3793Z" fill="black"/>
<path d="M20.2832 56.8754C20.2832 58.8233 21.8815 60.408 23.846 60.408C25.8105 60.408 27.4088 58.8233 27.4088 56.8754C27.4088 54.9275 25.8105 53.3428 23.846 53.3428C21.8815 53.3428 20.2832 54.9275 20.2832 56.8754ZM23.846 55.6667C24.5182 55.6667 25.0651 56.2089 25.0651 56.8754C25.0651 57.5419 24.5182 58.0841 23.846 58.0841C23.1738 58.0841 22.627 57.5419 22.627 56.8754C22.627 56.2089 23.1738 55.6667 23.846 55.6667Z" fill="black"/>
<path d="M31.1621 55.6667H40.8691C41.5165 55.6667 42.041 55.1464 42.041 54.5047C42.041 53.863 41.5165 53.3428 40.8691 53.3428H31.1621C30.5149 53.3428 29.9902 53.863 29.9902 54.5047C29.9902 55.1464 30.5148 55.6667 31.1621 55.6667Z" fill="black"/>
<path d="M50.5759 58.155H31.1621C30.5149 58.155 29.9902 58.6753 29.9902 59.317C29.9902 59.9587 30.5149 60.4789 31.1621 60.4789H50.576C51.2234 60.4789 51.7479 59.9587 51.7479 59.317C51.7479 58.6753 51.2232 58.155 50.5759 58.155Z" fill="black"/>
<path d="M23.846 70.0469C25.8105 70.0469 27.4088 68.4622 27.4088 66.5143C27.4088 64.5664 25.8105 62.9817 23.846 62.9817C21.8815 62.9817 20.2832 64.5664 20.2832 66.5143C20.2832 68.4622 21.8815 70.0469 23.846 70.0469ZM23.846 65.3056C24.5182 65.3056 25.0651 65.8478 25.0651 66.5143C25.0651 67.1808 24.5182 67.723 23.846 67.723C23.1738 67.723 22.627 67.1808 22.627 66.5143C22.627 65.8478 23.1738 65.3056 23.846 65.3056Z" fill="black"/>
<path d="M31.1621 65.3056H40.8691C41.5165 65.3056 42.041 64.7853 42.041 64.1436C42.041 63.5019 41.5165 62.9817 40.8691 62.9817H31.1621C30.5149 62.9817 29.9902 63.5019 29.9902 64.1436C29.9902 64.7853 30.5148 65.3056 31.1621 65.3056Z" fill="black"/>
<path d="M31.1621 70.1178H50.576C51.2234 70.1178 51.7479 69.5976 51.7479 68.9559C51.7479 68.3142 51.2234 67.7939 50.576 67.7939H31.1621C30.5149 67.7939 29.9902 68.3142 29.9902 68.9559C29.9902 69.5976 30.5148 70.1178 31.1621 70.1178Z" fill="black"/>
</g>
<defs>
<clipPath id="clip0">
<rect width="80" height="79.322" fill="white" transform="translate(0.869141 0.411377)"/>
</clipPath>
</defs>
</svg>
