<svg width="89" height="88" viewBox="0 0 89 88" fill="none" xmlns="http://www.w3.org/2000/svg">
<path d="M63.5482 23.3483C63.9967 22.7678 63.8896 21.9333 63.3091 21.4845C62.7283 21.036 61.8941 21.143 61.4453 21.7236C60.9968 22.3044 61.1035 23.1386 61.6843 23.5874C62.2651 24.0362 63.0994 23.9291 63.5482 23.3483Z" fill="black"/>
<path d="M64.0365 67.4251C63.0521 68.0906 62.7937 69.4285 63.4592 70.413C64.1251 71.3974 65.4627 71.6558 66.4474 70.9902C67.4319 70.3244 67.6903 68.9868 67.0247 68.0023C66.3588 67.0179 65.0209 66.7595 64.0365 67.4251Z" fill="black"/>
<path d="M41.1655 19.5359C41.8135 19.5359 42.3389 19.0106 42.3389 18.3625C42.3389 17.7145 41.8135 17.1892 41.1655 17.1892C40.5175 17.1892 39.9922 17.7145 39.9922 18.3625C39.9922 19.0106 40.5175 19.5359 41.1655 19.5359Z" fill="black"/>
<path d="M12.644 25.7626C13.1767 26.0468 13.7589 26.1911 14.3468 26.1911C14.6985 26.1911 15.0537 26.1395 15.401 26.0342C16.3268 25.7535 17.0877 25.1301 17.5438 24.2777C17.9988 23.4253 18.0962 22.4455 17.8154 21.521C17.5347 20.5964 16.9114 19.8355 16.059 19.3793C15.2054 18.9232 14.2268 18.8258 13.3022 19.1065C12.3776 19.3873 11.6167 20.0106 11.1606 20.863C10.7045 21.7154 10.6071 22.6952 10.8878 23.6198C11.1682 24.5455 11.7915 25.3064 12.644 25.7626ZM13.2295 21.9698C13.3899 21.6706 13.6569 21.4506 13.9822 21.3523C14.1036 21.3156 14.2286 21.2971 14.3523 21.2971C14.5586 21.2971 14.7636 21.3476 14.9516 21.4485C15.2508 21.609 15.4708 21.8759 15.5691 22.2012C15.6674 22.5265 15.6333 22.8703 15.4741 23.1707C15.3136 23.4699 15.0455 23.6899 14.7202 23.7881C14.3949 23.8855 14.0523 23.8535 13.7507 23.6931C13.4515 23.5326 13.2315 23.2645 13.1333 22.9392C13.035 22.6139 13.069 22.2698 13.2295 21.9698Z" fill="black"/>
<path d="M79.6245 41.0912C75.3148 35.7663 70.0043 31.5725 64.096 28.6978L71.5346 18.9903C71.9277 18.4769 71.8315 17.7424 71.3205 17.3482L60.1774 8.74062C59.931 8.54937 59.6194 8.46342 59.3088 8.50566C58.9993 8.54585 58.7186 8.70747 58.5285 8.95475L55.0305 13.5202C55.0041 13.5481 54.9692 13.563 54.9455 13.5941C54.9208 13.6261 54.915 13.6648 54.8941 13.6982L46.7814 24.2876C46.0988 24.2559 45.4154 24.2292 44.7281 24.2292C42.9349 24.2292 41.157 24.3454 39.3991 24.5583L33.8061 16.5233C34.7641 14.8493 34.7181 12.7364 33.6181 11.1081C32.0311 8.76379 28.8341 8.14603 26.4945 9.73297C25.359 10.4994 24.5902 11.6637 24.33 13.0089C24.0698 14.3541 24.3493 15.7211 25.1173 16.8566C26.0774 18.2751 27.6828 19.1058 29.3671 19.1058H29.4038L33.3532 25.7328C24.247 28.1587 16.0102 33.4572 9.83167 41.0909C9.48319 41.5206 9.48319 42.1369 9.83167 42.5666C13.7747 47.4386 18.5604 51.3537 23.8697 54.1882L13.1431 68.1875C12.75 68.7009 12.8463 69.4354 13.3572 69.8296L24.5004 78.4372C24.7066 78.5977 24.9598 78.6824 25.2176 78.6824C25.268 78.6824 25.3185 78.6789 25.369 78.6722C25.6784 78.632 25.9591 78.4704 26.1492 78.2231L40.703 59.2292C42.0356 59.3506 43.3761 59.4292 44.7278 59.4292C46.4907 59.4292 48.2393 59.2972 49.9746 59.0904C51.6575 61.9551 53.4697 63.3933 54.7489 64.1005C54.1802 65.1559 54.1878 66.4789 54.905 67.5396C55.5468 68.4882 56.5975 69.0004 57.6653 69.0004C58.1927 69.0004 58.7224 68.8675 59.2117 68.6085L59.3153 72.4541C59.3255 72.8413 59.5273 73.1989 59.8538 73.4086L69.0445 79.3178C69.2381 79.4427 69.4593 79.5046 69.6793 79.5046C69.9084 79.5046 70.1387 79.4372 70.337 79.3028L72.7135 77.6954C73.1019 77.4328 73.2967 76.9632 73.2087 76.5027L71.1495 65.7731C71.0738 65.3812 70.8045 65.0536 70.4335 64.9057L66.8316 63.4611C68.1912 62.3954 68.5271 60.4459 67.5447 58.9921C66.9372 58.0928 65.9619 57.5965 64.9519 57.5463C64.8947 56.8488 64.7114 55.9268 64.2963 54.84C65.9551 54.0216 67.579 53.1184 69.141 52.0894C73.0919 49.4861 76.6187 46.2823 79.6242 42.5675C79.9727 42.1363 79.9727 41.5209 79.6245 41.0912ZM53.5407 19.3247L55.5952 20.9119C55.8084 21.0768 56.0616 21.1571 56.3112 21.1571C56.6629 21.1571 57.0102 21.0002 57.2405 20.701C57.6371 20.1877 57.5429 19.4508 57.0296 19.0557L54.9675 17.4626L56.1074 15.9748L57.9419 17.3919C58.1551 17.5568 58.4083 17.6371 58.6579 17.6371C59.0096 17.6371 59.3569 17.4802 59.5872 17.181C59.9838 16.6677 59.8896 15.9308 59.3763 15.5357L57.5341 14.1124L59.6755 11.3178L68.9612 18.4907L61.9007 27.7037C57.9862 26.0543 53.8422 24.969 49.5757 24.4994L53.5407 19.3247ZM58.1809 28.7993C61.3073 32.0354 63.1271 36.1999 63.402 40.6559H56.3593C55.7686 34.7352 50.759 30.0959 44.6855 30.0959C38.6121 30.0959 33.6025 34.7352 33.0118 40.6559H25.9688C26.2431 36.2189 28.0521 32.0688 31.1576 28.8363C35.4825 27.3538 40.0559 26.5759 44.7281 26.5759C49.3583 26.5759 53.8906 27.3429 58.1809 28.7993ZM54.0722 41.8292C54.0722 47.0051 49.8614 51.2159 44.6855 51.2159C39.5097 51.2159 35.2989 47.0051 35.2989 41.8292C35.2989 36.6533 39.5097 32.4425 44.6855 32.4425C49.8614 32.4425 54.0722 36.6536 54.0722 41.8292ZM31.0447 17.2752C30.7959 16.858 30.3216 16.638 29.8382 16.7193C28.7587 16.8991 27.6702 16.4421 27.0606 15.5424C26.6447 14.9258 26.4933 14.1846 26.6344 13.4548C26.7755 12.725 27.1923 12.0934 27.8089 11.6766C29.0796 10.8183 30.8132 11.1518 31.675 12.4225C32.3638 13.4425 32.2846 14.8185 31.4814 15.7695C31.1388 16.1752 31.1124 16.7606 31.416 17.196L36.8151 24.9517C36.4575 25.0165 36.1029 25.0925 35.7477 25.1661L31.0447 17.2752ZM12.2666 41.8292C16.3495 36.9995 21.3174 33.2017 26.8157 30.6025C24.9152 33.6132 23.8204 37.0514 23.6224 40.6559H16.5255C15.877 40.6559 15.3522 41.1806 15.3522 41.8292C15.3522 42.4778 15.877 43.0025 16.5255 43.0025H23.6222C23.8202 46.607 24.9149 50.0455 26.8154 53.056C21.3174 50.4567 16.3495 46.6589 12.2666 41.8292ZM25.0026 75.8606L15.7168 68.6877L18.5718 64.9618L21.3761 67.1283C21.5894 67.2932 21.8425 67.3736 22.0921 67.3736C22.4438 67.3736 22.7911 67.2166 23.0214 66.9174C23.418 66.4053 23.3238 65.6672 22.8105 65.2721L19.9986 63.0997L21.4268 61.2358L23.3171 62.6961C23.5303 62.8609 23.7835 62.9413 24.0331 62.9413C24.3848 62.9413 24.7321 62.7844 24.9624 62.4852C25.359 61.9718 25.2648 61.235 24.7515 60.8398L22.8536 59.3738L26.007 55.2589C29.8015 57.0309 33.8322 58.2594 37.9981 58.9003L25.0026 75.8606ZM31.1579 54.8224C28.0524 51.5896 26.2431 47.4398 25.9691 43.0028H33.012C33.6028 48.9235 38.6124 53.5628 44.6858 53.5628C50.7593 53.5628 55.7688 48.9235 56.3596 43.0028H63.4023C63.128 47.4436 61.3181 51.5957 58.2088 54.8268C53.8865 56.2979 49.3475 57.0828 44.7281 57.0828C40.0559 57.0825 35.4825 56.3046 31.1579 54.8224ZM70.7579 76.1847L69.6638 76.9248L61.6452 71.7697L61.5194 67.0808L64.5122 65.0574L68.9659 66.8441L70.7579 76.1847ZM65.3383 61.6659L58.2076 66.4877C57.7618 66.7878 57.151 66.6722 56.8486 66.2243C56.5462 65.7775 56.6641 65.1677 57.112 64.8653L64.2427 60.0446C64.4066 59.9334 64.5955 59.8762 64.7891 59.8762C64.851 59.8762 64.9141 59.8821 64.976 59.8944C65.2327 59.9437 65.455 60.0904 65.6005 60.3057C65.9032 60.7539 65.785 61.3634 65.3383 61.6659ZM62.6287 58.3031L56.5963 62.3813C55.9698 62.156 54.2558 61.3282 52.5055 58.7132C54.8226 58.2993 57.0985 57.7026 59.3194 56.9256C59.3196 56.9253 59.3202 56.9253 59.3208 56.925C60.2803 56.5892 61.2278 56.2196 62.1641 55.8174C62.6032 57.0221 62.6449 57.8957 62.6287 58.3031ZM67.851 50.1297C66.1379 51.2587 64.3568 52.2537 62.5223 53.1146C64.4442 50.0906 65.5498 46.6311 65.7489 43.0025H72.8458C73.4944 43.0025 74.0192 42.4778 74.0192 41.8292C74.0192 41.1806 73.4944 40.6559 72.8458 40.6559H65.7489C65.5501 37.0271 64.4445 33.5689 62.5234 30.5458C68.0683 33.1462 73.0776 36.9649 77.1898 41.8292C74.4727 45.0444 71.3343 47.8334 67.851 50.1297Z" fill="black"/>
<path d="M44.6845 34.7893C43.6819 34.7893 42.6954 35.0093 41.7524 35.4434C41.2288 35.684 40.9571 36.2695 41.1129 36.8253C41.1484 36.9515 41.1645 37.05 41.1645 37.136C41.1645 37.7834 40.6386 38.3093 39.9912 38.3093C39.9052 38.3093 39.8067 38.2932 39.6806 38.2577C39.1215 38.1007 38.538 38.3744 38.2987 38.8972C37.8645 39.8402 37.6445 40.8267 37.6445 41.8293C37.6445 45.7113 40.8026 48.8693 44.6845 48.8693C48.5665 48.8693 51.7245 45.7113 51.7245 41.8293C51.7245 37.9473 48.5668 34.7893 44.6845 34.7893ZM44.6845 46.5226C42.0962 46.5226 39.9912 44.4177 39.9912 41.8293C39.9912 41.4339 40.044 41.0408 40.1481 40.6525C41.9642 40.5724 43.4276 39.1089 43.5077 37.2929C43.8961 37.1888 44.2891 37.136 44.6845 37.136C47.2729 37.136 49.3779 39.2409 49.3779 41.8293C49.3779 44.4177 47.2732 46.5226 44.6845 46.5226Z" fill="black"/>
</svg>
