<svg width="81" height="81" viewBox="0 0 81 81" fill="none" xmlns="http://www.w3.org/2000/svg">
<g clip-path="url(#clip0)">
<path d="M21.3599 58.9752L26.1792 68.6627C26.5995 69.5079 27.445 70.0329 28.3849 70.0329H31.5902V78.0053C31.5902 79.3475 32.6766 80.4394 34.012 80.4394H37.012C37.6593 80.4394 38.1838 79.9121 38.1838 79.2616C38.1838 78.6112 37.6593 78.0838 37.012 78.0838H34.012C33.969 78.0838 33.9339 78.0486 33.9339 78.0053V64.9082C33.9339 64.8648 33.969 64.8296 34.012 64.8296H67.751C67.794 64.8296 67.8292 64.8648 67.8292 64.9082V78.0053C67.8292 78.0486 67.794 78.0838 67.751 78.0838H41.6994C41.052 78.0838 40.5275 78.6112 40.5275 79.2616C40.5275 79.9121 41.052 80.4394 41.6994 80.4394H67.7509C69.0863 80.4394 70.1727 79.3475 70.1727 78.0053V70.0329H73.378C74.3181 70.0329 75.1634 69.5079 75.5837 68.6627L80.403 58.9752C80.4367 58.9161 80.478 58.829 80.5038 58.7175C80.5288 58.6093 80.5305 58.5154 80.5267 58.4485V54.5016C80.5267 53.1594 79.4403 52.0675 78.1049 52.0675H64.9958V48.0421C64.9958 43.3643 61.4193 39.5121 56.8708 39.0982C56.9644 39.013 57.0573 38.9267 57.148 38.837C58.8703 37.1345 59.819 34.86 59.819 32.4321V28.1083C60.5891 27.6886 61.1132 26.8687 61.1132 25.928V22.0255C61.1132 18.5071 58.265 15.6445 54.7643 15.6445H46.9989C43.4982 15.6445 40.65 18.5071 40.65 22.0255V25.928C40.65 26.8687 41.1741 27.6886 41.9442 28.1083V32.3037C41.9442 34.9884 43.1089 37.4189 44.9479 39.0938C40.373 39.4813 36.7673 43.3451 36.7673 48.0419V52.0673H23.6582C22.3227 52.0673 21.2363 53.1592 21.2363 54.5014V58.4483C21.2371 58.5143 21.2434 58.5931 21.261 58.6804C21.2854 58.8017 21.3241 58.9009 21.3599 58.9752ZM62.6521 48.0419V52.0673H55.3455L54.6747 48.1339L54.8858 47.4976C55.1429 47.5876 55.4155 47.636 55.6949 47.636C55.7977 47.636 55.9016 47.6295 56.0056 47.6165C56.9383 47.4995 57.7123 46.8737 58.0256 45.9829L59.3248 42.2887C61.3104 43.432 62.6521 45.5819 62.6521 48.0419ZM49.1375 46.8641L48.723 45.6142L50.8814 42.3602L53.0398 45.6142L52.6252 46.8641H49.1375ZM53.071 41.4148H56.0583C56.4183 41.4148 56.7713 41.4451 57.1159 41.5012L55.8158 45.1979C55.8075 45.2211 55.7906 45.2697 55.7155 45.2789C55.6413 45.288 55.6122 45.2456 55.5985 45.2251L53.071 41.4148ZM46.1644 45.2252C46.1507 45.2458 46.1237 45.2891 46.0474 45.2791C45.9724 45.2697 45.9554 45.2213 45.9471 45.1981L44.647 41.5013C44.9915 41.4453 45.3444 41.415 45.7044 41.415H48.6919L46.1644 45.2252ZM49.2811 49.2197H52.4817L52.9674 52.0673H48.7955L49.2811 49.2197ZM42.9936 22.0255C42.9936 19.8059 44.7902 18.0001 46.9988 18.0001H54.7641C56.9727 18.0001 58.7693 19.8059 58.7693 22.0255V25.928C58.7693 25.9958 58.7143 26.051 58.647 26.051C56.7492 26.051 55.0986 24.6971 54.7219 22.8316C54.4897 21.6821 53.474 20.8477 52.3068 20.8477H49.4562C48.2891 20.8477 47.2733 21.6821 47.041 22.8318C46.6644 24.6971 45.0137 26.051 43.1161 26.051C43.0486 26.051 42.9937 25.9957 42.9937 25.928V22.0255H42.9936ZM44.2878 32.3037V28.2954C46.7818 27.8217 48.8195 25.8667 49.3377 23.3005C49.3491 23.2443 49.3989 23.2033 49.4561 23.2033H52.3067C52.3638 23.2033 52.4137 23.2442 52.4249 23.3004C52.9432 25.8667 54.981 27.8217 57.475 28.2954V32.4321C57.475 34.2232 56.7752 35.9013 55.5044 37.1575C54.234 38.4131 52.5526 39.0859 50.7682 39.0583C47.1949 38.9983 44.2878 35.9682 44.2878 32.3037ZM39.111 48.0419C39.111 45.5817 40.4527 43.432 42.4383 42.2887L43.7375 45.9829C44.0507 46.8737 44.8248 47.4995 45.7574 47.6165C45.8616 47.6295 45.9652 47.636 46.0682 47.636C46.3476 47.636 46.6204 47.5876 46.8772 47.4976L47.0883 48.1341L46.4176 52.0675H39.111V48.0419ZM23.5799 54.5014C23.5799 54.4581 23.615 54.4229 23.658 54.4229H78.1049C78.1479 54.4229 78.183 54.4581 78.183 54.5014V57.2705H23.5799V54.5014ZM73.4875 67.6091C73.4666 67.651 73.4247 67.6771 73.378 67.6771H70.1727V64.908C70.1727 63.5658 69.0863 62.4739 67.7509 62.4739H34.012C32.6766 62.4739 31.5902 63.5658 31.5902 64.908V67.6771H28.3849C28.3382 67.6771 28.2963 67.651 28.2754 67.6091L24.3041 59.6263H77.4588L73.4875 67.6091Z" fill="black"/>
<path d="M48.293 31.6587C48.9403 31.6587 49.4648 31.1314 49.4648 30.4809V29.8304C49.4648 29.1799 48.9403 28.6526 48.293 28.6526C47.6456 28.6526 47.1211 29.1799 47.1211 29.8304V30.4809C47.1211 31.1314 47.6458 31.6587 48.293 31.6587Z" fill="black"/>
<path d="M53.4707 31.6587C54.118 31.6587 54.6426 31.1314 54.6426 30.4809V29.8304C54.6426 29.1799 54.118 28.6526 53.4707 28.6526C52.8234 28.6526 52.2988 29.1799 52.2988 29.8304V30.4809C52.2988 31.1314 52.8234 31.6587 53.4707 31.6587Z" fill="black"/>
<path d="M27.5835 34.913C27.9591 34.913 28.337 34.8259 28.6889 34.6491C29.5298 34.2266 30.0522 33.377 30.0522 32.4321V28.5297C30.0522 28.4618 30.1072 28.4067 30.1745 28.4067H31.4687C34.9694 28.4067 37.8175 25.5442 37.8175 22.0257V6.41592C37.8175 2.89744 34.9696 0.0349121 31.4687 0.0349121H6.87823C3.37752 0.0347551 0.529297 2.89728 0.529297 6.41576V22.0255C0.529297 25.544 3.37752 28.4066 6.87823 28.4066H9.1896C9.83693 28.4066 10.3614 27.8792 10.3614 27.2288C10.3614 26.5783 9.83693 26.051 9.1896 26.051H6.87823C4.66968 26.051 2.873 24.2452 2.873 22.0255V6.41576C2.873 4.19616 4.66968 2.39036 6.87823 2.39036H31.4688C33.6772 2.39036 35.4739 4.19616 35.4739 6.41576V22.0255C35.4739 24.2452 33.6772 26.051 31.4688 26.051H30.1747C28.8148 26.051 27.7086 27.163 27.7086 28.5295V32.432C27.7086 32.4566 27.7086 32.508 27.641 32.5421C27.5728 32.5761 27.5321 32.5452 27.5127 32.5304L19.5747 26.5466C19.1507 26.2268 18.6252 26.0508 18.0949 26.0508H13.9145C13.2672 26.0508 12.7427 26.5781 12.7427 27.2286C12.7427 27.8791 13.2672 28.4064 13.9145 28.4064H18.0949C18.1213 28.4064 18.1474 28.4152 18.1685 28.4311L26.1065 34.4149C26.5438 34.7447 27.0616 34.913 27.5835 34.913Z" fill="black"/>
<path d="M6.87888 7.59339H31.4697C32.117 7.59339 32.6415 7.06605 32.6415 6.41559C32.6415 5.76513 32.117 5.23779 31.4697 5.23779H6.87888C6.23155 5.23779 5.70703 5.76513 5.70703 6.41559C5.70703 7.06605 6.23155 7.59339 6.87888 7.59339Z" fill="black"/>
<path d="M6.87693 12.7968H31.4677C32.115 12.7968 32.6395 12.2694 32.6395 11.619C32.6395 10.9685 32.115 10.4412 31.4677 10.4412H6.87693C6.2296 10.4412 5.70508 10.9685 5.70508 11.619C5.70508 12.2694 6.2296 12.7968 6.87693 12.7968Z" fill="black"/>
<path d="M6.87693 18.0001H31.4677C32.115 18.0001 32.6395 17.4728 32.6395 16.8223C32.6395 16.1719 32.115 15.6445 31.4677 15.6445H6.87693C6.2296 15.6445 5.70508 16.1719 5.70508 16.8223C5.70508 17.4728 6.2296 18.0001 6.87693 18.0001Z" fill="black"/>
<path d="M6.87693 23.2033H18.5253C19.1726 23.2033 19.6971 22.6759 19.6971 22.0255C19.6971 21.375 19.1726 20.8477 18.5253 20.8477H6.87693C6.2296 20.8477 5.70508 21.375 5.70508 22.0255C5.70508 22.6759 6.2296 23.2033 6.87693 23.2033Z" fill="black"/>
</g>
<defs>
<clipPath id="clip0">
<rect width="80" height="80.4061" fill="white" transform="translate(0.529297 0.0339355)"/>
</clipPath>
</defs>
</svg>
