<svg width="81" height="80" viewBox="0 0 81 80" fill="none" xmlns="http://www.w3.org/2000/svg">
<g clip-path="url(#clip0)">
<path d="M58.2192 30.4198C59.279 30.4198 60.2862 30.01 61.0548 29.2659C61.5198 28.8158 61.5318 28.0739 61.0817 27.609C60.6315 27.144 59.8897 27.1318 59.4248 27.5822C59.0956 27.9008 58.6675 28.0764 58.2192 28.0764H57.8779C57.4297 28.0764 57.0015 27.9009 56.6723 27.5822C56.2072 27.1318 55.4654 27.144 55.0154 27.609C54.5653 28.074 54.5773 28.8159 55.0423 29.2659C55.8111 30.01 56.8181 30.4198 57.8779 30.4198H58.2192Z" fill="black"/>
<path d="M34.6581 59.0273C34.9498 59.1902 35.2733 59.2713 35.5964 59.2713C35.947 59.2713 36.2973 59.1756 36.6063 58.9855L43.8837 54.5013C44.4567 54.1483 44.7988 53.5356 44.7988 52.8627C44.7988 52.1897 44.4567 51.577 43.8837 51.2241L36.6061 46.7399C36.013 46.3744 35.2666 46.3585 34.6581 46.698C34.0498 47.0377 33.6719 47.6816 33.6719 48.3783V57.3467C33.672 58.0436 34.0498 58.6875 34.6581 59.0273ZM36.0156 49.1288L42.0755 52.8627L36.0156 56.5966V49.1288Z" fill="black"/>
<path d="M49.0291 64.7522H37.768C37.2802 63.3333 35.9332 62.3103 34.351 62.3103C32.7687 62.3103 31.4216 63.3333 30.9337 64.7523H29.4393C28.7921 64.7523 28.2674 65.2772 28.2676 65.9244C28.2676 66.5715 28.7923 67.0961 29.4395 67.0961H30.9338C31.4218 68.5148 32.7688 69.5373 34.351 69.5373C35.9332 69.5373 37.2801 68.5147 37.768 67.0961H49.0291C49.6762 67.0961 50.201 66.5715 50.201 65.9244C50.201 65.2772 49.6763 64.7522 49.0291 64.7522ZM34.351 67.1934C33.6509 67.1934 33.0813 66.6239 33.0813 65.9237C33.0813 65.2234 33.6509 64.6537 34.351 64.6537C35.051 64.6537 35.6205 65.2234 35.6205 65.9237C35.6205 66.6239 35.051 67.1934 34.351 67.1934Z" fill="black"/>
<path d="M79.3857 56.7475V48.5359C79.3857 43.0773 74.9448 38.6364 69.4862 38.6364H63.5052V34.4901C66.1787 32.8228 67.9624 29.8568 67.9624 26.4806V25.5636H69.8346C72.4665 25.5636 74.6077 23.4223 74.6077 20.7903C74.6077 19.5425 74.1259 18.4054 73.3391 17.554V13.5064C73.3391 9.98029 71.7773 6.66857 69.0541 4.42029C68.5551 4.00826 67.8165 4.07888 67.4044 4.57795C66.9924 5.07701 67.063 5.8156 67.5621 6.22763C69.7441 8.02904 70.9955 10.6822 70.9955 13.5064V16.1608C70.6237 16.0675 70.2349 16.0173 69.8346 16.0173H67.931C67.6018 12.4839 64.6212 9.70857 61.0032 9.70857H49.7738C48.8693 9.70857 48.1334 10.4445 48.1334 11.349V16.0173H46.2607C45.8609 16.0173 45.4727 16.0673 45.1013 16.1604V4.79904C45.1013 3.89545 45.5738 3.09513 46.3651 2.65841C47.1566 2.22123 48.0863 2.2481 48.8504 2.7292L49.5466 3.16873C50.4866 3.76091 51.5715 4.07404 52.6837 4.07404H61.5629C62.053 4.07404 62.541 4.11138 63.0135 4.18513C63.6532 4.28435 64.2521 3.84732 64.3518 3.20779C64.4516 2.56826 64.0141 1.9692 63.3746 1.86951C62.783 1.77716 62.1735 1.73045 61.5629 1.73045H52.6837C52.0143 1.73045 51.3615 1.54201 50.7968 1.18638L50.1004 0.746696C48.6023 -0.196742 46.7824 -0.249241 45.2323 0.606696C43.6827 1.46216 42.7574 3.02951 42.7574 4.7992V17.5526C41.9698 18.4042 41.4873 19.5419 41.4873 20.7904C41.4873 23.4225 43.6285 25.5637 46.2604 25.5637H48.133V26.4808C48.133 29.8573 49.9173 32.8237 52.5913 34.4909V36.124H35.5676C36.0494 34.5079 36.3096 32.7954 36.3096 31.0222C36.3096 21.2731 28.4777 13.3415 18.8512 13.3415C9.22461 13.3415 1.39258 21.2731 1.39258 31.0222C1.39258 40.7714 9.22445 48.7028 18.851 48.7028C19.2804 48.7028 19.706 48.6864 20.1276 48.6553V71.0175C20.1276 72.6647 21.4684 74.0048 23.1165 74.0048H32.0388V75.6559C32.0388 77.24 33.3276 78.5287 34.9116 78.5287H38.6427C40.2268 78.5287 41.5155 77.24 41.5155 75.6559V74.0048H43.2435V78.8281C43.2435 79.4753 43.7682 80 44.4154 80H70.0876C70.7348 80 71.2594 79.4753 71.2594 78.8281V74.7798C71.2594 74.1326 70.7348 73.6079 70.0876 73.6079C69.4404 73.6079 68.9157 74.1326 68.9157 74.7798V77.6562H45.5874V74.0048H55.3526C57.0007 74.0048 58.3415 72.6647 58.3415 71.0175V64.337H68.916V69.3114C68.916 69.9586 69.4407 70.4832 70.0879 70.4832C70.7351 70.4832 71.2598 69.9586 71.2598 69.3114V64.3368H73.3487C74.493 64.3368 75.564 64.0168 76.4768 63.4615C78.2194 62.4015 79.3859 60.4842 79.3859 58.2997V56.7475H79.3857ZM72.2641 20.7904C72.2641 22.1301 71.1743 23.22 69.8346 23.22H67.9624V18.3609H69.8346C71.1743 18.3609 72.2641 19.4508 72.2641 20.7904ZM46.2607 23.22C44.921 23.22 43.8312 22.13 43.8312 20.7904C43.8312 19.4509 44.921 18.3609 46.2607 18.3609H48.1334V23.22H46.2607ZM50.477 26.4806V24.4068C50.477 24.4018 50.4777 24.3968 50.4777 24.3917C50.4777 24.3865 50.4771 24.3817 50.477 24.3765V17.204C50.477 17.199 50.4777 17.194 50.4777 17.1889C50.4777 17.1837 50.4771 17.1789 50.477 17.1737V12.0519H61.0032C63.5482 12.0519 65.6187 14.1223 65.6187 16.6673V26.4803C65.6187 30.39 62.4379 33.5708 58.5282 33.5708H57.5673C53.6577 33.5711 50.477 30.3903 50.477 26.4806ZM54.9354 35.5383C55.7715 35.7817 56.654 35.9147 57.5674 35.9147H58.5284C59.4423 35.9147 60.3252 35.7815 61.1616 35.5379V40.5706C61.1616 41.9611 60.0304 43.0923 58.6399 43.0923H58.3415V39.1112C58.3415 37.464 57.0005 36.1239 55.3526 36.1239H54.9354V35.5383ZM57.1787 61.9936C57.1755 61.9936 57.1727 61.9931 57.1696 61.9931C57.1665 61.9931 57.1637 61.9936 57.1605 61.9936H55.7794C54.8285 61.9936 54.0548 61.22 54.0548 60.2689V57.9207H58.1274V61.9934H57.1787V61.9936ZM55.3524 38.4676C55.7082 38.4676 55.9977 38.7564 55.9977 39.1114V41.499C55.7896 41.4531 55.5741 41.427 55.3524 41.427H32.9571C33.6227 40.504 34.2023 39.5136 34.6837 38.4678H55.3524V38.4676ZM3.73617 31.0222C3.73617 22.5653 10.5166 15.6851 18.851 15.6851C27.1854 15.6851 33.9659 22.5653 33.9659 31.0222C33.9659 39.479 27.1854 46.3592 18.851 46.3592C10.5166 46.3592 3.73617 39.479 3.73617 31.0222ZM39.1721 75.6561C39.1721 75.9479 38.9348 76.1853 38.6429 76.1853H34.9118C34.6199 76.1853 34.3826 75.9479 34.3826 75.6561V74.005H39.172L39.1721 75.6561ZM55.9979 71.0176C55.9979 71.3726 55.7084 71.6614 55.3526 71.6614H23.1166C22.7609 71.6614 22.4713 71.3726 22.4713 71.0176V48.3195C25.7143 47.6242 28.6277 46.0148 30.9354 43.7706H55.3524C55.7082 43.7706 55.9977 44.0593 55.9977 44.4143V55.5773H49.6748C49.0276 55.5773 48.5029 56.102 48.5029 56.7492C48.5029 57.3964 49.0276 57.9211 49.6748 57.9211H51.7112V60.2692C51.7112 62.5125 53.5362 64.3375 55.7794 64.3375H55.9979V71.0176ZM76.6773 59.8997C76.0799 61.1373 74.8123 61.9932 73.3485 61.9932C72.6563 61.9932 61.1566 61.9936 60.471 61.9936V57.9209H72.1666C72.8138 57.9209 73.3385 57.3962 73.3385 56.749C73.3385 56.1018 72.8138 55.5772 72.1666 55.5772H71.2601V48.1303C71.2601 47.4831 70.7354 46.9584 70.0882 46.9584C69.441 46.9584 68.9163 47.4831 68.9163 48.1303V55.5772H58.3412V45.4359H58.6396C61.1844 45.4359 63.2777 43.4717 63.4865 40.9798H69.486C73.6523 40.9798 77.0419 44.3693 77.0419 48.5358V58.2995C77.0421 58.6179 77.0118 59.2325 76.6773 59.8997Z" fill="black"/>
<path d="M30.8655 31.175C31.5259 30.9756 31.9696 30.3769 31.9696 29.6849C31.9696 28.993 31.526 28.3941 30.8655 28.1944L19.4271 24.7399C19.0504 24.6261 18.6518 24.6261 18.2749 24.7399L6.83633 28.1945C6.17602 28.3941 5.73242 28.993 5.73242 29.6849C5.73242 30.0097 5.83133 30.3134 6.00336 30.5655V34.4372C6.00336 35.0844 6.52805 35.6091 7.17523 35.6091C7.82242 35.6091 8.34711 35.0844 8.34711 34.4372V31.6313L10.1235 32.1677V37.5661C10.1235 38.4845 10.7413 39.2864 11.6255 39.5158L18.1437 41.2094C18.3751 41.2697 18.6132 41.2997 18.8513 41.2997C19.0893 41.2997 19.3271 41.2697 19.5584 41.2094L26.0765 39.5159C26.9612 39.2863 27.579 38.4845 27.579 37.5661V32.1675L30.8655 31.175ZM18.851 27.0141L27.6938 29.6847L18.851 32.3553L10.0082 29.6847L18.851 27.0141ZM25.2352 37.3131L18.9685 38.9414C18.8916 38.9614 18.8105 38.9613 18.7334 38.9414L12.4671 37.3133V32.8758L18.2749 34.6299C18.4634 34.6867 18.6573 34.7152 18.851 34.7152C19.0449 34.7152 19.2387 34.6867 19.4271 34.6299L25.2352 32.8756V37.3131Z" fill="black"/>
</g>
<defs>
<clipPath id="clip0">
<rect width="80" height="80" fill="white" transform="translate(0.388672)"/>
</clipPath>
</defs>
</svg>
