<svg width="74" height="73" viewBox="0 0 74 73" fill="none" xmlns="http://www.w3.org/2000/svg">
<g clip-path="url(#clip0)">
<path d="M52.1417 40.8089V27.5439C52.1417 24.4416 49.617 21.9175 46.5136 21.9175C45.0482 21.9175 43.6528 22.4968 42.6173 23.489C40.4462 20.8809 37.2429 19.3608 33.7961 19.3608C30.7269 19.3608 27.8414 20.5561 25.6712 22.7262C23.501 24.8964 22.3058 27.7819 22.3058 30.8512V40.6866C21.9894 40.8791 21.6937 41.1103 21.4252 41.3788C20.5427 42.2614 20.0566 43.4358 20.0566 44.6856C20.0566 47.2624 22.154 49.3589 24.732 49.3589H25.6229V49.5655C25.6229 51.0335 25.8959 52.4632 26.4344 53.815C26.653 54.3635 27.2748 54.6313 27.8236 54.4127C28.3722 54.1941 28.6398 53.5722 28.4212 53.0236C27.9834 51.9246 27.7615 50.7611 27.7615 49.5653V36.4596L27.7617 36.4262C27.7624 36.4117 27.7628 36.397 27.763 36.3825C27.7718 35.2427 28.3663 34.2184 29.3533 33.6423C30.3653 33.0516 31.583 33.0393 32.6113 33.6095C33.9866 34.3714 35.5497 34.7743 37.1317 34.7743C40.177 34.7743 42.9552 33.3299 44.6923 30.921C45.8672 32.5182 46.5019 34.4411 46.5019 36.4596V49.4342C46.5019 54.6344 42.3307 58.896 37.2037 58.9341C34.6851 58.9534 32.3254 57.9905 30.5412 56.2248C30.1215 55.8095 29.4444 55.8129 29.029 56.2328C28.6136 56.6526 28.6171 57.3297 29.037 57.745C29.3737 58.0781 29.729 58.3849 30.0972 58.6706C26.8145 60.4866 24.7216 63.9474 24.7216 67.8227V71.8695C24.7216 72.46 25.2004 72.9388 25.791 72.9388H48.4732C49.0638 72.9388 49.5425 72.46 49.5425 71.8695V67.8227C49.5425 63.9332 47.4374 60.4645 44.1364 58.6531C46.8715 56.52 48.6406 53.1761 48.6406 49.434V49.3586H49.5311C50.781 49.3586 51.9554 48.8725 52.8379 47.99C53.7205 47.1074 54.2065 45.9337 54.2065 44.6853C54.2064 43.0738 53.3864 41.6497 52.1417 40.8089ZM38.1657 69.3999C38.4416 69.6749 38.5934 70.0413 38.5934 70.4316V70.8006H35.6699V70.4316C35.6699 69.6286 36.3209 68.9751 37.1227 68.9703C37.1255 68.9703 37.1283 68.9704 37.131 68.9704C37.1342 68.9704 37.1373 68.9701 37.1404 68.9701C37.5267 68.9726 37.8901 69.1243 38.1657 69.3999ZM33.0135 60.3143C34.0097 60.6955 35.0601 60.9373 36.1418 61.0289V61.8277C36.1418 62.2456 35.9793 62.6376 35.6816 62.9343C35.3876 63.2294 34.9955 63.3918 34.5776 63.3918C33.7151 63.3918 33.0134 62.6902 33.0134 61.8277V60.3143H33.0135ZM38.235 66.3742C37.9431 66.6671 37.5546 66.8289 37.1403 66.8313C37.1374 66.8313 37.1346 66.8312 37.1316 66.8312C37.1286 66.8312 37.1255 66.8315 37.1225 66.8315C36.3069 66.8271 35.6382 66.1951 35.5734 65.395C36.1814 65.2263 36.7382 64.9041 37.194 64.4467C37.2002 64.4407 37.2057 64.4343 37.2117 64.4282C37.6206 64.8422 38.1262 65.16 38.6914 65.3458C38.6724 65.7341 38.514 66.0962 38.235 66.3742ZM39.8447 63.3919C38.9822 63.3919 38.2806 62.6903 38.2806 61.8279V61.0135C39.3755 60.9028 40.425 60.6345 41.4089 60.2331V61.8279C41.4089 62.2458 41.2464 62.6377 40.9487 62.9344C40.6547 63.2294 40.2626 63.3919 39.8447 63.3919ZM26.86 67.823C26.86 64.8437 28.4144 62.1726 30.8749 60.6921V61.8277C30.8749 63.4689 31.9486 64.8635 33.4303 65.3477C33.4518 66.3561 33.878 67.2662 34.5532 67.9221C33.9215 68.5711 33.5311 69.4563 33.5311 70.4314V70.8004H26.8599V67.823H26.86ZM47.4037 67.823V70.8004H40.7322V70.4314C40.7322 69.485 40.369 68.5956 39.7107 67.9216C39.7228 67.9098 39.7355 67.8985 39.7475 67.8864C40.4174 67.2187 40.7987 66.3392 40.8309 65.3974C41.4427 65.2296 42.003 64.9063 42.4611 64.4464C43.1618 63.7481 43.5477 62.8181 43.5477 61.8276V60.7906C45.9159 62.2895 47.4037 64.907 47.4037 67.823ZM24.732 47.2202C23.3334 47.2202 22.1953 46.0832 22.1953 44.6856C22.1953 44.0069 22.4589 43.3696 22.9374 42.8911C23.4161 42.4125 24.0534 42.149 24.7319 42.149H25.6227V47.2202H24.732ZM45.3004 28.3524C45.0573 28.1073 44.7109 27.9948 44.3703 28.0501C44.0296 28.1054 43.7365 28.3217 43.5832 28.6309C42.3596 31.1012 39.8876 32.6358 37.1317 32.6358C35.9114 32.6358 34.7068 32.3257 33.6481 31.7391C31.9537 30.7996 29.9451 30.8207 28.2752 31.7955C26.6355 32.7526 25.6455 34.4532 25.6244 36.3477C25.6232 36.385 25.6229 36.4224 25.6229 36.4597V40.0102H24.732C24.6357 40.0102 24.5398 40.0141 24.4445 40.0199V30.8513C24.4445 28.3533 25.4171 26.005 27.1834 24.2386C28.9496 22.4722 31.2982 21.4995 33.7961 21.4995C37.0011 21.4995 39.9481 23.1153 41.679 25.8217C41.8796 26.1354 42.2277 26.3225 42.6011 26.3148C42.9734 26.3074 43.315 26.1069 43.503 25.7854C44.1267 24.7188 45.2803 24.0561 46.5136 24.0561C48.4377 24.0561 50.0031 25.6207 50.0031 27.5438V40.0339C49.8478 40.0182 49.6904 40.0101 49.531 40.0101H48.6405V36.4596C48.6405 33.402 47.4543 30.5227 45.3004 28.3524ZM51.3256 46.478C50.847 46.9566 50.2097 47.2201 49.5311 47.2201H48.6406V42.1489H49.5311C50.9298 42.1489 52.0679 43.2868 52.0679 44.6856C52.0677 45.3629 51.8041 45.9995 51.3256 46.478Z" fill="black"/>
<path d="M32.489 46.9107C32.0714 47.3283 32.0714 48.0053 32.489 48.4229C33.7287 49.6626 35.3769 50.3454 37.1302 50.3454C38.8833 50.3454 40.5317 49.6626 41.7714 48.4229C42.189 48.0053 42.189 47.3283 41.7714 46.9107C41.3538 46.4931 40.6767 46.4931 40.2592 46.9107C39.4234 47.7465 38.3122 48.2067 37.1302 48.2067C35.9482 48.2067 34.8371 47.7465 34.0013 46.9107C33.5837 46.4931 32.9066 46.4929 32.489 46.9107Z" fill="black"/>
<path d="M35.4766 42.3735V40.2646C35.4766 39.6741 34.9978 39.1953 34.4072 39.1953C33.8167 39.1953 33.3379 39.6741 33.3379 40.2646V42.3735C33.3379 42.9641 33.8167 43.4429 34.4072 43.4429C34.9978 43.4429 35.4766 42.9641 35.4766 42.3735Z" fill="black"/>
<path d="M40.9238 42.3735V40.2646C40.9238 39.6741 40.4451 39.1953 39.8545 39.1953C39.2639 39.1953 38.7852 39.6741 38.7852 40.2646V42.3735C38.7852 42.9641 39.2639 43.4429 39.8545 43.4429C40.4451 43.4429 40.9238 42.9641 40.9238 42.3735Z" fill="black"/>
<path d="M31.2147 10.8035C31.3829 10.9675 31.4596 11.2036 31.4198 11.435L31.0409 13.6441C30.8561 14.722 31.2908 15.7909 32.1755 16.4338C32.6754 16.7971 33.2604 16.9816 33.8492 16.9816C34.3025 16.9816 34.7582 16.8722 35.1792 16.6509L37.1632 15.608C37.371 15.4986 37.6193 15.4986 37.8271 15.608L39.8111 16.6509C40.7792 17.1599 41.9301 17.0767 42.8148 16.4339C43.6996 15.791 44.1344 14.7221 43.9494 13.6442L43.5705 11.4353C43.5308 11.2037 43.6075 10.9676 43.7758 10.8036L45.3806 9.23913C46.1638 8.47577 46.4404 7.35554 46.1024 6.31543C45.7645 5.27532 44.8822 4.53149 43.7999 4.37423L41.5818 4.052C41.3494 4.01821 41.1485 3.87235 41.0446 3.66162L40.0526 1.6517C39.569 0.67076 38.5891 0.0615234 37.4954 0.0615234C36.4018 0.0615234 35.4217 0.67076 34.9377 1.65141L33.9457 3.66119C33.8418 3.87192 33.6409 4.01778 33.4084 4.05157L31.1903 4.3738C30.108 4.53106 29.2257 5.27489 28.8878 6.315C28.5499 7.35511 28.8265 8.47549 29.6095 9.23871L31.2147 10.8035ZM30.9219 6.97613C30.9632 6.84924 31.1017 6.54812 31.498 6.49051L33.716 6.16829C34.6451 6.03327 35.4479 5.44998 35.8636 4.60791L36.8555 2.59799C37.0327 2.23898 37.3619 2.2002 37.4954 2.2002C37.6288 2.2002 37.958 2.23898 38.1353 2.59799L39.1273 4.60805C39.5429 5.44998 40.3456 6.03327 41.2748 6.16829L43.4929 6.49051C43.8891 6.54812 44.0277 6.84938 44.0689 6.97613C44.1101 7.10289 44.175 7.42811 43.8883 7.70756L42.2834 9.27207C41.611 9.92736 41.3043 10.8711 41.463 11.7967L41.842 14.0058C41.9097 14.4003 41.6661 14.6253 41.5581 14.7037C41.4502 14.7821 41.1609 14.9444 40.8066 14.758L38.8226 13.7151C37.9915 13.2782 36.9993 13.2781 36.1681 13.7151L34.1841 14.758C33.8298 14.9443 33.5405 14.7821 33.4326 14.7037C33.3248 14.6253 33.0811 14.4005 33.1487 14.0058L33.5277 11.7966C33.6864 10.8712 33.3797 9.92736 32.7074 9.27207L31.1024 7.70756C30.8159 7.42811 30.8807 7.10289 30.9219 6.97613Z" fill="black"/>
<path d="M16.0502 10.3463L13.8321 10.024C13.5997 9.99024 13.3988 9.84438 13.2949 9.63379L12.303 7.62387C11.8189 6.64293 10.8388 6.03369 9.74525 6.03369C8.65168 6.03369 7.67159 6.64293 7.18754 7.62372L6.19562 9.6335C6.09169 9.84424 5.89079 9.99009 5.65825 10.0239L3.44016 10.3461C2.35799 10.5035 1.47572 11.2473 1.13781 12.2875C0.799898 13.3276 1.07636 14.4479 1.85954 15.2113L3.46454 16.7758C3.63278 16.9398 3.70935 17.1759 3.66971 17.4074L3.29088 19.6165C3.1061 20.6944 3.54082 21.7633 4.42552 22.4062C4.9254 22.7695 5.51039 22.954 6.09924 22.954C6.5525 22.954 7.00818 22.8447 7.42921 22.6234L9.41319 21.5804C9.62107 21.4711 9.86929 21.4712 10.0772 21.5804L12.0611 22.6234C13.0293 23.1324 14.1801 23.0491 15.0648 22.4064C15.9497 21.7635 16.3844 20.6946 16.1995 19.6167L15.8205 17.4076C15.7809 17.176 15.8576 16.9399 16.0257 16.7761L17.6308 15.2116C18.4139 14.4482 18.6905 13.3278 18.3526 12.2877C18.0148 11.2473 17.1325 10.5035 16.0502 10.3463ZM16.1382 13.6797L14.533 15.2442C13.8608 15.8997 13.5541 16.8434 13.7128 17.7689L14.0917 19.978C14.1595 20.3725 13.9158 20.5975 13.8079 20.6759C13.7001 20.7543 13.4108 20.9166 13.0563 20.7302L11.0724 19.6873C10.2411 19.2503 9.24894 19.2503 8.41785 19.6873L6.43387 20.7302C6.07971 20.9164 5.79028 20.7542 5.68234 20.6759C5.57455 20.5975 5.33089 20.3726 5.39847 19.978L5.7773 17.7689C5.93599 16.8434 5.62931 15.8997 4.95705 15.2442L3.35233 13.6797C3.06561 13.4003 3.13062 13.0751 3.17169 12.9483C3.21289 12.8214 3.35162 12.5203 3.74784 12.4627L5.96579 12.1405C6.89497 12.0054 7.69769 11.4221 8.11344 10.5802L9.10536 8.5703C9.28258 8.21129 9.6118 8.17251 9.74525 8.17251C9.8787 8.17251 10.2079 8.21129 10.3851 8.5703L11.3771 10.5802C11.7927 11.4223 12.5954 12.0054 13.5246 12.1405L15.7427 12.4627C16.1389 12.5203 16.2775 12.8214 16.3187 12.9483C16.3599 13.0752 16.4248 13.4003 16.1382 13.6797Z" fill="black"/>
<path d="M73.1336 15.2109C73.9166 14.4468 74.1929 13.3261 73.8547 12.286C73.5167 11.2466 72.6344 10.5032 71.5461 10.3453L71.4434 10.331C70.8587 10.2494 70.3183 10.6579 70.2369 11.2428C70.1557 11.8278 70.5639 12.3679 71.1489 12.4493L71.2451 12.4627C71.6412 12.5203 71.7798 12.821 71.821 12.9476C71.8623 13.0745 71.9273 13.4 71.6406 13.6797L70.0345 15.2445C69.3624 15.9005 69.0562 16.8445 69.2155 17.7684L69.5935 19.9781C69.6615 20.3725 69.418 20.5975 69.31 20.6759C69.2021 20.7545 68.913 20.917 68.5589 20.7309L66.5734 19.6861C65.7425 19.2513 64.7508 19.2515 63.9203 19.6871L61.9358 20.7308C61.5822 20.9167 61.2932 20.7547 61.1852 20.6763C61.0772 20.5978 60.8332 20.3726 60.9008 19.9777L61.2805 17.7673C61.4379 16.8407 61.1306 15.8971 60.4592 15.2438L58.8544 13.6803C58.5675 13.4004 58.6325 13.0751 58.6739 12.9482C58.7151 12.8214 58.8537 12.5201 59.2495 12.4627L61.4677 12.1405C62.3976 12.0056 63.2009 11.4223 63.6165 10.5797L64.607 8.57016C64.7843 8.21114 65.1138 8.17236 65.2473 8.17236C65.3807 8.17236 65.7102 8.21114 65.8876 8.57001L66.6475 10.1084C66.909 10.6378 67.5505 10.8551 68.0799 10.5936C68.6094 10.3321 68.8266 9.69082 68.5649 9.16129L67.805 7.62272C67.3206 6.6425 66.3406 6.03369 65.2471 6.03369C64.1538 6.03369 63.1738 6.64264 62.6891 7.62372L61.6984 9.63379C61.5944 9.84423 61.3935 9.99009 61.1606 10.0239L58.9419 10.3461C57.8602 10.5034 56.9782 11.2469 56.64 12.2867C56.3018 13.3267 56.578 14.4471 57.3614 15.2114L58.9674 16.7761C59.1352 16.9393 59.2117 17.1757 59.1725 17.407L58.7931 19.6161C58.6084 20.6944 59.0434 21.7638 59.9286 22.4067C60.813 23.049 61.9633 23.1324 62.9312 22.6237L64.9151 21.5804C65.1232 21.4711 65.3726 21.4713 65.5799 21.5798L67.5636 22.6238C67.9845 22.8451 68.4399 22.9543 68.893 22.9543C69.4823 22.9543 70.0677 22.7694 70.568 22.4057C71.4527 21.7623 71.887 20.6931 71.7015 19.6164L71.3235 17.4066C71.2836 17.1753 71.3603 16.9392 71.5278 16.7758L73.1336 15.2109Z" fill="black"/>
</g>
<defs>
<clipPath id="clip0">
<rect width="73" height="73" fill="white" transform="translate(0.996094)"/>
</clipPath>
</defs>
</svg>
