<svg width="81" height="81" viewBox="0 0 81 81" fill="none" xmlns="http://www.w3.org/2000/svg">
<path d="M61.7031 46.4873H64.2031V48.9873H61.7031V46.4873Z" fill="black"/>
<path d="M69.2031 27.1473V15.2373C69.2031 14.2427 68.808 13.2889 68.1047 12.5857C67.4015 11.8824 66.4476 11.4873 65.4531 11.4873C65.0263 11.4914 64.6034 11.5693 64.2031 11.7173V11.4873C64.2031 10.4927 63.808 9.53892 63.1047 8.83565C62.4014 8.13239 61.4476 7.7373 60.4531 7.7373C60.0263 7.74145 59.6034 7.81926 59.2031 7.9673V6.4873C59.2031 5.49274 58.808 4.53892 58.1047 3.83565C57.4014 3.13239 56.4476 2.7373 55.4531 2.7373C54.4585 2.7373 53.5047 3.13239 52.8014 3.83565C52.0981 4.53892 51.7031 5.49274 51.7031 6.4873V6.7173C51.3027 6.56926 50.8799 6.49145 50.4531 6.4873C49.4585 6.4873 48.5047 6.88239 47.8014 7.58565C47.0981 8.28892 46.7031 9.24274 46.7031 10.2373V23.2148L45.3893 23.8711C44.3445 24.3937 43.4553 25.1815 42.8106 26.1557C42.166 27.1299 41.7885 28.2564 41.716 29.4223C41.6435 30.5883 41.8784 31.7528 42.3974 32.7994C42.9163 33.8461 43.7011 34.738 44.6731 35.3861L48.0893 37.6636C48.4318 37.8918 48.7127 38.201 48.907 38.5639C49.1013 38.9268 49.203 39.332 49.2031 39.7436V41.4873H47.9531C47.6215 41.4873 47.3036 41.619 47.0692 41.8534C46.8347 42.0878 46.7031 42.4058 46.7031 42.7373V77.7373H49.2031V43.9873H66.7031V77.7373H69.2031V42.7373C69.2031 42.4058 69.0714 42.0878 68.8369 41.8534C68.6025 41.619 68.2846 41.4873 67.9531 41.4873H66.7031V38.0286C68.344 34.6356 69.1985 30.9162 69.2031 27.1473ZM51.7031 41.4873V39.7436C51.7039 38.9203 51.5011 38.1096 51.1127 37.3838C50.7242 36.658 50.1622 36.0395 49.4768 35.5836L46.0593 33.3061C45.4517 32.9008 44.9613 32.3431 44.6369 31.6888C44.3126 31.0344 44.1658 30.3064 44.2113 29.5775C44.2567 28.8486 44.4928 28.1444 44.8958 27.5354C45.2989 26.9264 45.8549 26.434 46.5081 26.1073L46.7031 26.0098V28.9873H49.2031V10.2373C49.2031 9.90578 49.3347 9.58784 49.5692 9.35342C49.8036 9.119 50.1215 8.9873 50.4531 8.9873C50.7846 8.9873 51.1025 9.119 51.3369 9.35342C51.5714 9.58784 51.7031 9.90578 51.7031 10.2373V22.7373H54.2031V6.4873C54.2031 6.15578 54.3348 5.83784 54.5692 5.60342C54.8036 5.369 55.1215 5.2373 55.4531 5.2373C55.7846 5.2373 56.1025 5.369 56.3369 5.60342C56.5714 5.83784 56.7031 6.15578 56.7031 6.4873V23.9873H59.2031V11.4873C59.2031 11.1558 59.3348 10.8378 59.5692 10.6034C59.8036 10.369 60.1215 10.2373 60.4531 10.2373C60.7846 10.2373 61.1025 10.369 61.3369 10.6034C61.5714 10.8378 61.7031 11.1558 61.7031 11.4873V25.2373H64.2031V15.2373C64.2031 14.9058 64.3348 14.5878 64.5692 14.3534C64.8036 14.119 65.1215 13.9873 65.4531 13.9873C65.7846 13.9873 66.1025 14.119 66.3369 14.3534C66.5714 14.5878 66.7031 14.9058 66.7031 15.2373V27.1473C66.6973 30.6297 65.8844 34.0633 64.3281 37.1786C64.2437 37.3526 64.2009 37.5439 64.2031 37.7373V41.4873H51.7031Z" fill="black"/>
<path d="M31.7031 71.4873H34.2031V73.9873H31.7031V71.4873Z" fill="black"/>
<path d="M39.2031 52.1473V43.9873C39.2031 42.9927 38.808 42.0389 38.1047 41.3357C37.4014 40.6324 36.4476 40.2373 35.4531 40.2373C35.0263 40.2414 34.6034 40.3193 34.2031 40.4673V40.2373C34.2031 39.2427 33.808 38.2889 33.1047 37.5857C32.4014 36.8824 31.4476 36.4873 30.4531 36.4873C30.0263 36.4914 29.6034 36.5693 29.2031 36.7173V35.2373C29.2031 34.2427 28.808 33.2889 28.1047 32.5857C27.4014 31.8824 26.4476 31.4873 25.4531 31.4873C24.4585 31.4873 23.5047 31.8824 22.8014 32.5857C22.0981 33.2889 21.7031 34.2427 21.7031 35.2373V35.4673C21.3027 35.3193 20.8799 35.2414 20.4531 35.2373C19.4585 35.2373 18.5047 35.6324 17.8014 36.3357C17.0981 37.0389 16.7031 37.9927 16.7031 38.9873V48.2148L15.3893 48.8711C14.3445 49.3937 13.4553 50.1815 12.8106 51.1557C12.166 52.1299 11.7885 53.2564 11.716 54.4223C11.6435 55.5883 11.8784 56.7528 12.3974 57.7994C12.9163 58.8461 13.7011 59.738 14.6731 60.3861L18.0893 62.6636C18.4318 62.8918 18.7127 63.2011 18.907 63.5639C19.1013 63.9268 19.203 64.332 19.2031 64.7436V66.4873H17.9531C17.6215 66.4873 17.3036 66.619 17.0692 66.8534C16.8347 67.0878 16.7031 67.4058 16.7031 67.7373V77.7373H19.2031V68.9873H36.7031V77.7373H39.2031V67.7373C39.2031 67.4058 39.0714 67.0878 38.8369 66.8534C38.6025 66.619 38.2846 66.4873 37.9531 66.4873H36.7031V63.0286C38.344 59.6356 39.1985 55.9162 39.2031 52.1473ZM21.7031 66.4873V64.7373C21.7039 63.9141 21.5011 63.1034 21.1127 62.3776C20.7242 61.6517 20.1622 61.0333 19.4768 60.5773L16.0593 58.2998C15.4517 57.8946 14.9613 57.3369 14.6369 56.6825C14.3126 56.0282 14.1658 55.3001 14.2113 54.5712C14.2567 53.8424 14.4928 53.1382 14.8959 52.5292C15.2989 51.9202 15.8549 51.4277 16.5081 51.1011L16.7031 51.0098V53.9873H19.2031V38.9873C19.2031 38.6558 19.3347 38.3378 19.5692 38.1034C19.8036 37.869 20.1215 37.7373 20.4531 37.7373C20.7846 37.7373 21.1025 37.869 21.3369 38.1034C21.5714 38.3378 21.7031 38.6558 21.7031 38.9873V47.7373H24.2031V35.2373C24.2031 34.9058 24.3347 34.5878 24.5692 34.3534C24.8036 34.119 25.1215 33.9873 25.4531 33.9873C25.7846 33.9873 26.1025 34.119 26.3369 34.3534C26.5714 34.5878 26.7031 34.9058 26.7031 35.2373V48.9873H29.2031V40.2373C29.2031 39.9058 29.3347 39.5878 29.5692 39.3534C29.8036 39.119 30.1215 38.9873 30.4531 38.9873C30.7846 38.9873 31.1025 39.119 31.3369 39.3534C31.5714 39.5878 31.7031 39.9058 31.7031 40.2373V50.2373H34.2031V43.9873C34.2031 43.6558 34.3347 43.3378 34.5692 43.1034C34.8036 42.869 35.1215 42.7373 35.4531 42.7373C35.7846 42.7373 36.1025 42.869 36.3369 43.1034C36.5714 43.3378 36.7031 43.6558 36.7031 43.9873V52.1473C36.6993 55.6292 35.8885 59.0628 34.3343 62.1786C34.2478 62.3521 34.2029 62.5434 34.2031 62.7373V66.4873H21.7031Z" fill="black"/>
<path d="M40.4531 25.2373H32.9531C32.6216 25.2373 32.3037 25.369 32.0692 25.6034C31.8348 25.8378 31.7031 26.1558 31.7031 26.4873V29.1511L26.1469 25.4473C25.9412 25.3107 25.7 25.2377 25.4531 25.2373H16.7031C16.0401 25.2373 15.4042 24.9739 14.9354 24.5051C14.4665 24.0362 14.2031 23.4003 14.2031 22.7373V12.7373C14.2031 12.0743 14.4665 11.4384 14.9354 10.9695C15.4042 10.5007 16.0401 10.2373 16.7031 10.2373H44.2031V7.7373H16.7031C15.377 7.7373 14.1053 8.26409 13.1676 9.20177C12.2299 10.1395 11.7031 11.4112 11.7031 12.7373V22.7373C11.7031 24.0634 12.2299 25.3352 13.1676 26.2728C14.1053 27.2105 15.377 27.7373 16.7031 27.7373H25.0781L32.2631 32.5273C32.4513 32.6519 32.6698 32.7232 32.8952 32.7337C33.1207 32.7441 33.3448 32.6933 33.5437 32.5867C33.7426 32.48 33.909 32.3215 34.0251 32.128C34.1412 31.9344 34.2027 31.713 34.2031 31.4873V27.7373H40.4531V25.2373Z" fill="black"/>
<path d="M17.9531 13.9873H20.4531V16.4873H17.9531V13.9873Z" fill="black"/>
<path d="M22.9531 13.9873H44.2031V16.4873H22.9531V13.9873Z" fill="black"/>
<path d="M17.9531 18.9873H44.2031V21.4873H17.9531V18.9873Z" fill="black"/>
<path d="M71.7031 47.7373H74.2031V68.9873H71.7031V47.7373Z" fill="black"/>
<path d="M71.7031 71.4873H74.2031V73.9873H71.7031V71.4873Z" fill="black"/>
<path d="M8.10204 60.3823L10.302 59.1948C9.58131 57.8554 9.20381 56.3583 9.20329 54.8373C9.19483 53.2627 9.59584 51.7129 10.367 50.34C11.1382 48.967 12.253 47.8182 13.602 47.0061C13.7856 46.8946 13.9374 46.7377 14.0427 46.5505C14.148 46.3633 14.2033 46.1521 14.2033 45.9373V38.9873H11.7033V45.2586C10.1526 46.3271 8.88653 47.7583 8.01511 49.4277C7.1437 51.0971 6.69336 52.9542 6.70329 54.8373C6.70406 56.7728 7.18464 58.678 8.10204 60.3823Z" fill="black"/>
<path d="M9.71484 62.6636C10.3622 63.3789 11.0957 64.0112 11.8986 64.5461L13.2861 62.4661C12.6549 62.0458 12.078 61.5491 11.5686 60.9873L9.71484 62.6636Z" fill="black"/>
</svg>
