<svg width="89" height="88" viewBox="0 0 89 88" fill="none" xmlns="http://www.w3.org/2000/svg">
<path d="M43.8691 44.9472C46.4569 44.9472 48.5624 42.8423 48.5624 40.2539C48.5624 37.6655 46.4569 35.5605 43.8691 35.5605C41.2813 35.5605 39.1758 37.6655 39.1758 40.2539C39.1758 42.8423 41.2813 44.9472 43.8691 44.9472ZM43.8691 37.9072C45.1633 37.9072 46.2158 38.9603 46.2158 40.2539C46.2158 41.5475 45.1633 42.6006 43.8691 42.6006C42.5749 42.6006 41.5224 41.5475 41.5224 40.2539C41.5224 38.9603 42.5749 37.9072 43.8691 37.9072Z" fill="black"/>
<path d="M34.912 49.2142C38.2565 53.8641 40.5255 59.0684 41.6551 64.6828L42.7178 69.964C42.8278 70.5116 43.3086 70.9047 43.8665 70.9059H43.8683C44.4256 70.9059 44.9064 70.514 45.0176 69.9675L46.1375 64.4892C47.2833 58.8871 49.5631 53.6954 52.9135 49.0605L57.1393 43.2143C57.3646 42.9028 57.4229 42.5004 57.2951 42.1372L53.255 30.6664V27.1473C54.6149 26.6812 55.6016 25.4043 55.6016 23.8878V17.9607C55.6016 17.3121 55.0763 16.7874 54.4283 16.7874C53.7803 16.7874 53.255 17.3121 53.255 17.9607V23.8881C53.255 24.5011 52.756 25.0007 52.1424 25.0007H52.0816H35.655H35.5942C34.9806 25.0007 34.4816 24.5011 34.4816 23.8881V17.9607C34.4816 17.3121 33.9563 16.7874 33.3083 16.7874C32.6603 16.7874 32.135 17.3121 32.135 17.9607V23.8881C32.135 25.4043 33.1217 26.6812 34.4816 27.1476V30.667L30.4416 42.1378C30.3142 42.4998 30.3717 42.9011 30.5956 43.2126L34.912 49.2142ZM50.9083 27.3474V29.694H36.8283V27.3474H50.9083ZM36.4857 32.0407H51.2506L54.8774 42.3382L51.0113 47.6856C48.3947 51.3062 46.3971 55.2469 45.0413 59.4456V49.6404C45.0413 48.9918 44.516 48.4671 43.868 48.4671C43.22 48.4671 42.6947 48.9918 42.6947 49.6404V59.4242C41.3503 55.2947 39.3847 51.4148 36.8172 47.8437L32.8583 42.339L36.4857 32.0407Z" fill="black"/>
<path d="M64.8478 14.5826C65.0769 14.8117 65.3772 14.9264 65.6773 14.9264C65.9774 14.9264 66.2778 14.8117 66.5069 14.5826L67.3364 13.7531L68.1659 14.5826C68.395 14.8117 68.6954 14.9264 68.9955 14.9264C69.2956 14.9264 69.5959 14.8117 69.825 14.5826C70.2832 14.1245 70.2832 13.3817 69.825 12.9235L68.9955 12.094L69.825 11.2645C70.2832 10.8063 70.2832 10.0635 69.825 9.60536C69.3668 9.14717 68.6241 9.14717 68.1659 9.60536L67.3364 10.4349L66.5069 9.60536C66.0487 9.14717 65.306 9.14717 64.8478 9.60536C64.3896 10.0635 64.3896 10.8063 64.8478 11.2645L65.6773 12.094L64.8478 12.9235C64.3893 13.3817 64.3893 14.1242 64.8478 14.5826Z" fill="black"/>
<path d="M23.9233 19.134C24.5713 19.134 25.0967 18.6087 25.0967 17.9607C25.0967 17.3127 24.5713 16.7874 23.9233 16.7874C23.2753 16.7874 22.75 17.3127 22.75 17.9607C22.75 18.6087 23.2753 19.134 23.9233 19.134Z" fill="black"/>
<path d="M78.8613 48.2633C79.0388 47.7018 78.7724 47.0958 78.2386 46.8459C78.1497 46.8051 77.2855 46.4118 75.9919 46.0554C78.6041 42.6946 78.7777 38.1312 78.7842 37.9083C78.8015 37.3193 78.3797 36.8095 77.7983 36.7156C77.6384 36.691 75.1612 36.3132 72.3549 36.8767C72.64 36.1903 72.8612 35.4983 72.9765 34.7999C73.818 29.702 69.9944 24.9708 69.8311 24.7725C69.4582 24.3164 68.805 24.2076 68.3042 24.5206C68.086 24.6558 62.9448 27.9077 62.1035 33.0055C61.579 36.1815 62.8444 39.1937 63.9606 41.1194C63.84 42.631 63.0914 49.9039 59.401 57.4288C55.8091 64.7548 50.6734 70.0081 44.0849 73.1679C37.4966 70.0084 32.3609 64.7551 28.7688 57.4288C25.0775 49.9015 24.3295 42.6272 24.2092 41.1183C25.2954 39.2359 26.5928 36.1923 26.0669 33.0052C25.2247 27.9074 20.0841 24.6555 19.8655 24.5203C19.3642 24.2064 18.711 24.3164 18.3387 24.7723C18.1753 24.9705 14.3517 29.7017 15.1933 34.7996C15.3086 35.4974 15.5271 36.1897 15.8122 36.8758C13.008 36.3132 10.5325 36.6898 10.3718 36.7153C9.7904 36.8092 9.36859 37.3193 9.38589 37.908C9.39235 38.1307 9.566 42.6932 12.1773 46.0539C10.8839 46.4103 10.0201 46.8045 9.9312 46.8456C9.39733 47.0955 9.13069 47.7015 9.30904 48.263C9.36771 48.4501 10.6202 52.3042 13.6202 54.8609C13.0502 55.134 12.6959 55.3429 12.6422 55.3751C12.1374 55.6787 11.9358 56.3103 12.1714 56.8497C12.2394 57.0061 13.6812 60.2577 16.523 62.5058C14.6732 63.8223 13.5134 65.2335 13.4266 65.3414C13.0575 65.8008 13.0857 66.462 13.4926 66.8882C13.6662 67.0692 17.7007 71.2286 22.6897 71.2286C22.8147 71.2286 22.9405 71.2263 23.0673 71.2207C27.44 71.0353 30.8608 67.635 31.9057 66.4749C34.3899 69.4557 37.4905 72.1867 41.3416 74.3429C38.6383 75.3453 35.7196 76.0343 32.5848 76.3998C31.9409 76.4743 31.4801 77.0575 31.5551 77.7016C31.6244 78.2985 32.1316 78.7386 32.7188 78.7386C32.7646 78.7386 32.8103 78.7362 32.8564 78.7306C37.1241 78.2334 40.8327 77.1663 44.0849 75.7172C47.3368 77.1666 51.0454 78.2334 55.3131 78.7306C55.3594 78.7365 55.4046 78.7386 55.4507 78.7386C56.0379 78.7386 56.5448 78.2985 56.6143 77.7016C56.6894 77.0578 56.2289 76.4743 55.5847 76.3998C52.4499 76.0343 49.5315 75.3453 46.8281 74.3429C50.6796 72.1867 53.7798 69.4554 56.2644 66.4749C57.3092 67.635 60.7304 71.0353 65.1025 71.2207C65.2292 71.2266 65.3545 71.2286 65.48 71.2286C70.4696 71.2286 74.5041 67.0692 74.6775 66.8882C75.0844 66.462 75.1122 65.7996 74.7429 65.3414C74.6564 65.2335 73.4965 63.8226 71.6468 62.5058C74.4886 60.2577 75.93 57.0058 75.9981 56.8497C76.2336 56.31 76.0318 55.6787 75.5273 55.3751C75.4739 55.3432 75.1193 55.1343 74.5493 54.8615C77.5498 52.3051 78.8021 48.4504 78.8613 48.2633ZM17.5095 34.4171C17.0299 31.5136 18.5901 28.5894 19.517 27.1594C20.8549 28.216 23.272 30.4835 23.7516 33.388C24.2016 36.1146 22.8543 38.8549 21.9206 40.3632C21.539 39.8921 21.109 39.446 20.6212 39.0429C20.1712 38.671 19.693 38.3598 19.2023 38.0881C18.2836 36.8761 17.711 35.6417 17.5095 34.4171ZM11.8429 38.935C13.5439 38.8593 16.8577 38.9775 19.1257 40.8507C21.3032 42.6506 22.0755 45.6984 22.3462 47.432C21.7646 46.9884 21.1307 46.5904 20.4258 46.2809C18.5851 45.4737 16.6268 45.3672 14.9032 45.5408C12.7941 43.6456 12.0749 40.57 11.8429 38.935ZM11.9529 48.5783C13.5674 48.0351 16.7882 47.2469 19.4827 48.4305C22.3908 49.7076 24.0191 52.9801 24.6122 54.4089C24.1127 54.1382 23.585 53.9008 23.0212 53.7207C20.6297 52.9548 18.1674 53.2954 16.2382 53.8607C13.9642 52.5236 12.5818 49.9951 11.9529 48.5783ZM14.8316 56.8858C16.3751 56.1754 19.4883 55.0548 22.3069 55.9554C25.4975 56.9759 27.5074 60.358 28.1443 61.5797C26.5805 60.7637 24.6721 60.1192 22.5991 60.211C21.2028 60.2703 19.9075 60.6634 18.7503 61.2019C16.836 59.9928 15.5037 58.0533 14.8316 56.8858ZM22.9675 68.877C20.0084 68.9802 17.3088 67.0976 16.0026 66.0055C17.2073 64.8058 19.7432 62.6815 22.6988 62.5554C25.6418 62.4386 28.3569 64.3347 29.6637 65.4268C28.459 66.6265 25.9232 68.7508 22.9675 68.877ZM76.3275 38.935C76.0952 40.5703 75.3759 43.6471 73.266 45.542C71.5426 45.3687 69.5844 45.4746 67.7446 46.2809C67.0397 46.5904 66.4058 46.9884 65.8241 47.432C66.0946 45.6984 66.8672 42.6506 69.0446 40.8507C71.3127 38.9775 74.6297 38.8608 76.3275 38.935ZM64.4193 33.388C64.8984 30.4823 67.3184 28.2122 68.6554 27.1571C69.5829 28.5824 71.1428 31.4987 70.6606 34.4171C70.4582 35.6455 69.8783 36.8816 68.9563 38.0949C68.47 38.365 67.9957 38.6739 67.5492 39.0426C67.0617 39.4457 66.632 39.8912 66.2506 40.362C65.3252 38.8713 63.9658 36.1319 64.4193 33.388ZM65.2025 68.877C62.2613 68.752 59.7157 66.623 58.5069 65.4236C59.8087 64.3315 62.5103 62.45 65.4712 62.5556C68.4113 62.6806 70.9557 64.8073 72.1657 66.007C70.8577 67.0997 68.1403 68.972 65.2025 68.877ZM69.4186 61.2013C68.2617 60.6631 66.9666 60.27 65.5707 60.211C63.503 60.1136 61.5904 60.7628 60.0214 61.5844C60.6494 60.3706 62.6491 56.9835 65.8637 55.9556C68.6671 55.0607 71.7905 56.1803 73.339 56.8896C72.6702 58.0556 71.3429 59.9899 69.4186 61.2013ZM65.1497 53.721C64.5845 53.9014 64.0559 54.1393 63.5552 54.411C64.1424 52.9862 65.7616 49.7147 68.6873 48.4308C71.3825 47.2472 74.6027 48.0354 76.2178 48.5786C75.588 49.9954 74.2055 52.5248 71.9313 53.8618C70.0026 53.2969 67.5413 52.9563 65.1497 53.721Z" fill="black"/>
</svg>
