<svg width="81" height="81" viewBox="0 0 81 81" fill="none" xmlns="http://www.w3.org/2000/svg">
<path d="M55.2265 32.2328C54.7253 31.7294 53.9118 31.7282 53.4084 32.2303C52.9062 32.7314 52.9037 33.545 53.4058 34.0484L54.8552 35.5033L53.3994 36.954C52.8972 37.4552 52.8947 38.2688 53.3968 38.7722C53.6478 39.0245 53.977 39.1502 54.3071 39.1502C54.635 39.1502 54.9639 39.0245 55.2149 38.7747L56.6698 37.325L58.1205 38.7812C58.3716 39.0335 58.7008 39.1592 59.0309 39.1592C59.3588 39.1592 59.6876 39.0348 59.9387 38.7837C60.4408 38.2826 60.4433 37.469 59.9412 36.9656L58.4912 35.51L59.9477 34.0587C60.4498 33.5575 60.4523 32.744 59.9502 32.2406C59.4491 31.7372 58.6355 31.7359 58.1321 32.238L56.6766 33.6884L55.2265 32.2328Z" fill="black"/>
<path d="M51.4726 16.8974C53.5997 16.8974 55.3301 15.1671 55.3301 13.04C55.3301 10.913 53.5997 9.18262 51.4726 9.18262C49.3456 9.18262 47.6152 10.913 47.6152 13.04C47.6152 15.1671 49.3456 16.8974 51.4726 16.8974ZM51.4726 11.7542C52.1821 11.7542 52.7585 12.3306 52.7585 13.04C52.7585 13.7495 52.1821 14.3258 51.4726 14.3258C50.7632 14.3258 50.1868 13.7495 50.1868 13.04C50.1868 12.3306 50.7632 11.7542 51.4726 11.7542Z" fill="black"/>
<path d="M67.8029 26.6901C68.5994 26.5792 69.1552 25.8437 69.0447 25.0475C68.9341 24.2513 68.1986 23.6952 67.402 23.8061C66.6055 23.917 66.0497 24.6521 66.1606 25.4487C66.2712 26.2449 67.0066 26.8007 67.8029 26.6901Z" fill="black"/>
<path d="M75.9015 69.6156H9.63856L21.8916 61.9008H68.1866C68.8974 61.9008 69.4725 61.3257 69.4725 60.615C69.4725 59.9043 68.8974 59.3292 68.1866 59.3292H25.9763L32.1228 55.4592C32.1443 55.4605 32.1626 55.4718 32.1845 55.4718H61.758C62.4687 55.4718 63.0438 54.8967 63.0438 54.186C63.0438 53.4752 62.4687 52.9002 61.758 52.9002H36.1875L40.2719 50.3286H56.6144C57.3251 50.3286 57.9002 49.7535 57.9002 49.0428C57.9002 48.332 57.3251 47.757 56.6144 47.757H41.1848V28.4699C41.1848 27.8322 40.7177 27.2908 40.0873 27.1979L5.37066 22.0547C5.0026 22.0033 4.62618 22.1087 4.34234 22.3537C4.05978 22.597 3.89648 22.9525 3.89648 23.3267V70.9014C3.89648 71.6121 4.47156 72.1872 5.18229 72.1872H75.9015C76.6122 72.1872 77.1873 71.6121 77.1873 70.9014C77.1873 70.1907 76.6122 69.6156 75.9015 69.6156ZM30.8984 42.074V53.1908L21.8977 58.8579V44.0741L30.8984 42.074ZM21.8977 41.4392V27.1028L30.8984 28.4358V39.4388L21.8977 41.4392ZM38.6132 48.3333L33.47 51.5716V41.5025L38.6132 40.3594V48.3333ZM38.6132 37.7245L33.47 38.8676V28.8168L38.6132 29.5786V37.7245ZM19.3261 26.7219V42.0107L6.46809 44.8681V24.8176L19.3261 26.7219ZM6.46809 47.503L19.3261 44.6456V60.4771L6.46809 68.5731V47.503Z" fill="black"/>
</svg>
