<svg width="82" height="82" viewBox="0 0 82 82" fill="none" xmlns="http://www.w3.org/2000/svg">
<path d="M37.1562 29.4688H44.8438V32.0312H37.1562V29.4688Z" fill="black"/>
<path d="M74.3125 34.5938H73.0312V30.75C73.0312 28.6308 71.3067 26.9062 69.1875 26.9062C67.0683 26.9062 65.3438 28.6308 65.3438 30.75V34.8295C63.8562 35.3599 62.7812 36.7693 62.7812 38.4375V41.4395C62.7812 43.1512 63.4488 44.7605 64.6583 45.97L65.2528 46.5645L64.279 52.4057C61.099 45.3908 54.8208 40.2953 47.1756 38.6374L46.6631 36.5912C49.6958 35.4688 51.9547 32.7564 52.4287 29.4675H52.5312C55.3577 29.4675 57.6562 27.1689 57.6562 24.3425C57.6562 23.297 57.3385 22.3271 56.8004 21.516L57.2091 19.8824C57.5063 18.6947 57.6575 17.4737 57.6575 16.2514C57.6562 7.99628 50.9412 1.28125 42.6848 1.28125H39.3139C31.0588 1.28125 24.3438 7.99628 24.3438 16.2527C24.3438 17.475 24.4937 18.696 24.7922 19.8837L25.2009 21.5186C24.6615 22.3283 24.3438 23.2995 24.3438 24.3438C24.3438 27.1702 26.6423 29.4688 29.4688 29.4688H29.5712C30.0453 32.7577 32.3042 35.4688 35.3369 36.5925L34.8308 38.6143C24.4142 40.5323 16.6562 49.7317 16.6562 60.402V66.625C16.6562 74.3958 22.9792 80.7188 30.75 80.7188H42.2812C44.8232 80.7188 46.9219 78.8558 47.3217 76.4266C48.8336 75.8846 50.4108 75.5938 52.0252 75.5938H57.6562V72.7276L59.4423 74.8698C61.1835 76.9583 63.7409 78.1562 66.4597 78.1562C71.4963 78.1562 75.5938 74.0588 75.5938 69.0222V46.6554L76.2792 45.97C77.4887 44.7605 78.1562 43.1512 78.1562 41.4395V38.4375C78.1562 36.3183 76.4317 34.5938 74.3125 34.5938ZM69.1875 29.4688C69.8947 29.4688 70.4688 30.0427 70.4688 30.75V34.8295C69.9896 34.9999 69.5578 35.26 69.1875 35.5931C68.8172 35.2587 68.3854 34.9999 67.9062 34.8295V30.75C67.9062 30.0427 68.4803 29.4688 69.1875 29.4688ZM42.1134 70.4688C41.6483 68.9851 40.2594 67.9062 38.6233 67.9062C37.2293 67.9062 35.9775 68.6801 35.3522 69.9281L35.0832 70.4688H32.0312V57.6562H35.0998C37.6431 57.6562 40.1108 58.3494 42.2812 59.6524V70.4688H42.1134ZM38.6348 42.5311L35.1408 45.3255L33.6174 41.5163C34.2939 41.3293 34.982 41.1717 35.6867 41.0564L38.6348 42.5311ZM40.6861 49.9688H41.3152L43.4228 57.3462C42.0596 56.5505 40.599 55.9637 39.0807 55.587L40.6861 49.9688ZM41.4894 47.4062H40.5106L39.4061 45.1974L41 43.9225L42.5939 45.1974L41.4894 47.4062ZM43.3652 42.5311L46.2967 41.0653C46.9962 41.2063 47.6817 41.3805 48.3557 41.583L46.8579 45.3255L43.3652 42.5311ZM49.9688 21.7812C49.9688 23.1945 48.8195 24.3438 47.4062 24.3438C45.993 24.3438 44.8438 23.1945 44.8438 21.7812C44.8438 20.368 45.993 19.2188 47.4062 19.2188C48.8195 19.2188 49.9688 20.368 49.9688 21.7812ZM52.5312 26.9062V21.7812C53.9445 21.7812 55.0938 22.9305 55.0938 24.3438C55.0938 25.757 53.9445 26.9062 52.5312 26.9062ZM39.3152 3.84375H42.6861C49.5267 3.84375 55.0938 9.41078 55.0938 16.2527C55.0938 17.2648 54.9682 18.2783 54.7235 19.2636L54.621 19.6749C53.9803 19.3866 53.2769 19.2188 52.5312 19.2188H52.4685C52.1546 16.3013 49.8893 13.9131 46.9207 13.5428L46.2442 13.4583C43.984 13.1751 42.2812 11.2455 42.2812 8.96875H39.7188C39.7188 12.5357 42.3876 15.5595 45.9251 16.0002L46.6016 16.0848C47.2307 16.1642 47.8009 16.4038 48.2954 16.7447C48.0046 16.6947 47.7112 16.6562 47.4062 16.6562C45.0244 16.6562 43.0359 18.295 42.4632 20.5H39.5368C38.9641 18.295 36.9756 16.6562 34.5938 16.6562C33.6802 16.6562 32.8359 16.9163 32.0915 17.3353C32.3759 15.5454 33.8891 14.1706 35.743 14.1066C36.5015 15.5416 37.6111 16.7908 39.0077 17.7222L40.4286 15.5903C38.3798 14.2244 37.1562 11.9374 37.1562 9.47484V8.96875H34.5938V9.47484C34.5938 10.2116 34.6873 10.9329 34.8436 11.6363C31.8032 12.1322 29.4688 14.7587 29.4688 17.9375V19.2188C28.7231 19.2188 28.0197 19.3866 27.379 19.6749L27.2765 19.2636C27.0318 18.2783 26.9062 17.2648 26.9062 16.2527C26.9062 9.41078 32.4733 3.84375 39.3152 3.84375ZM34.5938 19.2188C36.007 19.2188 37.1562 20.368 37.1562 21.7812C37.1562 23.1945 36.007 24.3438 34.5938 24.3438C33.1805 24.3438 32.0312 23.1945 32.0312 21.7812C32.0312 20.368 33.1805 19.2188 34.5938 19.2188ZM26.9062 24.3438C26.9062 22.9305 28.0555 21.7812 29.4688 21.7812V26.9062C28.0555 26.9062 26.9062 25.757 26.9062 24.3438ZM32.0312 28.1875V26.1939C32.7885 26.6346 33.6559 26.9062 34.5938 26.9062C36.9756 26.9062 38.9641 25.2675 39.5368 23.0625H42.4632C43.0359 25.2675 45.0244 26.9062 47.4062 26.9062C48.3441 26.9062 49.2115 26.6346 49.9688 26.1939V28.1875C49.9688 31.7199 47.0949 34.5938 43.5625 34.5938H38.4375C34.9051 34.5938 32.0312 31.7199 32.0312 28.1875ZM38.4375 37.1562H43.5625C43.7624 37.1562 43.9597 37.1396 44.1557 37.1268L44.6323 39.032L41 40.8488L37.3677 39.032L37.8443 37.1268C38.0403 37.1396 38.2376 37.1562 38.4375 37.1562ZM19.2188 66.625V60.402C19.2188 52.4288 24.117 45.378 31.1946 42.3581L34.0467 49.487L37.3612 46.8361L38.3517 48.8156L36.5374 55.1642C36.0595 55.1219 35.5816 55.0938 35.0998 55.0938H29.4688V70.233C27.9812 69.7026 26.9062 68.2932 26.9062 66.625V52.5312H24.3438V66.625C24.3438 70.1574 27.2176 73.0312 30.75 73.0312H34.5938V78.1562H30.75C24.3912 78.1562 19.2188 72.9838 19.2188 66.625ZM42.2812 78.1562H37.1562V72.0524L37.6457 71.0735C37.8315 70.7007 38.2069 70.4688 38.6246 70.4688C39.2267 70.4688 39.7188 70.9607 39.7188 71.5629V73.0312H42.2812C43.6945 73.0312 44.8438 74.1805 44.8438 75.5938C44.8438 77.007 43.6945 78.1562 42.2812 78.1562ZM55.0938 73.0312H52.0252C50.3288 73.0312 48.667 73.2913 47.0642 73.7974C46.6465 72.6879 45.8559 71.7718 44.8438 71.1811V59.6524C47.0155 58.3494 49.4819 57.6562 52.0252 57.6562H55.0938V73.0312ZM66.4597 75.5938C64.5045 75.5938 62.6634 74.7315 61.4116 73.2286L57.6562 68.7224V55.0938H52.0252C49.8701 55.0938 47.7612 55.5166 45.7932 56.3186L43.6496 48.8143L44.64 46.8348L47.9546 49.4857L50.7631 42.4658C56.6453 45.0206 61.1643 50.0367 63.0311 56.3853L63.4039 57.6524L61.5167 68.9774L64.0446 69.3976L67.7102 47.4062H73.0312V69.0222C73.0312 72.6456 70.0831 75.5938 66.4597 75.5938ZM74.4675 44.1583L73.7821 44.8438H67.1554L66.47 44.1583C65.7448 43.4318 65.3438 42.467 65.3438 41.4395V38.4375C65.3438 37.7303 65.9178 37.1562 66.625 37.1562C67.3322 37.1562 67.9062 37.7303 67.9062 38.4375C67.9062 40.5567 69.6308 42.2812 71.75 42.2812H75.5028C75.3452 42.9872 74.9903 43.6355 74.4675 44.1583ZM75.5938 39.7188H71.75C71.0428 39.7188 70.4688 39.1447 70.4688 38.4375C70.4688 37.7303 71.0428 37.1562 71.75 37.1562H74.3125C75.0197 37.1562 75.5938 37.7303 75.5938 38.4375V39.7188Z" fill="black"/>
</svg>
