<svg width="89" height="89" viewBox="0 0 89 89" fill="none" xmlns="http://www.w3.org/2000/svg">
<path d="M58.3676 36.6094C57.9103 36.1501 57.1679 36.1489 56.7085 36.6071C56.2503 37.0644 56.248 37.8068 56.7061 38.2662L58.0288 39.5938L56.7003 40.9176C56.2421 41.3749 56.2397 42.1173 56.6979 42.5767C56.927 42.807 57.2274 42.9217 57.5287 42.9217C57.8279 42.9217 58.1279 42.807 58.357 42.579L59.6847 41.2561L61.0085 42.5849C61.2376 42.8152 61.5379 42.9299 61.8392 42.9299C62.1384 42.9299 62.4385 42.8164 62.6676 42.5873C63.1257 42.13 63.1281 41.3875 62.6699 40.9282L61.3467 39.6L62.6758 38.2755C63.134 37.8182 63.1363 37.0758 62.6781 36.6165C62.2208 36.1571 61.4784 36.1559 61.019 36.6141L59.6908 37.9376L58.3676 36.6094Z" fill="black"/>
<path d="M54.9448 22.6176C56.8858 22.6176 58.4648 21.0386 58.4648 19.0976C58.4648 17.1567 56.8858 15.5776 54.9448 15.5776C53.0038 15.5776 51.4248 17.1567 51.4248 19.0976C51.4248 21.0386 53.0038 22.6176 54.9448 22.6176ZM54.9448 17.9243C55.5922 17.9243 56.1181 18.4503 56.1181 19.0976C56.1181 19.745 55.5922 20.271 54.9448 20.271C54.2974 20.271 53.7715 19.745 53.7715 19.0976C53.7715 18.4503 54.2974 17.9243 54.9448 17.9243Z" fill="black"/>
<path d="M69.8474 31.5528C70.5743 31.4516 71.0815 30.7805 70.9806 30.0539C70.8797 29.3273 70.2085 28.8199 69.4817 28.9211C68.7548 29.0223 68.2476 29.6931 68.3488 30.42C68.4497 31.1466 69.1208 31.6538 69.8474 31.5528Z" fill="black"/>
<path d="M77.2379 70.7243H16.7711L27.9523 63.6843H70.1979C70.8465 63.6843 71.3713 63.1596 71.3713 62.511C71.3713 61.8625 70.8465 61.3377 70.1979 61.3377H31.6797L37.2886 57.8062C37.3082 57.8074 37.3249 57.8177 37.3449 57.8177H64.3316C64.9801 57.8177 65.5049 57.2929 65.5049 56.6443C65.5049 55.9958 64.9801 55.471 64.3316 55.471H40.9978L44.7249 53.1243H59.6379C60.2865 53.1243 60.8113 52.5996 60.8113 51.951C60.8113 51.3025 60.2865 50.7777 59.6379 50.7777H45.5579V33.1777C45.5579 32.5957 45.1317 32.1017 44.5565 32.017L12.8765 27.3236C12.5406 27.2767 12.1971 27.3729 11.9381 27.5964C11.6803 27.8185 11.5312 28.1429 11.5312 28.4843V71.8977C11.5312 72.5462 12.056 73.071 12.7046 73.071H77.2379C77.8865 73.071 78.4113 72.5462 78.4113 71.8977C78.4113 71.2491 77.8865 70.7243 77.2379 70.7243ZM36.1713 45.5918V55.7362L27.9579 60.9077V47.417L36.1713 45.5918ZM27.9579 45.0125V31.9301L36.1713 33.1466V43.1871L27.9579 45.0125ZM43.2113 51.3036L38.5179 54.2587V45.0703L43.2113 44.0272V51.3036ZM43.2113 41.6227L38.5179 42.6658V33.4942L43.2113 34.1894V41.6227ZM25.6113 31.5825V45.534L13.8779 48.1415V29.8448L25.6113 31.5825ZM13.8779 50.5459L25.6113 47.9385V62.3852L13.8779 69.7731V50.5459Z" fill="black"/>
</svg>
