<svg width="73" height="72" viewBox="0 0 73 72" fill="none" xmlns="http://www.w3.org/2000/svg">
<path d="M55.1387 41.625H57.3887V43.875H55.1387V41.625Z" fill="black"/>
<path d="M61.8886 24.219V13.5C61.8886 12.6049 61.533 11.7464 60.9001 11.1135C60.2672 10.4806 59.4087 10.125 58.5136 10.125C58.1295 10.1287 57.7489 10.1988 57.3886 10.332V10.125C57.3886 9.22989 57.033 8.37145 56.4001 7.73851C55.7672 7.10558 54.9087 6.75 54.0136 6.75C53.6295 6.75373 53.2489 6.82376 52.8886 6.957V5.625C52.8886 4.72989 52.533 3.87145 51.9001 3.23851C51.2672 2.60558 50.4087 2.25 49.5136 2.25C48.6185 2.25 47.7601 2.60558 47.1271 3.23851C46.4942 3.87145 46.1386 4.72989 46.1386 5.625V5.832C45.7783 5.69876 45.3977 5.62873 45.0136 5.625C44.1185 5.625 43.2601 5.98058 42.6271 6.61351C41.9942 7.24645 41.6386 8.10489 41.6386 9V20.6798L40.4562 21.2704C39.5159 21.7407 38.7156 22.4498 38.1354 23.3266C37.5553 24.2034 37.2155 25.2172 37.1503 26.2665C37.085 27.3159 37.2965 28.364 37.7635 29.3059C38.2306 30.2479 38.9368 31.0506 39.8116 31.6339L42.8862 33.6836C43.1945 33.889 43.4473 34.1674 43.6222 34.4939C43.797 34.8205 43.8885 35.1852 43.8886 35.5556V37.125H42.7636C42.4652 37.125 42.1791 37.2435 41.9681 37.4545C41.7571 37.6655 41.6386 37.9516 41.6386 38.25V69.75H43.8886V39.375H59.6386V69.75H61.8886V38.25C61.8886 37.9516 61.7701 37.6655 61.5591 37.4545C61.3481 37.2435 61.062 37.125 60.7636 37.125H59.6386V34.0121C61.1154 30.9585 61.8845 27.611 61.8886 24.219ZM46.1386 37.125V35.5556C46.1394 34.8147 45.9569 34.0851 45.6073 33.4319C45.2577 32.7786 44.7519 32.222 44.135 31.8116L41.0592 29.7619C40.5124 29.3972 40.071 28.8952 39.7791 28.3063C39.4872 27.7174 39.3551 27.0622 39.396 26.4062C39.4369 25.7502 39.6494 25.1164 40.0121 24.5683C40.3749 24.0202 40.8752 23.577 41.4631 23.283L41.6386 23.1952V25.875H43.8886V9C43.8886 8.70163 44.0071 8.41548 44.2181 8.2045C44.4291 7.99353 44.7152 7.875 45.0136 7.875C45.312 7.875 45.5981 7.99353 45.8091 8.2045C46.0201 8.41548 46.1386 8.70163 46.1386 9V20.25H48.3886V5.625C48.3886 5.32663 48.5071 5.04048 48.7181 4.8295C48.9291 4.61853 49.2152 4.5 49.5136 4.5C49.812 4.5 50.0981 4.61853 50.3091 4.8295C50.5201 5.04048 50.6386 5.32663 50.6386 5.625V21.375H52.8886V10.125C52.8886 9.82663 53.0071 9.54048 53.2181 9.3295C53.4291 9.11853 53.7152 9 54.0136 9C54.312 9 54.5981 9.11853 54.8091 9.3295C55.0201 9.54048 55.1386 9.82663 55.1386 10.125V22.5H57.3886V13.5C57.3886 13.2016 57.5071 12.9155 57.7181 12.7045C57.9291 12.4935 58.2152 12.375 58.5136 12.375C58.812 12.375 59.0981 12.4935 59.3091 12.7045C59.5201 12.9155 59.6386 13.2016 59.6386 13.5V24.219C59.6334 27.3531 58.9018 30.4434 57.5011 33.2471C57.4252 33.4038 57.3867 33.5759 57.3886 33.75V37.125H46.1386Z" fill="black"/>
<path d="M28.1387 64.125H30.3887V66.375H28.1387V64.125Z" fill="black"/>
<path d="M34.8886 46.719V39.375C34.8886 38.4799 34.533 37.6215 33.9001 36.9885C33.2672 36.3556 32.4087 36 31.5136 36C31.1295 36.0037 30.7489 36.0738 30.3886 36.207V36C30.3886 35.1049 30.033 34.2464 29.4001 33.6135C28.7672 32.9806 27.9087 32.625 27.0136 32.625C26.6295 32.6287 26.2489 32.6988 25.8886 32.832V31.5C25.8886 30.6049 25.533 29.7464 24.9001 29.1135C24.2672 28.4806 23.4087 28.125 22.5136 28.125C21.6185 28.125 20.7601 28.4806 20.1271 29.1135C19.4942 29.7464 19.1386 30.6049 19.1386 31.5V31.707C18.7783 31.5738 18.3977 31.5037 18.0136 31.5C17.1185 31.5 16.2601 31.8556 15.6271 32.4885C14.9942 33.1214 14.6386 33.9799 14.6386 34.875V43.1798L13.4562 43.7704C12.5159 44.2407 11.7156 44.9498 11.1354 45.8266C10.5553 46.7034 10.2155 47.7172 10.1503 48.7665C10.085 49.8159 10.2965 50.864 10.7635 51.8059C11.2306 52.7479 11.9368 53.5506 12.8116 54.1339L15.8862 56.1836C16.1945 56.389 16.4473 56.6674 16.6221 56.9939C16.797 57.3205 16.8885 57.6852 16.8886 58.0556V59.625H15.7636C15.4652 59.625 15.1791 59.7435 14.9681 59.9545C14.7571 60.1655 14.6386 60.4516 14.6386 60.75V69.75H16.8886V61.875H32.6386V69.75H34.8886V60.75C34.8886 60.4516 34.7701 60.1655 34.5591 59.9545C34.3481 59.7435 34.062 59.625 33.7636 59.625H32.6386V56.5121C34.1154 53.4585 34.8845 50.111 34.8886 46.719ZM19.1386 59.625V58.05C19.1394 57.3091 18.9568 56.5795 18.6073 55.9262C18.2577 55.273 17.7519 54.7164 17.135 54.306L14.0592 52.2563C13.5124 51.8915 13.071 51.3896 12.7791 50.8007C12.4872 50.2118 12.3551 49.5565 12.396 48.9005C12.4369 48.2445 12.6494 47.6108 13.0121 47.0627C13.3749 46.5146 13.8752 46.0714 14.4631 45.7774L14.6386 45.6952V48.375H16.8886V34.875C16.8886 34.5766 17.0071 34.2905 17.2181 34.0795C17.4291 33.8685 17.7152 33.75 18.0136 33.75C18.312 33.75 18.5981 33.8685 18.8091 34.0795C19.0201 34.2905 19.1386 34.5766 19.1386 34.875V42.75H21.3886V31.5C21.3886 31.2016 21.5071 30.9155 21.7181 30.7045C21.9291 30.4935 22.2152 30.375 22.5136 30.375C22.812 30.375 23.0981 30.4935 23.3091 30.7045C23.5201 30.9155 23.6386 31.2016 23.6386 31.5V43.875H25.8886V36C25.8886 35.7016 26.0071 35.4155 26.2181 35.2045C26.4291 34.9935 26.7152 34.875 27.0136 34.875C27.312 34.875 27.5981 34.9935 27.8091 35.2045C28.0201 35.4155 28.1386 35.7016 28.1386 36V45H30.3886V39.375C30.3886 39.0766 30.5071 38.7905 30.7181 38.5795C30.9291 38.3685 31.2152 38.25 31.5136 38.25C31.812 38.25 32.0981 38.3685 32.3091 38.5795C32.5201 38.7905 32.6386 39.0766 32.6386 39.375V46.719C32.6352 49.8527 31.9055 52.9429 30.5067 55.7471C30.4289 55.9033 30.3884 56.0755 30.3886 56.25V59.625H19.1386Z" fill="black"/>
<path d="M36.0137 22.5H29.2637C28.9653 22.5 28.6792 22.6185 28.4682 22.8295C28.2572 23.0405 28.1387 23.3266 28.1387 23.625V26.0224L23.138 22.689C22.953 22.5661 22.7358 22.5004 22.5137 22.5H14.6387C14.0419 22.5 13.4696 22.2629 13.0477 21.841C12.6257 21.419 12.3887 20.8467 12.3887 20.25V11.25C12.3887 10.6533 12.6257 10.081 13.0477 9.65901C13.4696 9.23705 14.0419 9 14.6387 9H39.3887V6.75H14.6387C13.4452 6.75 12.3006 7.22411 11.4567 8.06802C10.6128 8.91193 10.1387 10.0565 10.1387 11.25V20.25C10.1387 21.4435 10.6128 22.5881 11.4567 23.432C12.3006 24.2759 13.4452 24.75 14.6387 24.75H22.1762L28.6427 29.061C28.8121 29.1731 29.0086 29.2373 29.2116 29.2467C29.4145 29.2561 29.6162 29.2104 29.7952 29.1144C29.9742 29.0185 30.124 28.8758 30.2284 28.7016C30.3329 28.5274 30.3883 28.3281 30.3887 28.125V24.75H36.0137V22.5Z" fill="black"/>
<path d="M15.7637 12.375H18.0137V14.625H15.7637V12.375Z" fill="black"/>
<path d="M20.2637 12.375H39.3887V14.625H20.2637V12.375Z" fill="black"/>
<path d="M15.7637 16.875H39.3887V19.125H15.7637V16.875Z" fill="black"/>
<path d="M64.1387 42.75H66.3887V61.875H64.1387V42.75Z" fill="black"/>
<path d="M64.1387 64.125H66.3887V66.375H64.1387V64.125Z" fill="black"/>
<path d="M6.89769 54.1305L8.87769 53.0618C8.22904 51.8563 7.88928 50.5089 7.88882 49.14C7.8812 47.7228 8.24212 46.328 8.93616 45.0924C9.6302 43.8568 10.6335 42.8228 11.8477 42.0919C12.0129 41.9915 12.1495 41.8503 12.2443 41.6819C12.3391 41.5134 12.3889 41.3233 12.3888 41.13V34.875H10.1388V40.5191C8.74323 41.4808 7.60373 42.7689 6.81946 44.2714C6.03519 45.7738 5.62989 47.4452 5.63882 49.14C5.63951 50.882 6.07204 52.5966 6.89769 54.1305Z" fill="black"/>
<path d="M8.34961 56.1837C8.93218 56.8275 9.59235 57.3966 10.315 57.8779L11.5637 56.0059C10.9956 55.6277 10.4764 55.1807 10.018 54.675L8.34961 56.1837Z" fill="black"/>
</svg>
