<svg width="83" height="82" viewBox="0 0 83 82" fill="none" xmlns="http://www.w3.org/2000/svg">
<path d="M37.5547 29.4688H45.2422V32.0312H37.5547V29.4688Z" fill="black"/>
<path d="M74.7109 34.5938H73.4297V30.75C73.4297 28.6308 71.7051 26.9062 69.5859 26.9062C67.4668 26.9062 65.7422 28.6308 65.7422 30.75V34.8295C64.2547 35.3599 63.1797 36.7693 63.1797 38.4375V41.4395C63.1797 43.1512 63.8472 44.7605 65.0567 45.97L65.6512 46.5645L64.6775 52.4057C61.4974 45.3908 55.2193 40.2953 47.5741 38.6374L47.0616 36.5912C50.0943 35.4688 52.3531 32.7564 52.8272 29.4675H52.9297C55.7561 29.4675 58.0547 27.1689 58.0547 24.3425C58.0547 23.297 57.7369 22.3271 57.1988 21.516L57.6075 19.8824C57.9048 18.6947 58.056 17.4737 58.056 16.2514C58.0547 7.99628 51.3397 1.28125 43.0833 1.28125H39.7123C31.4572 1.28125 24.7422 7.99628 24.7422 16.2527C24.7422 17.475 24.8921 18.696 25.1906 19.8837L25.5993 21.5186C25.0599 22.3283 24.7422 23.2995 24.7422 24.3438C24.7422 27.1702 27.0407 29.4688 29.8672 29.4688H29.9697C30.4438 32.7577 32.7026 35.4688 35.7353 36.5925L35.2292 38.6143C24.8127 40.5323 17.0547 49.7317 17.0547 60.402V66.625C17.0547 74.3958 23.3777 80.7188 31.1484 80.7188H42.6797C45.2217 80.7188 47.3204 78.8558 47.7201 76.4266C49.232 75.8846 50.8092 75.5938 52.4236 75.5938H58.0547V72.7276L59.8408 74.8698C61.582 76.9583 64.1393 78.1562 66.8582 78.1562C71.8947 78.1562 75.9922 74.0588 75.9922 69.0222V46.6554L76.6777 45.97C77.8872 44.7605 78.5547 43.1512 78.5547 41.4395V38.4375C78.5547 36.3183 76.8301 34.5938 74.7109 34.5938ZM69.5859 29.4688C70.2932 29.4688 70.8672 30.0427 70.8672 30.75V34.8295C70.388 34.9999 69.9562 35.26 69.5859 35.5931C69.2157 35.2587 68.7839 34.9999 68.3047 34.8295V30.75C68.3047 30.0427 68.8787 29.4688 69.5859 29.4688ZM42.5118 70.4688C42.0467 68.9851 40.6579 67.9062 39.0217 67.9062C37.6277 67.9062 36.3759 68.6801 35.7507 69.9281L35.4816 70.4688H32.4297V57.6562H35.4983C38.0416 57.6562 40.5093 58.3494 42.6797 59.6524V70.4688H42.5118ZM39.0332 42.5311L35.5393 45.3255L34.0159 41.5163C34.6924 41.3293 35.3804 41.1717 36.0851 41.0564L39.0332 42.5311ZM41.0845 49.9688H41.7136L43.8213 57.3462C42.458 56.5505 40.9974 55.9637 39.4791 55.587L41.0845 49.9688ZM41.8879 47.4062H40.909L39.8046 45.1974L41.3984 43.9225L42.9923 45.1974L41.8879 47.4062ZM43.7636 42.5311L46.6951 41.0653C47.3947 41.2063 48.0802 41.3805 48.7541 41.583L47.2563 45.3255L43.7636 42.5311ZM50.3672 21.7812C50.3672 23.1945 49.2179 24.3438 47.8047 24.3438C46.3915 24.3438 45.2422 23.1945 45.2422 21.7812C45.2422 20.368 46.3915 19.2188 47.8047 19.2188C49.2179 19.2188 50.3672 20.368 50.3672 21.7812ZM52.9297 26.9062V21.7812C54.3429 21.7812 55.4922 22.9305 55.4922 24.3438C55.4922 25.757 54.3429 26.9062 52.9297 26.9062ZM39.7136 3.84375H43.0846C49.9252 3.84375 55.4922 9.41078 55.4922 16.2527C55.4922 17.2648 55.3666 18.2783 55.1219 19.2636L55.0194 19.6749C54.3788 19.3866 53.6754 19.2188 52.9297 19.2188H52.8669C52.553 16.3013 50.2877 13.9131 47.3191 13.5428L46.6426 13.4583C44.3825 13.1751 42.6797 11.2455 42.6797 8.96875H40.1172C40.1172 12.5357 42.786 15.5595 46.3236 16.0002L47.0001 16.0848C47.6292 16.1642 48.1993 16.4038 48.6939 16.7447C48.403 16.6947 48.1096 16.6562 47.8047 16.6562C45.4228 16.6562 43.4343 18.295 42.8616 20.5H39.9352C39.3625 18.295 37.374 16.6562 34.9922 16.6562C34.0787 16.6562 33.2343 16.9163 32.4899 17.3353C32.7743 15.5454 34.2875 14.1706 36.1415 14.1066C36.9 15.5416 38.0095 16.7908 39.4061 17.7222L40.827 15.5903C38.7783 14.2244 37.5547 11.9374 37.5547 9.47484V8.96875H34.9922V9.47484C34.9922 10.2116 35.0857 10.9329 35.242 11.6363C32.2016 12.1322 29.8672 14.7587 29.8672 17.9375V19.2188C29.1215 19.2188 28.4181 19.3866 27.7775 19.6749L27.675 19.2636C27.4302 18.2783 27.3047 17.2648 27.3047 16.2527C27.3047 9.41078 32.8717 3.84375 39.7136 3.84375ZM34.9922 19.2188C36.4054 19.2188 37.5547 20.368 37.5547 21.7812C37.5547 23.1945 36.4054 24.3438 34.9922 24.3438C33.579 24.3438 32.4297 23.1945 32.4297 21.7812C32.4297 20.368 33.579 19.2188 34.9922 19.2188ZM27.3047 24.3438C27.3047 22.9305 28.454 21.7812 29.8672 21.7812V26.9062C28.454 26.9062 27.3047 25.757 27.3047 24.3438ZM32.4297 28.1875V26.1939C33.1869 26.6346 34.0543 26.9062 34.9922 26.9062C37.374 26.9062 39.3625 25.2675 39.9352 23.0625H42.8616C43.4343 25.2675 45.4228 26.9062 47.8047 26.9062C48.7426 26.9062 49.61 26.6346 50.3672 26.1939V28.1875C50.3672 31.7199 47.4933 34.5938 43.9609 34.5938H38.8359C35.3035 34.5938 32.4297 31.7199 32.4297 28.1875ZM38.8359 37.1562H43.9609C44.1608 37.1562 44.3581 37.1396 44.5542 37.1268L45.0308 39.032L41.3984 40.8488L37.7661 39.032L38.2427 37.1268C38.4388 37.1396 38.6361 37.1562 38.8359 37.1562ZM19.6172 66.625V60.402C19.6172 52.4288 24.5154 45.378 31.593 42.3581L34.4451 49.487L37.7597 46.8361L38.7501 48.8156L36.9358 55.1642C36.4579 55.1219 35.98 55.0938 35.4983 55.0938H29.8672V70.233C28.3797 69.7026 27.3047 68.2932 27.3047 66.625V52.5312H24.7422V66.625C24.7422 70.1574 27.616 73.0312 31.1484 73.0312H34.9922V78.1562H31.1484C24.7896 78.1562 19.6172 72.9838 19.6172 66.625ZM42.6797 78.1562H37.5547V72.0524L38.0441 71.0735C38.2299 70.7007 38.6053 70.4688 39.023 70.4688C39.6252 70.4688 40.1172 70.9607 40.1172 71.5629V73.0312H42.6797C44.0929 73.0312 45.2422 74.1805 45.2422 75.5938C45.2422 77.007 44.0929 78.1562 42.6797 78.1562ZM55.4922 73.0312H52.4236C50.7272 73.0312 49.0654 73.2913 47.4626 73.7974C47.0449 72.6879 46.2544 71.7718 45.2422 71.1811V59.6524C47.4139 58.3494 49.8803 57.6562 52.4236 57.6562H55.4922V73.0312ZM66.8582 75.5938C64.903 75.5938 63.0618 74.7315 61.81 73.2286L58.0547 68.7224V55.0938H52.4236C50.2685 55.0938 48.1596 55.5166 46.1916 56.3186L44.0481 48.8143L45.0385 46.8348L48.3531 49.4857L51.1616 42.4658C57.0438 45.0206 61.5627 50.0367 63.4295 56.3853L63.8024 57.6524L61.9151 68.9774L64.443 69.3976L68.1087 47.4062H73.4297V69.0222C73.4297 72.6456 70.4815 75.5938 66.8582 75.5938ZM74.866 44.1583L74.1805 44.8438H67.5539L66.8684 44.1583C66.1432 43.4318 65.7422 42.467 65.7422 41.4395V38.4375C65.7422 37.7303 66.3162 37.1562 67.0234 37.1562C67.7307 37.1562 68.3047 37.7303 68.3047 38.4375C68.3047 40.5567 70.0293 42.2812 72.1484 42.2812H75.9012C75.7436 42.9872 75.3887 43.6355 74.866 44.1583ZM75.9922 39.7188H72.1484C71.4412 39.7188 70.8672 39.1447 70.8672 38.4375C70.8672 37.7303 71.4412 37.1562 72.1484 37.1562H74.7109C75.4182 37.1562 75.9922 37.7303 75.9922 38.4375V39.7188Z" fill="black"/>
</svg>
