<svg width="75" height="73" viewBox="0 0 75 73" fill="none" xmlns="http://www.w3.org/2000/svg">
<path d="M67.8733 23.7572H56.3599C55.5955 23.7572 54.9278 24.1667 54.5654 24.7738H51.4571C50.8583 24.7738 50.3732 25.2524 50.3732 25.8431C50.3732 26.4338 50.8583 26.9124 51.4571 26.9124H54.2769V33.8761H13.3148C12.6586 33.8761 12.0026 33.7994 11.3652 33.6482L8.18723 32.8946V27.8939L11.3652 27.1404C12.003 26.9891 12.6589 26.9124 13.3148 26.9124H46.39C46.9888 26.9124 47.474 26.4338 47.474 25.8431C47.474 25.2524 46.9888 24.7738 46.39 24.7738H41.8879L41.4484 22.397L43.4328 22.0398C45.2388 21.7149 46.4345 20.0098 46.1047 18.2276C45.7756 16.4458 44.0477 15.2672 42.2404 15.5917L36.1384 16.6899C34.3363 17.0142 33.1377 18.7243 33.4666 20.5021C33.7953 22.2801 35.521 23.4637 37.3311 23.138L39.3158 22.7808L39.6843 24.7738H22.4643L24.6349 23.3513C25.9867 22.4656 26.9568 21.1246 27.3667 19.5755L29.439 11.742C30.8976 11.6263 32.2203 10.6234 32.6218 9.10627C33.1226 7.21298 31.9749 5.28033 30.0551 4.78616L11.9145 0.115868C9.9956 -0.378308 8.03619 0.75362 7.53525 2.64748C7.14024 4.14056 7.77719 5.66344 9.00686 6.48027L6.934 14.3151C6.52411 15.8639 6.70636 17.5016 7.44679 18.9263L10.6604 25.108L7.43162 25.8735C6.97952 25.9808 6.60273 26.2453 6.35183 26.5993L2.67986 26.905C1.88682 26.9709 1.26562 27.6376 1.26562 28.4226V32.3659C1.26562 33.1638 1.87338 33.8162 2.67957 33.8835L6.35183 34.1893C6.60273 34.5434 6.97967 34.808 7.43191 34.9151L10.8585 35.7276C11.6616 35.9181 12.488 36.0148 13.3148 36.0148H14.4222V38.6388H13.3113C11.557 38.6388 10.1299 40.0466 10.1299 41.7772C10.1299 43.5077 11.557 44.9155 13.3113 44.9155H17.701C19.4553 44.9155 20.8824 43.5077 20.8824 41.7772C20.8824 40.0466 19.4553 38.6388 17.701 38.6388H16.5901V36.0148H25.7528C25.8237 38.0173 27.3645 39.6948 29.3934 39.9468L38.9267 41.1312V43.8771C38.9267 45.0512 39.2974 46.1733 39.9988 47.1222C40.3161 47.5515 40.5219 48.0388 40.608 48.5541C39.6332 48.8703 38.9267 49.7755 38.9267 50.8417V52.6456C38.9267 53.9738 40.022 55.0542 41.3683 55.0542H43.414V66.9612C43.414 70.2908 46.1601 72.9998 49.5353 72.9998C52.9105 72.9998 55.6566 70.2908 55.6566 66.9612V51.1754C55.6566 48.8358 57.5861 46.9324 59.9577 46.9324C62.3294 46.9324 64.2589 48.8358 64.2589 51.1754V71.9011C64.2589 72.4918 64.744 72.9704 65.3428 72.9704C65.9416 72.9704 66.4268 72.4918 66.4268 71.9011V51.1754C66.4268 47.6565 63.5248 44.7937 59.9577 44.7937C56.3907 44.7937 53.4887 47.6565 53.4887 51.1754V66.9613C53.4887 69.1118 51.7153 70.8613 49.5353 70.8613C47.3553 70.8613 45.5819 69.1118 45.5819 66.9613V55.0544H47.6278C48.9741 55.0544 50.0693 53.9739 50.0693 52.6458V50.8419C50.0693 49.7757 49.3629 48.8705 48.388 48.5542C48.4742 48.0389 48.6801 47.5516 48.9974 47.1223C49.6988 46.1736 50.0695 45.0515 50.0695 43.8772V36.0149H54.5654C54.9278 36.6221 55.5955 37.0316 56.3599 37.0316H67.8733C71.2308 37.0316 73.9345 33.0409 73.9345 29.7366C73.9345 26.4395 71.2154 23.7572 67.8733 23.7572ZM36.942 21.0342C36.3114 21.1471 35.7132 20.7349 35.5992 20.1184C35.485 19.5006 35.9014 18.9065 36.5275 18.7937L42.6293 17.6956C43.2566 17.5834 43.8574 17.9916 43.972 18.6114C44.0866 19.2313 43.6704 19.8233 43.0437 19.9361L36.942 21.0342ZM9.03158 14.855L11.0534 7.21284L12.4743 7.57869C13.0536 7.72826 13.6456 7.3855 13.7968 6.81405C13.948 6.24259 13.6009 5.65859 13.0217 5.50946L10.6492 4.89865C9.89082 4.70332 9.43497 3.93582 9.63283 3.18771C9.83011 2.44203 10.6023 1.98892 11.3671 2.18525L29.5078 6.85554C30.2676 7.05101 30.7225 7.81623 30.5241 8.56619C30.3264 9.31415 29.5523 9.76498 28.7902 9.56908C28.7899 9.56908 28.7896 9.56894 28.7893 9.56894L17.9246 6.77184C17.3456 6.62285 16.7532 6.96489 16.6021 7.53649C16.4509 8.10794 16.798 8.69194 17.3772 8.84108L27.2906 11.3934L25.2689 19.0357C24.9939 20.0755 24.3426 20.9755 23.4353 21.57L18.5462 24.7739H13.3148C13.1856 24.7739 13.0565 24.777 12.9274 24.7819L9.376 17.9505C8.87881 16.9941 8.75654 15.8948 9.03158 14.855ZM3.43359 28.9885L6.01926 28.7732V32.0153L3.43359 31.8V28.9885ZM18.7145 41.7772C18.7145 42.3284 18.2599 42.7768 17.701 42.7768H13.3113C12.7525 42.7768 12.2978 42.3284 12.2978 41.7772C12.2978 41.226 12.7524 40.7774 13.3113 40.7774H17.701C18.2598 40.7774 18.7145 41.226 18.7145 41.7772ZM29.6643 37.8249C28.717 37.7073 27.9929 36.9414 27.9241 36.0149H38.9266V38.9757L29.6643 37.8249ZM47.9015 52.6456C47.9015 52.7945 47.7787 52.9157 47.6278 52.9157H41.3683C41.2174 52.9157 41.0945 52.7945 41.0945 52.6456V50.8417C41.0945 50.6927 41.2174 50.5716 41.3683 50.5716H47.6278C47.7787 50.5716 47.9015 50.6927 47.9015 50.8417V52.6456ZM47.9015 43.8771C47.9015 44.5953 47.6748 45.2818 47.2458 45.8619C46.68 46.6273 46.3298 47.5056 46.2153 48.4329H42.7808C42.6663 47.5056 42.3161 46.6274 41.7504 45.8621C41.3215 45.2818 41.0947 44.5953 41.0947 43.8771V36.0148H47.9015V43.8771ZM67.8733 34.8928H56.4449V25.8958H67.8733C70.02 25.8958 71.7665 27.6188 71.7665 29.7365C71.7665 31.9879 69.8787 34.8928 67.8733 34.8928Z" fill="black"/>
</svg>
