<svg width="73" height="73" viewBox="0 0 73 73" fill="none" xmlns="http://www.w3.org/2000/svg">
<g clip-path="url(#clip0)">
<path d="M33.839 38.3593C34.9835 39.1864 36.3908 39.674 37.9124 39.674H50.9289V45.9855L59.1799 39.674H62.7394C66.5766 39.674 69.6873 36.5729 69.6873 32.7475V7.99617C69.6873 4.17067 66.5766 1.06958 62.7394 1.06958H37.9124C34.0752 1.06958 30.9646 4.17067 30.9646 7.99617V38.3593H33.839Z" fill="#F7F3F1"/>
<path d="M62.7395 1.06958H56.7886C60.6258 1.06958 63.7365 4.17082 63.7365 7.99617V32.7475C63.7365 36.5729 60.6258 39.674 56.7886 39.674H53.2291L50.929 41.4334V45.9855L59.18 39.674H62.7395C66.5767 39.674 69.6874 36.5729 69.6874 32.7475V7.99617C69.6875 4.17082 66.5769 1.06958 62.7395 1.06958Z" fill="#EBE1DC"/>
<path d="M44.9723 29.5212L45.6885 30.1009C46.8238 31.02 48.2404 31.5215 49.701 31.5215H59.8672C60.8309 31.5215 61.6069 30.7175 61.561 29.7437C61.518 28.8316 61.563 20.5254 61.563 19.589C61.563 18.6525 60.8038 17.8932 59.8672 17.8932L52.9735 17.8724L53.8176 15.8734C54.6946 13.7963 54.5528 11.4289 53.4341 9.47129C53.1178 8.91772 52.4061 8.73605 51.8631 9.07016C51.5294 9.2755 51.3261 9.63927 51.3261 10.0311C51.3261 11.8237 50.6716 13.5546 49.4856 14.8987L45.0898 19.8727H43.4873V29.5211H44.9723V29.5212Z" fill="#FFD36C"/>
<path d="M44.2859 31.0508H39.6444C39.3377 31.0508 39.0889 30.8021 39.0889 30.4952V18.6632C39.0889 18.3564 39.3376 18.1077 39.6444 18.1077H44.2859C44.5928 18.1077 44.8414 18.3564 44.8414 18.6632V30.4952C44.8413 30.802 44.5926 31.0508 44.2859 31.0508Z" fill="#8EE6F3"/>
<path d="M33.8489 50.7633V25.7826C33.8489 22.7659 31.3959 20.3203 28.3698 20.3203H8.79157C5.76563 20.3203 3.3125 22.7659 3.3125 25.7826V45.301C3.3125 48.3177 5.76548 50.7633 8.79157 50.7633H19.5471V55.787L26.0537 50.7633H33.8489Z" fill="#4ED5EA"/>
<path d="M28.37 20.3203H20.6113C23.6373 20.3203 26.0904 22.7659 26.0904 25.7826V50.7633H33.8491V25.7826C33.8489 22.7659 31.3959 20.3203 28.37 20.3203Z" fill="#62A6FD"/>
<path d="M44.4477 46.7722H30.554C28.4066 46.7722 26.6658 48.5076 26.6658 50.6485V64.4997C26.6658 66.6405 28.4066 68.3759 30.554 68.3759H38.1866V71.9412L42.8041 68.3761H44.4477C46.5951 68.3761 48.3359 66.6406 48.3359 64.4998V50.6486C48.3358 48.5078 46.5949 46.7722 44.4477 46.7722Z" fill="#FA9084"/>
<path d="M44.4476 46.7722H38.4585C40.6059 46.7722 42.3467 48.5076 42.3467 50.6485V64.4998C42.3467 66.6406 40.6059 68.3761 38.4585 68.3761H38.1865V71.9412L42.804 68.3761H44.4476C46.595 68.3761 48.3358 66.6406 48.3358 64.4998V50.6485C48.3357 48.5078 46.595 46.7722 44.4476 46.7722Z" fill="#FF6CB5"/>
<path d="M37.5006 62.2804C40.8439 60.508 42.5761 58.9999 42.5761 56.6636C42.5761 53.441 38.6284 52.6353 37.5006 55.0523C36.2115 52.5549 32.425 53.4411 32.425 56.6636C32.425 58.9999 34.1572 60.5079 37.5006 62.2804Z" fill="#F7F3F1"/>
<path d="M62.7395 0H59.6009C58.2213 0 58.2213 2.13898 59.6009 2.13898H62.7395C65.9808 2.13898 68.6179 4.76651 68.6179 7.99608V32.7472C68.6179 35.9769 65.981 38.6045 62.7395 38.6045H59.1799C58.945 38.6045 58.7167 38.6818 58.53 38.8245L51.9981 43.8209V39.674C51.9981 39.0833 51.5194 38.6045 50.9287 38.6045H37.9122C36.8463 38.6045 35.8219 38.3231 34.9184 37.7882V25.7826C34.9184 23.5338 33.773 21.547 32.0338 20.3715V7.99608C32.0338 4.76651 34.6708 2.13898 37.9122 2.13898H52.8988C54.2783 2.13898 54.2783 0 52.8988 0H37.9122C33.4914 0 29.8948 3.58707 29.8948 7.99608V19.4315C29.4051 19.3146 28.8949 19.2508 28.3698 19.2508H8.79158C5.18084 19.2508 2.24316 22.1809 2.24316 25.7826V28.092C2.24316 29.4715 4.38215 29.4715 4.38215 28.092V25.7826C4.38215 23.3604 6.36013 21.3898 8.79158 21.3898H28.37C30.8014 21.3898 32.7795 23.3604 32.7795 25.7826V38.214C32.7667 38.3084 32.7673 38.4035 32.7795 38.4972V45.3009C32.7795 45.4354 32.7714 45.5693 32.7593 45.7025H30.5537C28.1234 45.7025 26.0974 47.4566 25.6773 49.762C25.58 49.7986 25.4866 49.8498 25.4001 49.9165L20.6166 53.61V50.7632C20.6166 50.1725 20.1379 49.6937 19.5471 49.6937H8.79158C6.36013 49.6937 4.38215 47.7231 4.38215 45.3009V34.5089C4.38215 33.1294 2.24316 33.1294 2.24316 34.5089V45.3011C2.24316 48.9027 5.18084 51.8328 8.79158 51.8328H18.4777V55.787C18.4777 56.6449 19.5194 57.1596 20.2009 56.6337L25.5961 52.4679V64.4997C25.5961 67.2269 27.8202 69.4454 30.5539 69.4454H37.117V71.9411C37.117 72.7987 38.1587 73.3139 38.84 72.7877L43.1687 69.4454H44.4475C47.1812 69.4454 49.4053 67.2267 49.4053 64.4997V62.6008C49.4053 61.2213 47.2663 61.2213 47.2663 62.6008V64.4997C47.2663 66.0475 46.0019 67.3065 44.4475 67.3065H42.8038C42.5672 67.3065 42.3374 67.3849 42.1503 67.5293L39.2558 69.764V68.3758C39.2558 67.7852 38.7771 67.3063 38.1863 67.3063H30.5537C28.9995 67.3063 27.735 66.0472 27.735 64.4995V50.6484C27.735 49.1006 28.9994 47.8416 30.5537 47.8416H44.4475C46.0017 47.8416 47.2663 49.1007 47.2663 50.6484V55.8987C47.2663 57.2782 49.4053 57.2782 49.4053 55.8987V50.6485C49.4053 47.9213 47.1812 45.7028 44.4475 45.7028H34.9063C34.9144 45.5691 34.9185 40.1674 34.9185 40.1674C35.8615 40.5465 36.8726 40.7436 37.9124 40.7436H49.8593V45.9855C49.8593 46.8413 50.8966 47.3565 51.5786 46.835L59.5422 40.7436H62.7397C67.1604 40.7436 70.757 37.1565 70.757 32.7474V7.99608C70.7569 3.58707 67.1602 0 62.7395 0V0Z" fill="black"/>
<path d="M52.9983 7.90152C51.6403 7.55487 50.2565 8.62778 50.2565 10.031C50.2565 11.564 49.6978 13.0415 48.6841 14.1904L45.7374 17.5248C45.5466 17.232 45.2169 17.0383 44.8415 17.0383H39.089C38.4982 17.0383 38.0195 17.5171 38.0195 18.1077V31.0507C38.0195 31.6414 38.4982 32.1202 39.089 32.1202H44.8415C45.2737 32.1202 45.645 31.8634 45.8137 31.4946C46.9783 32.2062 48.3279 32.5909 49.7009 32.5909H59.8671C61.4206 32.5909 62.7021 31.2429 62.6292 29.6935C62.5969 29.0073 62.6322 19.7935 62.6322 19.5889C62.6322 18.0642 61.3918 16.8236 59.8702 16.8236L54.5837 16.8078L54.8025 16.2895C55.8029 13.9205 55.6382 11.1735 54.3625 8.94078C54.0647 8.41916 53.5801 8.05025 52.9983 7.90152C53.5801 8.05025 52.4162 7.75294 52.9983 7.90152C53.5801 8.05025 51.6404 7.55487 52.9983 7.90152ZM43.772 29.9812H40.1585V19.1772H43.772V29.9812ZM59.8671 18.9625C60.2125 18.9625 60.4934 19.2434 60.4934 19.5888C60.4934 19.7923 60.4912 20.3445 60.4884 21.0933C60.4726 25.2276 60.462 29.143 60.4925 29.7939C60.5037 30.0287 60.3894 30.1853 60.3204 30.2577C60.2009 30.3829 60.0399 30.4518 59.8671 30.4518H49.7009C48.4891 30.4518 47.3031 30.0318 46.3611 29.2694L45.911 28.9049V20.5584L50.2874 15.6061C51.6468 14.0655 52.3955 12.0855 52.3955 10.0308C52.3955 9.97035 52.4781 9.95466 52.5054 10.0017C53.4526 11.6591 53.5746 13.6984 52.8321 15.4571L51.9881 17.4562C51.8488 17.786 51.8838 18.1635 52.0811 18.4621C52.2786 18.7607 52.6122 18.9407 52.97 18.9418L59.8671 18.9625Z" fill="black"/>
<path d="M11.401 37.1468C10.8102 37.1468 10.3315 37.6256 10.3315 38.2163C10.3315 38.8069 10.8102 39.2857 11.401 39.2857H14.5536L13.9647 42.8477C13.8683 43.4304 14.2627 43.9809 14.8454 44.0773C14.9045 44.0872 14.9632 44.0919 15.021 44.0919C15.535 44.0919 15.9883 43.7204 16.075 43.1967L16.7215 39.2859H19.3016L18.7126 42.8479C18.6162 43.4305 19.0107 43.9811 19.5933 44.0775C19.6525 44.0873 19.7111 44.092 19.769 44.092C20.2829 44.092 20.7363 43.7206 20.823 43.1968L21.4695 39.286H25.7607C26.3515 39.286 26.8302 38.8072 26.8302 38.2165C26.8302 37.6259 26.3515 37.1471 25.7607 37.1471H21.8231L22.2545 34.5381H25.7607C26.3515 34.5381 26.8302 34.0592 26.8302 33.4686C26.8302 32.8779 26.3515 32.3991 25.7607 32.3991H22.6082L23.1971 28.8371C23.2935 28.2545 22.8991 27.7039 22.3164 27.6075C21.733 27.5108 21.1832 27.9055 21.0868 28.4882L20.4402 32.3989H17.8602L18.4491 28.837C18.5455 28.2543 18.1511 27.7037 17.5684 27.6073C16.9843 27.5107 16.4353 27.9054 16.3388 28.488L15.6923 32.3988H11.401C10.8102 32.3988 10.3315 32.8776 10.3315 33.4683C10.3315 34.0589 10.8102 34.5378 11.401 34.5378H15.3386L14.9073 37.1468H11.401ZM17.5067 34.5378H20.0867L19.6554 37.1468H17.0753L17.5067 34.5378Z" fill="black"/>
<path d="M37.4879 53.3599C36.6243 52.6489 35.4754 52.3684 34.3229 52.6487C32.846 53.0073 31.3557 54.3879 31.3557 56.6637C31.3557 58.0801 31.8726 59.3096 32.936 60.4224C33.8046 61.3315 35.058 62.1959 36.9999 63.2255C37.1566 63.3086 37.3288 63.3501 37.5009 63.3501C37.673 63.3501 37.8451 63.3086 38.0018 63.2255C41.3897 61.4295 43.6459 59.6263 43.6459 56.6637C43.6459 54.3755 42.1027 53.009 40.5732 52.6698C39.4241 52.4148 38.3101 52.6854 37.4879 53.3599ZM41.5068 56.6637C41.5068 58.2616 40.4468 59.4433 37.5007 61.0651C34.5546 59.4432 33.4946 58.2615 33.4946 56.6637C33.4946 55.4747 34.183 54.8837 34.8274 54.7272C34.9462 54.6984 35.0734 54.6821 35.2042 54.6821C35.6889 54.6821 36.2218 54.906 36.5503 55.543C36.7375 55.9055 37.116 56.1302 37.522 56.1218C37.9297 56.1137 38.2974 55.8744 38.4698 55.5048C38.8159 54.763 39.5437 54.6325 40.1096 54.7581C40.7852 54.9077 41.5068 55.4871 41.5068 56.6637Z" fill="black"/>
</g>
<defs>
<clipPath id="clip0">
<rect width="73" height="73" fill="white"/>
</clipPath>
</defs>
</svg>
