<svg width="81" height="81" viewBox="0 0 81 81" fill="none" xmlns="http://www.w3.org/2000/svg">
<g clip-path="url(#clip0)">
<path d="M79.3574 62.7639C80.0048 62.7639 80.5293 62.2392 80.5293 61.592V59.7961C80.5293 56.5564 78.4621 53.6986 75.3846 52.6845L68.0601 50.2745V47.7386C70.6105 46.2084 72.3216 43.4167 72.3216 40.2322V35.1814C72.3216 30.3577 68.3973 26.4333 63.5735 26.4333C60.7323 26.4333 58.204 27.7958 56.6049 29.9006C55.7198 28.2395 54.2187 26.9441 52.3395 26.3269L45.0157 23.9156V21.3797C47.5662 19.8495 49.2773 17.0578 49.2773 13.8733V8.82234C49.2774 3.99859 45.353 0.0742188 40.5293 0.0742188C35.7055 0.0742188 31.7812 3.99859 31.7812 8.82234V13.8731C31.7812 17.0577 33.4923 19.8494 36.0427 21.3795V23.9155L28.7198 26.3266C26.8401 26.9441 25.3388 28.2395 24.4537 29.9006C22.8546 27.7956 20.3263 26.4333 17.4851 26.4333C12.6613 26.4333 8.73695 30.3577 8.73695 35.1814V40.2322C8.73695 43.4167 10.448 46.2084 12.9985 47.7386V50.2745L5.67336 52.6847C2.59648 53.6986 0.529297 56.5564 0.529297 59.7961V61.592C0.529297 62.2392 1.05383 62.7639 1.70117 62.7639C2.34852 62.7639 2.87305 62.2392 2.87305 61.592V59.7961C2.87305 57.5705 4.2932 55.6072 6.40633 54.9108L13.2674 52.6531C13.8945 54.3758 15.5482 55.6092 17.4849 55.6092C19.4215 55.6092 21.0752 54.3756 21.7023 52.6531L28.5624 54.9105C30.0662 55.4061 31.2313 56.5477 31.7702 57.9944L28.719 58.9986C25.6413 60.0114 23.5735 62.8689 23.5735 66.1087V67.4708H9.50226V64.5387C9.50226 63.8916 8.97773 63.3669 8.33039 63.3669C7.68305 63.3669 7.15852 63.8916 7.15852 64.5387V67.4708H2.87305V67.0661C2.87305 66.4189 2.34852 65.8942 1.70117 65.8942C1.05383 65.8942 0.529297 66.4189 0.529297 67.0661V68.6427C0.529297 69.2898 1.05383 69.8145 1.70117 69.8145H23.5735V78.902C23.5735 79.5492 24.098 80.0739 24.7454 80.0739H56.313C56.9604 80.0739 57.4849 79.5492 57.4849 78.902V77.3367C57.4849 76.6895 56.9604 76.1648 56.313 76.1648C55.6657 76.1648 55.1412 76.6895 55.1412 77.3367V77.7305H50.8559V70.8527C50.8559 70.2055 50.3313 69.6808 49.684 69.6808C49.0366 69.6808 48.5121 70.2055 48.5121 70.8527V77.7305H32.5465V70.8527C32.5465 70.2055 32.022 69.6808 31.3746 69.6808C30.7273 69.6808 30.2027 70.2055 30.2027 70.8527V77.7305H25.9173V66.1091C25.9173 63.8836 27.3376 61.9208 29.4516 61.2252L36.312 58.9673C36.9391 60.6897 38.5927 61.9231 40.5293 61.9231C42.4659 61.9231 44.1195 60.6898 44.7466 58.9673L51.607 61.2252C53.721 61.9209 55.1413 63.8836 55.1413 66.1091V71.8656C55.1413 72.5128 55.6659 73.0375 56.3132 73.0375C56.9605 73.0375 57.4851 72.5128 57.4851 71.8656V69.8148H79.3574C80.0048 69.8148 80.5293 69.2902 80.5293 68.643V67.0664C80.5293 66.4192 80.0048 65.8945 79.3574 65.8945C78.7101 65.8945 78.1855 66.4192 78.1855 67.0664V67.4711H73.9001V64.5391C73.9001 63.8919 73.3755 63.3672 72.7282 63.3672C72.0809 63.3672 71.5563 63.8919 71.5563 64.5391V67.4711H57.4849V66.1091C57.4849 62.8691 55.4171 60.0117 52.3395 58.9989L49.2882 57.9947C49.8271 56.5481 50.9921 55.4066 52.4954 54.9109L59.3562 52.6534C59.9832 54.3759 61.637 55.6095 63.5735 55.6095C65.5102 55.6095 67.164 54.3759 67.791 52.6534L74.6515 54.9109C76.7654 55.6072 78.1855 57.5705 78.1855 59.7961V61.592C78.1855 62.2392 78.7101 62.7639 79.3574 62.7639ZM63.5735 28.7769C67.1049 28.7769 69.9779 31.6498 69.9779 35.1813V40.232C69.9779 43.7634 67.1048 46.6364 63.5735 46.6364C60.0423 46.6364 57.1693 43.7634 57.1693 40.232V35.1813C57.1693 31.6498 60.0423 28.7769 63.5735 28.7769ZM34.1249 13.8731V8.82234C34.1249 5.29094 36.9979 2.41797 40.5293 2.41797C44.0607 2.41797 46.9337 5.29094 46.9337 8.82234V13.8731C46.9337 17.4045 44.0605 20.2775 40.5293 20.2775C36.998 20.2775 34.1249 17.4045 34.1249 13.8731ZM40.5293 22.6213C41.2684 22.6213 41.986 22.5283 42.6721 22.3548V24.7325C42.6718 24.7436 42.672 24.7545 42.6721 24.7655C42.6712 25.9463 41.7104 26.9066 40.5295 26.9066C39.3485 26.9066 38.3876 25.9463 38.3868 24.7655C38.3868 24.7544 38.387 24.7434 38.3868 24.7325V22.3548C39.0726 22.5281 39.7902 22.6213 40.5293 22.6213ZM29.452 28.553L36.3118 26.2944C36.9388 28.0169 38.5926 29.2503 40.5291 29.2503C42.4657 29.2503 44.1195 28.0169 44.7465 26.2944L51.6071 28.5531C53.566 29.1966 54.9245 30.912 55.1143 32.9514C54.9263 33.6636 54.8252 34.4108 54.8252 35.1813V40.232C54.8252 40.5289 54.8404 40.8223 54.8695 41.1117H49.2674C49.0662 36.4652 45.2243 32.7466 40.529 32.7466C35.8337 32.7466 31.9918 36.4652 31.7905 41.1117H26.1885C26.2176 40.8223 26.2327 40.5289 26.2327 40.232V35.1813C26.2327 34.4108 26.1316 33.6637 25.9437 32.9514C26.1338 30.9122 27.4924 29.1967 29.452 28.553ZM40.5293 52.9498C36.9979 52.9498 34.1249 50.0769 34.1249 46.5455V41.4947C34.1249 37.9633 36.998 35.0903 40.5293 35.0903C44.0605 35.0903 46.9337 37.9633 46.9337 41.4947V46.5455C46.9337 50.0769 44.0607 52.9498 40.5293 52.9498ZM11.0805 40.232V35.1813C11.0805 31.6498 13.9537 28.7769 17.4849 28.7769C21.0162 28.7769 23.8891 31.6498 23.8891 35.1813V40.232C23.8891 43.7634 21.0162 46.6364 17.4849 46.6364C13.9537 46.6364 11.0805 43.7634 11.0805 40.232ZM19.6276 51.1228C19.6276 52.3044 18.6665 53.2655 17.4849 53.2655C16.3034 53.2655 15.3421 52.3042 15.3421 51.1228V48.7137C16.028 48.8872 16.7457 48.9802 17.4849 48.9802C18.224 48.9802 18.9416 48.8872 19.6276 48.7137V51.1228ZM29.2955 52.6845L21.9715 50.2745V47.7384C23.6104 46.7552 24.9009 45.2503 25.6151 43.4555H31.7812V46.5455C31.7812 49.73 33.4923 52.5217 36.0427 54.0519V56.5883L33.996 57.2619C33.2262 55.1145 31.5151 53.4161 29.2955 52.6845ZM40.5293 59.5792C39.3477 59.5792 38.3865 58.618 38.3865 57.4364V57.4222C38.3865 57.4198 38.3865 57.4175 38.3865 57.4153V55.0273C39.0724 55.2008 39.7901 55.2938 40.5293 55.2938C41.2685 55.2938 41.986 55.2008 42.6721 55.0273V57.4153V57.4222V57.4364C42.6721 58.618 41.7109 59.5792 40.5293 59.5792ZM51.7626 52.6847C49.5435 53.4161 47.8324 55.1145 47.0627 57.262L45.0159 56.5884V54.052C47.5663 52.5219 49.2774 49.7302 49.2774 46.5456V43.4555H55.4435C56.1577 45.2505 57.4482 46.7553 59.0871 47.7384V50.2745L51.7626 52.6847ZM63.5735 53.2656C62.392 53.2656 61.4309 52.3044 61.4309 51.123V48.7139C62.1168 48.8873 62.8345 48.9803 63.5735 48.9803C64.3126 48.9803 65.0302 48.8873 65.7163 48.7139V51.123C65.7163 52.3044 64.7551 53.2656 63.5735 53.2656Z" fill="black"/>
</g>
<defs>
<clipPath id="clip0">
<rect width="80" height="80" fill="white" transform="translate(0.529297 0.0742188)"/>
</clipPath>
</defs>
</svg>
