<svg width="81" height="81" viewBox="0 0 81 81" fill="none" xmlns="http://www.w3.org/2000/svg">
<path d="M71.2939 55.1457L72.1318 54.3078C72.5945 53.8451 72.5945 53.095 72.1318 52.6322C71.669 52.1695 70.9189 52.1695 70.4561 52.6322L69.6183 53.47L68.7805 52.6322C68.3177 52.1695 67.5676 52.1695 67.1049 52.6322C66.6421 53.095 66.6421 53.8451 67.1049 54.3078L67.9427 55.1457L67.1049 55.9835C66.6421 56.4462 66.6421 57.1964 67.1049 57.6591C67.3363 57.8905 67.6396 58.0063 67.9427 58.0063C68.2458 58.0063 68.5491 57.8905 68.7805 57.6591L69.6183 56.8213L70.4561 57.6591C70.6875 57.8905 70.9909 58.0063 71.2939 58.0063C71.597 58.0063 71.9004 57.8905 72.1318 57.6591C72.5945 57.1964 72.5945 56.4462 72.1318 55.9835L71.2939 55.1457Z" fill="black"/>
<path d="M50.6577 71.7363C51.3122 71.7363 51.8427 71.2057 51.8427 70.5512C51.8427 69.8968 51.3122 69.3662 50.6577 69.3662C50.0032 69.3662 49.4727 69.8968 49.4727 70.5512C49.4727 71.2057 50.0032 71.7363 50.6577 71.7363Z" fill="black"/>
<path d="M61.0017 8.92969H53.0271C52.3721 8.92969 51.8421 9.45969 51.8421 10.1147C51.8421 10.7697 52.3721 11.2997 53.0271 11.2997H61.0017C61.8316 11.2997 62.5073 11.9755 62.5073 12.8053V61.9353C62.5073 62.7652 61.8316 63.4409 61.0017 63.4409H11.8717C11.0419 63.4409 10.3661 62.7652 10.3661 61.9353V12.8053C10.3661 11.9755 11.0419 11.2997 11.8717 11.2997H46.9435C47.5985 11.2997 48.1285 10.7697 48.1285 10.1147C48.1285 9.45969 47.5985 8.92969 46.9435 8.92969H11.8717C9.73423 8.92969 7.99609 10.6678 7.99609 12.8053V61.9353C7.99609 64.0728 9.73423 65.811 11.8717 65.811H61.0017C63.1392 65.811 64.8774 64.0728 64.8774 61.9353V12.8053C64.8774 10.6678 63.1392 8.92969 61.0017 8.92969Z" fill="black"/>
<path d="M31.6971 23.15C31.6971 22.495 31.1671 21.965 30.5121 21.965C29.8571 21.965 29.3271 22.495 29.3271 23.15V28.5846L15.9446 15.202C15.4818 14.7393 14.7317 14.7393 14.2689 15.202C13.8062 15.6648 13.8062 16.4149 14.2689 16.8777L27.6514 30.2602H22.2169C21.5619 30.2602 21.0319 30.7902 21.0319 31.4452C21.0319 32.1002 21.5619 32.6302 22.2169 32.6302H30.5121C31.1671 32.6302 31.6971 32.1002 31.6971 31.4452V23.15Z" fill="black"/>
<path d="M51.841 43.2954C51.841 42.6404 51.311 42.1104 50.656 42.1104H42.3608C41.7058 42.1104 41.1758 42.6404 41.1758 43.2954V51.5906C41.1758 52.2456 41.7058 52.7756 42.3608 52.7756C43.0158 52.7756 43.5458 52.2456 43.5458 51.5906V46.156L56.9283 59.5385C57.1597 59.7699 57.4631 59.8858 57.7662 59.8858C58.0692 59.8858 58.3726 59.7699 58.604 59.5385C59.0667 59.0758 59.0667 58.3257 58.604 57.8629L45.2215 44.4804H50.656C51.311 44.4804 51.841 43.9504 51.841 43.2954Z" fill="black"/>
<path d="M58.604 15.202C58.1412 14.7393 57.3911 14.7393 56.9283 15.202L43.5458 28.5846V23.15C43.5458 22.495 43.0158 21.965 42.3608 21.965C41.7058 21.965 41.1758 22.495 41.1758 23.15V31.4452C41.1758 32.1002 41.7058 32.6302 42.3608 32.6302H50.656C51.311 32.6302 51.841 32.1002 51.841 31.4452C51.841 30.7902 51.311 30.2602 50.656 30.2602H45.2215L58.604 16.8777C59.0667 16.4149 59.0667 15.6648 58.604 15.202Z" fill="black"/>
<path d="M30.5121 52.7756C31.1671 52.7756 31.6971 52.2456 31.6971 51.5906V43.2954C31.6971 42.6404 31.1671 42.1104 30.5121 42.1104H22.2169C21.5619 42.1104 21.0319 42.6404 21.0319 43.2954C21.0319 43.9504 21.5619 44.4804 22.2169 44.4804H27.6514L14.2689 57.8629C13.8062 58.3257 13.8062 59.0758 14.2689 59.5385C14.5003 59.7699 14.8037 59.8858 15.1068 59.8858C15.4098 59.8858 15.7132 59.7699 15.9446 59.5385L29.3271 46.156V51.5906C29.3271 52.2456 29.8571 52.7756 30.5121 52.7756Z" fill="black"/>
</svg>
