<svg width="80" height="81" viewBox="0 0 80 81" fill="none" xmlns="http://www.w3.org/2000/svg">
<g clip-path="url(#clip0)">
<path d="M39.8626 10.773C40.7317 10.773 41.4362 10.0685 41.4362 9.19945V2.18102C41.4362 1.31195 40.7317 0.607422 39.8626 0.607422C38.9936 0.607422 38.2891 1.31195 38.2891 2.18102V9.19945C38.2892 10.0685 38.9937 10.773 39.8626 10.773Z" fill="black"/>
<path d="M78.3259 54.6675L75.5461 51.8955C74.5572 50.9078 73.2392 50.3638 71.8348 50.3638C70.9369 50.3638 70.0748 50.5872 69.3109 51.0058L64.0725 45.7736L64.3277 45.5188C66.4528 43.3894 66.452 39.9293 64.3275 37.8071C63.5683 37.0464 62.6209 36.5393 61.5883 36.3258C61.7305 35.835 61.8053 35.321 61.8053 34.7949C61.8053 33.3332 61.2375 31.9625 60.2097 30.9389C59.4503 30.1783 58.5031 29.6711 57.4705 29.4577C57.6126 28.9669 57.6875 28.453 57.6875 27.9268C57.6875 26.4649 57.1197 25.0944 56.0901 24.0693C55.3126 23.2927 54.3569 22.8011 53.3533 22.5919C53.8901 20.7408 53.4314 18.6582 51.9752 17.1994C50.763 15.9924 49.1181 15.4736 47.533 15.6418L37.1525 13.6769C35.5694 13.3766 33.5923 13.178 32.3444 14.3163C32.2656 14.3882 32.1853 14.4708 32.1062 14.5629C30.1712 13.8575 27.9144 14.2775 26.3648 15.8253C25.3369 16.8521 24.7706 18.2221 24.7706 19.683C24.7706 20.2093 24.8452 20.7232 24.9872 21.2141C23.9556 21.4274 23.0095 21.9339 22.2528 22.6921C21.2228 23.7178 20.6548 25.0863 20.6537 26.5455C20.6533 27.073 20.7281 27.5886 20.8709 28.0808C19.8389 28.2936 18.8922 28.7993 18.1331 29.5574C17.1031 30.5863 16.5359 31.9571 16.5359 33.4172C16.5359 34.5357 16.8698 35.6011 17.4886 36.5011C16.7073 36.766 15.9917 37.2068 15.3925 37.8054C13.2659 39.9293 13.2652 43.3896 15.3939 45.5221L15.6481 45.7752L10.4091 51.0047C8.46203 50.088 6.06312 50.4314 4.45641 52.0361L1.67484 54.8099C0.685469 55.798 0.140781 57.1161 0.140625 58.5213C0.140625 59.9266 0.685469 61.2449 1.67484 62.2332L5.14625 65.7004C5.76109 66.3146 6.7575 66.3139 7.37156 65.6991C7.98578 65.0843 7.98516 64.0879 7.37031 63.4738L3.89891 60.0066C3.50484 59.613 3.28781 59.0855 3.28781 58.5214C3.28781 57.9575 3.50484 57.4302 3.89797 57.0375L6.67969 54.2636C7.37469 53.5694 8.43844 53.466 9.24625 53.9489C9.30312 54.0344 9.36891 54.1157 9.44422 54.1911C9.57906 54.3263 9.73297 54.4299 9.89641 54.5057L25.8484 70.4343C25.9242 70.5994 26.0283 70.7549 26.1641 70.8908C26.2962 71.0232 26.447 71.1255 26.607 71.2008C26.9444 71.5822 27.1308 72.0694 27.1308 72.5891C27.1308 73.1532 26.9137 73.6805 26.5197 74.0741L23.7408 76.8497C22.9197 77.6672 21.5841 77.6671 20.7655 76.8522L17.2941 73.3805C16.6795 72.766 15.6833 72.766 15.0687 73.3805C14.4542 73.995 14.4542 74.9913 15.0687 75.6058L18.5427 79.08C19.5652 80.0983 20.908 80.6072 22.2514 80.6072C23.5952 80.6072 24.9395 80.0975 25.9633 79.0783L28.7439 76.301C29.7333 75.3127 30.2781 73.9946 30.2781 72.5891C30.2781 71.5861 29.9992 70.6283 29.4806 69.8024L35.3769 63.9133C35.3831 63.9069 35.3894 63.9005 35.3958 63.8941C36.0709 63.1961 37.9511 63.3268 39.7694 63.453C41.0612 63.5429 42.5016 63.6427 43.9087 63.4805L50.3656 69.9297C49.9473 70.6924 49.7241 71.5533 49.7241 72.4499C49.7241 73.8538 50.2689 75.1711 51.2583 76.1594L54.0391 78.9368C55.0278 79.9244 56.3458 80.4685 57.7501 80.4685C59.1544 80.4685 60.4723 79.9246 61.4612 78.9368L78.327 62.0914C79.3164 61.1033 79.8612 59.7852 79.8612 58.3799C79.8611 56.9747 79.3162 55.6566 78.3259 54.6675ZM36.5666 16.7691L43.3927 18.0611L39.3069 22.1454C38.6748 21.8416 37.8086 21.275 36.8583 20.366C35.5575 19.1216 34.627 17.6849 34.5423 16.7888C34.5422 16.7883 34.5422 16.7879 34.5422 16.7874C34.5422 16.7872 34.542 16.7871 34.542 16.7869C34.5359 16.7225 34.5344 16.6711 34.5352 16.6319C34.7409 16.5819 35.2875 16.5264 36.5666 16.7691ZM28.5887 18.0521C29.3859 17.2557 30.6244 17.1638 31.5252 17.7738C32.0356 19.9141 33.8614 21.8539 34.6828 22.6399C35.2916 23.2224 37.2448 24.9688 39.2164 25.4488C39.4831 25.8311 39.6283 26.2869 39.6283 26.7679C39.6283 27.3874 39.39 27.9666 38.9558 28.4004C38.5228 28.8341 37.9427 29.0729 37.322 29.0729C36.7012 29.0729 36.1211 28.8341 35.6861 28.3983L35.6859 28.3982L35.6852 28.3974L28.5886 21.3136C28.1559 20.8816 27.9177 20.3024 27.9177 19.683C27.9178 19.0635 28.1561 18.4843 28.5887 18.0521ZM24.4769 24.9188C24.9098 24.4852 25.4894 24.2463 26.1091 24.2463C26.7295 24.2463 27.3109 24.4857 27.7467 24.921L33.4611 30.6239C34.3609 31.5252 34.3609 32.9918 33.4642 33.8899C33.0289 34.3235 32.4467 34.5622 31.825 34.5622C31.2033 34.5622 30.6211 34.3235 30.1877 33.8918L30.1875 33.8916L25.8523 29.5574C25.8456 29.5507 25.8383 29.5444 25.8314 29.5375L24.4752 28.1819C24.04 27.7472 23.8005 27.1669 23.8009 26.5478C23.8016 25.9308 24.0403 25.3535 24.4769 24.9188ZM20.3572 31.7841C20.7905 31.3514 21.3712 31.1132 21.9928 31.1132C22.6092 31.1132 23.185 31.348 23.6164 31.7732L27.9648 36.1196C28.3984 36.5514 28.6373 37.13 28.6373 37.7488C28.6373 38.3674 28.3984 38.946 27.9631 39.3796C27.53 39.8121 26.9498 40.0504 26.3294 40.0504C25.708 40.0504 25.1259 39.8114 24.6922 39.3796L23.1158 37.805C23.1155 37.8046 23.115 37.8043 23.1147 37.8039L20.3573 35.0499C19.9227 34.6157 19.6833 34.0357 19.6833 33.4169C19.6833 32.7983 19.9227 32.2182 20.3572 31.7841ZM17.6166 40.0319C18.0517 39.5972 18.6333 39.3579 19.2541 39.3579C19.8747 39.3579 20.4561 39.5971 20.8911 40.0314L22.4697 41.6082C22.9034 42.04 23.1422 42.6186 23.1422 43.2374C23.1422 43.8561 22.9033 44.4346 22.4664 44.8699C22.0334 45.3035 21.4533 45.5424 20.8327 45.5424C20.2119 45.5424 19.6317 45.3036 19.1956 44.8668L18.998 44.6699C18.9953 44.6672 18.9933 44.6644 18.9908 44.6619C18.9878 44.6591 18.9847 44.6566 18.9817 44.6538L17.6181 43.2955C16.7183 42.3938 16.7175 40.9299 17.6166 40.0319ZM49.6844 57.916C49.0701 57.301 48.0737 57.3005 47.4591 57.9146L46.0591 59.3129C44.7287 60.6432 42.3183 60.4757 39.9872 60.3139C37.4558 60.138 34.8381 59.9564 33.1442 61.6955L27.3481 67.4846L12.8539 53.0116L17.9833 47.8914C18.8311 48.4111 19.8094 48.6897 20.833 48.6897C22.2953 48.6897 23.6666 48.1229 24.6908 47.0968C25.7219 46.0699 26.2898 44.6994 26.2898 43.2375C26.2898 43.2239 26.2889 43.2105 26.2889 43.1969C26.3025 43.1971 26.3161 43.1979 26.3297 43.1979C27.79 43.1979 29.1602 42.6327 30.1858 41.6083C31.2169 40.5814 31.7848 39.2108 31.7848 37.7491C31.7848 37.7355 31.7839 37.7221 31.7839 37.7085C31.7977 37.7085 31.8114 37.7094 31.8253 37.7094C33.2852 37.7094 34.6561 37.1449 35.6886 36.1166C36.7605 35.043 37.2906 33.6296 37.2805 32.2191C37.2945 32.2193 37.3086 32.22 37.3227 32.22C38.785 32.2199 40.1561 31.6532 41.1819 30.6255C42.2098 29.5988 42.7761 28.2288 42.7761 26.7679C42.7761 25.7461 42.4983 24.7694 41.9803 23.9233L46.4761 19.4294C46.8111 19.0958 47.2242 18.8864 47.6572 18.8C47.7041 18.795 47.7503 18.7875 47.7961 18.7785C48.4908 18.6827 49.2203 18.8971 49.7516 19.4261C50.6514 20.3275 50.6514 21.7941 49.7548 22.6922L48.3856 24.0558C48.3811 24.0604 48.3762 24.0644 48.3717 24.0689L46.7947 25.6433C46.1797 26.2574 46.1791 27.2538 46.7933 27.8686C47.4076 28.4836 48.4039 28.4841 49.0186 27.87L50.3933 26.4972C50.3936 26.4969 50.3939 26.4966 50.3942 26.4963L50.602 26.2893C51.5044 25.3952 52.9662 25.3971 53.8676 26.2972C54.3014 26.7291 54.5403 27.3077 54.5403 27.9264C54.5403 28.545 54.3014 29.1236 53.8642 29.5589L52.4872 30.9388C52.487 30.9389 52.4869 30.9391 52.4867 30.9394L50.9098 32.5099C50.2941 33.1232 50.292 34.1196 50.9053 34.7352C51.5186 35.351 52.5148 35.3529 53.1306 34.7397L54.7147 33.1621C55.1476 32.7283 55.7278 32.4896 56.3484 32.4896C56.9692 32.4896 57.5495 32.7283 57.9856 33.1652C58.4194 33.5972 58.6581 34.1758 58.6581 34.7946C58.6581 35.4132 58.4194 35.9918 57.9831 36.4261L55.2378 39.1725C54.6234 39.7872 54.6236 40.7835 55.2381 41.3979C55.5455 41.705 55.948 41.8585 56.3506 41.8585C56.7534 41.8585 57.1562 41.7047 57.4634 41.3974L58.8089 40.0514C58.8166 40.0441 58.8248 40.0377 58.8325 40.03C59.2655 39.5963 59.8456 39.3575 60.4662 39.3575C61.087 39.3575 61.6672 39.5963 62.1017 40.0316C63.0006 40.9296 62.9998 42.3936 62.1017 43.2933L60.7337 44.6597C60.7333 44.6602 60.7326 44.6607 60.7322 44.6611C60.7317 44.6616 60.7312 44.6622 60.7308 44.6627L58.5595 46.8313C57.9447 47.4455 57.9441 48.4419 58.5581 49.0568C58.8655 49.3644 59.2686 49.5183 59.6716 49.5183C60.0739 49.5183 60.4764 49.3649 60.7836 49.0582L61.8456 47.9974L66.9358 53.0816L52.4428 67.5569L47.25 62.3703C47.612 62.1375 47.9584 61.8638 48.2836 61.5386L49.6828 60.1411C50.298 59.5272 50.2986 58.5308 49.6844 57.916ZM76.1028 59.8647L59.237 76.71C58.8425 77.1041 58.3144 77.3211 57.75 77.3211C57.1856 77.3211 56.6575 77.1041 56.2628 76.7099L53.482 73.9325C53.088 73.5391 52.8709 73.0125 52.8709 72.4499C52.8709 71.8874 53.088 71.3608 53.482 70.9672L70.3478 54.1219C70.7425 53.7277 71.2705 53.5107 71.835 53.5107C72.3994 53.5107 72.9275 53.7277 73.3231 54.1228L76.103 56.8949C76.497 57.2885 76.7141 57.8157 76.7141 58.3797C76.7139 58.9439 76.4969 59.4713 76.1028 59.8647Z" fill="black"/>
<path d="M18.9656 9.44655C19.2728 9.75312 19.675 9.90624 20.0772 9.90624C20.4803 9.90624 20.8836 9.75218 21.1909 9.44421C21.8048 8.82905 21.8039 7.8328 21.1887 7.2189L15.4546 1.49624C14.8396 0.882335 13.8432 0.883116 13.2293 1.49843C12.6154 2.11358 12.6164 3.10983 13.2315 3.72374L18.9656 9.44655Z" fill="black"/>
<path d="M59.6439 9.90618C60.0462 9.90618 60.4487 9.75274 60.7559 9.44603L66.4856 3.72321C67.1004 3.10915 67.1011 2.11274 66.4868 1.4979C65.8728 0.883057 64.8765 0.882432 64.2615 1.49665L58.5318 7.21946C57.917 7.83353 57.9164 8.82993 58.5306 9.44478C58.8379 9.75243 59.2409 9.90618 59.6439 9.90618Z" fill="black"/>
<path d="M9.81471 68.2954C9.20549 68.9151 9.21393 69.9115 9.83377 70.5207L9.8383 70.5251C10.1441 70.8257 10.5411 70.9754 10.938 70.9754C11.3453 70.9754 11.7527 70.8177 12.0613 70.5038C12.6705 69.8841 12.6597 68.8855 12.04 68.2763C11.4205 67.6671 10.4242 67.6757 9.81471 68.2954Z" fill="black"/>
<path d="M53.5307 55.649C53.7701 55.649 54.0129 55.5945 54.2409 55.4797C55.0168 55.0883 55.3285 54.142 54.9373 53.3661C54.5459 52.5901 53.5995 52.2783 52.8237 52.6697L52.8149 52.674C52.039 53.0654 51.7317 54.0095 52.1229 54.7855C52.3992 55.3336 52.9548 55.649 53.5307 55.649Z" fill="black"/>
</g>
<defs>
<clipPath id="clip0">
<rect width="80" height="80" fill="white" transform="translate(0 0.607422)"/>
</clipPath>
</defs>
</svg>
