<svg width="80" height="80" viewBox="0 0 80 80" fill="none" xmlns="http://www.w3.org/2000/svg">
<g clip-path="url(#clip0)">
<path d="M66.5212 67.0967H13.4786L5.41406 79.9999H74.5857L66.5212 67.0967ZM10.0695 77.4193L14.187 70.8309L18.3044 77.4193H10.0695ZM16.5095 69.6773H24.7663L20.6347 76.276L16.5095 69.6773ZM22.9624 77.4193L27.0902 70.8283L31.2115 77.4193H22.9624ZM29.4128 69.6773H37.6734L33.5405 76.2773L29.4128 69.6773ZM35.8708 77.4193L39.996 70.8309L44.1199 77.4193H35.8708ZM42.3173 69.6773H50.5779L46.4502 76.2773L42.3173 69.6773ZM48.7792 77.4193L52.8992 70.8309L57.0244 77.4193H48.7792ZM55.2218 69.6773H63.4786L59.3547 76.276L55.2218 69.6773ZM65.8063 70.8218L69.9302 77.4193H61.6837L65.8063 70.8218Z" fill="black"/>
<path d="M24.8942 14.5716L23.2258 16.24L17.9987 11.0116C16.72 9.73549 15.0219 9.03226 13.2168 9.03226C12.2245 9.03226 11.2903 9.25807 10.4413 9.64387C9.52645 7.58452 9.03226 5.34323 9.03226 3.02323V2.58065H15.4839V0H0V2.58065H6.45161V3.02323C6.45161 5.8929 7.1071 8.65419 8.30968 11.169C7.16516 12.3806 6.45161 14.0026 6.45161 15.7961C6.45161 17.6039 7.15484 19.3032 8.43355 20.5794L13.6594 25.8065L11.991 27.4748L13.8155 29.2994L26.7187 16.3961L24.8942 14.5716ZM15.4839 23.9819L10.2568 18.7535C9.4671 17.9652 9.03226 16.9148 9.03226 15.7961C9.03226 14.9832 9.27484 14.231 9.67742 13.5884C10.351 14.5845 11.1213 15.5265 11.991 16.3961L13.8155 14.5716C12.9987 13.7548 12.2865 12.8632 11.6697 11.9174C12.1497 11.7252 12.6684 11.6129 13.2168 11.6129C14.3342 11.6129 15.3845 12.0477 16.1755 12.8374L21.4013 18.0645L15.4839 23.9819Z" fill="black"/>
<path d="M64.5161 0V2.58065H70.9677V3.02323C70.9677 5.34323 70.4735 7.58452 69.5587 9.64387C68.7096 9.25807 67.7754 9.03226 66.7832 9.03226C64.978 9.03226 63.2787 9.73548 62 11.0129L56.7742 16.24L55.1058 14.5716L53.2812 16.3961L66.1845 29.2994L68.009 27.4748L66.3406 25.8065L71.5664 20.5806C72.8451 19.3032 73.5483 17.6052 73.5483 15.7961C73.5483 14.0026 72.8348 12.3794 71.6903 11.1677C72.8929 8.65419 73.5483 5.89161 73.5483 3.02323V2.58065H80V0H64.5161ZM69.7419 18.7548L64.5161 23.9819L58.5987 18.0645L63.8245 12.8387C64.6154 12.0477 65.6671 11.6129 66.7832 11.6129C67.3303 11.6129 67.8503 11.7252 68.3303 11.9174C67.7135 12.8632 67.0013 13.7548 66.1845 14.5716L68.009 16.3961C68.8787 15.5265 69.649 14.5845 70.3225 13.5884C70.7251 14.231 70.9677 14.9845 70.9677 15.7961C70.9677 16.9148 70.5329 17.9652 69.7419 18.7548Z" fill="black"/>
<path d="M41.0718 37.5302L55.1621 21.4967L53.224 19.7935L15.8047 62.3741L17.7428 64.0773L23.1105 57.9689L24.5569 63.5496L27.055 62.9018L25.1686 55.627L39.3544 39.4851L53.5402 55.627L51.6537 62.9018L54.1518 63.5496L55.5982 57.9689L60.966 64.0773L62.904 62.3741L41.0718 37.5302Z" fill="black"/>
<path d="M60.6871 28.0597L54.9004 50.3765L57.3985 51.0242L63.1852 28.7074L60.6871 28.0597Z" fill="black"/>
<path d="M25.4874 19.7936L23.5488 21.4971L35.786 35.4231L37.7246 33.7196L25.4874 19.7936Z" fill="black"/>
<path d="M18.0254 28.0612L15.5273 28.709L21.429 51.4692L23.9271 50.8214L18.0254 28.0612Z" fill="black"/>
<path d="M74.8385 46.4517H72.2578V49.0323H74.8385V46.4517Z" fill="black"/>
<path d="M69.8951 47.435L68.0703 49.2598L69.8951 51.0845L71.7199 49.2598L69.8951 47.435Z" fill="black"/>
<path d="M69.6783 51.6128H67.0977V54.1934H69.6783V51.6128Z" fill="black"/>
<path d="M69.897 54.7262L68.0723 56.551L69.897 58.3758L71.7218 56.551L69.897 54.7262Z" fill="black"/>
<path d="M74.8385 56.7742H72.2578V59.3548H74.8385V56.7742Z" fill="black"/>
<path d="M77.1956 54.7248L75.3711 56.5498L77.1961 58.3743L79.0206 56.5493L77.1956 54.7248Z" fill="black"/>
<path d="M80.0006 51.6128H77.4199V54.1934H80.0006V51.6128Z" fill="black"/>
<path d="M77.1939 47.4343L75.3691 49.259L77.1939 51.0838L79.0187 49.259L77.1939 47.4343Z" fill="black"/>
<path d="M41.2896 0H38.709V2.58065H41.2896V0Z" fill="black"/>
<path d="M36.3479 0.980143L34.5234 2.80518L36.3485 4.62969L38.173 2.80466L36.3479 0.980143Z" fill="black"/>
<path d="M36.1295 5.16138H33.5488V7.74202H36.1295V5.16138Z" fill="black"/>
<path d="M36.3485 8.27876L34.5234 10.1033L36.348 11.9283L38.173 10.1038L36.3485 8.27876Z" fill="black"/>
<path d="M41.2896 10.3225H38.709V12.9032H41.2896V10.3225Z" fill="black"/>
<path d="M43.6507 8.28019L41.8262 10.1052L43.6512 11.9297L45.4757 10.1047L43.6507 8.28019Z" fill="black"/>
<path d="M46.4517 5.16138H43.8711V7.74202H46.4517V5.16138Z" fill="black"/>
<path d="M43.647 0.97796L41.8223 2.80273L43.647 4.62751L45.4718 2.80273L43.647 0.97796Z" fill="black"/>
<path d="M7.74275 47.7419H5.16211V50.3226H7.74275V47.7419Z" fill="black"/>
<path d="M2.79913 48.7128L0.974609 50.5378L2.79964 52.3623L4.62416 50.5373L2.79913 48.7128Z" fill="black"/>
<path d="M2.58065 52.9033H0V55.484H2.58065V52.9033Z" fill="black"/>
<path d="M2.80329 56.016L0.978516 57.8408L2.80329 59.6656L4.62806 57.8408L2.80329 56.016Z" fill="black"/>
<path d="M7.74275 58.0645H5.16211V60.6451H7.74275V58.0645Z" fill="black"/>
<path d="M10.0982 56.0173L8.27344 57.842L10.0982 59.6668L11.923 57.842L10.0982 56.0173Z" fill="black"/>
<path d="M12.9029 52.9033H10.3223V55.484H12.9029V52.9033Z" fill="black"/>
<path d="M10.0982 48.7192L8.27344 50.5439L10.0982 52.3687L11.923 50.5439L10.0982 48.7192Z" fill="black"/>
</g>
<defs>
<clipPath id="clip0">
<rect width="80" height="80" fill="white"/>
</clipPath>
</defs>
</svg>
