<svg width="81" height="81" viewBox="0 0 81 81" fill="none" xmlns="http://www.w3.org/2000/svg">
<g clip-path="url(#clip0)">
<path d="M16.9348 45.2644C16.9348 44.617 16.4101 44.0925 15.763 44.0925H2.39259V38.1957C2.39259 36.7995 3.28025 35.5579 4.6015 35.1062L13.4426 32.0823L17.4745 36.6409C17.9309 37.157 18.7298 37.1689 19.202 36.6715L23.5708 32.0726L32.44 35.106C33.7613 35.5579 34.649 36.7995 34.649 38.1956V44.0923H20.8708C20.2236 44.0923 19.6989 44.6169 19.6989 45.2642C19.6989 45.9116 20.2236 46.4361 20.8708 46.4361H35.8208C36.468 46.4361 36.9927 45.9116 36.9927 45.2642V38.1956C36.9927 35.7973 35.468 33.6645 33.1985 32.8882L24.4114 29.8829V27.1012C26.6686 25.3601 27.8972 22.6213 27.7896 19.784H29.7924C31.6783 19.784 33.2127 18.2496 33.2127 16.3635V14.6788C33.2127 12.5131 31.4785 11.2695 29.4383 11.2585V8.03891C29.4383 3.83311 26.0166 0.411377 21.8108 0.411377H15.2312C11.0253 0.411377 7.60354 3.83311 7.60354 8.03891V11.2583C5.75916 11.3889 3.82916 12.513 3.82916 14.6786V16.3633C3.82916 18.2493 5.36354 19.7838 7.24948 19.7838H9.25355C9.1459 22.6205 10.3739 25.3587 12.6301 27.0999V29.8829L3.84306 32.8882C1.57368 33.6645 0.0488281 35.7975 0.0488281 38.1956V45.2642C0.0488281 45.9116 0.573518 46.4361 1.22071 46.4361H15.763C16.4101 46.4362 16.9348 45.9116 16.9348 45.2644ZM30.8691 14.6788V16.3635C30.8691 16.9572 30.3861 17.4402 29.7925 17.4402H27.7897V13.6022H29.7925C30.3861 13.6022 30.8691 14.0852 30.8691 14.6788ZM9.9473 8.03891C9.9473 5.12546 12.3176 2.75514 15.2312 2.75514H21.8108C24.7242 2.75514 27.0946 5.12546 27.0946 8.03891V11.2583C24.2022 11.4345 22.1074 9.47485 21.592 6.70281C21.2847 5.71358 19.99 5.60718 19.4775 6.43203C18.4631 8.4986 16.7378 11.2585 14.1395 11.2585H9.9473V8.03891ZM9.25277 17.44H7.24948C6.65589 17.44 6.17291 16.9571 6.17291 16.3633V14.6788C6.17291 14.0852 6.65589 13.6022 7.24948 13.6022H9.25277V17.44ZM11.5973 20.2502V13.6022H14.1397C16.688 13.6022 18.9753 11.99 20.1523 9.78735C21.1181 11.9013 23.1225 13.3344 25.4453 13.5655L25.4458 20.2502C25.4458 28.622 11.5973 28.5712 11.5973 20.2502ZM22.0677 28.3891V30.2521L18.3833 34.1304L14.9739 30.2756V28.3887C16.8864 29.3602 20.0833 29.2002 22.0677 28.3891Z" fill="black"/>
<path d="M18.4891 22.6226C20.697 22.6342 22.2073 21.7064 22.2073 19.355C22.2073 18.7076 21.6826 18.1831 21.0354 18.1831C20.3882 18.1831 19.8635 18.7076 19.8635 19.355C19.8635 20.6237 17.1777 20.6237 17.1777 19.355C17.1777 18.7076 16.653 18.1831 16.0059 18.1831C15.3587 18.1831 14.834 18.7076 14.834 19.355C14.834 21.1506 16.322 22.6303 18.4891 22.6226Z" fill="black"/>
<path d="M76.2001 66.8635L67.4113 63.8566V61.0762C69.6688 59.335 70.8972 56.5959 70.7894 53.7582H72.793C74.679 53.7582 76.2133 52.2239 76.2133 50.3378V48.6531C76.2133 46.4878 74.8769 45.1768 72.4396 45.2327V42.0127C72.4396 37.4157 68.3794 34.2705 64.0442 34.3861C63.3969 34.3861 62.8723 34.9107 62.8723 35.558C62.8723 36.2054 63.3969 36.7299 64.0442 36.7299C67.0363 36.721 70.0958 38.7151 70.0958 42.0127V45.2327C67.1671 45.4904 65.0344 43.5071 64.5928 40.6776C64.4472 39.6299 63.0066 39.3565 62.4784 40.4068C61.4761 42.3998 59.5976 45.2332 57.1395 45.2332L52.9473 45.2329V42.0129C52.9473 38.7477 55.8148 36.5557 58.938 36.7301C59.5853 36.7301 60.1098 36.2055 60.1098 35.5582C60.1098 34.9108 59.5853 34.3863 58.938 34.3863C54.6229 34.274 50.6035 37.4532 50.6035 42.0129V45.2329C48.5098 45.2648 46.8299 46.4879 46.8299 48.6532V50.3379C46.8299 52.2239 48.3642 53.7584 50.2503 53.7584H52.2536C52.1457 56.5961 53.3742 59.3351 55.6317 61.0762V63.8566L46.8429 66.8633C44.5737 67.6397 43.0488 69.7725 43.0488 72.1707V79.2394C43.0488 79.8868 43.5734 80.4113 44.2207 80.4113H58.938C59.5853 80.4113 60.1098 79.8868 60.1098 79.2394C60.1098 78.5921 59.5853 78.0676 58.938 78.0676H45.3926V72.1707C45.3926 70.7746 46.2804 69.533 47.6017 69.081L56.4431 66.0561L60.4755 70.6153C60.9319 71.1316 61.7308 71.1432 62.203 70.646L66.5722 66.0466L75.4416 69.0813C76.7629 69.5333 77.6507 70.7749 77.6507 72.1708V78.0677H64.0444C63.397 78.0677 62.8725 78.5922 62.8725 79.2396C62.8725 79.8869 63.397 80.4115 64.0444 80.4115H78.8226C79.4699 80.4115 79.9944 79.8869 79.9944 79.2396V72.1708C79.9941 69.7725 78.4693 67.6397 76.2001 66.8635ZM73.8696 48.6531V50.3378C73.8696 50.9315 73.3866 51.4145 72.793 51.4145H70.7897V47.5768L72.793 47.5765C73.3866 47.5765 73.8696 48.0595 73.8696 48.6531ZM50.2501 51.4145C49.6565 51.4145 49.1735 50.9315 49.1735 50.3378V48.6531C49.1735 48.0595 49.6565 47.5765 50.2501 47.5765L52.2534 47.5768V51.4145H50.2501ZM54.5972 54.2253V47.5768H57.1395C59.6839 47.5768 61.9758 45.957 63.1538 43.7607C64.065 45.7479 66.2819 47.317 68.4457 47.5407V54.2253C68.4457 62.5969 54.5972 62.5461 54.5972 54.2253ZM61.3839 68.1047L57.9755 64.2508V62.3641C59.9505 63.0769 63.0925 63.0769 65.0677 62.3641V64.2272L61.3839 68.1047Z" fill="black"/>
<path d="M61.4919 56.5974C63.3934 56.5976 65.2091 55.681 65.2091 53.3296C65.2091 52.6822 64.6845 52.1577 64.0372 52.1577C63.3899 52.1577 62.8653 52.6822 62.8653 53.3296C62.8653 54.5985 60.1797 54.5985 60.1797 53.3296C60.1797 52.6822 59.6552 52.1577 59.0078 52.1577C58.3605 52.1577 57.8359 52.6822 57.8359 53.3296C57.8359 55.1254 59.4872 56.609 61.4919 56.5974Z" fill="black"/>
<path d="M44.5288 20.9576C45.9714 22.623 47.7769 22.6471 49.4505 21.4996C51.0495 20.4032 51.1055 18.5394 50.672 17.3637H56.8355C57.598 17.3637 58.2183 17.984 58.2183 18.7465V25.8508C58.2183 27.8455 59.8409 29.468 61.8355 29.468C63.83 29.468 65.4527 27.8454 65.4527 25.8508V18.7465C65.4527 13.9949 61.587 10.1293 56.8355 10.1293H50.6656C51.1869 8.57959 50.8023 7.21022 49.512 6.02116C47.9445 4.78772 45.6659 5.05959 44.4327 6.62662L40.59 11.5093C39.5675 12.8082 39.5692 14.6918 40.5936 15.9885C40.5938 15.9883 44.4961 20.9249 44.5288 20.9576ZM42.4317 12.959L46.2745 8.07616C46.7086 7.52475 47.5109 7.42881 48.0628 7.86303C48.6277 8.40022 48.6986 8.99631 48.2758 9.65116L47.5477 10.5763C46.7527 11.583 47.1433 12.4304 48.4686 12.473H56.8356C60.2948 12.473 63.1091 15.2874 63.1091 18.7465V25.8508C63.1091 26.553 62.5378 27.1243 61.8356 27.1243C61.1334 27.1243 60.5622 26.553 60.5622 25.8508V18.7465C60.5622 16.6918 58.8905 15.0199 56.8356 15.0199H48.4797C46.948 15.0987 46.8698 16.1924 47.56 16.918L48.2744 17.8226C48.6911 18.4633 48.6308 19.0516 48.0936 19.5874C47.5041 19.9785 46.9786 20.0652 46.23 19.3432L42.4328 14.5354C42.0781 14.0866 42.0775 13.4088 42.4317 12.959Z" fill="black"/>
<path d="M35.5376 60.033C34.3909 58.5813 31.9716 58.401 30.5237 59.3874C29.4238 60.1377 28.8695 62.3494 29.3021 63.5233H23.1387C22.3762 63.5233 21.7559 62.903 21.7559 62.1405V55.0361C21.7559 53.0414 20.1332 51.4189 18.1387 51.4189C16.1441 51.4189 14.5215 53.0416 14.5215 55.0361V62.1405C14.5215 66.8921 18.3871 70.7577 23.1387 70.7577H29.3087C28.7873 72.3074 29.1718 73.6768 30.4621 74.8658C32.2381 76.0694 33.9312 75.8675 35.5415 74.2603L39.3843 69.3775C40.4065 68.0786 40.4049 66.1949 39.3806 64.8985L35.5376 60.033ZM37.5424 67.928L33.6996 72.8108C33.2652 73.3624 32.4631 73.458 31.9113 73.0239C31.3465 72.4868 31.2754 71.8907 31.6982 71.2358L32.4263 70.3107C33.079 69.3566 32.8056 68.4191 31.5054 68.4139H23.1385C19.6793 68.4139 16.8651 65.5996 16.8651 62.1405V55.0361C16.8651 54.3339 17.4363 53.7627 18.1385 53.7627C18.8407 53.7627 19.412 54.3339 19.412 55.0361V62.1405C19.412 64.1952 21.0837 65.8671 23.1385 65.8671H31.4943C32.7274 65.88 33.1571 65.0207 32.414 63.9689L31.6996 63.0644C31.2831 62.4238 31.3434 61.8355 31.8804 61.2996C32.4701 60.9089 32.9956 60.8216 33.7441 61.5438L37.5412 66.3516C37.896 66.8005 37.8965 67.4783 37.5424 67.928Z" fill="black"/>
</g>
<defs>
<clipPath id="clip0">
<rect width="80" height="80" fill="white" transform="translate(0.0214844 0.411377)"/>
</clipPath>
</defs>
</svg>
