<svg width="73" height="72" viewBox="0 0 73 72" fill="none" xmlns="http://www.w3.org/2000/svg">
<path d="M11.7324 8.0022H60.3065V68.4529H11.7324V8.0022Z" fill="#F45858"/>
<path d="M17.5757 13.5493H54.4639V62.6404H17.5757V13.5493Z" fill="#DFEEF4"/>
<path d="M45.8536 13.5493V6.01175C45.8538 5.68795 45.7902 5.36728 45.6664 5.06809C45.5426 4.7689 45.361 4.49706 45.132 4.26813C44.903 4.03919 44.6311 3.85765 44.3319 3.73389C44.0327 3.61013 43.712 3.54658 43.3882 3.54688H28.6507C27.9974 3.54688 27.3709 3.80639 26.909 4.26833C26.447 4.73026 26.1875 5.35679 26.1875 6.01006V13.5476L45.8536 13.5493Z" fill="#3EA2E5"/>
<path d="M23.4492 33.6719H32.2957V42.5183H23.4492V33.6719Z" fill="#F2DA30"/>
<path d="M23.4492 48.1562H32.2957V57.0027H23.4492V48.1562Z" fill="#F2DA30"/>
<path d="M23.4492 19.1875H32.2957V28.0339H23.4492V19.1875Z" fill="#F2DA30"/>
<path d="M11.7324 59.6299C11.9935 59.6299 12.2439 59.5262 12.4285 59.3416C12.6131 59.157 12.7168 58.9066 12.7168 58.6455V56.1143C12.7168 55.8532 12.6131 55.6028 12.4285 55.4182C12.2439 55.2336 11.9935 55.1299 11.7324 55.1299C11.4713 55.1299 11.221 55.2336 11.0364 55.4182C10.8518 55.6028 10.748 55.8532 10.748 56.1143V58.6455C10.748 58.7748 10.7734 58.9028 10.8228 59.0223C10.8723 59.1418 10.9448 59.2503 11.0362 59.3417C11.1276 59.4332 11.2362 59.5057 11.3556 59.5551C11.4751 59.6045 11.6031 59.63 11.7324 59.6299Z" fill="#666666"/>
<path d="M60.3065 19.3325C60.1773 19.3324 60.0492 19.3579 59.9298 19.4073C59.8103 19.4567 59.7017 19.5293 59.6103 19.6207C59.5189 19.7121 59.4464 19.8206 59.397 19.9401C59.3475 20.0596 59.3221 20.1876 59.3222 20.3169V67.4679H12.7168V63.2812C12.7168 63.0201 12.6131 62.7698 12.4285 62.5852C12.2439 62.4006 11.9935 62.2968 11.7324 62.2968C11.4713 62.2968 11.221 62.4006 11.0364 62.5852C10.8518 62.7698 10.748 63.0201 10.748 63.2812V68.4562C10.748 68.5855 10.7734 68.7135 10.8228 68.833C10.8723 68.9525 10.9448 69.061 11.0362 69.1524C11.1276 69.2439 11.2362 69.3164 11.3556 69.3658C11.4751 69.4153 11.6031 69.4407 11.7324 69.4406H60.3065C60.4358 69.4407 60.5639 69.4153 60.6833 69.3658C60.8028 69.3164 60.9113 69.2439 61.0028 69.1524C61.0942 69.061 61.1667 68.9525 61.2161 68.833C61.2656 68.7135 61.291 68.5855 61.2909 68.4562V20.3169C61.291 20.1876 61.2656 20.0596 61.2161 19.9401C61.1667 19.8206 61.0942 19.7121 61.0028 19.6207C60.9113 19.5293 60.8028 19.4567 60.6833 19.4073C60.5639 19.3579 60.4358 19.3324 60.3065 19.3325Z" fill="#666666"/>
<path d="M60.3065 7.01767H46.8381V6.01079C46.8372 5.09633 46.4733 4.21961 45.8265 3.57319C45.1797 2.92678 44.3027 2.56353 43.3882 2.56323H28.6507C27.7367 2.56413 26.8603 2.92764 26.2139 3.57399C25.5676 4.22034 25.2041 5.09672 25.2032 6.01079V7.01767H11.7324C11.6031 7.0176 11.4751 7.04301 11.3556 7.09245C11.2362 7.14189 11.1276 7.2144 11.0362 7.30582C10.9448 7.39724 10.8723 7.50579 10.8228 7.62525C10.7734 7.74472 10.748 7.87275 10.748 8.00204V51.2437C10.748 51.5047 10.8518 51.7551 11.0364 51.9397C11.221 52.1243 11.4713 52.228 11.7324 52.228C11.9935 52.228 12.2439 52.1243 12.4285 51.9397C12.6131 51.7551 12.7168 51.5047 12.7168 51.2437V8.98642H25.2009V12.5656H17.5751C17.314 12.5656 17.0637 12.6693 16.8791 12.8539C16.6944 13.0385 16.5907 13.2889 16.5907 13.55V62.6405C16.5907 62.9016 16.6944 63.1519 16.8791 63.3365C17.0637 63.5211 17.314 63.6249 17.5751 63.6249H54.4633C54.5926 63.6249 54.7206 63.5995 54.8401 63.5501C54.9596 63.5006 55.0681 63.4281 55.1595 63.3367C55.2509 63.2453 55.3235 63.1367 55.3729 63.0173C55.4223 62.8978 55.4477 62.7698 55.4477 62.6405V13.55C55.4477 13.4207 55.4223 13.2927 55.3729 13.1732C55.3235 13.0537 55.2509 12.9452 55.1595 12.8538C55.0681 12.7623 54.9596 12.6898 54.8401 12.6404C54.7206 12.5909 54.5926 12.5655 54.4633 12.5656H46.8381V8.98642H59.3222V15.998C59.3222 16.2591 59.4259 16.5094 59.6105 16.694C59.7951 16.8786 60.0455 16.9824 60.3065 16.9824C60.5676 16.9824 60.818 16.8786 61.0026 16.694C61.1872 16.5094 61.2909 16.2591 61.2909 15.998V8.00204C61.291 7.87275 61.2656 7.74472 61.2161 7.62525C61.1667 7.50579 61.0942 7.39724 61.0028 7.30582C60.9113 7.2144 60.8028 7.14189 60.6833 7.09245C60.5639 7.04301 60.4358 7.0176 60.3065 7.01767ZM53.4789 61.6561H18.5595V14.5344H53.4789V61.6561ZM27.1697 12.5656V6.01079C27.1701 5.61834 27.3264 5.24211 27.6041 4.96482C27.8818 4.68752 28.2583 4.53183 28.6507 4.53198H43.3882C43.7803 4.53243 44.1562 4.68838 44.4334 4.96561C44.7107 5.24284 44.8666 5.61873 44.867 6.01079V12.5656H27.1697Z" fill="#666666"/>
<path d="M35.9634 23.6108C35.9635 23.8719 36.0673 24.1222 36.2519 24.3067C36.4364 24.4913 36.6867 24.5951 36.9478 24.5952H48.5898C48.8509 24.5952 49.1013 24.4915 49.2859 24.3069C49.4705 24.1223 49.5742 23.8719 49.5742 23.6108C49.5742 23.3498 49.4705 23.0994 49.2859 22.9148C49.1013 22.7302 48.8509 22.6265 48.5898 22.6265H36.9489C36.8195 22.6263 36.6914 22.6517 36.5718 22.7011C36.4523 22.7505 36.3436 22.823 36.2521 22.9144C36.1606 23.0058 36.088 23.1144 36.0384 23.2339C35.9889 23.3534 35.9634 23.4815 35.9634 23.6108Z" fill="#666666"/>
<path d="M48.5892 37.1108H36.9482C36.6872 37.1108 36.4368 37.2146 36.2522 37.3992C36.0676 37.5838 35.9639 37.8341 35.9639 38.0952C35.9639 38.3563 36.0676 38.6067 36.2522 38.7913C36.4368 38.9759 36.6872 39.0796 36.9482 39.0796H48.5892C48.8503 39.0796 49.1006 38.9759 49.2852 38.7913C49.4698 38.6067 49.5736 38.3563 49.5736 38.0952C49.5736 37.8341 49.4698 37.5838 49.2852 37.3992C49.1006 37.2146 48.8503 37.1108 48.5892 37.1108Z" fill="#666666"/>
<path d="M48.5892 51.5952H36.9482C36.6872 51.5952 36.4368 51.6989 36.2522 51.8835C36.0676 52.0681 35.9639 52.3185 35.9639 52.5796C35.9639 52.8407 36.0676 53.091 36.2522 53.2757C36.4368 53.4603 36.6872 53.564 36.9482 53.564H48.5892C48.8503 53.564 49.1006 53.4603 49.2852 53.2757C49.4698 53.091 49.5736 52.8407 49.5736 52.5796C49.5736 52.3185 49.4698 52.0681 49.2852 51.8835C49.1006 51.6989 48.8503 51.5952 48.5892 51.5952Z" fill="#666666"/>
<path d="M33.8695 17.3028L32.8171 18.3553C32.6612 18.2562 32.4804 18.2033 32.2957 18.2028H23.4492C23.1882 18.203 22.9379 18.3067 22.7533 18.4913C22.5688 18.6759 22.465 18.9262 22.4648 19.1872V28.0342C22.4648 28.2953 22.5686 28.5457 22.7532 28.7303C22.9378 28.9149 23.1881 29.0186 23.4492 29.0186H32.2957C32.4249 29.0186 32.553 28.9932 32.6724 28.9438C32.7919 28.8944 32.9005 28.8218 32.9919 28.7304C33.0833 28.639 33.1558 28.5305 33.2052 28.411C33.2547 28.2915 33.2801 28.1635 33.28 28.0342V20.6761L35.2617 18.6945C35.441 18.5088 35.5402 18.2601 35.5379 18.002C35.5356 17.7439 35.432 17.497 35.2494 17.3145C35.0669 17.1321 34.82 17.0286 34.5619 17.0264C34.3038 17.0242 34.0552 17.1235 33.8695 17.3028ZM31.3113 27.0498H24.4319V20.1716H31.0002L27.8789 23.2929L27.0942 22.5082C27.0034 22.4142 26.8948 22.3392 26.7747 22.2875C26.6547 22.2359 26.5255 22.2087 26.3948 22.2076C26.2641 22.2064 26.1345 22.2313 26.0135 22.2808C25.8925 22.3302 25.7826 22.4033 25.6901 22.4957C25.5977 22.5881 25.5246 22.698 25.475 22.819C25.4255 22.94 25.4006 23.0696 25.4017 23.2003C25.4028 23.331 25.4299 23.4602 25.4815 23.5803C25.5331 23.7004 25.608 23.809 25.702 23.8998L27.1831 25.3809C27.2745 25.4724 27.383 25.545 27.5024 25.5945C27.6219 25.644 27.7499 25.6695 27.8792 25.6695C28.0085 25.6695 28.1365 25.644 28.256 25.5945C28.3754 25.545 28.4839 25.4724 28.5753 25.3809L31.3113 22.6449V27.0498Z" fill="#666666"/>
<path d="M33.8695 31.7872L32.8171 32.8396C32.6612 32.7405 32.4804 32.6877 32.2957 32.6872H23.4492C23.1882 32.6874 22.9379 32.7911 22.7533 32.9757C22.5688 33.1603 22.465 33.4106 22.4648 33.6716V42.5186C22.4648 42.7797 22.5686 43.03 22.7532 43.2146C22.9378 43.3993 23.1881 43.503 23.4492 43.503H32.2957C32.4249 43.503 32.553 43.4776 32.6724 43.4282C32.7919 43.3787 32.9005 43.3062 32.9919 43.2148C33.0833 43.1234 33.1558 43.0148 33.2052 42.8954C33.2547 42.7759 33.2801 42.6479 33.28 42.5186V35.1605L35.2617 33.1788C35.441 32.9931 35.5402 32.7445 35.5379 32.4864C35.5356 32.2283 35.432 31.9814 35.2494 31.7989C35.0669 31.6164 34.82 31.513 34.5619 31.5108C34.3038 31.5086 34.0552 31.6079 33.8695 31.7872ZM31.3113 41.5342H24.4319V34.656H31.0002L27.8789 37.7773L27.0942 36.9926C26.9086 36.8132 26.66 36.714 26.4019 36.7162C26.1438 36.7183 25.8968 36.8218 25.7143 37.0043C25.5318 37.1868 25.4282 37.4336 25.4259 37.6917C25.4236 37.9498 25.5228 38.1985 25.702 38.3842L27.1831 39.8653C27.2745 39.9568 27.383 40.0293 27.5024 40.0789C27.6219 40.1284 27.7499 40.1539 27.8792 40.1539C28.0085 40.1539 28.1365 40.1284 28.256 40.0789C28.3754 40.0293 28.4839 39.9568 28.5753 39.8653L31.3113 37.1293V41.5342Z" fill="#666666"/>
<path d="M33.8695 46.2716L32.8171 47.324C32.6612 47.2249 32.4804 47.1721 32.2957 47.1716H23.4492C23.1882 47.1718 22.9379 47.2755 22.7533 47.4601C22.5688 47.6447 22.465 47.895 22.4648 48.156V57.003C22.4648 57.2641 22.5686 57.5144 22.7532 57.699C22.9378 57.8836 23.1881 57.9874 23.4492 57.9874H32.2957C32.425 57.9874 32.553 57.962 32.6725 57.9126C32.7919 57.8631 32.9005 57.7906 32.9919 57.6992C33.0833 57.6078 33.1558 57.4992 33.2053 57.3798C33.2547 57.2603 33.2801 57.1323 33.28 57.003V49.6449L35.2617 47.6632C35.3557 47.5724 35.4307 47.4638 35.4823 47.3437C35.5338 47.2236 35.561 47.0944 35.5621 46.9637C35.5632 46.833 35.5382 46.7034 35.4887 46.5824C35.4392 46.4614 35.3661 46.3515 35.2736 46.2591C35.1812 46.1667 35.0713 46.0936 34.9503 46.0442C34.8293 45.9947 34.6997 45.9698 34.569 45.971C34.4383 45.9721 34.3091 45.9993 34.189 46.0509C34.0689 46.1026 33.9603 46.1776 33.8695 46.2716ZM31.3113 56.0186H24.4319V49.1404H31.0002L27.8789 52.2617L27.0942 51.477C26.9086 51.2976 26.66 51.1984 26.4019 51.2006C26.1438 51.2027 25.8969 51.3062 25.7143 51.4887C25.5318 51.6712 25.4282 51.918 25.4259 52.1761C25.4236 52.4342 25.5228 52.6829 25.702 52.8686L27.1831 54.3497C27.2745 54.4412 27.383 54.5137 27.5024 54.5633C27.6219 54.6128 27.7499 54.6383 27.8792 54.6383C28.0085 54.6383 28.1365 54.6128 28.256 54.5633C28.3754 54.5137 28.4839 54.4412 28.5753 54.3497L31.3113 51.6137V56.0186Z" fill="#666666"/>
</svg>
