<svg width="73" height="73" viewBox="0 0 73 73" fill="none" xmlns="http://www.w3.org/2000/svg">
<g clip-path="url(#clip0)">
<path d="M71.0527 27.8553C70.4727 27.8029 69.9585 28.229 69.9049 28.8094C69.397 34.3175 66.9586 39.509 63.0386 43.4277C53.7621 52.7043 38.6681 52.7041 29.3914 43.4277C24.8976 38.9345 22.4227 32.9603 22.4227 26.6055C22.4227 20.2506 24.8976 14.2759 29.3914 9.78204C38.668 0.505458 53.7621 0.505458 63.0386 9.78204C66.9587 13.7021 69.3972 18.8947 69.9049 24.4032C69.9584 24.9836 70.4725 25.4112 71.0527 25.3572C71.6332 25.3037 72.0602 24.7898 72.0068 24.2094C71.4539 18.2111 68.7991 12.5572 64.5312 8.28946C54.4319 -1.81003 37.9986 -1.81003 27.899 8.28946C23.0064 13.182 20.312 19.6866 20.312 26.6054C20.312 32.4905 22.2627 38.0753 25.8565 42.6235L21.6106 46.8695L20.9148 46.1736C19.7836 45.0424 17.4882 45.017 16.3307 46.1745C15.224 47.2812 15.0868 48.9959 15.9188 50.2536L1.79062 64.3818C-2.65376 68.8261 4.19166 75.7324 8.68234 71.2735L14.1562 65.7996C14.5684 65.3875 14.5684 64.7192 14.1562 64.3072C13.744 63.895 13.0758 63.895 12.6638 64.3072L7.1899 69.781C4.81278 72.1582 0.820102 68.3374 3.2832 65.8743L17.3652 51.7922L21.2721 55.699L15.917 61.0554C15.5048 61.4675 15.505 62.1358 15.9171 62.5478C16.3294 62.9601 16.9977 62.96 17.4096 62.5477L22.8107 57.1453C24.2192 57.9775 25.579 57.8401 26.8896 56.7333C28.0472 55.5757 28.0215 53.2802 26.8905 52.1492L26.1946 51.4533L30.4727 47.1753C35.0994 50.7212 40.6562 52.4948 46.215 52.4948C52.8474 52.4948 59.4819 49.9693 64.5309 44.9203C68.7987 40.6539 71.4536 35.0011 72.0066 29.003C72.0602 28.4227 71.6332 27.909 71.0527 27.8553V27.8553ZM25.398 55.24C25.3962 55.2418 25.3944 55.2437 25.3925 55.2456C24.9515 55.6816 24.2381 55.6799 23.7989 55.241L17.8233 49.2653C17.3842 48.8263 17.3827 48.113 17.8185 47.672C18.2239 47.2666 19.023 47.2669 19.4224 47.6662L25.398 53.6419C25.8393 54.1745 25.8393 54.7072 25.398 55.24V55.24ZM24.7025 49.9607L23.1035 48.3618L27.2356 44.2297C27.7478 44.7835 28.2841 45.3133 28.8443 45.819L24.7025 49.9607Z" fill="black"/>
<path d="M31.36 14.049C31.7369 13.6043 31.6818 12.9383 31.237 12.5615C30.7924 12.1848 30.1265 12.2398 29.7495 12.6845C26.2643 16.7976 24.4606 22.0407 24.6708 27.4477C25.1157 38.8944 34.7694 48.1548 46.215 48.1548C57.9786 48.1548 67.776 38.3701 67.776 26.6048C67.776 20.8456 65.5333 15.4314 61.4608 11.3598C57.7633 7.66231 52.857 5.43632 47.6458 5.09185C42.4848 4.75075 37.3769 6.26823 33.2648 9.36469C32.7991 9.71536 32.706 10.377 33.0566 10.8426C33.4073 11.3083 34.0688 11.4016 34.5346 11.0508C42.2199 5.26352 53.1542 6.03802 59.9685 12.8522C63.6422 16.5253 65.6654 21.4094 65.6654 26.6047C65.6654 30.8754 64.2972 34.9354 61.7701 38.2861C61.7827 36.1046 60.6612 34.1184 58.5163 33.3855L52.8335 31.4415C53.5591 30.2989 53.9814 28.9455 53.9814 27.4946L53.981 17.0707C53.981 13.8983 51.4 11.3173 48.2275 11.3173H43.9209C40.7485 11.3173 38.1675 13.8983 38.1675 17.0707L38.1677 27.4946C38.1677 28.9454 38.5899 30.2986 39.3153 31.4412L33.633 33.3854C31.6999 34.0459 30.3982 35.8545 30.3806 37.8942C25.3379 30.7896 25.5815 20.8685 31.36 14.049V14.049ZM40.2783 27.4947V22.4022H41.9696C43.754 22.4022 45.3724 21.3132 46.4074 19.9232C46.9503 21.2464 48.1321 22.4022 49.6529 22.4022H51.8706V27.4947C51.8706 34.4973 40.2783 34.4554 40.2783 27.4947ZM40.2781 17.0709C40.2781 15.0623 41.9122 13.4282 43.9208 13.4282H48.2274C50.236 13.4282 51.8701 15.0623 51.8701 17.0709V20.2915H49.6529C49.2819 20.2915 48.9369 20.0916 48.7524 19.7698L47.5317 17.6408C47.1737 17.0164 46.3256 16.9365 45.849 17.4408L43.9695 19.4298C43.4521 19.9775 42.723 20.2916 41.9696 20.2916H40.2781V17.0709ZM34.3158 35.3827L40.8187 33.1578C43.6053 35.4911 48.5535 35.4816 51.3292 33.158L57.8333 35.3828C58.9254 35.7559 59.6591 36.7818 59.6591 37.9359V40.6598C52.0623 47.9298 39.9733 47.8386 32.4896 40.3855V37.9357C32.4897 36.7818 33.2234 35.7559 34.3158 35.3827V35.3827Z" fill="black"/>
</g>
<defs>
<clipPath id="clip0">
<rect width="72" height="72" fill="white" transform="translate(0.181641 0.714844)"/>
</clipPath>
</defs>
</svg>
