<svg width="81" height="80" viewBox="0 0 81 80" fill="none" xmlns="http://www.w3.org/2000/svg">
<g clip-path="url(#clip0)">
<path d="M39.8646 10.1656C40.7337 10.1656 41.4382 9.46109 41.4382 8.59203V1.57359C41.4382 0.704531 40.7337 0 39.8646 0C38.9955 0 38.291 0.704531 38.291 1.57359V8.59203C38.2912 9.46109 38.9957 10.1656 39.8646 10.1656Z" fill="black"/>
<path d="M78.3279 54.0601L75.548 51.2881C74.5591 50.3004 73.2412 49.7564 71.8368 49.7564C70.9388 49.7564 70.0768 49.9798 69.3129 50.3984L64.0744 45.1662L64.3296 44.9114C66.4548 42.782 66.454 39.3218 64.3294 37.1996C63.5702 36.439 62.6229 35.9318 61.5902 35.7184C61.7324 35.2276 61.8073 34.7136 61.8073 34.1875C61.8073 32.7257 61.2394 31.3551 60.2116 30.3315C59.4523 29.5709 58.5051 29.0637 57.4724 28.8503C57.6146 28.3595 57.6894 27.8456 57.6894 27.3193C57.6894 25.8575 57.1216 24.487 56.0921 23.4618C55.3146 22.6853 54.3588 22.1937 53.3552 21.9845C53.8921 20.1334 53.4334 18.0507 51.9771 16.592C50.7649 15.385 49.1201 14.8662 47.5349 15.0343L37.1544 13.0695C35.5713 12.7692 33.5943 12.5706 32.3463 13.7089C32.2676 13.7807 32.1873 13.8634 32.1082 13.9554C30.1732 13.2501 27.9163 13.6701 26.3668 15.2179C25.3388 16.2446 24.7726 17.6146 24.7726 19.0756C24.7726 19.6018 24.8471 20.1157 24.9891 20.6067C23.9576 20.82 23.0115 21.3265 22.2548 22.0846C21.2248 23.1104 20.6568 24.4789 20.6557 25.9381C20.6552 26.4656 20.7301 26.9812 20.8729 27.4734C19.8409 27.6862 18.8941 28.1918 18.1351 28.95C17.1051 29.9789 16.5379 31.3496 16.5379 32.8098C16.5379 33.9282 16.8718 34.9937 17.4905 35.8937C16.7093 36.1586 15.9937 36.5993 15.3945 37.1979C13.2679 39.3218 13.2671 42.7821 15.3959 44.9146L15.6501 45.1678L10.411 50.3973C8.46398 49.4806 6.06508 49.824 4.45836 51.4287L1.6768 54.2025C0.687422 55.1906 0.142734 56.5087 0.142578 57.9139C0.142578 59.3192 0.687422 60.6375 1.6768 61.6257L5.1482 65.0929C5.76305 65.7071 6.75945 65.7065 7.37352 65.0917C7.98773 64.4768 7.98711 63.4804 7.37226 62.8664L3.90086 59.3992C3.5068 59.0056 3.28977 58.4781 3.28977 57.914C3.28977 57.3501 3.5068 56.8228 3.89992 56.4301L6.68164 53.6562C7.37664 52.962 8.44039 52.8586 9.2482 53.3415C9.30508 53.427 9.37086 53.5082 9.44617 53.5837C9.58101 53.7189 9.73492 53.8225 9.89836 53.8982L25.8504 69.8268C25.9262 69.992 26.0302 70.1475 26.166 70.2834C26.2982 70.4157 26.449 70.5181 26.609 70.5934C26.9463 70.9748 27.1327 71.462 27.1327 71.9817C27.1327 72.5457 26.9157 73.0731 26.5216 73.4667L23.7427 76.2423C22.9216 77.0598 21.586 77.0596 20.7674 76.2448L17.296 72.7731C16.6815 72.1586 15.6852 72.1586 15.0707 72.7731C14.4562 73.3876 14.4562 74.3839 15.0707 74.9984L18.5446 78.4726C19.5671 79.4909 20.9099 79.9998 22.2534 79.9998C23.5971 79.9998 24.9415 79.4901 25.9652 78.4709L28.7459 75.6936C29.7352 74.7053 30.2801 73.3871 30.2801 71.9817C30.2801 70.9787 30.0012 70.0209 29.4826 69.195L35.3788 63.3059C35.3851 63.2995 35.3913 63.2931 35.3977 63.2867C36.0729 62.5887 37.953 62.7193 39.7713 62.8456C41.0632 62.9354 42.5035 63.0353 43.9107 62.8731L50.3676 69.3223C49.9493 70.085 49.726 70.9459 49.726 71.8425C49.726 73.2464 50.2709 74.5637 51.2602 75.552L54.041 78.3293C55.0298 79.317 56.3477 79.8611 57.7521 79.8611C59.1563 79.8611 60.4743 79.3171 61.4632 78.3293L78.329 61.484C79.3183 60.4959 79.8632 59.1778 79.8632 57.7725C79.863 56.3673 79.3182 55.0492 78.3279 54.0601ZM36.5685 16.1617L43.3946 17.4537L39.3088 21.5379C38.6768 21.2342 37.8105 20.6676 36.8602 19.7586C35.5594 18.5142 34.629 17.0775 34.5443 16.1814C34.5441 16.1809 34.5441 16.1804 34.5441 16.18C34.5441 16.1798 34.544 16.1796 34.544 16.1795C34.5379 16.1151 34.5363 16.0637 34.5371 16.0245C34.7429 15.9745 35.2895 15.919 36.5685 16.1617ZM28.5907 17.4446C29.3879 16.6482 30.6263 16.5564 31.5271 17.1664C32.0376 19.3067 33.8634 21.2465 34.6848 22.0325C35.2935 22.615 37.2468 24.3614 39.2184 24.8414C39.4851 25.2237 39.6302 25.6795 39.6302 26.1604C39.6302 26.78 39.3919 27.3592 38.9577 27.7929C38.5248 28.2267 37.9446 28.4654 37.324 28.4654C36.7032 28.4654 36.123 28.2267 35.688 27.7909L35.6879 27.7907L35.6871 27.79L28.5905 20.7062C28.1579 20.2742 27.9196 19.695 27.9196 19.0756C27.9198 18.4561 28.158 17.8768 28.5907 17.4446ZM24.4788 24.3114C24.9118 23.8778 25.4913 23.6389 26.111 23.6389C26.7315 23.6389 27.3129 23.8782 27.7487 24.3136L33.463 30.0165C34.3629 30.9178 34.3629 32.3843 33.4662 33.2825C33.0309 33.7161 32.4487 33.9548 31.827 33.9548C31.2052 33.9548 30.623 33.7161 30.1896 33.2843L30.1895 33.2842L25.8543 28.95C25.8476 28.9432 25.8402 28.937 25.8334 28.9301L24.4771 27.5745C24.042 27.1398 23.8024 26.5595 23.8029 25.9404C23.8035 25.3234 24.0423 24.7461 24.4788 24.3114ZM20.3591 31.1767C20.7924 30.744 21.3732 30.5057 21.9948 30.5057C22.6112 30.5057 23.187 30.7406 23.6184 31.1657L27.9668 35.5121C28.4004 35.944 28.6393 36.5226 28.6393 37.1414C28.6393 37.76 28.4004 38.3386 27.9651 38.7721C27.5319 39.2046 26.9518 39.4429 26.3313 39.4429C25.7099 39.4429 25.1279 39.204 24.6941 38.7721L23.1177 37.1976C23.1174 37.1971 23.117 37.1968 23.1166 37.1965L20.3593 34.4425C19.9246 34.0082 19.6852 33.4282 19.6852 32.8095C19.6852 32.1909 19.9246 31.6107 20.3591 31.1767ZM17.6185 39.4245C18.0537 38.9898 18.6352 38.7504 19.256 38.7504C19.8766 38.7504 20.458 38.9896 20.893 39.424L22.4716 41.0007C22.9054 41.4326 23.1441 42.0112 23.1441 42.63C23.1441 43.2487 22.9052 43.8271 22.4684 44.2625C22.0354 44.6961 21.4552 44.935 20.8346 44.935C20.2138 44.935 19.6337 44.6962 19.1976 44.2593L18.9999 44.0625C18.9973 44.0598 18.9952 44.057 18.9927 44.0545C18.9898 44.0517 18.9866 44.0492 18.9837 44.0464L17.6201 42.6881C16.7202 41.7864 16.7195 40.3225 17.6185 39.4245ZM49.6863 57.3086C49.0721 56.6936 48.0757 56.6931 47.461 57.3071L46.061 58.7054C44.7307 60.0357 42.3202 59.8682 39.9891 59.7065C37.4577 59.5306 34.8401 59.349 33.1462 61.0881L27.3501 66.8771L12.8559 52.4042L17.9852 47.284C18.833 47.8037 19.8113 48.0823 20.8349 48.0823C22.2973 48.0823 23.6685 47.5154 24.6927 46.4893C25.7238 45.4625 26.2918 44.092 26.2918 42.6301C26.2918 42.6165 26.2909 42.6031 26.2909 42.5895C26.3045 42.5896 26.318 42.5904 26.3316 42.5904C27.792 42.5904 29.1621 42.0253 30.1877 41.0009C31.2188 39.974 31.7868 38.6034 31.7868 37.1417C31.7868 37.1281 31.7859 37.1146 31.7859 37.1011C31.7996 37.1011 31.8134 37.102 31.8273 37.102C33.2871 37.102 34.658 36.5375 35.6905 35.5092C36.7624 34.4356 37.2926 33.0221 37.2824 31.6117C37.2965 31.6118 37.3105 31.6126 37.3246 31.6126C38.7869 31.6125 40.158 31.0457 41.1838 30.0181C42.2118 28.9914 42.778 27.6214 42.778 26.1604C42.778 25.1387 42.5002 24.162 41.9823 23.3159L46.478 18.822C46.813 18.4884 47.2262 18.279 47.6591 18.1926C47.706 18.1876 47.7523 18.1801 47.798 18.1711C48.4927 18.0753 49.2223 18.2896 49.7535 18.8187C50.6534 19.7201 50.6534 21.1867 49.7568 22.0848L48.3876 23.4484C48.383 23.4529 48.3782 23.457 48.3737 23.4615L46.7966 25.0359C46.1816 25.65 46.181 26.6464 46.7952 27.2612C47.4096 27.8762 48.4059 27.8767 49.0205 27.2626L50.3952 25.8898C50.3955 25.8895 50.3959 25.8892 50.3962 25.8889L50.604 25.6818C51.5063 24.7878 52.9682 24.7896 53.8696 25.6898C54.3034 26.1217 54.5423 26.7003 54.5423 27.319C54.5423 27.9376 54.3034 28.5162 53.8662 28.9515L52.4891 30.3314C52.489 30.3315 52.4888 30.3317 52.4887 30.332L50.9118 31.9025C50.296 32.5157 50.294 33.5121 50.9073 34.1278C51.5205 34.7436 52.5168 34.7454 53.1326 34.1323L54.7166 32.5546C55.1496 32.1209 55.7298 31.8821 56.3504 31.8821C56.9712 31.8821 57.5515 32.1209 57.9876 32.5578C58.4213 32.9898 58.6601 33.5684 58.6601 34.1871C58.6601 34.8057 58.4213 35.3843 57.9851 35.8187L55.2398 38.5651C54.6254 39.1798 54.6255 40.1761 55.2401 40.7904C55.5474 41.0976 55.9499 41.2511 56.3526 41.2511C56.7554 41.2511 57.1582 41.0973 57.4654 40.79L58.8109 39.444C58.8185 39.4367 58.8268 39.4303 58.8344 39.4226C59.2674 38.9889 59.8476 38.7501 60.4682 38.7501C61.089 38.7501 61.6691 38.9889 62.1037 39.4242C63.0026 40.3221 63.0018 41.7862 62.1037 42.6859L60.7357 44.0523C60.7352 44.0528 60.7346 44.0532 60.7341 44.0537C60.7337 44.0542 60.7332 44.0548 60.7327 44.0553L58.5615 46.2239C57.9466 46.8381 57.946 47.8345 58.5601 48.4493C58.8674 48.757 59.2705 48.9109 59.6735 48.9109C60.0759 48.9109 60.4784 48.7575 60.7855 48.4507L61.8476 47.39L66.9377 52.4742L52.4448 66.9495L47.2519 61.7629C47.614 61.5301 47.9604 61.2564 48.2855 60.9312L49.6848 59.5337C50.2999 58.9198 50.3005 57.9234 49.6863 57.3086ZM76.1048 59.2573L59.239 76.1026C58.8444 76.4967 58.3163 76.7137 57.7519 76.7137C57.1876 76.7137 56.6594 76.4967 56.2648 76.1025L53.484 73.3251C53.0899 72.9317 52.8729 72.4051 52.8729 71.8425C52.8729 71.28 53.0899 70.7534 53.484 70.3598L70.3498 53.5145C70.7444 53.1203 71.2724 52.9032 71.8369 52.9032C72.4013 52.9032 72.9294 53.1203 73.3251 53.5154L76.1049 56.2875C76.499 56.6811 76.716 57.2082 76.716 57.7723C76.7159 58.3365 76.4988 58.8639 76.1048 59.2573Z" fill="black"/>
<path d="M18.9695 8.83913C19.2767 9.14569 19.6789 9.29882 20.0811 9.29882C20.4842 9.29882 20.8875 9.14476 21.1948 8.83679C21.8087 8.22163 21.8078 7.22538 21.1926 6.61148L15.4586 0.888819C14.8436 0.274913 13.8471 0.275694 13.2332 0.891007C12.6193 1.50616 12.6203 2.50241 13.2354 3.11632L18.9695 8.83913Z" fill="black"/>
<path d="M59.6497 9.29876C60.0521 9.29876 60.4546 9.14532 60.7618 8.8386L66.4915 3.11579C67.1063 2.50173 67.1069 1.50532 66.4927 0.890479C65.8786 0.275635 64.8824 0.27501 64.2674 0.889229L58.5377 6.61204C57.9229 7.2261 57.9222 8.22251 58.5364 8.83735C58.8438 9.14501 59.2468 9.29876 59.6497 9.29876Z" fill="black"/>
<path d="M9.81861 67.688C9.20939 68.3076 9.21783 69.3041 9.83767 69.9133L9.84221 69.9176C10.148 70.2183 10.545 70.368 10.9419 70.368C11.3492 70.368 11.7566 70.2103 12.0652 69.8964C12.6744 69.2767 12.6636 68.2781 12.0439 67.6689C11.4244 67.0597 10.4281 67.0683 9.81861 67.688Z" fill="black"/>
<path d="M53.5366 55.0416C53.7759 55.0416 54.0188 54.9871 54.2467 54.8723C55.0227 54.4808 55.3344 53.5346 54.9431 52.7587C54.5517 51.9827 53.6053 51.6708 52.8295 52.0622L52.8208 52.0666C52.0449 52.458 51.7375 53.4021 52.1288 54.178C52.405 54.7262 52.9606 55.0416 53.5366 55.0416Z" fill="black"/>
</g>
<defs>
<clipPath id="clip0">
<rect width="80" height="80" fill="white" transform="translate(0.00390625)"/>
</clipPath>
</defs>
</svg>
