<svg width="81" height="81" viewBox="0 0 81 81" fill="none" xmlns="http://www.w3.org/2000/svg">
<g clip-path="url(#clip0)">
<path d="M74.886 16.5781C71.9446 16.5781 69.5527 18.9702 69.5527 21.9114C69.5527 24.8527 71.9448 27.2447 74.886 27.2447C77.8273 27.2447 80.2193 24.8528 80.2193 21.9114C80.2193 18.9702 77.8273 16.5781 74.886 16.5781ZM74.886 24.5781C73.4154 24.5781 72.2193 23.3822 72.2193 21.9114C72.2193 20.4408 73.4152 19.2447 74.886 19.2447C76.3568 19.2447 77.5527 20.4406 77.5527 21.9114C77.5526 23.3822 76.3566 24.5781 74.886 24.5781Z" fill="black"/>
<path d="M5.55203 60.5781C2.61078 60.5781 0.21875 62.9702 0.21875 65.9114C0.21875 68.8527 2.61078 71.2447 5.55203 71.2447C8.49344 71.2447 10.8853 68.8527 10.8853 65.9114C10.8853 62.9702 8.49344 60.5781 5.55203 60.5781ZM5.55203 68.5781C4.08141 68.5781 2.88531 67.3822 2.88531 65.9114C2.88531 64.4406 4.08125 63.2447 5.55203 63.2447C7.02266 63.2447 8.21875 64.4406 8.21875 65.9114C8.21875 67.3822 7.02281 68.5781 5.55203 68.5781Z" fill="black"/>
<path d="M72.3001 18.2633L60.7975 12.71C60.1334 12.3886 59.3375 12.6686 59.0175 13.3314C58.6975 13.9941 58.9761 14.7914 59.6389 15.1114L71.1415 20.6647C71.3283 20.7553 71.5256 20.798 71.7201 20.798C72.2161 20.798 72.6922 20.5206 72.9214 20.0433C73.2414 19.3806 72.9628 18.5833 72.3001 18.2633Z" fill="black"/>
<path d="M60.218 69.9114C57.2766 69.9114 54.8848 72.3034 54.8848 75.2447C54.8848 78.1859 57.2766 80.5781 60.218 80.5781C63.1595 80.5781 65.5513 78.1861 65.5513 75.2448C65.5513 72.3036 63.1595 69.9114 60.218 69.9114ZM60.218 77.9114C58.7474 77.9114 57.5513 76.7154 57.5513 75.2447C57.5513 73.7739 58.7474 72.5781 60.218 72.5781C61.6887 72.5781 62.8848 73.774 62.8848 75.2448C62.8848 76.7156 61.6887 77.9114 60.218 77.9114Z" fill="black"/>
<path d="M57.6341 71.597L46.1315 66.0437C45.4674 65.7223 44.6715 66.001 44.3515 66.6651C44.0315 67.3278 44.3101 68.1251 44.9729 68.4451L56.4755 73.9984C56.6623 74.089 56.8596 74.1317 57.0541 74.1317C57.5501 74.1317 58.0262 73.8543 58.2555 73.377C58.5754 72.7142 58.2968 71.917 57.6341 71.597Z" fill="black"/>
<path d="M40.218 36.5781C37.2766 36.5781 34.8848 38.9702 34.8848 41.9114C34.8848 44.8528 37.2768 47.2447 40.218 47.2447C43.1595 47.2447 45.5513 44.8527 45.5513 41.9114C45.5513 38.9702 43.1595 36.5781 40.218 36.5781ZM40.218 44.5781C38.7474 44.5781 37.5513 43.3822 37.5513 41.9114C37.5513 40.4408 38.7473 39.2447 40.218 39.2447C41.6887 39.2447 42.8848 40.4406 42.8848 41.9114C42.8848 43.3822 41.6887 44.5781 40.218 44.5781Z" fill="black"/>
<path d="M37.8744 38.4128L29.0384 31.5261C28.457 31.0767 27.6198 31.1767 27.1664 31.7582C26.7144 32.3396 26.817 33.1767 27.3984 33.6302L36.2344 40.5169C36.4784 40.7063 36.7664 40.7983 37.0531 40.7983C37.4505 40.7983 37.8425 40.6224 38.1064 40.285C38.5584 39.7035 38.4558 38.8661 37.8744 38.4128Z" fill="black"/>
<path d="M64.2195 35.2449C56.1327 35.2449 49.5527 41.8249 49.5527 49.9116C49.5527 57.9983 56.1327 64.5783 64.2195 64.5783C72.3062 64.5783 78.8862 57.9983 78.8862 49.9116C78.8862 41.8249 72.3062 35.2449 64.2195 35.2449ZM64.2195 61.9114C57.6021 61.9114 52.2195 56.5288 52.2195 49.9114C52.2195 43.2941 57.6021 37.9114 64.2195 37.9114C70.8368 37.9114 76.2194 43.2941 76.2194 49.9114C76.2194 56.5288 70.8368 61.9114 64.2195 61.9114Z" fill="black"/>
<path d="M64.218 40.5781C61.2766 40.5781 58.8848 42.9702 58.8848 45.9114C58.8848 48.8528 61.2768 51.2447 64.218 51.2447C67.1595 51.2447 69.5513 48.8527 69.5513 45.9114C69.5513 42.9702 67.1595 40.5781 64.218 40.5781ZM64.218 48.5781C62.7474 48.5781 61.5513 47.3822 61.5513 45.9114C61.5513 44.4408 62.7473 43.2447 64.218 43.2447C65.6887 43.2447 66.8848 44.4406 66.8848 45.9114C66.8848 47.3822 65.6887 48.5781 64.218 48.5781Z" fill="black"/>
<path d="M68.0867 53.9114H60.3508C58.0722 53.9114 56.2188 55.7154 56.2188 57.9314V61.4461C56.2188 61.922 56.472 62.362 56.8841 62.6008C59.1187 63.894 61.6547 64.5781 64.2188 64.5781C66.7828 64.5781 69.3188 63.894 71.5534 62.6008C71.9655 62.3634 72.2188 61.922 72.2188 61.4475V57.9328C72.2188 55.7154 70.3655 53.9114 68.0867 53.9114ZM69.552 60.6514C66.2334 62.3047 62.2041 62.3047 58.8853 60.6514V57.9328C58.8853 57.1861 59.5427 56.5781 60.3506 56.5781H68.0866C68.8945 56.5781 69.5519 57.1861 69.5519 57.9328V60.6514H69.552Z" fill="black"/>
<path d="M32.2175 51.2449C24.1308 51.2449 17.5508 57.8249 17.5508 65.9116C17.5508 73.9983 24.1308 80.5781 32.2175 80.5781C40.3042 80.5781 46.8842 73.9981 46.8842 65.9114C46.8842 57.8247 40.3042 51.2449 32.2175 51.2449ZM32.2175 77.9114C25.6002 77.9114 20.2175 72.5288 20.2175 65.9114C20.2175 59.2941 25.6002 53.9114 32.2175 53.9114C38.8348 53.9114 44.2175 59.2941 44.2175 65.9114C44.2175 72.5288 38.8348 77.9114 32.2175 77.9114Z" fill="black"/>
<path d="M32.218 56.5781C29.2766 56.5781 26.8848 58.9702 26.8848 61.9114C26.8848 64.8528 29.2768 67.2447 32.218 67.2447C35.1593 67.2447 37.5513 64.8527 37.5513 61.9114C37.5513 58.9702 35.1595 56.5781 32.218 56.5781ZM32.218 64.5781C30.7474 64.5781 29.5513 63.3822 29.5513 61.9114C29.5513 60.4408 30.7473 59.2447 32.218 59.2447C33.6887 59.2447 34.8848 60.4406 34.8848 61.9114C34.8848 63.3822 33.6887 64.5781 32.218 64.5781Z" fill="black"/>
<path d="M36.0867 69.9114H28.3508C26.0722 69.9114 24.2188 71.7154 24.2188 73.9314V77.4461C24.2188 77.922 24.472 78.362 24.8841 78.6008C27.1187 79.894 29.6547 80.5781 32.2188 80.5781C34.7828 80.5781 37.3188 79.894 39.5534 78.6008C39.9655 78.3634 40.2188 77.9222 40.2188 77.4475V73.9328C40.2188 71.7154 38.3655 69.9114 36.0867 69.9114ZM37.552 76.6514C34.2333 78.3047 30.2041 78.3047 26.8853 76.6514V73.9328C26.8853 73.1861 27.5427 72.5781 28.3506 72.5781H36.0866C36.8945 72.5781 37.5519 73.1861 37.5519 73.9328V76.6514H37.552Z" fill="black"/>
<path d="M14.8855 17.9114C6.79875 17.9114 0.21875 24.4914 0.21875 32.5781C0.21875 40.6648 6.79875 47.2448 14.8855 47.2448C22.9722 47.2448 29.5522 40.6648 29.5522 32.5781C29.552 24.4914 22.972 17.9114 14.8855 17.9114ZM14.8855 44.5781C8.26812 44.5781 2.88547 39.1954 2.88547 32.5781C2.88547 25.9607 8.26812 20.5781 14.8855 20.5781C21.5028 20.5781 26.8855 25.9607 26.8855 32.5781C26.8855 39.1954 21.5028 44.5781 14.8855 44.5781Z" fill="black"/>
<path d="M14.886 23.2449C11.9446 23.2449 9.55273 25.6369 9.55273 28.5782C9.55273 31.5194 11.9448 33.9114 14.886 33.9114C17.8274 33.9114 20.2193 31.5194 20.2193 28.5782C20.2193 25.6369 17.8273 23.2449 14.886 23.2449ZM14.886 31.2449C13.4154 31.2449 12.2193 30.0489 12.2193 28.5782C12.2193 27.1074 13.4152 25.9114 14.886 25.9114C16.3566 25.9114 17.5527 27.1074 17.5527 28.5782C17.5527 30.0489 16.3566 31.2449 14.886 31.2449Z" fill="black"/>
<path d="M18.7527 36.5781H11.0168C8.7382 36.5781 6.88477 38.3822 6.88477 40.5981V44.1128C6.88477 44.5888 7.13805 45.0287 7.55008 45.2675C9.78477 46.5608 12.3207 47.2448 14.8848 47.2448C17.4488 47.2448 19.9848 46.5608 22.2195 45.2675C22.6315 45.0302 22.8848 44.5888 22.8848 44.1142V40.5995C22.8848 38.3822 21.0313 36.5781 18.7527 36.5781ZM20.2181 43.3181C16.8995 44.9714 12.8701 44.9714 9.55133 43.3181V40.5995C9.55133 39.8528 10.2087 39.2448 11.0166 39.2448H18.7526C19.5606 39.2448 20.2179 39.8528 20.2179 40.5995V43.3181H20.2181Z" fill="black"/>
<path d="M46.8855 0.578125C38.7987 0.578125 32.2188 7.15812 32.2188 15.2448C32.2188 23.3316 38.7987 29.9116 46.8855 29.9116C54.9722 29.9116 61.5522 23.3316 61.5522 15.2448C61.552 7.15812 54.972 0.578125 46.8855 0.578125ZM46.8855 27.2448C40.2681 27.2448 34.8855 21.8622 34.8855 15.2448C34.8855 8.6275 40.2681 3.24484 46.8855 3.24484C53.5028 3.24484 58.8855 8.6275 58.8855 15.2448C58.8855 21.8622 53.5028 27.2448 46.8855 27.2448Z" fill="black"/>
<path d="M46.886 5.91138C43.9446 5.91138 41.5527 8.30341 41.5527 11.2447C41.5527 14.1859 43.9448 16.5779 46.886 16.5779C49.8273 16.5779 52.2193 14.1861 52.2193 11.2448C52.2193 8.30356 49.8273 5.91138 46.886 5.91138ZM46.886 13.9114C45.4154 13.9114 44.2193 12.7154 44.2193 11.2447C44.2193 9.77403 45.4152 8.57794 46.886 8.57794C48.3568 8.57794 49.5527 9.77388 49.5527 11.2447C49.5526 12.7154 48.3566 13.9114 46.886 13.9114Z" fill="black"/>
<path d="M50.7527 19.2449H43.0168C40.7382 19.2449 38.8848 21.0489 38.8848 23.2649V26.7796C38.8848 27.2555 39.138 27.6955 39.5501 27.9342C41.7848 29.2275 44.3207 29.9116 46.8848 29.9116C49.4488 29.9116 51.9848 29.2275 54.2194 27.9342C54.6315 27.6969 54.8848 27.2555 54.8848 26.781V23.2663C54.8848 21.0488 53.0313 19.2449 50.7527 19.2449ZM52.218 25.9849C48.8994 27.6381 44.8701 27.6381 41.5513 25.9849V23.2663C41.5513 22.5196 42.2087 21.9116 43.0166 21.9116H50.7526C51.5605 21.9116 52.2179 22.5196 52.2179 23.2663V25.9849H52.218Z" fill="black"/>
<path d="M34.5654 14.3766C34.0868 13.8193 33.2454 13.7526 32.6854 14.2313L23.4454 22.138C22.8854 22.6166 22.8201 23.458 23.2987 24.018C23.5627 24.326 23.936 24.4848 24.312 24.4848C24.6187 24.4848 24.9267 24.3794 25.1787 24.1634L34.4187 16.2566C34.9788 15.778 35.0442 14.9366 34.5654 14.3766Z" fill="black"/>
<path d="M63.9508 35.7794L55.9508 25.1127C55.5094 24.5221 54.6734 24.406 54.0841 24.846C53.4947 25.2874 53.3761 26.1233 53.8173 26.7113L61.8173 37.378C62.08 37.7274 62.48 37.9113 62.8853 37.9113C63.1626 37.9113 63.4441 37.8246 63.6841 37.6446C64.2734 37.2033 64.3922 36.3674 63.9508 35.7794Z" fill="black"/>
<path d="M53.0081 54.3209C52.5667 53.7315 51.7308 53.6129 51.1414 54.0542L43.6934 59.6395C43.1041 60.0809 42.9855 60.9168 43.4267 61.5048C43.6894 61.8542 44.0894 62.0381 44.4947 62.0381C44.7733 62.0381 45.0533 61.9501 45.2934 61.7713L52.7414 56.186C53.3308 55.7449 53.4495 54.9088 53.0081 54.3209Z" fill="black"/>
<path d="M18.8855 64.5781H9.55203C8.81609 64.5781 8.21875 65.1741 8.21875 65.9114C8.21875 66.6487 8.81609 67.2447 9.55203 67.2447H18.8853C19.6213 67.2447 20.2186 66.6487 20.2186 65.9114C20.2186 65.1741 19.6214 64.5781 18.8855 64.5781Z" fill="black"/>
<path d="M14.8862 0.578125C11.9448 0.578125 9.55273 2.97016 9.55273 5.91141C9.55273 8.85281 11.9448 11.2447 14.886 11.2447C17.8274 11.2447 20.2193 8.85266 20.2193 5.91141C20.2195 2.97016 17.8274 0.578125 14.8862 0.578125ZM14.8862 8.57812C13.4155 8.57812 12.2195 7.38219 12.2195 5.91141C12.2195 4.44078 13.4154 3.24469 14.8862 3.24469C16.3568 3.24469 17.5529 4.44062 17.5529 5.91141C17.5527 7.38219 16.3568 8.57812 14.8862 8.57812Z" fill="black"/>
<path d="M14.886 8.57812C14.1501 8.57812 13.5527 9.17406 13.5527 9.91141V19.2447C13.5527 19.982 14.1501 20.578 14.886 20.578C15.622 20.578 16.2193 19.982 16.2193 19.2447V9.91141C16.2193 9.17406 15.622 8.57812 14.886 8.57812Z" fill="black"/>
</g>
<defs>
<clipPath id="clip0">
<rect width="80" height="80" fill="white" transform="translate(0.21875 0.578125)"/>
</clipPath>
</defs>
</svg>
