<svg width="81" height="81" viewBox="0 0 81 81" fill="none" xmlns="http://www.w3.org/2000/svg">
<g clip-path="url(#clip0)">
<path d="M74.8841 16.2373C71.9427 16.2373 69.5508 18.6293 69.5508 21.5706C69.5508 24.5118 71.9428 26.9039 74.8841 26.9039C77.8253 26.9039 80.2173 24.512 80.2173 21.5706C80.2173 18.6293 77.8253 16.2373 74.8841 16.2373ZM74.8841 24.2373C73.4134 24.2373 72.2173 23.0414 72.2173 21.5706C72.2173 20.1 73.4133 18.9039 74.8841 18.9039C76.3548 18.9039 77.5508 20.0998 77.5508 21.5706C77.5506 23.0414 76.3547 24.2373 74.8841 24.2373Z" fill="black"/>
<path d="M5.55203 60.2373C2.61078 60.2373 0.21875 62.6293 0.21875 65.5706C0.21875 68.5118 2.61078 70.9039 5.55203 70.9039C8.49344 70.9039 10.8853 68.5118 10.8853 65.5706C10.8853 62.6293 8.49344 60.2373 5.55203 60.2373ZM5.55203 68.2373C4.08141 68.2373 2.88531 67.0414 2.88531 65.5706C2.88531 64.0998 4.08125 62.9039 5.55203 62.9039C7.02266 62.9039 8.21875 64.0998 8.21875 65.5706C8.21875 67.0414 7.02281 68.2373 5.55203 68.2373Z" fill="black"/>
<path d="M72.2982 17.9225L60.7955 12.3692C60.1315 12.0478 59.3355 12.3278 59.0155 12.9906C58.6955 13.6532 58.9741 14.4506 59.6369 14.7706L71.1396 20.3239C71.3263 20.4145 71.5237 20.4571 71.7182 20.4571C72.2141 20.4571 72.6902 20.1798 72.9194 19.7025C73.2394 19.0398 72.9608 18.2425 72.2982 17.9225Z" fill="black"/>
<path d="M60.22 69.5706C57.2786 69.5706 54.8867 71.9626 54.8867 74.9038C54.8867 77.8451 57.2786 80.2373 60.22 80.2373C63.1614 80.2373 65.5533 77.8452 65.5533 74.904C65.5533 71.9627 63.1614 69.5706 60.22 69.5706ZM60.22 77.5706C58.7494 77.5706 57.5533 76.3746 57.5533 74.9038C57.5533 73.4331 58.7494 72.2373 60.22 72.2373C61.6906 72.2373 62.8867 73.4332 62.8867 74.904C62.8867 76.3748 61.6906 77.5706 60.22 77.5706Z" fill="black"/>
<path d="M57.6341 71.2562L46.1315 65.7029C45.4674 65.3815 44.6715 65.6602 44.3515 66.3243C44.0315 66.9869 44.3101 67.7843 44.9729 68.1043L56.4755 73.6576C56.6623 73.7482 56.8596 73.7909 57.0541 73.7909C57.5501 73.7909 58.0262 73.5135 58.2555 73.0362C58.5754 72.3734 58.2968 71.5762 57.6341 71.2562Z" fill="black"/>
<path d="M40.22 36.2373C37.2786 36.2373 34.8867 38.6293 34.8867 41.5706C34.8867 44.512 37.2787 46.9039 40.22 46.9039C43.1614 46.9039 45.5533 44.5118 45.5533 41.5706C45.5533 38.6293 43.1614 36.2373 40.22 36.2373ZM40.22 44.2373C38.7494 44.2373 37.5533 43.0414 37.5533 41.5706C37.5533 40.1 38.7492 38.9039 40.22 38.9039C41.6906 38.9039 42.8867 40.0998 42.8867 41.5706C42.8867 43.0414 41.6906 44.2373 40.22 44.2373Z" fill="black"/>
<path d="M37.8763 38.072L29.0404 31.1853C28.459 30.7359 27.6218 30.8359 27.1684 31.4173C26.7163 31.9987 26.819 32.8359 27.4004 33.2894L36.2363 40.1761C36.4804 40.3655 36.7684 40.4575 37.0551 40.4575C37.4524 40.4575 37.8445 40.2815 38.1084 39.9442C38.5604 39.3626 38.4577 38.5253 37.8763 38.072Z" fill="black"/>
<path d="M64.2175 34.9041C56.1308 34.9041 49.5508 41.4841 49.5508 49.5708C49.5508 57.6575 56.1308 64.2375 64.2175 64.2375C72.3042 64.2375 78.8842 57.6575 78.8842 49.5708C78.8842 41.4841 72.3042 34.9041 64.2175 34.9041ZM64.2175 61.5706C57.6002 61.5706 52.2175 56.188 52.2175 49.5706C52.2175 42.9533 57.6002 37.5706 64.2175 37.5706C70.8348 37.5706 76.2175 42.9533 76.2175 49.5706C76.2175 56.188 70.8348 61.5706 64.2175 61.5706Z" fill="black"/>
<path d="M64.22 40.2373C61.2786 40.2373 58.8867 42.6293 58.8867 45.5706C58.8867 48.512 61.2788 50.9039 64.22 50.9039C67.1614 50.9039 69.5533 48.5118 69.5533 45.5706C69.5533 42.6293 67.1614 40.2373 64.22 40.2373ZM64.22 48.2373C62.7494 48.2373 61.5533 47.0414 61.5533 45.5706C61.5533 44.1 62.7492 42.9039 64.22 42.9039C65.6906 42.9039 66.8867 44.0998 66.8867 45.5706C66.8867 47.0414 65.6906 48.2373 64.22 48.2373Z" fill="black"/>
<path d="M68.0867 53.5706H60.3508C58.0722 53.5706 56.2188 55.3746 56.2188 57.5906V61.1052C56.2188 61.5812 56.472 62.0212 56.8841 62.2599C59.1187 63.5532 61.6547 64.2373 64.2188 64.2373C66.7828 64.2373 69.3188 63.5532 71.5534 62.2599C71.9655 62.0226 72.2188 61.5812 72.2188 61.1066V57.592C72.2188 55.3746 70.3655 53.5706 68.0867 53.5706ZM69.552 60.3106C66.2334 61.9638 62.2041 61.9638 58.8853 60.3106V57.592C58.8853 56.8452 59.5427 56.2373 60.3506 56.2373H68.0866C68.8945 56.2373 69.5519 56.8452 69.5519 57.592V60.3106H69.552Z" fill="black"/>
<path d="M32.2175 50.9041C24.1308 50.9041 17.5508 57.484 17.5508 65.5708C17.5508 73.6575 24.1308 80.2373 32.2175 80.2373C40.3042 80.2373 46.8842 73.6573 46.8842 65.5706C46.8842 57.4839 40.3042 50.9041 32.2175 50.9041ZM32.2175 77.5706C25.6002 77.5706 20.2175 72.1879 20.2175 65.5706C20.2175 58.9533 25.6002 53.5706 32.2175 53.5706C38.8348 53.5706 44.2175 58.9533 44.2175 65.5706C44.2175 72.1879 38.8348 77.5706 32.2175 77.5706Z" fill="black"/>
<path d="M32.2161 56.2373C29.2747 56.2373 26.8828 58.6293 26.8828 61.5706C26.8828 64.512 29.2748 66.9039 32.2161 66.9039C35.1573 66.9039 37.5494 64.5118 37.5494 61.5706C37.5494 58.6293 35.1575 56.2373 32.2161 56.2373ZM32.2161 64.2373C30.7455 64.2373 29.5494 63.0414 29.5494 61.5706C29.5494 60.1 30.7453 58.9039 32.2161 58.9039C33.6867 58.9039 34.8828 60.0998 34.8828 61.5706C34.8828 63.0414 33.6867 64.2373 32.2161 64.2373Z" fill="black"/>
<path d="M36.0867 69.5706H28.3508C26.0722 69.5706 24.2188 71.3746 24.2188 73.5906V77.1052C24.2188 77.5812 24.472 78.0212 24.8841 78.2599C27.1187 79.5532 29.6547 80.2373 32.2188 80.2373C34.7828 80.2373 37.3188 79.5532 39.5534 78.2599C39.9655 78.0226 40.2188 77.5813 40.2188 77.1066V73.592C40.2188 71.3746 38.3655 69.5706 36.0867 69.5706ZM37.552 76.3106C34.2333 77.9638 30.2041 77.9638 26.8853 76.3106V73.592C26.8853 72.8452 27.5427 72.2373 28.3506 72.2373H36.0866C36.8945 72.2373 37.5519 72.8452 37.5519 73.592V76.3106H37.552Z" fill="black"/>
<path d="M14.8855 17.5706C6.79875 17.5706 0.21875 24.1506 0.21875 32.2373C0.21875 40.324 6.79875 46.904 14.8855 46.904C22.9722 46.904 29.5522 40.324 29.5522 32.2373C29.552 24.1506 22.972 17.5706 14.8855 17.5706ZM14.8855 44.2373C8.26812 44.2373 2.88547 38.8546 2.88547 32.2373C2.88547 25.6199 8.26812 20.2373 14.8855 20.2373C21.5028 20.2373 26.8855 25.6199 26.8855 32.2373C26.8855 38.8546 21.5028 44.2373 14.8855 44.2373Z" fill="black"/>
<path d="M14.8841 22.9041C11.9427 22.9041 9.55078 25.2961 9.55078 28.2373C9.55078 31.1786 11.9428 33.5706 14.8841 33.5706C17.8255 33.5706 20.2174 31.1786 20.2174 28.2373C20.2174 25.2961 17.8253 22.9041 14.8841 22.9041ZM14.8841 30.9041C13.4134 30.9041 12.2173 29.7081 12.2173 28.2373C12.2173 26.7666 13.4133 25.5706 14.8841 25.5706C16.3547 25.5706 17.5508 26.7666 17.5508 28.2373C17.5508 29.7081 16.3547 30.9041 14.8841 30.9041Z" fill="black"/>
<path d="M18.7508 36.2373H11.0148C8.73625 36.2373 6.88281 38.0414 6.88281 40.2573V43.772C6.88281 44.2479 7.13609 44.6879 7.54813 44.9267C9.78281 46.22 12.3188 46.904 14.8828 46.904C17.4469 46.904 19.9828 46.22 22.2175 44.9267C22.6295 44.6893 22.8828 44.2479 22.8828 43.7734V40.2587C22.8828 38.0414 21.0294 36.2373 18.7508 36.2373ZM20.2161 42.9773C16.8975 44.6306 12.8681 44.6306 9.54938 42.9773V40.2587C9.54938 39.512 10.2067 38.904 11.0147 38.904H18.7506C19.5586 38.904 20.2159 39.512 20.2159 40.2587V42.9773H20.2161Z" fill="black"/>
<path d="M46.8855 0.237305C38.7987 0.237305 32.2188 6.8173 32.2188 14.904C32.2188 22.9907 38.7987 29.5707 46.8855 29.5707C54.9722 29.5707 61.5522 22.9907 61.5522 14.904C61.552 6.8173 54.972 0.237305 46.8855 0.237305ZM46.8855 26.904C40.2681 26.904 34.8855 21.5214 34.8855 14.904C34.8855 8.28668 40.2681 2.90402 46.8855 2.90402C53.5028 2.90402 58.8855 8.28668 58.8855 14.904C58.8855 21.5214 53.5028 26.904 46.8855 26.904Z" fill="black"/>
<path d="M46.888 5.57056C43.9466 5.57056 41.5547 7.96259 41.5547 10.9038C41.5547 13.8451 43.9467 16.2371 46.888 16.2371C49.8292 16.2371 52.2212 13.8452 52.2212 10.904C52.2212 7.96274 49.8292 5.57056 46.888 5.57056ZM46.888 13.5706C45.4173 13.5706 44.2213 12.3746 44.2213 10.9038C44.2213 9.43321 45.4172 8.23712 46.888 8.23712C48.3587 8.23712 49.5547 9.43306 49.5547 10.9038C49.5545 12.3746 48.3586 13.5706 46.888 13.5706Z" fill="black"/>
<path d="M50.7547 18.9041H43.0187C40.7402 18.9041 38.8867 20.7081 38.8867 22.9241V26.4387C38.8867 26.9147 39.14 27.3547 39.552 27.5934C41.7867 28.8867 44.3227 29.5708 46.8867 29.5708C49.4508 29.5708 51.9867 28.8867 54.2214 27.5934C54.6334 27.3561 54.8867 26.9147 54.8867 26.4401V22.9255C54.8867 20.708 53.0333 18.9041 50.7547 18.9041ZM52.22 25.644C48.9014 27.2973 44.872 27.2973 41.5533 25.644V22.9255C41.5533 22.1787 42.2106 21.5708 43.0186 21.5708H50.7545C51.5625 21.5708 52.2198 22.1787 52.2198 22.9255V25.644H52.22Z" fill="black"/>
<path d="M34.5674 14.0358C34.0888 13.4785 33.2474 13.4117 32.6874 13.8905L23.4474 21.7972C22.8874 22.2758 22.822 23.1172 23.3006 23.6772C23.5647 23.9852 23.938 24.1439 24.3139 24.1439C24.6206 24.1439 24.9286 24.0386 25.1806 23.8225L34.4206 15.9158C34.9808 15.4372 35.0461 14.5958 34.5674 14.0358Z" fill="black"/>
<path d="M63.9508 35.4386L55.9508 24.7719C55.5094 24.1813 54.6734 24.0652 54.0841 24.5052C53.4947 24.9466 53.3761 25.7825 53.8173 26.3705L61.8173 37.0372C62.08 37.3866 62.48 37.5705 62.8853 37.5705C63.1626 37.5705 63.4441 37.4837 63.6841 37.3037C64.2734 36.8625 64.3922 36.0266 63.9508 35.4386Z" fill="black"/>
<path d="M53.0081 53.9801C52.5667 53.3907 51.7308 53.2721 51.1414 53.7133L43.6934 59.2987C43.1041 59.7401 42.9855 60.576 43.4267 61.164C43.6894 61.5133 44.0894 61.6972 44.4947 61.6972C44.7733 61.6972 45.0533 61.6093 45.2934 61.4305L52.7414 55.8452C53.3308 55.4041 53.4495 54.568 53.0081 53.9801Z" fill="black"/>
<path d="M18.8855 64.2373H9.55203C8.81609 64.2373 8.21875 64.8332 8.21875 65.5706C8.21875 66.3079 8.81609 66.9039 9.55203 66.9039H18.8853C19.6213 66.9039 20.2186 66.3079 20.2186 65.5706C20.2186 64.8332 19.6214 64.2373 18.8855 64.2373Z" fill="black"/>
<path d="M14.8842 0.237305C11.9428 0.237305 9.55078 2.62934 9.55078 5.57059C9.55078 8.51199 11.9428 10.9039 14.8841 10.9039C17.8255 10.9039 20.2173 8.51184 20.2173 5.57059C20.2175 2.62934 17.8255 0.237305 14.8842 0.237305ZM14.8842 8.2373C13.4136 8.2373 12.2175 7.04137 12.2175 5.57059C12.2175 4.09996 13.4134 2.90387 14.8842 2.90387C16.3548 2.90387 17.5509 4.0998 17.5509 5.57059C17.5508 7.04137 16.3548 8.2373 14.8842 8.2373Z" fill="black"/>
<path d="M14.8841 8.2373C14.1481 8.2373 13.5508 8.83324 13.5508 9.57059V18.9039C13.5508 19.6412 14.1481 20.2371 14.8841 20.2371C15.62 20.2371 16.2173 19.6412 16.2173 18.9039V9.57059C16.2173 8.83324 15.62 8.2373 14.8841 8.2373Z" fill="black"/>
</g>
<defs>
<clipPath id="clip0">
<rect width="80" height="80" fill="white" transform="translate(0.21875 0.237305)"/>
</clipPath>
</defs>
</svg>
