<svg width="66" height="65" viewBox="0 0 66 65" fill="none" xmlns="http://www.w3.org/2000/svg">
<g clip-path="url(#clip0)">
<path d="M32.7531 39.584C32.3251 39.584 31.8973 39.4486 31.5375 39.1783L24.7973 34.1136L21.0145 36.8918C20.3636 37.3699 20.3582 38.3405 21.0039 38.8256L32.0658 47.1378C32.4879 47.4551 33.0676 47.4603 33.4954 47.1508L44.9781 38.8438C45.6479 38.3592 45.6417 37.3593 44.9658 36.8831L41.0017 34.0906L33.9391 39.2C33.585 39.4562 33.1689 39.584 32.7531 39.584Z" fill="#005ca9"/>
<path d="M41.4882 21.7932L33.9388 27.2547C33.5847 27.5108 33.1686 27.6387 32.7528 27.6387C32.3248 27.6387 31.897 27.5033 31.5372 27.233L24.3434 21.8274L20.6555 24.5326C20.184 24.8785 20.1799 25.5814 20.6474 25.9327L32.2615 34.66C32.5671 34.8896 32.986 34.8938 33.2957 34.6697C36.4979 32.3532 41.9704 28.3941 45.3602 25.9417C45.8447 25.5912 45.8405 24.8683 45.3522 24.5233L41.4882 21.7932Z" fill="#005ca9"/>
<path d="M21.0316 14.2751C24.2531 16.6955 29.0501 20.3004 32.0537 22.5577C32.4841 22.8812 33.0746 22.8862 33.5108 22.5706L44.9582 14.2891C45.6404 13.7955 45.6347 12.7772 44.947 12.2913L33.499 4.20327C33.0676 3.89858 32.4898 3.90378 32.064 4.21622L21.0432 12.3038C20.3792 12.7909 20.3732 13.7804 21.0316 14.2751Z" fill="#005ca9"/>
<path d="M61.4774 24.1853H51.5715C51.7491 24.4882 51.8504 24.8348 51.8524 25.1959C51.856 25.849 51.5442 26.4639 51.0149 26.8467L44.4699 31.5816L50.9942 36.1777C51.5286 36.5543 51.8482 37.1657 51.8523 37.8193C51.8564 38.473 51.5444 39.0883 51.0148 39.4716L33.9401 51.8241C33.586 52.0801 33.1698 52.2081 32.7541 52.2081C32.3261 52.2081 31.8983 52.0726 31.5385 51.8024L15.0999 39.4499C14.5882 39.0652 14.2884 38.4612 14.292 37.821C14.2955 37.1809 14.6018 36.5802 15.1177 36.2012L21.419 31.5733L15.1001 26.8251C14.5881 26.4403 14.2884 25.836 14.2921 25.1957C14.2941 24.8349 14.3953 24.4885 14.5731 24.1854H4.64467C2.38932 24.1853 0.561035 26.0137 0.561035 28.2689V56.9372C0.561035 59.1925 2.38932 61.0208 4.64467 61.0208H61.4774C63.7328 61.0208 65.561 59.1925 65.561 56.9372V28.2689C65.561 26.0137 63.7328 24.1853 61.4774 24.1853ZM8.63576 44.5944C7.51081 44.5944 6.59877 43.6824 6.59877 42.5575C6.59877 41.4325 7.51068 40.5205 8.63576 40.5205C9.76084 40.5205 10.6728 41.4324 10.6728 42.5575C10.6726 43.6823 9.76071 44.5944 8.63576 44.5944ZM59.5991 45.9549C59.5991 47.0725 58.6931 47.9785 57.5756 47.9785C56.458 47.9785 55.552 47.0725 55.552 45.9549V39.1597C55.552 38.0421 56.458 37.1361 57.5756 37.1361C58.6931 37.1361 59.5991 38.0421 59.5991 39.1597V45.9549Z" fill="#005ca9"/>
</g>
<defs>
<clipPath id="clip0">
<rect width="65" height="65" fill="white" transform="translate(0.561035)"/>
</clipPath>
</defs>
</svg>
