<svg width="89" height="89" viewBox="0 0 89 89" fill="none" xmlns="http://www.w3.org/2000/svg">
<path d="M44.5088 45.2714C47.0965 45.2714 49.2021 43.1665 49.2021 40.5781C49.2021 37.9897 47.0965 35.8848 44.5088 35.8848C41.921 35.8848 39.8154 37.9897 39.8154 40.5781C39.8154 43.1665 41.921 45.2714 44.5088 45.2714ZM44.5088 38.2314C45.8029 38.2314 46.8554 39.2845 46.8554 40.5781C46.8554 41.8717 45.8029 42.9248 44.5088 42.9248C43.2146 42.9248 42.1621 41.8717 42.1621 40.5781C42.1621 39.2845 43.2146 38.2314 44.5088 38.2314Z" fill="black"/>
<path d="M35.5516 49.5384C38.8962 54.1883 41.1651 59.3926 42.2947 65.007L43.3575 70.2882C43.4675 70.8359 43.9483 71.2289 44.5062 71.2301H44.508C45.0653 71.2301 45.5461 70.8382 45.6572 70.2917L46.7772 64.8134C47.9229 59.2114 50.2027 54.0197 53.5532 49.3847L57.7789 43.5386C58.0042 43.227 58.0626 42.8246 57.9347 42.4614L53.8946 30.9906V27.4715C55.2545 27.0054 56.2413 25.7285 56.2413 24.212V18.2849C56.2413 17.6363 55.7159 17.1116 55.068 17.1116C54.42 17.1116 53.8946 17.6363 53.8946 18.2849V24.2123C53.8946 24.8254 53.3957 25.3249 52.782 25.3249H52.7213H36.2946H36.2339C35.6202 25.3249 35.1213 24.8254 35.1213 24.2123V18.2849C35.1213 17.6363 34.5959 17.1116 33.9479 17.1116C33.3 17.1116 32.7746 17.6363 32.7746 18.2849V24.2123C32.7746 25.7285 33.7614 27.0054 35.1213 27.4718V30.9912L31.0812 42.462C30.9539 42.824 31.0114 43.2253 31.2352 43.5368L35.5516 49.5384ZM51.548 27.6716V30.0182H37.4679V27.6716H51.548ZM37.1253 32.3649H51.8903L55.517 42.6624L51.6509 48.0098C49.0344 51.6304 47.0368 55.5711 45.681 59.7699V49.9646C45.681 49.316 45.1556 48.7913 44.5077 48.7913C43.8597 48.7913 43.3343 49.316 43.3343 49.9646V59.7485C41.99 55.6189 40.0243 51.739 37.4568 48.1679L33.498 42.6633L37.1253 32.3649Z" fill="black"/>
<path d="M65.4874 14.9069C65.7165 15.136 66.0169 15.2506 66.317 15.2506C66.617 15.2506 66.9174 15.136 67.1465 14.9069L67.976 14.0773L68.8056 14.9069C69.0347 15.136 69.3351 15.2506 69.6351 15.2506C69.9352 15.2506 70.2356 15.136 70.4647 14.9069C70.9229 14.4487 70.9229 13.706 70.4647 13.2478L69.6351 12.4182L70.4647 11.5887C70.9229 11.1305 70.9229 10.3878 70.4647 9.92958C70.0065 9.47139 69.2638 9.47139 68.8056 9.92958L67.976 10.7591L67.1465 9.92958C66.6883 9.47139 65.9456 9.47139 65.4874 9.92958C65.0292 10.3878 65.0292 11.1305 65.4874 11.5887L66.317 12.4182L65.4874 13.2478C65.0289 13.706 65.0289 14.4484 65.4874 14.9069Z" fill="black"/>
<path d="M24.563 19.4582C25.211 19.4582 25.7363 18.9329 25.7363 18.2849C25.7363 17.6369 25.211 17.1116 24.563 17.1116C23.915 17.1116 23.3896 17.6369 23.3896 18.2849C23.3896 18.9329 23.915 19.4582 24.563 19.4582Z" fill="black"/>
<path d="M79.501 48.5875C79.6784 48.0261 79.4121 47.42 78.8782 47.1701C78.7893 47.1293 77.9252 46.736 76.6316 46.3796C79.2437 43.0189 79.4174 38.4555 79.4238 38.2325C79.4411 37.6435 79.0193 37.1337 78.4379 37.0398C78.2781 37.0152 75.8009 36.6374 72.9945 37.2009C73.2797 36.5145 73.5008 35.8225 73.6161 35.1241C74.4577 30.0262 70.6341 25.2951 70.4707 25.0968C70.0979 24.6406 69.4446 24.5318 68.9439 24.8448C68.7257 24.98 63.5844 28.2319 62.7431 33.3298C62.2186 36.5057 63.4841 39.5179 64.6002 41.4437C64.4797 42.9552 63.7311 50.2281 60.0406 57.753C56.4488 65.079 51.3131 70.3323 44.7245 73.4921C38.1363 70.3326 33.0006 65.0793 29.4084 57.753C25.7171 50.2258 24.9691 42.9514 24.8489 41.4425C25.9351 39.5602 27.2325 36.5165 26.7065 33.3295C25.8644 28.2316 20.7237 24.9797 20.5052 24.8445C20.0039 24.5306 19.3506 24.6406 18.9784 25.0965C18.815 25.2948 14.9914 30.0259 15.833 35.1238C15.9482 35.8216 16.1668 36.5139 16.4519 37.2C13.6476 36.6374 11.1722 37.014 11.0114 37.0395C10.43 37.1334 10.0082 37.6435 10.0255 38.2322C10.032 38.4549 10.2056 43.0174 12.8169 46.3781C11.5236 46.7345 10.6597 47.1287 10.5708 47.1698C10.037 47.4197 9.77034 48.0258 9.94869 48.5872C10.0074 48.7743 11.2599 52.6285 14.2598 55.1851C13.6899 55.4582 13.3355 55.6671 13.2818 55.6994C12.777 56.003 12.5755 56.6345 12.811 57.1739C12.8791 57.3303 14.3208 60.5819 17.1626 62.83C15.3129 64.1465 14.153 65.5577 14.0662 65.6656C13.6972 66.125 13.7254 66.7862 14.1322 67.2124C14.3059 67.3934 18.3404 71.5529 23.3294 71.5529C23.4543 71.5529 23.5802 71.5505 23.7069 71.5449C28.0796 71.3595 31.5005 67.9592 32.5453 66.7991C35.0296 69.7799 38.1301 72.5109 41.9813 74.6672C39.2779 75.6695 36.3593 76.3585 33.2244 76.724C32.5805 76.7985 32.1197 77.3817 32.1948 78.0258C32.264 78.6228 32.7712 79.0628 33.3585 79.0628C33.4042 79.0628 33.45 79.0604 33.496 79.0548C37.7637 78.5576 41.4723 77.4905 44.7245 76.0414C47.9764 77.4908 51.685 78.5576 55.9527 79.0548C55.9991 79.0607 56.0443 79.0628 56.0903 79.0628C56.6776 79.0628 57.1845 78.6228 57.254 78.0258C57.3291 77.382 56.8685 76.7985 56.2244 76.724C53.0895 76.3585 50.1711 75.6695 47.4678 74.6672C51.3193 72.5109 54.4195 69.7796 56.904 66.7991C57.9489 67.9592 61.37 71.3595 65.7422 71.5449C65.8689 71.5508 65.9941 71.5529 66.1197 71.5529C71.1093 71.5529 75.1438 67.3934 75.3172 67.2124C75.724 66.7862 75.7519 66.1238 75.3826 65.6656C75.296 65.5577 74.1362 64.1468 72.2864 62.83C75.1282 60.5819 76.5697 57.33 76.6377 57.1739C76.8733 56.6342 76.6715 56.003 76.1669 55.6994C76.1135 55.6674 75.7589 55.4585 75.189 55.1857C78.1895 52.6293 79.4417 48.7746 79.501 48.5875ZM18.1491 34.7413C17.6695 31.8379 19.2298 28.9136 20.1567 27.4836C21.4946 28.5402 23.9117 30.8077 24.3913 33.7123C24.8412 36.4388 23.4939 39.1791 22.5603 40.6874C22.1786 40.2163 21.7486 39.7702 21.2608 39.3671C20.8108 38.9952 20.3327 38.684 19.8419 38.4123C18.9232 37.2003 18.3506 35.9659 18.1491 34.7413ZM12.4825 39.2592C14.1835 39.1835 17.4973 39.3017 19.7654 41.175C21.9428 42.9749 22.7151 46.0226 22.9859 47.7562C22.4042 47.3127 21.7703 46.9146 21.0654 46.6051C19.2248 45.7979 17.2665 45.6914 15.5428 45.8651C13.4338 43.9698 12.7145 40.8942 12.4825 39.2592ZM12.5925 48.9025C14.207 48.3593 17.4278 47.5711 20.1224 48.7547C23.0305 50.0319 24.6588 53.3043 25.2519 54.7331C24.7523 54.4624 24.2246 54.2251 23.6609 54.045C21.2693 53.2791 18.8071 53.6196 16.8778 54.1849C14.6039 52.8479 13.2214 50.3193 12.5925 48.9025ZM15.4713 57.21C17.0148 56.4996 20.1279 55.379 22.9466 56.2796C26.1372 57.3001 28.1471 60.6822 28.7839 61.9039C27.2202 61.0879 25.3117 60.4434 23.2387 60.5353C21.8425 60.5945 20.5471 60.9876 19.3899 61.5261C17.4756 60.317 16.1433 58.3775 15.4713 57.21ZM23.6072 69.2012C20.648 69.3045 17.9485 67.4218 16.6423 66.3298C17.847 65.13 20.3829 63.0057 23.3385 62.8796C26.2815 62.7628 28.9966 64.6589 30.3034 65.751C29.0987 66.9507 26.5628 69.0751 23.6072 69.2012ZM76.9671 39.2592C76.7348 40.8945 76.0156 43.9713 73.9056 45.8662C72.1823 45.6929 70.224 45.7988 68.3842 46.6051C67.6793 46.9146 67.0454 47.3127 66.4638 47.7562C66.7342 46.0226 67.5069 42.9749 69.6843 41.175C71.9523 39.3017 75.2693 39.185 76.9671 39.2592ZM65.059 33.7123C65.538 30.8065 67.958 28.5364 69.295 27.4813C70.2225 28.9066 71.7825 31.8229 71.3002 34.7413C71.0978 35.9698 70.5179 37.2059 69.596 38.4191C69.1096 38.6892 68.6353 38.9981 68.1889 39.3668C67.7013 39.7699 67.2716 40.2155 66.8903 40.6863C65.9648 39.1955 64.6055 36.4561 65.059 33.7123ZM65.8422 69.2012C62.9009 69.0762 60.3554 66.9472 59.1466 65.7478C60.4484 64.6557 63.15 62.7743 66.1109 62.8799C69.051 63.0048 71.5953 65.1315 72.8053 66.3312C71.4974 67.4239 68.7799 69.2962 65.8422 69.2012ZM70.0583 61.5255C68.9014 60.9873 67.6063 60.5942 66.2103 60.5353C64.1426 60.4379 62.2301 61.087 60.661 61.9086C61.2891 60.6948 63.2887 57.3077 66.5034 56.2799C69.3067 55.3849 72.4302 56.5046 73.9787 57.2138C73.3099 58.3798 71.9825 60.3141 70.0583 61.5255ZM65.7894 54.0453C65.2241 54.2257 64.6955 54.4635 64.1948 54.7352C64.7821 53.3104 66.4013 50.0389 69.327 48.755C72.0221 47.5714 75.2423 48.3596 76.8574 48.9028C76.2277 50.3196 74.8452 52.849 72.571 54.1861C70.6423 53.6211 68.1809 53.2805 65.7894 54.0453Z" fill="black"/>
</svg>
