<svg width="73" height="72" viewBox="0 0 73 72" fill="none" xmlns="http://www.w3.org/2000/svg">
<g clip-path="url(#clip0)">
<path d="M43.2271 22.8316C34.8158 22.7718 10.8185 25.1715 1.21973 37.1704V64.767C1.21973 66.3582 1.85192 67.884 2.97678 69.0089C4.1022 70.1343 5.62802 70.7665 7.2192 70.7665H37.2155C37.2155 70.7665 25.2171 68.3663 25.2171 49.1688C25.2171 35.2623 38.3673 31.2308 42.8909 30.2471L43.0348 27.7392L43.1666 25.2198L43.299 22.9157L43.2271 22.8316Z" fill="#F4CD1E"/>
<path d="M43.1666 25.22L43.0348 27.7394C36.5795 28.6995 9.61889 34.8544 9.61889 70.7667H7.2192C5.62802 70.7667 4.1022 70.1345 2.97678 69.0091C1.85192 67.8842 1.21973 66.3584 1.21973 64.7672V53.9684C2.35997 31.2793 34.5879 25.7599 43.1666 25.22Z" fill="#F88F00"/>
<path d="M43.299 22.9157L43.1666 25.2198C34.5879 25.7597 2.35997 31.2791 1.21973 53.9682V37.1704C10.8185 25.1715 34.8158 22.7718 43.2271 22.8316L43.299 22.9157Z" fill="#E15919"/>
<path d="M25.2168 49.1689C25.2168 68.3663 37.2152 70.7665 37.2152 70.7665H9.61865C9.61865 34.8543 36.5792 28.6993 43.0346 27.7393L42.8907 30.2471C38.367 31.2309 25.2168 35.2624 25.2168 49.1689Z" fill="#E15919"/>
<path d="M66.7918 64.503L67.1395 70.7667L63.4562 69.3628L61.2125 68.4988L59.4126 69.1826L55.285 70.7667L55.369 69.3628L55.6332 64.503L51.6138 59.6438L57.7687 58.0361L59.4126 55.5162L61.2125 52.7688L64.6557 58.0361L70.8112 59.6438L66.7918 64.503Z" fill="#F88F00"/>
<path d="M63.192 64.5027L63.4562 69.3625L61.2125 68.4985L59.4126 69.1824L57.6127 68.4985L55.369 69.3625L55.6332 64.5027L51.6138 59.6435L57.7687 58.0358L59.4126 55.5159L61.0565 58.0358L67.212 59.6435L63.192 64.5027Z" fill="#FFC900"/>
<path d="M10.8184 1.17456L14.2672 6.44518L20.4177 8.04845L16.3983 12.9104L16.7509 19.1724L10.8184 16.9057L4.88653 19.1724L5.23915 12.9104L1.21973 8.04845L7.37025 6.44518L10.8184 1.17456Z" fill="#FFC900"/>
<path d="M63.5287 22.9156L64.1647 34.5185L60.4809 33.0784L53.4137 30.319L51.6143 31.0269L42.6632 34.5185L42.7472 33.0784L43.2992 22.9156L36.0161 13.9167L47.1626 10.9414L51.6143 3.98179L53.4137 1.17456L59.6652 10.9414L70.8118 13.9167L63.5287 22.9156Z" fill="#F88F00"/>
<path d="M60.4809 33.0785L60.5649 34.5187L51.6143 31.0271L49.8144 30.3191L42.7472 33.0785L43.2992 22.9157L36.0161 13.9168L47.1626 10.9415L51.6143 3.98193L56.0655 10.9415L67.2125 13.9168L59.9289 22.9157L60.4809 33.0785Z" fill="#FFC900"/>
<path d="M71.9543 59.2742C71.828 58.8842 71.5111 58.5854 71.1145 58.4822L65.4127 56.9942L62.2172 52.1125C61.9832 51.7917 61.6097 51.6028 61.2132 51.6028C60.8161 51.6028 60.4431 51.7917 60.2086 52.1125L57.0136 56.9942L51.3118 58.4822C50.9174 58.5865 50.6027 58.8842 50.4764 59.2725C50.3506 59.6603 50.4308 60.086 50.689 60.4023L54.4085 64.9002L54.0811 70.6931C54.0581 71.0996 54.2432 71.4895 54.5716 71.7296C54.9001 71.9696 55.3279 72.0267 55.708 71.8812L61.2132 69.7852L66.7167 71.8872C67.0967 72.0322 67.5246 71.9751 67.8531 71.7345C68.1815 71.495 68.3661 71.1051 68.3441 70.6992L68.0162 64.9062L71.7357 60.4078C71.9977 60.0926 72.0801 59.6647 71.9543 59.2742ZM65.8675 63.7401C65.6747 63.973 65.577 64.2696 65.594 64.5717L65.8434 68.985L61.6438 67.3795C61.3681 67.274 61.0632 67.274 60.7869 67.3795L56.5879 68.985L56.8373 64.5717C56.8538 64.2696 56.7565 63.973 56.5638 63.7401L53.739 60.3276L58.0671 59.1984C58.3554 59.1237 58.6059 58.9441 58.769 58.6947L61.2132 54.9609L63.6573 58.6958C63.8205 58.9452 64.0709 59.1248 64.3593 59.2L68.6868 60.3287L65.8675 63.7401Z" fill="#666666"/>
<path d="M21.5592 7.67994C21.4334 7.28998 21.1165 6.99118 20.7193 6.88792L15.0176 5.40055L11.8226 0.518251C11.588 0.197488 11.2151 0.00854492 10.818 0.00854492C10.4214 0.00854492 10.0485 0.197488 9.81395 0.518251L6.61895 5.40055L0.91717 6.88792C0.520061 6.99118 0.203692 7.28998 0.0773644 7.67994C-0.0489635 8.07046 0.032875 8.49778 0.294319 8.81415L4.01385 13.312L3.6865 19.1049C3.66343 19.5114 3.84798 19.9013 4.17698 20.1414C4.50543 20.3814 4.9333 20.4385 5.31338 20.293L10.818 18.191L16.322 20.293C16.7021 20.438 17.13 20.3808 17.4584 20.1408C17.7869 19.9008 17.9714 19.5114 17.9489 19.1049L17.6216 13.312L21.3411 8.81415C21.6031 8.49833 21.6849 8.07046 21.5592 7.67994ZM15.4723 12.1459C15.2801 12.3788 15.1823 12.6759 15.1988 12.9775L15.4487 17.3907L11.2491 15.7853C10.9734 15.6798 10.668 15.6798 10.3923 15.7853L6.19273 17.3907L6.44209 12.9775C6.45912 12.6759 6.36135 12.3788 6.16857 12.1459L3.34431 8.73341L7.67242 7.6058C7.96078 7.53055 8.21068 7.35094 8.37436 7.10158L10.818 3.36667L13.2622 7.10158C13.4258 7.35094 13.6757 7.53055 13.9641 7.6058L18.2922 8.73451L15.4723 12.1459Z" fill="#666666"/>
<path d="M46.8137 17.1996C46.9186 17.1996 47.0224 17.1858 47.1234 17.1589L50.5096 16.2565C50.799 16.1796 51.0495 15.9967 51.2115 15.744L53.2114 12.6248C53.4426 12.2634 53.4635 11.8065 53.2663 11.4258C53.0691 11.0452 52.6835 10.7986 52.2551 10.7794C51.8272 10.7596 51.4208 10.9699 51.1896 11.3314L49.4418 14.0573L46.5044 14.8405C45.9228 14.9965 45.5465 15.5589 45.6251 16.156C45.7031 16.753 46.2117 17.1996 46.8137 17.1996Z" fill="#666666"/>
<path d="M7.21907 71.966H37.2154C37.8294 71.9638 38.343 71.498 38.4045 70.8867C38.4666 70.2759 38.0568 69.7168 37.4554 69.5915C37.0055 69.4954 26.4165 67.0611 26.4165 49.1687C26.4165 37.5828 36.0696 33.2992 41.6094 31.7959L41.4627 34.4537C41.4402 34.8613 41.6264 35.2523 41.957 35.4918C42.2871 35.7313 42.7172 35.7862 43.0973 35.6379L53.4161 31.6097L63.7349 35.6379C64.115 35.7862 64.5445 35.7313 64.8751 35.4918C65.2052 35.2523 65.3914 34.8613 65.3689 34.4537L64.7532 23.3143L71.7485 14.6658C72.0072 14.3494 72.0868 13.9238 71.9605 13.5355C71.8347 13.1471 71.5194 12.8494 71.1245 12.7456L60.4229 9.89996L54.424 0.527527C54.1894 0.203469 53.8137 0.0112305 53.4133 0.0112305C53.0135 0.0112305 52.6378 0.203469 52.4033 0.527527L46.4038 9.89996L35.7071 12.7517C35.3122 12.8555 34.9975 13.1532 34.8711 13.5415C34.7448 13.9298 34.825 14.3555 35.0832 14.6713L40.7503 21.6787C30.5886 22.0522 9.30897 25.1378 0.282564 36.42C0.112296 36.6331 0.0194727 36.8973 0.020022 37.1703V64.7669C0.0238667 68.7413 3.24468 71.9621 7.21907 71.966ZM2.4197 64.7669V54.0087C3.51601 32.427 33.1838 26.9548 41.9071 26.4193V26.5264C41.8878 26.5264 41.8708 26.5203 41.8516 26.5264C36.325 27.3096 9.04258 33.0822 8.44664 69.5663H7.21907C4.56838 69.5663 2.4197 67.4176 2.4197 64.7669ZM24.0168 49.1687C24.0168 61.0474 28.4279 66.8211 32.1062 69.5663H10.8463C11.4219 35.8922 35.7818 29.9147 41.7665 28.9628L41.7483 29.2847C36.6024 30.571 24.0168 35.1578 24.0168 49.1687ZM47.4721 12.0992C47.7615 12.0217 48.012 11.8394 48.174 11.5867L53.4133 3.40011L58.6532 11.5867C58.8152 11.8394 59.0657 12.0217 59.3551 12.0992L68.7144 14.595L62.5946 22.1637C62.4079 22.3949 62.3134 22.6871 62.3299 22.9842L62.8671 32.7236L53.8527 29.2045C53.5721 29.0941 53.2601 29.0941 52.9794 29.2045L43.9646 32.7236L44.3677 25.4152C44.3919 25.3356 44.4078 25.2543 44.4144 25.1714C44.4078 25.1247 44.3985 25.078 44.3869 25.0324L44.5001 22.9842C44.5012 22.8826 44.488 22.7816 44.46 22.6843C44.4336 22.5547 44.3853 22.4306 44.3172 22.3169C44.3056 22.2944 44.2947 22.2724 44.2815 22.251C44.2683 22.2296 44.2551 22.19 44.2348 22.1637L38.1156 14.595L47.4721 12.0992ZM41.4056 24.0531C33.1492 24.6737 9.97851 29.1633 2.4197 44.561V37.602C11.2253 27.0542 32.0128 24.3206 41.4056 24.0531Z" fill="#666666"/>
</g>
<defs>
<clipPath id="clip0">
<rect width="72" height="72" fill="white" transform="translate(0.0195312)"/>
</clipPath>
</defs>
</svg>
