<svg width="69" height="69" viewBox="0 0 69 69" fill="none" xmlns="http://www.w3.org/2000/svg">
<g clip-path="url(#clip0)">
<path d="M63.2499 44.8499C61.64 44.8499 60.2137 44.0216 59.3973 42.7571C58.9262 42.0322 58.6499 41.1697 58.6499 40.2499C58.6499 37.7084 60.7084 35.6499 63.2499 35.6499C65.7914 35.6499 67.8499 37.7084 67.8499 40.2499C67.8499 42.7914 65.7914 44.8499 63.2499 44.8499Z" fill="#AAD3E2"/>
<path d="M63.2271 23.5862C61.0422 25.3691 58.2475 26.45 55.2001 26.45C53.6823 26.45 52.233 26.1855 50.8988 25.7026V25.6908C49.5304 25.2079 48.2771 24.4835 47.1731 23.5862C47.4606 20.0447 50.4389 17.25 54.0501 17.25H56.3501C59.9612 17.25 62.9396 20.0447 63.2271 23.5862Z" fill="#ED8C4A"/>
<path d="M59.8001 12.65C59.8001 15.1904 57.7404 17.25 55.2001 17.25C52.6598 17.25 50.6001 15.1904 50.6001 12.65C50.6001 10.1097 52.6598 8.05005 55.2001 8.05005C57.7404 8.05005 59.8001 10.1097 59.8001 12.65Z" fill="#ED8C4A"/>
<path d="M55.2001 1.1499C62.1921 1.1499 67.8501 6.80781 67.8501 13.7999C67.8501 17.7446 66.056 21.2637 63.227 23.5861C62.9395 20.0446 59.9612 17.2499 56.35 17.2499H55.2001C57.7415 17.2499 59.8001 15.1914 59.8001 12.6499C59.8001 10.1084 57.7415 8.0499 55.2001 8.0499C52.6586 8.0499 50.6 10.1084 50.6 12.6499C50.6 15.1914 52.6586 17.2499 55.2001 17.2499H54.05C50.4389 17.2499 47.4606 20.0446 47.1731 23.5861C45.6092 22.2986 44.3553 20.6426 43.5507 18.7447C42.9066 17.2269 42.55 15.5592 42.55 13.7999C42.55 12.2591 42.8263 10.7868 43.3323 9.43013C45.1033 4.58867 49.7488 1.1499 55.2001 1.1499Z" fill="#F3F3FB"/>
<path d="M40.25 67.8499C37.1908 67.8499 34.3848 66.769 32.2 64.9637C32.4987 61.4328 35.4776 58.6499 39.0769 58.6499H41.3769C44.9881 58.6499 47.9664 61.4446 48.2539 64.9861L48.2657 64.9979C46.0803 66.7802 43.2973 67.8499 40.25 67.8499Z" fill="#FFCA55"/>
<path d="M39.0771 58.6501C35.4777 58.6501 32.4988 61.433 32.2001 64.9638C30.1073 63.2388 28.5889 60.858 27.9449 58.1323C27.7152 57.1895 27.6001 56.2119 27.6001 55.2001C27.6001 51.4856 29.1988 48.1507 31.7402 45.8389C33.9824 43.7921 36.9725 42.55 40.2501 42.55C41.7679 42.55 43.2172 42.8145 44.5514 43.2974V43.3092C47.1613 44.2408 49.3698 46.0231 50.8533 48.3113C52.1527 50.2895 52.9001 52.6586 52.9001 55.2001C52.9001 59.1448 51.0948 62.6751 48.2658 64.9981L48.2541 64.9863C47.9666 61.4448 44.9882 58.6501 41.3771 58.6501H40.2271C42.7685 58.6501 44.8271 56.5915 44.8271 54.0501C44.8271 51.5086 42.7685 49.4501 40.2271 49.4501C37.6856 49.4501 35.6271 51.5086 35.6271 54.0501C35.6271 56.5915 37.6856 58.6501 40.2271 58.6501H39.0771Z" fill="#F3F3FB"/>
<path d="M44.8269 54.05C44.8269 56.5903 42.7673 58.65 40.2269 58.65C37.6866 58.65 35.627 56.5903 35.627 54.05C35.627 51.5096 37.6866 49.45 40.2269 49.45C42.7673 49.45 44.8269 51.5096 44.8269 54.05Z" fill="#FFCA55"/>
<path d="M33.35 1.1499C35.8915 1.1499 37.95 3.20845 37.95 5.7499C37.95 6.31367 37.8467 6.84263 37.6625 7.33677C37.0184 9.09658 35.3282 10.3499 33.35 10.3499C30.8085 10.3499 28.75 8.29136 28.75 5.7499C28.75 3.20845 30.8085 1.1499 33.35 1.1499Z" fill="#AAD3E2"/>
<path d="M17.25 42.5501C15.019 42.5501 12.9262 41.9751 11.1091 40.9632C10.4302 40.5949 9.79797 40.158 9.19995 39.6639C9.49868 36.133 12.4776 33.3501 16.0769 33.3501H18.3769C21.9881 33.3501 24.9664 36.1448 25.2539 39.6863L25.2657 39.6981C23.0802 41.4804 20.2973 42.5501 17.25 42.5501Z" fill="#64C1E2"/>
<path d="M21.827 28.7499C21.827 31.2902 19.7673 33.3499 17.227 33.3499C14.6866 33.3499 12.627 31.2902 12.627 28.7499C12.627 26.2096 14.6866 24.1499 17.227 24.1499C19.7673 24.1499 21.827 26.2096 21.827 28.7499Z" fill="#64C1E2"/>
<path d="M16.1 65.5501C13.5585 65.5501 11.5 63.4916 11.5 60.9501C11.5 58.4086 13.5585 56.3501 16.1 56.3501C18.2737 56.3501 20.0907 57.8567 20.5737 59.8804C20.654 60.2257 20.7 60.5823 20.7 60.9501C20.7 63.4916 18.6415 65.5501 16.1 65.5501Z" fill="#AAD3E2"/>
<path d="M16.0771 33.35C12.4777 33.35 9.49883 36.1329 9.2001 39.6638C6.39417 37.3407 4.6001 33.8329 4.6001 29.9C4.6001 24.8513 7.54416 20.5046 11.8106 18.4691C13.4553 17.6869 15.3067 17.25 17.2501 17.25C22.4824 17.25 26.9678 20.4237 28.8995 24.9552C29.5435 26.473 29.9001 28.1407 29.9001 29.9C29.9001 33.6145 28.3014 36.9494 25.76 39.2612C25.5988 39.4105 25.4382 39.5487 25.2658 39.698L25.2541 39.6862C24.9666 36.1447 21.9882 33.35 18.3771 33.35H17.2271C19.7685 33.35 21.8271 31.2915 21.8271 28.75C21.8271 26.2085 19.7685 24.15 17.2271 24.15C14.6856 24.15 12.6271 26.2085 12.6271 28.75C12.6271 31.2915 14.6856 33.35 17.2271 33.35H16.0771Z" fill="#F3F3FB"/>
<path d="M5.7499 46C6.55513 46 7.32554 46.2072 7.98084 46.5862C9.39531 47.3684 10.3499 48.875 10.3499 50.6C10.3499 53.1415 8.29136 55.2 5.7499 55.2C3.20845 55.2 1.1499 53.1415 1.1499 50.6C1.1499 48.0585 3.20845 46 5.7499 46Z" fill="#AAD3E2"/>
<path d="M5.7499 1.1499C8.29136 1.1499 10.3499 3.20845 10.3499 5.7499C10.3499 7.57822 9.2802 9.16565 7.72815 9.89002C7.13013 10.1887 6.45125 10.3499 5.7499 10.3499C3.20845 10.3499 1.1499 8.29136 1.1499 5.7499C1.1499 3.20845 3.20845 1.1499 5.7499 1.1499Z" fill="#AAD3E2"/>
<path d="M55.2 27.6C62.8098 27.6 69 21.4098 69 13.8C69 6.19023 62.8098 0 55.2 0C49.674 0 44.9095 3.272 42.7078 7.97419L39.0124 6.61025C39.0562 6.32725 39.1 6.04424 39.1 5.75C39.1 2.57964 36.5204 0 33.35 0C30.1796 0 27.6 2.57964 27.6 5.75C27.6 8.92036 30.1796 11.5 33.35 11.5C35.4097 11.5 37.206 10.4017 38.2212 8.76987L41.9104 10.1316C41.5864 11.3023 41.4 12.5281 41.4 13.8C41.4 15.3066 41.6504 16.7531 42.0991 18.1114L29.4513 23.4717C27.1356 19.0935 22.539 16.1 17.25 16.1C15.5362 16.1 13.9011 16.4291 12.3855 17.0018L9.20449 10.3169C10.5903 9.2657 11.5 7.61875 11.5 5.75C11.5 2.57964 8.92036 0 5.75 0C2.57964 0 0 2.57964 0 5.75C0 8.92036 2.57964 11.5 5.75 11.5C6.22842 11.5 6.68718 11.4242 7.13247 11.3125L10.3096 17.9906C6.21438 20.3872 3.45 24.8216 3.45 29.9C3.45 34.6701 5.88364 38.8804 9.57285 41.3596L7.46938 45.1409C6.9219 44.9685 6.35251 44.85 5.75 44.85C2.57964 44.85 0 47.4296 0 50.6C0 53.7704 2.57964 56.35 5.75 56.35C8.92036 56.35 11.5 53.7704 11.5 50.6C11.5 48.8587 10.7054 47.3145 9.47964 46.26L11.5876 42.4708C13.3171 43.2536 15.2308 43.7 17.25 43.7C20.4058 43.7 23.3083 42.6236 25.6358 40.834L30.1622 45.8136C27.8667 48.2792 26.45 51.5731 26.45 55.2C26.45 55.9036 26.5202 56.5892 26.6213 57.2642L21.2958 58.5281C20.3794 56.5684 18.4022 55.2 16.1 55.2C12.9296 55.2 10.35 57.7796 10.35 60.95C10.35 64.1204 12.9296 66.7 16.1 66.7C19.2704 66.7 21.85 64.1204 21.85 60.95C21.85 60.8865 21.8326 60.827 21.8315 60.7636L27.1469 59.5035C28.9594 65.0104 34.1434 69 40.25 69C47.8598 69 54.05 62.8098 54.05 55.2C54.05 52.8405 53.4531 50.6185 52.4042 48.6751L59.1593 44.2829C60.2037 45.3408 61.6502 46 63.25 46C66.4204 46 69 43.4204 69 40.25C69 37.0796 66.4204 34.5 63.25 34.5C60.0796 34.5 57.5 37.0796 57.5 40.25C57.5 40.9929 57.6527 41.6987 57.9105 42.3512L51.1396 46.753C49.7847 45.0112 48.0254 43.6045 46 42.6707L51.613 27.1104C52.7585 27.4192 53.9579 27.6 55.2 27.6ZM33.35 9.2C31.4481 9.2 29.9 7.65188 29.9 5.75C29.9 3.84812 31.4481 2.3 33.35 2.3C35.2519 2.3 36.8 3.84812 36.8 5.75C36.8 7.65188 35.2519 9.2 33.35 9.2ZM2.3 5.75C2.3 3.84812 3.84812 2.3 5.75 2.3C7.65188 2.3 9.2 3.84812 9.2 5.75C9.2 7.65188 7.65188 9.2 5.75 9.2C3.84812 9.2 2.3 7.65188 2.3 5.75ZM5.75 54.05C3.84812 54.05 2.3 52.5019 2.3 50.6C2.3 48.6981 3.84812 47.15 5.75 47.15C7.65188 47.15 9.2 48.6981 9.2 50.6C9.2 52.5019 7.65188 54.05 5.75 54.05ZM16.1 64.4C14.1981 64.4 12.65 62.8519 12.65 60.95C12.65 59.0481 14.1981 57.5 16.1 57.5C18.0019 57.5 19.55 59.0481 19.55 60.95C19.55 62.8519 18.0019 64.4 16.1 64.4ZM63.25 36.8C65.1519 36.8 66.7 38.3481 66.7 40.25C66.7 42.1519 65.1519 43.7 63.25 43.7C61.3481 43.7 59.8 42.1519 59.8 40.25C59.8 38.3481 61.3481 36.8 63.25 36.8ZM48.4275 23.0736C48.9407 20.4136 51.2856 18.4 54.05 18.4H56.35C59.1144 18.4 61.4593 20.4136 61.9725 23.0736C60.0701 24.4661 57.7336 25.3 55.2 25.3C52.6664 25.3 50.3299 24.4661 48.4275 23.0736ZM55.2 16.1C53.2981 16.1 51.75 14.5519 51.75 12.65C51.75 10.7481 53.2981 9.2 55.2 9.2C57.1019 9.2 58.65 10.7481 58.65 12.65C58.65 14.5519 57.1019 16.1 55.2 16.1ZM55.2 2.3C61.5413 2.3 66.7 7.45872 66.7 13.8C66.7 16.675 65.6314 19.3018 63.88 21.3199C63.0742 19.1979 61.3942 17.5044 59.3008 16.6683C60.3188 15.6306 60.95 14.2138 60.95 12.65C60.95 9.47964 58.3704 6.9 55.2 6.9C52.0296 6.9 49.45 9.47964 49.45 12.65C49.45 14.2138 50.0812 15.6306 51.0992 16.6683C49.0058 17.5044 47.3258 19.1979 46.52 21.3199C44.7686 19.3018 43.7 16.675 43.7 13.8C43.7 7.45872 48.8587 2.3 55.2 2.3ZM5.75 29.9C5.75 23.5587 10.9087 18.4 17.25 18.4C23.5913 18.4 28.75 23.5587 28.75 29.9C28.75 32.784 27.6747 35.4175 25.9143 37.4384C25.1113 35.3086 23.4279 33.6066 21.3289 32.7683C22.3458 31.7306 22.977 30.3138 22.977 28.75C22.977 25.5796 20.3973 23 17.227 23C14.0566 23 11.477 25.5796 11.477 28.75C11.477 30.3138 12.1081 31.7306 13.1262 32.7683C11.039 33.6004 9.36116 35.2878 8.55256 37.4014C6.81128 35.3855 5.75 32.7671 5.75 29.9ZM13.777 28.75C13.777 26.8481 15.3251 25.3 17.227 25.3C19.1289 25.3 20.677 26.8481 20.677 28.75C20.677 30.6519 19.1289 32.2 17.227 32.2C15.3251 32.2 13.777 30.6519 13.777 28.75ZM10.4584 39.1584C10.9767 36.5058 13.3182 34.5 16.077 34.5H18.377C21.1464 34.5 23.4958 36.5204 24.0018 39.1887C22.1032 40.5729 19.774 41.4 17.25 41.4C14.7074 41.4 12.3636 40.5605 10.4584 39.1584ZM33.4584 64.4584C33.9767 61.8058 36.3182 59.8 39.077 59.8H41.377C44.1464 59.8 46.4958 61.8204 47.0018 64.4887C45.1032 65.8729 42.774 66.7 40.25 66.7C37.7074 66.7 35.3636 65.8605 33.4584 64.4584ZM40.227 57.5C38.3251 57.5 36.777 55.9519 36.777 54.05C36.777 52.1481 38.3251 50.6 40.227 50.6C42.1289 50.6 43.677 52.1481 43.677 54.05C43.677 55.9519 42.1289 57.5 40.227 57.5ZM51.75 55.2C51.75 58.084 50.6747 60.7175 48.9143 62.7384C48.1113 60.6086 46.4279 58.9066 44.3289 58.0683C45.3458 57.0306 45.977 55.6138 45.977 54.05C45.977 50.8796 43.3973 48.3 40.227 48.3C37.0566 48.3 34.477 50.8796 34.477 54.05C34.477 55.6138 35.1081 57.0306 36.1262 58.0683C34.039 58.9004 32.3612 60.5878 31.5526 62.7014C29.8113 60.6855 28.75 58.0671 28.75 55.2C28.75 48.8587 33.9087 43.7 40.25 43.7C46.5913 43.7 51.75 48.8587 51.75 55.2ZM43.837 41.8896C42.6915 41.5808 41.4921 41.4 40.25 41.4C37.0942 41.4 34.1917 42.4764 31.8642 44.266L27.3378 39.2864C29.6333 36.8208 31.05 33.5269 31.05 29.9C31.05 28.3934 30.7996 26.9469 30.3509 25.5886L42.9987 20.2283C44.4154 22.9068 46.689 25.0563 49.4511 26.3293L43.837 41.8896Z" fill="#0D2C33"/>
</g>
<defs>
<clipPath id="clip0">
<rect width="69" height="69" fill="white"/>
</clipPath>
</defs>
</svg>
