<svg width="81" height="81" viewBox="0 0 81 81" fill="none" xmlns="http://www.w3.org/2000/svg">
<g clip-path="url(#clip0)">
<path d="M57.9399 31.1024C58.9997 31.1024 60.0069 30.6926 60.7755 29.9485C61.2405 29.4984 61.2526 28.7565 60.8024 28.2916C60.3522 27.8267 59.6104 27.8145 59.1455 28.2648C58.8163 28.5834 58.3882 28.759 57.9399 28.759H57.5986C57.1504 28.759 56.7222 28.5835 56.393 28.2648C55.9279 27.8145 55.1862 27.8267 54.7362 28.2916C54.286 28.7566 54.298 29.4985 54.763 29.9485C55.5318 30.6926 56.5388 31.1024 57.5986 31.1024H57.9399Z" fill="black"/>
<path d="M34.3788 59.71C34.6705 59.8728 34.994 59.9539 35.3171 59.9539C35.6677 59.9539 36.018 59.8582 36.327 59.6681L43.6045 55.1839C44.1774 54.8309 44.5195 54.2183 44.5195 53.5453C44.5195 52.8723 44.1774 52.2597 43.6045 51.9067L36.3268 47.4225C35.7337 47.057 34.9873 47.0411 34.3788 47.3806C33.7705 47.7203 33.3926 48.3642 33.3926 49.0609V58.0293C33.3927 58.7262 33.7705 59.3701 34.3788 59.71ZM35.7363 49.8114L41.7962 53.5453L35.7363 57.2792V49.8114Z" fill="black"/>
<path d="M48.7498 65.4348H37.4887C37.0009 64.0159 35.6539 62.9929 34.0717 62.9929C32.4894 62.9929 31.1423 64.0159 30.6544 65.435H29.16C28.5128 65.435 27.9881 65.9598 27.9883 66.607C27.9883 67.2542 28.513 67.7787 29.1602 67.7787H30.6545C31.1425 69.1975 32.4895 70.22 34.0717 70.22C35.6539 70.22 37.0008 69.1973 37.4887 67.7787H48.7498C49.3969 67.7787 49.9217 67.2542 49.9217 66.607C49.9217 65.9598 49.397 65.4348 48.7498 65.4348ZM34.0717 67.876C33.3716 67.876 32.802 67.3065 32.802 66.6064C32.802 65.906 33.3716 65.3364 34.0717 65.3364C34.7717 65.3364 35.3412 65.906 35.3412 66.6064C35.3412 67.3065 34.7717 67.876 34.0717 67.876Z" fill="black"/>
<path d="M79.1064 57.4301V49.2185C79.1064 43.7599 74.6655 39.319 69.2069 39.319H63.2259V35.1727C65.8994 33.5054 67.6831 30.5395 67.6831 27.1632V26.2462H69.5553C72.1872 26.2462 74.3284 24.1049 74.3284 21.4729C74.3284 20.2251 73.8466 19.0881 73.0598 18.2367V14.189C73.0598 10.6629 71.498 7.35119 68.7748 5.10291C68.2758 4.69088 67.5372 4.7615 67.1252 5.26056C66.7131 5.75963 66.7837 6.49822 67.2828 6.91025C69.4648 8.71166 70.7162 11.3648 70.7162 14.189V16.8434C70.3444 16.7501 69.9556 16.6999 69.5553 16.6999H67.6517C67.3225 13.1665 64.3419 10.3912 60.7239 10.3912H49.4945C48.59 10.3912 47.8541 11.1271 47.8541 12.0317V16.6999H45.9814C45.5816 16.6999 45.1934 16.7499 44.822 16.8431V5.48166C44.822 4.57806 45.2945 3.77775 46.0858 3.34103C46.8773 2.90384 47.807 2.93072 48.5711 3.41181L49.2673 3.85134C50.2073 4.44353 51.2922 4.75666 52.4044 4.75666H61.2836C61.7737 4.75666 62.2617 4.794 62.7342 4.86775C63.3739 4.96697 63.9728 4.52994 64.0725 3.89041C64.1723 3.25088 63.7348 2.65181 63.0953 2.55213C62.5037 2.45978 61.8942 2.41306 61.2836 2.41306H52.4044C51.735 2.41306 51.0822 2.22463 50.5175 1.869L49.8211 1.42931C48.323 0.485876 46.5031 0.433376 44.953 1.28931C43.4034 2.14478 42.4781 3.71213 42.4781 5.48181V18.2352C41.6905 19.0868 41.208 20.2245 41.208 21.4731C41.208 24.1051 43.3492 26.2463 45.9811 26.2463H47.8537V27.1634C47.8537 30.5399 49.638 33.5063 52.312 35.1735V36.8067H35.2883C35.7702 35.1906 36.0303 33.4781 36.0303 31.7048C36.0303 21.9557 28.1984 14.0242 18.5719 14.0242C8.94531 14.0242 1.11328 21.9557 1.11328 31.7048C1.11328 41.454 8.94516 49.3854 18.5717 49.3854C19.0011 49.3854 19.4267 49.369 19.8483 49.3379V71.7001C19.8483 73.3473 21.1891 74.6874 22.8372 74.6874H31.7595V76.3385C31.7595 77.9226 33.0483 79.2113 34.6323 79.2113H38.3634C39.9475 79.2113 41.2362 77.9226 41.2362 76.3385V74.6874H42.9642V79.5107C42.9642 80.1579 43.4889 80.6826 44.1361 80.6826H69.8083C70.4555 80.6826 70.9801 80.1579 70.9801 79.5107V75.4624C70.9801 74.8152 70.4555 74.2906 69.8083 74.2906C69.1611 74.2906 68.6364 74.8152 68.6364 75.4624V78.3388H45.3081V74.6874H55.0733C56.7214 74.6874 58.0622 73.3473 58.0622 71.7001V65.0196H68.6367V69.994C68.6367 70.6412 69.1614 71.1659 69.8086 71.1659C70.4558 71.1659 70.9805 70.6412 70.9805 69.994V65.0195H73.0694C74.2137 65.0195 75.2847 64.6995 76.1975 64.1441C77.9401 63.0841 79.1066 61.1668 79.1066 58.9823V57.4301H79.1064ZM71.9848 21.4731C71.9848 22.8127 70.895 23.9026 69.5553 23.9026H67.6831V19.0435H69.5553C70.895 19.0435 71.9848 20.1334 71.9848 21.4731ZM45.9814 23.9026C44.6417 23.9026 43.5519 22.8126 43.5519 21.4731C43.5519 20.1335 44.6417 19.0435 45.9814 19.0435H47.8541V23.9026H45.9814ZM50.1977 27.1632V25.0895C50.1977 25.0845 50.1984 25.0795 50.1984 25.0743C50.1984 25.0692 50.1978 25.0643 50.1977 25.0592V17.8867C50.1977 17.8817 50.1984 17.8767 50.1984 17.8715C50.1984 17.8663 50.1978 17.8615 50.1977 17.8563V12.7345H60.7239C63.2689 12.7345 65.3394 14.8049 65.3394 17.3499V27.1629C65.3394 31.0726 62.1586 34.2534 58.2489 34.2534H57.288C53.3784 34.2537 50.1977 31.0729 50.1977 27.1632ZM54.6561 36.2209C55.4922 36.4643 56.3747 36.5973 57.2881 36.5973H58.2491C59.163 36.5973 60.0459 36.4641 60.8823 36.2206V41.2532C60.8823 42.6437 59.7511 43.7749 58.3606 43.7749H58.0622V39.7938C58.0622 38.1467 56.7212 36.8065 55.0733 36.8065H54.6561V36.2209ZM56.8994 62.6762C56.8962 62.6762 56.8934 62.6757 56.8903 62.6757C56.8872 62.6757 56.8844 62.6762 56.8812 62.6762H55.5001C54.5492 62.6762 53.7755 61.9026 53.7755 60.9515V58.6034H57.8481V62.676H56.8994V62.6762ZM55.0731 39.1502C55.4289 39.1502 55.7184 39.439 55.7184 39.794V42.1817C55.5103 42.1357 55.2948 42.1096 55.0731 42.1096H32.6778C33.3434 41.1867 33.923 40.1962 34.4044 39.1504H55.0731V39.1502ZM3.45687 31.7048C3.45687 23.2479 10.2373 16.3677 18.5717 16.3677C26.9061 16.3677 33.6866 23.2479 33.6866 31.7048C33.6866 40.1617 26.9061 47.0418 18.5717 47.0418C10.2373 47.0418 3.45687 40.1617 3.45687 31.7048ZM38.8928 76.3387C38.8928 76.6306 38.6555 76.8679 38.3636 76.8679H34.6325C34.3406 76.8679 34.1033 76.6306 34.1033 76.3387V74.6876H38.8927L38.8928 76.3387ZM55.7186 71.7002C55.7186 72.0552 55.4291 72.344 55.0733 72.344H22.8373C22.4816 72.344 22.192 72.0552 22.192 71.7002V49.0021C25.435 48.3068 28.3484 46.6974 30.6561 44.4532H55.0731C55.4289 44.4532 55.7184 44.742 55.7184 45.097V56.2599H49.3955C48.7483 56.2599 48.2236 56.7846 48.2236 57.4318C48.2236 58.079 48.7483 58.6037 49.3955 58.6037H51.4319V60.9518C51.4319 63.1951 53.2569 65.0201 55.5001 65.0201H55.7186V71.7002ZM76.398 60.5823C75.8006 61.8199 74.533 62.6759 73.0692 62.6759C72.377 62.6759 60.8773 62.6762 60.1917 62.6762V58.6035H71.8873C72.5345 58.6035 73.0592 58.0788 73.0592 57.4317C73.0592 56.7845 72.5345 56.2598 71.8873 56.2598H70.9808V48.8129C70.9808 48.1657 70.4561 47.641 69.8089 47.641C69.1617 47.641 68.637 48.1657 68.637 48.8129V56.2598H58.0619V46.1185H58.3603C60.9052 46.1185 62.9984 44.1543 63.2072 41.6624H69.2067C73.373 41.6624 76.7626 45.052 76.7626 49.2184V58.9821C76.7628 59.3006 76.7325 59.9151 76.398 60.5823Z" fill="black"/>
<path d="M30.5862 31.8576C31.2466 31.6583 31.6903 31.0595 31.6903 30.3675C31.6903 29.6756 31.2467 29.0767 30.5862 28.877L19.1478 25.4225C18.7711 25.3087 18.3725 25.3087 17.9956 25.4225L6.55703 28.8772C5.89672 29.0767 5.45312 29.6756 5.45312 30.3675C5.45312 30.6923 5.55203 30.9961 5.72406 31.2481V35.1198C5.72406 35.767 6.24875 36.2917 6.89594 36.2917C7.54313 36.2917 8.06781 35.767 8.06781 35.1198V32.3139L9.84422 32.8503V38.2487C9.84422 39.1672 10.462 39.969 11.3463 40.1984L17.8644 41.892C18.0958 41.9523 18.3339 41.9823 18.572 41.9823C18.81 41.9823 19.0478 41.9523 19.2791 41.892L25.7972 40.1986C26.6819 39.9689 27.2997 39.1672 27.2997 38.2487V32.8501L30.5862 31.8576ZM18.5717 27.6967L27.4145 30.3673L18.5717 33.0379L9.72891 30.3673L18.5717 27.6967ZM24.9559 37.9958L18.6892 39.624C18.6123 39.644 18.5312 39.6439 18.4541 39.624L12.1878 37.9959V33.5584L17.9956 35.3125C18.1841 35.3693 18.378 35.3978 18.5717 35.3978C18.7656 35.3978 18.9594 35.3693 19.1478 35.3125L24.9559 33.5583V37.9958Z" fill="black"/>
</g>
<defs>
<clipPath id="clip0">
<rect width="80" height="80" fill="white" transform="translate(0.109375 0.682617)"/>
</clipPath>
</defs>
</svg>
