<svg width="89" height="89" viewBox="0 0 89 89" fill="none" xmlns="http://www.w3.org/2000/svg">
<path d="M72.1382 33.1777C74.0792 33.1777 75.6582 31.5987 75.6582 29.6577C75.6582 27.7167 74.0792 26.1377 72.1382 26.1377C70.1972 26.1377 68.6182 27.7167 68.6182 29.6577C68.6182 31.5987 70.1972 33.1777 72.1382 33.1777ZM72.1382 28.4844C72.785 28.4844 73.3115 29.0103 73.3115 29.6577C73.3115 30.3051 72.785 30.831 72.1382 30.831C71.4914 30.831 70.9648 30.3051 70.9648 29.6577C70.9648 29.0103 71.4914 28.4844 72.1382 28.4844Z" fill="black"/>
<path d="M58.0581 19.0976C58.7061 19.0976 59.2314 18.5723 59.2314 17.9243C59.2314 17.2763 58.7061 16.751 58.0581 16.751C57.4101 16.751 56.8848 17.2763 56.8848 17.9243C56.8848 18.5723 57.4101 19.0976 58.0581 19.0976Z" fill="black"/>
<path d="M70.8224 19.2396C71.0515 19.4687 71.3518 19.5834 71.6519 19.5834C71.952 19.5834 72.2524 19.4687 72.4815 19.2396L73.311 18.4101L74.1406 19.2396C74.3696 19.4687 74.67 19.5834 74.9701 19.5834C75.2702 19.5834 75.5706 19.4687 75.7996 19.2396C76.2578 18.7814 76.2578 18.0387 75.7996 17.5805L74.9701 16.751L75.7996 15.9214C76.2578 15.4632 76.2578 14.7205 75.7996 14.2623C75.3415 13.8042 74.5987 13.8042 74.1406 14.2623L73.311 15.0919L72.4815 14.2623C72.0233 13.8042 71.2806 13.8042 70.8224 14.2623C70.3642 14.7205 70.3642 15.4632 70.8224 15.9214L71.6519 16.751L70.8224 17.5805C70.3639 18.039 70.3639 18.7814 70.8224 19.2396Z" fill="black"/>
<path d="M61.5788 41.5661V33.4927C61.5788 30.7312 59.3325 28.4843 56.571 28.4843H46.3255V13.231C46.3255 12.5824 45.8001 12.0576 45.1522 12.0576H13.4722C12.8242 12.0576 12.2988 12.5824 12.2988 13.231V44.911C12.2988 45.5595 12.8242 46.0843 13.4722 46.0843H25.3011C25.9491 46.0843 26.4745 45.5595 26.4745 44.911C26.4745 44.2624 25.9491 43.7376 25.3011 43.7376H14.6455V14.4043H43.9788V28.4843H33.7333C30.9718 28.4843 28.7255 30.7312 28.7255 33.4927V56.3293C28.7255 59.0907 30.9718 61.3376 33.7333 61.3376H38.5648C39.2127 61.3376 39.7381 60.8129 39.7381 60.1643C39.7381 59.5157 39.2127 58.991 38.5648 58.991H33.7333C32.266 58.991 31.0722 57.7971 31.0722 56.3293V33.4927C31.0722 32.0248 32.266 30.831 33.7333 30.831H56.5708C58.038 30.831 59.2319 32.0248 59.2319 33.4927V41.391C49.5272 41.391 41.6319 49.2857 41.6319 58.991C41.6319 68.6962 49.5272 76.591 59.2319 76.591C68.9365 76.591 76.8319 68.6962 76.8319 58.991C76.8322 50.0833 70.1753 42.7192 61.5788 41.5661ZM59.2322 74.2443C50.8211 74.2443 43.9788 67.4014 43.9788 58.991C43.9788 50.5805 50.8211 43.7376 59.2322 43.7376C67.6432 43.7376 74.4855 50.5805 74.4855 58.991C74.4855 67.4014 67.6432 74.2443 59.2322 74.2443Z" fill="black"/>
</svg>
