<svg width="89" height="88" viewBox="0 0 89 88" fill="none" xmlns="http://www.w3.org/2000/svg">
<path d="M55.2131 40.4802H57.7845C58.4331 40.4802 58.9578 39.9554 58.9578 39.3068V28.7468C58.9578 28.0983 58.4331 27.5735 57.7845 27.5735H29.6245C28.9759 27.5735 28.4512 28.0983 28.4512 28.7468V39.3068C28.4512 39.9554 28.9759 40.4802 29.6245 40.4802H32.1959C34.0131 40.4802 35.4912 39.002 35.4912 37.1848V35.7868H39.0112V52.2135H37.6131C35.7959 52.2135 34.3178 53.6916 34.3178 55.5088V58.0801C34.3178 58.7287 34.8426 59.2535 35.4912 59.2535H51.9178C52.5664 59.2535 53.0912 58.7287 53.0912 58.0801V55.5088C53.0912 53.6916 51.6131 52.2135 49.7959 52.2135H48.3978V35.7868H51.9178V37.1848C51.9178 39.002 53.3959 40.4802 55.2131 40.4802ZM36.6645 55.5088C36.6645 54.9852 37.0895 54.5602 37.6131 54.5602H40.1845C40.8331 54.5602 41.3578 54.0354 41.3578 53.3868V34.6135C41.3578 33.9649 40.8331 33.4402 40.1845 33.4402H34.3178C33.6693 33.4402 33.1445 33.9649 33.1445 34.6135V37.1848C33.1445 37.7084 32.7195 38.1335 32.1959 38.1335H30.7978V29.9202H42.5312V56.9068H36.6645V55.5088ZM47.2245 33.4402C46.5759 33.4402 46.0512 33.9649 46.0512 34.6135V53.3868C46.0512 54.0354 46.5759 54.5602 47.2245 54.5602H49.7959C50.3195 54.5602 50.7445 54.9852 50.7445 55.5088V56.9068H44.8778V29.9202H56.6112V38.1335H55.2131C54.6895 38.1335 54.2645 37.7084 54.2645 37.1848V34.6135C54.2645 33.9649 53.7397 33.4402 53.0912 33.4402H47.2245Z" fill="black"/>
<path d="M60.1313 65.1201C62.0723 65.1201 63.6513 63.5411 63.6513 61.6001C63.6513 59.6591 62.0723 58.0801 60.1313 58.0801C58.1903 58.0801 56.6113 59.6591 56.6113 61.6001C56.6113 63.5411 58.1903 65.1201 60.1313 65.1201ZM60.1313 60.4267C60.7787 60.4267 61.3047 60.9527 61.3047 61.6001C61.3047 62.2475 60.7787 62.7734 60.1313 62.7734C59.4839 62.7734 58.958 62.2475 58.958 61.6001C58.958 60.9527 59.4839 60.4267 60.1313 60.4267Z" fill="black"/>
<path d="M77.1964 44.4238C76.4628 44.4224 75.8667 45.0164 75.8652 45.75C75.8638 46.4836 76.4578 47.0797 77.1914 47.0811C77.9253 47.0826 78.5211 46.4886 78.5226 45.755C78.524 45.0211 77.9303 44.4253 77.1964 44.4238Z" fill="black"/>
<path d="M57.0957 49.27C57.0942 50.0036 57.6882 50.5997 58.4219 50.6012C59.1558 50.6026 59.7516 50.0086 59.753 49.275C59.7545 48.5414 59.1605 47.9453 58.4269 47.9439C57.6929 47.9424 57.0972 48.5364 57.0957 49.27Z" fill="black"/>
<path d="M13.8484 22.8801H15.5429V61.6001C15.5429 62.2486 16.0677 62.7734 16.7163 62.7734C17.3648 62.7734 17.8896 62.2486 17.8896 61.6001V22.8801H19.5842C21.2377 22.8801 22.5829 21.5348 22.5829 19.8813V18.1867H64.8229V19.8813C64.8229 21.5348 66.1682 22.8801 67.8217 22.8801H73.5578C75.2113 22.8801 76.5566 21.5348 76.5566 19.8813V14.1455C76.5566 12.492 75.2113 11.1467 73.5578 11.1467H67.8217C66.1682 11.1467 64.8229 12.492 64.8229 14.1455V15.8401H22.5829V14.1455C22.5829 12.492 21.2377 11.1467 19.5842 11.1467H13.8484C12.1948 11.1467 10.8496 12.492 10.8496 14.1455V19.8816C10.8496 21.5348 12.1948 22.8801 13.8484 22.8801ZM67.1696 14.1455C67.1696 13.7856 67.4618 13.4934 67.8217 13.4934H73.5578C73.9177 13.4934 74.2099 13.7856 74.2099 14.1455V19.8816C74.2099 20.2415 73.9177 20.5337 73.5578 20.5337H67.8217C67.4618 20.5337 67.1696 20.2415 67.1696 19.8816V14.1455ZM13.1963 14.1455C13.1963 13.7856 13.4884 13.4934 13.8484 13.4934H19.5845C19.9444 13.4934 20.2366 13.7856 20.2366 14.1455V19.8816C20.2366 20.2415 19.9444 20.5337 19.5845 20.5337H13.8484C13.4884 20.5337 13.1963 20.2415 13.1963 19.8816V14.1455Z" fill="black"/>
<path d="M73.5575 65.1201H71.8629V26.4001C71.8629 25.7516 71.3382 25.2268 70.6896 25.2268C70.041 25.2268 69.5163 25.7516 69.5163 26.4001V65.1201H67.8217C66.1682 65.1201 64.8229 66.4654 64.8229 68.1189V69.8135H22.5829V68.1189C22.5829 66.4654 21.2377 65.1201 19.5842 65.1201H13.8484C12.1948 65.1201 10.8496 66.4654 10.8496 68.1189V73.855C10.8496 75.5085 12.1948 76.8538 13.8484 76.8538H19.5845C21.238 76.8538 22.5832 75.5085 22.5832 73.855V72.1601H64.8232V73.8547C64.8232 75.5083 66.1685 76.8535 67.822 76.8535H73.5581C75.2116 76.8535 76.5569 75.5083 76.5569 73.8547V68.1186C76.5563 66.4654 75.211 65.1201 73.5575 65.1201ZM20.2363 73.8547C20.2363 74.2147 19.9441 74.5068 19.5842 74.5068H13.8484C13.4884 74.5068 13.1963 74.2147 13.1963 73.8547V68.1186C13.1963 67.7587 13.4884 67.4665 13.8484 67.4665H19.5845C19.9444 67.4665 20.2366 67.7587 20.2366 68.1186V73.8547H20.2363ZM74.2096 73.8547C74.2096 74.2147 73.9174 74.5068 73.5575 74.5068H67.8214C67.4615 74.5068 67.1693 74.2147 67.1693 73.8547V68.1186C67.1693 67.7587 67.4615 67.4665 67.8214 67.4665H73.5575C73.9174 67.4665 74.2096 67.7587 74.2096 68.1186V73.8547Z" fill="black"/>
</svg>
