<svg width="81" height="81" viewBox="0 0 81 81" fill="none" xmlns="http://www.w3.org/2000/svg">
<g clip-path="url(#clip0)">
<path d="M58.2309 30.976C59.2908 30.976 60.2979 30.5661 61.0665 29.8221C61.5315 29.3719 61.5436 28.63 61.0934 28.1652C60.6433 27.7002 59.9014 27.688 59.4365 28.1383C59.1073 28.4569 58.6792 28.6325 58.2309 28.6325H57.8897C57.4414 28.6325 57.0133 28.4571 56.684 28.1383C56.2189 27.688 55.4772 27.7002 55.0272 28.1652C54.577 28.6302 54.589 29.3721 55.054 29.8221C55.8228 30.5661 56.8298 30.976 57.8897 30.976H58.2309Z" fill="black"/>
<path d="M34.6698 59.5835C34.9616 59.7463 35.285 59.8274 35.6081 59.8274C35.9588 59.8274 36.3091 59.7318 36.618 59.5416L43.8955 55.0574C44.4684 54.7044 44.8105 54.0918 44.8105 53.4188C44.8105 52.7459 44.4684 52.1332 43.8955 51.7802L36.6178 47.296C36.0247 46.9305 35.2783 46.9146 34.6698 47.2541C34.0616 47.5938 33.6836 48.2377 33.6836 48.9344V57.9029C33.6838 58.5998 34.0616 59.2437 34.6698 59.5835ZM36.0273 49.6849L42.0872 53.4188L36.0273 57.1527V49.6849Z" fill="black"/>
<path d="M49.0408 65.3083H37.7798C37.2919 63.8894 35.9449 62.8665 34.3627 62.8665C32.7804 62.8665 31.4334 63.8894 30.9454 65.3085H29.451C28.8038 65.3085 28.2791 65.8333 28.2793 66.4805C28.2793 67.1277 28.804 67.6522 29.4512 67.6522H30.9455C31.4335 69.071 32.7805 70.0935 34.3627 70.0935C35.9449 70.0935 37.2918 69.0708 37.7798 67.6522H49.0408C49.6879 67.6522 50.2127 67.1277 50.2127 66.4805C50.2127 65.8333 49.688 65.3083 49.0408 65.3083ZM34.3627 67.7496C33.6626 67.7496 33.093 67.18 33.093 66.4799C33.093 65.7796 33.6626 65.2099 34.3627 65.2099C35.0627 65.2099 35.6323 65.7796 35.6323 66.4799C35.6323 67.18 35.0627 67.7496 34.3627 67.7496Z" fill="black"/>
<path d="M79.3974 57.3036V49.0921C79.3974 43.6335 74.9565 39.1925 69.4979 39.1925H63.5169V35.0463C66.1904 33.3789 67.9741 30.413 67.9741 27.0368V26.1197H69.8463C72.4782 26.1197 74.6194 23.9785 74.6194 21.3464C74.6194 20.0986 74.1376 18.9616 73.3509 18.1102V14.0625C73.3509 10.5364 71.789 7.22472 69.0658 4.97644C68.5668 4.56441 67.8282 4.63504 67.4162 5.1341C67.0041 5.63316 67.0748 6.37175 67.5738 6.78379C69.7559 8.58519 71.0073 11.2383 71.0073 14.0625V16.7169C70.6354 16.6236 70.2466 16.5735 69.8463 16.5735H67.9427C67.6135 13.04 64.6329 10.2647 61.0149 10.2647H49.7855C48.881 10.2647 48.1451 11.0007 48.1451 11.9052V16.5735H46.2724C45.8726 16.5735 45.4844 16.6235 45.113 16.7166V5.35519C45.113 4.4516 45.5855 3.65129 46.3768 3.21457C47.1684 2.77738 48.098 2.80425 48.8621 3.28535L49.5584 3.72488C50.4984 4.31707 51.5832 4.63019 52.6954 4.63019H61.5746C62.0648 4.63019 62.5527 4.66754 63.0252 4.74129C63.6649 4.8405 64.2638 4.40347 64.3635 3.76394C64.4634 3.12441 64.0259 2.52535 63.3863 2.42566C62.7948 2.33332 62.1852 2.2866 61.5746 2.2866H52.6954C52.026 2.2866 51.3732 2.09816 50.8085 1.74254L50.1121 1.30285C48.614 0.359411 46.7941 0.306911 45.244 1.16285C43.6945 2.01832 42.7691 3.58566 42.7691 5.35535V18.1088C41.9815 18.9603 41.499 20.098 41.499 21.3466C41.499 23.9786 43.6402 26.1199 46.2721 26.1199H48.1448V27.0369C48.1448 30.4135 49.929 33.3799 52.603 35.0471V36.6802H35.5793C36.0612 35.0641 36.3213 33.3516 36.3213 31.5783C36.3213 21.8293 28.4895 13.8977 18.8629 13.8977C9.23633 13.8977 1.4043 21.8293 1.4043 31.5783C1.4043 41.3275 9.23617 49.2589 18.8627 49.2589C19.2921 49.2589 19.7177 49.2425 20.1393 49.2114V71.5736C20.1393 73.2208 21.4801 74.561 23.1282 74.561H32.0505V76.2121C32.0505 77.7961 33.3393 79.0849 34.9234 79.0849H38.6544C40.2385 79.0849 41.5273 77.7961 41.5273 76.2121V74.561H43.2552V79.3842C43.2552 80.0314 43.7799 80.5561 44.4271 80.5561H70.0993C70.7465 80.5561 71.2712 80.0314 71.2712 79.3842V75.336C71.2712 74.6888 70.7465 74.1641 70.0993 74.1641C69.4521 74.1641 68.9274 74.6888 68.9274 75.336V78.2124H45.5991V74.561H55.3643C57.0124 74.561 58.3532 73.2208 58.3532 71.5736V64.8932H68.9277V69.8675C68.9277 70.5147 69.4524 71.0394 70.0996 71.0394C70.7468 71.0394 71.2715 70.5147 71.2715 69.8675V64.893H73.3604C74.5048 64.893 75.5757 64.573 76.4885 64.0177C78.2312 62.9577 79.3976 61.0403 79.3976 58.8558V57.3036H79.3974ZM72.2759 21.3466C72.2759 22.6863 71.186 23.7761 69.8463 23.7761H67.9741V18.9171H69.8463C71.186 18.9171 72.2759 20.0069 72.2759 21.3466ZM46.2724 23.7761C44.9327 23.7761 43.8429 22.6861 43.8429 21.3466C43.8429 20.0071 44.9327 18.9171 46.2724 18.9171H48.1451V23.7761H46.2724ZM50.4887 27.0368V24.963C50.4887 24.958 50.4894 24.953 50.4894 24.9478C50.4894 24.9427 50.4888 24.9378 50.4887 24.9327V17.7602C50.4887 17.7552 50.4894 17.7502 50.4894 17.745C50.4894 17.7399 50.4888 17.735 50.4887 17.7299V12.608H61.0149C63.5599 12.608 65.6304 14.6785 65.6304 17.2235V27.0364C65.6304 30.9461 62.4496 34.1269 58.5399 34.1269H57.579C53.6694 34.1272 50.4887 30.9464 50.4887 27.0368ZM54.9471 36.0944C55.7832 36.3378 56.6657 36.4708 57.5791 36.4708H58.5401C59.454 36.4708 60.3369 36.3377 61.1734 36.0941V41.1268C61.1734 42.5172 60.0421 43.6485 58.6516 43.6485H58.3532V39.6674C58.3532 38.0202 57.0123 36.68 55.3643 36.68H54.9471V36.0944ZM57.1904 62.5497C57.1873 62.5497 57.1844 62.5492 57.1813 62.5492C57.1782 62.5492 57.1754 62.5497 57.1723 62.5497H55.7912C54.8402 62.5497 54.0665 61.7761 54.0665 60.825V58.4769H58.1391V62.5496H57.1904V62.5497ZM55.3641 39.0238C55.7199 39.0238 56.0094 39.3125 56.0094 39.6675V42.0552C55.8013 42.0092 55.5859 41.9832 55.3641 41.9832H32.9688C33.6344 41.0602 34.214 40.0697 34.6954 39.0239H55.3641V39.0238ZM3.74789 31.5783C3.74789 23.1214 10.5284 16.2413 18.8627 16.2413C27.1971 16.2413 33.9776 23.1214 33.9776 31.5783C33.9776 40.0352 27.1971 46.9153 18.8627 46.9153C10.5284 46.9153 3.74789 40.0352 3.74789 31.5783ZM39.1838 76.2122C39.1838 76.5041 38.9465 76.7414 38.6546 76.7414H34.9235C34.6316 76.7414 34.3943 76.5041 34.3943 76.2122V74.5611H39.1837L39.1838 76.2122ZM56.0096 71.5738C56.0096 71.9288 55.7201 72.2175 55.3643 72.2175H23.1284C22.7726 72.2175 22.483 71.9288 22.483 71.5738V48.8757C25.726 48.1803 28.6395 46.571 30.9471 44.3267H55.3641C55.7199 44.3267 56.0094 44.6155 56.0094 44.9705V56.1335H49.6865C49.0393 56.1335 48.5146 56.6582 48.5146 57.3053C48.5146 57.9525 49.0393 58.4772 49.6865 58.4772H51.7229V60.8253C51.7229 63.0686 53.5479 64.8936 55.7912 64.8936H56.0096V71.5738ZM76.689 60.4558C76.0916 61.6935 74.824 62.5494 73.3602 62.5494C72.668 62.5494 61.1684 62.5497 60.4827 62.5497V58.4771H72.1784C72.8255 58.4771 73.3502 57.9524 73.3502 57.3052C73.3502 56.658 72.8255 56.1333 72.1784 56.1333H71.2718V48.6864C71.2718 48.0392 70.7471 47.5146 70.0999 47.5146C69.4527 47.5146 68.928 48.0392 68.928 48.6864V56.1333H58.3529V45.9921H58.6513C61.1962 45.9921 63.2894 44.0278 63.4982 41.536H69.4977C73.664 41.536 77.0537 44.9255 77.0537 49.0919V58.8557C77.0538 59.1741 77.0235 59.7886 76.689 60.4558Z" fill="black"/>
<path d="M30.8773 31.7312C31.5376 31.5318 31.9813 30.933 31.9813 30.241C31.9813 29.5491 31.5377 28.9502 30.8773 28.7505L19.4388 25.296C19.0621 25.1823 18.6635 25.1823 18.2866 25.296L6.84805 28.7507C6.18773 28.9502 5.74414 29.5491 5.74414 30.241C5.74414 30.5658 5.84305 30.8696 6.01508 31.1216V34.9933C6.01508 35.6405 6.53977 36.1652 7.18695 36.1652C7.83414 36.1652 8.35883 35.6405 8.35883 34.9933V32.1874L10.1352 32.7238V38.1223C10.1352 39.0407 10.753 39.8426 11.6373 40.0719L18.1554 41.7655C18.3868 41.8258 18.6249 41.8558 18.863 41.8558C19.101 41.8558 19.3388 41.8258 19.5701 41.7655L26.0882 40.0721C26.9729 39.8424 27.5907 39.0407 27.5907 38.1223V32.7237L30.8773 31.7312ZM18.8627 27.5702L27.7055 30.2408L18.8627 32.9115L10.0199 30.2408L18.8627 27.5702ZM25.247 37.8693L18.9802 39.4976C18.9034 39.5176 18.8223 39.5174 18.7451 39.4976L12.4788 37.8694V33.4319L18.2866 35.186C18.4751 35.2429 18.669 35.2713 18.8627 35.2713C19.0566 35.2713 19.2504 35.2429 19.4388 35.186L25.247 33.4318V37.8693Z" fill="black"/>
</g>
<defs>
<clipPath id="clip0">
<rect width="80" height="80" fill="white" transform="translate(0.400391 0.556152)"/>
</clipPath>
</defs>
</svg>
