<svg width="73" height="73" viewBox="0 0 73 73" fill="none" xmlns="http://www.w3.org/2000/svg">
<g clip-path="url(#clip0)">
<path d="M58.5545 20.7742L55.0816 17.6704C53.6565 16.3964 51.811 15.6924 49.8985 15.6924H43.7307V26.4346H43.7322L43.7324 26.4355L43.7307 26.4346H40.3689V43.5014H47.0441H68.0455V20.7742H58.5545Z" fill="#EB9C8D"/>
<path d="M56.035 43.5013C56.0521 43.3105 56.0637 43.1188 56.0637 42.9256C56.0637 41.5635 55.645 40.2574 54.8525 39.148L43.3198 25.9937L42.3815 26.4346H43.7309H43.7325L43.7326 26.4354L43.7309 26.4346H40.3691V43.5013H47.0444H56.035Z" fill="#D78878"/>
<path d="M45.6775 43.7907C46.829 45.4296 46.4471 47.6954 44.8139 48.8654C44.1684 49.3272 43.4245 49.5495 42.6877 49.5495C41.5491 49.5495 40.4261 49.0179 39.7122 48.0218L39.3103 47.4603C40.4831 49.102 40.1041 51.3836 38.4638 52.5578C37.8197 53.0195 37.0758 53.2419 36.339 53.2419C35.1989 53.2419 34.076 52.7103 33.362 51.7127L33.1354 51.3964C34.3111 53.0381 33.9335 55.3225 32.2918 56.4982C31.6476 56.9599 30.9037 57.1822 30.167 57.1822C29.0269 57.1822 27.9039 56.6506 27.19 55.6531L18.7564 43.7252C18.6566 43.5841 18.4956 43.5014 18.3246 43.5014L4.90601 43.5242V20.4907H15.0312L16.1328 19.3535C17.6248 17.8144 19.677 16.9451 21.8217 16.9451H33.5245L42.3813 26.4347L52.5293 40.7995C52.9911 41.4436 53.2134 42.1875 53.2134 42.9257C53.2134 44.0643 52.6818 45.1873 51.6843 45.9013C50.0426 47.0755 47.7596 46.6979 46.5839 45.0562L45.6775 43.7907Z" fill="#FED2A4"/>
<path d="M71.9319 19.5282V44.733C71.9319 45.3451 71.4357 45.8413 70.8236 45.8413H62.2015C61.4341 45.8413 60.812 45.2193 60.812 44.4519V19.8094C60.812 19.042 61.4341 18.4199 62.2015 18.4199H70.8236C71.4357 18.4199 71.9319 18.9161 71.9319 19.5282Z" fill="#FDB97E"/>
<path d="M29.4933 53.1338C30.2073 54.1314 31.3303 54.6629 32.4703 54.6629C32.8849 54.6629 33.301 54.5898 33.701 54.446C33.4935 55.2455 33.0157 55.9797 32.2918 56.4982C31.6476 56.9599 30.9037 57.1822 30.167 57.1822C29.0269 57.1822 27.9039 56.6506 27.19 55.6531L18.7564 43.7252C18.6566 43.5841 18.4956 43.5014 18.3246 43.5014L4.90601 43.5242V20.4907H15.0312L15.1808 20.3362V38.389C15.1808 39.8256 16.3467 40.9894 17.7833 40.987L19.827 40.9889C20.5323 40.9894 21.1932 41.333 21.599 41.9099L29.4933 53.1338Z" fill="#FFBD86"/>
<path d="M12.3308 19.8094V44.4519C12.3308 45.2193 11.7087 45.8413 10.9413 45.8413H1.86213C1.42377 45.8413 1.06836 45.4859 1.06836 45.0475V19.2137C1.06836 18.7753 1.42377 18.4199 1.86213 18.4199H10.9413C11.7087 18.4199 12.3308 19.042 12.3308 19.8094Z" fill="#ADE194"/>
<path d="M10.9413 40.7149H1.86213C1.42377 40.7149 1.06836 40.3595 1.06836 39.9211V45.0477C1.06836 45.4861 1.42377 45.8415 1.86213 45.8415H10.9413C11.7087 45.8415 12.3308 45.2194 12.3308 44.452V39.3254C12.3308 40.0928 11.7087 40.7149 10.9413 40.7149Z" fill="#97DA7B"/>
<path d="M42.3814 26.4347L33.5245 16.9451H29.7742L22.7139 25.2006C21.7719 26.3004 21.2532 27.7039 21.2532 29.1523C21.2532 30.7755 21.8852 32.3014 23.0328 33.4492C24.1806 34.597 25.7068 35.2291 27.3304 35.2291C28.709 35.2291 30.0606 34.7533 31.1347 33.8901L36.8712 29.2848H44.3949L42.3814 26.4347Z" fill="#FFBD86"/>
<path d="M43.7307 15.6924H36.2449C35.1989 15.6924 34.2057 16.1498 33.5245 16.945L24.8785 27.0545C24.3598 27.6602 24.1033 28.4069 24.1033 29.1523C24.1033 29.9802 24.4211 30.8068 25.0481 31.4338C26.2124 32.5981 28.0664 32.6993 29.3504 31.6675L35.5167 26.7172C35.7446 26.5344 36.0279 26.4346 36.32 26.4346H43.7306V15.6924H43.7307Z" fill="#EB9C8D"/>
<path d="M1.06881 19.489H10.9416C11.1185 19.489 11.2623 19.6329 11.2623 19.8098V35.6061C11.2623 36.1964 11.7408 36.6749 12.3311 36.6749C12.9213 36.6749 13.3999 36.1964 13.3999 35.6061V21.5599H15.0309C15.3202 21.5599 15.5971 21.4426 15.7984 21.235L16.9002 20.0982C18.1836 18.7739 19.9773 18.0143 21.8215 18.0143H31.2041L24.0656 26.3593C22.6169 28.0529 22.7166 30.6137 24.2923 32.1896C25.128 33.0253 26.2266 33.4501 27.3303 33.4499C28.2777 33.4499 29.2291 33.1367 30.02 32.5015L36.2441 27.5035H41.8284L47.523 35.565C47.7313 35.8599 48.0614 36.0172 48.397 36.0172C48.61 36.0172 48.8254 35.9537 49.0126 35.8213C49.4947 35.4807 49.6095 34.8137 49.269 34.3316L44.3207 27.3265C44.6101 27.1353 44.8012 26.8074 44.8012 26.4346C44.8012 25.8443 44.3228 25.3657 43.7324 25.3657H35.8681C35.6247 25.3657 35.3887 25.4488 35.1989 25.6012L28.6816 30.8348C27.8213 31.5255 26.5843 31.4582 25.8039 30.678C25.0121 29.8862 24.9621 28.5997 25.6901 27.7488L34.3372 17.6402C34.8148 17.0818 35.5103 16.7614 36.2452 16.7614H45.5199C46.1103 16.7614 46.5887 16.2829 46.5887 15.6926C46.5887 15.1023 46.1103 14.6238 45.5199 14.6238H36.2452C35.0584 14.6238 33.9274 15.0751 33.0708 15.8766H21.8215C19.4022 15.8766 17.0489 16.873 15.3652 18.6103L14.5784 19.4222H13.3664C13.1796 18.2506 12.1651 17.3514 10.9416 17.3514H1.06881C0.478542 17.3514 0 17.8299 0 18.4202C0 19.0105 0.478542 19.489 1.06881 19.489Z" fill="black"/>
<path d="M71.9312 44.7722H62.2009C62.024 44.7722 61.8801 44.6283 61.8801 44.4516V19.81C61.8801 19.6331 62.024 19.4892 62.2009 19.4892H71.9312C72.5216 19.4892 73 19.0106 73 18.4204C73 17.8301 72.5216 17.3516 71.9312 17.3516H62.2009C60.8803 17.3516 59.8028 18.3988 59.7478 19.7061H58.9632L55.7942 16.8741C54.2269 15.4734 52.2042 14.6758 50.0991 14.6282C49.5021 14.6145 49.0198 15.0824 49.0064 15.6727C48.993 16.2628 49.4607 16.752 50.0507 16.7653C51.6476 16.8013 53.1816 17.4061 54.3699 18.468L57.8431 21.5718C58.0389 21.7469 58.2925 21.8437 58.5552 21.8437H59.7425V42.4327H54.2564C54.173 41.6278 53.8838 40.8553 53.4023 40.1828L51.8971 38.0521C51.5565 37.5702 50.8899 37.4553 50.4075 37.7957C49.9254 38.1363 49.8107 38.8033 50.1511 39.2854L51.6603 41.4216C52.0626 41.9835 52.2219 42.6685 52.109 43.3504C51.9963 44.0323 51.6247 44.6294 51.0626 45.0317C50.5006 45.434 49.8155 45.5931 49.1338 45.4806C48.452 45.3678 47.8548 44.9961 47.4524 44.4342L44.5045 40.3171C44.1609 39.837 43.493 39.7267 43.0133 40.0703C42.5334 40.414 42.4228 41.0817 42.7666 41.5615L44.7891 44.3863C45.6197 45.5465 45.3516 47.1659 44.1916 47.9965C43.63 48.3989 42.9452 48.5584 42.2629 48.4454C41.581 48.3325 40.9839 47.9608 40.5814 47.3989L38.559 44.5741C38.2154 44.094 37.5474 43.9839 37.0677 44.3273C36.5878 44.671 36.4773 45.3386 36.8211 45.8185L38.4394 48.0788C39.2696 49.2389 39.0014 50.858 37.8416 51.6886C36.6816 52.5192 35.0621 52.2512 34.2314 51.091L32.6134 48.8311C32.2696 48.351 31.602 48.2404 31.1222 48.5843C30.6422 48.9279 30.5316 49.5956 30.8754 50.0755L32.2665 52.0188C32.6688 52.5807 32.8283 53.2657 32.7154 53.9476C32.6026 54.6295 32.2309 55.2266 31.669 55.6289C30.509 56.4594 28.8895 56.1915 28.0625 55.0367L19.6286 43.1079C19.3298 42.6851 18.8423 42.4327 18.3245 42.4327H13.4V40.1611C13.4 39.5708 12.9215 39.0923 12.3312 39.0923C11.7409 39.0923 11.2624 39.5708 11.2624 40.1611V44.4514C11.2624 44.6283 11.1185 44.7721 10.9418 44.7721H1.06881C0.478542 44.7721 0 45.2506 0 45.8409C0 46.4312 0.478542 46.9097 1.06881 46.9097H10.9416C12.257 46.9097 13.3313 45.8704 13.3939 44.5702H18.0446L26.3207 56.2758C27.2421 57.5627 28.6951 58.2485 30.1689 58.2485C31.121 58.2485 32.0818 57.9622 32.9132 57.3669C33.9394 56.6322 34.618 55.5418 34.8242 54.2966C34.8368 54.2208 34.8473 54.1448 34.8562 54.069C35.3351 54.2268 35.8369 54.3083 36.3414 54.3083C37.2933 54.3083 38.2543 54.022 39.0857 53.4267C40.1589 52.6583 40.8127 51.52 41.0004 50.3087C41.2927 50.4195 41.5981 50.5023 41.9136 50.5545C42.1747 50.5977 42.4357 50.619 42.6951 50.619C43.6731 50.619 44.6247 50.3154 45.4357 49.7346C46.3767 49.0609 46.995 48.1028 47.2599 47.0603C47.7275 47.3197 48.2412 47.4995 48.7843 47.5895C49.0454 47.6326 49.3065 47.654 49.566 47.654C50.5439 47.654 51.4955 47.3503 52.3066 46.7696C53.0852 46.2121 53.6632 45.4494 53.987 44.5702H59.7479C59.8105 45.8704 60.8847 46.9097 62.2003 46.9097H71.9306C72.521 46.9097 72.9994 46.4312 72.9994 45.8409C72.9994 45.2506 72.5216 44.7722 71.9312 44.7722Z" fill="black"/>
<path d="M36.5 9.02455C37.0904 9.02455 37.5688 8.54601 37.5688 7.95574V4.24313C37.5688 3.65286 37.0904 3.17432 36.5 3.17432C35.9097 3.17432 35.4312 3.65286 35.4312 4.24313V7.9556C35.4312 8.54601 35.9097 9.02455 36.5 9.02455Z" fill="black"/>
<path d="M47.1351 11.2102C47.274 11.2706 47.4186 11.2993 47.5612 11.2993C47.9736 11.2993 48.3665 11.0591 48.5416 10.657L50.0238 7.25331C50.2595 6.71207 50.0119 6.08233 49.4706 5.84662C48.9298 5.6112 48.2996 5.85859 48.0641 6.39983L46.5818 9.80349C46.3461 10.3446 46.5938 10.9743 47.1351 11.2102Z" fill="black"/>
<path d="M24.4586 10.6569C24.6337 11.0592 25.0266 11.2991 25.439 11.2991C25.5815 11.2991 25.7263 11.2705 25.8653 11.2099C26.4065 10.9742 26.6542 10.3445 26.4184 9.80323L24.936 6.39957C24.7004 5.85847 24.0707 5.61079 23.5293 5.8465C22.988 6.08221 22.7404 6.71195 22.9762 7.25319L24.4586 10.6569Z" fill="black"/>
<path d="M36.5 63.9756C35.9097 63.9756 35.4312 64.4541 35.4312 65.0444V68.7569C35.4312 69.3471 35.9097 69.8257 36.5 69.8257C37.0904 69.8257 37.5688 69.3471 37.5688 68.7569V65.0444C37.5688 64.4541 37.0904 63.9756 36.5 63.9756Z" fill="black"/>
<path d="M48.5416 62.3433C48.3062 61.8022 47.6762 61.5544 47.1351 61.7901C46.5938 62.0258 46.3461 62.6555 46.5818 63.1968L48.0641 66.6004C48.2392 67.0027 48.632 67.2427 49.0445 67.2427C49.1869 67.2427 49.3318 67.2141 49.4706 67.1537C50.0119 66.9179 50.2595 66.2882 50.0238 65.747L48.5416 62.3433Z" fill="black"/>
<path d="M25.865 61.7902C25.3236 61.5543 24.694 61.802 24.4583 62.3433L22.9759 65.7469C22.7402 66.288 22.9877 66.9179 23.529 67.1536C23.6679 67.2142 23.8127 67.2428 23.9552 67.2428C24.3676 67.2428 24.7605 67.0027 24.9357 66.6005L26.4181 63.1969C26.6539 62.6556 26.4062 62.0259 25.865 61.7902Z" fill="black"/>
</g>
<defs>
<clipPath id="clip0">
<rect width="73" height="73" fill="white"/>
</clipPath>
</defs>
</svg>
