<svg width="81" height="81" viewBox="0 0 81 81" fill="none" xmlns="http://www.w3.org/2000/svg">
<g clip-path="url(#clip0)">
<path d="M77.4793 40.0136L77.4203 40.0158C75.6058 40.0841 74.0395 41.3591 73.6115 43.1166L72.3561 48.2721C71.1636 53.1681 67.8832 57.2456 63.3562 59.4588C62.8247 59.7185 62.2248 59.6616 61.7517 59.306C61.2786 58.9505 61.057 58.3902 61.1587 57.8072L62.1498 52.1306C62.4484 50.4202 61.3486 48.813 59.6459 48.4717C58.3536 48.2131 57.0595 48.7628 56.3489 49.873L49.9342 59.8933C49.0157 59.2313 47.7245 59.3105 46.8986 60.1361L42.2456 64.7891C41.7879 65.2469 41.7879 65.9888 42.2456 66.4464L55.7559 79.9567C55.9848 80.1855 56.2848 80.2999 56.5847 80.2999C56.8845 80.2999 57.1845 80.1855 57.4134 79.9567L62.0664 75.3038C62.9365 74.4335 62.979 73.0456 62.1964 72.1225C63.6889 71.2924 65.1458 70.3411 66.5279 69.2924C67.0436 68.9013 67.1443 68.1661 66.7531 67.6505C66.3623 67.135 65.6272 67.0341 65.1112 67.4253C62.735 69.228 60.7434 70.2377 60.4812 70.3935L51.6493 61.5616L58.3228 51.1369C58.5087 50.8464 58.8473 50.7035 59.1854 50.77C59.6312 50.8594 59.919 51.28 59.8407 51.7277L58.8497 57.4042C58.5972 58.851 59.1697 60.2977 60.3436 61.1797C61.5176 62.0619 63.0662 62.2092 64.3854 61.5644C69.54 59.0444 73.2753 54.4017 74.6331 48.8267L75.8886 43.6713C76.2926 42.0113 78.6804 41.9341 78.5397 43.3888C77.7684 51.3405 74.2147 58.8217 68.5329 64.4544C68.0734 64.91 68.0701 65.6521 68.5258 66.1116C68.9814 66.5711 69.7231 66.5747 70.1829 66.1188C76.2523 60.1019 80.0486 52.1099 80.8723 43.6149C81.0634 41.6472 79.4815 39.9427 77.4793 40.0136ZM56.5847 77.4708L44.7325 65.6186L48.5664 61.7935L60.4089 73.6463L56.5847 77.4708Z" fill="black"/>
<path d="M25.6691 20.0653L27.2273 20.9287C27.2402 20.9361 27.251 20.9465 27.2585 20.9595L29.6963 25.1817C29.7038 25.1945 29.7076 25.2092 29.7073 25.224L29.6762 27.0054C29.6609 27.8864 30.1252 28.7073 30.8884 29.1479L34.4195 31.1864C34.7946 31.4033 35.2135 31.5114 35.6321 31.5114C36.0648 31.5114 36.4971 31.3959 36.8809 31.1651L38.4087 30.2472C38.421 30.2398 38.4354 30.2359 38.4502 30.2359H43.3259C43.3407 30.2359 43.3552 30.2398 43.3679 30.2475L44.8952 31.1653C45.6507 31.619 46.594 31.6273 47.3565 31.1865L50.8876 29.1479C51.6507 28.7075 52.1149 27.8865 52.0998 27.0054L52.0688 25.224C52.0685 25.2092 52.0723 25.1947 52.0796 25.1818L54.5177 20.9593C54.5251 20.9465 54.5359 20.9361 54.5484 20.929L56.1068 20.0653C56.8774 19.6383 57.3562 18.8254 57.3562 17.9443V13.867C57.3562 12.9861 56.8776 12.1734 56.1068 11.7461L54.5488 10.8826C54.5359 10.8753 54.5251 10.8648 54.5174 10.8517L54.3767 10.6078C54.0531 10.0475 53.336 9.85544 52.7759 10.1792C52.2154 10.5028 52.0235 11.2195 52.3473 11.78L52.4877 12.0236C52.7076 12.4045 53.0271 12.7186 53.4123 12.9322L54.9704 13.7958C54.9963 13.8103 55.0126 13.8375 55.0126 13.867V17.9443C55.0126 17.9739 54.9965 18.0011 54.9707 18.0154L53.4118 18.8795C53.0271 19.0928 52.7076 19.407 52.4879 19.7876L50.0498 24.0101C49.8299 24.3912 49.7177 24.8251 49.7254 25.2648L49.7563 27.0462C49.757 27.0758 49.7413 27.1033 49.7157 27.1181L46.1845 29.1568C46.159 29.1714 46.1271 29.1711 46.1023 29.1561L44.5751 28.2384C44.1979 28.0118 43.766 27.892 43.326 27.892H38.4504C38.0101 27.892 37.5781 28.0118 37.2015 28.2384L35.674 29.1561C35.6488 29.1712 35.6173 29.1715 35.5918 29.1567L32.0607 27.1183C32.0351 27.1033 32.0193 27.0759 32.0199 27.0462L32.051 25.2648C32.0587 24.8251 31.9465 24.3912 31.7265 24.01L29.2887 19.7878C29.0688 19.4068 28.7493 19.0928 28.3641 18.8792L26.8057 18.0154C26.7799 18.0012 26.7638 17.9739 26.7638 17.9443V13.867C26.7638 13.8375 26.7801 13.8101 26.8055 13.7959L28.3646 12.9318C28.7493 12.7186 29.0688 12.4043 29.2885 12.0237L31.7266 7.80122C31.9465 7.42013 32.0587 6.98622 32.051 6.54654L32.0199 4.76513C32.0193 4.73575 32.0349 4.70825 32.0605 4.69341L35.592 2.6545C35.6176 2.63982 35.6488 2.64013 35.6741 2.65544L37.2016 3.57325C37.5787 3.79966 38.0106 3.9195 38.4504 3.9195H43.326C43.7656 3.9195 44.1973 3.79982 44.5749 3.5731L46.1023 2.65544C46.1276 2.64013 46.159 2.63982 46.1846 2.65466L49.716 4.69357C49.7413 4.70825 49.757 4.73575 49.7563 4.76513L49.7254 6.54669C49.719 6.91513 49.801 7.28966 49.9627 7.6295C50.2409 8.21388 50.9402 8.46247 51.5243 8.18466C52.1088 7.90669 52.3573 7.20747 52.0795 6.6231C52.0715 6.60654 52.0688 6.59341 52.069 6.58747L52.0999 4.80607C52.1152 3.92482 51.6507 3.10388 50.8877 2.66372L47.3565 0.624817C46.5935 0.184036 45.6501 0.192004 44.8949 0.646223L43.3682 1.56357C43.3552 1.57138 43.3406 1.57544 43.3259 1.57544H38.4502C38.4354 1.57544 38.4209 1.57138 38.4082 1.56388L36.8812 0.646379C36.1263 0.192473 35.1827 0.183879 34.4196 0.624661L30.8885 2.66325C30.1254 3.10372 29.661 3.92466 29.6762 4.80575L29.7073 6.58716C29.7076 6.602 29.7038 6.61654 29.6965 6.62935L27.2584 10.8518C27.251 10.8647 27.2402 10.8751 27.2277 10.8822L25.6687 11.7461C24.8984 12.1734 24.4199 12.9862 24.4199 13.8668V17.9442C24.4199 18.8254 24.8985 19.6381 25.6691 20.0653Z" fill="black"/>
<path d="M40.8878 8.8186C36.98 8.8186 33.8008 11.998 33.8008 15.9058C33.8008 19.8136 36.9802 22.9928 40.8878 22.9928C44.7958 22.9928 47.975 19.8134 47.975 15.9058C47.9752 11.9978 44.7958 8.8186 40.8878 8.8186ZM40.8878 20.6492C38.2723 20.6492 36.1445 18.5214 36.1445 15.9059C36.1445 13.2905 38.2723 11.1624 40.8878 11.1624C43.5033 11.1624 45.6312 13.2903 45.6312 15.9058C45.6312 18.5213 43.5033 20.6492 40.8878 20.6492Z" fill="black"/>
<path d="M62.207 38.9169C65.1147 38.9169 67.4803 36.5513 67.4803 33.6436C67.4803 30.736 65.1147 28.3704 62.207 28.3704C59.2994 28.3704 56.9336 30.736 56.9336 33.6436C56.9336 36.5513 59.2994 38.9169 62.207 38.9169ZM62.207 30.7141C63.8223 30.7141 65.1366 32.0283 65.1366 33.6436C65.1366 35.259 63.8223 36.5732 62.207 36.5732C60.5916 36.5732 59.2773 35.259 59.2773 33.6436C59.2773 32.0283 60.5917 30.7141 62.207 30.7141Z" fill="black"/>
<path d="M54.0741 25.9538L54.0942 27.1049L52.4878 29.8873L51.4814 30.4452C50.8327 30.8044 50.4297 31.4885 50.4297 32.2302V35.0573C50.4297 35.7987 50.8325 36.4827 51.4811 36.8422L52.4878 37.4004L54.0942 40.1826L54.0741 41.3338C54.0613 42.0751 54.452 42.766 55.0941 43.1368L57.5425 44.5502C57.8583 44.7326 58.2105 44.8235 58.5628 44.8235C58.9269 44.8235 59.2908 44.7263 59.6139 44.5322L60.6006 43.9393H63.8134L64.8002 44.5322C65.4356 44.914 66.2292 44.921 66.8717 44.5502L69.3198 43.1368C69.962 42.7661 70.3528 42.0754 70.34 41.3338L70.3198 40.1826L71.9263 37.4004L72.9334 36.8421C73.5817 36.4824 73.9845 35.7985 73.9845 35.0573V32.2302C73.9845 31.4887 73.5817 30.8048 72.9333 30.4454L71.9263 29.8871L70.3198 27.1049L70.34 25.9538C70.3528 25.2123 69.962 24.5215 69.32 24.1509L66.8716 22.7373C66.2298 22.3665 65.4359 22.3738 64.8002 22.7554L63.8134 23.3484H60.6006L59.6139 22.7554C58.9784 22.3737 58.1847 22.3666 57.5423 22.7373L55.0939 24.151C54.452 24.5216 54.0613 25.2126 54.0741 25.9538ZM56.4205 26.0913L58.5595 24.8563L59.4658 25.4008C59.7831 25.5915 60.1464 25.6921 60.5167 25.6921H63.8973C64.2675 25.6921 64.6308 25.5913 64.9484 25.4007L65.8545 24.8563L67.9936 26.0913L67.9752 27.1482C67.9688 27.5188 68.0633 27.8843 68.2483 28.2041L69.9383 31.1312C70.1233 31.4521 70.3923 31.7166 70.7163 31.8962L71.6408 32.4087V34.8788L70.7159 35.3913C70.392 35.571 70.123 35.8357 69.9384 36.1557L68.2483 39.083C68.063 39.4038 67.9686 39.769 67.975 40.1394L67.9934 41.1963L65.8544 42.4312L64.9481 41.8868C64.6308 41.6962 64.2675 41.5955 63.8972 41.5955H60.5167C60.1466 41.5955 59.7833 41.6963 59.4655 41.8869L58.5595 42.4312L56.4205 41.1963L56.4389 40.1394C56.4453 39.769 56.3509 39.4038 56.1658 39.0833L54.4758 36.1563C54.2908 35.8354 54.0217 35.5708 53.6977 35.3913L52.7733 34.879V32.4088L53.6967 31.8969C54.0211 31.7176 54.2906 31.4527 54.4755 31.1319L56.1653 28.2051C56.3508 27.8844 56.4453 27.519 56.4389 27.1483L56.4205 26.0913Z" fill="black"/>
<path d="M19.5662 38.9169C22.4739 38.9169 24.8395 36.5513 24.8395 33.6436C24.8395 30.736 22.4739 28.3704 19.5662 28.3704C16.6586 28.3704 14.293 30.736 14.293 33.6436C14.293 36.5513 16.6586 38.9169 19.5662 38.9169ZM19.5662 30.7141C21.1816 30.7141 22.4958 32.0283 22.4958 33.6436C22.4958 35.259 21.1816 36.5732 19.5662 36.5732C17.9509 36.5732 16.6367 35.259 16.6367 33.6436C16.6367 32.0283 17.9509 30.7141 19.5662 30.7141Z" fill="black"/>
<path d="M8.84047 36.8422L9.8475 37.4003L11.4537 40.1825L11.4334 41.3337C11.4206 42.0751 11.8116 42.7661 12.4536 43.1367L14.9017 44.55C15.5434 44.9209 16.3373 44.914 16.9734 44.5322L17.9602 43.9392H21.1728L22.1597 44.5322C22.4828 44.7262 22.8466 44.8234 23.2109 44.8234C23.5631 44.8234 23.9155 44.7325 24.2311 44.5501L26.6792 43.1367C27.3214 42.7661 27.7123 42.0751 27.6995 41.3336L27.6792 40.1825L29.2855 37.4003L30.2928 36.842C30.9411 36.4823 31.3441 35.7984 31.3441 35.0572V32.2301C31.3441 31.4886 30.9411 30.8047 30.2927 30.4453L29.2856 29.887L27.6792 27.1048L27.6995 25.9537C27.7123 25.2123 27.3214 24.5214 26.6794 24.1508L24.2313 22.7373C23.5894 22.3662 22.7956 22.3734 22.1598 22.7553L21.1728 23.3483H17.9602L16.9731 22.7551C16.3373 22.3733 15.5437 22.3667 14.9019 22.7372L12.4538 24.1508C11.8116 24.5214 11.4206 25.2123 11.4334 25.9539L11.4537 27.1048L9.8475 29.887L8.84062 30.4451C8.19203 30.8047 7.78906 31.4886 7.78906 32.2301V35.0572C7.78906 35.7986 8.19188 36.4825 8.84047 36.8422ZM10.1328 32.4087L11.0563 31.8968C11.3803 31.7176 11.6497 31.4531 11.8352 31.1319L13.5256 28.204C13.7106 27.8834 13.805 27.5183 13.7986 27.1481L13.78 26.0915L15.9192 24.8564L16.825 25.4006C17.1423 25.5914 17.5058 25.6922 17.8762 25.6922H21.257C21.6273 25.6922 21.9908 25.5912 22.308 25.4008L23.2142 24.8564L25.3533 26.0915L25.3347 27.1483C25.3283 27.5183 25.4227 27.8834 25.6078 28.2042L27.2983 31.1322C27.4838 31.4533 27.753 31.7176 28.077 31.897L29.0005 32.4089V34.879L28.0761 35.3914C27.7523 35.5708 27.4833 35.8351 27.2981 36.1559L25.6075 39.0842C25.4225 39.405 25.3283 39.7698 25.3347 40.1398L25.3533 41.1964L23.2141 42.4314L22.3083 41.8873C21.9909 41.6965 21.6275 41.5957 21.257 41.5957H17.8762C17.5059 41.5957 17.1425 41.6967 16.8253 41.8872L15.9192 42.4314L13.78 41.1964L13.7986 40.1397C13.805 39.7698 13.7108 39.405 13.5255 39.0836L11.835 36.1556C11.6498 35.8351 11.3809 35.5709 11.057 35.3914L10.1327 34.879V32.4087H10.1328Z" fill="black"/>
<path d="M34.8762 60.1359C34.0503 59.3103 32.759 59.2311 31.8406 59.8931L25.4259 49.8728C24.7154 48.7628 23.4204 48.2119 22.1287 48.4717C20.4262 48.8128 19.3262 50.42 19.625 52.1305L20.6159 57.807C20.7176 58.3899 20.4961 58.9502 20.0229 59.3058C19.5501 59.6613 18.95 59.7183 18.4184 59.4584C13.8914 57.2452 10.6111 53.1677 9.41872 48.2719L8.16309 43.1164C7.73513 41.3589 6.16888 40.0839 4.35356 40.0156L4.29606 40.0134C2.3095 39.9374 0.710751 41.6361 0.902313 43.6147C2.06622 55.6163 9.04591 66.2638 19.579 72.1219C18.7959 73.0447 18.8378 74.433 19.7084 75.3038L24.3614 79.9567C24.5903 80.1855 24.8901 80.2999 25.1901 80.2999C25.49 80.2999 25.79 80.1855 26.0187 79.9567L31.219 74.7567C31.6767 74.2989 31.6767 73.557 31.219 73.0994C30.7614 72.642 30.0195 72.6417 29.5617 73.0994L25.1911 77.47L21.3659 73.6363L33.2189 61.7936L37.0434 65.618L32.8747 69.7864C32.417 70.2442 32.417 70.9861 32.8747 71.4438C33.3325 71.9011 34.0745 71.9014 34.5318 71.4438L39.529 66.4467C39.7489 66.2269 39.8723 65.9289 39.8723 65.618C39.8723 65.307 39.7489 65.0092 39.5292 64.7892L34.8762 60.1359ZM3.23513 43.3886C3.17934 42.8128 3.65059 42.3297 4.20856 42.3559C4.22419 42.3566 4.28231 42.3586 4.26669 42.3581C5.05122 42.3875 5.702 42.9152 5.88591 43.6711L7.14153 48.8266C8.49919 54.4014 12.2343 59.0441 17.389 61.5642C18.7083 62.2091 20.2572 62.0619 21.4309 61.1795C22.605 60.2974 23.1773 58.8508 22.9248 57.4041L21.9339 51.7275C21.8556 51.2799 22.1436 50.8592 22.589 50.7699C22.9279 50.7024 23.2659 50.8459 23.4518 51.1367L30.1253 61.5614L21.2934 70.3933C21.1515 70.2616 5.11106 62.7319 3.23513 43.3886Z" fill="black"/>
</g>
<defs>
<clipPath id="clip0">
<rect width="80" height="80" fill="white" transform="translate(0.886719 0.299805)"/>
</clipPath>
</defs>
</svg>
