<svg width="89" height="88" viewBox="0 0 89 88" fill="none" xmlns="http://www.w3.org/2000/svg">
<path d="M58.059 36.2852C57.6017 35.8258 56.8593 35.8247 56.3999 36.2829C55.9417 36.7402 55.9394 37.4826 56.3976 37.9419L57.7202 39.2696L56.3917 40.5934C55.9335 41.0507 55.9312 41.7931 56.3893 42.2525C56.6184 42.4828 56.9188 42.5974 57.2201 42.5974C57.5193 42.5974 57.8193 42.4827 58.0484 42.2548L59.3761 40.9319L60.6999 42.2607C60.929 42.491 61.2293 42.6057 61.5306 42.6057C61.8298 42.6057 62.1299 42.4921 62.359 42.263C62.8172 41.8057 62.8195 41.0633 62.3613 40.6039L61.0381 39.2757L62.3672 37.9513C62.8254 37.494 62.8277 36.7516 62.3695 36.2922C61.9122 35.8329 61.1698 35.8317 60.7104 36.2899L59.3822 37.6134L58.059 36.2852Z" fill="black"/>
<path d="M54.6372 22.2934C56.5782 22.2934 58.1572 20.7144 58.1572 18.7734C58.1572 16.8324 56.5782 15.2534 54.6372 15.2534C52.6962 15.2534 51.1172 16.8324 51.1172 18.7734C51.1172 20.7144 52.6962 22.2934 54.6372 22.2934ZM54.6372 17.6001C55.2846 17.6001 55.8105 18.126 55.8105 18.7734C55.8105 19.4208 55.2846 19.9468 54.6372 19.9468C53.9898 19.9468 53.4639 19.4208 53.4639 18.7734C53.4639 18.126 53.9898 17.6001 54.6372 17.6001Z" fill="black"/>
<path d="M69.5388 31.2286C70.2657 31.1274 70.7729 30.4563 70.672 29.7297C70.5711 29.0031 69.8999 28.4956 69.1731 28.5968C68.4462 28.698 67.939 29.3689 68.0402 30.0958C68.1411 30.8224 68.8123 31.3295 69.5388 31.2286Z" fill="black"/>
<path d="M76.9293 70.4001H16.4625L27.6438 63.3601H69.8893C70.5379 63.3601 71.0627 62.8354 71.0627 62.1868C71.0627 61.5382 70.5379 61.0135 69.8893 61.0135H31.3711L36.98 57.482C36.9996 57.4832 37.0163 57.4935 37.0363 57.4935H64.023C64.6715 57.4935 65.1963 56.9687 65.1963 56.3201C65.1963 55.6716 64.6715 55.1468 64.023 55.1468H40.6892L44.4163 52.8001H59.3293C59.9779 52.8001 60.5027 52.2754 60.5027 51.6268C60.5027 50.9782 59.9779 50.4535 59.3293 50.4535H45.2493V32.8535C45.2493 32.2715 44.8231 31.7775 44.2479 31.6927L12.5679 26.9994C12.232 26.9525 11.8885 27.0487 11.6295 27.2722C11.3717 27.4943 11.2227 27.8187 11.2227 28.1601V71.5735C11.2227 72.222 11.7474 72.7468 12.396 72.7468H76.9293C77.5779 72.7468 78.1027 72.222 78.1027 71.5735C78.1027 70.9249 77.5779 70.4001 76.9293 70.4001ZM35.8627 45.2676V55.412L27.6493 60.5834V47.0927L35.8627 45.2676ZM27.6493 44.6883V31.6059L35.8627 32.8224V42.8629L27.6493 44.6883ZM42.9027 50.9794L38.2093 53.9344V44.7461L42.9027 43.703V50.9794ZM42.9027 41.2985L38.2093 42.3416V33.17L42.9027 33.8652V41.2985ZM25.3027 31.2583V45.2098L13.5693 47.8173V29.5206L25.3027 31.2583ZM13.5693 50.2217L25.3027 47.6143V62.061L13.5693 69.4488V50.2217Z" fill="black"/>
</svg>
