<svg width="81" height="81" viewBox="0 0 81 81" fill="none" xmlns="http://www.w3.org/2000/svg">
<g clip-path="url(#clip0)">
<path d="M40.6283 10.8482C41.4973 10.8482 42.2019 10.1437 42.2019 9.27465V2.25621C42.2019 1.38715 41.4973 0.682617 40.6283 0.682617C39.7592 0.682617 39.0547 1.38715 39.0547 2.25621V9.27465C39.0548 10.1437 39.7594 10.8482 40.6283 10.8482Z" fill="black"/>
<path d="M79.0916 54.7427L76.3117 51.9707C75.3228 50.983 74.0048 50.439 72.6005 50.439C71.7025 50.439 70.8405 50.6624 70.0766 51.081L64.8381 45.8488L65.0933 45.594C67.2184 43.4646 67.2177 40.0045 65.0931 37.8823C64.3339 37.1216 63.3866 36.6145 62.3539 36.401C62.4961 35.9102 62.5709 35.3962 62.5709 34.8701C62.5709 33.4084 62.0031 32.0377 60.9753 31.0141C60.2159 30.2535 59.2687 29.7463 58.2361 29.5329C58.3783 29.0421 58.4531 28.5282 58.4531 28.002C58.4531 26.5401 57.8853 25.1696 56.8558 24.1445C56.0783 23.3679 55.1225 22.8763 54.1189 22.6671C54.6558 20.816 54.197 18.7334 52.7408 17.2746C51.5286 16.0676 49.8837 15.5488 48.2986 15.717L37.9181 13.7521C36.335 13.4518 34.358 13.2532 33.11 14.3915C33.0312 14.4634 32.9509 14.546 32.8719 14.638C30.9369 13.9327 28.68 14.3527 27.1305 15.9005C26.1025 16.9273 25.5362 18.2973 25.5362 19.7582C25.5362 20.2845 25.6108 20.7984 25.7528 21.2893C24.7212 21.5026 23.7752 22.0091 23.0184 22.7673C21.9884 23.793 21.4205 25.1615 21.4194 26.6207C21.4189 27.1482 21.4937 27.6638 21.6366 28.156C20.6045 28.3688 19.6578 28.8745 18.8987 29.6326C17.8687 30.6615 17.3016 32.0323 17.3016 33.4924C17.3016 34.6109 17.6355 35.6763 18.2542 36.5763C17.473 36.8412 16.7573 37.282 16.1581 37.8805C14.0316 40.0045 14.0308 43.4648 16.1595 45.5973L16.4137 45.8504L11.1747 51.0799C9.22766 50.1632 6.82875 50.5066 5.22203 52.1113L2.44047 54.8851C1.45109 55.8732 0.906406 57.1913 0.90625 58.5965C0.90625 60.0018 1.45109 61.3201 2.44047 62.3084L5.91187 65.7755C6.52672 66.3898 7.52312 66.3891 8.13719 65.7743C8.75141 65.1595 8.75078 64.163 8.13594 63.549L4.66453 60.0818C4.27047 59.6882 4.05344 59.1607 4.05344 58.5966C4.05344 58.0327 4.27047 57.5054 4.66359 57.1127L7.44531 54.3388C8.14031 53.6446 9.20406 53.5412 10.0119 54.0241C10.0687 54.1096 10.1345 54.1909 10.2098 54.2663C10.3447 54.4015 10.4986 54.5051 10.662 54.5809L26.6141 70.5095C26.6898 70.6746 26.7939 70.8301 26.9297 70.966C27.0619 71.0984 27.2127 71.2007 27.3727 71.276C27.71 71.6574 27.8964 72.1446 27.8964 72.6643C27.8964 73.2284 27.6794 73.7557 27.2853 74.1493L24.5064 76.9249C23.6853 77.7424 22.3497 77.7423 21.5311 76.9274L18.0597 73.4557C17.4452 72.8412 16.4489 72.8412 15.8344 73.4557C15.2198 74.0702 15.2198 75.0665 15.8344 75.681L19.3083 79.1552C20.3308 80.1735 21.6736 80.6824 23.017 80.6824C24.3608 80.6824 25.7052 80.1727 26.7289 79.1535L29.5095 76.3762C30.4989 75.3879 31.0437 74.0698 31.0437 72.6643C31.0437 71.6613 30.7648 70.7035 30.2462 69.8776L36.1425 63.9885C36.1487 63.9821 36.155 63.9757 36.1614 63.9693C36.8366 63.2713 38.7167 63.402 40.535 63.5282C41.8269 63.618 43.2672 63.7179 44.6744 63.5557L51.1312 70.0049C50.713 70.7676 50.4897 71.6285 50.4897 72.5251C50.4897 73.929 51.0345 75.2463 52.0239 76.2346L54.8047 79.012C55.7934 79.9996 57.1114 80.5437 58.5158 80.5437C59.92 80.5437 61.238 79.9998 62.2269 79.012L79.0926 62.1666C80.082 61.1785 80.6269 59.8604 80.6269 58.4551C80.6267 57.0499 80.0819 55.7318 79.0916 54.7427ZM37.3322 16.8443L44.1583 18.1363L40.0725 22.2205C39.4405 21.9168 38.5742 21.3502 37.6239 20.4412C36.3231 19.1968 35.3927 17.7601 35.308 16.864C35.3078 16.8635 35.3078 16.863 35.3078 16.8626C35.3078 16.8624 35.3077 16.8623 35.3077 16.8621C35.3016 16.7977 35.3 16.7463 35.3008 16.7071C35.5066 16.6571 36.0531 16.6016 37.3322 16.8443ZM29.3544 18.1273C30.1516 17.3309 31.39 17.239 32.2908 17.849C32.8012 19.9893 34.627 21.9291 35.4484 22.7151C36.0572 23.2976 38.0105 25.044 39.982 25.524C40.2487 25.9063 40.3939 26.3621 40.3939 26.843C40.3939 27.4626 40.1556 28.0418 39.7214 28.4755C39.2884 28.9093 38.7083 29.148 38.0877 29.148C37.4669 29.148 36.8867 28.9093 36.4517 28.4735L36.4516 28.4734L36.4508 28.4726L29.3542 21.3888C28.9216 20.9568 28.6833 20.3776 28.6833 19.7582C28.6834 19.1387 28.9217 18.5595 29.3544 18.1273ZM25.2425 24.994C25.6755 24.5604 26.255 24.3215 26.8747 24.3215C27.4952 24.3215 28.0766 24.5609 28.5123 24.9962L34.2267 30.6991C35.1266 31.6004 35.1266 33.067 34.2298 33.9651C33.7945 34.3987 33.2123 34.6374 32.5906 34.6374C31.9689 34.6374 31.3867 34.3987 30.9533 33.967L30.9531 33.9668L26.618 29.6326C26.6112 29.6259 26.6039 29.6196 26.597 29.6127L25.2408 28.2571C24.8056 27.8224 24.5661 27.2421 24.5666 26.623C24.5672 26.006 24.8059 25.4287 25.2425 24.994ZM21.1228 31.8593C21.5561 31.4266 22.1369 31.1884 22.7584 31.1884C23.3748 31.1884 23.9506 31.4232 24.382 31.8484L28.7305 36.1948C29.1641 36.6266 29.403 37.2052 29.403 37.824C29.403 38.4426 29.1641 39.0212 28.7287 39.4548C28.2956 39.8873 27.7155 40.1255 27.095 40.1255C26.4736 40.1255 25.8916 39.8866 25.4578 39.4548L23.8814 37.8802C23.8811 37.8798 23.8806 37.8795 23.8803 37.8791L21.123 35.1251C20.6883 34.6909 20.4489 34.1109 20.4489 33.4921C20.4489 32.8735 20.6883 32.2934 21.1228 31.8593ZM18.3822 40.1071C18.8173 39.6724 19.3989 39.433 20.0197 39.433C20.6403 39.433 21.2217 39.6723 21.6567 40.1066L23.2353 41.6834C23.6691 42.1152 23.9078 42.6938 23.9078 43.3126C23.9078 43.9313 23.6689 44.5098 23.232 44.9451C22.7991 45.3787 22.2189 45.6176 21.5983 45.6176C20.9775 45.6176 20.3973 45.3788 19.9612 44.942L19.7636 44.7451C19.7609 44.7424 19.7589 44.7396 19.7564 44.7371C19.7534 44.7343 19.7503 44.7318 19.7473 44.729L18.3837 43.3707C17.4839 42.469 17.4831 41.0051 18.3822 40.1071ZM50.45 57.9912C49.8358 57.3762 48.8394 57.3757 48.2247 57.9898L46.8247 59.388C45.4944 60.7184 43.0839 60.5509 40.7528 60.3891C38.2214 60.2132 35.6037 60.0316 33.9098 61.7707L28.1137 67.5598L13.6195 53.0868L18.7489 47.9666C19.5967 48.4863 20.575 48.7649 21.5986 48.7649C23.0609 48.7649 24.4322 48.198 25.4564 47.172C26.4875 46.1451 27.0555 44.7746 27.0555 43.3127C27.0555 43.2991 27.0545 43.2857 27.0545 43.2721C27.0681 43.2723 27.0817 43.273 27.0953 43.273C28.5556 43.273 29.9258 42.7079 30.9514 41.6835C31.9825 40.6566 32.5505 39.286 32.5505 37.8243C32.5505 37.8107 32.5495 37.7973 32.5495 37.7837C32.5633 37.7837 32.577 37.7846 32.5909 37.7846C34.0508 37.7846 35.4217 37.2201 36.4542 36.1918C37.5261 35.1182 38.0562 33.7048 38.0461 32.2943C38.0602 32.2945 38.0742 32.2952 38.0883 32.2952C39.5506 32.2951 40.9217 31.7284 41.9475 30.7007C42.9755 29.674 43.5417 28.304 43.5417 26.843C43.5417 25.8213 43.2639 24.8446 42.7459 23.9985L47.2417 19.5046C47.5767 19.171 47.9898 18.9616 48.4228 18.8752C48.4697 18.8702 48.5159 18.8627 48.5617 18.8537C49.2564 18.7579 49.9859 18.9723 50.5172 19.5013C51.417 20.4027 51.417 21.8693 50.5205 22.7674L49.1512 24.131C49.1467 24.1355 49.1419 24.1396 49.1373 24.1441L47.5603 25.7185C46.9453 26.3326 46.9447 27.329 47.5589 27.9438C48.1733 28.5588 49.1695 28.5593 49.7842 27.9452L51.1589 26.5724C51.1592 26.5721 51.1595 26.5718 51.1598 26.5715L51.3676 26.3645C52.27 25.4704 53.7319 25.4723 54.6333 26.3724C55.067 26.8043 55.3059 27.3829 55.3059 28.0016C55.3059 28.6202 55.067 29.1988 54.6298 29.6341L53.2528 31.014C53.2526 31.0141 53.2525 31.0143 53.2523 31.0146L51.6755 32.5851C51.0597 33.1984 51.0576 34.1948 51.6709 34.8104C52.2842 35.4262 53.2805 35.428 53.8962 34.8149L55.4803 33.2373C55.9133 32.8035 56.4934 32.5648 57.1141 32.5648C57.7348 32.5648 58.3151 32.8035 58.7512 33.2404C59.185 33.6724 59.4237 34.251 59.4237 34.8698C59.4237 35.4884 59.185 36.067 58.7487 36.5013L56.0034 39.2477C55.3891 39.8624 55.3892 40.8587 56.0037 41.473C56.3111 41.7802 56.7136 41.9337 57.1162 41.9337C57.5191 41.9337 57.9219 41.7799 58.2291 41.4726L59.5745 40.1266C59.5822 40.1193 59.5905 40.1129 59.5981 40.1052C60.0311 39.6715 60.6112 39.4327 61.2319 39.4327C61.8526 39.4327 62.4328 39.6715 62.8673 40.1068C63.7662 41.0048 63.7655 42.4688 62.8673 43.3685L61.4994 44.7349C61.4989 44.7354 61.4983 44.7359 61.4978 44.7363C61.4973 44.7368 61.4969 44.7374 61.4964 44.7379L59.3251 46.9065C58.7103 47.5207 58.7097 48.5171 59.3237 49.132C59.6311 49.4396 60.0342 49.5935 60.4372 49.5935C60.8395 49.5935 61.242 49.4401 61.5492 49.1334L62.6112 48.0726L67.7014 53.1568L53.2084 67.6321L48.0156 62.4455C48.3777 62.2127 48.7241 61.939 49.0492 61.6138L50.4484 60.2163C51.0636 59.6024 51.0642 58.606 50.45 57.9912ZM76.8684 59.9399L60.0026 76.7852C59.6081 77.1793 59.08 77.3963 58.5156 77.3963C57.9512 77.3963 57.4231 77.1793 57.0284 76.7851L54.2476 74.0077C53.8536 73.6143 53.6366 73.0877 53.6366 72.5251C53.6366 71.9626 53.8536 71.436 54.2476 71.0424L71.1134 54.1971C71.5081 53.8029 72.0361 53.5859 72.6006 53.5859C73.165 53.5859 73.6931 53.8029 74.0887 54.198L76.8686 56.9701C77.2626 57.3637 77.4797 57.8909 77.4797 58.4549C77.4795 59.0191 77.2625 59.5465 76.8684 59.9399Z" fill="black"/>
<path d="M19.7312 9.52175C20.0384 9.82831 20.4406 9.98144 20.8428 9.98144C21.2459 9.98144 21.6492 9.82737 21.9565 9.51941C22.5704 8.90425 22.5695 7.908 21.9543 7.29409L16.2203 1.57144C15.6053 0.95753 14.6089 0.958311 13.995 1.57362C13.3811 2.18878 13.382 3.18503 13.9971 3.79894L19.7312 9.52175Z" fill="black"/>
<path d="M60.4095 9.98138C60.8118 9.98138 61.2143 9.82794 61.5215 9.52122L67.2512 3.79841C67.8661 3.18435 67.8667 2.18794 67.2525 1.5731C66.6384 0.958252 65.6422 0.957627 65.0272 1.57185L59.2975 7.29466C58.6826 7.90872 58.682 8.90513 59.2962 9.51997C59.6036 9.82763 60.0065 9.98138 60.4095 9.98138Z" fill="black"/>
<path d="M10.5803 68.3706C9.97111 68.9903 9.97955 69.9867 10.5994 70.5959L10.6039 70.6003C10.9097 70.9009 11.3067 71.0506 11.7036 71.0506C12.111 71.0506 12.5183 70.8929 12.8269 70.579C13.4361 69.9593 13.4253 68.9607 12.8056 68.3515C12.1861 67.7423 11.1899 67.7509 10.5803 68.3706Z" fill="black"/>
<path d="M54.2963 55.7242C54.5357 55.7242 54.7785 55.6697 55.0065 55.5549C55.7824 55.1635 56.0941 54.2172 55.7029 53.4413C55.3115 52.6653 54.3651 52.3535 53.5893 52.7449L53.5806 52.7492C52.8046 53.1406 52.4973 54.0847 52.8885 54.8606C53.1648 55.4088 53.7204 55.7242 54.2963 55.7242Z" fill="black"/>
</g>
<defs>
<clipPath id="clip0">
<rect width="80" height="80" fill="white" transform="translate(0.765625 0.682617)"/>
</clipPath>
</defs>
</svg>
