<svg width="81" height="81" viewBox="0 0 81 81" fill="none" xmlns="http://www.w3.org/2000/svg">
<g clip-path="url(#clip0)">
<path d="M65.7696 32.6091H35.9678C37.3459 31.025 38.1832 28.9587 38.1832 26.6992C38.1832 21.7268 34.138 17.6816 29.1657 17.6816C24.1934 17.6816 20.1482 21.7268 20.1482 26.6992C20.1482 28.9587 20.9855 31.025 22.3634 32.6091H15.2494C10.9506 32.6091 7.45312 36.1065 7.45312 40.4054V49.6049C7.45312 50.4661 8.15121 51.1642 9.01239 51.1642C9.87357 51.1642 10.5716 50.4661 10.5716 49.6049V40.4054C10.5716 37.8261 12.6701 35.7276 15.2494 35.7276H58.9088C61.4881 35.7276 63.5866 37.8261 63.5866 40.4054V48.8254H47.3703C43.0714 48.8254 39.5739 52.3229 39.5739 56.6217C39.5739 60.9206 43.0714 64.4181 47.3703 64.4181H63.5866V72.8381C63.5866 75.4174 61.4881 77.5159 58.9088 77.5159H15.2494C12.6701 77.5159 10.5716 75.4174 10.5716 72.8381V63.6263C10.5716 62.7651 9.87357 62.067 9.01239 62.067C8.15121 62.067 7.45312 62.7651 7.45312 63.6263V72.8381C7.45312 77.137 10.9506 80.6344 15.2494 80.6344H65.7696C70.0684 80.6344 73.5659 77.137 73.5659 72.8381V40.4054C73.5659 36.1065 70.0684 32.6091 65.7696 32.6091ZM29.1657 20.8003C32.4185 20.8003 35.0647 23.4465 35.0647 26.6993C35.0647 29.9521 32.4185 32.5983 29.1657 32.5983C25.9131 32.5983 23.2667 29.9521 23.2667 26.6993C23.2667 23.4465 25.9129 20.8003 29.1657 20.8003ZM65.1416 35.7276H65.7696C68.3489 35.7276 70.4473 37.8261 70.4473 40.4054V48.8254H66.7051V40.4054C66.7051 38.6517 66.1227 37.0316 65.1416 35.7276ZM42.6925 56.6217C42.6925 54.0424 44.7909 51.944 47.3703 51.944H70.4473V61.2995H47.3703C44.7909 61.2995 42.6925 59.2011 42.6925 56.6217ZM65.7696 77.5159H65.1416C66.1227 76.2119 66.7051 74.5919 66.7051 72.8381V64.4181H70.4473V72.8381C70.4473 75.4174 68.3489 77.5159 65.7696 77.5159Z" fill="#0A1124"/>
<path d="M46.9714 55.0625C46.5597 55.0625 46.1574 55.2293 45.8674 55.5194C45.5774 55.8094 45.4121 56.2117 45.4121 56.6218C45.4121 57.0319 45.5774 57.4341 45.8674 57.7242C46.159 58.0142 46.5597 58.181 46.9714 58.181C47.3815 58.181 47.7822 58.0142 48.0738 57.7242C48.3638 57.4341 48.5306 57.0319 48.5306 56.6218C48.5306 56.2117 48.3638 55.8094 48.0738 55.5194C47.7838 55.2292 47.3815 55.0625 46.9714 55.0625Z" fill="#0A1124"/>
<path d="M51.8535 22.0993C56.8258 22.0993 60.871 18.0541 60.871 13.0817C60.871 8.10956 56.8258 4.06421 51.8535 4.06421C46.8811 4.06421 42.8359 8.1094 42.8359 13.0817C42.8359 18.0541 46.8811 22.0993 51.8535 22.0993ZM51.8535 7.18289C55.1061 7.18289 57.7525 9.82911 57.7525 13.0819C57.7525 16.3347 55.1062 18.9809 51.8535 18.9809C48.6007 18.9809 45.9545 16.3347 45.9545 13.0819C45.9545 9.82911 48.6007 7.18289 51.8535 7.18289Z" fill="#0A1124"/>
<path d="M36.6237 16.0059C37.4849 16.0059 38.183 15.3078 38.183 14.4466V2.19378C38.183 1.3326 37.4849 0.634521 36.6237 0.634521C35.7625 0.634521 35.0645 1.3326 35.0645 2.19378V14.4466C35.0645 15.3078 35.7625 16.0059 36.6237 16.0059Z" fill="#0A1124"/>
<path d="M29.1393 10.6138C30.0005 10.6138 30.6986 9.91572 30.6986 9.05454V2.19378C30.6986 1.3326 30.0005 0.634521 29.1393 0.634521C28.2782 0.634521 27.5801 1.3326 27.5801 2.19378V9.05454C27.5801 9.91572 28.2782 10.6138 29.1393 10.6138Z" fill="#0A1124"/>
<path d="M9.01239 58.181C9.42248 58.181 9.82477 58.0142 10.1148 57.7242C10.4048 57.4341 10.5717 57.0319 10.5717 56.6218C10.5717 56.2117 10.4048 55.8094 10.1148 55.5194C9.82477 55.2293 9.42403 55.0625 9.01239 55.0625C8.6023 55.0625 8.20001 55.2293 7.90999 55.5194C7.61997 55.8094 7.45312 56.2117 7.45312 56.6218C7.45312 57.0319 7.61997 57.4341 7.90999 57.7242C8.20001 58.0142 8.60215 58.181 9.01239 58.181Z" fill="#0A1124"/>
</g>
<defs>
<clipPath id="clip0">
<rect width="80" height="80" fill="white" transform="translate(0.509766 0.634521)"/>
</clipPath>
</defs>
</svg>
