<svg width="66" height="65" viewBox="0 0 66 65" fill="none" xmlns="http://www.w3.org/2000/svg">
<g clip-path="url(#clip0)">
<path d="M34.1523 29.9888C33.2319 29.9888 32.4686 30.3062 31.8187 30.959C31.2487 31.5323 30.9357 32.189 30.8672 32.9583L35.6236 30.3197C35.1819 30.0977 34.6955 29.9888 34.1523 29.9888Z" fill="#FF8000"/>
<path d="M46.4137 29.9888C45.4931 29.9888 44.7299 30.3062 44.08 30.959C43.5346 31.5077 43.2242 32.1329 43.1387 32.86L47.8606 30.3076C47.4253 30.0938 46.947 29.9888 46.4137 29.9888Z" fill="#FF8000"/>
<path d="M61.245 37.7612C63.2684 36.4554 65.5617 34.9751 65.5617 32.4999C65.5617 30.0246 63.2684 28.5446 61.245 27.2386C60.5497 26.7898 59.2798 25.9701 58.9864 25.54C59.0085 24.9984 59.7563 23.5348 60.1227 22.8172C61.1976 20.7134 62.4157 18.329 61.2096 16.2441C59.9904 14.137 57.2936 14.0028 54.9144 13.8842C54.0645 13.8419 52.5098 13.7644 52.0374 13.5243C51.7975 13.0518 51.7201 11.4972 51.6777 10.6471C51.5591 8.26787 51.4247 5.57132 49.3176 4.35217C48.747 4.02212 48.098 3.85469 47.3888 3.85469C45.8452 3.85469 44.269 4.66008 42.7445 5.43893C41.8358 5.90307 40.6017 6.5335 40.0176 6.57266C39.5866 6.27412 38.7705 5.00985 38.3234 4.31669C37.0172 2.29329 35.537 0 33.0619 0C30.5866 0 29.1064 2.29329 27.8005 4.31655C27.3527 5.01055 26.5354 6.27667 26.1047 6.57352C25.5352 6.54045 24.2928 5.90562 23.3791 5.43893C21.8549 4.66008 20.2784 3.85469 18.7349 3.85469C18.0257 3.85469 17.3767 4.02212 16.8063 4.35217C14.6992 5.57118 14.5648 8.26787 14.4462 10.6471C14.404 11.4974 14.3264 13.052 14.0865 13.5245C13.614 13.7644 12.0595 13.8419 11.2093 13.8843C8.83002 14.0028 6.13361 14.1372 4.91446 16.2441C3.70808 18.329 4.92638 20.7135 6.00109 22.8174C6.36746 23.5348 7.11552 24.9986 7.13737 25.5402C6.84422 25.9703 5.57399 26.79 4.87871 27.2388C2.8553 28.5446 0.562012 30.0247 0.562012 32.5001C0.562012 34.9754 2.8553 36.4554 4.87871 37.7614C5.57399 38.2102 6.84422 39.0299 7.13737 39.46C7.11552 40.0016 6.36746 41.4655 6.00109 42.1828C4.9261 44.2863 3.70808 46.6709 4.91418 48.7557C6.13333 50.8628 8.83016 50.9969 11.2093 51.1156C12.0592 51.158 13.614 51.2355 14.0865 51.4755C14.3264 51.948 14.4038 53.5025 14.4462 54.3527C14.5648 56.732 14.6989 59.4285 16.8063 60.6477C17.3767 60.9779 18.0257 61.1452 18.7349 61.1452C20.2786 61.145 21.8549 60.3398 23.3791 59.5609C24.2878 59.0968 25.5217 58.4664 26.1059 58.4272C26.5371 58.7257 27.3533 59.9902 27.8005 60.6833C29.1064 62.7066 30.5866 64.9999 33.0619 64.9999C35.5368 64.9999 37.0172 62.7066 38.3231 60.6833C38.7708 59.9893 39.5882 58.7232 40.0187 58.4263C40.5884 58.4594 41.8308 59.0942 42.7448 59.5609C44.269 60.3396 45.8454 61.145 47.3888 61.145C48.098 61.145 48.7467 60.9776 49.3176 60.6476C51.4247 59.4284 51.5588 56.7318 51.6774 54.3526C51.7198 53.5025 51.7972 51.948 52.0371 51.4755C52.5095 51.2356 54.0639 51.1581 54.9142 51.1156C57.2936 50.9972 59.9901 50.8628 61.2093 48.7557C62.4154 46.6709 61.1974 44.2863 60.1224 42.1826C59.756 41.4651 59.0082 40.0013 58.9861 39.4598C59.2797 39.0296 60.5496 38.21 61.245 37.7612ZM20.8287 22.6569C20.8287 23.3847 20.2386 23.9747 19.5109 23.9747H19.0626C18.3677 23.9747 17.8079 24.2301 17.3986 24.7337C16.9652 25.2672 16.7456 25.7835 16.7456 26.2682V27.1579H18.7975C19.5253 27.1579 20.1153 27.7479 20.1153 28.4758V28.7876C20.1153 29.5153 19.5253 30.1053 18.7975 30.1053H16.7456V38.1002C16.7456 38.8283 16.1553 39.4181 15.4277 39.4181H15.0692C14.3415 39.4181 13.7515 38.8283 13.7515 38.1002V26.596C13.7515 24.9537 14.2436 23.6116 15.2144 22.607C16.1885 21.5979 17.4834 21.0861 19.0626 21.0861H19.5109C20.2386 21.0861 20.8287 21.6761 20.8287 22.4039V22.6569ZM27.1318 29.8772C26.1249 29.9263 25.3828 30.2767 24.8635 30.9486C24.2814 31.7012 23.9864 32.5946 23.9864 33.6036V38.0999C23.9864 38.8278 23.3963 39.4178 22.6686 39.4178H22.3102C21.5827 39.4178 20.993 38.8287 20.9925 38.1012L20.9839 28.4768C20.9837 28.127 21.1223 27.7916 21.3696 27.5443C21.6166 27.2968 21.9519 27.1578 22.3017 27.1578H22.6686C23.2677 27.1578 23.7734 27.5575 23.9336 28.1051C24.8718 27.4064 25.8913 27.0145 26.9747 26.938C27.3399 26.911 27.6985 27.0391 27.9661 27.2883C28.2336 27.5376 28.3854 27.8868 28.3854 28.2523V28.5607C28.3854 29.2638 27.834 29.8428 27.1318 29.8772ZM40.0153 35.6653C39.7115 36.4224 39.2376 37.1235 38.6066 37.7491C37.3842 38.9716 35.8846 39.5936 34.1534 39.5936C32.4228 39.5936 30.9235 38.974 29.6972 37.7516C28.4704 36.5287 27.8482 35.0269 27.8482 33.288C27.8482 31.557 28.4701 30.0575 29.6966 28.831C30.9233 27.6043 32.4228 26.9827 34.1534 26.9827C35.6875 26.9827 36.9708 27.4011 38.0765 28.2621C38.7879 28.8161 39.1692 29.3336 39.3742 29.6117C39.5991 29.9166 39.6817 30.3038 39.601 30.674C39.5204 31.0442 39.2843 31.3619 38.9528 31.5458L31.7442 35.5454C31.7687 35.5715 31.7938 35.5972 31.8192 35.6227C32.4687 36.2722 33.2322 36.588 34.1532 36.588C35.0747 36.588 35.8404 36.2705 36.4936 35.6169C36.8015 35.3091 37.0368 34.9676 37.193 34.6018C37.4273 34.0528 38.0007 33.7299 38.5924 33.815L38.9795 33.8706C39.3795 33.9281 39.7314 34.1662 39.9336 34.5164C40.1358 34.8662 40.166 35.2897 40.0153 35.6653ZM52.2772 35.6653C51.9734 36.4224 51.4996 37.1235 50.8685 37.7491C49.6461 38.9716 48.1464 39.5936 46.4154 39.5936C44.6847 39.5936 43.1852 38.974 41.9591 37.7516C40.7323 36.5287 40.1101 35.0269 40.1101 33.288C40.1101 31.557 40.732 30.0575 41.9585 28.831C43.1852 27.6043 44.6847 26.9827 46.4154 26.9827C47.8555 26.9827 49.0863 27.3773 50.2884 28.2248C51.0165 28.7382 51.3611 29.2243 51.567 29.5151L51.6363 29.6115C51.8626 29.9186 51.9446 30.3085 51.8615 30.6806C51.7783 31.0529 51.5381 31.3707 51.2025 31.5522L44.2009 35.3415C44.1105 35.3905 44.0168 35.4273 43.9219 35.4537C43.9723 35.5108 44.0254 35.5674 44.081 35.6227C44.7304 36.2722 45.494 36.588 46.4151 36.588C47.3365 36.588 48.1021 36.2705 48.7554 35.6169C49.0634 35.3091 49.2986 34.9676 49.4548 34.6018C49.6891 34.0528 50.2613 33.7299 50.854 33.815L51.2412 33.8706C51.6414 33.9281 51.9931 34.1662 52.1952 34.5164C52.3978 34.8662 52.428 35.2897 52.2772 35.6653Z" fill="#FF8000"/>
</g>
<defs>
<clipPath id="clip0">
<rect width="65" height="65" fill="white" transform="translate(0.561035)"/>
</clipPath>
</defs>
</svg>
