<svg width="81" height="81" viewBox="0 0 81 81" fill="none" xmlns="http://www.w3.org/2000/svg">
<g clip-path="url(#clip0)">
<path d="M74.886 16.2373C71.9446 16.2373 69.5527 18.6293 69.5527 21.5706C69.5527 24.5118 71.9448 26.9039 74.886 26.9039C77.8273 26.9039 80.2193 24.512 80.2193 21.5706C80.2193 18.6293 77.8273 16.2373 74.886 16.2373ZM74.886 24.2373C73.4154 24.2373 72.2193 23.0414 72.2193 21.5706C72.2193 20.1 73.4152 18.9039 74.886 18.9039C76.3568 18.9039 77.5527 20.0998 77.5527 21.5706C77.5526 23.0414 76.3566 24.2373 74.886 24.2373Z" fill="black"/>
<path d="M5.55203 60.2373C2.61078 60.2373 0.21875 62.6293 0.21875 65.5706C0.21875 68.5118 2.61078 70.9039 5.55203 70.9039C8.49344 70.9039 10.8853 68.5118 10.8853 65.5706C10.8853 62.6293 8.49344 60.2373 5.55203 60.2373ZM5.55203 68.2373C4.08141 68.2373 2.88531 67.0414 2.88531 65.5706C2.88531 64.0998 4.08125 62.9039 5.55203 62.9039C7.02266 62.9039 8.21875 64.0998 8.21875 65.5706C8.21875 67.0414 7.02281 68.2373 5.55203 68.2373Z" fill="black"/>
<path d="M72.3001 17.9225L60.7975 12.3692C60.1334 12.0478 59.3375 12.3278 59.0175 12.9906C58.6975 13.6532 58.9761 14.4506 59.6389 14.7706L71.1415 20.3239C71.3283 20.4145 71.5256 20.4571 71.7201 20.4571C72.2161 20.4571 72.6922 20.1798 72.9214 19.7025C73.2414 19.0398 72.9628 18.2425 72.3001 17.9225Z" fill="black"/>
<path d="M60.218 69.5706C57.2766 69.5706 54.8848 71.9626 54.8848 74.9038C54.8848 77.8451 57.2766 80.2373 60.218 80.2373C63.1595 80.2373 65.5513 77.8452 65.5513 74.904C65.5513 71.9627 63.1595 69.5706 60.218 69.5706ZM60.218 77.5706C58.7474 77.5706 57.5513 76.3746 57.5513 74.9038C57.5513 73.4331 58.7474 72.2373 60.218 72.2373C61.6887 72.2373 62.8848 73.4332 62.8848 74.904C62.8848 76.3748 61.6887 77.5706 60.218 77.5706Z" fill="black"/>
<path d="M57.6341 71.2562L46.1315 65.7029C45.4674 65.3815 44.6715 65.6602 44.3515 66.3243C44.0315 66.9869 44.3101 67.7843 44.9729 68.1043L56.4755 73.6576C56.6623 73.7482 56.8596 73.7909 57.0541 73.7909C57.5501 73.7909 58.0262 73.5135 58.2555 73.0362C58.5754 72.3734 58.2968 71.5762 57.6341 71.2562Z" fill="black"/>
<path d="M40.218 36.2373C37.2766 36.2373 34.8848 38.6293 34.8848 41.5706C34.8848 44.512 37.2768 46.9039 40.218 46.9039C43.1595 46.9039 45.5513 44.5118 45.5513 41.5706C45.5513 38.6293 43.1595 36.2373 40.218 36.2373ZM40.218 44.2373C38.7474 44.2373 37.5513 43.0414 37.5513 41.5706C37.5513 40.1 38.7473 38.9039 40.218 38.9039C41.6887 38.9039 42.8848 40.0998 42.8848 41.5706C42.8848 43.0414 41.6887 44.2373 40.218 44.2373Z" fill="black"/>
<path d="M37.8744 38.072L29.0384 31.1853C28.457 30.7359 27.6198 30.8359 27.1664 31.4173C26.7144 31.9987 26.817 32.8359 27.3984 33.2894L36.2344 40.1761C36.4784 40.3655 36.7664 40.4575 37.0531 40.4575C37.4505 40.4575 37.8425 40.2815 38.1064 39.9442C38.5584 39.3626 38.4558 38.5253 37.8744 38.072Z" fill="black"/>
<path d="M64.2195 34.9041C56.1327 34.9041 49.5527 41.4841 49.5527 49.5708C49.5527 57.6575 56.1327 64.2375 64.2195 64.2375C72.3062 64.2375 78.8862 57.6575 78.8862 49.5708C78.8862 41.4841 72.3062 34.9041 64.2195 34.9041ZM64.2195 61.5706C57.6021 61.5706 52.2195 56.188 52.2195 49.5706C52.2195 42.9533 57.6021 37.5706 64.2195 37.5706C70.8368 37.5706 76.2194 42.9533 76.2194 49.5706C76.2194 56.188 70.8368 61.5706 64.2195 61.5706Z" fill="black"/>
<path d="M64.218 40.2373C61.2766 40.2373 58.8848 42.6293 58.8848 45.5706C58.8848 48.512 61.2768 50.9039 64.218 50.9039C67.1595 50.9039 69.5513 48.5118 69.5513 45.5706C69.5513 42.6293 67.1595 40.2373 64.218 40.2373ZM64.218 48.2373C62.7474 48.2373 61.5513 47.0414 61.5513 45.5706C61.5513 44.1 62.7473 42.9039 64.218 42.9039C65.6887 42.9039 66.8848 44.0998 66.8848 45.5706C66.8848 47.0414 65.6887 48.2373 64.218 48.2373Z" fill="black"/>
<path d="M68.0867 53.5706H60.3508C58.0722 53.5706 56.2188 55.3746 56.2188 57.5906V61.1052C56.2188 61.5812 56.472 62.0212 56.8841 62.2599C59.1187 63.5532 61.6547 64.2373 64.2188 64.2373C66.7828 64.2373 69.3188 63.5532 71.5534 62.2599C71.9655 62.0226 72.2188 61.5812 72.2188 61.1066V57.592C72.2188 55.3746 70.3655 53.5706 68.0867 53.5706ZM69.552 60.3106C66.2334 61.9638 62.2041 61.9638 58.8853 60.3106V57.592C58.8853 56.8452 59.5427 56.2373 60.3506 56.2373H68.0866C68.8945 56.2373 69.5519 56.8452 69.5519 57.592V60.3106H69.552Z" fill="black"/>
<path d="M32.2175 50.9041C24.1308 50.9041 17.5508 57.484 17.5508 65.5708C17.5508 73.6575 24.1308 80.2373 32.2175 80.2373C40.3042 80.2373 46.8842 73.6573 46.8842 65.5706C46.8842 57.4839 40.3042 50.9041 32.2175 50.9041ZM32.2175 77.5706C25.6002 77.5706 20.2175 72.1879 20.2175 65.5706C20.2175 58.9533 25.6002 53.5706 32.2175 53.5706C38.8348 53.5706 44.2175 58.9533 44.2175 65.5706C44.2175 72.1879 38.8348 77.5706 32.2175 77.5706Z" fill="black"/>
<path d="M32.218 56.2373C29.2766 56.2373 26.8848 58.6293 26.8848 61.5706C26.8848 64.512 29.2768 66.9039 32.218 66.9039C35.1593 66.9039 37.5513 64.5118 37.5513 61.5706C37.5513 58.6293 35.1595 56.2373 32.218 56.2373ZM32.218 64.2373C30.7474 64.2373 29.5513 63.0414 29.5513 61.5706C29.5513 60.1 30.7473 58.9039 32.218 58.9039C33.6887 58.9039 34.8848 60.0998 34.8848 61.5706C34.8848 63.0414 33.6887 64.2373 32.218 64.2373Z" fill="black"/>
<path d="M36.0867 69.5706H28.3508C26.0722 69.5706 24.2188 71.3746 24.2188 73.5906V77.1052C24.2188 77.5812 24.472 78.0212 24.8841 78.2599C27.1187 79.5532 29.6547 80.2373 32.2188 80.2373C34.7828 80.2373 37.3188 79.5532 39.5534 78.2599C39.9655 78.0226 40.2188 77.5813 40.2188 77.1066V73.592C40.2188 71.3746 38.3655 69.5706 36.0867 69.5706ZM37.552 76.3106C34.2333 77.9638 30.2041 77.9638 26.8853 76.3106V73.592C26.8853 72.8452 27.5427 72.2373 28.3506 72.2373H36.0866C36.8945 72.2373 37.5519 72.8452 37.5519 73.592V76.3106H37.552Z" fill="black"/>
<path d="M14.8855 17.5706C6.79875 17.5706 0.21875 24.1506 0.21875 32.2373C0.21875 40.324 6.79875 46.904 14.8855 46.904C22.9722 46.904 29.5522 40.324 29.5522 32.2373C29.552 24.1506 22.972 17.5706 14.8855 17.5706ZM14.8855 44.2373C8.26812 44.2373 2.88547 38.8546 2.88547 32.2373C2.88547 25.6199 8.26812 20.2373 14.8855 20.2373C21.5028 20.2373 26.8855 25.6199 26.8855 32.2373C26.8855 38.8546 21.5028 44.2373 14.8855 44.2373Z" fill="black"/>
<path d="M14.886 22.9041C11.9446 22.9041 9.55273 25.2961 9.55273 28.2373C9.55273 31.1786 11.9448 33.5706 14.886 33.5706C17.8274 33.5706 20.2193 31.1786 20.2193 28.2373C20.2193 25.2961 17.8273 22.9041 14.886 22.9041ZM14.886 30.9041C13.4154 30.9041 12.2193 29.7081 12.2193 28.2373C12.2193 26.7666 13.4152 25.5706 14.886 25.5706C16.3566 25.5706 17.5527 26.7666 17.5527 28.2373C17.5527 29.7081 16.3566 30.9041 14.886 30.9041Z" fill="black"/>
<path d="M18.7527 36.2373H11.0168C8.7382 36.2373 6.88477 38.0414 6.88477 40.2573V43.772C6.88477 44.2479 7.13805 44.6879 7.55008 44.9267C9.78477 46.22 12.3207 46.904 14.8848 46.904C17.4488 46.904 19.9848 46.22 22.2195 44.9267C22.6315 44.6893 22.8848 44.2479 22.8848 43.7734V40.2587C22.8848 38.0414 21.0313 36.2373 18.7527 36.2373ZM20.2181 42.9773C16.8995 44.6306 12.8701 44.6306 9.55133 42.9773V40.2587C9.55133 39.512 10.2087 38.904 11.0166 38.904H18.7526C19.5606 38.904 20.2179 39.512 20.2179 40.2587V42.9773H20.2181Z" fill="black"/>
<path d="M46.8855 0.237305C38.7987 0.237305 32.2188 6.8173 32.2188 14.904C32.2188 22.9907 38.7987 29.5707 46.8855 29.5707C54.9722 29.5707 61.5522 22.9907 61.5522 14.904C61.552 6.8173 54.972 0.237305 46.8855 0.237305ZM46.8855 26.904C40.2681 26.904 34.8855 21.5214 34.8855 14.904C34.8855 8.28668 40.2681 2.90402 46.8855 2.90402C53.5028 2.90402 58.8855 8.28668 58.8855 14.904C58.8855 21.5214 53.5028 26.904 46.8855 26.904Z" fill="black"/>
<path d="M46.886 5.57056C43.9446 5.57056 41.5527 7.96259 41.5527 10.9038C41.5527 13.8451 43.9448 16.2371 46.886 16.2371C49.8273 16.2371 52.2193 13.8452 52.2193 10.904C52.2193 7.96274 49.8273 5.57056 46.886 5.57056ZM46.886 13.5706C45.4154 13.5706 44.2193 12.3746 44.2193 10.9038C44.2193 9.43321 45.4152 8.23712 46.886 8.23712C48.3568 8.23712 49.5527 9.43306 49.5527 10.9038C49.5526 12.3746 48.3566 13.5706 46.886 13.5706Z" fill="black"/>
<path d="M50.7527 18.9041H43.0168C40.7382 18.9041 38.8848 20.7081 38.8848 22.9241V26.4387C38.8848 26.9147 39.138 27.3547 39.5501 27.5934C41.7848 28.8867 44.3207 29.5708 46.8848 29.5708C49.4488 29.5708 51.9848 28.8867 54.2194 27.5934C54.6315 27.3561 54.8848 26.9147 54.8848 26.4401V22.9255C54.8848 20.708 53.0313 18.9041 50.7527 18.9041ZM52.218 25.644C48.8994 27.2973 44.8701 27.2973 41.5513 25.644V22.9255C41.5513 22.1787 42.2087 21.5708 43.0166 21.5708H50.7526C51.5605 21.5708 52.2179 22.1787 52.2179 22.9255V25.644H52.218Z" fill="black"/>
<path d="M34.5654 14.0358C34.0868 13.4785 33.2454 13.4117 32.6854 13.8905L23.4454 21.7972C22.8854 22.2758 22.8201 23.1172 23.2987 23.6772C23.5627 23.9852 23.936 24.1439 24.312 24.1439C24.6187 24.1439 24.9267 24.0386 25.1787 23.8225L34.4187 15.9158C34.9788 15.4372 35.0442 14.5958 34.5654 14.0358Z" fill="black"/>
<path d="M63.9508 35.4386L55.9508 24.7719C55.5094 24.1813 54.6734 24.0652 54.0841 24.5052C53.4947 24.9466 53.3761 25.7825 53.8173 26.3705L61.8173 37.0372C62.08 37.3866 62.48 37.5705 62.8853 37.5705C63.1626 37.5705 63.4441 37.4837 63.6841 37.3037C64.2734 36.8625 64.3922 36.0266 63.9508 35.4386Z" fill="black"/>
<path d="M53.0081 53.9801C52.5667 53.3907 51.7308 53.2721 51.1414 53.7133L43.6934 59.2987C43.1041 59.7401 42.9855 60.576 43.4267 61.164C43.6894 61.5133 44.0894 61.6972 44.4947 61.6972C44.7733 61.6972 45.0533 61.6093 45.2934 61.4305L52.7414 55.8452C53.3308 55.4041 53.4495 54.568 53.0081 53.9801Z" fill="black"/>
<path d="M18.8855 64.2373H9.55203C8.81609 64.2373 8.21875 64.8332 8.21875 65.5706C8.21875 66.3079 8.81609 66.9039 9.55203 66.9039H18.8853C19.6213 66.9039 20.2186 66.3079 20.2186 65.5706C20.2186 64.8332 19.6214 64.2373 18.8855 64.2373Z" fill="black"/>
<path d="M14.8862 0.237305C11.9448 0.237305 9.55273 2.62934 9.55273 5.57059C9.55273 8.51199 11.9448 10.9039 14.886 10.9039C17.8274 10.9039 20.2193 8.51184 20.2193 5.57059C20.2195 2.62934 17.8274 0.237305 14.8862 0.237305ZM14.8862 8.2373C13.4155 8.2373 12.2195 7.04137 12.2195 5.57059C12.2195 4.09996 13.4154 2.90387 14.8862 2.90387C16.3568 2.90387 17.5529 4.0998 17.5529 5.57059C17.5527 7.04137 16.3568 8.2373 14.8862 8.2373Z" fill="black"/>
<path d="M14.886 8.2373C14.1501 8.2373 13.5527 8.83324 13.5527 9.57059V18.9039C13.5527 19.6412 14.1501 20.2371 14.886 20.2371C15.622 20.2371 16.2193 19.6412 16.2193 18.9039V9.57059C16.2193 8.83324 15.622 8.2373 14.886 8.2373Z" fill="black"/>
</g>
<defs>
<clipPath id="clip0">
<rect width="80" height="80" fill="white" transform="translate(0.21875 0.237305)"/>
</clipPath>
</defs>
</svg>
