<svg width="81" height="81" viewBox="0 0 81 81" fill="none" xmlns="http://www.w3.org/2000/svg">
<g clip-path="url(#clip0)">
<path d="M72.8581 28.1568L66.0351 21.4375C65.6101 21.019 64.9836 20.8788 64.4206 21.0765L52.1155 25.4006L44.9572 11.4834C44.762 11.104 44.4201 10.8208 44.0108 10.6997L10.2097 0.698775C9.5612 0.507041 8.86302 0.754092 8.47955 1.3107C8.09592 1.86746 8.11405 2.60783 8.52424 3.14538L25.4743 25.3525L27.2936 35.0186L21.6994 44.068C21.2456 44.8022 21.4728 45.765 22.2069 46.2188C22.9295 46.6687 23.9013 46.4517 24.3577 45.7113L28.1511 39.5749L29.3584 45.9893L26.7568 64.7805H12.5694L16.9621 57.6746C17.4159 56.9405 17.1887 55.9776 16.4546 55.5238C15.7204 55.0698 14.7576 55.2971 14.3038 56.0313L8.4372 65.5215C8.13921 66.0034 8.12546 66.6091 8.40142 67.1039C8.70332 67.6568 9.31227 67.9498 9.93248 67.9057L7.72511 78.7671C7.44603 80.1404 9.06772 81.1754 10.1955 80.3273L26.7182 67.9057H28.1177C28.8979 67.9057 29.5586 67.3302 29.6656 66.5575L32.2641 47.7885L46.2991 50.4171C46.8468 50.5192 47.4077 50.3229 47.7711 49.9007L57.6919 38.376C57.7576 38.2998 57.8157 38.2172 57.8654 38.1297L62.0206 30.8329H71.7615C72.3958 30.8329 72.9671 30.4496 73.2074 29.8628C73.448 29.2758 73.3101 28.6018 72.8581 28.1568ZM11.6076 75.3559L13.1216 67.9057H21.5173L11.6076 75.3559ZM54.2867 36.4545L32.1447 43.8977L28.6566 25.3645L43.0254 14.5608L54.2867 36.4545ZM40.1465 12.8155L27.2423 22.5179L13.9122 5.0535L40.1465 12.8155ZM45.9899 47.1795L37.1278 45.5197L51.6092 40.6517L45.9899 47.1795ZM56.5776 34.0758L53.5585 28.2061L61.5115 25.4114L56.5776 34.0758ZM63.8004 27.7075L65.2907 25.0906L67.9479 27.7075H63.8004Z" fill="#0A1124"/>
<path d="M20.8933 50.871C20.8933 50.0079 20.1937 49.3083 19.3307 49.3083H19.3296C18.4665 49.3083 17.7676 50.0079 17.7676 50.871C17.8501 52.9436 20.8114 52.9433 20.8933 50.871Z" fill="#0A1124"/>
</g>
<defs>
<clipPath id="clip0">
<rect width="80" height="80" fill="white" transform="translate(0.509766 0.634521)"/>
</clipPath>
</defs>
</svg>
