<svg width="81" height="80" viewBox="0 0 81 80" fill="none" xmlns="http://www.w3.org/2000/svg">
<g clip-path="url(#clip0)">
<path d="M40.4336 15.9291C41.2964 15.9291 41.9961 15.2294 41.9961 14.3666V6.40723C41.9961 5.54441 41.2966 4.84473 40.4336 4.84473C39.5706 4.84473 38.8711 5.54426 38.8711 6.40723V14.3666C38.8713 15.2294 39.5708 15.9291 40.4336 15.9291Z" fill="black"/>
<path d="M28.6871 18.4959C28.9841 18.9673 29.4915 19.2255 30.0104 19.2255C30.2951 19.2255 30.5834 19.1477 30.842 18.9847C31.572 18.5247 31.7907 17.5598 31.3307 16.8297L27.1676 10.2242C26.7074 9.49422 25.7426 9.27532 25.0127 9.73547C24.2827 10.1955 24.064 11.1603 24.524 11.8905L28.6871 18.4959Z" fill="black"/>
<path d="M50.031 18.985C50.2896 19.1477 50.5775 19.2253 50.8619 19.2253C51.381 19.2253 51.8886 18.9669 52.1857 18.4952L56.3444 11.8897C56.8041 11.1594 56.5849 10.1949 55.8546 9.73488C55.124 9.27535 54.1597 9.49473 53.6999 10.2247L49.5411 16.8302C49.0815 17.5607 49.3008 18.5252 50.031 18.985Z" fill="black"/>
<path d="M79.9319 41.6301L77.217 36.834C76.7917 36.0828 75.8383 35.8187 75.0878 36.244C74.3367 36.6692 74.0727 37.6225 74.4978 38.3732L77.2114 43.1673C77.3473 43.4082 77.312 43.6406 77.2789 43.7576C77.247 43.8703 77.1592 44.0782 76.9295 44.2051L72.7455 46.5228C72.3737 46.7281 71.8886 46.5984 71.6859 46.2409L70.623 44.3606C70.6186 44.3522 70.6136 44.3443 70.6091 44.3361L59.62 24.8995C59.4842 24.6603 59.5186 24.4309 59.5511 24.3154C59.5825 24.2037 59.6697 23.9973 59.8994 23.8703L64.0884 21.5522C64.4648 21.3437 64.9381 21.4703 65.1439 21.835L67.593 26.162C68.0181 26.9131 68.9717 27.177 69.7223 26.7522C70.4734 26.3272 70.7375 25.3737 70.3125 24.6228L67.8645 20.2976C66.8205 18.4467 64.4483 17.7828 62.5761 18.8176L58.3872 21.1358C57.4808 21.6367 56.8259 22.4647 56.5434 23.4676C56.2769 24.4133 56.3722 25.4004 56.8086 26.2668L54.5011 26.9356C53.5181 27.22 52.9216 27.3742 52.5905 27.3742C52.5891 27.3742 52.5878 27.3742 52.5866 27.3742C52.3586 27.3734 52.11 27.2864 51.4005 27.0176C51.0786 26.8958 50.6778 26.7439 50.1852 26.572L46.0969 25.1428C43.8358 24.3531 42.8159 24.3956 41.3384 24.5304L34.3672 25.1543C31.1892 25.4359 29.1631 26.1528 28.0447 27.3961L24.0719 26.245C24.4994 25.3823 24.5911 24.4047 24.327 23.4676C24.0445 22.4653 23.3902 21.6375 22.4847 21.1365L18.2981 18.8173C16.4244 17.7815 14.0508 18.4458 13.0066 20.2962L0.943434 41.6279C0.427027 42.5372 0.299215 43.5947 0.583902 44.6058C0.866715 45.6098 1.5214 46.4386 2.42609 46.9389L6.61265 49.2578C7.21125 49.5887 7.86156 49.7459 8.50328 49.7459C9.86656 49.7459 11.1919 49.0367 11.9042 47.779L12.3466 46.9965C13.5537 47.5279 14.5673 48.3 15.2581 49.214C14.5834 50.0025 14.1584 50.9754 14.0392 52.0337C13.8817 53.4333 14.277 54.8064 15.1523 55.9009C16.0202 56.9861 17.2611 57.6707 18.6487 57.832C18.5019 59.2197 18.8987 60.5793 19.7673 61.6617C20.6652 62.7842 21.9341 63.439 23.2614 63.5936C23.1152 64.9792 23.5106 66.3376 24.3766 67.4206C25.2439 68.5081 26.4852 69.1942 27.8742 69.3554C27.7272 70.7442 28.1241 72.1047 28.9927 73.1872C30.028 74.4815 31.5564 75.1554 33.0994 75.1553C34.2512 75.1553 35.4112 74.7797 36.3797 74.0062L39.6512 71.3884C39.9111 71.1811 40.1472 70.9518 40.3595 70.705L42.2283 72.1978C43.1947 72.969 44.352 73.3437 45.5023 73.3436C47.0461 73.3434 48.577 72.6687 49.6137 71.3731C50.1602 70.69 50.5061 69.9103 50.6623 69.1054C51.2087 69.2945 51.7856 69.3922 52.3737 69.392C52.5709 69.392 52.7694 69.3811 52.9684 69.359C54.3684 69.2036 55.6203 68.5151 56.4902 67.4242C57.3603 66.3401 57.7572 64.9806 57.6105 63.5931C58.9369 63.4382 60.2064 62.7836 61.1069 61.6615C62.0037 60.5401 62.3637 59.1595 62.2228 57.8317C63.6097 57.6701 64.85 56.9856 65.7158 55.9029C66.5917 54.8114 66.9887 53.4403 66.8336 52.0418C66.7158 50.9803 66.2905 50.004 65.6145 49.2134C66.3033 48.2997 67.3148 47.5267 68.5228 46.9956L68.9661 47.7797C69.678 49.0368 71.0027 49.7458 72.3662 49.7458C73.0083 49.7456 73.6592 49.5884 74.2584 49.2572L78.4427 46.9393C79.347 46.4393 80.0014 45.6118 80.2853 44.6095C80.5716 43.5993 80.4464 42.5418 79.9319 41.6301ZM9.18453 46.2401C8.9814 46.5989 8.49593 46.7282 8.12578 46.5234L3.93937 44.2047C3.71078 44.0781 3.62359 43.8709 3.59171 43.7586C3.55906 43.6422 3.52421 43.4111 3.66203 43.1689L15.727 21.8329C15.8652 21.5881 16.1255 21.4509 16.3958 21.4509C16.5273 21.4509 16.6611 21.4833 16.7845 21.5515L20.9698 23.87C20.9703 23.8703 20.9708 23.8706 20.9712 23.8708C21.2003 23.9975 21.2873 24.2039 21.3189 24.3156C21.3514 24.4311 21.3858 24.6604 21.2484 24.9023L9.18453 46.2401ZM20.5867 54.2807C20.1461 54.6337 19.5897 54.7932 19.0211 54.73C18.4522 54.6668 17.9452 54.3897 17.593 53.9493C17.24 53.5079 17.0809 52.9517 17.1448 52.3833C17.2084 51.8172 17.4858 51.3126 17.9286 50.9603L23.7783 46.2843C24.6964 45.5514 26.0403 45.7022 26.7741 46.6186C27.1269 47.0597 27.2861 47.615 27.2223 48.1817C27.1589 48.7465 26.8814 49.2506 26.4411 49.6009C26.4314 49.6086 26.4231 49.6172 26.4137 49.6251L20.5881 54.2797C20.5877 54.28 20.5872 54.2804 20.5867 54.2807ZM22.2061 59.7079C21.8534 59.2684 21.6941 58.7145 21.757 58.1483C21.82 57.5815 22.0977 57.0747 22.5386 56.7211L22.5391 56.7207C22.5394 56.7206 22.5397 56.7203 22.54 56.7201C22.5402 56.7201 22.5402 56.72 22.5403 56.7198L30.9662 49.9879C31.8842 49.2548 33.2284 49.4045 33.962 50.3222C34.3144 50.7626 34.4736 51.3173 34.4106 51.8839C34.3475 52.4511 34.0691 52.9579 33.627 53.3111L25.2033 60.0404C24.2842 60.7739 22.9405 60.6259 22.2061 59.7079ZM28.2464 66.2532C27.6777 66.1901 27.1711 65.9126 26.8184 65.4704C26.4661 65.03 26.3069 64.4753 26.3698 63.9087C26.433 63.342 26.7109 62.8356 27.1523 62.4825C27.1527 62.4822 27.1531 62.4818 27.1534 62.4815L32.9844 57.8234C32.9912 57.8181 32.9987 57.8136 33.0056 57.8081C33.9212 57.0751 35.265 57.2243 35.9994 58.1397C36.3523 58.5809 36.5116 59.1372 36.4477 59.7056C36.3839 60.2717 36.1066 60.7762 35.6639 61.1286L29.8144 65.8043C29.3723 66.1573 28.8153 66.3161 28.2464 66.2532ZM38.4836 67.5217C38.4203 68.0884 38.1427 68.5942 37.7005 68.9473L34.4287 71.5656C33.5095 72.2992 32.1658 72.1515 31.4317 71.2334C31.0791 70.7942 30.9195 70.2398 30.9825 69.6725C31.0455 69.1051 31.3228 68.599 31.763 68.2475C31.7634 68.2472 31.7641 68.2467 31.7645 68.2464L35.0355 65.6317C35.0372 65.6303 35.0391 65.6292 35.0408 65.6279C35.9591 64.8951 37.303 65.0453 38.0367 65.9622C38.3881 66.4018 38.547 66.9554 38.4836 67.5217ZM63.277 53.9492C62.9248 54.3895 62.4177 54.6668 61.8489 54.73C61.2806 54.7939 60.7239 54.6339 60.2833 54.2807C60.2831 54.2806 60.2828 54.2804 60.2825 54.2803C60.2823 54.2801 60.282 54.28 60.2819 54.2798L56.1009 50.9393C55.4266 50.4006 54.4434 50.5106 53.905 51.1847C53.3664 51.8587 53.4762 52.842 54.1503 53.3806L58.3298 56.72C59.2467 57.4542 59.3978 58.7954 58.6681 59.7078C57.9319 60.6253 56.588 60.7745 55.6705 60.0397L51.1353 56.4206C50.4609 55.8825 49.4778 55.9929 48.9395 56.6673C48.4014 57.3417 48.5117 58.3248 49.1862 58.8631L53.7192 62.4804C54.1609 62.8342 54.4389 63.3414 54.502 63.9087C54.565 64.475 54.4056 65.029 54.05 65.472C53.6986 65.9126 53.192 66.19 52.6234 66.2532C52.0542 66.3159 51.4972 66.157 51.0569 65.8056L48.8003 64.0009C48.7964 63.9978 48.793 63.9945 48.7891 63.9914L46.8825 62.4672L46.5261 62.1822C45.8519 61.6431 44.8688 61.7526 44.33 62.4264C44.2627 62.5107 44.2053 62.5998 44.1581 62.6923C43.9319 63.1345 43.9356 63.6531 44.148 64.0879C44.2463 64.2893 44.3878 64.4732 44.5744 64.6225L46.8433 66.437C47.7541 67.1725 47.903 68.5092 47.1737 69.4209C46.4398 70.3382 45.0958 70.4881 44.1781 69.7561L41.6039 67.6995C41.7111 66.3622 41.3148 65.0579 40.4767 64.01C39.9558 63.3589 39.3097 62.8657 38.6002 62.535C39.1202 61.8136 39.4503 60.9661 39.5528 60.0548C39.7103 58.6554 39.315 57.2823 38.4381 56.1859C37.917 55.5365 37.2717 55.0445 36.5636 54.7145C37.0845 53.9909 37.4147 53.1417 37.5162 52.2292C37.6717 50.8329 37.2761 49.4625 36.4023 48.3698C34.8989 46.4901 32.3564 45.9187 30.2403 46.8168C30.0709 46.039 29.7248 45.3053 29.2139 44.6664C27.4048 42.4058 24.092 42.0359 21.8278 43.8425L17.6441 47.1867C16.698 45.9793 15.4119 44.9781 13.8912 44.264L22.4973 29.042L27.0795 30.3697C27.1005 30.6148 27.1402 30.8726 27.2066 31.1457C28.3158 35.7064 32.5148 37.8314 38.1653 36.6928C42.9262 35.7348 44.8862 37.1618 48.7898 40.0045C49.1948 40.2993 49.6156 40.6057 50.0561 40.9212C52.8634 42.9353 55.8634 45.3026 57.8748 46.9072L62.9467 50.9606C63.3873 51.3122 63.6647 51.8184 63.7277 52.3862C63.7906 52.9536 63.6312 53.5079 63.277 53.9492ZM63.2284 47.1858L59.8248 44.4656C57.7856 42.8389 54.7433 40.4384 51.8769 38.3818C51.4425 38.0708 51.0283 37.769 50.6295 37.4787C46.5817 34.5311 43.6562 32.4014 37.5487 33.6297C35.6794 34.0064 31.2256 34.4468 30.2433 30.4081C30.1048 29.8379 30.2455 29.642 30.3053 29.5584C30.5142 29.2672 31.3548 28.5583 34.6437 28.267L41.6223 27.6425C42.7595 27.5387 43.33 27.4865 45.0656 28.0928L49.1544 29.5222C49.6089 29.6809 49.9723 29.8184 50.2931 29.94C52.2619 30.6858 52.7836 30.6856 55.37 29.937L58.3844 29.0636L66.9789 44.265C65.4578 44.9786 64.173 45.979 63.2284 47.1858Z" fill="black"/>
<path d="M72.4004 33.0624C73.2632 33.0624 73.9629 32.3605 73.9629 31.4976C73.9629 30.6346 73.2632 29.9351 72.4004 29.9351C71.5376 29.9351 70.8379 30.6347 70.8379 31.4976V31.5019C70.8379 32.3649 71.5376 33.0624 72.4004 33.0624Z" fill="black"/>
</g>
<defs>
<clipPath id="clip0">
<rect width="80" height="80" fill="white" transform="translate(0.435547)"/>
</clipPath>
</defs>
</svg>
