<svg width="81" height="80" viewBox="0 0 81 80" fill="none" xmlns="http://www.w3.org/2000/svg">
<g clip-path="url(#clip0)">
<path d="M40.5848 37.587C45.2453 37.587 49.037 33.8276 49.037 29.2068C49.037 24.5859 45.2453 20.8267 40.5848 20.8267C35.9244 20.8267 32.1328 24.5859 32.1328 29.2068C32.1328 33.8276 35.9242 37.587 40.5848 37.587ZM40.5848 23.1507C43.9531 23.1507 46.6933 25.8675 46.6933 29.2069C46.6933 32.5465 43.9531 35.2633 40.5848 35.2633C37.2167 35.2633 34.4766 32.5465 34.4766 29.2069C34.4764 25.8675 37.2166 23.1507 40.5848 23.1507Z" fill="black"/>
<path d="M72.5478 70.95C70.7423 69.1597 68.4138 68.0768 65.8974 67.8416C65.3055 65.2179 62.7171 62.9811 59.9987 62.9811H56.2032C55.7043 60.4787 53.6247 58.5336 51.0342 58.2123L49.7763 55.7618H53.7724L61.8443 60.3308C62.5569 60.7334 63.5973 60.2457 63.5973 59.3216V42.4783C63.5973 42.1393 63.4479 41.8171 63.1884 41.5963L55.1036 34.721V23.4333C55.1036 13.9464 49.6042 4.93961 41.128 0.543723C40.7878 0.367262 40.3819 0.367262 40.0414 0.543723C31.4209 5.01599 26.0657 13.7867 26.0657 23.4333V34.7214L17.9811 41.5961C17.7215 41.8169 17.5721 42.1392 17.5721 42.4781V47.1647C17.5721 47.8065 18.0968 48.3266 18.744 48.3266C19.3912 48.3266 19.9158 47.8065 19.9158 47.1647V43.0123L26.0656 37.7828V53.8397L19.9158 57.3204V52.229C19.9158 51.5872 19.3912 51.0671 18.744 51.0671C18.0968 51.0671 17.5721 51.5872 17.5721 52.229V59.3216C17.5721 60.2453 18.6124 60.7337 19.3249 60.3308L27.3976 55.7617H31.3928L30.1313 58.2188C27.6746 58.5696 25.5254 60.5866 24.983 62.9809H21.1704C18.4519 62.9809 15.8635 65.2178 15.2716 67.8414C9.76174 68.3605 5.4375 72.9745 5.4375 78.5712C5.4375 79.2131 5.96219 79.7331 6.60938 79.7331H42.8845C43.5319 79.7331 44.0564 79.2131 44.0564 78.5712C44.0564 77.9293 43.5319 77.4092 42.8845 77.4092H7.86157C8.43439 73.2952 12.0046 70.1169 16.3172 70.1169C16.9644 70.1169 17.4891 69.5968 17.4891 68.9549C17.4891 67.1812 19.3813 65.3048 21.1704 65.3048H26.0235C26.6707 65.3048 27.1954 64.7848 27.1954 64.1429C27.1954 62.3045 29.0154 60.4972 30.8721 60.4885C30.874 60.4885 38.7112 60.5037 39.4126 60.5055V73.7871C39.4126 74.4289 39.9373 74.949 40.5845 74.949C41.2319 74.949 41.7564 74.4289 41.7564 73.7871V60.5109C44.9709 60.5171 50.2916 60.4888 50.2916 60.4888C50.2938 60.4888 50.296 60.4883 50.2981 60.4883C52.5686 60.4924 53.9738 62.3871 53.9738 64.1429C53.9738 64.7848 54.4983 65.3048 55.1457 65.3048H59.9988C61.7877 65.3048 63.6801 67.181 63.6801 68.9549C63.6801 69.5968 64.2141 70.1169 64.8615 70.1169C67.139 70.1169 69.2801 70.9964 70.8907 72.5932C72.2217 73.9127 73.0582 75.5916 73.3089 77.4092H47.9925C47.3452 77.4092 46.8206 77.9293 46.8206 78.5712C46.8206 79.2131 47.3452 79.7331 47.9925 79.7331H74.5598C75.2072 79.7331 75.7317 79.2131 75.7317 78.5712C75.7317 75.6923 74.6009 72.9856 72.5478 70.95ZM61.2535 43.0125V57.3202L55.1036 53.8392V37.7825L61.2535 43.0125ZM28.4093 23.4332C28.4093 19.4864 29.3967 15.7019 31.194 12.3603H38.0315C38.6787 12.3603 39.2034 11.8402 39.2034 11.1983C39.2034 10.5565 38.6787 10.0364 38.0315 10.0364H32.6251C34.6554 7.13398 37.3539 4.67561 40.5845 2.89349C43.7395 4.63487 46.4797 7.09355 48.5385 10.0364H43.1377C42.4903 10.0364 41.9658 10.5565 41.9658 11.1983C41.9658 11.8402 42.4903 12.3603 43.1377 12.3603H49.9714C51.7769 15.7147 52.7599 19.5047 52.7599 23.4332V48.5347H28.4096L28.4093 23.4332ZM28.4096 53.4378V50.8587H52.7599V53.4378H28.4096ZM32.7893 58.1644L34.0228 55.7617H47.1464L48.3802 58.1651C48.3802 58.1651 32.9293 58.1646 32.7893 58.1644Z" fill="black"/>
<path d="M34.5605 64.2298V70.6599C34.5605 71.3017 35.0852 71.8218 35.7324 71.8218C36.3796 71.8218 36.9043 71.3017 36.9043 70.6599V64.2298C36.9043 63.588 36.3796 63.0679 35.7324 63.0679C35.0852 63.0679 34.5605 63.5881 34.5605 64.2298Z" fill="black"/>
<path d="M45.4375 63.0679C44.7902 63.0679 44.2656 63.588 44.2656 64.2298V70.6599C44.2656 71.3017 44.7902 71.8218 45.4375 71.8218C46.0848 71.8218 46.6094 71.3017 46.6094 70.6599V64.2298C46.6094 63.5881 46.0848 63.0679 45.4375 63.0679Z" fill="black"/>
</g>
<defs>
<clipPath id="clip0">
<rect width="80" height="79.322" fill="white" transform="translate(0.585938 0.411377)"/>
</clipPath>
</defs>
</svg>
