<svg width="73" height="72" viewBox="0 0 73 72" fill="none" xmlns="http://www.w3.org/2000/svg">
<g clip-path="url(#clip0)">
<path d="M26.7383 59.3438H45.3008V70.5938H26.7383V59.3438Z" fill="#FFCD69"/>
<path d="M45.3008 59.3438H70.6133V70.5938H45.3008V59.3438Z" fill="#FAF7F5"/>
<path d="M1.42578 59.3438H26.7383V70.5938H1.42578V59.3438Z" fill="#FAF7F5"/>
<path d="M19.1445 64.9688H52.8945V70.5938H19.1445V64.9688Z" fill="#FFCD69"/>
<path d="M1.42578 42.4688H70.6133V59.3438H1.42578V42.4688Z" fill="#89A7BC"/>
<path d="M70.6133 14.3438V42.4688H53.7383V14.3438H70.6133Z" fill="#6E90AC"/>
<path d="M18.3008 14.3438V42.4688H1.42578V14.3438H18.3008Z" fill="#6E90AC"/>
<path d="M18.3008 14.3438L11.832 8.01562L18.3008 1.40625L24.7695 8.01562L18.3008 14.3438Z" fill="#FFCD69"/>
<path d="M53.7383 14.3438L47.2695 8.01562L53.7383 1.40625L60.207 8.01562L53.7383 14.3438Z" fill="#FFCD69"/>
<path d="M64.1445 53.7188C65.6978 53.7188 66.957 52.4596 66.957 50.9062C66.957 49.3529 65.6978 48.0938 64.1445 48.0938C62.5912 48.0938 61.332 49.3529 61.332 50.9062C61.332 52.4596 62.5912 53.7188 64.1445 53.7188Z" fill="#C193DC"/>
<path d="M62.1758 36.8438C63.7291 36.8438 64.9883 35.5846 64.9883 34.0312C64.9883 32.4779 63.7291 31.2188 62.1758 31.2188C60.6225 31.2188 59.3633 32.4779 59.3633 34.0312C59.3633 35.5846 60.6225 36.8438 62.1758 36.8438Z" fill="#C5D3DE"/>
<path d="M9.86328 36.8438C11.4166 36.8438 12.6758 35.5846 12.6758 34.0312C12.6758 32.4779 11.4166 31.2188 9.86328 31.2188C8.30998 31.2188 7.05078 32.4779 7.05078 34.0312C7.05078 35.5846 8.30998 36.8438 9.86328 36.8438Z" fill="#C5D3DE"/>
<path d="M62.1758 25.5938C63.7291 25.5938 64.9883 24.3346 64.9883 22.7812C64.9883 21.2279 63.7291 19.9688 62.1758 19.9688C60.6225 19.9688 59.3633 21.2279 59.3633 22.7812C59.3633 24.3346 60.6225 25.5938 62.1758 25.5938Z" fill="#C5D3DE"/>
<path d="M9.86328 25.5938C11.4166 25.5938 12.6758 24.3346 12.6758 22.7812C12.6758 21.2279 11.4166 19.9688 9.86328 19.9688C8.30998 19.9688 7.05078 21.2279 7.05078 22.7812C7.05078 24.3346 8.30998 25.5938 9.86328 25.5938Z" fill="#C5D3DE"/>
<path d="M52.8945 53.7188C54.4478 53.7188 55.707 52.4596 55.707 50.9062C55.707 49.3529 54.4478 48.0938 52.8945 48.0938C51.3412 48.0938 50.082 49.3529 50.082 50.9062C50.082 52.4596 51.3412 53.7188 52.8945 53.7188Z" fill="#33D6F5"/>
<path d="M41.6445 53.7188C43.1978 53.7188 44.457 52.4596 44.457 50.9062C44.457 49.3529 43.1978 48.0938 41.6445 48.0938C40.0912 48.0938 38.832 49.3529 38.832 50.9062C38.832 52.4596 40.0912 53.7188 41.6445 53.7188Z" fill="#FFCD69"/>
<path d="M30.3945 53.7188C31.9478 53.7188 33.207 52.4596 33.207 50.9062C33.207 49.3529 31.9478 48.0938 30.3945 48.0938C28.8412 48.0938 27.582 49.3529 27.582 50.9062C27.582 52.4596 28.8412 53.7188 30.3945 53.7188Z" fill="#C193DC"/>
<path d="M19.1445 53.7188C20.6978 53.7188 21.957 52.4596 21.957 50.9062C21.957 49.3529 20.6978 48.0938 19.1445 48.0938C17.5912 48.0938 16.332 49.3529 16.332 50.9062C16.332 52.4596 17.5912 53.7188 19.1445 53.7188Z" fill="#33D6F5"/>
<path d="M7.89453 53.7188C9.44783 53.7188 10.707 52.4596 10.707 50.9062C10.707 49.3529 9.44783 48.0938 7.89453 48.0938C6.34123 48.0938 5.08203 49.3529 5.08203 50.9062C5.08203 52.4596 6.34123 53.7188 7.89453 53.7188Z" fill="#FFCD69"/>
<path d="M47.2695 8.01562L18.3008 28.4062V42.4688H40.3789L53.7383 14.3438L47.2695 8.01562Z" fill="#CCF5FC"/>
<path d="M24.7695 8.01562L53.7383 28.4062V42.4688H31.6602L18.3008 14.3438L24.7695 8.01562Z" fill="#E0C9ED"/>
<path d="M70.6133 29.6719C71.3899 29.6719 72.0195 29.0423 72.0195 28.2656C72.0195 27.489 71.3899 26.8594 70.6133 26.8594C69.8366 26.8594 69.207 27.489 69.207 28.2656C69.207 29.0423 69.8366 29.6719 70.6133 29.6719Z" fill="#666666"/>
<path d="M70.6133 23.3438C71.3895 23.3438 72.0195 22.7123 72.0195 21.9375V14.3438C72.0195 13.9739 71.8691 13.6111 71.6075 13.3495C71.3459 13.088 70.9831 12.9375 70.6133 12.9375H57.1864L61.19 9.02109C61.4572 8.75953 61.6091 8.40375 61.6133 8.03109C61.6175 7.65844 61.4727 7.29844 61.2125 7.03266L54.7437 0.423281C54.4794 0.151875 54.1166 0 53.7383 0C53.36 0 52.9972 0.151875 52.7328 0.423281L46.3583 6.93703L36.0195 14.2144L25.6808 6.93703L19.3062 0.423281C19.0419 0.151875 18.6791 0 18.3008 0C17.9225 0 17.5597 0.151875 17.2953 0.423281L10.8266 7.03266C10.5664 7.29844 10.4216 7.65844 10.4258 8.03109C10.43 8.40375 10.5819 8.75953 10.8491 9.02109L14.8527 12.9375H1.42578C0.649531 12.9375 0.0195312 13.5675 0.0195312 14.3438V70.5938C0.0195312 71.37 0.649531 72 1.42578 72H70.6133C71.3895 72 72.0195 71.37 72.0195 70.5938V34.5938C72.0195 33.8189 71.3881 33.1875 70.6133 33.1875C69.8384 33.1875 69.2084 33.8175 69.207 34.5923V41.0625H55.1445V15.75H69.207V21.9375C69.207 22.7123 69.8384 23.3438 70.6133 23.3438ZM47.1219 9.83953L52.0367 14.6475L48.178 22.7714L38.4636 15.9342L47.1219 9.83953ZM52.332 20.5805V25.6964L50.5109 24.4139L52.332 20.5805ZM52.332 29.1361V41.0625H32.5489L20.0023 14.6475L24.9172 9.83953L52.332 29.1361ZM22.753 26.993L29.4355 41.0625H19.707V29.1361L22.753 26.993ZM19.707 25.6964V20.5805L21.5281 24.4139L19.707 25.6964ZM13.8205 7.99453L18.3008 3.41719L22.7811 7.99453L18.3008 12.3764L13.8205 7.99453ZM2.83203 15.75H16.8945V41.0625H2.83203V15.75ZM17.7383 64.9688V69.1875H2.83203V60.75H25.332V63.5625H19.1445C18.3683 63.5625 17.7383 64.1925 17.7383 64.9688ZM51.4883 69.1875H20.5508V66.375H51.4883V69.1875ZM28.1445 63.5625V60.75H43.8945V63.5625H28.1445ZM69.207 69.1875H54.3008V64.9688C54.3008 64.1925 53.6708 63.5625 52.8945 63.5625H46.707V60.75H69.207V69.1875ZM69.207 43.875V57.9375H2.83203V43.875H69.207ZM53.7383 12.3764L49.258 7.99453L53.7383 3.41719L58.2186 7.99453L53.7383 12.3764Z" fill="#666666"/>
<path d="M7.05078 66.375C7.82743 66.375 8.45703 65.7454 8.45703 64.9688C8.45703 64.1921 7.82743 63.5625 7.05078 63.5625C6.27413 63.5625 5.64453 64.1921 5.64453 64.9688C5.64453 65.7454 6.27413 66.375 7.05078 66.375Z" fill="#666666"/>
<path d="M64.9883 66.375C65.7649 66.375 66.3945 65.7454 66.3945 64.9688C66.3945 64.1921 65.7649 63.5625 64.9883 63.5625C64.2116 63.5625 63.582 64.1921 63.582 64.9688C63.582 65.7454 64.2116 66.375 64.9883 66.375Z" fill="#666666"/>
<path d="M64.1445 55.125C66.4705 55.125 68.3633 53.2322 68.3633 50.9062C68.3633 48.5803 66.4705 46.6875 64.1445 46.6875C61.8186 46.6875 59.9258 48.5803 59.9258 50.9062C59.9258 53.2322 61.8186 55.125 64.1445 55.125ZM64.1445 49.5C64.9194 49.5 65.5508 50.1314 65.5508 50.9062C65.5508 51.6811 64.9194 52.3125 64.1445 52.3125C63.3697 52.3125 62.7383 51.6811 62.7383 50.9062C62.7383 50.1314 63.3697 49.5 64.1445 49.5Z" fill="#666666"/>
<path d="M62.1758 29.8125C59.8498 29.8125 57.957 31.7053 57.957 34.0312C57.957 36.3572 59.8498 38.25 62.1758 38.25C64.5017 38.25 66.3945 36.3572 66.3945 34.0312C66.3945 31.7053 64.5017 29.8125 62.1758 29.8125ZM62.1758 35.4375C61.4009 35.4375 60.7695 34.8061 60.7695 34.0312C60.7695 33.2564 61.4009 32.625 62.1758 32.625C62.9506 32.625 63.582 33.2564 63.582 34.0312C63.582 34.8061 62.9506 35.4375 62.1758 35.4375Z" fill="#666666"/>
<path d="M9.86328 29.8125C7.53734 29.8125 5.64453 31.7053 5.64453 34.0312C5.64453 36.3572 7.53734 38.25 9.86328 38.25C12.1892 38.25 14.082 36.3572 14.082 34.0312C14.082 31.7053 12.1892 29.8125 9.86328 29.8125ZM9.86328 35.4375C9.08844 35.4375 8.45703 34.8061 8.45703 34.0312C8.45703 33.2564 9.08844 32.625 9.86328 32.625C10.6381 32.625 11.2695 33.2564 11.2695 34.0312C11.2695 34.8061 10.6381 35.4375 9.86328 35.4375Z" fill="#666666"/>
<path d="M62.1758 18.5625C59.8498 18.5625 57.957 20.4553 57.957 22.7812C57.957 25.1072 59.8498 27 62.1758 27C64.5017 27 66.3945 25.1072 66.3945 22.7812C66.3945 20.4553 64.5017 18.5625 62.1758 18.5625ZM62.1758 24.1875C61.4009 24.1875 60.7695 23.5561 60.7695 22.7812C60.7695 22.0064 61.4009 21.375 62.1758 21.375C62.9506 21.375 63.582 22.0064 63.582 22.7812C63.582 23.5561 62.9506 24.1875 62.1758 24.1875Z" fill="#666666"/>
<path d="M9.86328 18.5625C7.53734 18.5625 5.64453 20.4553 5.64453 22.7812C5.64453 25.1072 7.53734 27 9.86328 27C12.1892 27 14.082 25.1072 14.082 22.7812C14.082 20.4553 12.1892 18.5625 9.86328 18.5625ZM9.86328 24.1875C9.08844 24.1875 8.45703 23.5561 8.45703 22.7812C8.45703 22.0064 9.08844 21.375 9.86328 21.375C10.6381 21.375 11.2695 22.0064 11.2695 22.7812C11.2695 23.5561 10.6381 24.1875 9.86328 24.1875Z" fill="#666666"/>
<path d="M48.6758 50.9062C48.6758 53.2322 50.5686 55.125 52.8945 55.125C55.2205 55.125 57.1133 53.2322 57.1133 50.9062C57.1133 48.5803 55.2205 46.6875 52.8945 46.6875C50.5686 46.6875 48.6758 48.5803 48.6758 50.9062ZM54.3008 50.9062C54.3008 51.6811 53.6694 52.3125 52.8945 52.3125C52.1197 52.3125 51.4883 51.6811 51.4883 50.9062C51.4883 50.1314 52.1197 49.5 52.8945 49.5C53.6694 49.5 54.3008 50.1314 54.3008 50.9062Z" fill="#666666"/>
<path d="M41.6445 46.6875C39.3186 46.6875 37.4258 48.5803 37.4258 50.9062C37.4258 53.2322 39.3186 55.125 41.6445 55.125C43.9705 55.125 45.8633 53.2322 45.8633 50.9062C45.8633 48.5803 43.9705 46.6875 41.6445 46.6875ZM41.6445 52.3125C40.8697 52.3125 40.2383 51.6811 40.2383 50.9062C40.2383 50.1314 40.8697 49.5 41.6445 49.5C42.4194 49.5 43.0508 50.1314 43.0508 50.9062C43.0508 51.6811 42.4194 52.3125 41.6445 52.3125Z" fill="#666666"/>
<path d="M30.3945 46.6875C28.0686 46.6875 26.1758 48.5803 26.1758 50.9062C26.1758 53.2322 28.0686 55.125 30.3945 55.125C32.7205 55.125 34.6133 53.2322 34.6133 50.9062C34.6133 48.5803 32.7205 46.6875 30.3945 46.6875ZM30.3945 52.3125C29.6197 52.3125 28.9883 51.6811 28.9883 50.9062C28.9883 50.1314 29.6197 49.5 30.3945 49.5C31.1694 49.5 31.8008 50.1314 31.8008 50.9062C31.8008 51.6811 31.1694 52.3125 30.3945 52.3125Z" fill="#666666"/>
<path d="M19.1445 46.6875C16.8186 46.6875 14.9258 48.5803 14.9258 50.9062C14.9258 53.2322 16.8186 55.125 19.1445 55.125C21.4705 55.125 23.3633 53.2322 23.3633 50.9062C23.3633 48.5803 21.4705 46.6875 19.1445 46.6875ZM19.1445 52.3125C18.3697 52.3125 17.7383 51.6811 17.7383 50.9062C17.7383 50.1314 18.3697 49.5 19.1445 49.5C19.9194 49.5 20.5508 50.1314 20.5508 50.9062C20.5508 51.6811 19.9194 52.3125 19.1445 52.3125Z" fill="#666666"/>
<path d="M7.89453 46.6875C5.56859 46.6875 3.67578 48.5803 3.67578 50.9062C3.67578 53.2322 5.56859 55.125 7.89453 55.125C10.2205 55.125 12.1133 53.2322 12.1133 50.9062C12.1133 48.5803 10.2205 46.6875 7.89453 46.6875ZM7.89453 52.3125C7.11969 52.3125 6.48828 51.6811 6.48828 50.9062C6.48828 50.1314 7.11969 49.5 7.89453 49.5C8.66937 49.5 9.30078 50.1314 9.30078 50.9062C9.30078 51.6811 8.66937 52.3125 7.89453 52.3125Z" fill="#666666"/>
</g>
<defs>
<clipPath id="clip0">
<rect width="72" height="72" fill="white" transform="translate(0.0195312)"/>
</clipPath>
</defs>
</svg>
