<svg width="73" height="72" viewBox="0 0 73 72" fill="none" xmlns="http://www.w3.org/2000/svg">
<g clip-path="url(#clip0)">
<path d="M37.3771 61.4273C40.6747 59.6792 42.3831 58.1917 42.3831 55.8874C42.3831 52.7089 38.4895 51.9143 37.3771 54.2982C36.1057 51.835 32.3711 52.7091 32.3711 55.8874C32.3711 58.1917 34.0795 59.679 37.3771 61.4273Z" fill="#F7F3F1"/>
<path d="M62.2712 0H59.1756C57.8148 0 57.8148 2.10968 59.1756 2.10968H62.2712C65.4681 2.10968 68.069 4.70121 68.069 7.88655V32.2986C68.069 35.4841 65.4682 38.0756 62.2712 38.0756H58.7603C58.5286 38.0756 58.3034 38.1519 58.1193 38.2927L51.6769 43.2206V39.1305C51.6769 38.5479 51.2048 38.0756 50.6221 38.0756H37.784C36.7327 38.0756 35.7223 37.7982 34.8311 37.2706V25.4294C34.8311 23.2114 33.7015 21.2518 31.986 20.0925V7.88655C31.986 4.70121 34.587 2.10968 37.784 2.10968H52.5652C53.9259 2.10968 53.9259 0 52.5652 0H37.784C33.4237 0 29.8763 3.53793 29.8763 7.88655V19.1653C29.3934 19.05 28.8901 18.9871 28.3723 18.9871H9.06223C5.50095 18.9871 2.60352 21.8771 2.60352 25.4294V27.7071C2.60352 29.0677 4.7132 29.0677 4.7132 27.7071V25.4294C4.7132 23.0404 6.66409 21.0968 9.06223 21.0968H28.3724C30.7706 21.0968 32.7216 23.0404 32.7216 25.4294V37.6906C32.7089 37.7837 32.7095 37.8775 32.7216 37.9699V44.6804C32.7216 44.813 32.7136 44.945 32.7016 45.0764H30.5263C28.1292 45.0764 26.131 46.8065 25.7166 49.0803C25.6207 49.1164 25.5286 49.1669 25.4432 49.2328L20.7252 52.8756V50.0678C20.7252 49.4852 20.2531 49.0129 19.6704 49.0129H9.06223C6.66409 49.0129 4.7132 47.0694 4.7132 44.6804V34.0362C4.7132 32.6756 2.60352 32.6756 2.60352 34.0362V44.6805C2.60352 48.2328 5.50095 51.1228 9.06223 51.1228H18.6157V55.0228C18.6157 55.869 19.6431 56.3766 20.3153 55.8579L25.6366 51.7492V63.6161C25.6366 66.306 27.8302 68.4941 30.5264 68.4941H36.9996V70.9556C36.9996 71.8014 38.027 72.3096 38.699 71.7906L42.9685 68.4941H44.2298C46.9259 68.4941 49.1196 66.3058 49.1196 63.6161V61.7433C49.1196 60.3827 47.0099 60.3827 47.0099 61.7433V63.6161C47.0099 65.1427 45.7628 66.3845 44.2298 66.3845H42.6085C42.3752 66.3845 42.1485 66.4618 41.964 66.6043L39.1091 68.8083V67.4392C39.1091 66.8566 38.637 66.3843 38.0543 66.3843H30.5263C28.9934 66.3843 27.7461 65.1424 27.7461 63.616V49.9546C27.7461 48.428 28.9932 47.1862 30.5263 47.1862H44.2298C45.7627 47.1862 47.0099 48.4281 47.0099 49.9546V55.133C47.0099 56.4936 49.1196 56.4936 49.1196 55.133V49.9547C49.1196 47.2649 46.9259 45.0767 44.2298 45.0767H34.8192C34.8272 44.9449 34.8313 39.6171 34.8313 39.6171C35.7614 39.9911 36.7585 40.1855 37.7841 40.1855H49.5674V45.3556C49.5674 46.1996 50.5904 46.7078 51.2632 46.1934L59.1176 40.1855H62.2713C66.6315 40.1855 70.1788 36.6475 70.1788 32.2988V7.88655C70.1787 3.53793 66.6313 0 62.2712 0V0Z" fill="black"/>
<path d="M52.6622 7.7936C51.3228 7.45169 49.958 8.50991 49.958 9.89386C49.958 11.4059 49.407 12.8632 48.4071 13.9963L45.5008 17.2851C45.3126 16.9963 44.9875 16.8052 44.6171 16.8052H38.9435C38.3608 16.8052 37.8887 17.2775 37.8887 17.86V30.6257C37.8887 31.2082 38.3608 31.6805 38.9435 31.6805H44.6171C45.0434 31.6805 45.4097 31.4272 45.5761 31.0635C46.7247 31.7653 48.0558 32.1448 49.4101 32.1448H59.4369C60.9691 32.1448 62.2331 30.8153 62.1612 29.287C62.1293 28.6102 62.1642 19.5227 62.1642 19.3209C62.1642 17.8171 60.9407 16.5935 59.44 16.5935L54.2259 16.5779L54.4418 16.0666C55.4284 13.7301 55.266 11.0207 54.0078 8.81862C53.7141 8.30414 53.236 7.94029 52.6622 7.7936C52.0881 7.64705 53.236 7.94029 52.6622 7.7936C51.323 7.45169 53.236 7.94029 52.6622 7.7936V7.7936ZM43.5623 29.5708H39.9984V18.9148H43.5623V29.5708ZM59.4369 18.703C59.7776 18.703 60.0547 18.9801 60.0547 19.3208C60.0547 19.5215 60.0526 20.0662 60.0497 20.8047C60.0341 24.8823 60.0237 28.7441 60.0538 29.386C60.0648 29.6177 59.9521 29.7721 59.8841 29.8436C59.7662 29.967 59.6074 30.035 59.4369 30.035H49.4101C48.2149 30.035 47.0451 29.6208 46.116 28.8687L45.672 28.5093V20.2771L49.9885 15.3927C51.3293 13.8731 52.0677 11.9203 52.0677 9.89372C52.0677 9.83408 52.1491 9.81861 52.1761 9.86502C53.1103 11.4997 53.2307 13.5111 52.4983 15.2457L51.6659 17.2174C51.5285 17.5427 51.5631 17.915 51.7576 18.2095C51.9524 18.504 52.2815 18.6815 52.6344 18.6826L59.4369 18.703Z" fill="black"/>
<path d="M11.6349 36.638C11.0522 36.638 10.5801 37.1102 10.5801 37.6928C10.5801 38.2754 11.0522 38.7476 11.6349 38.7476H14.7443L14.1634 42.2608C14.0684 42.8355 14.4574 43.3785 15.0321 43.4736C15.0904 43.4833 15.1482 43.4879 15.2053 43.4879C15.7122 43.4879 16.1593 43.1216 16.2448 42.605L16.8825 38.7478H19.4272L18.8464 42.261C18.7513 42.8356 19.1403 43.3787 19.715 43.4737C19.7734 43.4834 19.8312 43.4881 19.8883 43.4881C20.3952 43.4881 20.8423 43.1217 20.9278 42.6051L21.5655 38.7479H25.7979C26.3806 38.7479 26.8527 38.2756 26.8527 37.6931C26.8527 37.1105 26.3806 36.6382 25.7979 36.6382H21.9143L22.3397 34.065H25.7979C26.3806 34.065 26.8527 33.5927 26.8527 33.0102C26.8527 32.4276 26.3806 31.9553 25.7979 31.9553H22.6885L23.2694 28.4421C23.3645 27.8675 22.9754 27.3244 22.4008 27.2294C21.8254 27.134 21.283 27.5233 21.188 28.098L20.5503 31.9552H18.0056L18.5865 28.442C18.6815 27.8673 18.2925 27.3243 17.7178 27.2292C17.1417 27.1339 16.6003 27.5232 16.505 28.0978L15.8674 31.955H11.6349C11.0522 31.955 10.5801 32.4273 10.5801 33.0099C10.5801 33.5924 11.0522 34.0647 11.6349 34.0647H15.5186L15.0931 36.638H11.6349ZM17.6569 34.0647H20.2016L19.7762 36.638H17.2315L17.6569 34.0647Z" fill="black"/>
<path d="M37.3646 52.629C36.5128 51.9277 35.3797 51.6511 34.243 51.9275C32.7863 52.2812 31.3164 53.6429 31.3164 55.8875C31.3164 57.2845 31.8262 58.4971 32.875 59.5947C33.7317 60.4914 34.968 61.3439 36.8833 62.3594C37.0379 62.4414 37.2076 62.4823 37.3774 62.4823C37.5471 62.4823 37.7169 62.4414 37.8715 62.3594C41.2129 60.588 43.4382 58.8095 43.4382 55.8875C43.4382 53.6307 41.9162 52.2829 40.4076 51.9483C39.2743 51.6968 38.1755 51.9637 37.3646 52.629V52.629ZM41.3284 55.8875C41.3284 57.4635 40.283 58.6291 37.3772 60.2286C34.4715 58.6289 33.4259 57.4634 33.4259 55.8875C33.4259 54.7148 34.105 54.1319 34.7406 53.9775C34.8577 53.9491 34.9832 53.9331 35.1121 53.9331C35.5902 53.9331 36.1158 54.1539 36.4398 54.7821C36.6245 55.1397 36.9978 55.3613 37.3982 55.353C37.8003 55.345 38.163 55.109 38.3331 54.7444C38.6744 54.0128 39.3923 53.8841 39.9503 54.008C40.6167 54.1556 41.3284 54.727 41.3284 55.8875V55.8875Z" fill="black"/>
</g>
<defs>
<clipPath id="clip0">
<rect width="72" height="72" fill="white" transform="translate(0.390625)"/>
</clipPath>
</defs>
</svg>
