<svg width="66" height="65" viewBox="0 0 66 65" fill="none" xmlns="http://www.w3.org/2000/svg">
<g clip-path="url(#clip0)">
<path d="M6.47018 11.8179H0.561035V59.0906C0.561035 62.3553 3.20531 64.9997 6.47018 64.9997H53.7429V59.0906H6.47018V11.8179Z" fill="#005ca9"/>
<path d="M47.8338 35.4543V29.5452C47.8338 26.2804 45.1895 23.636 41.9246 23.636H36.0156V17.727H47.8338V11.8179H30.1064V29.5452H41.9246V35.4543H30.1064V41.3634H41.9246C45.1895 41.3634 47.8338 38.719 47.8338 35.4543Z" fill="#005ca9"/>
<path d="M59.6518 0H18.288C15.0233 0 12.3789 2.64427 12.3789 5.90914V47.2729C12.3789 50.5376 15.0233 53.1819 18.288 53.1819H59.6518C62.9165 53.1819 65.5609 50.5376 65.5609 47.2727V5.90914C65.5608 2.64427 62.9165 0 59.6518 0ZM59.6518 47.2727H18.288V5.90914H59.6518V47.2727Z" fill="#005ca9"/>
</g>
<defs>
<clipPath id="clip0">
<rect width="65" height="65" fill="white" transform="translate(0.561035)"/>
</clipPath>
</defs>
</svg>
