<svg width="48" height="48" viewBox="0 0 48 48" fill="none" xmlns="http://www.w3.org/2000/svg">
<path fill-rule="evenodd" clip-rule="evenodd" d="M46.899 11.896C47.231 10.804 46.899 10 45.3091 10H40.0592C38.7232 10 38.1072 10.694 37.7732 11.46C37.7732 11.46 35.1033 17.8518 31.3213 22.0037C30.0974 23.2077 29.5414 23.5897 28.8734 23.5897C28.5394 23.5897 28.0374 23.2077 28.0374 22.1137V11.896C28.0374 10.584 27.6694 10 26.5574 10H18.3016C17.4676 10 16.9656 10.608 16.9656 11.186C16.9656 12.4279 18.8576 12.7159 19.0516 16.2119V23.8077C19.0516 25.4737 18.7456 25.7757 18.0776 25.7757C16.2977 25.7757 11.9677 19.3538 9.3978 12.006C8.89981 10.576 8.39582 10 7.05385 10H1.79996C0.299994 10 0 10.694 0 11.46C0 12.8239 1.77996 19.5998 8.28983 28.5616C12.6297 34.6815 18.7396 37.9994 24.3055 37.9994C27.6434 37.9994 28.0554 37.2634 28.0554 35.9935V31.3675C28.0554 29.8936 28.3714 29.5996 29.4294 29.5996C30.2094 29.5996 31.5433 29.9836 34.6593 32.9335C38.2192 36.4314 38.8052 37.9994 40.8091 37.9994H46.059C47.559 37.9994 48.311 37.2634 47.879 35.8075C47.403 34.3595 45.703 32.2575 43.4491 29.7636C42.2251 28.3436 40.3892 26.8136 39.8312 26.0477C39.0532 25.0657 39.2752 24.6277 39.8312 23.7537C39.8312 23.7537 46.231 14.9019 46.897 11.896H46.899Z" fill="black"/>
</svg>
