<svg width="33" height="32" viewBox="0 0 33 32" fill="none" xmlns="http://www.w3.org/2000/svg">
<path fill-rule="evenodd" clip-rule="evenodd" d="M16.5938 0C7.75719 0 0.59375 7.16344 0.59375 16C0.59375 24.8366 7.75719 32 16.5938 32C25.4303 32 32.5938 24.8366 32.5938 16C32.5938 7.16344 25.4303 0 16.5938 0ZM17.8965 21.0508C17.7387 21.2171 17.4307 21.2507 17.4307 21.2507H16.4107C16.4107 21.2507 14.1602 21.3834 12.1778 19.3579C10.0158 17.1481 8.10678 12.7637 8.10678 12.7637C8.10678 12.7637 7.99659 12.4761 8.11596 12.3376C8.25035 12.1811 8.6168 12.1713 8.6168 12.1713L11.055 12.1557C11.055 12.1557 11.2846 12.1926 11.449 12.3114C11.5851 12.4097 11.6611 12.5924 11.6611 12.5924C11.6611 12.5924 12.0551 13.5707 12.5768 14.4557C13.596 16.1837 14.0701 16.5614 14.4157 16.3763C14.9199 16.1067 14.7688 13.9337 14.7688 13.9337C14.7688 13.9337 14.778 13.1455 14.515 12.794C14.3113 12.5219 13.9274 12.4425 13.7579 12.4203C13.6202 12.4023 13.8456 12.0893 14.1377 11.9492C14.5768 11.7386 15.3514 11.7263 16.2671 11.7354C16.9808 11.7427 17.1862 11.7862 17.465 11.8525C18.112 12.0058 18.0918 12.497 18.0482 13.5571C18.0352 13.8741 18.02 14.2421 18.02 14.6671C18.02 14.7626 18.0172 14.8644 18.0143 14.9691C17.9992 15.5122 17.9818 16.1341 18.3464 16.3656C18.5334 16.4836 18.99 16.3828 20.1328 14.4786C20.6745 13.5757 21.0802 12.5146 21.0802 12.5146C21.0802 12.5146 21.1695 12.3253 21.3072 12.2442C21.4483 12.1614 21.6386 12.1868 21.6386 12.1868L24.2046 12.1713C24.2046 12.1713 24.9759 12.0803 25.1002 12.4228C25.2313 12.7809 24.8123 13.6183 23.7638 14.9899C22.7693 16.2914 22.2853 16.7705 22.3298 17.1943C22.3622 17.504 22.6768 17.784 23.2805 18.3337C24.5408 19.4823 24.8786 20.0866 24.9598 20.2317C24.9665 20.2438 24.9714 20.2527 24.975 20.2584C25.5401 21.1786 24.3481 21.2507 24.3481 21.2507L22.0685 21.2818C22.0685 21.2818 21.5793 21.3769 20.9349 20.9426C20.5974 20.7153 20.2675 20.3441 19.9533 19.9905C19.4735 19.4505 19.0303 18.9517 18.6519 19.0695C18.0167 19.2678 18.0359 20.6108 18.0359 20.6108C18.0359 20.6108 18.0409 20.8984 17.8965 21.0508Z" fill="#0A1124"/>
</svg>
