<svg width="72" height="72" viewBox="0 0 72 72" fill="none" xmlns="http://www.w3.org/2000/svg">
<path fill-rule="evenodd" clip-rule="evenodd" d="M35.9995 9.30785C38.3351 9.31517 46.6338 9.65619 50.6314 12.3353C49.38 7.6646 45.3609 1.40381 35.9995 1.40381C26.6382 1.40381 22.6191 7.6646 21.3677 12.3352C25.3653 9.65619 33.664 9.31517 35.9995 9.30785Z" fill="#FF764E"/>
<path fill-rule="evenodd" clip-rule="evenodd" d="M50.6316 12.3351C46.6338 9.6561 38.3352 9.31493 35.9997 9.30762C33.6642 9.31493 25.3657 9.65595 21.3679 12.3351C20.3288 13.0315 19.5802 13.8858 19.3024 14.9332C18.3784 18.4178 18.4327 18.7403 18.7259 19.063C18.8887 19.2422 19.2829 19.4515 19.7651 19.1954C19.7807 19.1871 19.7966 19.1782 19.8124 19.1689C21.322 18.2813 23.5386 17.6425 25.9539 17.1986C29.3874 16.5674 33.2225 16.3296 35.9996 16.3296C38.7767 16.3296 42.612 16.5674 46.0453 17.1986C48.4606 17.6425 50.6772 18.2813 52.1868 19.1689C52.2027 19.1782 52.2185 19.1871 52.2341 19.1954C52.7163 19.4515 53.1106 19.2422 53.2733 19.063C53.5667 18.7403 53.621 18.4178 52.6969 14.9332C52.4193 13.8856 51.6707 13.0313 50.6316 12.3351Z" fill="#FF764E"/>
<path fill-rule="evenodd" clip-rule="evenodd" d="M22.3507 23.7391C25.3354 23.7391 24.2065 19.118 25.9541 17.1987C23.5388 17.6427 21.3222 18.2814 19.8126 19.1691C19.7967 19.1784 19.781 19.1872 19.7653 19.1955C19.5613 20.8617 19.6249 22.8073 19.7727 24.5847C20.3287 24.061 21.0764 23.7391 21.8959 23.7391H22.3507Z" fill="#C68A65"/>
<path fill-rule="evenodd" clip-rule="evenodd" d="M25.954 17.1985C24.2065 19.1178 25.3352 23.7389 22.3505 23.7389H21.8956C21.0763 23.7389 20.3284 24.0609 19.7724 24.5845C19.1706 25.1512 18.7935 25.9542 18.7935 26.8409C18.7935 28.547 20.1893 29.943 21.8956 29.943H22.3505C22.3505 37.4501 27.6697 43.5922 35.9997 43.5922C44.3298 43.5922 49.649 37.4501 49.649 29.943H50.1039C51.8102 29.943 53.206 28.547 53.206 26.8409C53.206 25.9541 52.8289 25.1511 52.2271 24.5845C51.6711 24.0608 50.9232 23.7389 50.1039 23.7389H49.649C46.6643 23.7389 47.793 19.1178 46.0455 17.1985C42.612 16.5674 38.777 16.3296 35.9998 16.3296C33.2227 16.3296 29.3875 16.5674 25.954 17.1985Z" fill="#FFDCD5"/>
<path fill-rule="evenodd" clip-rule="evenodd" d="M46.0454 17.1987C47.793 19.118 46.6642 23.7391 49.6489 23.7391H50.1038C50.9231 23.7391 51.671 24.0611 52.227 24.5847C52.3748 22.8073 52.4383 20.8617 52.2343 19.1955C52.2187 19.1872 52.2028 19.1784 52.1871 19.1691C50.6773 18.2816 48.4609 17.6428 46.0454 17.1987Z" fill="#C68A65"/>
<path fill-rule="evenodd" clip-rule="evenodd" d="M41.6248 42.5244C39.9601 43.2118 38.0731 43.5923 35.9997 43.5923C33.9262 43.5923 32.0393 43.2118 30.3745 42.5244V43.0093V47.1189V49.9316C32.0847 50.919 34.0248 51.4389 35.9997 51.4389C37.9745 51.4389 39.9146 50.919 41.6248 49.9316V47.1189V45.2338V42.5244Z" fill="#FFDCD5"/>
<path fill-rule="evenodd" clip-rule="evenodd" d="M41.6248 49.9316C39.9146 50.919 37.9745 51.4389 35.9997 51.4389C34.0248 51.4389 32.0847 50.919 30.3745 49.9316V55.5569C32.0847 56.5444 34.0248 57.0642 35.9997 57.0642C37.9745 57.0642 39.9146 56.5444 41.6248 55.5569V49.9316Z" fill="#E6D5CF"/>
<path fill-rule="evenodd" clip-rule="evenodd" d="M41.6248 55.5566C39.9146 56.5441 37.9745 57.0639 35.9997 57.0639C34.0248 57.0639 32.0847 56.5441 30.3745 55.5566V70.5931H35.9997H41.6248V55.5566Z" fill="#F0E6E2"/>
<path fill-rule="evenodd" clip-rule="evenodd" d="M30.3748 70.5933V55.5567V49.9314V47.1187L26.3057 50.1749L23.349 58.3962L25.8803 60.8854L22.1255 64.0073L27.0194 70.5933H30.3748Z" fill="#B278D3"/>
<path fill-rule="evenodd" clip-rule="evenodd" d="M22.125 64.0072L25.8798 60.8852L23.3485 58.3961L26.3052 50.1748L19.1243 52.3112C12.8189 54.1871 10.6865 57.1352 10.6865 63.2522V70.5931H27.0187L22.125 64.0072Z" fill="#B278D3"/>
<path fill-rule="evenodd" clip-rule="evenodd" d="M41.625 55.5567V70.5933H44.9805L49.8744 64.0073L46.1196 60.8854L48.6509 58.3962L45.6942 50.1749L41.625 47.1187V49.9314V55.5567Z" fill="#B278D3"/>
<path fill-rule="evenodd" clip-rule="evenodd" d="M48.6509 58.3961L46.1196 60.8852L49.8744 64.0072L44.9805 70.5931H61.3127V63.2522C61.3127 57.1352 59.1805 54.1871 52.8749 52.3112L45.694 50.1748L48.6509 58.3961Z" fill="#B278D3"/>
<path d="M35.9998 10.7144C37.8656 10.64 37.8642 7.97554 35.9998 7.90186H35.9988C34.1331 7.97639 34.1355 10.641 35.9998 10.7144Z" fill="black"/>
<path d="M53.2759 50.9638L46.3368 48.8994L43.0311 46.4167V43.4233C44.5034 42.7 45.831 41.7376 46.9632 40.5561C49.3163 38.1009 50.7267 34.8379 51.0043 31.2593C54.2157 30.6446 55.7225 26.681 53.6751 24.093C53.7712 22.7282 53.7949 21.5225 53.7463 20.4502C53.9672 20.3305 54.16 20.1787 54.314 20.0093C55.1914 19.0439 54.9676 18.01 54.0562 14.5731C53.7423 13.3895 53.0047 12.357 51.8495 11.479C51.2131 9.35792 49.8871 6.39206 47.1549 3.94343C41.6535 -1.3144 30.3455 -1.31455 24.8441 3.94343C22.112 6.39206 20.786 9.35778 20.1496 11.4787C18.9944 12.3568 18.2568 13.3892 17.9429 14.5731C17.0315 18.0101 16.8077 19.044 17.6848 20.0091C17.8388 20.1786 18.0317 20.3305 18.2527 20.4502C18.204 21.5225 18.2278 22.7281 18.324 24.0929C16.2759 26.6816 17.7845 30.6452 20.9947 31.2593C21.2724 34.8379 22.6828 38.1009 25.0358 40.5561C26.1681 41.7376 27.4956 42.7 28.968 43.4233V46.4164L25.6623 48.8992L18.7231 50.9637C11.9278 52.9853 9.28027 56.4307 9.28027 63.2525V70.5935C9.28027 71.37 9.91001 71.9998 10.6866 71.9998H61.3125C62.0891 71.9998 62.7188 71.37 62.7188 70.5935V63.2525C62.7188 56.4309 60.0713 52.9853 53.2759 50.9638ZM12.0929 63.2527C12.0929 57.6645 13.8988 55.3336 19.5252 53.6597L24.0407 52.3164L22.025 57.9209C21.8394 58.4372 21.971 59.0145 22.3623 59.3994L23.785 60.7985L21.2259 62.9264C20.6515 63.404 20.5507 64.247 20.9962 64.8464L24.2218 69.1873H12.0929V63.2527ZM28.968 69.1873H27.7259L24.0478 64.2378L26.7787 61.9672C27.0843 61.7131 27.2681 61.3415 27.2847 60.9445C27.3013 60.5474 27.149 60.1619 26.8658 59.8832L24.9764 58.0253L27.4861 51.0472L28.968 49.9341V69.1873ZM31.7806 52.1205C34.4794 53.0841 37.5197 53.0839 40.2185 52.1205V54.7079C37.5927 55.9702 34.4066 55.9702 31.7806 54.7079V52.1205ZM50.907 20.08C50.9572 20.773 50.9697 21.552 50.9445 22.4115C50.672 22.3599 50.391 22.3329 50.1037 22.3329H49.6488C49.3397 22.3329 49.255 22.2638 49.1245 22.026C48.8864 21.5925 48.739 20.8337 48.5966 20.0998C48.5382 19.7992 48.4779 19.4891 48.4079 19.177C49.356 19.44 50.2042 19.7405 50.907 20.08ZM35.9995 2.81024C42.9627 2.81024 46.3925 6.49823 48.0436 9.59024C46.4864 9.07328 44.6383 8.66701 42.5026 8.37281C41.7329 8.26551 41.0234 8.80468 40.9175 9.57406C40.8115 10.3436 41.3494 11.0532 42.1188 11.1591C47.4763 11.8968 50.8364 13.4041 51.3377 15.2941C51.5731 16.1818 51.7513 16.8935 51.8715 17.4255C43.5057 14.06 28.5204 14.0513 20.1275 17.4255C20.2478 16.8934 20.4261 16.1818 20.6615 15.2941C21.1627 13.4041 24.5225 11.897 29.8793 11.1592C30.6487 11.0533 31.1866 10.3437 31.0806 9.5742C30.9747 8.80468 30.2663 8.26537 29.4955 8.37295C27.3601 8.66701 25.5124 9.07328 23.9555 9.59009C25.6066 6.49809 29.0362 2.81024 35.9995 2.81024ZM21.0547 22.4115C21.0295 21.552 21.042 20.773 21.0923 20.0799C21.795 19.7404 22.6432 19.4399 23.5912 19.1769C23.5212 19.4891 23.4609 19.7992 23.4025 20.0998C23.26 20.8337 23.1125 21.5925 22.8746 22.026C22.7441 22.2637 22.6594 22.3329 22.3502 22.3329H21.8954C21.6082 22.3329 21.3271 22.3599 21.0547 22.4115ZM23.7566 29.9433C23.7566 29.1668 23.1269 28.537 22.3503 28.537H21.8955C19.6453 28.4436 19.647 25.238 21.8955 25.1455H22.3503C24.9992 25.1384 25.795 22.8842 26.1636 20.6362C26.3177 19.8428 26.4761 19.0276 26.762 18.487C33.0217 17.4823 38.9776 17.4825 45.2372 18.487C45.5231 19.0277 45.6815 19.8429 45.8356 20.6362C46.0194 21.5824 46.2094 22.5607 46.659 23.3799C47.2934 24.535 48.327 25.1456 49.6488 25.1456H50.1037C52.3539 25.239 52.3522 28.4446 50.1037 28.5372H49.6488C48.8722 28.5372 48.2425 29.1669 48.2425 29.9434C48.1875 46.2239 23.8089 46.218 23.7566 29.9433ZM35.9995 44.9989C37.4645 44.9989 38.8801 44.8178 40.2185 44.4668V49.0826C37.5925 50.3448 34.4067 50.3448 31.7806 49.0827V44.4668C33.119 44.8176 34.5345 44.9989 35.9995 44.9989ZM31.7806 69.1873V57.746C34.4793 58.7096 37.5198 58.7095 40.2185 57.746V69.1873H31.7806ZM43.0311 49.9343L44.513 51.0473L47.0225 58.0253L45.1333 59.8832C44.8499 60.1618 44.6977 60.5474 44.7144 60.9445C44.7308 61.3415 44.9148 61.7132 45.2204 61.9672L47.9512 64.2378L44.2734 69.1873H43.0312V49.9343H43.0311ZM59.9062 69.1873H47.7773L51.0027 64.8465C51.4483 64.2469 51.3474 63.4038 50.7731 62.9264L48.2138 60.7985L49.6365 59.3994C50.0278 59.0147 50.1595 58.4372 49.9738 57.9209L47.9581 52.3164L52.4736 53.6598C58.1 55.3336 59.9061 57.6646 59.9061 63.2528V69.1873H59.9062Z" fill="black"/>
<path d="M39.1638 28.5664C39.8366 28.9548 40.6966 28.7241 41.0848 28.0517C41.3053 27.6419 41.9444 27.6419 42.1649 28.0517C43.1649 29.634 45.4701 28.2895 44.6006 26.6454C43.3083 24.3692 39.9407 24.3699 38.6491 26.6454C38.2607 27.318 38.4912 28.1781 39.1638 28.5664Z" fill="black"/>
<path d="M33.3501 26.6454C32.0578 24.3692 28.6902 24.3699 27.3986 26.6454C27.0102 27.318 27.2407 28.1781 27.9134 28.5664C28.5861 28.9548 29.4462 28.7241 29.8343 28.0517C30.0548 27.6419 30.6939 27.6419 30.9144 28.0517C31.9142 29.634 34.2194 28.2895 33.3501 26.6454Z" fill="black"/>
<path d="M39.1035 33.6283C39.6526 33.0792 39.6526 32.1887 39.1035 31.6394C38.5542 31.0904 37.664 31.0904 37.1146 31.6394C36.5266 32.248 35.471 32.2524 34.8845 31.6393C34.335 31.0901 33.4449 31.0904 32.8956 31.6395C32.3465 32.1888 32.3467 33.0792 32.8958 33.6285C34.5301 35.3312 37.4695 35.3309 39.1035 33.6283Z" fill="black"/>
</svg>
