<svg width="72" height="72" viewBox="0 0 72 72" fill="none" xmlns="http://www.w3.org/2000/svg">
<g clip-path="url(#clip0)">
<path fill-rule="evenodd" clip-rule="evenodd" d="M41.626 42.52C39.961 43.2075 38.0738 43.5881 36 43.5881C33.9263 43.5881 32.039 43.2075 30.374 42.52V43.005V47.1152V49.9283C32.0845 50.9159 34.0249 51.4358 36 51.4358C37.9752 51.4358 39.9156 50.9159 41.626 49.9283V47.1152V45.2298V42.52Z" fill="#FFDCD5"/>
<path fill-rule="evenodd" clip-rule="evenodd" d="M41.626 49.9285C39.9156 50.916 37.9752 51.436 36 51.436C34.0249 51.436 32.0845 50.916 30.374 49.9285V55.5546C32.0845 56.5423 34.0249 57.0621 36 57.0621C37.9752 57.0621 39.9156 56.5423 41.626 55.5546V49.9285Z" fill="#8690AF"/>
<path fill-rule="evenodd" clip-rule="evenodd" d="M41.626 55.5547C39.9156 56.5423 37.975 57.0622 36 57.0622C34.0249 57.0622 32.0845 56.5423 30.374 55.5547V70.5934H36H41.626V55.5547Z" fill="#B6BCCF"/>
<path fill-rule="evenodd" clip-rule="evenodd" d="M25.6202 70.5935C23.3741 62.2113 24.346 55.044 26.3041 50.1721L19.1221 52.3089C12.8158 54.185 10.6831 57.1336 10.6831 63.2515V70.5935H25.6202Z" fill="#E0EF9B"/>
<path fill-rule="evenodd" clip-rule="evenodd" d="M45.6963 50.1721C47.6544 55.044 48.6263 62.2113 46.3803 70.5935H61.3172V63.2515C61.3172 57.1336 59.1847 54.185 52.8782 52.3089L45.6963 50.1721Z" fill="#E0EF9B"/>
<path fill-rule="evenodd" clip-rule="evenodd" d="M30.3737 66.8722V47.1165L30.2792 47.1865L26.3039 50.1722C24.3458 55.0441 23.3739 62.2115 25.6199 70.5937H30.3737V66.8722Z" fill="#CBE558"/>
<path fill-rule="evenodd" clip-rule="evenodd" d="M41.626 66.8722V47.1165L41.7205 47.1865L45.6958 50.1722C47.654 55.0441 48.6259 62.2115 46.3798 70.5937H41.626V66.8722Z" fill="#CBE558"/>
<path fill-rule="evenodd" clip-rule="evenodd" d="M22.3486 20.9191V23.732H21.8936C20.1873 23.732 18.791 25.1281 18.791 26.8344C18.791 28.5408 20.1871 29.937 21.8936 29.937H22.3486C22.3486 37.4452 27.6686 43.5883 36 43.5883C44.3314 43.5883 49.6514 37.4452 49.6514 29.937H50.1064C51.8129 29.937 53.209 28.5408 53.209 26.8344C53.209 25.1281 51.8127 23.732 50.1064 23.732H49.6514V20.9191C47.4731 20.9191 45.6807 19.2686 45.4558 17.1501C44.7572 17.6628 43.8951 17.9657 42.9623 17.9657C41.7311 17.9657 40.623 17.4382 39.8517 16.5969C39.1921 18.067 37.7157 19.0909 36.0001 19.0909C34.2846 19.0909 32.8082 18.067 32.1486 16.5969C31.3772 17.4382 30.2692 17.9657 29.038 17.9657C28.105 17.9657 27.243 17.6628 26.5445 17.1501C26.3193 19.2686 24.5269 20.9191 22.3486 20.9191Z" fill="#FFDCD5"/>
<path fill-rule="evenodd" clip-rule="evenodd" d="M26.5441 17.1501C27.2428 17.6628 28.1048 17.9657 29.0376 17.9657C30.2688 17.9657 31.3769 17.4381 32.1482 16.5969C32.8079 18.067 34.2843 19.0909 35.9998 19.0909C37.7153 19.0909 39.1917 18.067 39.8513 16.5969C40.6227 17.4381 41.7307 17.9657 42.962 17.9657C43.8949 17.9657 44.7569 17.6628 45.4554 17.1501C45.6803 19.2686 47.4728 20.9191 49.651 20.9191V23.732H50.106C51.8122 23.732 53.2086 25.128 53.2086 26.8344C55.5389 26.8344 57.4281 24.9453 57.4281 22.6149C57.4281 21.113 56.6433 19.7946 55.4616 19.0469C56.1498 18.2961 56.5699 17.2955 56.5699 16.1968C56.5699 13.9459 54.8075 12.1071 52.5874 11.984C52.7525 11.5322 52.8427 11.0445 52.8427 10.5356C52.8427 8.20529 50.9536 6.31607 48.6231 6.31607C48.0437 6.31607 47.4915 6.43295 46.9889 6.64435C46.7992 4.48973 44.9901 2.79981 42.7862 2.79981C41.661 2.79981 40.6388 3.24033 39.8823 3.95821C39.2388 2.4503 37.7427 1.39331 35.9998 1.39331C34.2567 1.39331 32.7606 2.4503 32.1173 3.95821C31.3609 3.24033 30.3386 2.79981 29.2134 2.79981C27.0094 2.79981 25.2005 4.48973 25.0106 6.64435C24.508 6.43295 23.9559 6.31607 23.3764 6.31607C21.0461 6.31607 19.1569 8.20514 19.1569 10.5356C19.1569 11.0445 19.2471 11.5324 19.412 11.984C17.192 12.1069 15.4295 13.9459 15.4295 16.1968C15.4295 17.2955 15.8497 18.2961 16.5379 19.0469C15.3561 19.7946 14.5713 21.113 14.5713 22.6149C14.5713 24.9452 16.4604 26.8344 18.7908 26.8344C18.7908 25.128 20.187 23.732 21.8934 23.732H22.3484V20.9191C24.5268 20.9191 26.3192 19.2686 26.5441 17.1501Z" fill="#FF764E"/>
<path d="M25.012 8.0508C26.8781 7.9764 26.8767 5.31149 25.012 5.23779H25.0108C23.1447 5.31248 23.1472 7.97738 25.012 8.0508Z" fill="black"/>
<path d="M53.2789 50.9605L46.3388 48.8958L43.0324 46.4126V43.419C44.505 42.6957 45.8328 41.733 46.9653 40.5514C49.3187 38.0958 50.7294 34.8323 51.007 31.2532C52.6463 30.9196 53.965 29.6938 54.4326 28.1068C58.5936 27.2276 60.3001 21.9278 57.3418 18.7947C58.9484 15.8146 57.3682 11.9503 54.238 10.8951C54.4891 7.45686 51.4436 4.54343 48.0209 4.94133C46.9285 1.96756 43.1786 0.489322 40.293 1.97417C38.1333 -0.658665 33.8651 -0.657681 31.7064 1.97487C31.2957 1.77163 30.86 1.61874 30.4088 1.52085C28.5687 1.19848 28.0066 3.80375 29.8134 4.27014C30.3131 4.37844 30.775 4.62332 31.1492 4.97832C31.4834 5.2952 31.951 5.42882 32.4025 5.33529C32.8534 5.24204 33.2302 4.93387 33.411 4.51009C34.3663 2.24323 37.6341 2.24422 38.5889 4.51009C38.7696 4.93387 39.1464 5.24204 39.5973 5.33529C40.048 5.42868 40.5163 5.29534 40.8507 4.97832C42.53 3.3607 45.388 4.45482 45.5879 6.76781C45.6273 7.21536 45.8782 7.61706 46.263 7.84899C46.6479 8.08078 47.1203 8.11496 47.5344 7.94083C49.7692 6.9868 52.1135 9.22427 51.2665 11.5011C51.1136 11.9197 51.1679 12.3857 51.4131 12.7578C51.6581 13.13 52.065 13.3639 52.5099 13.3884C54.8535 13.4981 56.0237 16.3836 54.425 18.0965C54.1434 18.4037 54.0124 18.8197 54.0674 19.2325C54.1226 19.6455 54.3576 20.0128 54.7096 20.2355C56.6394 21.4404 56.3638 24.3454 54.3101 25.2035C53.7669 23.8083 52.5481 22.7479 51.0577 22.4265V20.9192C51.0577 20.1425 50.4278 19.5127 49.6512 19.5127C48.2086 19.5127 47.0062 18.4331 46.8542 17.0015C46.801 16.5008 46.4843 16.0668 46.0239 15.8634C45.5633 15.6601 45.0294 15.7182 44.6235 16.016C43.5092 16.8606 41.815 16.6976 40.8878 15.6461C40.5681 15.2974 40.0937 15.1331 39.6269 15.2084C39.1598 15.2839 38.7619 15.5893 38.5681 16.021C37.5901 18.2245 34.409 18.2236 33.4315 16.021C33.2377 15.5893 32.8398 15.2839 32.3725 15.2084C31.9055 15.1331 31.4316 15.2974 31.1116 15.6462C30.185 16.6977 28.49 16.8605 27.3761 16.016C26.9702 15.7182 26.4361 15.6603 25.9756 15.8634C25.5151 16.0668 25.1985 16.5009 25.1454 17.0015C24.9935 18.4332 23.7911 19.5127 22.3484 19.5127C21.5717 19.5127 20.9419 20.1425 20.9419 20.9192V22.4267C19.4517 22.7481 18.233 23.8084 17.6896 25.2035C15.635 24.3449 15.3612 21.4397 17.2899 20.2355C17.642 20.0128 17.8771 19.6455 17.932 19.2325C17.9871 18.8196 17.8562 18.4035 17.5746 18.0965C15.9754 16.3832 17.147 13.4978 19.4897 13.3884C19.9346 13.3637 20.3415 13.1298 20.5865 12.7578C20.8316 12.3857 20.8859 11.9197 20.733 11.5011C20.5323 10.9569 20.5093 10.3377 20.6664 9.77787C20.8751 9.02961 20.4378 8.25378 19.6897 8.0452C18.942 7.83675 18.1657 8.27375 17.957 9.02187C17.7875 9.62765 17.7216 10.2654 17.7615 10.8951C14.6308 11.9506 13.0514 15.815 14.6578 18.7947C11.6986 21.9289 13.4078 27.2285 17.5671 28.1068C18.0345 29.6937 19.3533 30.9196 20.9925 31.2532C21.2703 34.8323 22.6809 38.0958 25.0343 40.5514C26.1668 41.733 27.4945 42.6957 28.9671 43.419V46.4128L25.6609 48.8958L18.7206 50.9605C11.9243 52.9827 9.27637 56.4286 9.27637 63.2514V70.5935C9.27637 71.3702 9.9062 72 10.6829 72H61.3166C62.0932 72 62.7231 71.3702 62.7231 70.5935V63.2514C62.7235 56.4286 60.0755 52.9825 53.2789 50.9605ZM12.0898 63.2514C12.0898 57.6624 13.896 55.3311 19.5233 53.6568L24.0882 52.2987C23.0023 56.0927 22.2014 61.9038 23.8826 69.187H12.0898V63.2514ZM28.9675 69.187H26.7754C24.6504 60.658 26.208 54.3129 27.4654 51.059L28.9675 49.9308V69.187ZM31.7806 52.1177C34.4795 53.0813 37.5206 53.0813 40.2196 52.1177V54.7055C37.5933 55.9677 34.4068 55.9677 31.7806 54.7055V52.1177ZM23.7552 29.9371C23.7552 29.1605 23.1254 28.5306 22.3487 28.5306H21.8938C19.6433 28.4372 19.645 25.2311 21.8938 25.1386H22.3487C23.1254 25.1386 23.7552 24.5087 23.7552 23.7321V22.1495C25.3701 21.7361 26.7115 20.6258 27.4235 19.1379C28.8667 19.5785 30.5172 19.3872 31.8188 18.6352C33.9758 21.1012 38.0249 21.1008 40.1812 18.6352C41.4827 19.3872 43.1334 19.5785 44.5765 19.1379C45.2886 20.6258 46.6298 21.7361 48.2448 22.1495V23.7321C48.2448 24.5087 48.8746 25.1386 49.6513 25.1386H50.1063C52.3568 25.232 52.3552 28.4381 50.1063 28.5306H49.6513C48.8746 28.5306 48.2448 29.1605 48.2448 29.9371C48.1898 46.2199 23.8077 46.214 23.7552 29.9371ZM36.0001 44.9947C37.4654 44.9947 38.8811 44.8136 40.2196 44.4626V49.0792C37.5935 50.3415 34.4066 50.3415 31.7806 49.0792V44.4626C33.119 44.8136 34.5348 44.9947 36.0001 44.9947ZM40.2196 69.187H31.7806V57.7438C34.4796 58.7074 37.5205 58.7074 40.2196 57.7438V69.187ZM43.0326 49.9307L44.5347 51.059C45.792 54.3131 47.3496 60.6584 45.2246 69.187H43.0324V49.9307H43.0326ZM59.9105 69.187H48.1176C49.7988 61.904 48.998 56.0927 47.912 52.2987L52.477 53.6568C58.1042 55.331 59.9106 57.6624 59.9106 63.2514V69.187H59.9105Z" fill="black"/>
<path d="M30.3743 25.428H30.3734C29.5967 25.428 28.9673 26.0578 28.9673 26.8345C29.0417 28.6999 31.707 28.6999 31.7808 26.8345C31.7808 26.0578 31.151 25.428 30.3743 25.428Z" fill="black"/>
<path d="M41.6266 28.241C43.4928 28.1666 43.4914 25.5017 41.6266 25.428H41.6256C39.7595 25.5027 39.7619 28.1674 41.6266 28.241Z" fill="black"/>
<path d="M39.1041 33.6225C39.6533 33.0732 39.6533 32.1826 39.1041 31.6333C38.5547 31.0842 37.6644 31.0842 37.1148 31.6333C36.5279 32.2451 35.4713 32.2451 34.8845 31.6333C34.3352 31.0842 33.4448 31.0842 32.8953 31.6333C32.3461 32.1825 32.3461 33.0731 32.8953 33.6225C34.5295 35.3255 37.47 35.3253 39.1041 33.6225Z" fill="black"/>
</g>
<defs>
<clipPath id="clip0">
<rect width="72" height="72" fill="white"/>
</clipPath>
</defs>
</svg>
