<svg width="72" height="73" viewBox="0 0 72 73" fill="none" xmlns="http://www.w3.org/2000/svg">
<g clip-path="url(#clip0)">
<path d="M20.9037 65.5321C28.6001 65.5321 34.8392 59.293 34.8392 51.5966C34.8392 43.9003 28.6001 37.6611 20.9037 37.6611C13.2074 37.6611 6.96826 43.9003 6.96826 51.5966C6.96826 59.293 13.2074 65.5321 20.9037 65.5321Z" fill="#E6E9ED"/>
<path d="M52.4443 14.5863C51.2482 16.5837 49.065 17.9192 46.5682 17.9192H32.5166V19.0805V31.8547C32.5166 36.9876 36.674 41.145 41.8069 41.145H45.163C43.6766 41.1682 42.2017 41.5282 40.8779 42.1902C39.3682 42.9566 38.0908 44.0715 37.1617 45.4186C36.2211 46.7773 35.6288 48.3682 35.4546 50.0521L35.1179 53.4082C34.9785 53.4895 34.8392 53.5592 34.6882 53.6057C34.7927 52.9437 34.8392 52.2818 34.8392 51.5966C34.8392 48.0547 33.5269 44.8379 31.3553 42.376C29.7992 40.6108 27.8133 39.2521 25.5488 38.4508V37.6495C25.5488 34.7463 27.8714 34.7463 27.8714 31.8547C27.8714 28.9515 25.5488 28.9515 25.5488 26.0482C25.5488 23.145 27.8714 23.145 27.8714 20.2418V19.0805C27.8714 14.2727 29.8224 9.91791 32.9811 6.77081C36.1282 3.6121 40.483 1.66113 45.2908 1.66113C54.9062 1.66113 62.7101 9.465 62.7101 19.0805V20.2418C62.7101 23.145 65.0327 23.145 65.0327 26.0482C65.0327 28.9515 62.7101 28.9515 62.7101 31.8547C62.7101 34.7463 65.0327 34.7463 65.0327 37.6495C65.0327 40.5527 62.7101 40.5527 62.7101 43.456C62.7101 46.3592 65.0327 46.3592 65.0327 49.274C65.0327 49.4482 65.0211 49.6224 65.0095 49.785C64.6843 52.8624 61.874 55.0805 58.7733 55.0805H53.4198V47.1721V46.9515V46.6031C53.4198 43.5953 50.9695 41.145 47.9617 41.145H48.7746C53.9075 41.145 58.065 36.9876 58.065 31.8547V20.7411C58.065 18.3373 56.5901 16.1889 54.3488 15.3179L52.4443 14.5863Z" fill="#B27946"/>
<path d="M34.8394 60.8867H53.42V71.3383H44.1297H34.8394V60.8867Z" fill="#969FAA"/>
<path d="M41.7955 58.2622C43.7348 57.3912 45.5813 56.3345 47.3 55.0687C49.0071 53.8377 50.5865 52.4209 52.0148 50.8299C52.9206 49.8312 53.42 48.5306 53.42 47.1719V55.0803V60.8867H34.8394V60.399V60.3874C37.2432 59.9693 39.5774 59.2493 41.7955 58.2622Z" fill="#FCD770"/>
<path d="M40.8777 42.1902C42.2016 41.5282 43.6764 41.1682 45.1628 41.145H45.3022H47.6132H47.9616C46.8119 41.145 45.7203 41.505 44.8261 42.1321C43.9203 42.7708 43.2119 43.665 42.817 44.745C42.1551 46.5682 41.168 48.2289 39.937 49.6457C38.6015 51.2018 36.9525 52.4908 35.1177 53.4082L35.4545 50.0521C35.6286 48.3682 36.2209 46.7773 37.1615 45.4186C38.0906 44.0715 39.368 42.9566 40.8777 42.1902Z" fill="#FCD770"/>
<path d="M53.4201 46.9515V47.1721C53.4201 48.5308 52.9207 49.8315 52.0149 50.8302C50.5865 52.4211 49.0072 53.8379 47.3001 55.0689C43.8975 54.9411 41.0175 52.7231 39.9375 49.6457C41.1685 48.2289 42.1556 46.5682 42.8175 44.745C43.2123 43.665 43.9207 42.7708 44.8265 42.1321C45.7207 41.505 46.8123 41.145 47.962 41.145C50.9698 41.145 53.4201 43.5953 53.4201 46.6031V46.9515Z" fill="#FCD770"/>
<path d="M39.9373 49.6455C41.0173 52.7229 43.8973 54.941 47.2999 55.0687C45.5812 56.3345 43.7348 57.3913 41.7954 58.2623C39.5774 59.2494 37.2432 59.9694 34.8393 60.3874C33.6896 60.6081 32.5167 60.7474 31.3438 60.8171C30.7051 60.8636 30.078 60.8868 29.4393 60.8868H24.1903H23.2264C21.949 60.8868 20.9038 59.8416 20.9038 58.5642V56.2416C20.9038 54.9642 21.949 53.9191 23.2264 53.9191H24.3877L24.887 53.4197C25.3167 52.99 25.8857 52.7578 26.478 52.7578C27.3374 52.7578 28.1154 53.2339 28.4986 54.0003L29.0328 55.0803L29.7761 54.9991C31.5064 54.8016 33.167 54.3255 34.6883 53.6171V53.6055C34.8393 53.5591 34.9786 53.4894 35.118 53.4081C36.9528 52.4907 38.6019 51.2016 39.9373 49.6455Z" fill="#F0D0B4"/>
<path d="M58.065 20.7413V31.8548C58.065 36.9877 53.9076 41.1451 48.7747 41.1451H47.9618H47.6134H45.3024C45.2559 41.1451 45.2095 41.1451 45.163 41.1451H41.8069C36.674 41.1451 32.5166 36.9877 32.5166 31.8548V19.0806V17.9193H46.5682C49.065 17.9193 51.2482 16.5838 52.4443 14.5864L54.3488 15.318C56.5901 16.189 58.065 18.3374 58.065 20.7413Z" fill="#F0D0B4"/>
<path d="M10.6146 60.9915C11.0559 59.5864 12.3798 58.5644 13.9359 58.5644C13.9359 56.6367 15.4921 55.0806 17.4198 55.0806C19.3475 55.0806 20.9037 56.6367 20.9037 58.5644C20.9037 59.8419 21.9488 60.887 23.2263 60.887H24.1901C24.3179 61.247 24.3875 61.6419 24.3875 62.0483C24.3875 63.9761 22.8314 65.5322 20.9037 65.5322C16.8275 65.5322 13.1695 63.7902 10.603 61.0032L10.6146 60.9915Z" fill="#FF826E"/>
<path d="M11.6943 41.1566C13.5872 41.2031 15.0969 42.736 15.0969 44.6289C15.0969 46.5566 13.5408 48.1128 11.613 48.1128C11.613 50.0405 10.0569 51.5966 8.12917 51.5966C7.72272 51.5966 7.33949 51.5154 6.97949 51.3876C7.02594 47.3115 8.83756 43.6534 11.6827 41.145L11.6943 41.1566Z" fill="#FF826E"/>
<path d="M25.549 38.4507C27.8135 39.2519 29.7993 40.6107 31.3554 42.3758V44.6287C31.3554 46.5565 29.7993 48.1126 27.8716 48.1126C25.9438 48.1126 24.3877 46.5565 24.3877 44.6287C22.4599 44.6287 20.9038 43.0726 20.9038 41.1449C20.9038 39.6236 21.8793 38.3461 23.238 37.87V37.8584C24.0277 37.9861 24.8057 38.1952 25.549 38.4507Z" fill="#FF826E"/>
<path d="M40.646 31.8545H49.9363C49.9363 34.4209 47.8576 36.4997 45.2912 36.4997C44.0137 36.4997 42.8524 35.9771 42.0047 35.1409C41.1686 34.2932 40.646 33.1319 40.646 31.8545Z" fill="#FF826E"/>
<path d="M39.4844 31.8546C39.4844 35.0563 42.0892 37.6611 45.2908 37.6611C48.4925 37.6611 51.0973 35.0563 51.0973 31.8546V30.6934H39.4844V31.8546ZM48.5761 33.0159C48.0965 34.3677 46.8052 35.3385 45.2908 35.3385C43.7765 35.3385 42.4851 34.3677 42.0055 33.0159H48.5761Z" fill="black"/>
<path d="M48.7742 26.0485C48.7742 24.7676 49.8159 23.7259 51.0968 23.7259C52.3777 23.7259 53.4194 24.7676 53.4194 26.0485H55.742C55.742 23.4867 53.6586 21.4033 51.0968 21.4033C48.535 21.4033 46.4517 23.4867 46.4517 26.0485H48.7742Z" fill="black"/>
<path d="M41.8071 26.0485H44.1297C44.1297 23.4867 42.0463 21.4033 39.4845 21.4033C36.9227 21.4033 34.8394 23.4867 34.8394 26.0485H37.1619C37.1619 24.7676 38.2036 23.7259 39.4845 23.7259C40.7654 23.7259 41.8071 24.7676 41.8071 26.0485Z" fill="black"/>
<path d="M66.1937 37.652C66.1937 35.7939 65.4087 34.8138 64.777 34.0253C64.2312 33.3436 63.8712 32.893 63.8712 31.8502C63.8712 30.8074 64.2323 30.3556 64.777 29.6739C65.4087 28.8854 66.1937 27.9041 66.1937 26.0449C66.1937 24.1868 65.4087 23.2067 64.7781 22.4182C64.2323 21.7365 63.8712 21.2848 63.8712 20.2419V19.0806C63.8712 8.83574 55.5354 0.5 45.2905 0.5C35.0456 0.5 26.7099 8.83574 26.7099 19.0806V20.2419C26.7099 21.2848 26.3487 21.7365 25.8029 22.4182C25.1723 23.2067 24.3873 24.1868 24.3873 26.0449C24.3873 27.9041 25.1723 28.8854 25.8041 29.6739C26.3499 30.3556 26.7099 30.8074 26.7099 31.8502C26.7099 32.893 26.3487 33.3436 25.8041 34.0253C25.2594 34.7046 24.6044 35.5303 24.4326 36.9332C23.298 36.6603 22.1204 36.5 20.9034 36.5C12.5793 36.5 5.80664 43.2726 5.80664 51.5968C5.80664 59.9209 12.5793 66.6936 20.9034 66.6936C25.062 66.6936 29.0255 64.9586 31.8741 61.9427C32.478 61.8963 33.0795 61.8312 33.6776 61.7499V72.5H54.5808V56.2419H58.7743C62.5392 56.2419 65.7838 53.4583 66.1601 49.9048C66.1821 49.705 66.1937 49.4937 66.1937 49.2695C66.1937 47.4092 65.4087 46.4279 64.7781 45.6394C64.2521 44.9809 63.8712 44.5048 63.8712 43.4585C63.8712 42.4145 64.2323 41.9639 64.7781 41.281C65.4087 40.4925 66.1937 39.5112 66.1937 37.652ZM52.8714 15.9951L53.9328 16.405C55.7096 17.0925 56.9034 18.8333 56.9034 20.739V31.8537C56.9034 34.0253 56.058 36.0668 54.5228 37.6021C52.9875 39.1373 50.946 39.9839 48.7744 39.9839H47.6131H45.3045H41.8078C37.3264 39.9839 33.6788 36.3363 33.6788 31.8548L33.6776 19.0806H46.5656C49.1251 19.0806 51.4035 17.8694 52.8714 15.9951ZM29.4412 59.7258H23.226C22.585 59.7258 22.0647 59.2055 22.0647 58.5645V56.2419C22.0647 55.6009 22.585 55.0806 23.226 55.0806H24.8681L25.7112 54.2375C26.207 53.7393 27.1384 53.8915 27.4543 54.5209L28.3566 56.3244L29.9057 56.1525C33.6451 55.7368 37.0186 54.1307 39.6269 51.6676C40.7057 53.5048 42.3571 54.8983 44.3255 55.6369C39.8603 58.28 34.7251 59.7258 29.4412 59.7258ZM28.2254 62.0484C27.3091 62.6906 26.3139 63.2039 25.2664 63.5859C25.4383 63.1028 25.5486 62.5895 25.5486 62.0484H28.2254ZM52.2583 52.2645V59.7258H41.2817C45.3939 58.0582 49.1448 55.5289 52.2583 52.2645ZM52.2583 46.9516V47.1769C52.2583 48.2406 51.8657 49.2637 51.1539 50.0557C49.8788 51.4725 48.4713 52.7441 46.9674 53.8717C44.502 53.6383 42.3246 52.0845 41.2934 49.8432C42.3885 48.4497 43.2838 46.8738 43.9132 45.1388C44.5287 43.4445 46.1545 42.3076 47.9557 42.3076C50.3282 42.3064 52.2583 44.2365 52.2583 46.609V46.9516ZM42.5882 42.7524C42.2386 43.2366 41.9414 43.765 41.7312 44.3445C40.6964 47.1897 38.857 49.5575 36.5077 51.231L36.6134 50.1707C36.913 47.1711 38.7025 44.5768 41.399 43.2274C41.7811 43.0369 42.1806 42.8848 42.5882 42.7524ZM33.6114 52.8347C32.3851 53.3375 31.0752 53.6801 29.7083 53.8369L29.5318 53.4827C28.95 52.3191 27.7806 51.5968 26.4811 51.5968C25.5834 51.5968 24.7043 51.9603 24.0691 52.5955L23.9065 52.7581H23.226C21.8336 52.7581 20.6386 53.5849 20.0812 54.7683C19.3264 54.2375 18.4113 53.9194 17.4195 53.9194C15.2177 53.9194 13.3678 55.4592 12.8928 57.5205C11.9499 57.7354 11.1114 58.2428 10.4774 58.9524C9.21387 57.1675 8.39516 55.0493 8.18845 52.7534C10.3647 52.7255 12.1868 51.1984 12.6571 49.1569C14.7172 48.6808 16.2583 46.8308 16.2583 44.629C16.2583 42.9997 15.4326 41.5853 14.1737 40.7596C15.9888 39.6285 18.1024 38.9434 20.3715 38.8493C19.9744 39.5356 19.7421 40.3195 19.7421 41.1452C19.7421 43.347 21.2832 45.1969 23.3444 45.6719C23.8194 47.7332 25.6694 49.2742 27.8712 49.2742C29.9905 49.2742 31.7626 47.84 32.3189 45.896C33.1806 47.6147 33.6776 49.5471 33.6776 51.5968C33.6776 52.009 33.6509 52.4225 33.6114 52.8347ZM30.1937 44.629C30.1937 45.9099 29.1521 46.9516 27.8712 46.9516C26.5903 46.9516 25.5486 45.9099 25.5486 44.629V43.4677H24.3873C23.1064 43.4677 22.0647 42.4261 22.0647 41.1452C22.0647 40.2463 22.6094 39.4532 23.4223 39.0746C26.0677 39.6053 28.4123 40.9628 30.1937 42.8569V44.629ZM12.0962 42.3668C13.1564 42.5863 13.9357 43.5084 13.9357 44.629C13.9357 45.9099 12.894 46.9516 11.6131 46.9516H10.4518V48.1129C10.4518 49.3729 9.44032 50.3972 8.18845 50.4297C8.47645 47.2686 9.92225 44.4421 12.0962 42.3668ZM12.0184 60.7547C12.4411 60.1253 13.146 59.7258 13.9357 59.7258H15.097V58.5645C15.097 57.2836 16.1386 56.2419 17.4195 56.2419C18.7004 56.2419 19.7421 57.2836 19.7421 58.5645C19.7421 60.4853 21.3052 62.0484 23.226 62.0484C23.226 63.3293 22.1843 64.371 20.9034 64.371C17.4509 64.371 14.3189 62.989 12.0184 60.7547ZM45.2905 70.1774V64.8146L42.3257 63.3328L41.2864 65.4103L42.9679 66.2499V70.1774H36.0002V62.0484H52.2583V70.1774H45.2905ZM62.9642 39.8294C62.3336 40.6191 61.5486 41.6004 61.5486 43.4585C61.5486 45.3188 62.3336 46.3001 62.9642 47.0886C63.4903 47.7483 63.8712 48.2244 63.8712 49.2695C63.8712 49.4077 63.8642 49.5366 63.8514 49.6597C63.5983 52.0485 61.3686 53.9194 58.7743 53.9194H54.5808V47.1769V46.9516V46.609C54.5808 44.6441 53.7157 42.8813 52.3523 41.6677C53.7668 41.1521 55.0686 40.3415 56.1648 39.2453C58.139 37.2711 59.2272 34.6466 59.226 31.8548V20.7401C59.226 17.8834 57.4353 15.2716 54.7701 14.2404L54.0327 13.9559C54.3823 13.057 54.5808 12.085 54.5808 11.0654V10.9516L52.2583 11.0654C52.2583 14.2044 49.7046 16.7581 46.5656 16.7581H33.7961C34.2617 14.4924 36.0699 12.6982 38.4343 12.3034L39.6745 12.0966L39.2936 9.80542L38.0534 10.0121C34.1723 10.6601 31.355 13.9849 31.355 17.9194V19.0806L31.3562 31.8548C31.3562 36.6637 34.6241 40.712 39.0521 41.9255C37.3101 43.1159 35.9781 44.7661 35.1606 46.6764C33.7519 42.6061 30.6606 39.3173 26.7099 37.6636V37.6508C26.7099 36.608 27.071 36.1574 27.6157 35.4757C28.2474 34.6884 29.0324 33.7083 29.0324 31.8502C29.0324 29.991 28.2474 29.0108 27.6168 28.2223C27.071 27.5395 26.7099 27.0889 26.7099 26.0449C26.7099 25.0021 27.071 24.5515 27.6157 23.8698C28.2474 23.0813 29.0324 22.1012 29.0324 20.2419V19.0806C29.0324 10.1155 36.3254 2.82258 45.2905 2.82258C54.2557 2.82258 61.5486 10.1155 61.5486 19.0806V20.2419C61.5486 22.1012 62.3336 23.0813 62.9654 23.8698C63.5112 24.5515 63.8712 25.0021 63.8712 26.0449C63.8712 27.0889 63.51 27.5395 62.9642 28.2223C62.3336 29.0108 61.5486 29.9921 61.5486 31.8502C61.5486 33.7083 62.3336 34.6884 62.9654 35.4769C63.5112 36.1586 63.8712 36.6092 63.8712 37.652C63.8712 38.6972 63.51 39.1466 62.9642 39.8294Z" fill="black"/>
</g>
<defs>
<clipPath id="clip0">
<rect width="72" height="72" fill="white" transform="translate(0 0.5)"/>
</clipPath>
</defs>
</svg>
