<svg width="72" height="72" viewBox="0 0 72 72" fill="none" xmlns="http://www.w3.org/2000/svg">
<path fill-rule="evenodd" clip-rule="evenodd" d="M50.2325 29.9254C51.9344 29.9254 53.327 28.5306 53.327 26.8257C53.327 25.121 51.9344 23.7261 50.2325 23.7261H49.6383C49.6383 20.6162 48.745 19.9253 47.1374 18.9737C44.188 17.228 43.0079 14.2026 42.3852 11.1921C38.8227 15.6397 32.1677 18.9481 25.5888 19.7945C23.6042 20.0499 22.361 21.4758 22.361 23.726H21.767C20.0649 23.726 18.6724 25.1208 18.6724 26.8257C18.6724 28.5306 20.0649 29.9254 21.767 29.9254H22.361C22.3611 37.4267 31.0402 43.5642 35.9997 43.5642C40.9593 43.5642 49.6383 37.4267 49.6385 29.9254H50.2325Z" fill="#FFDCD5"/>
<path fill-rule="evenodd" clip-rule="evenodd" d="M40.4387 2.16517C38.9827 1.64487 37.4506 1.4082 35.9997 1.4082C25.7707 1.4082 17.4014 9.77757 17.4014 20.0065V43.8892V54.4025C21.0657 52.7072 26.4505 51.2543 30.3747 49.9336V41.7626C27.8869 40.326 25.4556 38.1197 23.9355 35.473C22.9608 33.776 22.3608 31.898 22.3608 29.9258H21.7668C20.0647 29.9258 18.6722 28.531 18.6722 26.8261C18.6722 25.1212 20.0647 23.7264 21.7668 23.7264H22.3608C22.3608 21.476 23.604 20.0501 25.5886 19.7949C32.1675 18.9485 38.8227 15.6399 42.385 11.1925C42.9514 9.91425 45.0541 5.31396 45.0541 5.31396C43.8021 3.80861 42.1745 2.78545 40.4387 2.16517Z" fill="#8690AF"/>
<path fill-rule="evenodd" clip-rule="evenodd" d="M54.598 54.4022V54.1309V20.0062C54.598 12.9577 50.8986 6.87944 45.0544 5.31348C45.0544 5.31348 42.9517 9.91377 42.3853 11.192C43.0079 14.2024 44.1882 17.2279 47.1374 18.9736C48.7452 19.9252 49.6384 20.616 49.6384 23.726H50.2325C51.9343 23.726 53.327 25.1208 53.327 26.8256C53.327 28.5305 51.9345 29.9253 50.2325 29.9253H49.6384C49.6384 31.8977 49.0384 33.7757 48.0637 35.4727C46.5436 38.1193 44.1122 40.3255 41.6245 41.7623V49.9332C45.5488 51.2539 50.9337 52.7067 54.598 54.4022Z" fill="#8690AF"/>
<path fill-rule="evenodd" clip-rule="evenodd" d="M46.1522 5.3532C45.0538 4.25495 43.2731 4.25495 42.1747 5.3532C41.0764 6.45159 41.0764 8.23228 42.1747 9.33068C43.2731 10.4289 45.0538 10.4289 46.1522 9.33068C47.2504 8.23228 47.2504 6.45145 46.1522 5.3532ZM45.2999 2.22803C46.3936 1.13428 48.1834 1.13428 49.2772 2.22803C50.371 3.32178 50.371 5.11161 49.2772 6.20537L48.1408 7.34173L49.2772 8.47809C50.371 9.57184 50.371 11.3617 49.2772 12.4554C48.1834 13.5492 46.3936 13.5492 45.2999 12.4554L44.1635 11.3191L43.0271 12.4554C41.9334 13.5492 40.1436 13.5492 39.0498 12.4554C37.9561 11.3617 37.9561 9.57184 39.0498 8.47809L40.1862 7.34173L39.0498 6.20537C37.9561 5.11161 37.9561 3.32178 39.0498 2.22803C40.1436 1.13428 41.9334 1.13428 43.0271 2.22803L44.1635 3.36439L45.2999 2.22803Z" fill="#FAF7F6"/>
<path d="M44.1635 10.1542C45.7168 10.1542 46.9759 8.89499 46.9759 7.34173C46.9759 5.78846 45.7168 4.5293 44.1635 4.5293C42.6102 4.5293 41.3511 5.78846 41.3511 7.34173C41.3511 8.89499 42.6102 10.1542 44.1635 10.1542Z" fill="#FFC144"/>
<path fill-rule="evenodd" clip-rule="evenodd" d="M28.2938 40.3635C27.5288 41.7382 28.5413 43.9741 28.5413 45.3241C28.5413 46.674 27.3661 48.9884 28.3122 50.6273C29.2584 52.2661 30.5911 53.5999 35.9997 53.5999C41.4083 53.5999 42.7409 52.2663 43.6872 50.6273C44.6334 48.9885 43.4581 46.674 43.4581 45.3241C43.4581 43.9741 44.4706 41.7382 43.7056 40.3635C41.1259 42.3587 38.1976 43.5639 35.9997 43.5639C33.8019 43.5639 30.8736 42.3587 28.2938 40.3635Z" fill="#E6D5CF"/>
<path fill-rule="evenodd" clip-rule="evenodd" d="M28.3121 50.6272L19.1251 53.7189C13.9529 55.4595 10.688 59.0627 10.688 64.9688V70.5936H61.3113V64.9688C61.3113 59.0628 58.0462 55.4595 52.874 53.7189L43.6871 50.6272C42.7408 52.266 41.4081 53.5998 35.9996 53.5998C30.591 53.5998 29.2582 52.2661 28.3121 50.6272Z" fill="#E6D5CF"/>
<path d="M30.375 28.25C32.2408 28.1758 32.2394 25.5112 30.375 25.4375H30.374C28.508 25.512 28.5106 28.1766 30.375 28.25Z" fill="black"/>
<path d="M41.6249 28.25C43.4907 28.1758 43.4893 25.5112 41.6249 25.4375H41.6239C39.7581 25.512 39.7605 28.1766 41.6249 28.25Z" fill="black"/>
<path d="M35.9995 34.9157C37.1719 34.9157 38.2741 34.4591 39.1032 33.63C39.6523 33.0809 39.6523 32.1905 39.1032 31.6412C38.5541 31.0922 37.6636 31.0922 37.1144 31.6412C36.5273 32.2531 35.4715 32.2531 34.8845 31.6412C34.3354 31.0922 33.445 31.0922 32.8957 31.6412C32.3466 32.1904 32.3466 33.0808 32.8957 33.63C33.725 34.4591 34.8273 34.9157 35.9995 34.9157Z" fill="black"/>
<path d="M22.43 8.72705C24.2959 8.6528 24.2944 5.98824 22.43 5.91455H22.4291C20.5632 5.98908 20.5658 8.65364 22.43 8.72705Z" fill="black"/>
<path d="M56.0039 53.5287V20.006C56.0039 14.6487 54.0179 9.8267 50.6272 6.79532C51.9058 5.14203 51.787 2.74978 50.2711 1.23374C48.6262 -0.411247 45.9499 -0.411247 44.3049 1.23374L44.163 1.37577L44.021 1.23374C42.747 -0.040288 40.8541 -0.327578 39.3009 0.372155C35.1059 -0.546244 30.6106 0.303813 26.82 2.24636C26.1311 2.60494 25.8633 3.45415 26.2218 4.14292C26.582 4.83885 27.4436 5.09619 28.1184 4.74126C30.8737 3.31142 33.9408 2.6356 37.0442 2.85905C36.5461 4.3322 36.8829 6.02781 38.0548 7.19975L38.1969 7.34177L38.0548 7.4838C37.2603 8.27845 36.8226 9.3379 36.8227 10.4669C36.8227 11.578 37.2466 12.6217 38.0174 13.4118C34.5711 15.98 29.9776 17.8119 25.4092 18.3995C23.1079 18.6955 21.5366 20.1756 21.0869 22.371C20.2222 22.5026 19.4376 22.8816 18.8076 23.4331V20.0059C18.8076 17.6357 19.2882 15.3351 20.2361 13.1684C20.5475 12.4569 20.2229 11.6278 19.5115 11.3166C18.8 11.0051 17.9709 11.3297 17.6595 12.0412C16.5551 14.5655 15.9951 17.2452 15.9951 20.0059V53.5286C11.5896 55.8669 9.28174 59.774 9.28174 64.9686V70.5936C9.28174 71.3701 9.9113 71.9998 10.688 71.9998H61.3112C62.0879 71.9998 62.7175 71.3701 62.7175 70.5936V64.9686C62.7173 59.774 60.4094 55.8669 56.0039 53.5287ZM29.5406 49.9429C29.5353 49.9333 29.53 49.9239 29.5245 49.9145C29.1721 49.2886 29.426 48.1864 29.6502 47.2134C29.8029 46.5507 29.9472 45.9246 29.9472 45.3239C29.9472 44.7178 29.8149 44.0848 29.6747 43.4144C29.6427 43.2616 29.6084 43.0979 29.5757 42.9298C34.1806 45.6195 37.818 45.6194 42.423 42.9298C42.3902 43.0979 42.3559 43.2616 42.324 43.4144C42.1838 44.0849 42.0515 44.718 42.0515 45.3239C42.0515 45.9245 42.1957 46.5507 42.3484 47.2134C42.5726 48.1858 42.8263 49.2872 42.4749 49.9134C42.4685 49.9242 42.4622 49.9353 42.456 49.9463C41.8743 50.9535 41.1208 52.1934 35.9992 52.1934C30.872 52.1935 30.1228 50.9507 29.5406 49.9429ZM45.0893 46.5818C44.9785 46.1015 44.864 45.6049 44.864 45.324C44.864 45.0089 44.9723 44.491 45.0771 43.9901C45.2756 43.0405 45.5103 41.9176 45.334 40.8514C45.4269 40.772 45.5193 40.6916 45.6111 40.6101C48.699 37.8739 50.5643 34.6017 50.9635 31.2722C51.8079 31.1335 52.5739 30.7588 53.1915 30.2181V52.3425L45.4231 49.7282C45.5557 48.606 45.2967 47.4819 45.0893 46.5818ZM53.1915 23.4332C52.5777 22.8958 51.8172 22.5223 50.9789 22.3817C50.3937 17.0967 46.537 18.9743 44.5641 13.6884C46.6815 15.5511 50.2405 14.6632 51.2193 11.9969C52.4891 14.2549 53.1915 17.0241 53.1915 20.006V23.4332ZM40.0435 9.47261L40.356 9.16015C40.5568 9.58159 40.8314 9.97646 41.1799 10.3249C41.5283 10.6734 41.9232 10.9479 42.3446 11.1487L42.0322 11.4611C41.484 12.0094 40.5917 12.0093 40.0435 11.4611C39.5026 10.9434 39.5026 9.99052 40.0435 9.47261ZM43.1685 6.34744C43.6919 5.80197 44.6338 5.80197 45.1572 6.34744C45.7055 6.89572 45.7055 7.78783 45.1572 8.33625C44.6091 8.88439 43.7168 8.88439 43.1684 8.33625C42.6203 7.78783 42.6203 6.89572 43.1685 6.34744ZM47.146 10.3249C47.4945 9.97646 47.7691 9.58159 47.9699 9.16015L48.2824 9.47261C48.8235 9.99052 48.8234 10.9432 48.2824 11.4613C47.7643 12.0024 46.8118 12.0024 46.2937 11.4613L45.9813 11.1488C46.4027 10.9479 46.7976 10.6734 47.146 10.3249ZM47.2879 2.81391C47.6658 2.81391 48.0189 2.95903 48.2822 3.22241C48.8232 3.74032 48.8234 4.69317 48.2822 5.21108L47.9699 5.5234C47.7691 5.10196 47.4945 4.70709 47.146 4.35863C46.7976 4.01017 46.4027 3.73554 45.9813 3.53473L46.2936 3.22241C46.5571 2.95903 46.9102 2.81391 47.2879 2.81391ZM42.0322 3.22241L42.3445 3.53473C41.9231 3.73554 41.5282 4.01017 41.1797 4.35863C40.8313 4.70709 40.5566 5.10196 40.3558 5.5234L40.0435 5.21108C39.4952 4.66294 39.4952 3.77069 40.0435 3.22241C40.5919 2.67413 41.4839 2.67413 42.0322 3.22241ZM21.7667 25.1321H22.3608C23.1374 25.1321 23.767 24.5024 23.767 23.7259C23.767 22.686 24.1142 21.4018 25.7681 21.1889C31.3562 20.4701 37.0006 18.0445 40.932 14.6822C41.2565 14.6904 41.5814 14.6613 41.9001 14.5952C42.8827 17.1338 44.3702 18.9698 46.4208 20.1835C47.7389 20.9636 48.2319 21.2556 48.2319 23.7257C48.2319 24.5022 48.8615 25.1319 49.6381 25.1319H50.2321C52.4725 25.2252 52.4707 28.4266 50.2321 28.5189H49.6381C48.8615 28.5189 48.2319 29.1485 48.2319 29.9252C48.2319 33.9316 45.4213 37.0204 43.7459 38.505C41.2804 40.6897 38.1673 42.1577 35.9994 42.1577C33.8314 42.1577 30.7183 40.6899 28.2528 38.505C26.5775 37.0205 23.767 33.9319 23.7669 29.9252C23.7669 29.1486 23.1373 28.5189 22.3607 28.5189H21.7665C19.5263 28.4258 19.528 25.2245 21.7667 25.1321ZM21.0353 31.272C21.4345 34.6018 23.2997 37.8738 26.3876 40.61C26.4795 40.6914 26.5718 40.7719 26.6649 40.8513C26.3935 42.3545 27.032 43.964 27.135 45.324C27.135 45.6049 27.0206 46.1015 26.9098 46.5818C26.7023 47.4819 26.4433 48.606 26.5759 49.7279L18.8076 52.3422V30.2179C19.425 30.7586 20.191 31.1334 21.0353 31.272ZM59.9049 69.1875H53.9029C53.9141 67.4756 53.4789 65.8351 52.6505 64.5452C52.2308 63.8917 51.3607 63.702 50.7074 64.1219C50.0539 64.5415 49.8644 65.4115 50.2841 66.065C50.8251 66.9072 51.1055 68.0105 51.0919 69.1874H20.9072C20.8936 68.0105 21.174 66.9072 21.7149 66.065C22.1347 65.4115 21.9451 64.5415 21.2916 64.1219C20.6382 63.7024 19.7683 63.8917 19.3485 64.5452C18.52 65.8351 18.0848 67.4756 18.0962 69.1875H12.094V64.9687C12.094 60.0585 14.6106 56.722 19.5735 55.0518L27.7452 52.3018C29.0802 53.9941 31.208 55.0061 35.9995 55.0061C40.7911 55.0061 42.9188 53.9941 44.2539 52.3018L52.4255 55.0518C57.3885 56.7221 59.905 60.0585 59.905 64.9687V69.1875H59.9049Z" fill="black"/>
</svg>
