<svg width="33" height="32" viewBox="0 0 33 32" fill="none" xmlns="http://www.w3.org/2000/svg">
<path fill-rule="evenodd" clip-rule="evenodd" d="M16.5938 0C7.75719 0 0.59375 7.16344 0.59375 16C0.59375 24.8366 7.75719 32 16.5938 32C25.4303 32 32.5938 24.8366 32.5938 16C32.5938 7.16344 25.4303 0 16.5938 0ZM23.2615 10.4996C23.9958 10.7011 24.5742 11.2948 24.7704 12.0488C25.1271 13.4154 25.1271 16.2667 25.1271 16.2667C25.1271 16.2667 25.1271 19.1179 24.7704 20.4845C24.5742 21.2385 23.9958 21.8323 23.2615 22.0339C21.9307 22.4 16.5938 22.4 16.5938 22.4C16.5938 22.4 11.2568 22.4 9.92592 22.0339C9.19157 21.8323 8.61324 21.2385 8.41697 20.4845C8.06042 19.1179 8.06042 16.2667 8.06042 16.2667C8.06042 16.2667 8.06042 13.4154 8.41697 12.0488C8.61324 11.2948 9.19157 10.7011 9.92592 10.4996C11.2568 10.1333 16.5938 10.1333 16.5938 10.1333C16.5938 10.1333 21.9307 10.1333 23.2615 10.4996Z" fill="#0A1124"/>
<path d="M14.9937 19.2V13.8667L19.2604 16.5335L14.9937 19.2Z" fill="#0A1124"/>
</svg>
