<?xml version="1.0" encoding="utf-8"?><svg xmlns="http://www.w3.org/2000/svg" xmlns:xlink="http://www.w3.org/1999/xlink"><symbol viewBox="0 0 32 32" id="001-teacher" xmlns="http://www.w3.org/2000/svg"><path d="M26.892 2H5.108A3.112 3.112 0 002 5.108v14.575a3.112 3.112 0 003.108 3.109h9.949v6.684a.523.523 0 00.524.524h7.555a.525.525 0 00.524-.524v-3.16h2.31a.525.525 0 00.523-.523v-3.001h.399A3.112 3.112 0 0030 19.683V5.108A3.112 3.112 0 0026.892 2zM13.428 21.744l.047-.043 1.582-1.582v1.625h-1.63zm12.017 3.524H23.66v-5.944a.524.524 0 10-1.048 0v9.628h-6.506V18.854a.524.524 0 00-.895-.37l-2.476 2.476a1.31 1.31 0 01-1.858 0l-4.103-4.103 1.261-1.263 3.4 3.4a.524.524 0 00.37.154h.003a.524.524 0 00.372-.156l2.914-2.956a2.423 2.423 0 011.717-.719h5.284a3.354 3.354 0 013.351 3.351v6.6zm3.507-5.585a2.063 2.063 0 01-2.06 2.06h-.399v-3.075a4.404 4.404 0 00-4.399-4.399H16.81a3.477 3.477 0 00-2.464 1.03l-2.543 2.58-3.074-3.074V8.721a.524.524 0 00-1.048 0v5.748c-.006.005-.012.008-.017.014L5.66 16.486a.524.524 0 000 .741l4.474 4.474.047.043H5.108a2.062 2.062 0 01-2.06-2.06V5.107a2.062 2.062 0 012.06-2.06h21.784a2.062 2.062 0 012.06 2.06v14.575z"/><path d="M19.498 6.82a3.215 3.215 0 100 6.43 3.215 3.215 0 000-6.43zm0 5.381a2.166 2.166 0 110-4.332 2.166 2.166 0 010 4.332z"/></symbol><symbol viewBox="0 0 32 32" id="002-teaching" xmlns="http://www.w3.org/2000/svg"><path d="M29.44 14.04a.589.589 0 01-.397-.162.589.589 0 01-.162-.398c0-.146.061-.291.162-.398a.586.586 0 01.796 0c.1.107.162.252.162.398a.578.578 0 01-.163.398.589.589 0 01-.397.162zM10.4 24.12a.589.589 0 01-.398-.162.589.589 0 01-.162-.398c0-.145.061-.291.162-.397a.586.586 0 01.795 0 .587.587 0 01.163.397.589.589 0 01-.163.398.589.589 0 01-.397.162zm19.04-5.6a.56.56 0 01-.56-.56v-2.24a.56.56 0 011.12 0v2.24a.56.56 0 01-.56.56zm0-6.72a.56.56 0 01-.56-.56V4.8a.56.56 0 011.12 0v6.44c0 .31-.25.56-.56.56zM10.4 21.88a.56.56 0 01-.56-.56v-6.613a.56.56 0 011.12 0v6.613a.56.56 0 01-.56.56zm0 6.72a.56.56 0 01-.56-.56V25.8a.56.56 0 011.12 0v2.24a.56.56 0 01-.56.56zm7.351-.275a.56.56 0 01-.56-.56V19.08a.56.56 0 011.12 0v8.685a.56.56 0 01-.56.56z"/><path d="M28.32 19.64a.56.56 0 010-1.12.56.56 0 00.56-.56.56.56 0 011.12 0c0 .926-.754 1.68-1.68 1.68z"/><path d="M28.32 19.64H10.4a.56.56 0 010-1.12h17.92a.56.56 0 010 1.12zm-2.24-9.8h-8.196a.56.56 0 010-1.12h8.196a.56.56 0 010 1.12zm0 2.24h-7.57a.56.56 0 010-1.12h7.569a.56.56 0 010 1.12zm0 2.24h-8.682a.56.56 0 010-1.12h8.683a.56.56 0 010 1.12zM23.84 7.6H13.2a.56.56 0 010-1.12h10.64a.56.56 0 010 1.12zm-5.32-3.36a.56.56 0 01-.56-.56V2.56a.56.56 0 011.12 0v1.12c0 .31-.25.56-.56.56zM7.6 7.598a.56.56 0 01-.56-.56V4.8a.56.56 0 011.12 0v2.238c0 .309-.252.56-.56.56z"/><path d="M7.6 5.36a.56.56 0 01-.56-.56c0-.926.753-1.68 1.68-1.68a.56.56 0 010 1.12.56.56 0 00-.56.56.56.56 0 01-.56.56z"/><path d="M28.32 4.24H8.72a.56.56 0 010-1.12h19.6a.56.56 0 010 1.12z"/><path d="M29.44 5.36a.56.56 0 01-.56-.56.561.561 0 00-.56-.56.56.56 0 010-1.12c.926 0 1.68.754 1.68 1.68a.56.56 0 01-.56.56zM4.15 13.537a.56.56 0 01-.17-1.094 11.362 11.362 0 015.606-.328.56.56 0 01-.213 1.1 10.237 10.237 0 00-5.053.296.585.585 0 01-.17.026z"/><path d="M9.48 13.225a.56.56 0 01-.237-1.068l5.21-2.43a.56.56 0 11.473 1.016l-5.21 2.429a.546.546 0 01-.236.053z"/><path d="M15.635 12.826a.56.56 0 01-.237-1.067c.45-.211.277-.644.237-.729-.04-.085-.257-.496-.711-.286a.56.56 0 11-.473-1.015c.976-.457 1.846.07 2.199.828.352.756.198 1.761-.78 2.217a.557.557 0 01-.235.052z"/><path d="M10.4 15.268a.56.56 0 01-.237-1.068l5.236-2.441a.56.56 0 11.474 1.014l-5.236 2.442a.554.554 0 01-.237.053zM12.511 30a.56.56 0 01-.368-.982l5.242-4.566a.56.56 0 01.736.844l-5.242 4.567a.56.56 0 01-.368.137z"/><path d="M22.993 30a.557.557 0 01-.367-.137l-5.242-4.567a.56.56 0 11.735-.844l5.243 4.566a.56.56 0 01-.369.982zM2.56 21.458a.56.56 0 01-.56-.56V15.12a.56.56 0 011.12 0v5.777a.56.56 0 01-.56.56z"/><path d="M2.56 15.68a.56.56 0 01-.56-.56c0-1.242.8-2.319 1.989-2.68a.56.56 0 01.324 1.072 1.671 1.671 0 00-1.193 1.609.56.56 0 01-.56.56zM4.8 28.6a.56.56 0 01-.56-.56V15.73a.56.56 0 011.12 0v12.31c0 .31-.25.56-.56.56zm2.8-15.574c-1.774 0-3.274-1.5-3.274-3.274 0-1.775 1.5-3.275 3.274-3.275 1.775 0 3.275 1.5 3.275 3.275s-1.5 3.274-3.275 3.274zm0-5.428c-1.167 0-2.154.987-2.154 2.154 0 1.168.987 2.154 2.154 2.154 1.168 0 2.155-.986 2.155-2.154S8.768 7.598 7.6 7.598zm0 21.002a.56.56 0 01-.56-.56v-7.142a.56.56 0 011.12 0v7.142a.56.56 0 01-.56.56z"/><path d="M3.68 22.541c-.835 0-1.68-.564-1.68-1.643a.56.56 0 011.12 0c0 .498.466.524.56.524.094 0 .56-.026.56-.524a.56.56 0 011.12 0c0 1.079-.845 1.643-1.68 1.643zM9 29.954a2.03 2.03 0 01-1.329-.474c-.407-.35-.632-.862-.632-1.44a.56.56 0 011.12 0c0 .772.754.794.84.794.086 0 .84-.022.84-.794a.56.56 0 011.12 0c0 1.257-.986 1.914-1.96 1.914z"/><path d="M6.2 29.954c-.5 0-.972-.168-1.328-.474-.407-.35-.632-.862-.632-1.44a.56.56 0 011.12 0c0 .772.755.794.84.794.086 0 .84-.022.84-.794a.56.56 0 011.12 0c0 1.257-.986 1.914-1.96 1.914z"/></symbol><symbol viewBox="0 0 32 32" id="003-microphone" xmlns="http://www.w3.org/2000/svg"><path d="M26.639 2.146a7.347 7.347 0 00-8.965-1.1 1.807 1.807 0 00-2.3.21 1.807 1.807 0 00-.21 2.298 7.343 7.343 0 00-1.028 4.302l-1.392 1.702a.475.475 0 00.735.601l1.181-1.444 5.41 5.41-10.938 8.952a1.178 1.178 0 01-1.582-.08l-1.762-1.762a1.181 1.181 0 01-.079-1.582l6.785-8.29a.475.475 0 00-.735-.602l-6.785 8.291a2.132 2.132 0 00.142 2.855l.545.545-1.572 1.572a3 3 0 000 4.238 3 3 0 004.238 0l3.63-3.63a2.214 2.214 0 013.127 0 2.214 2.214 0 010 3.127l-3.43 3.43a.475.475 0 00.672.672l3.43-3.43a3.165 3.165 0 000-4.47 3.165 3.165 0 00-4.47 0l-3.63 3.63a2.049 2.049 0 01-3.495-1.448c0-.546.213-1.06.6-1.447l1.572-1.572.545.545a2.123 2.123 0 002.855.142l11.195-9.162a7.342 7.342 0 004.303-1.029 1.802 1.802 0 002.299-.21 1.807 1.807 0 00.21-2.299 7.347 7.347 0 00-1.101-8.965zm.22 10.593a.849.849 0 01-.605.25.849.849 0 01-.605-.25l-2.39-2.39a.475.475 0 00-.67.672l1.92 1.92a6.394 6.394 0 01-3.52.758l-5.903-5.901a6.393 6.393 0 01.759-3.521l5.572 5.572a.475.475 0 00.671-.671l-6.042-6.042a.856.856 0 011.21-1.209l9.602 9.603a.855.855 0 010 1.209zm.201-2.35l-8.664-8.664a6.397 6.397 0 017.571 1.093 6.397 6.397 0 011.093 7.57z"/></symbol><symbol viewBox="0 0 32 32" id="004-settings" xmlns="http://www.w3.org/2000/svg"><path d="M25.836 29.365V18.24c1.236-.267 2.205-1.403 2.205-2.707a2.76 2.76 0 00-2.205-2.706V2.602A.599.599 0 0025.234 2a.599.599 0 00-.601.602v10.19c-1.236.268-2.205 1.404-2.205 2.707 0 1.337.935 2.44 2.205 2.707v11.16c0 .334.267.6.601.6a.599.599 0 00.602-.6zm-2.239-13.832c0-.87.702-1.604 1.604-1.604.902 0 1.604.701 1.604 1.604a1.604 1.604 0 01-3.208 0zm-7.013 13.866V12.525c1.236-.267 2.205-1.403 2.205-2.706a2.76 2.76 0 00-2.205-2.707v-4.51A.599.599 0 0015.982 2a.599.599 0 00-.601.601v4.511c-1.236.267-2.205 1.404-2.205 2.707a2.76 2.76 0 002.205 2.706V29.4c0 .334.267.601.601.601a.599.599 0 00.602-.601zm-2.205-19.58c0-.87.701-1.604 1.603-1.604.87 0 1.604.735 1.604 1.604a1.604 1.604 0 01-3.207 0zM7.365 29.365V24.12c1.236-.267 2.205-1.403 2.205-2.706 0-1.337-.935-2.44-2.205-2.707V2.601A.599.599 0 006.764 2a.599.599 0 00-.602.601v16.072c-1.236.267-2.205 1.403-2.205 2.707a2.76 2.76 0 002.205 2.706v5.28c0 .333.268.6.602.6a.599.599 0 00.601-.6zM5.126 21.38a1.604 1.604 0 111.604 1.603 1.583 1.583 0 01-1.604-1.604z"/></symbol><symbol viewBox="0 0 32 32" id="005-lightbulb" xmlns="http://www.w3.org/2000/svg"><g clip-path="url(#ea)"><path d="M16.024 6.897c-4.529 0-8.23 3.7-8.23 8.23a8.299 8.299 0 002.784 6.187c1.302 1.302 1.184 4.085 1.154 4.114 0 .148.03.267.148.385a.546.546 0 00.355.148h7.549a.49.49 0 00.355-.148.562.562 0 00.148-.385c0-.03-.148-2.812 1.155-4.114l.088-.09c1.717-1.568 2.724-3.788 2.724-6.097 0-4.53-3.7-8.23-8.23-8.23zm4.737 13.647c-.03.03-.09.089-.09.118-1.154 1.244-1.36 3.286-1.39 4.263h-6.542c-.03-.977-.237-3.108-1.48-4.381a7.215 7.215 0 01-2.487-5.447 7.214 7.214 0 017.223-7.223 7.214 7.214 0 017.223 7.223c0 2.102-.888 4.085-2.457 5.447z"/><path d="M15.995 8.999a.519.519 0 00-.503.503c0 .267.237.503.503.503a5.388 5.388 0 015.388 5.388c0 .266.237.503.503.503a.519.519 0 00.504-.503C22.42 11.87 19.548 9 15.995 9zm3.287 17.525H12.71a1.25 1.25 0 00-1.243 1.243c0 .68.562 1.243 1.243 1.243h6.542c.71-.03 1.273-.562 1.273-1.243a1.25 1.25 0 00-1.243-1.243zm0 1.45H12.71a.233.233 0 01-.237-.237c0-.148.09-.236.237-.236h6.542c.119 0 .237.088.237.236s-.089.237-.207.237zm-.977 1.539h-4.618a1.25 1.25 0 00-1.244 1.244c0 .68.563 1.243 1.244 1.243h4.618a1.25 1.25 0 001.243-1.243c0-.71-.563-1.244-1.243-1.244zm0 1.45h-4.618a.233.233 0 01-.237-.236c0-.148.089-.237.237-.237h4.618c.118 0 .236.09.236.237a.233.233 0 01-.236.237zM15.995 4.44a.499.499 0 00.504-.503V.503A.519.519 0 0015.995 0a.519.519 0 00-.503.503v3.434c0 .267.237.503.503.503zm8.377-1.894c-.237-.178-.533-.09-.68.118l-1.895 2.842a.488.488 0 00.118.71c.089.06.178.09.267.09a.472.472 0 00.414-.238l1.894-2.841a.459.459 0 00-.118-.681zM9.985 6.187c.089 0 .178-.03.267-.089.236-.148.295-.473.147-.71L8.564 2.516c-.148-.237-.473-.296-.71-.148s-.296.474-.148.71L9.54 5.95a.491.491 0 00.444.237zM6.404 9.325l-2.99-1.628c-.237-.119-.562-.03-.68.207a.473.473 0 00.207.68l2.99 1.629c.088.03.147.059.236.059a.488.488 0 00.444-.267c.119-.236.03-.562-.207-.68zm22.882-1.421c-.119-.237-.444-.326-.681-.207l-3.02 1.628c-.236.118-.325.444-.207.68a.488.488 0 00.444.267c.09 0 .178-.03.237-.06l3.02-1.627c.236-.119.325-.444.207-.681z"/></g><defs><clipPath id="ea"><path d="M0 0h32v32H0z"/></clipPath></defs></symbol><symbol viewBox="0 0 32 32" id="006-flipchart" xmlns="http://www.w3.org/2000/svg"><path d="M3.02 4.83h.425a35.122 35.122 0 00.04 5.07v12.126a1.493 1.493 0 00-1.48 1.694 1.46 1.46 0 001.459 1.457h4.522l-1.625 5.25a.503.503 0 00.478.649h2.343a.5.5 0 00.475-.344l1.826-5.553h8.56l1.827 5.553a.5.5 0 00.475.344h2.343a.505.505 0 00.477-.649l-1.625-5.25h3.778a1.494 1.494 0 001.458-1.692 1.46 1.46 0 00-1.458-1.459h-.35v-2.67h2.9a.503.503 0 00.313-.89C26.397 15.439 26.7 6.891 26.835 4.83h.42a1.27 1.27 0 001.268-1.269v-.613a1.27 1.27 0 00-1.268-1.269H3.023a1.27 1.27 0 00-1.27 1.269v.613a1.27 1.27 0 001.267 1.27zm5.8 25.245H7.516l1.517-4.897h1.397l-1.611 4.897zm15.19 0h-1.303l-1.61-4.898h1.396l1.517 4.898zm3.308-7.048a.459.459 0 01.458.458v.235a.459.459 0 01-.458.458H3.464a.46.46 0 01-.459-.458v-.235a.46.46 0 01.459-.458h23.853zm-22.832-1V15.06c.573 1.673 1.425 3.178 2.685 4.186a.5.5 0 00.312.11h18.484v2.67H4.486zm24.158-3.67H7.663c-2.154-1.843-2.93-5.52-3.178-8.64-.013-.17.042-.712-.056-.857a35.714 35.714 0 01.02-4.03h21.379c-.142 2.126-.398 9.73 2.815 13.526zM2.751 2.947a.269.269 0 01.27-.268h24.231a.269.269 0 01.269.269v.613a.27.27 0 01-.269.27H3.02a.269.269 0 01-.269-.27v-.613z"/><path d="M21.55 7.487a.5.5 0 00-.5-.5l-12.2.033a.5.5 0 00.003 1l12.2-.033a.5.5 0 00.497-.5zm.174 2.728L9.81 10.25a.5.5 0 00.001 1l11.913-.035a.5.5 0 000-1zm-1.546 3.238l-8.807.025a.5.5 0 00.003 1l8.807-.025a.5.5 0 10-.003-1zm2.561-.023a.536.536 0 100 1.071.536.536 0 000-1.072z"/></symbol><symbol viewBox="0 0 43 20" id="arrow-left" xmlns="http://www.w3.org/2000/svg"><path d="M3 10h40M3 10l8-8m-8 8l8 8"/></symbol><symbol viewBox="0 0 65 18" id="arrow-left-long" xmlns="http://www.w3.org/2000/svg"><path d="M1 9h64M1 9l8-8M1 9l8 8"/></symbol><symbol viewBox="0 0 43 20" id="arrow-right" xmlns="http://www.w3.org/2000/svg"><path d="M40 10H0m40 0l-8-8m8 8l-8 8"/></symbol><symbol viewBox="0 0 6 12" id="chevron-right" xmlns="http://www.w3.org/2000/svg"><path d="M.851 11.998a.847.847 0 01-.847-.776.86.86 0 01.193-.626l3.808-4.584L.333 1.419A.857.857 0 01.46.213a.849.849 0 011.241.128l4.106 5.132a.859.859 0 010 1.086l-4.25 5.132a.85.85 0 01-.706.307z"/></symbol><symbol viewBox="0 0 32 32" id="dz-plus" xmlns="http://www.w3.org/2000/svg"><path d="M16 0v32m16-16H0"/></symbol><symbol viewBox="0 0 17 17" id="eye" xmlns="http://www.w3.org/2000/svg"><g clip-path="url(#la)"><path d="M8.583 3.915c-3.057 0-5.83 1.673-7.875 4.39a.633.633 0 000 .755c2.045 2.72 4.818 4.393 7.875 4.393 3.056 0 5.829-1.673 7.874-4.39a.633.633 0 000-.756c-2.045-2.72-4.818-4.392-7.874-4.392zm.219 8.127a3.367 3.367 0 01-3.578-3.578 3.373 3.373 0 013.14-3.138 3.367 3.367 0 013.577 3.577 3.383 3.383 0 01-3.14 3.139zM8.7 10.49a1.81 1.81 0 01-1.924-1.925 1.82 1.82 0 011.692-1.692 1.81 1.81 0 011.925 1.924A1.82 1.82 0 018.7 10.491z"/></g><defs><clipPath id="la"><path transform="translate(.583 .684)" d="M0 0h16v16H0z"/></clipPath></defs></symbol><symbol viewBox="0 0 24 24" id="feather_send" xmlns="http://www.w3.org/2000/svg"><path d="M21 3l-9.9 9.9M21 3l-6.3 18-3.6-8.1L3 9.3 21 3z"/></symbol><symbol viewBox="0 0 12 17" id="location" xmlns="http://www.w3.org/2000/svg"><path d="M10.737 3.24A5.434 5.434 0 006.123.5a5.985 5.985 0 00-.246 0 5.435 5.435 0 00-4.614 2.74 5.57 5.57 0 00-.072 5.504l3.967 7.262.006.01A.955.955 0 006 16.5a.955.955 0 00.842-.494l3.968-7.262a5.57 5.57 0 00-.073-5.504zM6 7.75c-1.24 0-2.25-1.01-2.25-2.25S4.76 3.25 6 3.25 8.25 4.26 8.25 5.5 7.24 7.75 6 7.75z"/></symbol><symbol viewBox="0 0 24 24" id="mail" xmlns="http://www.w3.org/2000/svg"><g clip-path="url(#oa)"><path d="M22.77 4H1.23C.555 4 0 4.554 0 5.23v13.54C0 19.445.554 20 1.23 20h21.54c.676 0 1.23-.554 1.23-1.23V5.23C24 4.555 23.446 4 22.77 4zm-.463.923l-9.599 7.2a1.2 1.2 0 01-.708.212 1.2 1.2 0 01-.708-.212l-9.6-7.2h20.615zm-5.127 7.675l5.23 6.462.018.017H1.572l.018-.017 5.23-6.462a.462.462 0 00-.717-.58l-5.18 6.398V5.5l9.815 7.361a2.11 2.11 0 001.262.397 2.1 2.1 0 001.261-.396L23.077 5.5v12.916l-5.18-6.399a.461.461 0 10-.717.581z"/></g><defs><clipPath id="oa"><path d="M0 0h24v24H0z"/></clipPath></defs></symbol><symbol viewBox="0 0 24 25" id="user" xmlns="http://www.w3.org/2000/svg"><path d="M20.122 18.397a8.766 8.766 0 00-1.89-2.8 8.804 8.804 0 00-2.8-1.89c-.01-.005-.019-.007-.028-.012A5.811 5.811 0 0012 3.172a5.811 5.811 0 00-3.404 10.526l-.028.011a8.727 8.727 0 00-2.8 1.89 8.804 8.804 0 00-1.89 2.8 8.712 8.712 0 00-.691 3.237.187.187 0 00.188.192h1.406a.187.187 0 00.187-.183 6.987 6.987 0 012.058-4.788A6.985 6.985 0 0112 14.797c1.88 0 3.644.731 4.973 2.06a6.988 6.988 0 012.058 4.788.186.186 0 00.187.183h1.406a.188.188 0 00.188-.192 8.732 8.732 0 00-.691-3.24zM12 13.016a4.005 4.005 0 01-2.85-1.182 4.005 4.005 0 01-1.182-2.85c0-1.075.42-2.088 1.182-2.85A4.005 4.005 0 0112 4.954c1.075 0 2.088.419 2.85 1.18a4.005 4.005 0 011.18 2.85 4.005 4.005 0 01-1.18 2.85A4.005 4.005 0 0112 13.016z"/></symbol></svg>