<?xml version="1.0" encoding="utf-8"?><svg xmlns="http://www.w3.org/2000/svg" xmlns:xlink="http://www.w3.org/1999/xlink"><symbol viewBox="0 0 43 20" id="arrow-left" xmlns="http://www.w3.org/2000/svg"><path d="M3 10h40M3 10l8-8m-8 8l8 8"/></symbol><symbol viewBox="0 0 65 18" id="arrow-left-long" xmlns="http://www.w3.org/2000/svg"><path d="M1 9h64M1 9l8-8M1 9l8 8"/></symbol><symbol viewBox="0 0 43 20" id="arrow-right" xmlns="http://www.w3.org/2000/svg"><path d="M40 10H0m40 0l-8-8m8 8l-8 8"/></symbol><symbol viewBox="0 0 6 12" id="chevron-right" xmlns="http://www.w3.org/2000/svg"><path d="M.851 11.998a.847.847 0 01-.847-.776.86.86 0 01.193-.626l3.808-4.584L.333 1.419A.857.857 0 01.46.213a.849.849 0 011.241.128l4.106 5.132a.859.859 0 010 1.086l-4.25 5.132a.85.85 0 01-.706.307z"/></symbol><symbol viewBox="0 0 32 32" id="dz-plus" xmlns="http://www.w3.org/2000/svg"><path d="M16 0v32m16-16H0"/></symbol><symbol viewBox="0 0 17 17" id="eye" xmlns="http://www.w3.org/2000/svg"><g clip-path="url(#fa)"><path d="M8.583 3.915c-3.057 0-5.83 1.673-7.875 4.39a.633.633 0 000 .755c2.045 2.72 4.818 4.393 7.875 4.393 3.056 0 5.829-1.673 7.874-4.39a.633.633 0 000-.756c-2.045-2.72-4.818-4.392-7.874-4.392zm.219 8.127a3.367 3.367 0 01-3.578-3.578 3.373 3.373 0 013.14-3.138 3.367 3.367 0 013.577 3.577 3.383 3.383 0 01-3.14 3.139zM8.7 10.49a1.81 1.81 0 01-1.924-1.925 1.82 1.82 0 011.692-1.692 1.81 1.81 0 011.925 1.924A1.82 1.82 0 018.7 10.491z"/></g><defs><clipPath id="fa"><path transform="translate(.583 .684)" d="M0 0h16v16H0z"/></clipPath></defs></symbol><symbol viewBox="0 0 24 24" id="feather_send" xmlns="http://www.w3.org/2000/svg"><path d="M21 3l-9.9 9.9M21 3l-6.3 18-3.6-8.1L3 9.3 21 3z"/></symbol><symbol viewBox="0 0 12 17" id="location" xmlns="http://www.w3.org/2000/svg"><path d="M10.737 3.24A5.434 5.434 0 006.123.5a5.985 5.985 0 00-.246 0 5.435 5.435 0 00-4.614 2.74 5.57 5.57 0 00-.072 5.504l3.967 7.262.006.01A.955.955 0 006 16.5a.955.955 0 00.842-.494l3.968-7.262a5.57 5.57 0 00-.073-5.504zM6 7.75c-1.24 0-2.25-1.01-2.25-2.25S4.76 3.25 6 3.25 8.25 4.26 8.25 5.5 7.24 7.75 6 7.75z"/></symbol><symbol viewBox="0 0 24 24" id="mail" xmlns="http://www.w3.org/2000/svg"><g clip-path="url(#ia)"><path d="M22.77 4H1.23C.555 4 0 4.554 0 5.23v13.54C0 19.445.554 20 1.23 20h21.54c.676 0 1.23-.554 1.23-1.23V5.23C24 4.555 23.446 4 22.77 4zm-.463.923l-9.599 7.2a1.2 1.2 0 01-.708.212 1.2 1.2 0 01-.708-.212l-9.6-7.2h20.615zm-5.127 7.675l5.23 6.462.018.017H1.572l.018-.017 5.23-6.462a.462.462 0 00-.717-.58l-5.18 6.398V5.5l9.815 7.361a2.11 2.11 0 001.262.397 2.1 2.1 0 001.261-.396L23.077 5.5v12.916l-5.18-6.399a.461.461 0 10-.717.581z"/></g><defs><clipPath id="ia"><path d="M0 0h24v24H0z"/></clipPath></defs></symbol><symbol viewBox="0 0 24 25" id="user" xmlns="http://www.w3.org/2000/svg"><path d="M20.122 18.397a8.766 8.766 0 00-1.89-2.8 8.804 8.804 0 00-2.8-1.89c-.01-.005-.019-.007-.028-.012A5.811 5.811 0 0012 3.172a5.811 5.811 0 00-3.404 10.526l-.028.011a8.727 8.727 0 00-2.8 1.89 8.804 8.804 0 00-1.89 2.8 8.712 8.712 0 00-.691 3.237.187.187 0 00.188.192h1.406a.187.187 0 00.187-.183 6.987 6.987 0 012.058-4.788A6.985 6.985 0 0112 14.797c1.88 0 3.644.731 4.973 2.06a6.988 6.988 0 012.058 4.788.186.186 0 00.187.183h1.406a.188.188 0 00.188-.192 8.732 8.732 0 00-.691-3.24zM12 13.016a4.005 4.005 0 01-2.85-1.182 4.005 4.005 0 01-1.182-2.85c0-1.075.42-2.088 1.182-2.85A4.005 4.005 0 0112 4.954c1.075 0 2.088.419 2.85 1.18a4.005 4.005 0 011.18 2.85 4.005 4.005 0 01-1.18 2.85A4.005 4.005 0 0112 13.016z"/></symbol></svg>