<svg width="81" height="81" viewBox="0 0 81 81" fill="none" xmlns="http://www.w3.org/2000/svg">
<g clip-path="url(#clip0)">
<path d="M40.5098 8.37671C39.6473 8.37671 38.9473 9.07671 38.9473 9.93921C38.9473 10.8017 39.6473 11.5017 40.5098 11.5017C41.3723 11.5017 42.0723 10.8017 42.0723 9.93921C42.0723 9.07671 41.3723 8.37671 40.5098 8.37671Z" fill="#0A1124"/>
<path d="M67.3034 23.2218L47.5191 12.228C46.765 11.8088 45.8135 12.0805 45.3943 12.8349C44.975 13.5893 45.2469 14.5407 46.0011 14.9597L65.7855 25.9535C66.0258 26.0871 66.2863 26.1505 66.5431 26.1505C67.0922 26.1505 67.6247 25.8607 67.9103 25.3466C68.3295 24.5922 68.0577 23.641 67.3034 23.2218Z" fill="#0A1124"/>
<path d="M80.5096 40.703C80.5171 40.1541 80.2359 39.6416 79.7692 39.3527L68.4554 32.3567L79.7201 25.946C80.206 25.6694 80.5071 25.1543 80.5098 24.5952C80.5124 24.036 80.2159 23.5182 79.7324 23.2372L41.295 0.893525C40.8095 0.611338 40.2102 0.611338 39.7246 0.893525L1.28712 23.2372C0.803687 23.5182 0.507281 24.0361 0.509781 24.5952C0.512438 25.1543 0.813374 25.6694 1.29947 25.946L12.5641 32.3567L1.2504 39.3528C0.783687 39.6416 0.502438 40.1541 0.509938 40.7031C0.517438 41.252 0.812437 41.7567 1.28697 42.0327L12.7852 48.7172L1.28494 55.4258C0.804625 55.7059 0.509313 56.2205 0.509781 56.7767C0.51025 57.3328 0.806187 57.8469 1.28712 58.1264L39.7246 80.4701C39.9674 80.6112 40.2385 80.6817 40.5097 80.6817C40.781 80.6817 41.0522 80.611 41.2949 80.4701L79.7323 58.1264C80.2131 57.8469 80.5092 57.3328 80.5096 56.7767C80.5101 56.2205 80.2148 55.7061 79.7345 55.4258L68.2343 48.717L79.7326 42.0325C80.2071 41.7566 80.5021 41.2519 80.5096 40.703ZM5.20618 24.5736L40.5097 4.05164L75.8132 24.5736L40.5097 44.6652L16.3202 30.8988L5.20618 24.5736ZM75.8421 56.7731L40.5097 77.3118L5.17727 56.7731L15.8915 50.5228L39.7246 64.3762C39.9674 64.5173 40.2385 64.5878 40.5097 64.5878C40.781 64.5878 41.0522 64.5172 41.2949 64.3762L65.1279 50.5228L75.8421 56.7731ZM40.5097 61.2181L5.11009 40.6403L15.6583 34.1177L39.7369 47.8209C39.9764 47.9573 40.2431 48.0255 40.5097 48.0255C40.7763 48.0255 41.043 47.9572 41.2825 47.8209L65.3611 34.1177L75.9095 40.6403L40.5097 61.2181Z" fill="#0A1124"/>
</g>
<defs>
<clipPath id="clip0">
<rect width="80" height="80" fill="white" transform="translate(0.509766 0.681396)"/>
</clipPath>
</defs>
</svg>
