<svg width="32" height="32" viewBox="0 0 32 32" fill="none" xmlns="http://www.w3.org/2000/svg">
<path d="M26.8916 2H5.10845C4.2843 2.00087 3.49417 2.32865 2.91141 2.91141C2.32865 3.49417 2.00087 4.2843 2 5.10845V19.6834C2.00095 20.5075 2.32875 21.2976 2.91149 21.8804C3.49424 22.4631 4.28433 22.7909 5.10845 22.7919H15.0567V29.4759C15.0566 29.5448 15.0702 29.6129 15.0965 29.6765C15.1228 29.7401 15.1614 29.7979 15.2101 29.8466C15.2588 29.8953 15.3166 29.9339 15.3802 29.9602C15.4438 29.9865 15.5119 30 15.5807 30H23.1363C23.2051 30 23.2733 29.9865 23.3369 29.9602C23.4005 29.9339 23.4582 29.8953 23.5069 29.8466C23.5556 29.7979 23.5942 29.7401 23.6205 29.6765C23.6468 29.6129 23.6604 29.5448 23.6603 29.4759V26.3166H25.9692C26.038 26.3166 26.1062 26.3031 26.1698 26.2768C26.2334 26.2504 26.2912 26.2118 26.3399 26.1632C26.3885 26.1145 26.4271 26.0567 26.4535 25.9931C26.4798 25.9295 26.4933 25.8613 26.4933 25.7925V22.7919H26.8916C27.7157 22.7909 28.5058 22.4631 29.0885 21.8804C29.6712 21.2976 29.999 20.5075 30 19.6834V5.10845C29.9991 4.2843 29.6714 3.49417 29.0886 2.91141C28.5058 2.32865 27.7157 2.00087 26.8916 2ZM13.4276 21.7437C13.4432 21.7291 13.4596 21.7159 13.4746 21.7009L15.0567 20.1191V21.7437H13.4276ZM25.4451 25.2684H23.6594V19.3241C23.6594 19.1851 23.6042 19.0518 23.5059 18.9535C23.4076 18.8552 23.2743 18.8 23.1354 18.8C22.9964 18.8 22.8631 18.8552 22.7648 18.9535C22.6665 19.0518 22.6113 19.1851 22.6113 19.3241V25.7925V25.8012V28.9516H16.1048V18.8539C16.1048 18.7502 16.0741 18.6489 16.0165 18.5627C15.9589 18.4765 15.877 18.4093 15.7812 18.3697C15.6854 18.33 15.58 18.3196 15.4783 18.3399C15.3767 18.3602 15.2833 18.4101 15.21 18.4835L12.7337 20.96C12.6119 21.0823 12.4671 21.1793 12.3076 21.2455C12.1482 21.3116 11.9773 21.3457 11.8046 21.3457C11.632 21.3457 11.4611 21.3116 11.3017 21.2455C11.1422 21.1793 10.9974 21.0823 10.8756 20.96L6.77288 16.8574L8.03422 15.5942L11.4341 18.9947C11.5323 19.0929 11.6655 19.1482 11.8045 19.1483H11.8075C11.8766 19.148 11.945 19.1341 12.0088 19.1072C12.0725 19.0804 12.1303 19.0412 12.1788 18.992L15.0929 16.0359C15.3176 15.8089 15.5849 15.6285 15.8796 15.5052C16.1742 15.3818 16.4903 15.318 16.8098 15.3172H22.0941C22.9826 15.318 23.8345 15.6713 24.4628 16.2996C25.091 16.9278 25.4443 17.7797 25.4451 18.6682V25.2684ZM28.9519 19.6834C28.9513 20.2297 28.7341 20.7534 28.3478 21.1397C27.9615 21.5259 27.4378 21.7432 26.8916 21.7437H26.4933V18.6682C26.4919 17.5019 26.028 16.3838 25.2033 15.5591C24.3786 14.7344 23.2604 14.2704 22.0941 14.2691H16.8086C16.3503 14.27 15.8967 14.3616 15.474 14.5384C15.0512 14.7152 14.6676 14.9739 14.3452 15.2996L11.8018 17.8794L8.72779 14.8054C8.72779 14.8012 8.72779 14.7976 8.72779 14.7938V8.7212C8.72779 8.58221 8.67257 8.44891 8.57429 8.35063C8.47601 8.25235 8.34271 8.19713 8.20372 8.19713C8.06473 8.19713 7.93143 8.25235 7.83315 8.35063C7.73487 8.44891 7.67966 8.58221 7.67966 8.7212V14.4685C7.67397 14.4736 7.66798 14.4772 7.66259 14.4826L5.65917 16.486C5.61046 16.5347 5.57182 16.5924 5.54546 16.656C5.5191 16.7196 5.50553 16.7878 5.50553 16.8566C5.50553 16.9255 5.5191 16.9936 5.54546 17.0572C5.57182 17.1208 5.61046 17.1786 5.65917 17.2272L10.1332 21.7009C10.1481 21.7159 10.1649 21.7291 10.1802 21.7437H5.10845C4.56219 21.7432 4.03846 21.5259 3.6522 21.1397C3.26593 20.7534 3.04868 20.2297 3.04813 19.6834V5.10845C3.04868 4.56219 3.26593 4.03846 3.6522 3.6522C4.03846 3.26593 4.56219 3.04868 5.10845 3.04813H26.8916C27.4378 3.04868 27.9615 3.26593 28.3478 3.6522C28.7341 4.03846 28.9513 4.56219 28.9519 5.10845V19.6834Z" fill="black"/>
<path d="M19.498 6.8208C18.8622 6.82074 18.2407 7.00922 17.712 7.36241C17.1833 7.7156 16.7713 8.21762 16.5279 8.805C16.2846 9.39238 16.2209 10.0387 16.345 10.6623C16.469 11.2859 16.7751 11.8587 17.2247 12.3082C17.6743 12.7578 18.2471 13.0639 18.8706 13.188C19.4942 13.312 20.1405 13.2483 20.7279 13.005C21.3153 12.7616 21.8173 12.3496 22.1705 11.8209C22.5237 11.2923 22.7122 10.6707 22.7121 10.035C22.7111 9.18283 22.3721 8.36589 21.7696 7.76334C21.167 7.1608 20.3501 6.82183 19.498 6.8208ZM19.498 12.2013C19.0695 12.2014 18.6506 12.0743 18.2943 11.8363C17.938 11.5983 17.6603 11.26 17.4963 10.8642C17.3323 10.4683 17.2894 10.0328 17.3729 9.61251C17.4565 9.19227 17.6628 8.80624 17.9657 8.50324C18.2687 8.20024 18.6547 7.99389 19.0749 7.91028C19.4952 7.82666 19.9308 7.86955 20.3266 8.0335C20.7225 8.19746 21.0608 8.47512 21.2989 8.83138C21.5369 9.18764 21.664 9.60649 21.664 10.035C21.6633 10.6092 21.4349 11.1598 21.0288 11.5659C20.6228 11.972 20.0722 12.2005 19.498 12.2013Z" fill="black"/>
</svg>
