<svg width="32" height="32" viewBox="0 0 32 32" fill="none" xmlns="http://www.w3.org/2000/svg">
<path d="M29.4409 14.04C29.2953 14.04 29.1497 13.9784 29.0433 13.8776C28.9425 13.7712 28.8809 13.6256 28.8809 13.48C28.8809 13.3344 28.9425 13.1888 29.0433 13.0824C29.2561 12.8752 29.6313 12.8752 29.8385 13.0824C29.9393 13.1888 30.0009 13.3344 30.0009 13.48C30.0009 13.6312 29.9393 13.7712 29.8385 13.8776C29.7321 13.9784 29.5865 14.04 29.4409 14.04Z" fill="black"/>
<path d="M10.3998 24.1201C10.2542 24.1201 10.1086 24.0585 10.0022 23.9577C9.90144 23.8513 9.83984 23.7057 9.83984 23.5601C9.83984 23.4145 9.90144 23.2689 10.0022 23.1625C10.215 22.9553 10.5846 22.9553 10.7974 23.1625C10.8982 23.2689 10.9598 23.4145 10.9598 23.5601C10.9598 23.7057 10.8982 23.8513 10.7974 23.9577C10.691 24.0585 10.5454 24.1201 10.3998 24.1201Z" fill="black"/>
<path d="M29.4409 18.5199C29.1317 18.5199 28.8809 18.269 28.8809 17.9599V15.7199C28.8809 15.4108 29.1317 15.1599 29.4409 15.1599C29.75 15.1599 30.0009 15.4108 30.0009 15.7199V17.9599C30.0009 18.269 29.75 18.5199 29.4409 18.5199Z" fill="black"/>
<path d="M29.4409 11.8C29.1317 11.8 28.8809 11.5491 28.8809 11.24V4.79999C28.8809 4.49087 29.1317 4.23999 29.4409 4.23999C29.75 4.23999 30.0009 4.49087 30.0009 4.79999V11.24C30.0009 11.5491 29.75 11.8 29.4409 11.8Z" fill="black"/>
<path d="M10.3998 21.8799C10.0907 21.8799 9.83984 21.6291 9.83984 21.3199V14.7075C9.83984 14.3983 10.0907 14.1475 10.3998 14.1475C10.709 14.1475 10.9598 14.3983 10.9598 14.7075V21.3199C10.9598 21.6291 10.709 21.8799 10.3998 21.8799Z" fill="black"/>
<path d="M10.3998 28.6C10.0907 28.6 9.83984 28.3491 9.83984 28.04V25.8C9.83984 25.4909 10.0907 25.24 10.3998 25.24C10.709 25.24 10.9598 25.4909 10.9598 25.8V28.04C10.9598 28.3491 10.709 28.6 10.3998 28.6Z" fill="black"/>
<path d="M17.7514 28.3245C17.4423 28.3245 17.1914 28.0736 17.1914 27.7645V19.08C17.1914 18.7709 17.4423 18.52 17.7514 18.52C18.0605 18.52 18.3114 18.7709 18.3114 19.08V27.7645C18.3114 28.0736 18.0611 28.3245 17.7514 28.3245Z" fill="black"/>
<path d="M28.3198 19.6399C28.0106 19.6399 27.7598 19.389 27.7598 19.0799C27.7598 18.7708 28.0106 18.5199 28.3198 18.5199C28.6283 18.5199 28.8798 18.2685 28.8798 17.9599C28.8798 17.6508 29.1306 17.3999 29.4398 17.3999C29.7489 17.3999 29.9998 17.6508 29.9998 17.9599C29.9998 18.8861 29.246 19.6399 28.3198 19.6399Z" fill="black"/>
<path d="M28.3198 19.64H10.3998C10.0907 19.64 9.83984 19.3891 9.83984 19.08C9.83984 18.7709 10.0907 18.52 10.3998 18.52H28.3198C28.629 18.52 28.8798 18.7709 28.8798 19.08C28.8798 19.3891 28.629 19.64 28.3198 19.64Z" fill="black"/>
<path d="M26.0804 9.83997H17.8842C17.5751 9.83997 17.3242 9.58909 17.3242 9.27997C17.3242 8.97085 17.5751 8.71997 17.8842 8.71997H26.0804C26.3895 8.71997 26.6404 8.97085 26.6404 9.27997C26.6404 9.58909 26.3895 9.83997 26.0804 9.83997Z" fill="black"/>
<path d="M26.0796 12.08H18.5112C18.2021 12.08 17.9512 11.8291 17.9512 11.52C17.9512 11.2108 18.2021 10.96 18.5112 10.96H26.0796C26.3887 10.96 26.6396 11.2108 26.6396 11.52C26.6396 11.8291 26.3887 12.08 26.0796 12.08Z" fill="black"/>
<path d="M26.0807 14.32H17.3979C17.0888 14.32 16.8379 14.0691 16.8379 13.76C16.8379 13.4508 17.0888 13.2 17.3979 13.2H26.0807C26.3898 13.2 26.6407 13.4508 26.6407 13.76C26.6407 14.0691 26.3898 14.32 26.0807 14.32Z" fill="black"/>
<path d="M23.8406 7.59998H13.2006C12.8915 7.59998 12.6406 7.3491 12.6406 7.03998C12.6406 6.73086 12.8915 6.47998 13.2006 6.47998H23.8406C24.1497 6.47998 24.4006 6.73086 24.4006 7.03998C24.4006 7.3491 24.1497 7.59998 23.8406 7.59998Z" fill="black"/>
<path d="M18.5209 4.24C18.2118 4.24 17.9609 3.98912 17.9609 3.68V2.56C17.9609 2.25088 18.2118 2 18.5209 2C18.8301 2 19.0809 2.25088 19.0809 2.56V3.68C19.0809 3.98912 18.8301 4.24 18.5209 4.24Z" fill="black"/>
<path d="M7.59906 7.59775C7.28994 7.59775 7.03906 7.34687 7.03906 7.03775V4.79999C7.03906 4.49087 7.28994 4.23999 7.59906 4.23999C7.90818 4.23999 8.15906 4.49087 8.15906 4.79999V7.03775C8.15906 7.34687 7.90818 7.59775 7.59906 7.59775Z" fill="black"/>
<path d="M7.59906 5.36012C7.28994 5.36012 7.03906 5.10924 7.03906 4.80012C7.03906 3.87388 7.79282 3.12012 8.71906 3.12012C9.02818 3.12012 9.27906 3.371 9.27906 3.68012C9.27906 3.98924 9.02818 4.24012 8.71906 4.24012C8.4105 4.24012 8.15906 4.49156 8.15906 4.80012C8.15906 5.10924 7.90818 5.36012 7.59906 5.36012Z" fill="black"/>
<path d="M28.3202 4.24012H8.72016C8.41104 4.24012 8.16016 3.98924 8.16016 3.68012C8.16016 3.371 8.41104 3.12012 8.72016 3.12012H28.3202C28.6293 3.12012 28.8802 3.371 28.8802 3.68012C28.8802 3.98924 28.6293 4.24012 28.3202 4.24012Z" fill="black"/>
<path d="M29.4398 5.36012C29.1306 5.36012 28.8798 5.10924 28.8798 4.80012C28.8798 4.49156 28.6283 4.24012 28.3198 4.24012C28.0106 4.24012 27.7598 3.98924 27.7598 3.68012C27.7598 3.371 28.0106 3.12012 28.3198 3.12012C29.246 3.12012 29.9998 3.87388 29.9998 4.80012C29.9998 5.10924 29.7489 5.36012 29.4398 5.36012Z" fill="black"/>
<path d="M4.14962 13.537C3.91274 13.537 3.6921 13.3852 3.6165 13.1466C3.52242 12.8521 3.68538 12.5368 3.97994 12.4433C5.78594 11.867 7.7241 11.7534 9.58554 12.1151C9.88906 12.1739 10.0873 12.4679 10.0291 12.7714C9.97026 13.075 9.67738 13.271 9.37274 13.215C7.69442 12.8885 5.94778 12.9915 4.32042 13.5106C4.2633 13.528 4.20618 13.537 4.14962 13.537Z" fill="black"/>
<path d="M9.48035 13.2245C9.26979 13.2245 9.06763 13.1053 8.97243 12.9009C8.84195 12.6209 8.96291 12.2877 9.24347 12.1566L14.4526 9.7279C14.7315 9.59686 15.0664 9.71782 15.1968 9.99894C15.3273 10.2789 15.2064 10.6121 14.9258 10.7432L9.71667 13.1719C9.64051 13.2083 9.55987 13.2245 9.48035 13.2245Z" fill="black"/>
<path d="M15.6349 12.8259C15.4243 12.8259 15.2222 12.7066 15.127 12.5028C14.9965 12.2228 15.1175 11.889 15.3975 11.7586C15.8488 11.548 15.6747 11.1146 15.6349 11.03C15.5957 10.9454 15.3779 10.5344 14.9237 10.7438C14.6443 10.8749 14.3099 10.7539 14.1795 10.4728C14.049 10.1928 14.1699 9.85961 14.4505 9.72857C15.4271 9.27217 16.2968 9.79969 16.6496 10.5568C17.0024 11.3134 16.8479 12.318 15.8707 12.7738C15.7951 12.8091 15.7144 12.8259 15.6349 12.8259Z" fill="black"/>
<path d="M10.4003 15.2675C10.1897 15.2675 9.98757 15.1483 9.89237 14.9444C9.76189 14.6639 9.88285 14.3307 10.1628 14.2002L15.3988 11.7586C15.6788 11.627 16.0126 11.7491 16.1431 12.0291C16.2736 12.3096 16.1526 12.6428 15.8726 12.7733L10.6366 15.2149C10.5604 15.2507 10.4798 15.2675 10.4003 15.2675Z" fill="black"/>
<path d="M12.5112 30.0002C12.3549 30.0002 12.1993 29.9353 12.0889 29.8081C11.8857 29.5746 11.9103 29.2213 12.1433 29.018L17.3854 24.4517C17.6189 24.2485 17.9723 24.2731 18.1756 24.5061C18.3789 24.7396 18.3542 25.0929 18.1213 25.2962L12.8791 29.8625C12.7727 29.9549 12.6417 30.0002 12.5112 30.0002Z" fill="black"/>
<path d="M22.9932 30.0002C22.8627 30.0002 22.7317 29.9549 22.6258 29.8625L17.3837 25.2962C17.1502 25.0929 17.1261 24.7396 17.3294 24.5061C17.5321 24.2731 17.886 24.2485 18.1195 24.4517L23.3617 29.018C23.5952 29.2213 23.6193 29.5746 23.416 29.8081C23.3051 29.9353 23.15 30.0002 22.9932 30.0002Z" fill="black"/>
<path d="M2.56 21.4577C2.25088 21.4577 2 21.2069 2 20.8977V15.1208C2 14.8117 2.25088 14.5608 2.56 14.5608C2.86912 14.5608 3.12 14.8117 3.12 15.1208V20.8977C3.12 21.2069 2.86912 21.4577 2.56 21.4577Z" fill="black"/>
<path d="M2.56 15.6808C2.25088 15.6808 2 15.4299 2 15.1208C2 13.8781 2.79912 12.8013 3.98856 12.4406C4.28424 12.3505 4.59728 12.5185 4.68688 12.8141C4.77648 13.1104 4.60904 13.4229 4.31336 13.5125C3.59936 13.7292 3.12 14.3754 3.12 15.1208C3.12 15.4299 2.86912 15.6808 2.56 15.6808Z" fill="black"/>
<path d="M4.80023 28.6001C4.49111 28.6001 4.24023 28.3492 4.24023 28.0401V15.7285C4.24023 15.4193 4.49111 15.1685 4.80023 15.1685C5.10935 15.1685 5.36023 15.4193 5.36023 15.7285V28.0401C5.36023 28.3492 5.10935 28.6001 4.80023 28.6001Z" fill="black"/>
<path d="M7.60049 13.0259C5.82585 13.0259 4.32617 11.5263 4.32617 9.75161C4.32617 7.97697 5.82585 6.47729 7.60049 6.47729C9.37513 6.47729 10.8748 7.97641 10.8748 9.75161C10.8748 11.5268 9.37513 13.0259 7.60049 13.0259ZM7.60049 7.59786C6.43289 7.59786 5.44617 8.58458 5.44617 9.75218C5.44617 10.9198 6.43289 11.9065 7.60049 11.9065C8.76809 11.9065 9.75481 10.9198 9.75481 9.75218C9.75481 8.58402 8.76809 7.59786 7.60049 7.59786Z" fill="black"/>
<path d="M7.59906 28.6001C7.28994 28.6001 7.03906 28.3493 7.03906 28.0401V20.8979C7.03906 20.5888 7.28994 20.3379 7.59906 20.3379C7.90818 20.3379 8.15906 20.5888 8.15906 20.8979V28.0401C8.15906 28.3493 7.90818 28.6001 7.59906 28.6001Z" fill="black"/>
<path d="M3.68 22.5415C2.84504 22.5415 2 21.977 2 20.8979C2 20.5888 2.25088 20.3379 2.56 20.3379C2.86912 20.3379 3.12 20.5888 3.12 20.8979C3.12 21.3963 3.58648 21.4215 3.68 21.4215C3.77352 21.4215 4.24 21.3963 4.24 20.8979C4.24 20.5888 4.49088 20.3379 4.8 20.3379C5.10912 20.3379 5.36 20.5888 5.36 20.8979C5.36 21.977 4.51496 22.5415 3.68 22.5415Z" fill="black"/>
<path d="M8.99906 29.9541C8.49842 29.9541 8.0269 29.7861 7.6713 29.4803C7.26362 29.1297 7.03906 28.6179 7.03906 28.04C7.03906 27.7309 7.28994 27.48 7.59906 27.48C7.90818 27.48 8.15906 27.7309 8.15906 28.04C8.15906 28.8117 8.91338 28.8341 8.99906 28.8341C9.08474 28.8341 9.83906 28.8117 9.83906 28.04C9.83906 27.7309 10.0899 27.48 10.3991 27.48C10.7082 27.48 10.9591 27.7309 10.9591 28.04C10.9591 29.2966 9.9729 29.9541 8.99906 29.9541Z" fill="black"/>
<path d="M6.20023 29.9541C5.69959 29.9541 5.22807 29.7861 4.87247 29.4803C4.46479 29.1297 4.24023 28.6179 4.24023 28.04C4.24023 27.7309 4.49111 27.48 4.80023 27.48C5.10935 27.48 5.36023 27.7309 5.36023 28.04C5.36023 28.8117 6.11455 28.8341 6.20023 28.8341C6.28591 28.8341 7.04023 28.8117 7.04023 28.04C7.04023 27.7309 7.29111 27.48 7.60023 27.48C7.90935 27.48 8.16023 27.7309 8.16023 28.04C8.16023 29.2966 7.17407 29.9541 6.20023 29.9541Z" fill="black"/>
</svg>
