<svg width="32" height="32" viewBox="0 0 32 32" fill="none" xmlns="http://www.w3.org/2000/svg">
<path d="M26.639 2.14623C24.2515 -0.241267 20.536 -0.679017 17.6736 1.04517C16.971 0.561233 15.9993 0.631045 15.3749 1.25536C14.7504 1.87986 14.6808 2.85167 15.1649 3.5543C14.3904 4.84167 14.0286 6.34905 14.1364 7.85605L12.7438 9.55767C12.5778 9.76067 12.6076 10.0599 12.8106 10.2259C12.8988 10.2982 13.0053 10.3333 13.1111 10.3333C13.2486 10.3333 13.385 10.2739 13.4789 10.1592L14.6604 8.71536L20.0701 14.1242L9.13163 23.0767C8.68956 23.4388 8.05375 23.4324 7.61669 23.059C7.59338 23.0394 7.5715 23.0193 7.54981 22.9977L5.78756 21.2354C5.76131 21.2092 5.73644 21.1818 5.71212 21.1521C5.35369 20.7199 5.35237 20.0896 5.70869 19.6535L12.494 11.3624C12.6601 11.1594 12.6302 10.8602 12.4272 10.6941C12.2242 10.528 11.9251 10.5579 11.759 10.7609L4.97356 19.0523C4.33031 19.8394 4.3335 20.9774 4.97944 21.7564C5.02181 21.808 5.06775 21.8587 5.11606 21.907L5.66138 22.4522L4.08913 24.0245C2.92081 25.1928 2.92081 27.0938 4.08913 28.2621C5.25744 29.4304 7.15844 29.4304 8.32675 28.2621L11.957 24.6319C12.8193 23.7697 14.2221 23.7697 15.0843 24.6319C15.9464 25.494 15.9464 26.8969 15.0843 27.7591L11.6541 31.1892C11.4687 31.3747 11.4687 31.6753 11.6541 31.8608C11.7468 31.9535 11.8684 31.9999 11.9899 31.9999C12.1114 31.9999 12.2329 31.9535 12.3256 31.8608L15.7557 28.4307C16.9882 27.1982 16.9882 25.1928 15.7557 23.9603C14.5232 22.7279 12.5179 22.7279 11.2854 23.9603L7.65513 27.5905C6.85706 28.3886 5.55862 28.3886 4.76062 27.5905C4.37406 27.204 4.16113 26.69 4.16113 26.1433C4.16113 25.5966 4.374 25.0826 4.76062 24.696L6.33288 23.1238L6.87831 23.6693C6.919 23.7099 6.96187 23.7492 7.00269 23.7835C7.40056 24.1235 7.89231 24.294 8.38444 24.294C8.86206 24.294 9.34013 24.1335 9.73319 23.8115L20.9284 14.6488C22.4359 14.7568 23.9433 14.3949 25.2309 13.6203C25.5377 13.8317 25.8957 13.9379 26.2539 13.9379C26.7159 13.9379 27.1781 13.762 27.5298 13.4102C28.1542 12.7858 28.2239 11.8141 27.74 11.1115C29.4643 8.2493 29.0266 4.53367 26.639 2.14623ZM26.8582 12.7387C26.6968 12.9001 26.4822 12.989 26.2539 12.989C26.0256 12.989 25.8109 12.9002 25.6495 12.7387L23.2599 10.349C23.0744 10.1636 22.7738 10.1636 22.5883 10.349C22.4029 10.5345 22.4029 10.8351 22.5883 11.0206L24.5081 12.9404C23.4386 13.5233 22.2133 13.7888 20.9884 13.6995L15.0857 7.79767C14.9962 6.57248 15.2616 5.3468 15.8447 4.27705L21.4169 9.8493C21.6024 10.0347 21.9031 10.0347 22.0885 9.8493C22.2739 9.66386 22.2739 9.36323 22.0885 9.17773L16.0464 3.13567C15.7132 2.80242 15.7132 2.26017 16.0464 1.92698C16.3797 1.59367 16.9219 1.59373 17.2552 1.92698L26.8582 11.53C27.1916 11.8632 27.1916 12.4055 26.8582 12.7387ZM27.0604 10.3889L18.3963 1.72486C20.8533 0.382983 23.9532 0.803545 25.9674 2.8178C27.9817 4.83205 28.4023 7.93198 27.0604 10.3889Z" fill="black"/>
</svg>
