<svg width="32" height="32" viewBox="0 0 32 32" fill="none" xmlns="http://www.w3.org/2000/svg">
<path d="M25.8358 29.3654L25.8358 18.2389C27.072 17.9716 28.041 16.8356 28.041 15.5325C28.041 14.1959 27.1055 13.0933 25.8358 12.826L25.8358 2.60168C25.8358 2.26755 25.5685 2.00024 25.2343 2.00024C24.9002 2.00024 24.6329 2.26755 24.6329 2.60168L24.6329 12.7926C23.3966 13.0599 22.4276 14.1959 22.4276 15.499C22.4276 16.8356 23.3632 17.9382 24.6329 18.2055L24.6329 29.3654C24.6329 29.6995 24.9002 29.9668 25.2343 29.9668C25.5685 29.9668 25.8358 29.6995 25.8358 29.3654ZM23.5971 15.5325C23.5971 14.6637 24.2988 13.9286 25.2009 13.9286C26.1031 13.9286 26.8047 14.6303 26.8047 15.5325C26.8047 16.4012 26.1031 17.1363 25.2009 17.1363C24.3322 17.1363 23.5971 16.4346 23.5971 15.5325Z" fill="black"/>
<path d="M16.5838 29.3986L16.5838 12.5251C17.8201 12.2578 18.7891 11.1217 18.7891 9.81861C18.7891 8.4821 17.8535 7.37947 16.5838 7.11217L16.5838 2.60143C16.5838 2.2673 16.3165 2 15.9824 2C15.6483 2 15.3809 2.2673 15.3809 2.60143L15.3809 7.11217C14.1447 7.37947 13.1757 8.51551 13.1757 9.81861C13.1757 11.1551 14.1113 12.2578 15.3809 12.5251L15.3809 29.3986C15.3809 29.7327 15.6482 30 15.9824 30C16.3165 30 16.5838 29.7327 16.5838 29.3986ZM14.3786 9.81861C14.3786 8.94988 15.0802 8.2148 15.9824 8.2148C16.8511 8.2148 17.5862 8.94988 17.5862 9.81861C17.5862 10.6874 16.8845 11.4224 15.9824 11.4224C15.1136 11.4224 14.3786 10.7208 14.3786 9.81861Z" fill="black"/>
<path d="M7.36506 29.3652L7.36506 24.1193C8.60134 23.852 9.57031 22.716 9.57031 21.4129C9.57031 20.0764 8.63475 18.9737 7.36506 18.7064L7.36506 2.60143C7.36506 2.2673 7.09776 2 6.76363 2C6.4295 2 6.1622 2.2673 6.1622 2.60143L6.1622 18.673C4.92592 18.9403 3.95695 20.0764 3.95695 21.3795C3.95695 22.716 4.89251 23.8186 6.1622 24.0859L6.1622 29.3652C6.1622 29.6993 6.4295 29.9666 6.76363 29.9666C7.09776 29.9666 7.36506 29.6993 7.36506 29.3652ZM5.1264 21.3795C5.1264 20.5107 5.82807 19.7757 6.73022 19.7757C7.63236 19.7757 8.33404 20.5107 8.33404 21.3795C8.33404 22.2482 7.63236 22.9833 6.73022 22.9833C5.82807 22.9833 5.1264 22.2816 5.1264 21.3795Z" fill="black"/>
</svg>
