<svg width="32" height="32" viewBox="0 0 32 32" fill="none" xmlns="http://www.w3.org/2000/svg">
<g clip-path="url(#clip0_4102_2679)">
<path d="M16.0243 6.89722C11.4952 6.89722 7.79492 10.5975 7.79492 15.1266C7.79492 17.4948 8.831 19.7742 10.5775 21.3135C11.88 22.616 11.7616 25.3986 11.732 25.4282C11.732 25.5762 11.7616 25.6946 11.88 25.813C11.9688 25.9018 12.1168 25.961 12.2353 25.961H19.7838C19.9318 25.961 20.0502 25.9018 20.139 25.813C20.2279 25.7242 20.2871 25.5762 20.2871 25.4282C20.2871 25.3986 20.139 22.616 21.4415 21.3135C21.4711 21.2839 21.5007 21.2543 21.5304 21.2247C23.2473 19.6558 24.2538 17.4356 24.2538 15.1266C24.2538 10.5975 20.5535 6.89722 16.0243 6.89722ZM20.7607 20.5438C20.7311 20.5734 20.6719 20.6326 20.6719 20.6623C19.5174 21.9055 19.3102 23.9481 19.2806 24.925H12.7385C12.7089 23.9481 12.5017 21.8167 11.2584 20.5438C9.68946 19.1821 8.77179 17.1988 8.77179 15.097C8.77179 11.1007 11.9984 7.87409 15.9947 7.87409C19.991 7.87409 23.2177 11.1007 23.2177 15.097C23.2177 17.1988 22.3296 19.1821 20.7607 20.5438Z" fill="#231F20"/>
<path d="M15.9954 8.99902C15.729 8.99902 15.4922 9.23584 15.4922 9.50226C15.4922 9.76868 15.729 10.0055 15.9954 10.0055C18.9852 10.0055 21.383 12.4329 21.383 15.3931C21.383 15.6595 21.6198 15.8963 21.8863 15.8963C22.1527 15.8963 22.3895 15.6595 22.3895 15.3931C22.4191 11.8704 19.5477 8.99902 15.9954 8.99902Z" fill="#231F20"/>
<path d="M19.2818 26.5237H12.7101C12.0292 26.5237 11.4668 27.0861 11.4668 27.767C11.4668 28.4478 12.0292 29.0103 12.7101 29.0103H19.2522C19.9626 28.9807 20.5251 28.4478 20.5251 27.767C20.5251 27.0861 19.9626 26.5237 19.2818 26.5237ZM19.2818 27.9742H12.7101C12.5917 27.9742 12.4733 27.8854 12.4733 27.7374C12.4733 27.5894 12.5621 27.5006 12.7101 27.5006H19.2522C19.3706 27.5006 19.489 27.5894 19.489 27.7374C19.489 27.8854 19.4002 27.9742 19.2818 27.9742Z" fill="#231F20"/>
<path d="M18.3046 29.5134H13.6867C13.0058 29.5134 12.4434 30.0759 12.4434 30.7567C12.4434 31.4376 13.0058 32 13.6867 32H18.3046C18.9854 32 19.5479 31.4376 19.5479 30.7567C19.5479 30.0463 18.9854 29.5134 18.3046 29.5134ZM18.3046 30.9639H13.6867C13.5682 30.9639 13.4498 30.8751 13.4498 30.7271C13.4498 30.5791 13.5386 30.4903 13.6867 30.4903H18.3046C18.423 30.4903 18.5414 30.5791 18.5414 30.7271C18.5414 30.8751 18.423 30.9639 18.3046 30.9639Z" fill="#231F20"/>
<path d="M15.9954 4.44033C16.2914 4.44033 16.4987 4.20352 16.4987 3.9371V0.503238C16.4987 0.236818 16.2618 0 15.9954 0C15.729 0 15.4922 0.236818 15.4922 0.503238V3.9371C15.4922 4.20352 15.729 4.44033 15.9954 4.44033Z" fill="#231F20"/>
<path d="M24.372 2.54567C24.1352 2.36806 23.8392 2.45686 23.6912 2.66408L21.7966 5.50589C21.619 5.74271 21.6782 6.06833 21.915 6.21635C22.0038 6.27555 22.0927 6.30515 22.1815 6.30515C22.3591 6.30515 22.5071 6.21635 22.5959 6.06833L24.4904 3.22652C24.668 3.01931 24.6088 2.69368 24.372 2.54567Z" fill="#231F20"/>
<path d="M9.98507 6.18698C10.0739 6.18698 10.1627 6.15738 10.2515 6.09817C10.4883 5.95016 10.5475 5.62454 10.3995 5.38772L8.56416 2.5163C8.41615 2.27949 8.09052 2.22028 7.85371 2.36829C7.61689 2.5163 7.55768 2.84193 7.70569 3.07875L9.54103 5.95016C9.65944 6.12777 9.80745 6.18698 9.98507 6.18698Z" fill="#231F20"/>
<path d="M6.40409 9.32463L3.41426 7.69651C3.17744 7.5781 2.85182 7.6669 2.73341 7.90372C2.5854 8.14054 2.67421 8.46616 2.94063 8.58457L5.93045 10.2127C6.01926 10.2423 6.07846 10.2719 6.16727 10.2719C6.34488 10.2719 6.5225 10.1831 6.6113 10.0055C6.72971 9.76866 6.6409 9.44304 6.40409 9.32463Z" fill="#231F20"/>
<path d="M29.2859 7.90372C29.1675 7.6669 28.8419 7.5781 28.605 7.69651L25.5856 9.32463C25.3488 9.44304 25.26 9.76866 25.3784 10.0055C25.4672 10.1831 25.6448 10.2719 25.8224 10.2719C25.9112 10.2719 26 10.2423 26.0592 10.2127L29.0787 8.58457C29.3155 8.46616 29.4043 8.14054 29.2859 7.90372Z" fill="#231F20"/>
</g>
<defs>
<clipPath id="clip0_4102_2679">
<rect width="32" height="32" fill="white"/>
</clipPath>
</defs>
</svg>
