<svg width="32" height="32" viewBox="0 0 32 32" fill="none" xmlns="http://www.w3.org/2000/svg">
<path d="M3.02016 4.8302H3.44516C3.33635 6.51888 3.34971 8.21321 3.48516 9.89995V22.0262C3.27223 22.0264 3.0618 22.072 2.86796 22.1602C2.67413 22.2483 2.50137 22.3768 2.36127 22.5372C2.22117 22.6975 2.11696 22.886 2.05563 23.0899C1.9943 23.2938 1.97726 23.5084 2.00566 23.7195C2.00605 24.106 2.15979 24.4766 2.43313 24.75C2.70648 25.0233 3.07709 25.1771 3.46366 25.1775H7.98616L6.36116 30.4275C6.33874 30.5023 6.33403 30.5813 6.34741 30.6582C6.36078 30.7351 6.39186 30.8079 6.43821 30.8708C6.48455 30.9336 6.54488 30.9848 6.61442 31.0204C6.68396 31.0559 6.76082 31.0747 6.83891 31.0755H9.18166C9.28694 31.0755 9.38954 31.0422 9.47483 30.9805C9.56012 30.9188 9.62375 30.8317 9.65666 30.7317L11.4832 25.1785H20.0429L21.8697 30.7317C21.9026 30.8317 21.9662 30.9188 22.0515 30.9805C22.1368 31.0422 22.2394 31.0755 22.3447 31.0755H24.6877C24.7657 31.0747 24.8426 31.0559 24.9121 31.0204C24.9817 30.9848 25.042 30.9336 25.0884 30.8708C25.1347 30.8079 25.1658 30.7351 25.1792 30.6582C25.1925 30.5813 25.1878 30.5023 25.1654 30.4275L23.5404 25.1775H27.3182C27.5293 25.1743 27.7373 25.1264 27.9285 25.037C28.1198 24.9476 28.2899 24.8186 28.4276 24.6586C28.5654 24.4987 28.6677 24.3113 28.7278 24.1089C28.7879 23.9065 28.8043 23.6937 28.7762 23.4845C28.7758 23.0979 28.622 22.7272 28.3487 22.4538C28.0754 22.1805 27.7047 22.0267 27.3182 22.0262H26.9682V19.3562H29.8682C29.9709 19.3545 30.0707 19.3213 30.154 19.2612C30.2374 19.2011 30.3003 19.1168 30.3343 19.0199C30.3684 18.9229 30.3719 18.8178 30.3444 18.7188C30.3169 18.6198 30.2598 18.5315 30.1807 18.466C26.3967 15.4387 26.7019 6.89095 26.8349 4.8302H27.2547C27.591 4.82981 27.9135 4.69601 28.1514 4.45816C28.3892 4.22031 28.523 3.89783 28.5234 3.56146V2.94771C28.523 2.61133 28.3892 2.28885 28.1514 2.051C27.9135 1.81315 27.591 1.67935 27.2547 1.67896C21.3254 1.67896 9.00466 1.67896 3.02266 1.67896C2.68628 1.67935 2.3638 1.81315 2.12595 2.051C1.8881 2.28885 1.7543 2.61133 1.75391 2.94771V3.56146C1.7543 3.89739 1.88776 4.2195 2.12507 4.45728C2.36238 4.69506 2.68422 4.82915 3.02016 4.8302ZM8.81891 30.075H7.51641L9.03316 25.178H10.4297L8.81891 30.075ZM24.0092 30.075H22.7064L21.0957 25.1775H22.4922L24.0092 30.075ZM27.3169 23.0267C27.4384 23.0269 27.5548 23.0752 27.6407 23.1611C27.7266 23.247 27.775 23.3635 27.7752 23.485V23.72C27.775 23.8414 27.7266 23.9578 27.6407 24.0437C27.5548 24.1295 27.4384 24.1778 27.3169 24.178H3.46366C3.3422 24.1778 3.22576 24.1295 3.13986 24.0437C3.05396 23.9578 3.0056 23.8414 3.00541 23.72V23.485C3.0056 23.3635 3.05395 23.247 3.13984 23.1611C3.22574 23.0752 3.34218 23.0269 3.46366 23.0267H27.3169ZM4.48516 22.0267V15.061C5.05766 16.734 5.91016 18.2387 7.16991 19.2467C7.25855 19.3176 7.36866 19.3562 7.48216 19.3562H25.9664V22.0262L4.48516 22.0267ZM28.6432 18.3567H7.66216C5.50916 16.514 4.73316 12.8375 4.48516 9.71721C4.47166 9.54771 4.52741 9.0047 4.42891 8.8597C4.35976 7.5174 4.36643 6.17226 4.44891 4.83071H25.8277C25.6859 6.95596 25.4304 14.5607 28.6432 18.3562V18.3567ZM2.75141 2.94771C2.75147 2.87645 2.77981 2.80813 2.83019 2.75774C2.88058 2.70736 2.9489 2.67902 3.02016 2.67895H27.2522C27.3234 2.67902 27.3917 2.70736 27.4421 2.75774C27.4925 2.80813 27.5208 2.87645 27.5209 2.94771V3.56146C27.5208 3.63271 27.4925 3.70103 27.4421 3.75142C27.3917 3.8018 27.3234 3.83014 27.2522 3.8302H3.02016C2.9489 3.83014 2.88058 3.8018 2.83019 3.75142C2.77981 3.70103 2.75147 3.63271 2.75141 3.56146V2.94771Z" fill="black"/>
<path d="M21.5502 7.48706C21.5502 7.35445 21.4975 7.22728 21.4037 7.13351C21.31 7.03974 21.1828 6.98706 21.0502 6.98706L8.85019 7.01956C8.71758 7.01993 8.59055 7.07295 8.49704 7.16698C8.40353 7.26101 8.3512 7.38833 8.35156 7.52094C8.35193 7.65354 8.40496 7.78058 8.49898 7.87409C8.59301 7.9676 8.72033 8.01992 8.85294 8.01956L21.0529 7.98706C21.1851 7.98633 21.3115 7.93333 21.4047 7.83965C21.4979 7.74596 21.5502 7.61919 21.5502 7.48706Z" fill="black"/>
<path d="M21.7243 10.2151L9.8098 10.2501C9.67719 10.2503 9.55009 10.3032 9.45646 10.3971C9.36284 10.491 9.31035 10.6182 9.31055 10.7508C9.31075 10.8834 9.36362 11.0105 9.45752 11.1042C9.55143 11.1978 9.67869 11.2503 9.8113 11.2501L21.7243 11.2151C21.8569 11.2151 21.9841 11.1624 22.0779 11.0686C22.1716 10.9749 22.2243 10.8477 22.2243 10.7151C22.2243 10.5825 22.1716 10.4553 22.0779 10.3615C21.9841 10.2678 21.8569 10.2151 21.7243 10.2151Z" fill="black"/>
<path d="M20.1785 13.4526L11.3715 13.4776C11.2389 13.478 11.1119 13.5311 11.0184 13.6251C10.9249 13.7192 10.8727 13.8465 10.873 13.9791C10.8734 14.1117 10.9265 14.2388 11.0206 14.3323C11.1146 14.4257 11.2419 14.478 11.3745 14.4776L20.1815 14.4526C20.3142 14.4522 20.4412 14.3992 20.5347 14.3051C20.6281 14.2111 20.6804 14.0837 20.68 13.9511C20.6797 13.8185 20.6266 13.6915 20.5325 13.598C20.4385 13.5045 20.3112 13.4522 20.1785 13.4526Z" fill="black"/>
<path d="M22.7389 13.4294C22.5968 13.4294 22.4605 13.4859 22.36 13.5864C22.2596 13.6868 22.2031 13.8231 22.2031 13.9652C22.2031 14.1073 22.2596 14.2436 22.36 14.344C22.4605 14.4445 22.5968 14.5009 22.7389 14.5009C22.881 14.5009 23.0172 14.4445 23.1177 14.344C23.2182 14.2436 23.2746 14.1073 23.2746 13.9652C23.2746 13.8231 23.2182 13.6868 23.1177 13.5864C23.0172 13.4859 22.881 13.4294 22.7389 13.4294Z" fill="black"/>
</svg>
