<svg width="17" height="17" viewBox="0 0 17 17" fill="none" xmlns="http://www.w3.org/2000/svg">
<g clip-path="url(#clip0)">
<path d="M8.58252 3.91504C5.52555 3.91504 2.75333 5.58754 0.707711 8.30412C0.540789 8.52668 0.540789 8.83761 0.707711 9.06018C2.75333 11.78 5.52555 13.4525 8.58252 13.4525C11.6395 13.4525 14.4117 11.78 16.4573 9.06345C16.6242 8.84089 16.6242 8.52995 16.4573 8.30739C14.4117 5.58754 11.6395 3.91504 8.58252 3.91504ZM8.80181 12.0419C6.77256 12.1695 5.09679 10.497 5.22443 8.46449C5.32917 6.78872 6.68746 5.43043 8.36323 5.3257C10.3925 5.19805 12.0683 6.87055 11.9406 8.90307C11.8326 10.5756 10.4743 11.9339 8.80181 12.0419ZM8.70035 10.4905C7.60717 10.5592 6.70382 9.65913 6.77583 8.56596C6.83147 7.66261 7.56462 6.93273 8.46796 6.87382C9.56114 6.80509 10.4645 7.70516 10.3925 8.79834C10.3336 9.70496 9.60042 10.4348 8.70035 10.4905Z" fill="#707070"/>
</g>
<defs>
<clipPath id="clip0">
<rect width="16" height="16" fill="white" transform="translate(0.58252 0.683594)"/>
</clipPath>
</defs>
</svg>
