<svg width="12" height="17" viewBox="0 0 12 17" fill="none" xmlns="http://www.w3.org/2000/svg">
<path d="M10.7369 3.23992C9.76585 1.56417 8.0411 0.540391 6.12313 0.501266C6.04125 0.499578 5.95885 0.499578 5.87694 0.501266C3.959 0.540391 2.23425 1.56417 1.26319 3.23992C0.27063 4.9528 0.243474 7.0103 1.19054 8.74376L5.15813 16.0059C5.15991 16.0091 5.16169 16.0123 5.16354 16.0155C5.3381 16.3189 5.65082 16.5 6.0001 16.5C6.34935 16.5 6.66207 16.3189 6.8366 16.0155C6.83844 16.0123 6.84022 16.0091 6.842 16.0059L10.8096 8.74376C11.7566 7.0103 11.7294 4.9528 10.7369 3.23992ZM6.00004 7.75002C4.75938 7.75002 3.75004 6.74067 3.75004 5.50002C3.75004 4.25936 4.75938 3.25002 6.00004 3.25002C7.24069 3.25002 8.25004 4.25936 8.25004 5.50002C8.25004 6.74067 7.24072 7.75002 6.00004 7.75002Z" fill="black"/>
</svg>
