<svg width="24" height="25" viewBox="0 0 24 25" fill="none" xmlns="http://www.w3.org/2000/svg">
<path d="M20.1216 18.3969C19.6795 17.3496 19.0379 16.3984 18.2326 15.5961C17.4297 14.7915 16.4786 14.15 15.4318 13.707C15.4224 13.7023 15.413 13.7 15.4037 13.6953C16.8638 12.6406 17.813 10.9227 17.813 8.98438C17.813 5.77344 15.2115 3.17188 12.0005 3.17188C8.78961 3.17188 6.18805 5.77344 6.18805 8.98438C6.18805 10.9227 7.13727 12.6406 8.59742 13.6977C8.58805 13.7023 8.57867 13.7047 8.5693 13.7094C7.5193 14.1523 6.57711 14.7875 5.76852 15.5984C4.96393 16.4013 4.32243 17.3524 3.87945 18.3992C3.44427 19.424 3.20957 20.5228 3.18805 21.6359C3.18742 21.661 3.19181 21.6858 3.20095 21.7091C3.21009 21.7324 3.22381 21.7537 3.24128 21.7716C3.25875 21.7895 3.27963 21.8037 3.30269 21.8134C3.32575 21.8231 3.35052 21.8281 3.37555 21.8281H4.7818C4.88492 21.8281 4.96695 21.7461 4.9693 21.6453C5.01617 19.8359 5.74273 18.1414 7.02711 16.857C8.35602 15.5281 10.1209 14.7969 12.0005 14.7969C13.8802 14.7969 15.6451 15.5281 16.974 16.857C18.2584 18.1414 18.9849 19.8359 19.0318 21.6453C19.0341 21.7484 19.1162 21.8281 19.2193 21.8281H20.6255C20.6506 21.8281 20.6753 21.8231 20.6984 21.8134C20.7215 21.8037 20.7423 21.7895 20.7598 21.7716C20.7773 21.7537 20.791 21.7324 20.8001 21.7091C20.8093 21.6858 20.8137 21.661 20.813 21.6359C20.7896 20.5156 20.5576 19.4258 20.1216 18.3969ZM12.0005 13.0156C10.9248 13.0156 9.91226 12.5961 9.15055 11.8344C8.38883 11.0727 7.9693 10.0602 7.9693 8.98438C7.9693 7.90859 8.38883 6.89609 9.15055 6.13438C9.91226 5.37266 10.9248 4.95313 12.0005 4.95313C13.0763 4.95313 14.0888 5.37266 14.8505 6.13438C15.6123 6.89609 16.0318 7.90859 16.0318 8.98438C16.0318 10.0602 15.6123 11.0727 14.8505 11.8344C14.0888 12.5961 13.0763 13.0156 12.0005 13.0156Z" fill="#6B1680"/>
</svg>
