<?xml version="1.0" encoding="utf-8"?>
<!-- Generator: Adobe Illustrator 15.1.0, SVG Export Plug-In . SVG Version: 6.00 Build 0)  -->
<!DOCTYPE svg PUBLIC "-//W3C//DTD SVG 1.1//EN" "http://www.w3.org/Graphics/SVG/1.1/DTD/svg11.dtd">
<svg version="1.1" id="Layer_1" xmlns="http://www.w3.org/2000/svg" xmlns:xlink="http://www.w3.org/1999/xlink" x="0px" y="0px"
	 width="1430.078px" height="760.4px" viewBox="0 0 1430.078 760.4" enable-background="new 0 0 1430.078 760.4"
	 xml:space="preserve">
<g>
	<path fill="#54B948" stroke="#54B948" stroke-miterlimit="10" d="M760.391,380.2c0,209.639-170.551,380.2-380.19,380.2
		S0,589.839,0,380.2C0,170.56,170.561,0,380.2,0c50.57,0,99.69,9.77,145.99,29.05c4.819,2.01,8.569,5.77,10.569,10.6
		c1.99,4.82,1.98,10.14-0.02,14.97c-3.05,7.32-10.14,12.05-18.07,12.05c-2.58,0-5.12-0.51-7.52-1.52
		c-41.5-17.27-85.561-26.03-130.95-26.03c-188.08,0-341.09,153.01-341.09,341.08c0,188.08,153.01,341.07,341.09,341.07
		c188.07,0,341.07-152.99,341.07-341.07c0-49-10.16-96.28-30.2-140.53c-2.15-4.75-2.32-10.07-0.48-14.96
		c1.841-4.89,5.471-8.77,10.24-10.92c2.55-1.16,5.271-1.75,8.061-1.75c7.67,0,14.67,4.52,17.819,11.51
		C749.061,272.88,760.391,325.58,760.391,380.2z"/>
	<g>
		<path fill="#FFC700" d="M630.965,211.385c-47.584,0-86.297-38.719-86.297-86.312c0-47.59,38.712-86.307,86.297-86.307
			c47.595,0,86.316,38.717,86.316,86.307C717.281,172.666,678.56,211.385,630.965,211.385z"/>
		<g>
			<path fill="#FFC700" d="M630.965,39.267c47.319,0,85.816,38.493,85.816,85.807c0,47.316-38.497,85.812-85.816,85.812
				c-47.309,0-85.797-38.495-85.797-85.812C545.168,77.759,583.656,39.267,630.965,39.267 M630.965,38.267
				c-47.938,0-86.797,38.869-86.797,86.807c0,47.942,38.859,86.812,86.797,86.812c47.949,0,86.816-38.869,86.816-86.812
				C717.781,77.136,678.914,38.267,630.965,38.267L630.965,38.267z"/>
		</g>
	</g>
	<path fill="#260859" stroke="#260859" stroke-miterlimit="10" d="M430.559,359.834c3.006-5.402,4.521-11.971,4.521-18.662
		c0-29.391-23.068-48.348-54.676-48.348h-78.9v174.75h117.75c31.91,0,57.182-24.334,57.182-54.984
		C476.436,380.891,456.689,364.975,430.559,359.834z M347.959,334.533h30.553c8.209,0,11.068,7.264,11.068,11.695
		c0,5.686-4.752,11.693-9.488,11.693h-32.133V334.533z M417.986,425.546h-70.027v-27.184h68.758c8.229,0,14.223,6.012,14.223,13.908
		C430.939,420.486,425.258,425.546,417.986,425.546z"/>
	<path fill="#260859" stroke="#260859" stroke-miterlimit="10" d="M228.793,323.309l59.555,144.265h-47.879l-10.748-25.594h-93.941
		l-10.436,25.594H76.84l60.969-144.607c7.703-18.273,25.594-30.143,45.43-30.143l0,0
		C203.189,292.824,221.189,304.855,228.793,323.309z M152.354,401.535h59.865l-24.5-63.984c-0.781-2.012-2.695-3.33-4.842-3.33l0,0
		c-2.119,0-4.021,1.289-4.812,3.252L152.354,401.535z"/>
	<path fill="#260859" stroke="#260859" stroke-miterlimit="10" d="M537.953,292.824v125.177c0,4.051,3.287,7.34,7.338,7.34h67.312
		V292.824h46.699v132.517h24.246v41.965h-47.594h-2.852h-91.275c-27.754,0-50.254-22.49-50.254-50.252v-124.23H537.953z"/>
	<path fill="#260859" stroke="#260859" stroke-miterlimit="10" d="M868.123,299.721l14.193,33.408h-11.469l-2.588-5.945h-22.488
		l-2.52,5.945h-11.625l14.543-33.502c1.895-4.363,6.189-7.193,10.963-7.193l0,0C861.936,292.434,866.26,295.293,868.123,299.721z
		 M849.734,317.764h14.348l-5.865-14.891c-0.186-0.482-0.664-0.795-1.172-0.795l0,0c-0.488,0-0.957,0.312-1.152,0.785
		L849.734,317.764z"/>
	<path fill="#260859" stroke="#260859" stroke-miterlimit="10" d="M1179.244,299.721l14.221,33.408h-11.508l-2.578-5.945h-22.488
		l-2.52,5.945h-11.615l14.514-33.502c1.914-4.363,6.219-7.193,10.982-7.193l0,0C1173.055,292.434,1177.379,295.293,1179.244,299.721
		z M1160.854,317.764h14.35l-5.875-14.891c-0.178-0.482-0.637-0.795-1.174-0.795l0,0c-0.498,0-0.947,0.312-1.143,0.785
		L1160.854,317.764z"/>
	<path fill="#260859" stroke="#260859" stroke-miterlimit="10" d="M921.723,307.818c-3.016-4.408-6.541-6.775-12.797-6.775
		c-7.221,0-11.986,4.559-11.986,11.777c0,7.15,4.91,11.777,11.986,11.777c6.178,0,9.928-2.354,12.729-6.697l8.395,4.715
		c-4.129,7.721-11.262,11.547-20.967,11.547c-13.119,0-22.891-8.174-22.891-21.342c0-13.1,10.016-21.334,22.891-21.334
		c9.85,0,16.838,3.895,21.025,11.549L921.723,307.818z"/>
	<path fill="#260859" stroke="#260859" stroke-miterlimit="10" d="M971.797,307.818c-3.006-4.408-6.549-6.775-12.816-6.775
		c-7.193,0-11.977,4.559-11.977,11.777c0,7.15,4.92,11.777,11.977,11.777c6.199,0,9.957-2.354,12.748-6.697l8.375,4.715
		c-4.119,7.721-11.232,11.547-20.967,11.547c-13.1,0-22.879-8.174-22.879-21.342c0-13.1,10.014-21.334,22.879-21.334
		c9.869,0,16.848,3.895,21.055,11.549L971.797,307.818z"/>
	<path fill="#260859" stroke="#260859" stroke-miterlimit="10" d="M1009.33,334.162c-12.164,0-22.9-8.609-22.9-21.342
		c0-12.719,10.736-21.334,22.9-21.334c12.143,0,22.889,8.615,22.889,21.334C1032.219,325.553,1021.473,334.162,1009.33,334.162z
		 M1009.33,324.973c6.676,0,11.977-4.715,11.977-12.152c0-7.424-5.301-12.143-11.977-12.143c-6.775,0-12.076,4.719-12.076,12.143
		C997.254,320.258,1002.555,324.973,1009.33,324.973z"/>
	<path fill="#260859" stroke="#260859" stroke-miterlimit="10" d="M1051.578,292.434v29.641c0,0.707,0.586,1.264,1.297,1.264h17.268
		v-30.904h10.873v30.904h5.584v9.791h-11.02h-0.656h-24.422c-5.379,0-9.723-4.34-9.723-9.703v-30.992H1051.578z"/>
	<path fill="#260859" stroke="#260859" stroke-miterlimit="10" d="M1211.037,292.434v29.641c0,0.707,0.574,1.264,1.277,1.264h17.258
		v-30.904h10.883v30.904h5.613v9.791h-11.051h-0.662h-24.424c-5.369,0-9.713-4.34-9.713-9.703v-30.992H1211.037z"/>
	<path fill="#260859" stroke="#260859" stroke-miterlimit="10" d="M1104.268,292.434v25.848l21.396-25.848h10.316v40.695h-10.746
		v-25.672l-21.328,25.672h-10.387v-40.695H1104.268z"/>
	<path fill="#260859" stroke="#260859" stroke-miterlimit="10" d="M1263.697,292.434v25.848l21.436-25.848h10.287v40.695h-10.746
		v-25.672l-21.346,25.672h-10.369v-40.695H1263.697z"/>
	<path fill="#260859" stroke="#260859" stroke-miterlimit="10" d="M1344.746,333.129h-10.826v-8.531h-12.652l-4.354,8.531h-11.762
		l6.111-11.021c-4.344-2.498-7.584-7.219-7.584-13.48c0-9.701,7.359-16.193,17.064-16.193h24.002V333.129z M1321.131,302.297
		c-3.844,0-6.646,2.348-6.646,6.33c0,3.904,2.803,6.043,6.646,6.043h12.789v-12.373H1321.131z"/>
	<path fill="#260859" stroke="#260859" stroke-miterlimit="10" d="M901.713,401.085c-12.145,0-22.891-8.6-22.891-21.343
		c0-12.719,10.746-21.328,22.891-21.328c12.123,0,22.889,8.609,22.889,21.328C924.602,392.486,913.836,401.085,901.713,401.085z
		 M901.713,391.91c6.686,0,11.986-4.729,11.986-12.167c0-7.412-5.301-12.137-11.986-12.137c-6.766,0-12.066,4.725-12.066,12.137
		C889.646,387.181,894.947,391.91,901.713,391.91z"/>
	<path fill="#260859" stroke="#260859" stroke-miterlimit="10" d="M975.506,359.357v40.693h-10.814v-30.972h-12.025
		c-0.615,0-1.143,0.449-1.26,1.055l-3.631,19.259c-1.328,7.516-5.896,10.658-12.943,10.658h-5.594v-9.781h5.203
		c1.475,0,2.43-0.721,2.723-2.273l3.895-20.689c0.859-4.607,4.891-7.949,9.557-7.949H975.506z"/>
	<path fill="#260859" stroke="#260859" stroke-miterlimit="10" d="M1006.986,401.085c-12.143,0-22.881-8.6-22.881-21.343
		c0-12.719,10.738-21.328,22.881-21.328c12.162,0,22.91,8.609,22.91,21.328C1029.896,392.486,1019.148,401.085,1006.986,401.085z
		 M1006.986,391.91c6.707,0,12.025-4.729,12.025-12.167c0-7.412-5.318-12.137-12.025-12.137c-6.764,0-12.055,4.725-12.055,12.137
		C994.932,387.181,1000.223,391.91,1006.986,391.91z"/>
	<path fill="#260859" stroke="#260859" stroke-miterlimit="10" d="M1049.244,359.357v14.865h19.941v-14.865h10.895v40.693h-10.895
		v-16.105h-19.941v16.105h-10.816v-40.693H1049.244z"/>
	<path fill="#260859" stroke="#260859" stroke-miterlimit="10" d="M1129.453,359.357v9.721h-15.824v30.972h-10.904v-30.972h-15.822
		v-9.721H1129.453z"/>
	<path fill="#260859" stroke="#260859" stroke-miterlimit="10" d="M1173.807,359.357v9.799h-26.639v5.379h23.904v9.771h-23.904
		v4.455c0,0.723,0.566,1.283,1.268,1.283h26.326v10.006h-28.668c-5.379,0-9.742-4.338-9.742-9.723v-30.97H1173.807z"/>
	<path fill="#260859" stroke="#260859" stroke-miterlimit="10" d="M1207.883,359.357c9.781,0,17.004,6.555,17.004,16.197
		c0,9.65-7.223,15.818-17.004,15.818h-13.236v8.678h-10.816v-40.693H1207.883z M1194.646,381.513h12.809
		c3.795,0,6.539-1.99,6.539-5.958c0-3.908-2.744-6.334-6.539-6.334h-12.809V381.513z"/>
	<path fill="#260859" stroke="#260859" stroke-miterlimit="10" d="M1266.986,374.74c-3.016-4.406-6.568-6.773-12.797-6.773
		c-7.232,0-12.006,4.562-12.006,11.775c0,7.156,4.93,11.787,12.006,11.787c6.182,0,9.918-2.361,12.709-6.695l8.404,4.715
		c-4.139,7.711-11.254,11.537-20.975,11.537c-13.102,0-22.893-8.17-22.893-21.343c0-13.094,10.018-21.328,22.893-21.328
		c9.857,0,16.836,3.891,21.043,11.543L1266.986,374.74z"/>
	<path fill="#260859" stroke="#260859" stroke-miterlimit="10" d="M1294.133,359.357v14.367h9.566l9.789-14.367h12.494l-13.1,18.857
		l13.998,21.835h-12.875L1304,383.652h-9.867v16.398h-10.738v-40.693H1294.133z"/>
	<path fill="#260859" stroke="#260859" stroke-miterlimit="10" d="M1344.207,359.357v25.847l21.406-25.847h10.328v40.693h-10.748
		v-25.662l-21.348,25.662h-10.385v-40.693H1344.207z"/>
	<path fill="#260859" stroke="#260859" stroke-miterlimit="10" d="M1395.355,359.357l10.123,15.031h1.719l10.062-15.031h12.299
		l-13.469,19.293l13.988,21.4h-12.525l-10.287-16.027h-1.924l-10.143,16.027h-12.592l14.057-21.181l-13.617-19.512H1395.355z"/>
	<path fill="#260859" stroke="#260859" stroke-miterlimit="10" d="M861.682,374.979c0.703-1.254,1.055-2.795,1.055-4.354
		c0-6.846-5.389-11.268-12.748-11.268h-18.361v40.693h27.418c7.43,0,13.314-5.652,13.314-12.797
		C872.359,379.869,867.771,376.166,861.682,374.979z M842.432,369.078h7.127c1.912,0,2.566,1.699,2.566,2.734
		c0,1.316-1.094,2.723-2.186,2.723h-7.508V369.078z M858.754,390.269h-16.322v-6.324h16.021c1.91,0,3.326,1.396,3.326,3.236
		C861.779,389.093,860.453,390.269,858.754,390.269z"/>
	<path fill="#260859" stroke="#260859" stroke-miterlimit="10" d="M842.453,426.279v29.654c0,0.703,0.584,1.26,1.287,1.26h17.248
		v-30.914H871.9v30.914h5.574v9.781h-11.029h-0.674h-24.393c-5.389,0-9.752-4.34-9.752-9.699v-30.996H842.453z"/>
	<path fill="#260859" stroke="#260859" stroke-miterlimit="10" d="M921.85,426.279v9.801h-26.639v5.379h23.916v9.77h-23.916v4.461
		c0,0.719,0.576,1.289,1.279,1.289h26.316v9.996h-28.67c-5.387,0-9.74-4.34-9.74-9.723v-30.973H921.85z"/>
	<path fill="#260859" stroke="#260859" stroke-miterlimit="10" d="M942.662,426.279v14.867h19.93v-14.867h10.885v40.695h-10.885
		v-16.107h-19.93v16.107h-10.826v-40.695H942.662z"/>
	<path fill="#260859" stroke="#260859" stroke-miterlimit="10" d="M1022.85,426.279v9.732h-15.812v30.963h-10.895v-30.963h-15.834
		v-9.732H1022.85z"/>
	<path fill="#260859" stroke="#260859" stroke-miterlimit="10" d="M1053.82,426.279c9.781,0,17.004,6.551,17.004,16.193
		c0,9.654-7.223,15.828-17.004,15.828h-13.246v8.674h-10.805v-40.695H1053.82z M1040.574,448.447h12.807
		c3.838,0,6.561-1.992,6.561-5.975c0-3.895-2.723-6.324-6.561-6.324h-12.807V448.447z"/>
	<path fill="#260859" stroke="#260859" stroke-miterlimit="10" d="M1100.402,468.017c-12.154,0-22.891-8.619-22.891-21.348
		s10.736-21.332,22.891-21.332c12.123,0,22.869,8.604,22.869,21.332S1112.525,468.017,1100.402,468.017z M1100.402,458.824
		c6.686,0,11.986-4.715,11.986-12.154c0-7.412-5.301-12.143-11.986-12.143c-6.775,0-12.086,4.73-12.086,12.143
		C1088.316,454.109,1093.627,458.824,1100.402,458.824z"/>
	<path fill="#260859" stroke="#260859" stroke-miterlimit="10" d="M1161.896,441.912c0.713-1.264,1.057-2.807,1.057-4.359
		c0-6.852-5.361-11.273-12.709-11.273h-18.393v40.695h27.42c7.428,0,13.324-5.652,13.324-12.797
		C1172.596,446.796,1167.988,443.097,1161.896,441.912z M1142.668,436.011h7.115c1.904,0,2.588,1.688,2.588,2.723
		c0,1.318-1.104,2.725-2.217,2.725h-7.486V436.011z M1158.969,457.193h-16.301v-6.326h16.018c1.914,0,3.311,1.406,3.311,3.242
		C1161.996,456.021,1160.658,457.193,1158.969,457.193z"/>
</g>
</svg>
