<svg width="714" height="262" viewBox="0 0 714 262" fill="none" xmlns="http://www.w3.org/2000/svg">
<path d="M76.9459 121.827C77.9206 121.859 78.738 122.111 79.2407 122.803C79.7434 123.495 79.8688 124.25 79.7173 125.206L71.4969 159.299C71.2259 160.236 70.7349 161.016 69.8855 161.738C69.0361 162.461 68.1429 162.687 67.1493 162.774L17.0147 163.034L33.5561 94.9866L87.3507 94.8166L84.0978 108.386L44.6417 108.501L41.3888 122.071L76.9459 121.827ZM34.5245 149.153L59.6421 149.092L62.895 135.522L37.7775 135.583L34.5245 149.153Z" fill="#1C1C34"/>
<path d="M113.002 94.4721L170.357 94.2539L153.815 162.302L96.4611 162.52L113.002 94.4721ZM123.95 108.087L114.052 148.896L142.73 148.787L152.627 107.978L123.95 108.087Z" fill="#1C1C34"/>
<path d="M223.07 115.591L191.681 162.179L175.871 162.246L221.825 94.0829L234.692 94.04L247.564 161.973L231.754 162.039L223.07 115.591Z" fill="#1C1C34"/>
<path d="M294.111 120.973L333.567 120.857L323.67 161.666L269.875 161.836L286.417 93.788L300.755 93.7334L294.111 120.973ZM312.603 148.032L315.856 134.462L290.739 134.523L287.486 148.092L312.603 148.032Z" fill="#1C1C34"/>
<path d="M424.37 147.617L437.658 93.1389L451.997 93.0843L435.455 161.132L349.424 161.46L365.966 93.4117L380.304 93.3571L367.016 147.836L388.473 147.685L401.762 93.2061L416.1 93.1515L402.812 147.63L424.37 147.617Z" fill="#1C1C34"/>
<path d="M507.29 133.693L482.172 133.754L475.528 160.993L461.19 161.048L477.731 92.9998L531.525 92.8298L514.984 160.878L500.646 160.932L507.29 133.693ZM513.934 106.454L488.817 106.515L485.564 120.084L510.681 120.023L513.934 106.454Z" fill="#1C1C34"/>
<path d="M614.632 92.4058L598.091 160.454L583.752 160.508L590.396 133.269L587.095 133.236L562.313 160.54L544.673 160.561L569.455 133.257L554.619 133.355L561.263 106.116L554.144 106.212L557.397 92.6429L614.632 92.4058ZM575.583 106.181L572.192 119.851L593.649 119.7L596.902 106.13L575.583 106.181Z" fill="#1C1C34"/>
<path d="M38.1856 250.612L51.474 196.134L30.0165 196.285L16.7281 250.763L2.38956 250.818L15.678 196.339L8.55903 196.436L11.8119 182.866L69.166 182.648L52.6246 250.696L38.1856 250.612Z" fill="#1C1C34"/>
<path d="M135.13 182.201L131.877 195.77L103.2 195.879L101.505 202.714L130.182 202.605L126.929 216.174L98.2518 216.283L93.3033 236.688L121.98 236.579L118.727 250.148L75.7118 250.312L92.2532 182.264L135.13 182.201Z" fill="#1C1C34"/>
<path d="M169.701 222.954L163.057 250.193L148.719 250.248L162.007 195.769L154.888 195.866L158.141 182.297L215.495 182.078L205.598 222.887L169.701 222.954ZM176.346 195.715L173.093 209.284L194.55 209.133L197.803 195.564L176.346 195.715Z" fill="#1C1C34"/>
<path d="M281.458 181.633L278.205 195.203L249.528 195.312L247.832 202.147L276.509 202.038L273.256 215.607L244.579 215.716L239.63 236.12L268.307 236.011L265.055 249.581L222.039 249.744L238.58 181.696L281.458 181.633Z" fill="#1C1C34"/>
<path d="M311.413 212.101L302.285 249.602L287.947 249.657L304.488 181.609L322.386 181.506L328.868 228.707L358.283 181.439L376.181 181.336L359.64 249.384L345.301 249.439L354.429 211.937L330.963 249.493L316.624 249.548L311.413 212.101Z" fill="#1C1C34"/>
<path d="M442.125 181.009L438.873 194.579L410.196 194.688L408.5 201.523L437.177 201.414L433.924 214.983L405.247 215.092L400.298 235.496L428.975 235.387L425.723 248.957L382.707 249.12L399.248 181.072L442.125 181.009Z" fill="#1C1C34"/>
<path d="M504.511 180.731L518.85 180.677L502.308 248.725L487.97 248.779L494.614 221.54L469.497 221.601L462.852 248.84L448.514 248.895L465.055 180.847L479.394 180.792L472.749 208.032L497.867 207.971L504.511 180.731Z" fill="#1C1C34"/>
<path d="M571.457 221.226L546.339 221.287L539.695 248.526L525.357 248.581L541.898 180.533L595.692 180.363L579.151 248.411L564.813 248.465L571.457 221.226ZM577.963 194.087L552.845 194.148L549.592 207.718L574.71 207.657L577.963 194.087Z" fill="#1C1C34"/>
<path opacity="0.2" d="M693.193 30.5533C698.948 30.5533 703.613 25.8881 703.613 20.1333C703.613 14.3786 698.948 9.71338 693.193 9.71338C687.439 9.71338 682.773 14.3786 682.773 20.1333C682.773 25.8881 687.439 30.5533 693.193 30.5533Z" fill="#1C1C34"/>
<path opacity="0.7" d="M646.922 76.8258C652.677 76.8258 657.342 72.1606 657.342 66.4058C657.342 60.651 652.677 55.9858 646.922 55.9858C641.167 55.9858 636.502 60.651 636.502 66.4058C636.502 72.1606 641.167 76.8258 646.922 76.8258Z" fill="#1C1C34"/>
<path opacity="0.4" d="M702.907 53.6886C708.662 53.6886 713.327 49.0234 713.327 43.2686C713.327 37.5138 708.662 32.8486 702.907 32.8486C697.152 32.8486 692.487 37.5138 692.487 43.2686C692.487 49.0234 697.152 53.6886 702.907 53.6886Z" fill="#1C1C34"/>
<path opacity="0.8" d="M637.208 53.6886C642.963 53.6886 647.628 49.0234 647.628 43.2686C647.628 37.5138 642.963 32.8486 637.208 32.8486C631.453 32.8486 626.788 37.5138 626.788 43.2686C626.788 49.0234 631.453 53.6886 637.208 53.6886Z" fill="#1C1C34"/>
<path opacity="0.5" d="M693.193 76.8258C698.948 76.8258 703.613 72.1606 703.613 66.4058C703.613 60.651 698.948 55.9858 693.193 55.9858C687.439 55.9858 682.773 60.651 682.773 66.4058C682.773 72.1606 687.439 76.8258 693.193 76.8258Z" fill="#1C1C34"/>
<path opacity="0.8" d="M646.922 30.5533C652.677 30.5533 657.342 25.8881 657.342 20.1333C657.342 14.3786 652.677 9.71338 646.922 9.71338C641.167 9.71338 636.502 14.3786 636.502 20.1333C636.502 25.8881 641.167 30.5533 646.922 30.5533Z" fill="#1C1C34"/>
<path opacity="0.6" d="M670.058 86.5391C675.812 86.5391 680.478 81.874 680.478 76.1192C680.478 70.3644 675.812 65.6992 670.058 65.6992C664.303 65.6992 659.638 70.3644 659.638 76.1192C659.638 81.874 664.303 86.5391 670.058 86.5391Z" fill="#1C1C34"/>
<path d="M670.058 20.8399C675.812 20.8399 680.478 16.1747 680.478 10.42C680.478 4.66518 675.812 0 670.058 0C664.303 0 659.638 4.66518 659.638 10.42C659.638 16.1747 664.303 20.8399 670.058 20.8399Z" fill="#1C1C34"/>
<path d="M76.9459 121.827C77.9206 121.859 78.738 122.111 79.2407 122.803C79.7434 123.495 79.8688 124.25 79.7173 125.206L71.4969 159.299C71.2259 160.236 70.7349 161.016 69.8855 161.738C69.0361 162.461 68.1429 162.687 67.1493 162.774L17.0147 163.034L33.5561 94.9866L87.3507 94.8166L84.0978 108.386L44.6417 108.501L41.3888 122.071L76.9459 121.827ZM34.5245 149.153L59.6421 149.092L62.895 135.522L37.7775 135.583L34.5245 149.153Z" fill="#1C1C34"/>
<path d="M113.002 94.4721L170.357 94.2539L153.815 162.302L96.4611 162.52L113.002 94.4721ZM123.95 108.087L114.052 148.896L142.73 148.787L152.627 107.978L123.95 108.087Z" fill="#1C1C34"/>
<path d="M223.07 115.591L191.681 162.179L175.871 162.246L221.825 94.0829L234.692 94.04L247.564 161.973L231.754 162.039L223.07 115.591Z" fill="#1C1C34"/>
<path d="M294.111 120.973L333.567 120.857L323.67 161.666L269.875 161.836L286.417 93.788L300.755 93.7334L294.111 120.973ZM312.603 148.032L315.856 134.462L290.739 134.523L287.486 148.092L312.603 148.032Z" fill="#1C1C34"/>
<path d="M424.37 147.617L437.658 93.1389L451.997 93.0843L435.455 161.132L349.424 161.46L365.966 93.4117L380.304 93.3571L367.016 147.836L388.473 147.685L401.762 93.2061L416.1 93.1515L402.812 147.63L424.37 147.617Z" fill="#1C1C34"/>
<path d="M507.29 133.693L482.172 133.754L475.528 160.993L461.19 161.048L477.731 92.9998L531.525 92.8298L514.984 160.878L500.646 160.932L507.29 133.693ZM513.934 106.454L488.817 106.515L485.564 120.084L510.681 120.023L513.934 106.454Z" fill="#1C1C34"/>
<path d="M614.632 92.4058L598.091 160.454L583.752 160.508L590.396 133.269L587.095 133.236L562.313 160.54L544.673 160.561L569.455 133.257L554.619 133.355L561.263 106.116L554.144 106.212L557.397 92.6429L614.632 92.4058ZM575.583 106.181L572.192 119.851L593.649 119.7L596.902 106.13L575.583 106.181Z" fill="#1C1C34"/>
<path d="M38.1856 250.612L51.474 196.134L30.0165 196.285L16.7281 250.763L2.38956 250.818L15.678 196.339L8.55903 196.436L11.8119 182.866L69.166 182.648L52.6246 250.696L38.1856 250.612Z" fill="#1C1C34"/>
<path d="M135.13 182.201L131.877 195.77L103.2 195.879L101.505 202.714L130.182 202.605L126.929 216.174L98.2518 216.283L93.3033 236.688L121.98 236.579L118.727 250.148L75.7118 250.312L92.2532 182.264L135.13 182.201Z" fill="#1C1C34"/>
<path d="M169.701 222.954L163.057 250.193L148.719 250.248L162.007 195.769L154.888 195.866L158.141 182.297L215.495 182.078L205.598 222.887L169.701 222.954ZM176.346 195.715L173.093 209.284L194.55 209.133L197.803 195.564L176.346 195.715Z" fill="#1C1C34"/>
<path d="M281.458 181.633L278.205 195.203L249.528 195.312L247.832 202.147L276.509 202.038L273.256 215.607L244.579 215.716L239.63 236.12L268.307 236.011L265.055 249.581L222.039 249.744L238.58 181.696L281.458 181.633Z" fill="#1C1C34"/>
<path d="M311.413 212.101L302.285 249.602L287.947 249.657L304.488 181.609L322.386 181.506L328.868 228.707L358.283 181.439L376.181 181.336L359.64 249.384L345.301 249.439L354.429 211.937L330.963 249.493L316.624 249.548L311.413 212.101Z" fill="#1C1C34"/>
<path d="M442.125 181.009L438.873 194.579L410.196 194.688L408.5 201.523L437.177 201.414L433.924 214.983L405.247 215.092L400.298 235.496L428.975 235.387L425.723 248.957L382.707 249.12L399.248 181.072L442.125 181.009Z" fill="#1C1C34"/>
<path d="M504.511 180.731L518.85 180.677L502.308 248.725L487.97 248.779L494.614 221.54L469.497 221.601L462.852 248.84L448.514 248.895L465.055 180.847L479.394 180.792L472.749 208.032L497.867 207.971L504.511 180.731Z" fill="#1C1C34"/>
<path d="M571.457 221.226L546.339 221.287L539.695 248.526L525.357 248.581L541.898 180.533L595.692 180.363L579.151 248.411L564.813 248.465L571.457 221.226ZM577.963 194.087L552.845 194.148L549.592 207.718L574.71 207.657L577.963 194.087Z" fill="#1C1C34"/>
</svg>
